G75*
%MOIN*%
%OFA0B0*%
%FSLAX25Y25*%
%IPPOS*%
%LPD*%
%AMOC8*
5,1,8,0,0,1.08239X$1,22.5*
%
%ADD10C,0.00200*%
%ADD11C,0.00500*%
%ADD12C,0.00800*%
%ADD13C,0.00400*%
%ADD14R,0.01181X0.01181*%
%ADD15C,0.00600*%
%ADD16C,0.00300*%
%ADD17C,0.00000*%
%ADD18C,0.01000*%
D10*
X0062481Y0052071D02*
X0062481Y0053222D01*
X0062864Y0053605D01*
X0064399Y0053605D01*
X0064783Y0053222D01*
X0064783Y0052071D01*
X0062481Y0052071D01*
X0062864Y0054373D02*
X0063248Y0054373D01*
X0063632Y0054756D01*
X0063632Y0055524D01*
X0064015Y0055907D01*
X0064399Y0055907D01*
X0064783Y0055524D01*
X0064783Y0054756D01*
X0064399Y0054373D01*
X0064015Y0054373D01*
X0063632Y0054756D01*
X0063632Y0055524D02*
X0063248Y0055907D01*
X0062864Y0055907D01*
X0062481Y0055524D01*
X0062481Y0054756D01*
X0062864Y0054373D01*
X0066390Y0054982D02*
X0066774Y0054215D01*
X0067541Y0053448D01*
X0067541Y0054599D01*
X0067925Y0054982D01*
X0068308Y0054982D01*
X0068692Y0054599D01*
X0068692Y0053831D01*
X0068308Y0053448D01*
X0067541Y0053448D01*
X0067541Y0052680D02*
X0067925Y0052297D01*
X0067925Y0051146D01*
X0068692Y0051146D02*
X0066390Y0051146D01*
X0066390Y0052297D01*
X0066774Y0052680D01*
X0067541Y0052680D01*
X0067925Y0051913D02*
X0068692Y0052680D01*
X0071554Y0064342D02*
X0071554Y0065493D01*
X0071938Y0065876D01*
X0073472Y0065876D01*
X0073856Y0065493D01*
X0073856Y0064342D01*
X0071554Y0064342D01*
X0071554Y0066644D02*
X0071554Y0068178D01*
X0071938Y0068178D01*
X0073472Y0066644D01*
X0073856Y0066644D01*
X0083517Y0092050D02*
X0083517Y0093201D01*
X0083901Y0093585D01*
X0084668Y0093585D01*
X0085052Y0093201D01*
X0085052Y0092050D01*
X0085819Y0092050D02*
X0083517Y0092050D01*
X0085052Y0092818D02*
X0085819Y0093585D01*
X0085777Y0093512D02*
X0085777Y0094663D01*
X0086161Y0095047D01*
X0086928Y0095047D01*
X0087312Y0094663D01*
X0087312Y0093512D01*
X0088079Y0093512D02*
X0085777Y0093512D01*
X0085436Y0094352D02*
X0085819Y0094736D01*
X0085819Y0095503D01*
X0085436Y0095887D01*
X0083901Y0095887D01*
X0083517Y0095503D01*
X0083517Y0094736D01*
X0083901Y0094352D01*
X0084285Y0094352D01*
X0084668Y0094736D01*
X0084668Y0095887D01*
X0084668Y0096654D02*
X0084668Y0097805D01*
X0085052Y0098189D01*
X0085436Y0098189D01*
X0085819Y0097805D01*
X0085819Y0097038D01*
X0085436Y0096654D01*
X0084668Y0096654D01*
X0083901Y0097421D01*
X0083517Y0098189D01*
X0085777Y0098500D02*
X0085777Y0099267D01*
X0086161Y0099651D01*
X0087696Y0099651D01*
X0088079Y0099267D01*
X0088079Y0098500D01*
X0087696Y0098116D01*
X0087696Y0097349D02*
X0086161Y0097349D01*
X0085777Y0096965D01*
X0085777Y0096198D01*
X0086161Y0095814D01*
X0086545Y0095814D01*
X0086928Y0096198D01*
X0086928Y0097349D01*
X0087696Y0097349D02*
X0088079Y0096965D01*
X0088079Y0096198D01*
X0087696Y0095814D01*
X0088079Y0095047D02*
X0087312Y0094280D01*
X0086545Y0098116D02*
X0086161Y0098116D01*
X0085777Y0098500D01*
X0086545Y0098116D02*
X0086928Y0098500D01*
X0086928Y0099651D01*
X0087718Y0106336D02*
X0089252Y0106336D01*
X0089636Y0106719D01*
X0089636Y0107487D01*
X0089252Y0107870D01*
X0088485Y0108638D02*
X0088485Y0110172D01*
X0088485Y0110940D02*
X0088485Y0112091D01*
X0088869Y0112474D01*
X0089252Y0112474D01*
X0089636Y0112091D01*
X0089636Y0111323D01*
X0089252Y0110940D01*
X0088485Y0110940D01*
X0087718Y0111707D01*
X0087334Y0112474D01*
X0087334Y0109789D02*
X0088485Y0108638D01*
X0087718Y0107870D02*
X0087334Y0107487D01*
X0087334Y0106719D01*
X0087718Y0106336D01*
X0087334Y0109789D02*
X0089636Y0109789D01*
X0092726Y0118966D02*
X0093494Y0118966D01*
X0093877Y0119349D01*
X0094645Y0119349D02*
X0095028Y0118966D01*
X0095796Y0118966D01*
X0096179Y0119349D01*
X0096179Y0120116D01*
X0095796Y0120500D01*
X0095412Y0120500D01*
X0094645Y0120116D01*
X0094645Y0121267D01*
X0096179Y0121267D01*
X0096947Y0120884D02*
X0097330Y0121267D01*
X0098098Y0121267D01*
X0098481Y0120884D01*
X0098481Y0120500D01*
X0098098Y0120116D01*
X0098481Y0119733D01*
X0098481Y0119349D01*
X0098098Y0118966D01*
X0097330Y0118966D01*
X0096947Y0119349D01*
X0097714Y0120116D02*
X0098098Y0120116D01*
X0093877Y0120884D02*
X0093494Y0121267D01*
X0092726Y0121267D01*
X0092343Y0120884D01*
X0092343Y0119349D01*
X0092726Y0118966D01*
X0092778Y0125209D02*
X0093545Y0125209D01*
X0093929Y0125593D01*
X0094696Y0125593D02*
X0095080Y0125209D01*
X0095847Y0125209D01*
X0096231Y0125593D01*
X0096231Y0126360D01*
X0095847Y0126744D01*
X0095464Y0126744D01*
X0094696Y0126360D01*
X0094696Y0127511D01*
X0096231Y0127511D01*
X0096998Y0127127D02*
X0097382Y0127511D01*
X0098149Y0127511D01*
X0098533Y0127127D01*
X0098533Y0126744D01*
X0096998Y0125209D01*
X0098533Y0125209D01*
X0093929Y0127127D02*
X0093545Y0127511D01*
X0092778Y0127511D01*
X0092394Y0127127D01*
X0092394Y0125593D01*
X0092778Y0125209D01*
X0090757Y0139524D02*
X0088455Y0139524D01*
X0088455Y0140675D01*
X0088839Y0141059D01*
X0089606Y0141059D01*
X0089990Y0140675D01*
X0089990Y0139524D01*
X0089990Y0140292D02*
X0090757Y0141059D01*
X0090373Y0141826D02*
X0090757Y0142210D01*
X0090757Y0142977D01*
X0090373Y0143361D01*
X0088839Y0143361D01*
X0088455Y0142977D01*
X0088455Y0142210D01*
X0088839Y0141826D01*
X0089222Y0141826D01*
X0089606Y0142210D01*
X0089606Y0143361D01*
X0090373Y0144128D02*
X0090757Y0144128D01*
X0090373Y0144128D02*
X0088839Y0145663D01*
X0088455Y0145663D01*
X0088455Y0144128D01*
X0083882Y0144102D02*
X0083882Y0145636D01*
X0083882Y0144869D02*
X0081580Y0144869D01*
X0082348Y0144102D01*
X0082731Y0143334D02*
X0083499Y0143334D01*
X0083882Y0142951D01*
X0083882Y0142184D01*
X0083499Y0141800D01*
X0083499Y0141033D02*
X0083882Y0140649D01*
X0083882Y0139882D01*
X0083499Y0139498D01*
X0081964Y0139498D01*
X0081580Y0139882D01*
X0081580Y0140649D01*
X0081964Y0141033D01*
X0081580Y0141800D02*
X0082731Y0141800D01*
X0082348Y0142567D01*
X0082348Y0142951D01*
X0082731Y0143334D01*
X0081580Y0143334D02*
X0081580Y0141800D01*
X0073012Y0141561D02*
X0072628Y0141177D01*
X0073012Y0141561D02*
X0073012Y0142328D01*
X0072628Y0142712D01*
X0071861Y0142712D01*
X0071478Y0142328D01*
X0071478Y0141945D01*
X0071861Y0141177D01*
X0070710Y0141177D01*
X0070710Y0142712D01*
X0071861Y0143479D02*
X0070710Y0144630D01*
X0073012Y0144630D01*
X0071861Y0145014D02*
X0071861Y0143479D01*
X0071094Y0140410D02*
X0070710Y0140026D01*
X0070710Y0139259D01*
X0071094Y0138875D01*
X0072628Y0138875D01*
X0073012Y0139259D01*
X0073012Y0140026D01*
X0072628Y0140410D01*
X0068439Y0140985D02*
X0067672Y0140218D01*
X0067672Y0140601D02*
X0067672Y0139450D01*
X0068439Y0139450D02*
X0066137Y0139450D01*
X0066137Y0140601D01*
X0066521Y0140985D01*
X0067288Y0140985D01*
X0067672Y0140601D01*
X0067672Y0141752D02*
X0067288Y0142136D01*
X0067288Y0142903D01*
X0067672Y0143287D01*
X0068055Y0143287D01*
X0068439Y0142903D01*
X0068439Y0142136D01*
X0068055Y0141752D01*
X0067672Y0141752D01*
X0067288Y0142136D02*
X0066904Y0141752D01*
X0066521Y0141752D01*
X0066137Y0142136D01*
X0066137Y0142903D01*
X0066521Y0143287D01*
X0066904Y0143287D01*
X0067288Y0142903D01*
X0066386Y0143580D02*
X0066386Y0144347D01*
X0066003Y0144731D01*
X0064468Y0144731D01*
X0064084Y0144347D01*
X0064084Y0143580D01*
X0064468Y0143196D01*
X0064852Y0143196D01*
X0065235Y0143580D01*
X0065235Y0144731D01*
X0066137Y0145589D02*
X0066521Y0144822D01*
X0067288Y0144054D01*
X0067288Y0145205D01*
X0067672Y0145589D01*
X0068055Y0145589D01*
X0068439Y0145205D01*
X0068439Y0144438D01*
X0068055Y0144054D01*
X0067288Y0144054D01*
X0066386Y0143580D02*
X0066003Y0143196D01*
X0066003Y0142429D02*
X0066386Y0142045D01*
X0066386Y0141278D01*
X0066003Y0140894D01*
X0065619Y0140894D01*
X0065235Y0141278D01*
X0065235Y0142045D01*
X0065619Y0142429D01*
X0066003Y0142429D01*
X0065235Y0142045D02*
X0064852Y0142429D01*
X0064468Y0142429D01*
X0064084Y0142045D01*
X0064084Y0141278D01*
X0064468Y0140894D01*
X0064852Y0140894D01*
X0065235Y0141278D01*
X0065235Y0140127D02*
X0065619Y0139743D01*
X0065619Y0138592D01*
X0066386Y0138592D02*
X0064084Y0138592D01*
X0064084Y0139743D01*
X0064468Y0140127D01*
X0065235Y0140127D01*
X0065619Y0139360D02*
X0066386Y0140127D01*
X0061210Y0140178D02*
X0060442Y0139411D01*
X0060442Y0139794D02*
X0060442Y0138643D01*
X0061210Y0138643D02*
X0058908Y0138643D01*
X0058908Y0139794D01*
X0059291Y0140178D01*
X0060059Y0140178D01*
X0060442Y0139794D01*
X0060826Y0140945D02*
X0061210Y0141329D01*
X0061210Y0142096D01*
X0060826Y0142480D01*
X0059291Y0142480D01*
X0058908Y0142096D01*
X0058908Y0141329D01*
X0059291Y0140945D01*
X0059675Y0140945D01*
X0060059Y0141329D01*
X0060059Y0142480D01*
X0060826Y0143247D02*
X0059291Y0143247D01*
X0058908Y0143631D01*
X0058908Y0144398D01*
X0059291Y0144782D01*
X0060826Y0143247D01*
X0061210Y0143631D01*
X0061210Y0144398D01*
X0060826Y0144782D01*
X0059291Y0144782D01*
X0053588Y0132018D02*
X0052053Y0132018D01*
X0052053Y0130867D01*
X0052821Y0131250D01*
X0053204Y0131250D01*
X0053588Y0130867D01*
X0053588Y0130099D01*
X0053204Y0129716D01*
X0052437Y0129716D01*
X0052053Y0130099D01*
X0051719Y0129797D02*
X0050952Y0129797D01*
X0050568Y0129413D01*
X0050568Y0129029D01*
X0050952Y0128646D01*
X0052103Y0128646D01*
X0052103Y0129413D02*
X0051719Y0129797D01*
X0051286Y0130099D02*
X0050902Y0129716D01*
X0050135Y0129716D01*
X0049751Y0130099D01*
X0049417Y0129797D02*
X0049801Y0129413D01*
X0049801Y0128646D01*
X0049417Y0128262D01*
X0048266Y0128262D01*
X0048266Y0127495D02*
X0048266Y0129797D01*
X0049417Y0129797D01*
X0048984Y0130099D02*
X0048600Y0129716D01*
X0047833Y0129716D01*
X0047449Y0130099D01*
X0047449Y0131634D01*
X0047833Y0132018D01*
X0048600Y0132018D01*
X0048984Y0131634D01*
X0049751Y0132018D02*
X0049751Y0130867D01*
X0050519Y0131250D01*
X0050902Y0131250D01*
X0051286Y0130867D01*
X0051286Y0130099D01*
X0052103Y0129413D02*
X0052103Y0127878D01*
X0051719Y0127495D01*
X0050952Y0127495D01*
X0050568Y0127878D01*
X0049801Y0127495D02*
X0049034Y0128262D01*
X0049751Y0132018D02*
X0051286Y0132018D01*
X0053254Y0129797D02*
X0052870Y0129413D01*
X0053254Y0129797D02*
X0054021Y0129797D01*
X0054405Y0129413D01*
X0054405Y0129029D01*
X0052870Y0127495D01*
X0054405Y0127495D01*
X0054436Y0124721D02*
X0052901Y0124721D01*
X0052901Y0123570D01*
X0053668Y0123954D01*
X0054052Y0123954D01*
X0054436Y0123570D01*
X0054436Y0122803D01*
X0054052Y0122419D01*
X0053285Y0122419D01*
X0052901Y0122803D01*
X0052134Y0122803D02*
X0052134Y0124338D01*
X0051750Y0124721D01*
X0050983Y0124721D01*
X0050599Y0124338D01*
X0050599Y0123954D01*
X0050983Y0123570D01*
X0052134Y0123570D01*
X0052134Y0122803D02*
X0051750Y0122419D01*
X0050983Y0122419D01*
X0050599Y0122803D01*
X0049832Y0122419D02*
X0049064Y0123187D01*
X0049448Y0123187D02*
X0048297Y0123187D01*
X0048297Y0122419D02*
X0048297Y0124721D01*
X0049448Y0124721D01*
X0049832Y0124338D01*
X0049832Y0123570D01*
X0049448Y0123187D01*
X0049418Y0119590D02*
X0049801Y0119207D01*
X0049801Y0118439D01*
X0049418Y0118056D01*
X0048267Y0118056D01*
X0049034Y0118056D02*
X0049801Y0117288D01*
X0050569Y0117672D02*
X0050952Y0117288D01*
X0051720Y0117288D01*
X0052103Y0117672D01*
X0052103Y0119207D01*
X0051720Y0119590D01*
X0050952Y0119590D01*
X0050569Y0119207D01*
X0050569Y0118823D01*
X0050952Y0118439D01*
X0052103Y0118439D01*
X0052871Y0118439D02*
X0054405Y0118439D01*
X0054021Y0117288D02*
X0054021Y0119590D01*
X0052871Y0118439D01*
X0049418Y0119590D02*
X0048267Y0119590D01*
X0048267Y0117288D01*
X0048279Y0114428D02*
X0049430Y0114428D01*
X0049814Y0114045D01*
X0049814Y0113277D01*
X0049430Y0112894D01*
X0048279Y0112894D01*
X0049047Y0112894D02*
X0049814Y0112126D01*
X0050581Y0112510D02*
X0050965Y0112126D01*
X0051732Y0112126D01*
X0052116Y0112510D01*
X0052116Y0114045D01*
X0051732Y0114428D01*
X0050965Y0114428D01*
X0050581Y0114045D01*
X0050581Y0113661D01*
X0050965Y0113277D01*
X0052116Y0113277D01*
X0052883Y0112510D02*
X0053267Y0112126D01*
X0054034Y0112126D01*
X0054418Y0112510D01*
X0054418Y0112894D01*
X0054034Y0113277D01*
X0053651Y0113277D01*
X0054034Y0113277D02*
X0054418Y0113661D01*
X0054418Y0114045D01*
X0054034Y0114428D01*
X0053267Y0114428D01*
X0052883Y0114045D01*
X0048279Y0114428D02*
X0048279Y0112126D01*
X0054094Y0104343D02*
X0054094Y0102809D01*
X0054094Y0103576D02*
X0051792Y0103576D01*
X0052559Y0102809D01*
X0052175Y0102041D02*
X0053710Y0102041D01*
X0054094Y0101658D01*
X0054094Y0100890D01*
X0053710Y0100507D01*
X0052943Y0100890D02*
X0052943Y0102041D01*
X0052175Y0102041D02*
X0051792Y0101658D01*
X0051792Y0100890D01*
X0052175Y0100507D01*
X0052559Y0100507D01*
X0052943Y0100890D01*
X0052943Y0099740D02*
X0053326Y0099356D01*
X0053326Y0098205D01*
X0053326Y0098972D02*
X0054094Y0099740D01*
X0052943Y0099740D02*
X0052175Y0099740D01*
X0051792Y0099356D01*
X0051792Y0098205D01*
X0054094Y0098205D01*
X0056331Y0098736D02*
X0056715Y0099120D01*
X0057482Y0099120D01*
X0057866Y0098736D01*
X0057866Y0097585D01*
X0058633Y0097585D02*
X0056331Y0097585D01*
X0056331Y0098736D01*
X0057099Y0099887D02*
X0056331Y0100655D01*
X0058633Y0100655D01*
X0058633Y0101422D02*
X0058633Y0099887D01*
X0058633Y0099120D02*
X0057866Y0098353D01*
X0062060Y0098210D02*
X0062060Y0099361D01*
X0062444Y0099745D01*
X0063211Y0099745D01*
X0063595Y0099361D01*
X0063595Y0098210D01*
X0064362Y0098210D02*
X0062060Y0098210D01*
X0063595Y0098978D02*
X0064362Y0099745D01*
X0064362Y0100512D02*
X0064362Y0102047D01*
X0064362Y0101280D02*
X0062060Y0101280D01*
X0062827Y0100512D01*
X0062444Y0102814D02*
X0062060Y0103198D01*
X0062060Y0103965D01*
X0062444Y0104349D01*
X0063978Y0102814D01*
X0064362Y0103198D01*
X0064362Y0103965D01*
X0063978Y0104349D01*
X0062444Y0104349D01*
X0062444Y0105116D02*
X0062060Y0105500D01*
X0062060Y0106267D01*
X0062444Y0106651D01*
X0063978Y0105116D01*
X0064362Y0105500D01*
X0064362Y0106267D01*
X0063978Y0106651D01*
X0062444Y0106651D01*
X0062444Y0105116D02*
X0063978Y0105116D01*
X0065982Y0104572D02*
X0065982Y0103805D01*
X0066366Y0103421D01*
X0066749Y0103421D01*
X0067133Y0103805D01*
X0067133Y0104572D01*
X0067516Y0104956D01*
X0067900Y0104956D01*
X0068284Y0104572D01*
X0068284Y0103805D01*
X0067900Y0103421D01*
X0067516Y0103421D01*
X0067133Y0103805D01*
X0067133Y0104572D02*
X0066749Y0104956D01*
X0066366Y0104956D01*
X0065982Y0104572D01*
X0066366Y0102654D02*
X0065982Y0102270D01*
X0065982Y0101503D01*
X0066366Y0101120D01*
X0066749Y0101120D01*
X0067133Y0101503D01*
X0067133Y0102654D01*
X0067900Y0102654D02*
X0066366Y0102654D01*
X0067900Y0102654D02*
X0068284Y0102270D01*
X0068284Y0101503D01*
X0067900Y0101120D01*
X0068284Y0100352D02*
X0067516Y0099585D01*
X0067516Y0099969D02*
X0067516Y0098818D01*
X0068284Y0098818D02*
X0065982Y0098818D01*
X0065982Y0099969D01*
X0066366Y0100352D01*
X0067133Y0100352D01*
X0067516Y0099969D01*
X0063978Y0102814D02*
X0062444Y0102814D01*
X0058633Y0102573D02*
X0058250Y0102189D01*
X0056715Y0103724D01*
X0058250Y0103724D01*
X0058633Y0103340D01*
X0058633Y0102573D01*
X0058250Y0102189D02*
X0056715Y0102189D01*
X0056331Y0102573D01*
X0056331Y0103340D01*
X0056715Y0103724D01*
X0057099Y0104491D02*
X0056331Y0105258D01*
X0058633Y0105258D01*
X0058633Y0104491D02*
X0058633Y0106026D01*
X0057687Y0107544D02*
X0059606Y0107544D01*
X0059989Y0107928D01*
X0059989Y0108695D01*
X0059606Y0109079D01*
X0057687Y0109079D01*
X0058071Y0109846D02*
X0058455Y0109846D01*
X0058838Y0110230D01*
X0058838Y0111381D01*
X0058071Y0111381D02*
X0057687Y0110997D01*
X0057687Y0110230D01*
X0058071Y0109846D01*
X0059606Y0109846D02*
X0059989Y0110230D01*
X0059989Y0110997D01*
X0059606Y0111381D01*
X0058071Y0111381D01*
X0071400Y0100138D02*
X0071783Y0099371D01*
X0072551Y0098604D01*
X0072551Y0099754D01*
X0072934Y0100138D01*
X0073318Y0100138D01*
X0073702Y0099754D01*
X0073702Y0098987D01*
X0073318Y0098604D01*
X0072551Y0098604D01*
X0072167Y0097836D02*
X0071783Y0097836D01*
X0071400Y0097453D01*
X0071400Y0096685D01*
X0071783Y0096302D01*
X0071783Y0095534D02*
X0071400Y0095151D01*
X0071400Y0094000D01*
X0073702Y0094000D01*
X0073702Y0095151D01*
X0073318Y0095534D01*
X0071783Y0095534D01*
X0073702Y0096302D02*
X0072167Y0097836D01*
X0073702Y0097836D02*
X0073702Y0096302D01*
X0037209Y0101414D02*
X0034907Y0101414D01*
X0034907Y0102565D01*
X0035290Y0102948D01*
X0036058Y0102948D01*
X0036441Y0102565D01*
X0036441Y0101414D01*
X0036441Y0102181D02*
X0037209Y0102948D01*
X0037209Y0103716D02*
X0037209Y0105250D01*
X0037209Y0104483D02*
X0034907Y0104483D01*
X0035674Y0103716D01*
X0035290Y0106018D02*
X0034907Y0106401D01*
X0034907Y0107169D01*
X0035290Y0107552D01*
X0036825Y0106018D01*
X0037209Y0106401D01*
X0037209Y0107169D01*
X0036825Y0107552D01*
X0035290Y0107552D01*
X0035290Y0108320D02*
X0034907Y0108703D01*
X0034907Y0109471D01*
X0035290Y0109854D01*
X0035674Y0109854D01*
X0037209Y0108320D01*
X0037209Y0109854D01*
X0036825Y0106018D02*
X0035290Y0106018D01*
X0036904Y0142943D02*
X0036520Y0143327D01*
X0036520Y0144861D01*
X0036904Y0145245D01*
X0037671Y0145245D01*
X0038055Y0144861D01*
X0038822Y0145245D02*
X0040357Y0145245D01*
X0040357Y0144861D01*
X0038822Y0143327D01*
X0038822Y0142943D01*
X0038055Y0143327D02*
X0037671Y0142943D01*
X0036904Y0142943D01*
X0041124Y0142943D02*
X0042659Y0144478D01*
X0042659Y0144861D01*
X0042275Y0145245D01*
X0041508Y0145245D01*
X0041124Y0144861D01*
X0041124Y0142943D02*
X0042659Y0142943D01*
X0042745Y0164512D02*
X0041210Y0164512D01*
X0041977Y0164512D02*
X0041977Y0166814D01*
X0041210Y0166047D01*
X0040443Y0166430D02*
X0038908Y0164896D01*
X0038908Y0164512D01*
X0038141Y0164896D02*
X0037757Y0164512D01*
X0036990Y0164512D01*
X0036606Y0164896D01*
X0036606Y0166430D01*
X0036990Y0166814D01*
X0037757Y0166814D01*
X0038141Y0166430D01*
X0038908Y0166814D02*
X0040443Y0166814D01*
X0040443Y0166430D01*
X0075548Y0207030D02*
X0075548Y0208181D01*
X0075932Y0208565D01*
X0077467Y0208565D01*
X0077850Y0208181D01*
X0077850Y0207030D01*
X0075548Y0207030D01*
X0075932Y0209332D02*
X0075548Y0209716D01*
X0075548Y0210483D01*
X0075932Y0210867D01*
X0076316Y0210867D01*
X0076699Y0210483D01*
X0077083Y0210867D01*
X0077467Y0210867D01*
X0077850Y0210483D01*
X0077850Y0209716D01*
X0077467Y0209332D01*
X0076699Y0210099D02*
X0076699Y0210483D01*
X0080629Y0210818D02*
X0081013Y0211201D01*
X0081396Y0211201D01*
X0082931Y0209667D01*
X0082931Y0211201D01*
X0080629Y0210818D02*
X0080629Y0210050D01*
X0081013Y0209667D01*
X0081780Y0208900D02*
X0081780Y0207365D01*
X0080629Y0208516D01*
X0082931Y0208516D01*
X0082931Y0206598D02*
X0082163Y0205830D01*
X0082163Y0206214D02*
X0082163Y0205063D01*
X0082931Y0205063D02*
X0080629Y0205063D01*
X0080629Y0206214D01*
X0081013Y0206598D01*
X0081780Y0206598D01*
X0082163Y0206214D01*
X0085713Y0206240D02*
X0085713Y0205089D01*
X0088015Y0205089D01*
X0087248Y0205089D02*
X0087248Y0206240D01*
X0086864Y0206624D01*
X0086097Y0206624D01*
X0085713Y0206240D01*
X0087248Y0205856D02*
X0088015Y0206624D01*
X0086864Y0207391D02*
X0086864Y0208926D01*
X0086480Y0209693D02*
X0085713Y0210460D01*
X0088015Y0210460D01*
X0088015Y0209693D02*
X0088015Y0211228D01*
X0090172Y0210472D02*
X0090172Y0209705D01*
X0090555Y0209321D01*
X0090555Y0208554D02*
X0090172Y0208170D01*
X0090172Y0207019D01*
X0092474Y0207019D01*
X0092474Y0208170D01*
X0092090Y0208554D01*
X0090555Y0208554D01*
X0090172Y0210472D02*
X0090555Y0210856D01*
X0090939Y0210856D01*
X0092474Y0209321D01*
X0092474Y0210856D01*
X0088015Y0208542D02*
X0085713Y0208542D01*
X0086864Y0207391D01*
X0091319Y0189020D02*
X0092470Y0189020D01*
X0092853Y0188637D01*
X0092853Y0187102D01*
X0092470Y0186718D01*
X0091319Y0186718D01*
X0091319Y0189020D01*
X0093621Y0188637D02*
X0094004Y0189020D01*
X0094772Y0189020D01*
X0095155Y0188637D01*
X0095155Y0188253D01*
X0093621Y0186718D01*
X0095155Y0186718D01*
X0095923Y0187102D02*
X0096306Y0186718D01*
X0097074Y0186718D01*
X0097457Y0187102D01*
X0097457Y0188637D01*
X0097074Y0189020D01*
X0096306Y0189020D01*
X0095923Y0188637D01*
X0095923Y0188253D01*
X0096306Y0187869D01*
X0097457Y0187869D01*
X0095997Y0176873D02*
X0094846Y0175722D01*
X0096381Y0175722D01*
X0095997Y0174571D02*
X0095997Y0176873D01*
X0093311Y0176873D02*
X0093311Y0174571D01*
X0092544Y0174571D02*
X0094079Y0174571D01*
X0092544Y0176106D02*
X0093311Y0176873D01*
X0091009Y0176873D02*
X0091009Y0174571D01*
X0090242Y0174571D02*
X0091777Y0174571D01*
X0090242Y0176106D02*
X0091009Y0176873D01*
X0089475Y0176490D02*
X0089475Y0175722D01*
X0089091Y0175339D01*
X0087940Y0175339D01*
X0088707Y0175339D02*
X0089475Y0174571D01*
X0087940Y0174571D02*
X0087940Y0176873D01*
X0089091Y0176873D01*
X0089475Y0176490D01*
X0090284Y0158826D02*
X0090284Y0156524D01*
X0089517Y0156524D02*
X0091051Y0156524D01*
X0091819Y0156907D02*
X0092202Y0156524D01*
X0092970Y0156524D01*
X0093353Y0156907D01*
X0093353Y0157675D01*
X0092970Y0158058D01*
X0092586Y0158058D01*
X0091819Y0157675D01*
X0091819Y0158826D01*
X0093353Y0158826D01*
X0090284Y0158826D02*
X0089517Y0158058D01*
X0088749Y0156524D02*
X0087215Y0156524D01*
X0087982Y0156524D02*
X0087982Y0158826D01*
X0087215Y0158058D01*
X0086447Y0157675D02*
X0086064Y0157291D01*
X0084913Y0157291D01*
X0085680Y0157291D02*
X0086447Y0156524D01*
X0086447Y0157675D02*
X0086447Y0158442D01*
X0086064Y0158826D01*
X0084913Y0158826D01*
X0084913Y0156524D01*
X0135689Y0194903D02*
X0135689Y0197205D01*
X0136840Y0197205D01*
X0137224Y0196821D01*
X0137224Y0196054D01*
X0136840Y0195670D01*
X0135689Y0195670D01*
X0136457Y0195670D02*
X0137224Y0194903D01*
X0137991Y0196054D02*
X0139526Y0196054D01*
X0139142Y0197205D02*
X0137991Y0196054D01*
X0139142Y0194903D02*
X0139142Y0197205D01*
X0148344Y0189518D02*
X0148344Y0187983D01*
X0148728Y0187600D01*
X0149495Y0187600D01*
X0149879Y0187983D01*
X0150646Y0187983D02*
X0151030Y0187600D01*
X0151797Y0187600D01*
X0152181Y0187983D01*
X0152181Y0188367D01*
X0151797Y0188751D01*
X0150646Y0188751D01*
X0150646Y0187983D01*
X0150646Y0188751D02*
X0151414Y0189518D01*
X0152181Y0189902D01*
X0149879Y0189518D02*
X0149495Y0189902D01*
X0148728Y0189902D01*
X0148344Y0189518D01*
X0157161Y0189464D02*
X0157545Y0189081D01*
X0158312Y0189081D01*
X0158696Y0189464D01*
X0159463Y0189081D02*
X0160998Y0190615D01*
X0160998Y0190999D01*
X0160614Y0191382D01*
X0159847Y0191382D01*
X0159463Y0190999D01*
X0158696Y0190999D02*
X0158312Y0191382D01*
X0157545Y0191382D01*
X0157161Y0190999D01*
X0157161Y0189464D01*
X0159463Y0189081D02*
X0160998Y0189081D01*
X0160990Y0193777D02*
X0159455Y0193777D01*
X0160223Y0193777D02*
X0160223Y0196079D01*
X0159455Y0195312D01*
X0158688Y0195695D02*
X0158304Y0196079D01*
X0157537Y0196079D01*
X0157153Y0195695D01*
X0157153Y0194161D01*
X0157537Y0193777D01*
X0158304Y0193777D01*
X0158688Y0194161D01*
X0167641Y0192504D02*
X0170353Y0193046D01*
X0170353Y0191961D02*
X0171439Y0191961D01*
X0169811Y0190333D01*
X0170353Y0189791D02*
X0169268Y0190876D01*
X0168726Y0191419D02*
X0169268Y0194131D01*
X0169805Y0201834D02*
X0169805Y0204136D01*
X0168654Y0202985D01*
X0170188Y0202985D01*
X0167886Y0203753D02*
X0166352Y0202218D01*
X0166352Y0201834D01*
X0165584Y0202218D02*
X0165201Y0201834D01*
X0164433Y0201834D01*
X0164050Y0202218D01*
X0164050Y0203753D01*
X0164433Y0204136D01*
X0165201Y0204136D01*
X0165584Y0203753D01*
X0166352Y0204136D02*
X0167886Y0204136D01*
X0167886Y0203753D01*
X0158077Y0212695D02*
X0157694Y0212311D01*
X0156926Y0212311D01*
X0156543Y0212695D01*
X0156543Y0213462D02*
X0157310Y0213846D01*
X0157694Y0213846D01*
X0158077Y0213462D01*
X0158077Y0212695D01*
X0156543Y0213462D02*
X0156543Y0214613D01*
X0158077Y0214613D01*
X0155775Y0214230D02*
X0155392Y0214613D01*
X0154624Y0214613D01*
X0154241Y0214230D01*
X0154241Y0212695D01*
X0154624Y0212311D01*
X0155392Y0212311D01*
X0155775Y0212695D01*
X0142542Y0222316D02*
X0141008Y0222316D01*
X0141775Y0222316D02*
X0141775Y0224618D01*
X0141008Y0223850D01*
X0140240Y0224234D02*
X0139857Y0224618D01*
X0138706Y0224618D01*
X0138706Y0222316D01*
X0139857Y0222316D01*
X0140240Y0222699D01*
X0140240Y0224234D01*
X0137939Y0224618D02*
X0136404Y0224618D01*
X0136404Y0222316D01*
X0137939Y0222316D01*
X0137171Y0223467D02*
X0136404Y0223467D01*
X0135637Y0222316D02*
X0134102Y0222316D01*
X0134102Y0224618D01*
X0157342Y0227587D02*
X0157342Y0229889D01*
X0158493Y0229889D01*
X0158877Y0229505D01*
X0158877Y0228738D01*
X0158493Y0228354D01*
X0157342Y0228354D01*
X0158110Y0228354D02*
X0158877Y0227587D01*
X0159644Y0227970D02*
X0160028Y0227587D01*
X0160795Y0227587D01*
X0161179Y0227970D01*
X0161179Y0228354D01*
X0160795Y0228738D01*
X0160412Y0228738D01*
X0160795Y0228738D02*
X0161179Y0229121D01*
X0161179Y0229505D01*
X0160795Y0229889D01*
X0160028Y0229889D01*
X0159644Y0229505D01*
X0176717Y0188524D02*
X0176717Y0186606D01*
X0177100Y0186222D01*
X0177868Y0186222D01*
X0178251Y0186606D01*
X0178251Y0188524D01*
X0179019Y0188140D02*
X0179402Y0188524D01*
X0180170Y0188524D01*
X0180553Y0188140D01*
X0180553Y0187757D01*
X0179019Y0186222D01*
X0180553Y0186222D01*
X0183455Y0169481D02*
X0183839Y0169481D01*
X0185373Y0167947D01*
X0185757Y0167947D01*
X0185757Y0167179D02*
X0184990Y0166412D01*
X0184990Y0166796D02*
X0184990Y0165645D01*
X0185757Y0165645D02*
X0183455Y0165645D01*
X0183455Y0166796D01*
X0183839Y0167179D01*
X0184606Y0167179D01*
X0184990Y0166796D01*
X0183455Y0167947D02*
X0183455Y0169481D01*
X0183773Y0157516D02*
X0183005Y0157516D01*
X0182622Y0157133D01*
X0182622Y0155598D01*
X0183005Y0155214D01*
X0183773Y0155214D01*
X0184156Y0155598D01*
X0184924Y0155214D02*
X0186458Y0155214D01*
X0185691Y0155214D02*
X0185691Y0157516D01*
X0184924Y0156749D01*
X0184156Y0157133D02*
X0183773Y0157516D01*
X0181854Y0157516D02*
X0181087Y0157516D01*
X0181471Y0157516D02*
X0181471Y0155214D01*
X0181854Y0155214D02*
X0181087Y0155214D01*
X0205328Y0189078D02*
X0205328Y0190229D01*
X0205711Y0190613D01*
X0206479Y0190613D01*
X0206862Y0190229D01*
X0206862Y0189078D01*
X0207630Y0189078D02*
X0205328Y0189078D01*
X0206862Y0189846D02*
X0207630Y0190613D01*
X0207630Y0191380D02*
X0207630Y0192915D01*
X0207630Y0192148D02*
X0205328Y0192148D01*
X0206095Y0191380D01*
X0210173Y0191758D02*
X0210556Y0191375D01*
X0210173Y0191758D02*
X0210173Y0192526D01*
X0210556Y0192909D01*
X0210940Y0192909D01*
X0212475Y0191375D01*
X0212475Y0192909D01*
X0212475Y0190607D02*
X0211707Y0189840D01*
X0211707Y0190224D02*
X0211707Y0189073D01*
X0212475Y0189073D02*
X0210173Y0189073D01*
X0210173Y0190224D01*
X0210556Y0190607D01*
X0211324Y0190607D01*
X0211707Y0190224D01*
X0215914Y0182090D02*
X0215531Y0181706D01*
X0215531Y0180171D01*
X0215914Y0179788D01*
X0216682Y0179788D01*
X0217065Y0180171D01*
X0217833Y0180939D02*
X0218984Y0182090D01*
X0218984Y0179788D01*
X0219367Y0180939D02*
X0217833Y0180939D01*
X0217065Y0181706D02*
X0216682Y0182090D01*
X0215914Y0182090D01*
X0223388Y0189466D02*
X0223004Y0189850D01*
X0223004Y0190617D01*
X0223388Y0191001D01*
X0223388Y0191768D02*
X0223004Y0192152D01*
X0223004Y0192919D01*
X0223388Y0193303D01*
X0223772Y0193303D01*
X0224155Y0192919D01*
X0224539Y0193303D01*
X0224923Y0193303D01*
X0225306Y0192919D01*
X0225306Y0192152D01*
X0224923Y0191768D01*
X0224923Y0191001D02*
X0225306Y0190617D01*
X0225306Y0189850D01*
X0224923Y0189466D01*
X0223388Y0189466D01*
X0224155Y0192535D02*
X0224155Y0192919D01*
X0218164Y0154096D02*
X0216629Y0154096D01*
X0216245Y0153712D01*
X0216245Y0152945D01*
X0216629Y0152561D01*
X0217013Y0152561D01*
X0217396Y0152945D01*
X0217396Y0154096D01*
X0218164Y0154096D02*
X0218547Y0153712D01*
X0218547Y0152945D01*
X0218164Y0152561D01*
X0218164Y0151794D02*
X0218547Y0151410D01*
X0218547Y0150643D01*
X0218164Y0150259D01*
X0216629Y0150259D01*
X0216245Y0150643D01*
X0216245Y0151410D01*
X0216629Y0151794D01*
X0216313Y0146442D02*
X0216313Y0144907D01*
X0217464Y0144907D01*
X0217081Y0145675D01*
X0217081Y0146058D01*
X0217464Y0146442D01*
X0218232Y0146442D01*
X0218615Y0146058D01*
X0218615Y0145291D01*
X0218232Y0144907D01*
X0218615Y0144140D02*
X0218615Y0142605D01*
X0217081Y0144140D01*
X0216697Y0144140D01*
X0216313Y0143756D01*
X0216313Y0142989D01*
X0216697Y0142605D01*
X0216697Y0141838D02*
X0216313Y0141454D01*
X0216313Y0140303D01*
X0218615Y0140303D01*
X0218615Y0141454D01*
X0218232Y0141838D01*
X0216697Y0141838D01*
X0216984Y0134076D02*
X0217751Y0134076D01*
X0218135Y0133693D01*
X0218135Y0132925D01*
X0217751Y0132542D01*
X0216984Y0132542D02*
X0216600Y0133309D01*
X0216600Y0133693D01*
X0216984Y0134076D01*
X0215833Y0134076D02*
X0215833Y0132542D01*
X0216984Y0132542D01*
X0216984Y0131775D02*
X0217367Y0131391D01*
X0217367Y0130240D01*
X0217367Y0131007D02*
X0218135Y0131775D01*
X0216984Y0131775D02*
X0216216Y0131775D01*
X0215833Y0131391D01*
X0215833Y0130240D01*
X0218135Y0130240D01*
X0218234Y0123262D02*
X0216699Y0123262D01*
X0216316Y0122878D01*
X0216316Y0122111D01*
X0216699Y0121727D01*
X0217083Y0121727D01*
X0217467Y0122111D01*
X0217467Y0123262D01*
X0218234Y0123262D02*
X0218618Y0122878D01*
X0218618Y0122111D01*
X0218234Y0121727D01*
X0218234Y0120960D02*
X0216699Y0120960D01*
X0216316Y0120576D01*
X0216316Y0119426D01*
X0218618Y0119426D01*
X0218618Y0120576D01*
X0218234Y0120960D01*
X0210897Y0093362D02*
X0210130Y0093362D01*
X0209746Y0092978D01*
X0209746Y0092594D01*
X0210130Y0092211D01*
X0211281Y0092211D01*
X0211281Y0092978D02*
X0210897Y0093362D01*
X0211281Y0092978D02*
X0211281Y0091443D01*
X0210897Y0091060D01*
X0210130Y0091060D01*
X0209746Y0091443D01*
X0208979Y0091060D02*
X0207444Y0091060D01*
X0208212Y0091060D02*
X0208212Y0093362D01*
X0207444Y0092594D01*
X0206677Y0092978D02*
X0206293Y0093362D01*
X0205526Y0093362D01*
X0205142Y0092978D01*
X0205142Y0091443D01*
X0205526Y0091060D01*
X0206293Y0091060D01*
X0206677Y0091443D01*
X0208272Y0084805D02*
X0207889Y0084422D01*
X0207889Y0082887D01*
X0208272Y0082503D01*
X0209040Y0082503D01*
X0209423Y0082887D01*
X0210191Y0082503D02*
X0211725Y0084038D01*
X0211725Y0084422D01*
X0211342Y0084805D01*
X0210574Y0084805D01*
X0210191Y0084422D01*
X0209423Y0084422D02*
X0209040Y0084805D01*
X0208272Y0084805D01*
X0210191Y0082503D02*
X0211725Y0082503D01*
X0212493Y0082887D02*
X0212876Y0082503D01*
X0213644Y0082503D01*
X0214027Y0082887D01*
X0214027Y0083271D01*
X0213644Y0083654D01*
X0212493Y0083654D01*
X0212493Y0082887D01*
X0212493Y0083654D02*
X0213260Y0084422D01*
X0214027Y0084805D01*
X0208935Y0077904D02*
X0209319Y0077520D01*
X0207784Y0075985D01*
X0208168Y0075602D01*
X0208935Y0075602D01*
X0209319Y0075985D01*
X0209319Y0077520D01*
X0208935Y0077904D02*
X0208168Y0077904D01*
X0207784Y0077520D01*
X0207784Y0075985D01*
X0207017Y0075602D02*
X0205483Y0075602D01*
X0207017Y0077136D01*
X0207017Y0077520D01*
X0206634Y0077904D01*
X0205866Y0077904D01*
X0205483Y0077520D01*
X0204715Y0077520D02*
X0204332Y0077904D01*
X0203564Y0077904D01*
X0203181Y0077520D01*
X0203181Y0075985D01*
X0203564Y0075602D01*
X0204332Y0075602D01*
X0204715Y0075985D01*
X0208294Y0061548D02*
X0207911Y0061165D01*
X0207911Y0059630D01*
X0208294Y0059246D01*
X0209062Y0059246D01*
X0209445Y0059630D01*
X0210213Y0059246D02*
X0211747Y0059246D01*
X0210980Y0059246D02*
X0210980Y0061548D01*
X0210213Y0060781D01*
X0209445Y0061165D02*
X0209062Y0061548D01*
X0208294Y0061548D01*
X0212515Y0061548D02*
X0214049Y0061548D01*
X0214049Y0061165D01*
X0212515Y0059630D01*
X0212515Y0059246D01*
X0210362Y0056457D02*
X0210746Y0056074D01*
X0210746Y0055690D01*
X0210362Y0055306D01*
X0209595Y0055306D01*
X0209211Y0055690D01*
X0209211Y0056074D01*
X0209595Y0056457D01*
X0210362Y0056457D01*
X0210362Y0055306D02*
X0210746Y0054923D01*
X0210746Y0054539D01*
X0210362Y0054155D01*
X0209595Y0054155D01*
X0209211Y0054539D01*
X0209211Y0054923D01*
X0209595Y0055306D01*
X0208444Y0054155D02*
X0206909Y0054155D01*
X0207677Y0054155D02*
X0207677Y0056457D01*
X0206909Y0055690D01*
X0206142Y0056074D02*
X0205758Y0056457D01*
X0204991Y0056457D01*
X0204607Y0056074D01*
X0204607Y0054539D01*
X0204991Y0054155D01*
X0205758Y0054155D01*
X0206142Y0054539D01*
X0206365Y0051625D02*
X0205981Y0051241D01*
X0206365Y0051625D02*
X0207132Y0051625D01*
X0207516Y0051241D01*
X0207516Y0050857D01*
X0205981Y0049323D01*
X0207516Y0049323D01*
X0208283Y0049706D02*
X0208667Y0049323D01*
X0209434Y0049323D01*
X0209818Y0049706D01*
X0209818Y0050474D01*
X0209434Y0050857D01*
X0209051Y0050857D01*
X0208283Y0050474D01*
X0208283Y0051625D01*
X0209818Y0051625D01*
X0205214Y0051241D02*
X0204830Y0051625D01*
X0204063Y0051625D01*
X0203680Y0051241D01*
X0203680Y0049706D01*
X0204063Y0049323D01*
X0204830Y0049323D01*
X0205214Y0049706D01*
X0194566Y0029477D02*
X0193799Y0029093D01*
X0193031Y0028326D01*
X0194182Y0028326D01*
X0194566Y0027942D01*
X0194566Y0027558D01*
X0194182Y0027175D01*
X0193415Y0027175D01*
X0193031Y0027558D01*
X0193031Y0028326D01*
X0192264Y0027175D02*
X0190729Y0027175D01*
X0191497Y0027175D02*
X0191497Y0029477D01*
X0190729Y0028709D01*
X0189962Y0029093D02*
X0189578Y0029477D01*
X0188811Y0029477D01*
X0188427Y0029093D01*
X0188427Y0027558D01*
X0188811Y0027175D01*
X0189578Y0027175D01*
X0189962Y0027558D01*
X0178928Y0026498D02*
X0178928Y0026115D01*
X0178544Y0025731D01*
X0177777Y0025731D01*
X0177393Y0026115D01*
X0177393Y0026498D01*
X0177777Y0026882D01*
X0178544Y0026882D01*
X0178928Y0026498D01*
X0178544Y0025731D02*
X0178928Y0025347D01*
X0178928Y0024964D01*
X0178544Y0024580D01*
X0177777Y0024580D01*
X0177393Y0024964D01*
X0177393Y0025347D01*
X0177777Y0025731D01*
X0176626Y0026115D02*
X0176626Y0026498D01*
X0176242Y0026882D01*
X0175475Y0026882D01*
X0175091Y0026498D01*
X0174324Y0026498D02*
X0173940Y0026882D01*
X0173173Y0026882D01*
X0172789Y0026498D01*
X0172789Y0024964D01*
X0173173Y0024580D01*
X0173940Y0024580D01*
X0174324Y0024964D01*
X0175091Y0024580D02*
X0176626Y0026115D01*
X0176626Y0024580D02*
X0175091Y0024580D01*
X0171194Y0026139D02*
X0171194Y0026523D01*
X0172728Y0028057D01*
X0172728Y0028441D01*
X0171194Y0028441D01*
X0170426Y0028057D02*
X0170043Y0028441D01*
X0169275Y0028441D01*
X0168892Y0028057D01*
X0168124Y0028057D02*
X0167741Y0028441D01*
X0166973Y0028441D01*
X0166590Y0028057D01*
X0166590Y0026523D01*
X0166973Y0026139D01*
X0167741Y0026139D01*
X0168124Y0026523D01*
X0168892Y0026139D02*
X0170426Y0027674D01*
X0170426Y0028057D01*
X0170426Y0026139D02*
X0168892Y0026139D01*
X0157354Y0026405D02*
X0157354Y0027940D01*
X0157354Y0027173D02*
X0155052Y0027173D01*
X0155820Y0026405D01*
X0155820Y0025638D02*
X0155436Y0025638D01*
X0155052Y0025254D01*
X0155052Y0024487D01*
X0155436Y0024103D01*
X0155436Y0023336D02*
X0155052Y0022952D01*
X0155052Y0022185D01*
X0155436Y0021801D01*
X0156971Y0021801D01*
X0157354Y0022185D01*
X0157354Y0022952D01*
X0156971Y0023336D01*
X0157354Y0024103D02*
X0155820Y0025638D01*
X0157354Y0025638D02*
X0157354Y0024103D01*
X0144789Y0023037D02*
X0144405Y0023421D01*
X0143638Y0023421D01*
X0143254Y0023037D01*
X0142487Y0023037D02*
X0142103Y0023421D01*
X0141336Y0023421D01*
X0140952Y0023037D01*
X0140185Y0023037D02*
X0139801Y0023421D01*
X0139034Y0023421D01*
X0138650Y0023037D01*
X0138650Y0021502D01*
X0139034Y0021119D01*
X0139801Y0021119D01*
X0140185Y0021502D01*
X0140952Y0021119D02*
X0142487Y0022653D01*
X0142487Y0023037D01*
X0142487Y0021119D02*
X0140952Y0021119D01*
X0143254Y0021119D02*
X0144789Y0022653D01*
X0144789Y0023037D01*
X0144789Y0021119D02*
X0143254Y0021119D01*
X0132321Y0035914D02*
X0130786Y0035914D01*
X0130403Y0036298D01*
X0130403Y0037065D01*
X0130786Y0037449D01*
X0130786Y0038216D02*
X0130403Y0038600D01*
X0130403Y0039367D01*
X0130786Y0039751D01*
X0131170Y0039751D01*
X0132705Y0038216D01*
X0132705Y0039751D01*
X0131554Y0040518D02*
X0130403Y0041669D01*
X0132705Y0041669D01*
X0131554Y0042053D02*
X0131554Y0040518D01*
X0132321Y0037449D02*
X0132705Y0037065D01*
X0132705Y0036298D01*
X0132321Y0035914D01*
X0136558Y0038069D02*
X0136942Y0037685D01*
X0138476Y0037685D01*
X0138860Y0038069D01*
X0138860Y0038836D01*
X0138476Y0039220D01*
X0138860Y0039987D02*
X0138860Y0041522D01*
X0138860Y0040755D02*
X0136558Y0040755D01*
X0137325Y0039987D01*
X0136942Y0039220D02*
X0136558Y0038836D01*
X0136558Y0038069D01*
X0137709Y0042289D02*
X0137709Y0043824D01*
X0138860Y0043440D02*
X0136558Y0043440D01*
X0137709Y0042289D01*
X0124105Y0031781D02*
X0123722Y0031781D01*
X0122187Y0033316D01*
X0121804Y0033316D01*
X0121804Y0031781D01*
X0122187Y0031014D02*
X0121804Y0030630D01*
X0121804Y0029863D01*
X0122187Y0029479D01*
X0123722Y0029479D01*
X0124105Y0029863D01*
X0124105Y0030630D01*
X0123722Y0031014D01*
X0113116Y0034030D02*
X0111581Y0034030D01*
X0113116Y0035564D01*
X0113116Y0035948D01*
X0112732Y0036332D01*
X0111965Y0036332D01*
X0111581Y0035948D01*
X0110814Y0035948D02*
X0110430Y0036332D01*
X0109663Y0036332D01*
X0109279Y0035948D01*
X0109279Y0034413D01*
X0109663Y0034030D01*
X0110430Y0034030D01*
X0110814Y0034413D01*
X0108512Y0034030D02*
X0107745Y0034030D01*
X0108128Y0034030D02*
X0108128Y0036332D01*
X0107745Y0036332D02*
X0108512Y0036332D01*
X0093497Y0036097D02*
X0091962Y0034562D01*
X0092346Y0034179D01*
X0093113Y0034179D01*
X0093497Y0034562D01*
X0093497Y0036097D01*
X0093113Y0036481D01*
X0092346Y0036481D01*
X0091962Y0036097D01*
X0091962Y0034562D01*
X0091195Y0034179D02*
X0089660Y0034179D01*
X0090428Y0034179D02*
X0090428Y0036481D01*
X0089660Y0035713D01*
X0088893Y0036097D02*
X0088509Y0036481D01*
X0087742Y0036481D01*
X0087358Y0036097D01*
X0087358Y0034562D01*
X0087742Y0034179D01*
X0088509Y0034179D01*
X0088893Y0034562D01*
X0122665Y0069542D02*
X0124200Y0069542D01*
X0124583Y0069925D01*
X0124583Y0070693D01*
X0124200Y0071076D01*
X0124583Y0071844D02*
X0124583Y0073378D01*
X0124583Y0072611D02*
X0122281Y0072611D01*
X0123049Y0071844D01*
X0122665Y0071076D02*
X0122281Y0070693D01*
X0122281Y0069925D01*
X0122665Y0069542D01*
X0122281Y0074146D02*
X0123432Y0074146D01*
X0123049Y0074913D01*
X0123049Y0075297D01*
X0123432Y0075680D01*
X0124200Y0075680D01*
X0124583Y0075297D01*
X0124583Y0074529D01*
X0124200Y0074146D01*
X0122281Y0074146D02*
X0122281Y0075680D01*
X0122397Y0077728D02*
X0123165Y0077728D01*
X0123548Y0078111D01*
X0124316Y0077728D02*
X0125850Y0079262D01*
X0125850Y0079646D01*
X0125467Y0080030D01*
X0124699Y0080030D01*
X0124316Y0079646D01*
X0123548Y0079646D02*
X0123165Y0080030D01*
X0122397Y0080030D01*
X0122014Y0079646D01*
X0122014Y0078111D01*
X0122397Y0077728D01*
X0124316Y0077728D02*
X0125850Y0077728D01*
X0126618Y0078111D02*
X0127001Y0077728D01*
X0127769Y0077728D01*
X0128152Y0078111D01*
X0128152Y0078495D01*
X0127769Y0078879D01*
X0127385Y0078879D01*
X0127769Y0078879D02*
X0128152Y0079262D01*
X0128152Y0079646D01*
X0127769Y0080030D01*
X0127001Y0080030D01*
X0126618Y0079646D01*
X0166880Y0065466D02*
X0166880Y0063931D01*
X0166880Y0063164D02*
X0168799Y0063164D01*
X0169182Y0062780D01*
X0169182Y0062013D01*
X0168799Y0061629D01*
X0166880Y0061629D01*
X0168799Y0063931D02*
X0167264Y0065466D01*
X0166880Y0065466D01*
X0168799Y0063931D02*
X0169182Y0063931D01*
X0168732Y0110811D02*
X0167198Y0110811D01*
X0166814Y0111195D01*
X0166814Y0111962D01*
X0167198Y0112346D01*
X0167581Y0113113D02*
X0166814Y0113880D01*
X0169116Y0113880D01*
X0169116Y0113113D02*
X0169116Y0114648D01*
X0168732Y0115415D02*
X0169116Y0115799D01*
X0169116Y0116566D01*
X0168732Y0116950D01*
X0168349Y0116950D01*
X0167965Y0116566D01*
X0167965Y0116182D01*
X0167965Y0116566D02*
X0167581Y0116950D01*
X0167198Y0116950D01*
X0166814Y0116566D01*
X0166814Y0115799D01*
X0167198Y0115415D01*
X0168732Y0112346D02*
X0169116Y0111962D01*
X0169116Y0111195D01*
X0168732Y0110811D01*
X0171594Y0111198D02*
X0171978Y0110814D01*
X0173512Y0110814D01*
X0173896Y0111198D01*
X0173896Y0111965D01*
X0173512Y0112349D01*
X0173512Y0113116D02*
X0173896Y0113116D01*
X0173512Y0113116D02*
X0171978Y0114651D01*
X0171594Y0114651D01*
X0171594Y0113116D01*
X0171978Y0112349D02*
X0171594Y0111965D01*
X0171594Y0111198D01*
X0171978Y0115418D02*
X0171594Y0115802D01*
X0171594Y0116569D01*
X0171978Y0116953D01*
X0172361Y0116953D01*
X0172745Y0116569D01*
X0173129Y0116953D01*
X0173512Y0116953D01*
X0173896Y0116569D01*
X0173896Y0115802D01*
X0173512Y0115418D01*
X0172745Y0116185D02*
X0172745Y0116569D01*
X0245122Y0057476D02*
X0245122Y0056709D01*
X0245506Y0056325D01*
X0245889Y0056325D01*
X0246273Y0056709D01*
X0246273Y0057860D01*
X0247040Y0057860D02*
X0245506Y0057860D01*
X0245122Y0057476D01*
X0245122Y0055558D02*
X0245122Y0054023D01*
X0246273Y0054023D01*
X0245889Y0054791D01*
X0245889Y0055174D01*
X0246273Y0055558D01*
X0247040Y0055558D01*
X0247424Y0055174D01*
X0247424Y0054407D01*
X0247040Y0054023D01*
X0247424Y0053256D02*
X0246657Y0052489D01*
X0246657Y0052872D02*
X0246657Y0051721D01*
X0247424Y0051721D02*
X0245122Y0051721D01*
X0245122Y0052872D01*
X0245506Y0053256D01*
X0246273Y0053256D01*
X0246657Y0052872D01*
X0247040Y0056325D02*
X0247424Y0056709D01*
X0247424Y0057476D01*
X0247040Y0057860D01*
D11*
X0226627Y0054887D02*
X0226627Y0053386D01*
X0225877Y0052636D01*
X0222874Y0055638D01*
X0225877Y0055638D01*
X0226627Y0054887D01*
X0225877Y0052636D02*
X0222874Y0052636D01*
X0222124Y0053386D01*
X0222124Y0054887D01*
X0222874Y0055638D01*
X0222874Y0051034D02*
X0223625Y0051034D01*
X0224376Y0050284D01*
X0225126Y0051034D01*
X0225877Y0051034D01*
X0226627Y0050284D01*
X0226627Y0048782D01*
X0225877Y0048032D01*
X0224376Y0049533D02*
X0224376Y0050284D01*
X0222874Y0051034D02*
X0222124Y0050284D01*
X0222124Y0048782D01*
X0222874Y0048032D01*
X0255374Y0159928D02*
X0256125Y0159928D01*
X0256876Y0160678D01*
X0256876Y0162180D01*
X0257626Y0162930D01*
X0258377Y0162930D01*
X0259127Y0162180D01*
X0259127Y0160678D01*
X0258377Y0159928D01*
X0255374Y0159928D02*
X0254624Y0160678D01*
X0254624Y0162180D01*
X0255374Y0162930D01*
X0254624Y0164532D02*
X0257626Y0164532D01*
X0259127Y0166033D01*
X0257626Y0167534D01*
X0254624Y0167534D01*
X0256125Y0169136D02*
X0254624Y0170637D01*
X0259127Y0170637D01*
X0259127Y0169136D02*
X0259127Y0172138D01*
X0259127Y0190636D02*
X0259127Y0193638D01*
X0259127Y0192137D02*
X0254624Y0192137D01*
X0256125Y0190636D01*
X0101397Y0188048D02*
X0101397Y0181749D01*
X0100903Y0181749D01*
X0100409Y0181749D01*
X0100409Y0188048D01*
X0100116Y0188048D01*
X0100116Y0181749D01*
X0100409Y0181749D01*
X0100116Y0181749D02*
X0087417Y0181749D01*
X0087417Y0188048D01*
X0100116Y0188048D01*
X0100409Y0188048D02*
X0100903Y0188048D01*
X0100903Y0181749D01*
X0097130Y0179680D02*
X0089249Y0179680D01*
X0089249Y0175737D01*
X0097130Y0175737D01*
X0097130Y0179680D01*
X0100903Y0188048D02*
X0101397Y0188048D01*
X0092496Y0158188D02*
X0084615Y0158188D01*
X0084615Y0154245D01*
X0092496Y0154245D01*
X0092496Y0158188D01*
X0093922Y0146107D02*
X0089979Y0146107D01*
X0089979Y0138227D01*
X0093922Y0138227D01*
X0093922Y0146107D01*
X0086448Y0146081D02*
X0086448Y0138200D01*
X0082504Y0138200D01*
X0082504Y0146081D01*
X0086448Y0146081D01*
X0076777Y0146058D02*
X0076777Y0138178D01*
X0072834Y0138178D01*
X0072834Y0146058D01*
X0076777Y0146058D01*
X0071604Y0146033D02*
X0067661Y0146033D01*
X0067661Y0138153D01*
X0071604Y0138153D01*
X0071604Y0146033D01*
X0066064Y0145996D02*
X0066064Y0138116D01*
X0062121Y0138116D01*
X0062121Y0145996D01*
X0066064Y0145996D01*
X0060888Y0146047D02*
X0060888Y0138167D01*
X0056944Y0138167D01*
X0056944Y0146047D01*
X0060888Y0146047D01*
X0061074Y0135003D02*
X0061074Y0113350D01*
X0063042Y0111381D01*
X0084696Y0111381D01*
X0084696Y0135003D01*
X0061074Y0135003D01*
X0055453Y0134581D02*
X0055453Y0130638D01*
X0047573Y0130638D01*
X0047573Y0134581D01*
X0055453Y0134581D01*
X0055449Y0129473D02*
X0047569Y0129473D01*
X0047569Y0125529D01*
X0055449Y0125529D01*
X0055449Y0129473D01*
X0055480Y0124397D02*
X0047599Y0124397D01*
X0047599Y0120454D01*
X0055480Y0120454D01*
X0055480Y0124397D01*
X0055449Y0119266D02*
X0047569Y0119266D01*
X0047569Y0115323D01*
X0055449Y0115323D01*
X0055449Y0119266D01*
X0055462Y0114104D02*
X0047582Y0114104D01*
X0047582Y0110161D01*
X0055462Y0110161D01*
X0055462Y0114104D01*
X0061074Y0113350D02*
X0061074Y0111381D01*
X0063042Y0111381D01*
X0064026Y0110397D02*
X0063042Y0109413D01*
X0065011Y0109413D01*
X0064026Y0110397D01*
X0063604Y0109974D02*
X0064449Y0109974D01*
X0064947Y0109476D02*
X0063105Y0109476D01*
X0062384Y0105393D02*
X0062384Y0097513D01*
X0066327Y0097513D01*
X0066327Y0105393D01*
X0062384Y0105393D01*
X0061199Y0105368D02*
X0057255Y0105368D01*
X0057255Y0097488D01*
X0061199Y0097488D01*
X0061199Y0105368D01*
X0055459Y0105388D02*
X0051516Y0105388D01*
X0051516Y0097507D01*
X0055459Y0097507D01*
X0055459Y0105388D01*
X0067506Y0105400D02*
X0067506Y0097520D01*
X0071449Y0097520D01*
X0071449Y0105400D01*
X0067506Y0105400D01*
X0072652Y0104180D02*
X0072652Y0103686D01*
X0078951Y0103686D01*
X0078951Y0103193D01*
X0072652Y0103193D01*
X0072652Y0102899D01*
X0078951Y0102899D01*
X0078951Y0103193D01*
X0078951Y0102899D02*
X0078951Y0090200D01*
X0072652Y0090200D01*
X0072652Y0102899D01*
X0072652Y0103193D02*
X0072652Y0103686D01*
X0072652Y0104180D02*
X0078951Y0104180D01*
X0078951Y0103686D01*
X0080354Y0100054D02*
X0080354Y0092173D01*
X0084297Y0092173D01*
X0084297Y0100054D01*
X0080354Y0100054D01*
X0086101Y0100095D02*
X0086101Y0092215D01*
X0090045Y0092215D01*
X0090045Y0100095D01*
X0086101Y0100095D01*
X0087753Y0104060D02*
X0094446Y0104060D01*
X0094446Y0117052D01*
X0087753Y0117052D01*
X0087753Y0104060D01*
X0091045Y0119400D02*
X0098925Y0119400D01*
X0098925Y0123343D01*
X0091045Y0123343D01*
X0091045Y0119400D01*
X0091097Y0125644D02*
X0098977Y0125644D01*
X0098977Y0129587D01*
X0091097Y0129587D01*
X0091097Y0125644D01*
X0045122Y0154496D02*
X0045122Y0156071D01*
X0040004Y0161976D02*
X0039216Y0161976D01*
X0042589Y0164947D02*
X0034709Y0164947D01*
X0034709Y0168890D01*
X0042589Y0168890D01*
X0042589Y0164947D01*
X0034098Y0156071D02*
X0034098Y0154496D01*
X0039216Y0148591D02*
X0040004Y0148591D01*
X0036644Y0145409D02*
X0044524Y0145409D01*
X0044524Y0141465D01*
X0036644Y0141465D01*
X0036644Y0145409D01*
X0035831Y0109197D02*
X0035831Y0101316D01*
X0039774Y0101316D01*
X0039774Y0109197D01*
X0035831Y0109197D01*
D12*
X0088586Y0074835D02*
X0114078Y0074835D01*
X0114078Y0038024D02*
X0088586Y0038024D01*
X0096283Y0038241D02*
X0096285Y0038381D01*
X0096291Y0038521D01*
X0096301Y0038661D01*
X0096314Y0038801D01*
X0096332Y0038940D01*
X0096354Y0039079D01*
X0096379Y0039216D01*
X0096408Y0039354D01*
X0096441Y0039490D01*
X0096478Y0039625D01*
X0096519Y0039759D01*
X0096564Y0039892D01*
X0096612Y0040024D01*
X0096664Y0040154D01*
X0096719Y0040283D01*
X0096778Y0040410D01*
X0096841Y0040536D01*
X0096907Y0040660D01*
X0096976Y0040781D01*
X0097049Y0040901D01*
X0097126Y0041019D01*
X0097205Y0041134D01*
X0097288Y0041248D01*
X0097374Y0041358D01*
X0097463Y0041467D01*
X0097555Y0041573D01*
X0097650Y0041676D01*
X0097747Y0041777D01*
X0097848Y0041874D01*
X0097951Y0041969D01*
X0098057Y0042061D01*
X0098166Y0042150D01*
X0098276Y0042236D01*
X0098390Y0042319D01*
X0098505Y0042398D01*
X0098623Y0042475D01*
X0098743Y0042548D01*
X0098864Y0042617D01*
X0098988Y0042683D01*
X0099114Y0042746D01*
X0099241Y0042805D01*
X0099370Y0042860D01*
X0099500Y0042912D01*
X0099632Y0042960D01*
X0099765Y0043005D01*
X0099899Y0043046D01*
X0100034Y0043083D01*
X0100170Y0043116D01*
X0100308Y0043145D01*
X0100445Y0043170D01*
X0100584Y0043192D01*
X0100723Y0043210D01*
X0100863Y0043223D01*
X0101003Y0043233D01*
X0101143Y0043239D01*
X0101283Y0043241D01*
X0101423Y0043239D01*
X0101563Y0043233D01*
X0101703Y0043223D01*
X0101843Y0043210D01*
X0101982Y0043192D01*
X0102121Y0043170D01*
X0102258Y0043145D01*
X0102396Y0043116D01*
X0102532Y0043083D01*
X0102667Y0043046D01*
X0102801Y0043005D01*
X0102934Y0042960D01*
X0103066Y0042912D01*
X0103196Y0042860D01*
X0103325Y0042805D01*
X0103452Y0042746D01*
X0103578Y0042683D01*
X0103702Y0042617D01*
X0103823Y0042548D01*
X0103943Y0042475D01*
X0104061Y0042398D01*
X0104176Y0042319D01*
X0104290Y0042236D01*
X0104400Y0042150D01*
X0104509Y0042061D01*
X0104615Y0041969D01*
X0104718Y0041874D01*
X0104819Y0041777D01*
X0104916Y0041676D01*
X0105011Y0041573D01*
X0105103Y0041467D01*
X0105192Y0041358D01*
X0105278Y0041248D01*
X0105361Y0041134D01*
X0105440Y0041019D01*
X0105517Y0040901D01*
X0105590Y0040781D01*
X0105659Y0040660D01*
X0105725Y0040536D01*
X0105788Y0040410D01*
X0105847Y0040283D01*
X0105902Y0040154D01*
X0105954Y0040024D01*
X0106002Y0039892D01*
X0106047Y0039759D01*
X0106088Y0039625D01*
X0106125Y0039490D01*
X0106158Y0039354D01*
X0106187Y0039216D01*
X0106212Y0039079D01*
X0106234Y0038940D01*
X0106252Y0038801D01*
X0106265Y0038661D01*
X0106275Y0038521D01*
X0106281Y0038381D01*
X0106283Y0038241D01*
X0180692Y0116709D02*
X0206184Y0116709D01*
X0206184Y0153520D02*
X0180692Y0153520D01*
X0188487Y0153303D02*
X0188489Y0153163D01*
X0188495Y0153023D01*
X0188505Y0152883D01*
X0188518Y0152743D01*
X0188536Y0152604D01*
X0188558Y0152465D01*
X0188583Y0152328D01*
X0188612Y0152190D01*
X0188645Y0152054D01*
X0188682Y0151919D01*
X0188723Y0151785D01*
X0188768Y0151652D01*
X0188816Y0151520D01*
X0188868Y0151390D01*
X0188923Y0151261D01*
X0188982Y0151134D01*
X0189045Y0151008D01*
X0189111Y0150884D01*
X0189180Y0150763D01*
X0189253Y0150643D01*
X0189330Y0150525D01*
X0189409Y0150410D01*
X0189492Y0150296D01*
X0189578Y0150186D01*
X0189667Y0150077D01*
X0189759Y0149971D01*
X0189854Y0149868D01*
X0189951Y0149767D01*
X0190052Y0149670D01*
X0190155Y0149575D01*
X0190261Y0149483D01*
X0190370Y0149394D01*
X0190480Y0149308D01*
X0190594Y0149225D01*
X0190709Y0149146D01*
X0190827Y0149069D01*
X0190947Y0148996D01*
X0191068Y0148927D01*
X0191192Y0148861D01*
X0191318Y0148798D01*
X0191445Y0148739D01*
X0191574Y0148684D01*
X0191704Y0148632D01*
X0191836Y0148584D01*
X0191969Y0148539D01*
X0192103Y0148498D01*
X0192238Y0148461D01*
X0192374Y0148428D01*
X0192512Y0148399D01*
X0192649Y0148374D01*
X0192788Y0148352D01*
X0192927Y0148334D01*
X0193067Y0148321D01*
X0193207Y0148311D01*
X0193347Y0148305D01*
X0193487Y0148303D01*
X0193627Y0148305D01*
X0193767Y0148311D01*
X0193907Y0148321D01*
X0194047Y0148334D01*
X0194186Y0148352D01*
X0194325Y0148374D01*
X0194462Y0148399D01*
X0194600Y0148428D01*
X0194736Y0148461D01*
X0194871Y0148498D01*
X0195005Y0148539D01*
X0195138Y0148584D01*
X0195270Y0148632D01*
X0195400Y0148684D01*
X0195529Y0148739D01*
X0195656Y0148798D01*
X0195782Y0148861D01*
X0195906Y0148927D01*
X0196027Y0148996D01*
X0196147Y0149069D01*
X0196265Y0149146D01*
X0196380Y0149225D01*
X0196494Y0149308D01*
X0196604Y0149394D01*
X0196713Y0149483D01*
X0196819Y0149575D01*
X0196922Y0149670D01*
X0197023Y0149767D01*
X0197120Y0149868D01*
X0197215Y0149971D01*
X0197307Y0150077D01*
X0197396Y0150186D01*
X0197482Y0150296D01*
X0197565Y0150410D01*
X0197644Y0150525D01*
X0197721Y0150643D01*
X0197794Y0150763D01*
X0197863Y0150884D01*
X0197929Y0151008D01*
X0197992Y0151134D01*
X0198051Y0151261D01*
X0198106Y0151390D01*
X0198158Y0151520D01*
X0198206Y0151652D01*
X0198251Y0151785D01*
X0198292Y0151919D01*
X0198329Y0152054D01*
X0198362Y0152190D01*
X0198391Y0152328D01*
X0198416Y0152465D01*
X0198438Y0152604D01*
X0198456Y0152743D01*
X0198469Y0152883D01*
X0198479Y0153023D01*
X0198485Y0153163D01*
X0198487Y0153303D01*
D13*
X0157364Y0219758D02*
X0154295Y0219758D01*
X0155830Y0219758D02*
X0155830Y0224362D01*
X0154295Y0222827D01*
X0152761Y0224362D02*
X0149691Y0224362D01*
X0149691Y0219758D01*
X0149691Y0222060D02*
X0151226Y0222060D01*
X0140572Y0225838D02*
X0135848Y0225838D01*
X0135848Y0228594D02*
X0140572Y0228594D01*
D14*
X0138997Y0227216D03*
D15*
X0174917Y0203322D02*
X0174917Y0202122D01*
X0179117Y0202122D01*
X0179117Y0203322D01*
X0174917Y0203322D01*
X0174917Y0200722D02*
X0174917Y0199522D01*
X0179117Y0199522D01*
X0179117Y0200722D01*
X0174917Y0200722D01*
X0174917Y0198222D02*
X0174917Y0197022D01*
X0179117Y0197022D01*
X0179117Y0198222D01*
X0174917Y0198222D01*
X0174917Y0195622D02*
X0174917Y0194422D01*
X0179117Y0194422D01*
X0179117Y0195622D01*
X0174917Y0195622D01*
X0174917Y0193022D02*
X0174917Y0191822D01*
X0179117Y0191822D01*
X0179117Y0193022D01*
X0174917Y0193022D01*
X0174917Y0190522D02*
X0174917Y0189322D01*
X0179117Y0189322D01*
X0179117Y0190522D01*
X0174917Y0190522D01*
X0174917Y0187922D02*
X0174917Y0186722D01*
X0179117Y0186722D01*
X0179117Y0187922D01*
X0174917Y0187922D01*
X0174917Y0185422D02*
X0174917Y0184222D01*
X0179117Y0184222D01*
X0179117Y0185422D01*
X0174917Y0185422D01*
X0174917Y0182822D02*
X0174917Y0181622D01*
X0179117Y0181622D01*
X0179117Y0182822D01*
X0174917Y0182822D01*
X0174917Y0180222D02*
X0174917Y0179022D01*
X0179117Y0179022D01*
X0179117Y0180222D01*
X0174917Y0180222D01*
X0174917Y0177722D02*
X0174917Y0176522D01*
X0179117Y0176522D01*
X0179117Y0177722D01*
X0174917Y0177722D01*
X0174917Y0175122D02*
X0174917Y0173922D01*
X0179117Y0173922D01*
X0179117Y0175122D01*
X0174917Y0175122D01*
X0179117Y0173022D02*
X0179117Y0204222D01*
X0186717Y0204222D01*
X0189117Y0204222D01*
X0196717Y0204222D01*
X0196717Y0173022D01*
X0179117Y0173022D01*
X0196717Y0173922D02*
X0200917Y0173922D01*
X0200917Y0175122D01*
X0196717Y0175122D01*
X0196717Y0173922D01*
X0196717Y0176522D02*
X0200917Y0176522D01*
X0200917Y0177722D01*
X0196717Y0177722D01*
X0196717Y0176522D01*
X0196717Y0179022D02*
X0200917Y0179022D01*
X0200917Y0180222D01*
X0196717Y0180222D01*
X0196717Y0179022D01*
X0196717Y0181622D02*
X0200917Y0181622D01*
X0200917Y0182822D01*
X0196717Y0182822D01*
X0196717Y0181622D01*
X0196717Y0184222D02*
X0200917Y0184222D01*
X0200917Y0185422D01*
X0196717Y0185422D01*
X0196717Y0184222D01*
X0196717Y0186722D02*
X0200917Y0186722D01*
X0200917Y0187922D01*
X0196717Y0187922D01*
X0196717Y0186722D01*
X0196717Y0189322D02*
X0200917Y0189322D01*
X0200917Y0190522D01*
X0196717Y0190522D01*
X0196717Y0189322D01*
X0196717Y0191822D02*
X0200917Y0191822D01*
X0200917Y0193022D01*
X0196717Y0193022D01*
X0196717Y0191822D01*
X0196717Y0194422D02*
X0200917Y0194422D01*
X0200917Y0195622D01*
X0196717Y0195622D01*
X0196717Y0194422D01*
X0196717Y0197022D02*
X0200917Y0197022D01*
X0200917Y0198222D01*
X0196717Y0198222D01*
X0196717Y0197022D01*
X0196717Y0199522D02*
X0200917Y0199522D01*
X0200917Y0200722D01*
X0196717Y0200722D01*
X0196717Y0199522D01*
X0196717Y0202122D02*
X0200917Y0202122D01*
X0200917Y0203322D01*
X0196717Y0203322D01*
X0196717Y0202122D01*
X0228377Y0195989D02*
X0228377Y0050989D01*
X0228379Y0050891D01*
X0228385Y0050793D01*
X0228394Y0050695D01*
X0228408Y0050598D01*
X0228425Y0050501D01*
X0228446Y0050405D01*
X0228471Y0050310D01*
X0228499Y0050216D01*
X0228532Y0050124D01*
X0228567Y0050032D01*
X0228607Y0049942D01*
X0228649Y0049854D01*
X0228696Y0049767D01*
X0228745Y0049683D01*
X0228798Y0049600D01*
X0228854Y0049520D01*
X0228914Y0049441D01*
X0228976Y0049365D01*
X0229041Y0049292D01*
X0229109Y0049221D01*
X0229180Y0049153D01*
X0229253Y0049088D01*
X0229329Y0049026D01*
X0229408Y0048966D01*
X0229488Y0048910D01*
X0229571Y0048857D01*
X0229655Y0048808D01*
X0229742Y0048761D01*
X0229830Y0048719D01*
X0229920Y0048679D01*
X0230012Y0048644D01*
X0230104Y0048611D01*
X0230198Y0048583D01*
X0230293Y0048558D01*
X0230389Y0048537D01*
X0230486Y0048520D01*
X0230583Y0048506D01*
X0230681Y0048497D01*
X0230779Y0048491D01*
X0230877Y0048489D01*
X0249877Y0048489D01*
X0249975Y0048491D01*
X0250073Y0048497D01*
X0250171Y0048506D01*
X0250268Y0048520D01*
X0250365Y0048537D01*
X0250461Y0048558D01*
X0250556Y0048583D01*
X0250650Y0048611D01*
X0250742Y0048644D01*
X0250834Y0048679D01*
X0250924Y0048719D01*
X0251012Y0048761D01*
X0251099Y0048808D01*
X0251183Y0048857D01*
X0251266Y0048910D01*
X0251346Y0048966D01*
X0251425Y0049026D01*
X0251501Y0049088D01*
X0251574Y0049153D01*
X0251645Y0049221D01*
X0251713Y0049292D01*
X0251778Y0049365D01*
X0251840Y0049441D01*
X0251900Y0049520D01*
X0251956Y0049600D01*
X0252009Y0049683D01*
X0252058Y0049767D01*
X0252105Y0049854D01*
X0252147Y0049942D01*
X0252187Y0050032D01*
X0252222Y0050124D01*
X0252255Y0050216D01*
X0252283Y0050310D01*
X0252308Y0050405D01*
X0252329Y0050501D01*
X0252346Y0050598D01*
X0252360Y0050695D01*
X0252369Y0050793D01*
X0252375Y0050891D01*
X0252377Y0050989D01*
X0252377Y0195989D01*
X0252375Y0196087D01*
X0252369Y0196185D01*
X0252360Y0196283D01*
X0252346Y0196380D01*
X0252329Y0196477D01*
X0252308Y0196573D01*
X0252283Y0196668D01*
X0252255Y0196762D01*
X0252222Y0196854D01*
X0252187Y0196946D01*
X0252147Y0197036D01*
X0252105Y0197124D01*
X0252058Y0197211D01*
X0252009Y0197295D01*
X0251956Y0197378D01*
X0251900Y0197458D01*
X0251840Y0197537D01*
X0251778Y0197613D01*
X0251713Y0197686D01*
X0251645Y0197757D01*
X0251574Y0197825D01*
X0251501Y0197890D01*
X0251425Y0197952D01*
X0251346Y0198012D01*
X0251266Y0198068D01*
X0251183Y0198121D01*
X0251099Y0198170D01*
X0251012Y0198217D01*
X0250924Y0198259D01*
X0250834Y0198299D01*
X0250742Y0198334D01*
X0250650Y0198367D01*
X0250556Y0198395D01*
X0250461Y0198420D01*
X0250365Y0198441D01*
X0250268Y0198458D01*
X0250171Y0198472D01*
X0250073Y0198481D01*
X0249975Y0198487D01*
X0249877Y0198489D01*
X0230877Y0198489D01*
X0230779Y0198487D01*
X0230681Y0198481D01*
X0230583Y0198472D01*
X0230486Y0198458D01*
X0230389Y0198441D01*
X0230293Y0198420D01*
X0230198Y0198395D01*
X0230104Y0198367D01*
X0230012Y0198334D01*
X0229920Y0198299D01*
X0229830Y0198259D01*
X0229742Y0198217D01*
X0229655Y0198170D01*
X0229571Y0198121D01*
X0229488Y0198068D01*
X0229408Y0198012D01*
X0229329Y0197952D01*
X0229253Y0197890D01*
X0229180Y0197825D01*
X0229109Y0197757D01*
X0229041Y0197686D01*
X0228976Y0197613D01*
X0228914Y0197537D01*
X0228854Y0197458D01*
X0228798Y0197378D01*
X0228745Y0197295D01*
X0228696Y0197211D01*
X0228649Y0197124D01*
X0228607Y0197036D01*
X0228567Y0196946D01*
X0228532Y0196854D01*
X0228499Y0196762D01*
X0228471Y0196668D01*
X0228446Y0196573D01*
X0228425Y0196477D01*
X0228408Y0196380D01*
X0228394Y0196283D01*
X0228385Y0196185D01*
X0228379Y0196087D01*
X0228377Y0195989D01*
X0190982Y0104729D02*
X0189882Y0104729D01*
X0189882Y0100829D01*
X0190982Y0100829D01*
X0190982Y0104729D01*
X0188982Y0104729D02*
X0187882Y0104729D01*
X0187882Y0100829D01*
X0188982Y0100829D01*
X0188982Y0104729D01*
X0186982Y0104729D02*
X0185882Y0104729D01*
X0185882Y0100829D01*
X0186982Y0100829D01*
X0186982Y0104729D01*
X0185082Y0104729D02*
X0183982Y0104729D01*
X0183982Y0100829D01*
X0185082Y0100829D01*
X0185082Y0104729D01*
X0183082Y0104729D02*
X0181982Y0104729D01*
X0181982Y0100829D01*
X0183082Y0100829D01*
X0183082Y0104729D01*
X0181082Y0104729D02*
X0179982Y0104729D01*
X0179982Y0100829D01*
X0181082Y0100829D01*
X0181082Y0104729D01*
X0179182Y0104729D02*
X0178082Y0104729D01*
X0178082Y0100829D01*
X0179182Y0100829D01*
X0179182Y0104729D01*
X0177182Y0104729D02*
X0176082Y0104729D01*
X0176082Y0100829D01*
X0177182Y0100829D01*
X0177182Y0104729D01*
X0175182Y0104729D02*
X0174082Y0104729D01*
X0174082Y0100829D01*
X0175182Y0100829D01*
X0175182Y0104729D01*
X0173282Y0104729D02*
X0172182Y0104729D01*
X0172182Y0100829D01*
X0173282Y0100829D01*
X0173282Y0104729D01*
X0171282Y0104729D02*
X0170182Y0104729D01*
X0170182Y0100829D01*
X0171282Y0100829D01*
X0171282Y0104729D01*
X0169282Y0104729D02*
X0168182Y0104729D01*
X0168182Y0100829D01*
X0169282Y0100829D01*
X0169282Y0104729D01*
X0167282Y0104729D02*
X0166182Y0104729D01*
X0166182Y0100829D01*
X0167382Y0100829D01*
X0167282Y0104729D01*
X0165382Y0104729D02*
X0164282Y0104729D01*
X0164282Y0100829D01*
X0165382Y0100829D01*
X0165382Y0104729D01*
X0163382Y0104729D02*
X0162282Y0104729D01*
X0162282Y0100829D01*
X0163382Y0100829D01*
X0163382Y0104729D01*
X0161382Y0104729D02*
X0160282Y0104729D01*
X0160282Y0100829D01*
X0161382Y0100829D01*
X0161382Y0104729D01*
X0159482Y0104729D02*
X0158382Y0104729D01*
X0158382Y0100829D01*
X0159482Y0100829D01*
X0159482Y0104729D01*
X0157482Y0104729D02*
X0156382Y0104729D01*
X0156382Y0100829D01*
X0157482Y0100829D01*
X0157482Y0104729D01*
X0155482Y0104729D02*
X0154382Y0104729D01*
X0154382Y0100829D01*
X0155482Y0100829D01*
X0155482Y0104729D01*
X0153582Y0104729D02*
X0152482Y0104729D01*
X0152482Y0100829D01*
X0153582Y0100829D01*
X0153582Y0104729D01*
X0151582Y0104729D02*
X0150482Y0104729D01*
X0150482Y0100829D01*
X0151582Y0100829D01*
X0151582Y0104729D01*
X0149582Y0104729D02*
X0148482Y0104729D01*
X0148482Y0100829D01*
X0149582Y0100829D01*
X0149582Y0104729D01*
X0147682Y0104729D02*
X0146582Y0104729D01*
X0146582Y0100829D01*
X0147682Y0100829D01*
X0147682Y0104729D01*
X0145682Y0104729D02*
X0144582Y0104729D01*
X0144582Y0100829D01*
X0145682Y0100829D01*
X0145682Y0104729D01*
X0143682Y0104729D02*
X0142582Y0104729D01*
X0142582Y0100829D01*
X0143682Y0100829D01*
X0143682Y0104729D01*
X0138782Y0100829D02*
X0138782Y0044829D01*
X0194782Y0044829D01*
X0194782Y0100829D01*
X0138782Y0100829D01*
X0138782Y0097029D02*
X0134882Y0097029D01*
X0134882Y0095929D01*
X0138782Y0095929D01*
X0138782Y0097029D01*
X0138782Y0095029D02*
X0134882Y0095029D01*
X0134882Y0093929D01*
X0138782Y0093929D01*
X0138782Y0095029D01*
X0138782Y0093029D02*
X0134882Y0093029D01*
X0134882Y0091929D01*
X0138782Y0091929D01*
X0138782Y0093029D01*
X0138782Y0091129D02*
X0134882Y0091129D01*
X0134882Y0090029D01*
X0138782Y0090029D01*
X0138782Y0091129D01*
X0138782Y0089129D02*
X0134882Y0089129D01*
X0134882Y0088029D01*
X0138782Y0088029D01*
X0138782Y0089129D01*
X0138782Y0087129D02*
X0134882Y0087129D01*
X0134882Y0086029D01*
X0138782Y0086029D01*
X0138782Y0087129D01*
X0138782Y0085229D02*
X0134882Y0085229D01*
X0134882Y0084129D01*
X0138782Y0084129D01*
X0138782Y0085229D01*
X0138782Y0083229D02*
X0134882Y0083229D01*
X0134882Y0082129D01*
X0138782Y0082129D01*
X0138782Y0083229D01*
X0138782Y0081229D02*
X0134882Y0081229D01*
X0134882Y0080129D01*
X0138782Y0080129D01*
X0138782Y0081229D01*
X0138782Y0079329D02*
X0134882Y0079329D01*
X0134882Y0078229D01*
X0138782Y0078229D01*
X0138782Y0079329D01*
X0138782Y0077329D02*
X0134882Y0077329D01*
X0134882Y0076229D01*
X0138782Y0076229D01*
X0138782Y0077329D01*
X0138782Y0075329D02*
X0134882Y0075329D01*
X0134882Y0074229D01*
X0138782Y0074229D01*
X0138782Y0075329D01*
X0138782Y0073429D02*
X0134882Y0073329D01*
X0134882Y0072229D01*
X0138782Y0072229D01*
X0138782Y0073429D01*
X0138782Y0071429D02*
X0134882Y0071429D01*
X0134882Y0070329D01*
X0138782Y0070329D01*
X0138782Y0071429D01*
X0138782Y0069429D02*
X0134882Y0069429D01*
X0134882Y0068329D01*
X0138782Y0068329D01*
X0138782Y0069429D01*
X0138782Y0067429D02*
X0134882Y0067429D01*
X0134882Y0066329D01*
X0138782Y0066329D01*
X0138782Y0067429D01*
X0138782Y0065529D02*
X0134882Y0065529D01*
X0134882Y0064429D01*
X0138782Y0064429D01*
X0138782Y0065529D01*
X0138782Y0063529D02*
X0134882Y0063529D01*
X0134882Y0062429D01*
X0138782Y0062429D01*
X0138782Y0063529D01*
X0138782Y0061529D02*
X0134882Y0061529D01*
X0134882Y0060429D01*
X0138782Y0060429D01*
X0138782Y0061529D01*
X0138782Y0059629D02*
X0134882Y0059629D01*
X0134882Y0058529D01*
X0138782Y0058529D01*
X0138782Y0059629D01*
X0138782Y0057629D02*
X0134882Y0057629D01*
X0134882Y0056529D01*
X0138782Y0056529D01*
X0138782Y0057629D01*
X0138782Y0055629D02*
X0134882Y0055629D01*
X0134882Y0054529D01*
X0138782Y0054529D01*
X0138782Y0055629D01*
X0138782Y0053729D02*
X0134882Y0053729D01*
X0134882Y0052629D01*
X0138782Y0052629D01*
X0138782Y0053729D01*
X0138782Y0051729D02*
X0134882Y0051729D01*
X0134882Y0050629D01*
X0138782Y0050629D01*
X0138782Y0051729D01*
X0138782Y0049829D02*
X0143782Y0044829D01*
X0143682Y0044829D02*
X0143682Y0040929D01*
X0142582Y0040929D01*
X0142582Y0044829D01*
X0143682Y0044829D01*
X0144582Y0044829D02*
X0144582Y0040929D01*
X0145682Y0040929D01*
X0145682Y0044829D01*
X0144582Y0044829D01*
X0146582Y0044829D02*
X0146582Y0040929D01*
X0147682Y0040929D01*
X0147682Y0044829D01*
X0146582Y0044829D01*
X0148482Y0044829D02*
X0148482Y0040929D01*
X0149582Y0040929D01*
X0149582Y0044829D01*
X0148482Y0044829D01*
X0150482Y0044829D02*
X0150482Y0040929D01*
X0151582Y0040929D01*
X0151582Y0044829D01*
X0150482Y0044829D01*
X0152482Y0044829D02*
X0152482Y0040929D01*
X0153582Y0040929D01*
X0153582Y0044829D01*
X0152482Y0044829D01*
X0154382Y0044829D02*
X0154382Y0040929D01*
X0155482Y0040929D01*
X0155482Y0044829D01*
X0154382Y0044829D01*
X0156382Y0044829D02*
X0156382Y0040929D01*
X0157482Y0040929D01*
X0157482Y0044829D01*
X0156382Y0044829D01*
X0158382Y0044829D02*
X0158382Y0040929D01*
X0159482Y0040929D01*
X0159482Y0044829D01*
X0158382Y0044829D01*
X0160282Y0044829D02*
X0160282Y0040929D01*
X0161382Y0040929D01*
X0161382Y0044829D01*
X0160282Y0044829D01*
X0162282Y0044829D02*
X0162282Y0040929D01*
X0163382Y0040929D01*
X0163382Y0044829D01*
X0162282Y0044829D01*
X0164282Y0044829D02*
X0164282Y0040929D01*
X0165382Y0040929D01*
X0165382Y0044829D01*
X0164282Y0044829D01*
X0166182Y0044829D02*
X0166282Y0040929D01*
X0167382Y0040929D01*
X0167382Y0044829D01*
X0166182Y0044829D01*
X0168182Y0044829D02*
X0168182Y0040929D01*
X0169282Y0040929D01*
X0169282Y0044829D01*
X0168182Y0044829D01*
X0170182Y0044829D02*
X0170182Y0040929D01*
X0171282Y0040929D01*
X0171282Y0044829D01*
X0170182Y0044829D01*
X0172182Y0044829D02*
X0172182Y0040929D01*
X0173282Y0040929D01*
X0173282Y0044829D01*
X0172182Y0044829D01*
X0174082Y0044829D02*
X0174082Y0040929D01*
X0175182Y0040929D01*
X0175182Y0044829D01*
X0174082Y0044829D01*
X0176082Y0044829D02*
X0176082Y0040929D01*
X0177182Y0040929D01*
X0177182Y0044829D01*
X0176082Y0044829D01*
X0178082Y0044829D02*
X0178082Y0040929D01*
X0179182Y0040929D01*
X0179182Y0044829D01*
X0178082Y0044829D01*
X0179982Y0044829D02*
X0179982Y0040929D01*
X0181082Y0040929D01*
X0181082Y0044829D01*
X0179982Y0044829D01*
X0181982Y0044829D02*
X0181982Y0040929D01*
X0183082Y0040929D01*
X0183082Y0044829D01*
X0181982Y0044829D01*
X0183982Y0044829D02*
X0183982Y0040929D01*
X0185082Y0040929D01*
X0185082Y0044829D01*
X0183982Y0044829D01*
X0185882Y0044829D02*
X0185882Y0040929D01*
X0186982Y0040929D01*
X0186982Y0044829D01*
X0185882Y0044829D01*
X0187882Y0044829D02*
X0187882Y0040929D01*
X0188982Y0040929D01*
X0188982Y0044829D01*
X0187882Y0044829D01*
X0189882Y0044829D02*
X0189882Y0040929D01*
X0190982Y0040929D01*
X0190982Y0044829D01*
X0189882Y0044829D01*
X0194782Y0048629D02*
X0198682Y0048629D01*
X0198682Y0049729D01*
X0194782Y0049729D01*
X0194782Y0048629D01*
X0194782Y0050629D02*
X0198682Y0050629D01*
X0198682Y0051729D01*
X0194782Y0051729D01*
X0194782Y0050629D01*
X0194782Y0052629D02*
X0198682Y0052629D01*
X0198682Y0053729D01*
X0194782Y0053729D01*
X0194782Y0052629D01*
X0194782Y0054529D02*
X0198682Y0054529D01*
X0198682Y0055629D01*
X0194782Y0055629D01*
X0194782Y0054529D01*
X0194782Y0056529D02*
X0198682Y0056529D01*
X0198682Y0057629D01*
X0194782Y0057629D01*
X0194782Y0056529D01*
X0194782Y0058529D02*
X0198682Y0058529D01*
X0198682Y0059629D01*
X0194782Y0059629D01*
X0194782Y0058529D01*
X0194782Y0060429D02*
X0198682Y0060429D01*
X0198682Y0061529D01*
X0194782Y0061529D01*
X0194782Y0060429D01*
X0194782Y0062429D02*
X0198682Y0062429D01*
X0198682Y0063529D01*
X0194782Y0063529D01*
X0194782Y0062429D01*
X0194782Y0064429D02*
X0198682Y0064429D01*
X0198682Y0065529D01*
X0194782Y0065529D01*
X0194782Y0064429D01*
X0194782Y0066329D02*
X0198682Y0066329D01*
X0198682Y0067429D01*
X0194782Y0067429D01*
X0194782Y0066329D01*
X0194782Y0068329D02*
X0198682Y0068329D01*
X0198682Y0069429D01*
X0194782Y0069429D01*
X0194782Y0068329D01*
X0194782Y0070329D02*
X0198682Y0070329D01*
X0198682Y0071429D01*
X0194782Y0071429D01*
X0194782Y0070329D01*
X0194782Y0072229D02*
X0198682Y0072329D01*
X0198682Y0073429D01*
X0194782Y0073429D01*
X0194782Y0072229D01*
X0194782Y0074229D02*
X0198682Y0074229D01*
X0198682Y0075329D01*
X0194782Y0075329D01*
X0194782Y0074229D01*
X0194782Y0076229D02*
X0198682Y0076229D01*
X0198682Y0077329D01*
X0194782Y0077329D01*
X0194782Y0076229D01*
X0194782Y0078229D02*
X0198682Y0078229D01*
X0198682Y0079329D01*
X0194782Y0079329D01*
X0194782Y0078229D01*
X0194782Y0080129D02*
X0198682Y0080129D01*
X0198682Y0081229D01*
X0194782Y0081229D01*
X0194782Y0080129D01*
X0194782Y0082129D02*
X0198682Y0082129D01*
X0198682Y0083229D01*
X0194782Y0083229D01*
X0194782Y0082129D01*
X0194782Y0084129D02*
X0198682Y0084129D01*
X0198682Y0085229D01*
X0194782Y0085229D01*
X0194782Y0084129D01*
X0194782Y0086029D02*
X0198682Y0086029D01*
X0198682Y0087129D01*
X0194782Y0087129D01*
X0194782Y0086029D01*
X0194782Y0088029D02*
X0198682Y0088029D01*
X0198682Y0089129D01*
X0194782Y0089129D01*
X0194782Y0088029D01*
X0194782Y0090029D02*
X0198682Y0090029D01*
X0198682Y0091129D01*
X0194782Y0091129D01*
X0194782Y0090029D01*
X0194782Y0091929D02*
X0198682Y0091929D01*
X0198682Y0093029D01*
X0194782Y0093029D01*
X0194782Y0091929D01*
X0194782Y0093929D02*
X0198682Y0093929D01*
X0198682Y0095029D01*
X0194782Y0095029D01*
X0194782Y0093929D01*
X0194782Y0095929D02*
X0198682Y0095929D01*
X0198682Y0097029D01*
X0194782Y0097029D01*
X0194782Y0095929D01*
X0138782Y0049729D02*
X0134882Y0049729D01*
X0134882Y0048629D01*
X0138782Y0048629D01*
X0138782Y0049729D01*
X0193970Y0034482D02*
X0193970Y0033695D01*
X0204206Y0033695D02*
X0204206Y0034482D01*
X0206011Y0029364D02*
X0206013Y0029411D01*
X0206019Y0029457D01*
X0206028Y0029503D01*
X0206042Y0029547D01*
X0206059Y0029591D01*
X0206080Y0029632D01*
X0206104Y0029672D01*
X0206131Y0029710D01*
X0206162Y0029745D01*
X0206195Y0029778D01*
X0206231Y0029808D01*
X0206270Y0029834D01*
X0206310Y0029858D01*
X0206352Y0029877D01*
X0206396Y0029894D01*
X0206441Y0029906D01*
X0206487Y0029915D01*
X0206533Y0029920D01*
X0206580Y0029921D01*
X0206626Y0029918D01*
X0206672Y0029911D01*
X0206718Y0029900D01*
X0206762Y0029886D01*
X0206805Y0029868D01*
X0206846Y0029846D01*
X0206886Y0029821D01*
X0206923Y0029793D01*
X0206958Y0029762D01*
X0206990Y0029728D01*
X0207019Y0029691D01*
X0207044Y0029653D01*
X0207067Y0029612D01*
X0207086Y0029569D01*
X0207101Y0029525D01*
X0207113Y0029480D01*
X0207121Y0029434D01*
X0207125Y0029387D01*
X0207125Y0029341D01*
X0207121Y0029294D01*
X0207113Y0029248D01*
X0207101Y0029203D01*
X0207086Y0029159D01*
X0207067Y0029116D01*
X0207044Y0029075D01*
X0207019Y0029037D01*
X0206990Y0029000D01*
X0206958Y0028966D01*
X0206923Y0028935D01*
X0206886Y0028907D01*
X0206847Y0028882D01*
X0206805Y0028860D01*
X0206762Y0028842D01*
X0206718Y0028828D01*
X0206672Y0028817D01*
X0206626Y0028810D01*
X0206580Y0028807D01*
X0206533Y0028808D01*
X0206487Y0028813D01*
X0206441Y0028822D01*
X0206396Y0028834D01*
X0206352Y0028851D01*
X0206310Y0028870D01*
X0206270Y0028894D01*
X0206231Y0028920D01*
X0206195Y0028950D01*
X0206162Y0028983D01*
X0206131Y0029018D01*
X0206104Y0029056D01*
X0206080Y0029096D01*
X0206059Y0029137D01*
X0206042Y0029181D01*
X0206028Y0029225D01*
X0206019Y0029271D01*
X0206013Y0029317D01*
X0206011Y0029364D01*
X0095918Y0165915D02*
X0084518Y0165915D01*
X0084518Y0168915D01*
X0095918Y0168915D01*
X0095918Y0165915D01*
X0045387Y0081842D02*
X0033987Y0081842D01*
X0033987Y0078842D01*
X0045387Y0078842D01*
X0045387Y0081842D01*
D16*
X0034701Y0083065D02*
X0034334Y0082698D01*
X0033600Y0082698D01*
X0033233Y0083065D01*
X0032399Y0083065D02*
X0032032Y0082698D01*
X0031298Y0082698D01*
X0030931Y0083065D01*
X0030931Y0084533D01*
X0031298Y0084900D01*
X0032032Y0084900D01*
X0032399Y0084533D01*
X0032399Y0083065D01*
X0032399Y0082698D02*
X0031665Y0083432D01*
X0033233Y0084533D02*
X0033600Y0084900D01*
X0034334Y0084900D01*
X0034701Y0084533D01*
X0034701Y0084166D01*
X0034334Y0083799D01*
X0034701Y0083432D01*
X0034701Y0083065D01*
X0034334Y0083799D02*
X0033967Y0083799D01*
X0087692Y0162422D02*
X0087325Y0162789D01*
X0087325Y0164257D01*
X0087692Y0164624D01*
X0088426Y0164624D01*
X0088793Y0164257D01*
X0088793Y0162789D01*
X0088426Y0162422D01*
X0087692Y0162422D01*
X0088059Y0163156D02*
X0088793Y0162422D01*
X0089627Y0162422D02*
X0091095Y0162422D01*
X0090361Y0162422D02*
X0090361Y0164624D01*
X0089627Y0163890D01*
X0128713Y0221258D02*
X0128713Y0222726D01*
X0128713Y0221992D02*
X0130915Y0221992D01*
X0130915Y0223560D02*
X0128713Y0223560D01*
X0128713Y0224661D01*
X0129080Y0225028D01*
X0129814Y0225028D01*
X0130181Y0224661D01*
X0130181Y0223560D01*
X0130915Y0225862D02*
X0130915Y0227330D01*
X0130915Y0226596D02*
X0128713Y0226596D01*
X0129447Y0225862D01*
X0173667Y0207692D02*
X0176803Y0204556D01*
X0176803Y0206124D02*
X0173667Y0206124D01*
X0173667Y0204556D02*
X0176803Y0207692D01*
X0175235Y0207692D02*
X0175235Y0204556D01*
X0208483Y0042872D02*
X0208483Y0041404D01*
X0208483Y0042138D02*
X0206281Y0042138D01*
X0207015Y0041404D01*
X0208483Y0040570D02*
X0208483Y0039102D01*
X0206281Y0039102D01*
X0207015Y0038268D02*
X0206281Y0037534D01*
X0207015Y0036800D01*
X0208483Y0036800D01*
X0207382Y0036800D02*
X0207382Y0038268D01*
X0207015Y0038268D02*
X0208483Y0038268D01*
X0208483Y0035232D02*
X0206281Y0035232D01*
X0206281Y0034498D02*
X0206281Y0035966D01*
X0206281Y0033664D02*
X0208483Y0032196D01*
X0208483Y0033664D02*
X0206281Y0032196D01*
X0142248Y0034879D02*
X0139112Y0038015D01*
X0139112Y0036447D02*
X0142248Y0036447D01*
X0142248Y0038015D02*
X0139112Y0034879D01*
X0140680Y0034879D02*
X0140680Y0038015D01*
D17*
X0186717Y0204222D02*
X0186719Y0204153D01*
X0186725Y0204085D01*
X0186735Y0204017D01*
X0186748Y0203950D01*
X0186766Y0203884D01*
X0186787Y0203819D01*
X0186812Y0203755D01*
X0186840Y0203693D01*
X0186872Y0203632D01*
X0186907Y0203573D01*
X0186946Y0203517D01*
X0186988Y0203462D01*
X0187033Y0203411D01*
X0187081Y0203361D01*
X0187131Y0203315D01*
X0187184Y0203272D01*
X0187240Y0203231D01*
X0187297Y0203194D01*
X0187357Y0203161D01*
X0187419Y0203130D01*
X0187482Y0203104D01*
X0187546Y0203081D01*
X0187612Y0203061D01*
X0187679Y0203046D01*
X0187746Y0203034D01*
X0187814Y0203026D01*
X0187883Y0203022D01*
X0187951Y0203022D01*
X0188020Y0203026D01*
X0188088Y0203034D01*
X0188155Y0203046D01*
X0188222Y0203061D01*
X0188288Y0203081D01*
X0188352Y0203104D01*
X0188415Y0203130D01*
X0188477Y0203161D01*
X0188537Y0203194D01*
X0188594Y0203231D01*
X0188650Y0203272D01*
X0188703Y0203315D01*
X0188753Y0203361D01*
X0188801Y0203411D01*
X0188846Y0203462D01*
X0188888Y0203517D01*
X0188927Y0203573D01*
X0188962Y0203632D01*
X0188994Y0203693D01*
X0189022Y0203755D01*
X0189047Y0203819D01*
X0189068Y0203884D01*
X0189086Y0203950D01*
X0189099Y0204017D01*
X0189109Y0204085D01*
X0189115Y0204153D01*
X0189117Y0204222D01*
D18*
X0183005Y0196632D02*
X0188486Y0191505D01*
X0194319Y0184964D01*
X0198739Y0179131D01*
X0202804Y0172236D01*
X0205103Y0167463D01*
X0205103Y0159332D01*
X0201921Y0152968D01*
X0197678Y0146250D01*
X0193082Y0140240D01*
X0187071Y0133876D01*
X0179823Y0127689D01*
X0173106Y0123093D01*
X0166035Y0119203D01*
X0157373Y0115491D01*
X0147473Y0112663D01*
X0138281Y0111248D01*
X0129442Y0110895D01*
X0120957Y0111248D01*
X0112118Y0112663D01*
X0104340Y0114784D01*
X0097092Y0117436D01*
X0090374Y0120618D01*
X0083303Y0124860D01*
X0076232Y0130164D01*
X0070752Y0135290D01*
X0064919Y0141831D01*
X0060499Y0147664D01*
X0056433Y0154559D01*
X0054135Y0159332D01*
X0054135Y0167463D01*
X0057317Y0173827D01*
X0061560Y0180545D01*
X0066156Y0186555D01*
X0072166Y0192919D01*
X0079414Y0199106D01*
X0086132Y0203703D01*
X0093203Y0207592D01*
X0101865Y0211304D01*
X0111764Y0214133D01*
X0120957Y0215547D01*
X0129796Y0215900D01*
X0138281Y0215547D01*
X0147120Y0214133D01*
X0154898Y0212011D01*
X0162146Y0209360D01*
X0168863Y0206178D01*
X0175934Y0201935D01*
X0183005Y0196632D01*
X0159671Y0186379D02*
X0156135Y0182843D01*
X0159671Y0186379D02*
X0152600Y0193450D01*
X0149064Y0189914D01*
X0148409Y0190383D01*
X0147742Y0190835D01*
X0147065Y0191271D01*
X0146377Y0191690D01*
X0145678Y0192092D01*
X0144971Y0192476D01*
X0144254Y0192844D01*
X0143528Y0193193D01*
X0142794Y0193525D01*
X0142052Y0193839D01*
X0141303Y0194134D01*
X0140546Y0194411D01*
X0139783Y0194670D01*
X0139014Y0194909D01*
X0138239Y0195130D01*
X0137459Y0195332D01*
X0136675Y0195514D01*
X0135886Y0195677D01*
X0135093Y0195821D01*
X0134297Y0195946D01*
X0133499Y0196050D01*
X0132697Y0196136D01*
X0131895Y0196201D01*
X0131090Y0196247D01*
X0130285Y0196273D01*
X0129480Y0196280D01*
X0128674Y0196266D01*
X0127869Y0196233D01*
X0127065Y0196181D01*
X0126263Y0196108D01*
X0125463Y0196016D01*
X0124665Y0195905D01*
X0123870Y0195774D01*
X0123079Y0195623D01*
X0122291Y0195453D01*
X0121508Y0195264D01*
X0120730Y0195056D01*
X0119957Y0194828D01*
X0119190Y0194582D01*
X0118429Y0194318D01*
X0117675Y0194034D01*
X0116928Y0193732D01*
X0116189Y0193412D01*
X0115458Y0193074D01*
X0114735Y0192719D01*
X0114021Y0192345D01*
X0113317Y0191954D01*
X0112622Y0191546D01*
X0111938Y0191122D01*
X0111264Y0190680D01*
X0110601Y0190222D01*
X0109950Y0189748D01*
X0109310Y0189259D01*
X0108683Y0188753D01*
X0108068Y0188233D01*
X0107466Y0187697D01*
X0106877Y0187148D01*
X0106302Y0186583D01*
X0105741Y0186005D01*
X0105195Y0185413D01*
X0104663Y0184808D01*
X0104146Y0184191D01*
X0103644Y0183560D01*
X0103158Y0182918D01*
X0102688Y0182264D01*
X0102234Y0181599D01*
X0101796Y0180922D01*
X0101375Y0180235D01*
X0100971Y0179538D01*
X0100584Y0178832D01*
X0100215Y0178116D01*
X0099863Y0177391D01*
X0099529Y0176658D01*
X0099213Y0175917D01*
X0098916Y0175168D01*
X0098637Y0174413D01*
X0098376Y0173650D01*
X0098134Y0172882D01*
X0097912Y0172108D01*
X0097708Y0171329D01*
X0097523Y0170544D01*
X0097358Y0169756D01*
X0097211Y0168964D01*
X0097085Y0168168D01*
X0096978Y0167370D01*
X0096890Y0166569D01*
X0096822Y0165766D01*
X0096774Y0164962D01*
X0096746Y0164157D01*
X0096737Y0163352D01*
X0096748Y0162546D01*
X0096779Y0161741D01*
X0096829Y0160937D01*
X0096899Y0160135D01*
X0096989Y0159334D01*
X0097098Y0158536D01*
X0097227Y0157741D01*
X0097376Y0156949D01*
X0097543Y0156161D01*
X0097730Y0155377D01*
X0097936Y0154599D01*
X0098161Y0153825D01*
X0098405Y0153057D01*
X0098668Y0152296D01*
X0098949Y0151541D01*
X0099249Y0150793D01*
X0099567Y0150053D01*
X0099903Y0149321D01*
X0100256Y0148597D01*
X0100628Y0147882D01*
X0101017Y0147177D01*
X0101423Y0146481D01*
X0101846Y0145795D01*
X0102285Y0145120D01*
X0102741Y0144456D01*
X0103213Y0143803D01*
X0103701Y0143162D01*
X0104205Y0142533D01*
X0104723Y0141917D01*
X0105257Y0141314D01*
X0105805Y0140723D01*
X0106368Y0140147D01*
X0106944Y0139584D01*
X0107535Y0139036D01*
X0108138Y0138502D01*
X0108754Y0137984D01*
X0109383Y0137480D01*
X0110024Y0136992D01*
X0110677Y0136520D01*
X0111341Y0136064D01*
X0112016Y0135625D01*
X0112702Y0135202D01*
X0113398Y0134796D01*
X0114103Y0134407D01*
X0114818Y0134035D01*
X0115542Y0133682D01*
X0116274Y0133346D01*
X0117014Y0133028D01*
X0117762Y0132728D01*
X0118517Y0132447D01*
X0119278Y0132184D01*
X0120046Y0131940D01*
X0120820Y0131715D01*
X0121598Y0131509D01*
X0122382Y0131322D01*
X0123170Y0131155D01*
X0123962Y0131006D01*
X0124757Y0130877D01*
X0125555Y0130768D01*
X0126356Y0130678D01*
X0127158Y0130608D01*
X0127962Y0130558D01*
X0128767Y0130527D01*
X0129573Y0130516D01*
X0130378Y0130525D01*
X0131183Y0130553D01*
X0131987Y0130601D01*
X0132790Y0130669D01*
X0133591Y0130757D01*
X0134389Y0130864D01*
X0135185Y0130990D01*
X0135977Y0131137D01*
X0136765Y0131302D01*
X0137550Y0131487D01*
X0138329Y0131691D01*
X0139103Y0131913D01*
X0139871Y0132155D01*
X0140634Y0132416D01*
X0141389Y0132695D01*
X0142138Y0132992D01*
X0142879Y0133308D01*
X0143612Y0133642D01*
X0144337Y0133994D01*
X0145053Y0134363D01*
X0145759Y0134750D01*
X0146456Y0135154D01*
X0147143Y0135575D01*
X0147820Y0136013D01*
X0148485Y0136467D01*
X0149139Y0136937D01*
X0149781Y0137423D01*
X0150412Y0137925D01*
X0151029Y0138442D01*
X0151634Y0138974D01*
X0152226Y0139520D01*
X0152804Y0140081D01*
X0153369Y0140656D01*
X0153918Y0141245D01*
X0154454Y0141847D01*
X0154974Y0142462D01*
X0155480Y0143089D01*
X0155969Y0143729D01*
X0156443Y0144380D01*
X0156901Y0145043D01*
X0157343Y0145717D01*
X0157767Y0146401D01*
X0158175Y0147096D01*
X0158566Y0147800D01*
X0158940Y0148514D01*
X0159295Y0149237D01*
X0159633Y0149968D01*
X0159953Y0150707D01*
X0160255Y0151454D01*
X0160539Y0152208D01*
X0160803Y0152969D01*
X0161049Y0153736D01*
X0161277Y0154509D01*
X0161485Y0155287D01*
X0161674Y0156070D01*
X0161844Y0156858D01*
X0161995Y0157649D01*
X0162126Y0158444D01*
X0162237Y0159242D01*
X0162329Y0160042D01*
X0162402Y0160844D01*
X0162454Y0161648D01*
X0162487Y0162453D01*
X0162501Y0163259D01*
X0162494Y0164064D01*
X0162468Y0164869D01*
X0162422Y0165674D01*
X0162357Y0166476D01*
X0162271Y0167278D01*
X0162167Y0168076D01*
X0162042Y0168872D01*
X0161898Y0169665D01*
X0161735Y0170454D01*
X0161553Y0171238D01*
X0161351Y0172018D01*
X0161130Y0172793D01*
X0160891Y0173562D01*
X0160632Y0174325D01*
X0160355Y0175082D01*
X0160060Y0175831D01*
X0159746Y0176573D01*
X0159414Y0177307D01*
X0159065Y0178033D01*
X0158697Y0178750D01*
X0158313Y0179457D01*
X0157911Y0180156D01*
X0157492Y0180844D01*
X0157056Y0181521D01*
X0156604Y0182188D01*
X0156135Y0182843D01*
X0086273Y0163398D02*
X0086286Y0164462D01*
X0086325Y0165525D01*
X0086390Y0166587D01*
X0086482Y0167647D01*
X0086599Y0168704D01*
X0086742Y0169758D01*
X0086911Y0170809D01*
X0087106Y0171854D01*
X0087326Y0172895D01*
X0087572Y0173930D01*
X0087843Y0174959D01*
X0088139Y0175981D01*
X0088461Y0176995D01*
X0088807Y0178001D01*
X0089177Y0178998D01*
X0089573Y0179986D01*
X0089992Y0180964D01*
X0090435Y0181931D01*
X0090901Y0182887D01*
X0091391Y0183831D01*
X0091904Y0184763D01*
X0092440Y0185682D01*
X0092998Y0186588D01*
X0093578Y0187480D01*
X0094180Y0188357D01*
X0094803Y0189219D01*
X0095447Y0190066D01*
X0096112Y0190896D01*
X0096797Y0191710D01*
X0097502Y0192507D01*
X0098226Y0193287D01*
X0098969Y0194048D01*
X0099730Y0194791D01*
X0100510Y0195515D01*
X0101307Y0196220D01*
X0102121Y0196905D01*
X0102951Y0197570D01*
X0103798Y0198214D01*
X0104660Y0198837D01*
X0105537Y0199439D01*
X0106429Y0200019D01*
X0107335Y0200577D01*
X0108254Y0201113D01*
X0109186Y0201626D01*
X0110130Y0202116D01*
X0111086Y0202582D01*
X0112053Y0203025D01*
X0113031Y0203444D01*
X0114019Y0203840D01*
X0115016Y0204210D01*
X0116022Y0204556D01*
X0117036Y0204878D01*
X0118058Y0205174D01*
X0119087Y0205445D01*
X0120122Y0205691D01*
X0121163Y0205911D01*
X0122208Y0206106D01*
X0123259Y0206275D01*
X0124313Y0206418D01*
X0125370Y0206535D01*
X0126430Y0206627D01*
X0127492Y0206692D01*
X0128555Y0206731D01*
X0129619Y0206744D01*
X0130683Y0206731D01*
X0131746Y0206692D01*
X0132808Y0206627D01*
X0133868Y0206535D01*
X0134925Y0206418D01*
X0135979Y0206275D01*
X0137030Y0206106D01*
X0138075Y0205911D01*
X0139116Y0205691D01*
X0140151Y0205445D01*
X0141180Y0205174D01*
X0142202Y0204878D01*
X0143216Y0204556D01*
X0144222Y0204210D01*
X0145219Y0203840D01*
X0146207Y0203444D01*
X0147185Y0203025D01*
X0148152Y0202582D01*
X0149108Y0202116D01*
X0150052Y0201626D01*
X0150984Y0201113D01*
X0151903Y0200577D01*
X0152809Y0200019D01*
X0153701Y0199439D01*
X0154578Y0198837D01*
X0155440Y0198214D01*
X0156287Y0197570D01*
X0157117Y0196905D01*
X0157931Y0196220D01*
X0158728Y0195515D01*
X0159508Y0194791D01*
X0160269Y0194048D01*
X0161012Y0193287D01*
X0161736Y0192507D01*
X0162441Y0191710D01*
X0163126Y0190896D01*
X0163791Y0190066D01*
X0164435Y0189219D01*
X0165058Y0188357D01*
X0165660Y0187480D01*
X0166240Y0186588D01*
X0166798Y0185682D01*
X0167334Y0184763D01*
X0167847Y0183831D01*
X0168337Y0182887D01*
X0168803Y0181931D01*
X0169246Y0180964D01*
X0169665Y0179986D01*
X0170061Y0178998D01*
X0170431Y0178001D01*
X0170777Y0176995D01*
X0171099Y0175981D01*
X0171395Y0174959D01*
X0171666Y0173930D01*
X0171912Y0172895D01*
X0172132Y0171854D01*
X0172327Y0170809D01*
X0172496Y0169758D01*
X0172639Y0168704D01*
X0172756Y0167647D01*
X0172848Y0166587D01*
X0172913Y0165525D01*
X0172952Y0164462D01*
X0172965Y0163398D01*
X0172952Y0162334D01*
X0172913Y0161271D01*
X0172848Y0160209D01*
X0172756Y0159149D01*
X0172639Y0158092D01*
X0172496Y0157038D01*
X0172327Y0155987D01*
X0172132Y0154942D01*
X0171912Y0153901D01*
X0171666Y0152866D01*
X0171395Y0151837D01*
X0171099Y0150815D01*
X0170777Y0149801D01*
X0170431Y0148795D01*
X0170061Y0147798D01*
X0169665Y0146810D01*
X0169246Y0145832D01*
X0168803Y0144865D01*
X0168337Y0143909D01*
X0167847Y0142965D01*
X0167334Y0142033D01*
X0166798Y0141114D01*
X0166240Y0140208D01*
X0165660Y0139316D01*
X0165058Y0138439D01*
X0164435Y0137577D01*
X0163791Y0136730D01*
X0163126Y0135900D01*
X0162441Y0135086D01*
X0161736Y0134289D01*
X0161012Y0133509D01*
X0160269Y0132748D01*
X0159508Y0132005D01*
X0158728Y0131281D01*
X0157931Y0130576D01*
X0157117Y0129891D01*
X0156287Y0129226D01*
X0155440Y0128582D01*
X0154578Y0127959D01*
X0153701Y0127357D01*
X0152809Y0126777D01*
X0151903Y0126219D01*
X0150984Y0125683D01*
X0150052Y0125170D01*
X0149108Y0124680D01*
X0148152Y0124214D01*
X0147185Y0123771D01*
X0146207Y0123352D01*
X0145219Y0122956D01*
X0144222Y0122586D01*
X0143216Y0122240D01*
X0142202Y0121918D01*
X0141180Y0121622D01*
X0140151Y0121351D01*
X0139116Y0121105D01*
X0138075Y0120885D01*
X0137030Y0120690D01*
X0135979Y0120521D01*
X0134925Y0120378D01*
X0133868Y0120261D01*
X0132808Y0120169D01*
X0131746Y0120104D01*
X0130683Y0120065D01*
X0129619Y0120052D01*
X0128555Y0120065D01*
X0127492Y0120104D01*
X0126430Y0120169D01*
X0125370Y0120261D01*
X0124313Y0120378D01*
X0123259Y0120521D01*
X0122208Y0120690D01*
X0121163Y0120885D01*
X0120122Y0121105D01*
X0119087Y0121351D01*
X0118058Y0121622D01*
X0117036Y0121918D01*
X0116022Y0122240D01*
X0115016Y0122586D01*
X0114019Y0122956D01*
X0113031Y0123352D01*
X0112053Y0123771D01*
X0111086Y0124214D01*
X0110130Y0124680D01*
X0109186Y0125170D01*
X0108254Y0125683D01*
X0107335Y0126219D01*
X0106429Y0126777D01*
X0105537Y0127357D01*
X0104660Y0127959D01*
X0103798Y0128582D01*
X0102951Y0129226D01*
X0102121Y0129891D01*
X0101307Y0130576D01*
X0100510Y0131281D01*
X0099730Y0132005D01*
X0098969Y0132748D01*
X0098226Y0133509D01*
X0097502Y0134289D01*
X0096797Y0135086D01*
X0096112Y0135900D01*
X0095447Y0136730D01*
X0094803Y0137577D01*
X0094180Y0138439D01*
X0093578Y0139316D01*
X0092998Y0140208D01*
X0092440Y0141114D01*
X0091904Y0142033D01*
X0091391Y0142965D01*
X0090901Y0143909D01*
X0090435Y0144865D01*
X0089992Y0145832D01*
X0089573Y0146810D01*
X0089177Y0147798D01*
X0088807Y0148795D01*
X0088461Y0149801D01*
X0088139Y0150815D01*
X0087843Y0151837D01*
X0087572Y0152866D01*
X0087326Y0153901D01*
X0087106Y0154942D01*
X0086911Y0155987D01*
X0086742Y0157038D01*
X0086599Y0158092D01*
X0086482Y0159149D01*
X0086390Y0160209D01*
X0086325Y0161271D01*
X0086286Y0162334D01*
X0086273Y0163398D01*
M02*
