G75*
%MOIN*%
%OFA0B0*%
%FSLAX25Y25*%
%IPPOS*%
%LPD*%
%AMOC8*
5,1,8,0,0,1.08239X$1,22.5*
%
%ADD10C,0.00200*%
%ADD11C,0.00500*%
%ADD12C,0.00600*%
%ADD13C,0.00000*%
%ADD14C,0.00300*%
%ADD15C,0.00800*%
%ADD16C,0.01000*%
D10*
X0038623Y0047205D02*
X0038623Y0049507D01*
X0039774Y0048356D01*
X0038239Y0048356D01*
X0040541Y0047205D02*
X0042076Y0047205D01*
X0042843Y0047205D02*
X0043610Y0047973D01*
X0043227Y0047973D02*
X0044378Y0047973D01*
X0044378Y0047205D02*
X0044378Y0049507D01*
X0043227Y0049507D01*
X0042843Y0049124D01*
X0042843Y0048356D01*
X0043227Y0047973D01*
X0042076Y0048740D02*
X0041308Y0049507D01*
X0041308Y0047205D01*
X0048441Y0047317D02*
X0049975Y0047317D01*
X0048441Y0048852D01*
X0048441Y0049235D01*
X0048824Y0049619D01*
X0049591Y0049619D01*
X0049975Y0049235D01*
X0051510Y0049619D02*
X0051510Y0047317D01*
X0052277Y0047317D02*
X0050742Y0047317D01*
X0052277Y0048852D02*
X0051510Y0049619D01*
X0053044Y0049235D02*
X0053044Y0048468D01*
X0053428Y0048084D01*
X0054579Y0048084D01*
X0054579Y0047317D02*
X0054579Y0049619D01*
X0053428Y0049619D01*
X0053044Y0049235D01*
X0053812Y0048084D02*
X0053044Y0047317D01*
X0059631Y0053850D02*
X0059247Y0054234D01*
X0059247Y0055769D01*
X0059631Y0056152D01*
X0060398Y0056152D01*
X0060782Y0055769D01*
X0060782Y0055385D01*
X0060398Y0055001D01*
X0059247Y0055001D01*
X0059575Y0055780D02*
X0061110Y0055780D01*
X0061549Y0055769D02*
X0061549Y0055385D01*
X0061933Y0055001D01*
X0061549Y0054618D01*
X0061549Y0054234D01*
X0061933Y0053850D01*
X0062700Y0053850D01*
X0063084Y0054234D01*
X0063851Y0054234D02*
X0064235Y0053850D01*
X0065002Y0053850D01*
X0065386Y0054234D01*
X0065386Y0055769D01*
X0065002Y0056152D01*
X0064235Y0056152D01*
X0063851Y0055769D01*
X0063412Y0055780D02*
X0063412Y0058082D01*
X0062261Y0058082D01*
X0061877Y0057698D01*
X0061877Y0056931D01*
X0062261Y0056547D01*
X0063412Y0056547D01*
X0062644Y0056547D02*
X0061877Y0055780D01*
X0061549Y0055769D02*
X0061933Y0056152D01*
X0062700Y0056152D01*
X0063084Y0055769D01*
X0062316Y0055001D02*
X0061933Y0055001D01*
X0060782Y0054234D02*
X0060398Y0053850D01*
X0059631Y0053850D01*
X0060342Y0055780D02*
X0060342Y0058082D01*
X0061110Y0057314D01*
X0058808Y0057698D02*
X0058424Y0058082D01*
X0057657Y0058082D01*
X0057273Y0057698D01*
X0058808Y0056163D01*
X0058424Y0055780D01*
X0057657Y0055780D01*
X0057273Y0056163D01*
X0057273Y0057698D01*
X0058808Y0057698D02*
X0058808Y0056163D01*
X0059533Y0060452D02*
X0060300Y0060452D01*
X0060684Y0060836D01*
X0059916Y0061603D02*
X0059533Y0061603D01*
X0059149Y0061220D01*
X0059149Y0060836D01*
X0059533Y0060452D01*
X0059533Y0061603D02*
X0059149Y0061987D01*
X0059149Y0062371D01*
X0059533Y0062754D01*
X0060300Y0062754D01*
X0060684Y0062371D01*
X0061451Y0062371D02*
X0062986Y0060836D01*
X0062986Y0060452D01*
X0063753Y0060452D02*
X0064520Y0061220D01*
X0064137Y0061220D02*
X0065288Y0061220D01*
X0065288Y0060452D02*
X0065288Y0062754D01*
X0064137Y0062754D01*
X0063753Y0062371D01*
X0063753Y0061603D01*
X0064137Y0061220D01*
X0062986Y0062754D02*
X0061451Y0062754D01*
X0061451Y0062371D01*
X0061881Y0067085D02*
X0061498Y0067469D01*
X0061498Y0069004D01*
X0061881Y0069387D01*
X0063032Y0069387D01*
X0063032Y0067085D01*
X0061881Y0067085D01*
X0060730Y0067469D02*
X0060347Y0067085D01*
X0059579Y0067085D01*
X0059196Y0067469D01*
X0059196Y0068236D01*
X0059579Y0068620D01*
X0059963Y0068620D01*
X0060730Y0068236D01*
X0060730Y0069387D01*
X0059196Y0069387D01*
X0052647Y0068716D02*
X0051496Y0068716D01*
X0051112Y0069099D01*
X0051112Y0069867D01*
X0051496Y0070250D01*
X0052647Y0070250D01*
X0052647Y0067948D01*
X0051880Y0068716D02*
X0051112Y0067948D01*
X0050345Y0068332D02*
X0049961Y0067948D01*
X0049194Y0067948D01*
X0048810Y0068332D01*
X0048810Y0068716D01*
X0049194Y0069099D01*
X0050345Y0069099D01*
X0050345Y0068332D01*
X0050345Y0069099D02*
X0049578Y0069867D01*
X0048810Y0070250D01*
X0048043Y0069483D02*
X0047276Y0070250D01*
X0047276Y0067948D01*
X0048043Y0067948D02*
X0046508Y0067948D01*
X0042469Y0067931D02*
X0042469Y0070233D01*
X0041318Y0070233D01*
X0040935Y0069849D01*
X0040935Y0069082D01*
X0041318Y0068698D01*
X0042469Y0068698D01*
X0041702Y0068698D02*
X0040935Y0067931D01*
X0040168Y0068315D02*
X0040168Y0068698D01*
X0039784Y0069082D01*
X0039017Y0069082D01*
X0038633Y0068698D01*
X0038633Y0068315D01*
X0039017Y0067931D01*
X0039784Y0067931D01*
X0040168Y0068315D01*
X0039784Y0069082D02*
X0040168Y0069466D01*
X0040168Y0069849D01*
X0039784Y0070233D01*
X0039017Y0070233D01*
X0038633Y0069849D01*
X0038633Y0069466D01*
X0039017Y0069082D01*
X0037866Y0069082D02*
X0036331Y0069082D01*
X0036715Y0067931D02*
X0036715Y0070233D01*
X0037866Y0069082D01*
X0037496Y0063601D02*
X0036729Y0063601D01*
X0036345Y0063218D01*
X0037880Y0061683D01*
X0037496Y0061299D01*
X0036729Y0061299D01*
X0036345Y0061683D01*
X0036345Y0063218D01*
X0037496Y0063601D02*
X0037880Y0063218D01*
X0037880Y0061683D01*
X0038647Y0061683D02*
X0039031Y0061299D01*
X0039798Y0061299D01*
X0040182Y0061683D01*
X0040182Y0062450D02*
X0039415Y0062834D01*
X0039031Y0062834D01*
X0038647Y0062450D01*
X0038647Y0061683D01*
X0040182Y0062450D02*
X0040182Y0063601D01*
X0038647Y0063601D01*
X0040949Y0063218D02*
X0041333Y0063601D01*
X0042100Y0063601D01*
X0042484Y0063218D01*
X0042484Y0061683D01*
X0042100Y0061299D01*
X0041333Y0061299D01*
X0040949Y0061683D01*
X0046614Y0061371D02*
X0048148Y0061371D01*
X0047381Y0061371D02*
X0047381Y0063673D01*
X0048148Y0062906D01*
X0049683Y0063673D02*
X0049683Y0061371D01*
X0050450Y0061371D02*
X0048916Y0061371D01*
X0050450Y0062906D02*
X0049683Y0063673D01*
X0051218Y0063289D02*
X0051601Y0063673D01*
X0052369Y0063673D01*
X0052752Y0063289D01*
X0052752Y0061755D01*
X0052369Y0061371D01*
X0051601Y0061371D01*
X0051218Y0061755D01*
X0051547Y0074584D02*
X0051164Y0074968D01*
X0051164Y0076502D01*
X0051547Y0076886D01*
X0052698Y0076886D01*
X0052698Y0074584D01*
X0051547Y0074584D01*
X0050396Y0074968D02*
X0050013Y0074584D01*
X0049245Y0074584D01*
X0048862Y0074968D01*
X0048862Y0075351D01*
X0049245Y0075735D01*
X0050396Y0075735D01*
X0050396Y0074968D01*
X0050396Y0075735D02*
X0049629Y0076502D01*
X0048862Y0076886D01*
X0052344Y0080502D02*
X0054646Y0080502D01*
X0054646Y0081653D01*
X0054263Y0082037D01*
X0053495Y0082037D01*
X0053112Y0081653D01*
X0053112Y0080502D01*
X0053112Y0081269D02*
X0052344Y0082037D01*
X0052344Y0082804D02*
X0052344Y0084339D01*
X0052344Y0083571D02*
X0054646Y0083571D01*
X0053879Y0082804D01*
X0054263Y0085106D02*
X0054646Y0085490D01*
X0054646Y0086257D01*
X0054263Y0086641D01*
X0052728Y0085106D01*
X0052344Y0085490D01*
X0052344Y0086257D01*
X0052728Y0086641D01*
X0054263Y0086641D01*
X0054646Y0087408D02*
X0053495Y0087408D01*
X0053879Y0088175D01*
X0053879Y0088559D01*
X0053495Y0088942D01*
X0052728Y0088942D01*
X0052344Y0088559D01*
X0052344Y0087791D01*
X0052728Y0087408D01*
X0054646Y0087408D02*
X0054646Y0088942D01*
X0049877Y0088113D02*
X0049494Y0088497D01*
X0047959Y0086962D01*
X0047575Y0087346D01*
X0047575Y0088113D01*
X0047959Y0088497D01*
X0049494Y0088497D01*
X0049877Y0088113D02*
X0049877Y0087346D01*
X0049494Y0086962D01*
X0047959Y0086962D01*
X0047959Y0086195D02*
X0048343Y0086195D01*
X0048726Y0085811D01*
X0048726Y0084661D01*
X0047959Y0084661D01*
X0047575Y0085044D01*
X0047575Y0085811D01*
X0047959Y0086195D01*
X0049494Y0085428D02*
X0048726Y0084661D01*
X0049494Y0085428D02*
X0049877Y0086195D01*
X0049494Y0083893D02*
X0049877Y0083510D01*
X0049877Y0082742D01*
X0049494Y0082359D01*
X0047959Y0082359D01*
X0047575Y0082742D01*
X0047575Y0083510D01*
X0047959Y0083893D01*
X0052728Y0085106D02*
X0054263Y0085106D01*
X0059594Y0085926D02*
X0061128Y0085926D01*
X0059977Y0087077D01*
X0059977Y0084775D01*
X0061896Y0085159D02*
X0061896Y0086694D01*
X0063430Y0085159D01*
X0063047Y0084775D01*
X0062279Y0084775D01*
X0061896Y0085159D01*
X0063430Y0085159D02*
X0063430Y0086694D01*
X0063047Y0087077D01*
X0062279Y0087077D01*
X0061896Y0086694D01*
X0064198Y0084775D02*
X0065732Y0084775D01*
X0064965Y0084775D02*
X0064965Y0087077D01*
X0065732Y0086310D01*
X0066500Y0086694D02*
X0066500Y0085926D01*
X0066883Y0085543D01*
X0068034Y0085543D01*
X0067267Y0085543D02*
X0066500Y0084775D01*
X0068034Y0084775D02*
X0068034Y0087077D01*
X0066883Y0087077D01*
X0066500Y0086694D01*
X0071353Y0082524D02*
X0071353Y0082140D01*
X0071737Y0081757D01*
X0071353Y0081373D01*
X0071353Y0080989D01*
X0071737Y0080606D01*
X0072504Y0080606D01*
X0072888Y0080989D01*
X0073655Y0080989D02*
X0074039Y0080606D01*
X0074806Y0080606D01*
X0075190Y0080989D01*
X0073655Y0082524D01*
X0073655Y0080989D01*
X0075190Y0080989D02*
X0075190Y0082524D01*
X0074806Y0082908D01*
X0074039Y0082908D01*
X0073655Y0082524D01*
X0072888Y0082524D02*
X0072504Y0082908D01*
X0071737Y0082908D01*
X0071353Y0082524D01*
X0071737Y0081757D02*
X0072121Y0081757D01*
X0075957Y0080606D02*
X0077492Y0080606D01*
X0078259Y0080606D02*
X0079026Y0081373D01*
X0078643Y0081373D02*
X0079794Y0081373D01*
X0079794Y0080606D02*
X0079794Y0082908D01*
X0078643Y0082908D01*
X0078259Y0082524D01*
X0078259Y0081757D01*
X0078643Y0081373D01*
X0077492Y0082140D02*
X0076724Y0082908D01*
X0076724Y0080606D01*
X0082549Y0083274D02*
X0082932Y0082891D01*
X0083700Y0082891D01*
X0084083Y0083274D01*
X0084851Y0083274D02*
X0084851Y0083658D01*
X0085234Y0084042D01*
X0086385Y0084042D01*
X0086385Y0083274D01*
X0086002Y0082891D01*
X0085234Y0082891D01*
X0084851Y0083274D01*
X0085618Y0084809D02*
X0086385Y0084042D01*
X0085618Y0084809D02*
X0084851Y0085193D01*
X0084083Y0084809D02*
X0083700Y0085193D01*
X0082932Y0085193D01*
X0082549Y0084809D01*
X0082549Y0084425D01*
X0082932Y0084042D01*
X0082549Y0083658D01*
X0082549Y0083274D01*
X0082932Y0084042D02*
X0083316Y0084042D01*
X0087153Y0084809D02*
X0087536Y0085193D01*
X0088304Y0085193D01*
X0088687Y0084809D01*
X0088687Y0083274D01*
X0088304Y0082891D01*
X0087536Y0082891D01*
X0087153Y0083274D01*
X0073282Y0069341D02*
X0072131Y0069341D01*
X0071747Y0068957D01*
X0071747Y0067423D01*
X0072131Y0067039D01*
X0073282Y0067039D01*
X0073282Y0069341D01*
X0070980Y0068190D02*
X0069445Y0068190D01*
X0069829Y0069341D02*
X0070980Y0068190D01*
X0069829Y0067039D02*
X0069829Y0069341D01*
X0069847Y0062675D02*
X0070615Y0062675D01*
X0070998Y0062291D01*
X0071766Y0062675D02*
X0072533Y0062291D01*
X0073300Y0061524D01*
X0072149Y0061524D01*
X0071766Y0061140D01*
X0071766Y0060757D01*
X0072149Y0060373D01*
X0072917Y0060373D01*
X0073300Y0060757D01*
X0073300Y0061524D01*
X0074068Y0061524D02*
X0074451Y0061140D01*
X0075602Y0061140D01*
X0074835Y0061140D02*
X0074068Y0060373D01*
X0074068Y0061524D02*
X0074068Y0062291D01*
X0074451Y0062675D01*
X0075602Y0062675D01*
X0075602Y0060373D01*
X0073616Y0057892D02*
X0072465Y0057892D01*
X0072081Y0057509D01*
X0072081Y0056741D01*
X0072465Y0056358D01*
X0073616Y0056358D01*
X0072849Y0056358D02*
X0072081Y0055590D01*
X0072525Y0055973D02*
X0072525Y0053671D01*
X0073292Y0053671D02*
X0071758Y0053671D01*
X0070990Y0053671D02*
X0069456Y0055205D01*
X0069456Y0055589D01*
X0069839Y0055973D01*
X0070607Y0055973D01*
X0070990Y0055589D01*
X0070930Y0055590D02*
X0071314Y0055974D01*
X0071314Y0056358D01*
X0070930Y0056741D01*
X0070163Y0056741D01*
X0069779Y0056358D01*
X0069779Y0055974D01*
X0070163Y0055590D01*
X0070930Y0055590D01*
X0070930Y0056741D02*
X0071314Y0057125D01*
X0071314Y0057509D01*
X0070930Y0057892D01*
X0070163Y0057892D01*
X0069779Y0057509D01*
X0069779Y0057125D01*
X0070163Y0056741D01*
X0072525Y0055973D02*
X0073292Y0055205D01*
X0073616Y0055590D02*
X0073616Y0057892D01*
X0074443Y0055973D02*
X0075211Y0055973D01*
X0075594Y0055589D01*
X0075594Y0054054D01*
X0075211Y0053671D01*
X0074443Y0053671D01*
X0074060Y0054054D01*
X0074060Y0055589D02*
X0074443Y0055973D01*
X0070990Y0053671D02*
X0069456Y0053671D01*
X0069464Y0060373D02*
X0070998Y0060373D01*
X0069464Y0061908D01*
X0069464Y0062291D01*
X0069847Y0062675D01*
X0076022Y0046094D02*
X0075638Y0045711D01*
X0075638Y0044943D01*
X0076022Y0044560D01*
X0076789Y0044943D02*
X0076789Y0046094D01*
X0076022Y0046094D02*
X0077557Y0046094D01*
X0077940Y0045711D01*
X0077940Y0044943D01*
X0077557Y0044560D01*
X0077173Y0044560D01*
X0076789Y0044943D01*
X0076789Y0043792D02*
X0076406Y0043409D01*
X0076406Y0042258D01*
X0076406Y0043025D02*
X0075638Y0043792D01*
X0076789Y0043792D02*
X0077557Y0043792D01*
X0077940Y0043409D01*
X0077940Y0042258D01*
X0075638Y0042258D01*
X0075555Y0039362D02*
X0075555Y0037828D01*
X0075555Y0038595D02*
X0077857Y0038595D01*
X0077089Y0037828D01*
X0075555Y0037060D02*
X0075555Y0035526D01*
X0075555Y0036293D02*
X0077857Y0036293D01*
X0077089Y0035526D01*
X0076706Y0034758D02*
X0076322Y0034375D01*
X0076322Y0033224D01*
X0076322Y0033991D02*
X0075555Y0034758D01*
X0076706Y0034758D02*
X0077473Y0034758D01*
X0077857Y0034375D01*
X0077857Y0033224D01*
X0075555Y0033224D01*
X0069360Y0027533D02*
X0068976Y0027917D01*
X0068592Y0027917D01*
X0068209Y0027533D01*
X0067825Y0027917D01*
X0067441Y0027917D01*
X0067058Y0027533D01*
X0067058Y0026766D01*
X0067441Y0026382D01*
X0067058Y0025615D02*
X0067058Y0024080D01*
X0067058Y0023313D02*
X0067825Y0022545D01*
X0067825Y0022929D02*
X0067825Y0021778D01*
X0067058Y0021778D02*
X0069360Y0021778D01*
X0069360Y0022929D01*
X0068976Y0023313D01*
X0068209Y0023313D01*
X0067825Y0022929D01*
X0068592Y0024080D02*
X0069360Y0024847D01*
X0067058Y0024847D01*
X0068976Y0026382D02*
X0069360Y0026766D01*
X0069360Y0027533D01*
X0068209Y0027533D02*
X0068209Y0027149D01*
X0068240Y0018944D02*
X0067473Y0018944D01*
X0067089Y0018560D01*
X0067089Y0017793D01*
X0067473Y0017409D01*
X0068240Y0017409D02*
X0068624Y0018177D01*
X0068624Y0018560D01*
X0068240Y0018944D01*
X0069391Y0018944D02*
X0069391Y0017409D01*
X0068240Y0017409D01*
X0067089Y0016642D02*
X0067089Y0015107D01*
X0067089Y0014340D02*
X0067856Y0013573D01*
X0067856Y0013956D02*
X0067856Y0012805D01*
X0067089Y0012805D02*
X0069391Y0012805D01*
X0069391Y0013956D01*
X0069007Y0014340D01*
X0068240Y0014340D01*
X0067856Y0013956D01*
X0068624Y0015107D02*
X0069391Y0015875D01*
X0067089Y0015875D01*
X0042467Y0074571D02*
X0041316Y0074571D01*
X0040933Y0074954D01*
X0040933Y0076489D01*
X0041316Y0076873D01*
X0042467Y0076873D01*
X0042467Y0074571D01*
X0040165Y0074954D02*
X0039782Y0074571D01*
X0039014Y0074571D01*
X0038631Y0074954D01*
X0038631Y0075338D01*
X0039014Y0075722D01*
X0039398Y0075722D01*
X0039014Y0075722D02*
X0038631Y0076105D01*
X0038631Y0076489D01*
X0039014Y0076873D01*
X0039782Y0076873D01*
X0040165Y0076489D01*
X0037864Y0076489D02*
X0037480Y0076873D01*
X0036713Y0076873D01*
X0036329Y0076489D01*
X0037864Y0074954D01*
X0037480Y0074571D01*
X0036713Y0074571D01*
X0036329Y0074954D01*
X0036329Y0076489D01*
X0037864Y0076489D02*
X0037864Y0074954D01*
X0038448Y0090513D02*
X0039215Y0090513D01*
X0039599Y0090897D01*
X0040366Y0090897D02*
X0040750Y0090513D01*
X0041517Y0090513D01*
X0041901Y0090897D01*
X0041901Y0092432D01*
X0041517Y0092815D01*
X0040750Y0092815D01*
X0040366Y0092432D01*
X0039599Y0092815D02*
X0039599Y0091664D01*
X0038831Y0092048D01*
X0038448Y0092048D01*
X0038064Y0091664D01*
X0038064Y0090897D01*
X0038448Y0090513D01*
X0037297Y0090897D02*
X0036913Y0090513D01*
X0036146Y0090513D01*
X0035762Y0090897D01*
X0035762Y0091281D01*
X0036146Y0091664D01*
X0037297Y0091664D01*
X0037297Y0090897D01*
X0037297Y0091664D02*
X0036529Y0092432D01*
X0035762Y0092815D01*
X0038064Y0092815D02*
X0039599Y0092815D01*
X0038684Y0096657D02*
X0038684Y0097808D01*
X0039067Y0098192D01*
X0040602Y0098192D01*
X0040986Y0097808D01*
X0040986Y0096657D01*
X0038684Y0096657D01*
X0038684Y0098959D02*
X0040218Y0100494D01*
X0040602Y0100494D01*
X0040986Y0100110D01*
X0040986Y0099343D01*
X0040602Y0098959D01*
X0040719Y0098902D02*
X0040719Y0099670D01*
X0041102Y0100053D01*
X0041102Y0100821D02*
X0040719Y0101204D01*
X0040719Y0101972D01*
X0041102Y0102355D01*
X0041486Y0102355D01*
X0041870Y0101972D01*
X0041870Y0100821D01*
X0041102Y0100821D01*
X0040986Y0101261D02*
X0040986Y0102796D01*
X0040602Y0102796D01*
X0039067Y0101261D01*
X0038684Y0101261D01*
X0038684Y0100494D02*
X0038684Y0098959D01*
X0040719Y0098902D02*
X0041102Y0098519D01*
X0042637Y0098519D01*
X0043021Y0098902D01*
X0043021Y0099670D01*
X0042637Y0100053D01*
X0041870Y0100821D02*
X0042637Y0101588D01*
X0043021Y0102355D01*
X0043021Y0103123D02*
X0043021Y0104657D01*
X0042637Y0104657D01*
X0041102Y0103123D01*
X0040719Y0103123D01*
X0040797Y0118328D02*
X0041565Y0119095D01*
X0041181Y0119095D02*
X0042332Y0119095D01*
X0042332Y0118328D02*
X0042332Y0120630D01*
X0041181Y0120630D01*
X0040797Y0120246D01*
X0040797Y0119479D01*
X0041181Y0119095D01*
X0040030Y0118328D02*
X0038495Y0118328D01*
X0039263Y0118328D02*
X0039263Y0120630D01*
X0040030Y0119863D01*
X0037728Y0120246D02*
X0037345Y0120630D01*
X0036577Y0120630D01*
X0036194Y0120246D01*
X0037728Y0118712D01*
X0037345Y0118328D01*
X0036577Y0118328D01*
X0036194Y0118712D01*
X0036194Y0120246D01*
X0035426Y0119479D02*
X0034659Y0120246D01*
X0033892Y0120630D01*
X0034275Y0119479D02*
X0033892Y0119095D01*
X0033892Y0118712D01*
X0034275Y0118328D01*
X0035043Y0118328D01*
X0035426Y0118712D01*
X0035426Y0119479D01*
X0034275Y0119479D01*
X0037728Y0118712D02*
X0037728Y0120246D01*
X0037903Y0123496D02*
X0039438Y0123496D01*
X0038671Y0123496D02*
X0038671Y0125798D01*
X0039438Y0125031D01*
X0040205Y0125414D02*
X0040205Y0124647D01*
X0040589Y0124263D01*
X0041740Y0124263D01*
X0041740Y0123496D02*
X0041740Y0125798D01*
X0040589Y0125798D01*
X0040205Y0125414D01*
X0040002Y0126393D02*
X0039618Y0126777D01*
X0040002Y0126393D02*
X0040769Y0126393D01*
X0041153Y0126777D01*
X0041153Y0128311D01*
X0040769Y0128695D01*
X0040002Y0128695D01*
X0039618Y0128311D01*
X0038851Y0127544D02*
X0037700Y0127544D01*
X0037316Y0127160D01*
X0037316Y0126777D01*
X0037700Y0126393D01*
X0038467Y0126393D01*
X0038851Y0126777D01*
X0038851Y0127544D01*
X0038084Y0128311D01*
X0037316Y0128695D01*
X0036549Y0127544D02*
X0035014Y0127544D01*
X0035398Y0126393D02*
X0035398Y0128695D01*
X0036549Y0127544D01*
X0036753Y0125798D02*
X0035985Y0125798D01*
X0035602Y0125414D01*
X0037136Y0123880D01*
X0036753Y0123496D01*
X0035985Y0123496D01*
X0035602Y0123880D01*
X0035602Y0125414D01*
X0034834Y0125798D02*
X0033300Y0125798D01*
X0033300Y0125414D01*
X0034834Y0123880D01*
X0034834Y0123496D01*
X0037136Y0123880D02*
X0037136Y0125414D01*
X0036753Y0125798D01*
X0040205Y0123496D02*
X0040973Y0124263D01*
X0046106Y0129638D02*
X0046106Y0130405D01*
X0046490Y0130788D01*
X0048408Y0130788D01*
X0047641Y0131556D02*
X0048408Y0132323D01*
X0046106Y0132323D01*
X0046106Y0131556D02*
X0046106Y0133090D01*
X0046490Y0133858D02*
X0048024Y0135392D01*
X0046490Y0135392D01*
X0046106Y0135009D01*
X0046106Y0134241D01*
X0046490Y0133858D01*
X0048024Y0133858D01*
X0048408Y0134241D01*
X0048408Y0135009D01*
X0048024Y0135392D01*
X0049120Y0139665D02*
X0048736Y0140049D01*
X0048736Y0140816D01*
X0049120Y0141200D01*
X0049120Y0141967D02*
X0048736Y0142351D01*
X0048736Y0143118D01*
X0049120Y0143502D01*
X0049503Y0143502D01*
X0049887Y0143118D01*
X0049887Y0141967D01*
X0049120Y0141967D01*
X0049887Y0141967D02*
X0050654Y0142735D01*
X0051038Y0143502D01*
X0050654Y0144269D02*
X0051038Y0144653D01*
X0051038Y0145420D01*
X0050654Y0145804D01*
X0050271Y0145804D01*
X0048736Y0144269D01*
X0048736Y0145804D01*
X0050654Y0141200D02*
X0051038Y0140816D01*
X0051038Y0140049D01*
X0050654Y0139665D01*
X0049120Y0139665D01*
X0048408Y0129254D02*
X0046490Y0129254D01*
X0046106Y0129638D01*
X0036878Y0139866D02*
X0034576Y0139866D01*
X0034576Y0141017D01*
X0034959Y0141401D01*
X0036494Y0141401D01*
X0036878Y0141017D01*
X0036878Y0139866D01*
X0036494Y0142168D02*
X0036878Y0142552D01*
X0036878Y0143319D01*
X0036494Y0143703D01*
X0036110Y0143703D01*
X0034576Y0142168D01*
X0034576Y0143703D01*
X0034959Y0144470D02*
X0035343Y0144470D01*
X0035727Y0144854D01*
X0035727Y0145621D01*
X0035343Y0146005D01*
X0034959Y0146005D01*
X0034576Y0145621D01*
X0034576Y0144854D01*
X0034959Y0144470D01*
X0035727Y0144854D02*
X0036110Y0144470D01*
X0036494Y0144470D01*
X0036878Y0144854D01*
X0036878Y0145621D01*
X0036494Y0146005D01*
X0036110Y0146005D01*
X0035727Y0145621D01*
X0042210Y0161547D02*
X0043361Y0161547D01*
X0044128Y0162314D01*
X0044512Y0162314D01*
X0043745Y0163081D02*
X0044512Y0163849D01*
X0042210Y0163849D01*
X0042210Y0164616D02*
X0042210Y0163081D01*
X0043361Y0161547D02*
X0044128Y0160780D01*
X0044512Y0160780D01*
X0052274Y0160673D02*
X0054576Y0160673D01*
X0053809Y0159905D01*
X0054193Y0159138D02*
X0053425Y0159138D01*
X0053042Y0158754D01*
X0053042Y0157603D01*
X0053042Y0158371D02*
X0052274Y0159138D01*
X0052274Y0159905D02*
X0052274Y0161440D01*
X0052274Y0162207D02*
X0052274Y0163742D01*
X0052274Y0162975D02*
X0054576Y0162975D01*
X0053809Y0162207D01*
X0054193Y0164509D02*
X0054576Y0164893D01*
X0054576Y0165660D01*
X0054193Y0166044D01*
X0052658Y0164509D01*
X0052274Y0164893D01*
X0052274Y0165660D01*
X0052658Y0166044D01*
X0054193Y0166044D01*
X0054193Y0164509D02*
X0052658Y0164509D01*
X0054193Y0159138D02*
X0054576Y0158754D01*
X0054576Y0157603D01*
X0052274Y0157603D01*
X0051324Y0178335D02*
X0049789Y0178335D01*
X0049406Y0178719D01*
X0049406Y0179486D01*
X0049789Y0179870D01*
X0049789Y0180637D02*
X0049406Y0180637D01*
X0049789Y0180637D02*
X0051324Y0182172D01*
X0051708Y0182172D01*
X0051708Y0180637D01*
X0051324Y0179870D02*
X0051708Y0179486D01*
X0051708Y0178719D01*
X0051324Y0178335D01*
X0051324Y0182939D02*
X0051708Y0183323D01*
X0051708Y0184090D01*
X0051324Y0184474D01*
X0049789Y0182939D01*
X0049406Y0183323D01*
X0049406Y0184090D01*
X0049789Y0184474D01*
X0051324Y0184474D01*
X0051324Y0182939D02*
X0049789Y0182939D01*
X0058057Y0183131D02*
X0058057Y0182363D01*
X0058441Y0181980D01*
X0059208Y0181980D02*
X0059592Y0182747D01*
X0059592Y0183131D01*
X0059208Y0183514D01*
X0058441Y0183514D01*
X0058057Y0183131D01*
X0058441Y0184282D02*
X0058057Y0184665D01*
X0058057Y0185433D01*
X0058441Y0185816D01*
X0059975Y0185816D01*
X0060359Y0185433D01*
X0060359Y0184665D01*
X0059975Y0184282D01*
X0059592Y0184282D01*
X0059208Y0184665D01*
X0059208Y0185816D01*
X0060359Y0183514D02*
X0060359Y0181980D01*
X0059208Y0181980D01*
X0058441Y0181212D02*
X0058057Y0180829D01*
X0058057Y0180061D01*
X0058441Y0179678D01*
X0059975Y0179678D01*
X0060359Y0180061D01*
X0060359Y0180829D01*
X0059975Y0181212D01*
X0065550Y0180879D02*
X0065550Y0182030D01*
X0065934Y0182414D01*
X0066318Y0182414D01*
X0066701Y0182030D01*
X0066701Y0180879D01*
X0065550Y0180879D02*
X0067852Y0180879D01*
X0067852Y0182030D01*
X0067469Y0182414D01*
X0067085Y0182414D01*
X0066701Y0182030D01*
X0067469Y0183181D02*
X0067852Y0183565D01*
X0067852Y0184332D01*
X0067469Y0184716D01*
X0067085Y0184716D01*
X0065550Y0183181D01*
X0065550Y0184716D01*
X0067852Y0180112D02*
X0067852Y0178577D01*
X0065550Y0178577D01*
X0066701Y0178577D02*
X0066701Y0179344D01*
X0074812Y0180342D02*
X0074812Y0181493D01*
X0075195Y0181877D01*
X0075579Y0181877D01*
X0075963Y0181493D01*
X0075963Y0180342D01*
X0074812Y0180342D02*
X0077114Y0180342D01*
X0077114Y0181493D01*
X0076730Y0181877D01*
X0076346Y0181877D01*
X0075963Y0181493D01*
X0076346Y0182644D02*
X0077114Y0183411D01*
X0074812Y0183411D01*
X0074812Y0182644D02*
X0074812Y0184178D01*
X0077114Y0179575D02*
X0077114Y0178040D01*
X0074812Y0178040D01*
X0075963Y0178040D02*
X0075963Y0178807D01*
X0083578Y0180124D02*
X0083578Y0180892D01*
X0083961Y0181275D01*
X0083961Y0182043D02*
X0083578Y0182426D01*
X0083578Y0183194D01*
X0083961Y0183577D01*
X0084729Y0183577D01*
X0085112Y0183194D01*
X0085112Y0182810D01*
X0084729Y0182043D01*
X0085880Y0182043D01*
X0085880Y0183577D01*
X0085496Y0184345D02*
X0085112Y0184345D01*
X0084729Y0184728D01*
X0084729Y0185496D01*
X0084345Y0185879D01*
X0083961Y0185879D01*
X0083578Y0185496D01*
X0083578Y0184728D01*
X0083961Y0184345D01*
X0084345Y0184345D01*
X0084729Y0184728D01*
X0084729Y0185496D02*
X0085112Y0185879D01*
X0085496Y0185879D01*
X0085880Y0185496D01*
X0085880Y0184728D01*
X0085496Y0184345D01*
X0085496Y0181275D02*
X0085880Y0180892D01*
X0085880Y0180124D01*
X0085496Y0179741D01*
X0083961Y0179741D01*
X0083578Y0180124D01*
X0085649Y0172577D02*
X0087183Y0172577D01*
X0087567Y0172193D01*
X0087567Y0171426D01*
X0087183Y0171042D01*
X0086800Y0171042D01*
X0086416Y0171426D01*
X0086416Y0172577D01*
X0085649Y0172577D02*
X0085265Y0172193D01*
X0085265Y0171426D01*
X0085649Y0171042D01*
X0085649Y0170275D02*
X0085265Y0169891D01*
X0085265Y0169124D01*
X0085649Y0168740D01*
X0087183Y0170275D01*
X0085649Y0170275D01*
X0087183Y0170275D02*
X0087567Y0169891D01*
X0087567Y0169124D01*
X0087183Y0168740D01*
X0085649Y0168740D01*
X0085265Y0167973D02*
X0085265Y0166439D01*
X0085265Y0167206D02*
X0087567Y0167206D01*
X0086800Y0166439D01*
X0087183Y0165671D02*
X0086416Y0165671D01*
X0086032Y0165288D01*
X0086032Y0164137D01*
X0086032Y0164904D02*
X0085265Y0165671D01*
X0085265Y0164137D02*
X0087567Y0164137D01*
X0087567Y0165288D01*
X0087183Y0165671D01*
X0081886Y0164889D02*
X0079584Y0164889D01*
X0079584Y0164122D02*
X0079584Y0165657D01*
X0081118Y0164122D02*
X0081886Y0164889D01*
X0081886Y0163355D02*
X0081502Y0162587D01*
X0080735Y0161820D01*
X0080735Y0162971D01*
X0080351Y0163355D01*
X0079967Y0163355D01*
X0079584Y0162971D01*
X0079584Y0162204D01*
X0079967Y0161820D01*
X0080735Y0161820D01*
X0081502Y0161053D02*
X0081886Y0160669D01*
X0081886Y0159902D01*
X0081502Y0159518D01*
X0079967Y0159518D01*
X0079584Y0159902D01*
X0079584Y0160669D01*
X0079967Y0161053D01*
X0092090Y0177800D02*
X0091706Y0178183D01*
X0091706Y0178951D01*
X0092090Y0179334D01*
X0092090Y0180102D02*
X0091706Y0180485D01*
X0091706Y0181253D01*
X0092090Y0181636D01*
X0092474Y0181636D01*
X0092857Y0181253D01*
X0092857Y0180102D01*
X0092090Y0180102D01*
X0092857Y0180102D02*
X0093625Y0180869D01*
X0094008Y0181636D01*
X0093625Y0182404D02*
X0093241Y0182404D01*
X0092857Y0182787D01*
X0092857Y0183938D01*
X0092090Y0183938D02*
X0093625Y0183938D01*
X0094008Y0183555D01*
X0094008Y0182787D01*
X0093625Y0182404D01*
X0092090Y0182404D02*
X0091706Y0182787D01*
X0091706Y0183555D01*
X0092090Y0183938D01*
X0093625Y0179334D02*
X0094008Y0178951D01*
X0094008Y0178183D01*
X0093625Y0177800D01*
X0092090Y0177800D01*
X0076797Y0192409D02*
X0076797Y0212409D01*
X0081672Y0224435D02*
X0082439Y0224435D01*
X0082823Y0224819D01*
X0082823Y0225202D01*
X0082439Y0225586D01*
X0081672Y0225586D01*
X0081288Y0225202D01*
X0081288Y0224819D01*
X0081672Y0224435D01*
X0081672Y0225586D02*
X0081288Y0225970D01*
X0081288Y0226353D01*
X0081672Y0226737D01*
X0082439Y0226737D01*
X0082823Y0226353D01*
X0082823Y0225970D01*
X0082439Y0225586D01*
X0083590Y0224819D02*
X0083974Y0224435D01*
X0084741Y0224435D01*
X0085125Y0224819D01*
X0083590Y0226353D01*
X0083590Y0224819D01*
X0083590Y0226353D02*
X0083974Y0226737D01*
X0084741Y0226737D01*
X0085125Y0226353D01*
X0085125Y0224819D01*
X0085892Y0224435D02*
X0087427Y0224435D01*
X0088194Y0224435D02*
X0088961Y0225202D01*
X0088578Y0225202D02*
X0089729Y0225202D01*
X0089729Y0224435D02*
X0089729Y0226737D01*
X0088578Y0226737D01*
X0088194Y0226353D01*
X0088194Y0225586D01*
X0088578Y0225202D01*
X0087427Y0225970D02*
X0086659Y0226737D01*
X0086659Y0224435D01*
X0086666Y0231544D02*
X0086666Y0233846D01*
X0087433Y0233079D01*
X0088200Y0233462D02*
X0088200Y0232695D01*
X0088584Y0232311D01*
X0089735Y0232311D01*
X0089735Y0231544D02*
X0089735Y0233846D01*
X0088584Y0233846D01*
X0088200Y0233462D01*
X0088968Y0232311D02*
X0088200Y0231544D01*
X0087433Y0231544D02*
X0085898Y0231544D01*
X0085131Y0231544D02*
X0083596Y0231544D01*
X0084364Y0231544D02*
X0084364Y0233846D01*
X0085131Y0233079D01*
X0082829Y0233462D02*
X0082445Y0233846D01*
X0081678Y0233846D01*
X0081294Y0233462D01*
X0081294Y0233079D01*
X0081678Y0232695D01*
X0081294Y0232311D01*
X0081294Y0231928D01*
X0081678Y0231544D01*
X0082445Y0231544D01*
X0082829Y0231928D01*
X0082062Y0232695D02*
X0081678Y0232695D01*
X0107910Y0228378D02*
X0108294Y0228761D01*
X0109061Y0228761D01*
X0109445Y0228378D01*
X0107910Y0228378D02*
X0107910Y0227994D01*
X0109445Y0226459D01*
X0107910Y0226459D01*
X0110212Y0226459D02*
X0111747Y0226459D01*
X0112514Y0226459D02*
X0114049Y0226459D01*
X0114816Y0226459D02*
X0115583Y0227227D01*
X0115200Y0227227D02*
X0116351Y0227227D01*
X0116351Y0226459D02*
X0116351Y0228761D01*
X0115200Y0228761D01*
X0114816Y0228378D01*
X0114816Y0227610D01*
X0115200Y0227227D01*
X0114049Y0227994D02*
X0113281Y0228761D01*
X0113281Y0226459D01*
X0111747Y0227994D02*
X0110979Y0228761D01*
X0110979Y0226459D01*
X0110948Y0220600D02*
X0110948Y0218298D01*
X0111715Y0218298D02*
X0110180Y0218298D01*
X0109413Y0218298D02*
X0107878Y0218298D01*
X0108646Y0218298D02*
X0108646Y0220600D01*
X0109413Y0219833D01*
X0110948Y0220600D02*
X0111715Y0219833D01*
X0113250Y0220600D02*
X0113250Y0218298D01*
X0114017Y0218298D02*
X0112482Y0218298D01*
X0114017Y0219833D02*
X0113250Y0220600D01*
X0114784Y0220216D02*
X0114784Y0219449D01*
X0115168Y0219065D01*
X0116319Y0219065D01*
X0116319Y0218298D02*
X0116319Y0220600D01*
X0115168Y0220600D01*
X0114784Y0220216D01*
X0115552Y0219065D02*
X0114784Y0218298D01*
X0117652Y0217087D02*
X0117652Y0215552D01*
X0117652Y0214785D02*
X0117652Y0213250D01*
X0117652Y0214018D02*
X0119954Y0214018D01*
X0119187Y0213250D01*
X0119571Y0212483D02*
X0119954Y0212099D01*
X0119954Y0210948D01*
X0117652Y0210948D01*
X0117652Y0212099D01*
X0118036Y0212483D01*
X0119571Y0212483D01*
X0119187Y0215552D02*
X0119954Y0216320D01*
X0117652Y0216320D01*
X0123697Y0217067D02*
X0123697Y0215532D01*
X0125232Y0217067D01*
X0125615Y0217067D01*
X0125999Y0216683D01*
X0125999Y0215916D01*
X0125615Y0215532D01*
X0125615Y0214765D02*
X0124081Y0213230D01*
X0123697Y0213230D01*
X0123697Y0212463D02*
X0124464Y0211696D01*
X0124464Y0212079D02*
X0124464Y0210929D01*
X0123697Y0210929D02*
X0125999Y0210929D01*
X0125999Y0212079D01*
X0125615Y0212463D01*
X0124848Y0212463D01*
X0124464Y0212079D01*
X0125999Y0213230D02*
X0125999Y0214765D01*
X0125615Y0214765D01*
X0129788Y0214361D02*
X0129788Y0213594D01*
X0130172Y0213210D01*
X0130172Y0212443D02*
X0129788Y0212059D01*
X0129788Y0211292D01*
X0130172Y0210908D01*
X0131707Y0210908D01*
X0132090Y0211292D01*
X0132090Y0212059D01*
X0131707Y0212443D01*
X0131707Y0213210D02*
X0132090Y0213594D01*
X0132090Y0214361D01*
X0131707Y0214745D01*
X0131323Y0214745D01*
X0130939Y0214361D01*
X0130556Y0214745D01*
X0130172Y0214745D01*
X0129788Y0214361D01*
X0130939Y0214361D02*
X0130939Y0213978D01*
X0130556Y0215512D02*
X0130939Y0215896D01*
X0130939Y0216663D01*
X0130556Y0217047D01*
X0130172Y0217047D01*
X0129788Y0216663D01*
X0129788Y0215896D01*
X0130172Y0215512D01*
X0130556Y0215512D01*
X0130939Y0215896D02*
X0131323Y0215512D01*
X0131707Y0215512D01*
X0132090Y0215896D01*
X0132090Y0216663D01*
X0131707Y0217047D01*
X0131323Y0217047D01*
X0130939Y0216663D01*
X0135791Y0222603D02*
X0138093Y0222603D01*
X0138093Y0223754D01*
X0137710Y0224138D01*
X0136942Y0224138D01*
X0136559Y0223754D01*
X0136559Y0222603D01*
X0136559Y0223371D02*
X0135791Y0224138D01*
X0135791Y0224905D02*
X0135791Y0226440D01*
X0135791Y0225673D02*
X0138093Y0225673D01*
X0137326Y0224905D01*
X0137310Y0224936D02*
X0137310Y0225704D01*
X0137694Y0226087D01*
X0137310Y0226855D02*
X0138845Y0228389D01*
X0139228Y0228389D01*
X0139612Y0228006D01*
X0139612Y0227238D01*
X0139228Y0226855D01*
X0139228Y0226087D02*
X0139612Y0225704D01*
X0139612Y0224936D01*
X0139228Y0224553D01*
X0137694Y0224553D01*
X0137310Y0224936D01*
X0137310Y0226855D02*
X0137310Y0228389D01*
X0136942Y0228358D02*
X0136942Y0227207D01*
X0136175Y0227207D01*
X0135791Y0227591D01*
X0135791Y0228358D01*
X0136175Y0228742D01*
X0136559Y0228742D01*
X0136942Y0228358D01*
X0137710Y0227975D02*
X0136942Y0227207D01*
X0137710Y0227975D02*
X0138093Y0228742D01*
X0137694Y0229157D02*
X0137310Y0229540D01*
X0137310Y0230308D01*
X0137694Y0230691D01*
X0139228Y0230691D01*
X0139612Y0230308D01*
X0139612Y0229540D01*
X0139228Y0229157D01*
X0138845Y0229157D01*
X0138461Y0229540D01*
X0138461Y0230691D01*
X0133527Y0230310D02*
X0133527Y0229543D01*
X0133144Y0229159D01*
X0133527Y0228392D02*
X0133144Y0227624D01*
X0132376Y0226857D01*
X0132376Y0228008D01*
X0131993Y0228392D01*
X0131609Y0228392D01*
X0131225Y0228008D01*
X0131225Y0227241D01*
X0131609Y0226857D01*
X0132376Y0226857D01*
X0132376Y0226090D02*
X0131993Y0225706D01*
X0131993Y0224555D01*
X0131993Y0225323D02*
X0131225Y0226090D01*
X0132376Y0226090D02*
X0133144Y0226090D01*
X0133527Y0225706D01*
X0133527Y0224555D01*
X0131225Y0224555D01*
X0131609Y0229159D02*
X0131225Y0229543D01*
X0131225Y0230310D01*
X0131609Y0230694D01*
X0131993Y0230694D01*
X0132376Y0230310D01*
X0132376Y0229926D01*
X0132376Y0230310D02*
X0132760Y0230694D01*
X0133144Y0230694D01*
X0133527Y0230310D01*
X0127453Y0230315D02*
X0127453Y0229547D01*
X0127069Y0229164D01*
X0125534Y0229164D01*
X0127069Y0230698D01*
X0125534Y0230698D01*
X0125151Y0230315D01*
X0125151Y0229547D01*
X0125534Y0229164D01*
X0125151Y0228396D02*
X0125151Y0226862D01*
X0125151Y0227629D02*
X0127453Y0227629D01*
X0126685Y0226862D01*
X0127069Y0226094D02*
X0127453Y0225711D01*
X0127453Y0224560D01*
X0125151Y0224560D01*
X0125151Y0225711D01*
X0125534Y0226094D01*
X0127069Y0226094D01*
X0127453Y0230315D02*
X0127069Y0230698D01*
X0141840Y0216628D02*
X0141840Y0215861D01*
X0142223Y0215477D01*
X0141840Y0214710D02*
X0141840Y0213175D01*
X0141840Y0212408D02*
X0142607Y0211641D01*
X0142607Y0212024D02*
X0142607Y0210873D01*
X0141840Y0210873D02*
X0144142Y0210873D01*
X0144142Y0212024D01*
X0143758Y0212408D01*
X0142991Y0212408D01*
X0142607Y0212024D01*
X0143374Y0213175D02*
X0144142Y0213943D01*
X0141840Y0213943D01*
X0143374Y0215477D02*
X0142991Y0215861D01*
X0142991Y0217012D01*
X0143758Y0217012D02*
X0144142Y0216628D01*
X0144142Y0215861D01*
X0143758Y0215477D01*
X0143374Y0215477D01*
X0144265Y0215845D02*
X0146567Y0215845D01*
X0145799Y0215078D01*
X0145416Y0214310D02*
X0145032Y0213927D01*
X0145032Y0212776D01*
X0145032Y0213543D02*
X0144265Y0214310D01*
X0144265Y0215078D02*
X0144265Y0216612D01*
X0143758Y0217012D02*
X0142223Y0217012D01*
X0141840Y0216628D01*
X0144265Y0217763D02*
X0144648Y0217380D01*
X0145032Y0217380D01*
X0145416Y0217763D01*
X0145416Y0218531D01*
X0145032Y0218914D01*
X0144648Y0218914D01*
X0144265Y0218531D01*
X0144265Y0217763D01*
X0145416Y0217763D02*
X0145799Y0217380D01*
X0146183Y0217380D01*
X0146567Y0217763D01*
X0146567Y0218531D01*
X0146183Y0218914D01*
X0145799Y0218914D01*
X0145416Y0218531D01*
X0145416Y0214310D02*
X0146183Y0214310D01*
X0146567Y0213927D01*
X0146567Y0212776D01*
X0144265Y0212776D01*
X0144656Y0207638D02*
X0144272Y0207254D01*
X0144272Y0206487D01*
X0144656Y0206103D01*
X0146191Y0207638D01*
X0144656Y0207638D01*
X0146191Y0207638D02*
X0146574Y0207254D01*
X0146574Y0206487D01*
X0146191Y0206103D01*
X0144656Y0206103D01*
X0144272Y0205336D02*
X0144272Y0203801D01*
X0145807Y0205336D01*
X0146191Y0205336D01*
X0146574Y0204952D01*
X0146574Y0204185D01*
X0146191Y0203801D01*
X0146191Y0203034D02*
X0145423Y0203034D01*
X0145040Y0202650D01*
X0145040Y0201499D01*
X0144272Y0201499D02*
X0146574Y0201499D01*
X0146574Y0202650D01*
X0146191Y0203034D01*
X0145040Y0202267D02*
X0144272Y0203034D01*
X0144184Y0203098D02*
X0144184Y0202330D01*
X0143800Y0201947D01*
X0143800Y0201179D02*
X0143033Y0201179D01*
X0142649Y0200796D01*
X0142649Y0199645D01*
X0142649Y0200412D02*
X0141882Y0201179D01*
X0141882Y0201947D02*
X0143416Y0203481D01*
X0143800Y0203481D01*
X0144184Y0203098D01*
X0143416Y0204249D02*
X0144184Y0205016D01*
X0141882Y0205016D01*
X0141882Y0204249D02*
X0141882Y0205783D01*
X0141882Y0203481D02*
X0141882Y0201947D01*
X0143800Y0201179D02*
X0144184Y0200796D01*
X0144184Y0199645D01*
X0141882Y0199645D01*
X0132081Y0199954D02*
X0131697Y0199570D01*
X0130163Y0199570D01*
X0129779Y0199954D01*
X0129779Y0200721D01*
X0130163Y0201105D01*
X0130930Y0201872D02*
X0130930Y0203407D01*
X0130163Y0204174D02*
X0131697Y0205709D01*
X0130163Y0205709D01*
X0129779Y0205325D01*
X0129779Y0204558D01*
X0130163Y0204174D01*
X0131697Y0204174D01*
X0132081Y0204558D01*
X0132081Y0205325D01*
X0131697Y0205709D01*
X0132081Y0203023D02*
X0129779Y0203023D01*
X0130930Y0201872D02*
X0132081Y0203023D01*
X0131697Y0201105D02*
X0132081Y0200721D01*
X0132081Y0199954D01*
X0126032Y0199533D02*
X0126032Y0200684D01*
X0125648Y0201068D01*
X0124881Y0201068D01*
X0124497Y0200684D01*
X0124497Y0199533D01*
X0123730Y0199533D02*
X0126032Y0199533D01*
X0124497Y0200300D02*
X0123730Y0201068D01*
X0123730Y0201835D02*
X0124113Y0201835D01*
X0125648Y0203370D01*
X0126032Y0203370D01*
X0126032Y0201835D01*
X0124881Y0204137D02*
X0124881Y0205672D01*
X0126032Y0205288D02*
X0124881Y0204137D01*
X0123730Y0205288D02*
X0126032Y0205288D01*
X0120121Y0205171D02*
X0120121Y0204403D01*
X0119737Y0204020D01*
X0120121Y0205171D02*
X0119737Y0205554D01*
X0119354Y0205554D01*
X0117819Y0204020D01*
X0117819Y0205554D01*
X0117819Y0203252D02*
X0117819Y0201718D01*
X0117819Y0202485D02*
X0120121Y0202485D01*
X0119354Y0201718D01*
X0119737Y0200951D02*
X0120121Y0200567D01*
X0120121Y0199416D01*
X0117819Y0199416D01*
X0117819Y0200567D01*
X0118203Y0200951D01*
X0119737Y0200951D01*
X0109095Y0202484D02*
X0108712Y0202100D01*
X0107177Y0202100D01*
X0106793Y0202484D01*
X0106793Y0203251D01*
X0107177Y0203635D01*
X0107177Y0204402D02*
X0106793Y0204786D01*
X0106793Y0205553D01*
X0107177Y0205937D01*
X0107561Y0205937D01*
X0107944Y0205553D01*
X0107944Y0204402D01*
X0107177Y0204402D01*
X0107944Y0204402D02*
X0108712Y0205169D01*
X0109095Y0205937D01*
X0108712Y0206704D02*
X0108328Y0206704D01*
X0107944Y0207088D01*
X0107944Y0207855D01*
X0107561Y0208238D01*
X0107177Y0208238D01*
X0106793Y0207855D01*
X0106793Y0207088D01*
X0107177Y0206704D01*
X0107561Y0206704D01*
X0107944Y0207088D01*
X0107944Y0207855D02*
X0108328Y0208238D01*
X0108712Y0208238D01*
X0109095Y0207855D01*
X0109095Y0207088D01*
X0108712Y0206704D01*
X0108712Y0203635D02*
X0109095Y0203251D01*
X0109095Y0202484D01*
X0150339Y0224511D02*
X0152641Y0224511D01*
X0152641Y0225662D01*
X0152257Y0226045D01*
X0151490Y0226045D01*
X0151107Y0225662D01*
X0151107Y0224511D01*
X0151107Y0225278D02*
X0150339Y0226045D01*
X0150339Y0226813D02*
X0150339Y0228347D01*
X0150339Y0227580D02*
X0152641Y0227580D01*
X0151874Y0226813D01*
X0152641Y0229115D02*
X0152641Y0230649D01*
X0152257Y0230649D01*
X0150723Y0229115D01*
X0150339Y0229115D01*
X0155961Y0221829D02*
X0155577Y0221446D01*
X0155577Y0220678D01*
X0155961Y0220295D01*
X0155961Y0219527D02*
X0155577Y0219144D01*
X0155577Y0218376D01*
X0155961Y0217993D01*
X0155961Y0217225D02*
X0157496Y0217225D01*
X0157879Y0216842D01*
X0157879Y0215691D01*
X0155577Y0215691D01*
X0155577Y0216842D01*
X0155961Y0217225D01*
X0157496Y0217993D02*
X0157879Y0218376D01*
X0157879Y0219144D01*
X0157496Y0219527D01*
X0157112Y0219527D01*
X0156728Y0219144D01*
X0156345Y0219527D01*
X0155961Y0219527D01*
X0156728Y0219144D02*
X0156728Y0218760D01*
X0157496Y0220295D02*
X0157879Y0220678D01*
X0157879Y0221446D01*
X0157496Y0221829D01*
X0157112Y0221829D01*
X0156728Y0221446D01*
X0156345Y0221829D01*
X0155961Y0221829D01*
X0156728Y0221446D02*
X0156728Y0221062D01*
X0161623Y0221441D02*
X0161623Y0220674D01*
X0162006Y0220290D01*
X0162006Y0219523D02*
X0161623Y0219139D01*
X0161623Y0218372D01*
X0162006Y0217988D01*
X0162390Y0217988D01*
X0162774Y0218372D01*
X0162774Y0219139D01*
X0162390Y0219523D01*
X0162006Y0219523D01*
X0162774Y0219139D02*
X0163157Y0219523D01*
X0163541Y0219523D01*
X0163925Y0219139D01*
X0163925Y0218372D01*
X0163541Y0217988D01*
X0163157Y0217988D01*
X0162774Y0218372D01*
X0162774Y0217221D02*
X0162390Y0216837D01*
X0162390Y0215686D01*
X0161623Y0215686D02*
X0163925Y0215686D01*
X0163925Y0216837D01*
X0163541Y0217221D01*
X0162774Y0217221D01*
X0162390Y0216454D02*
X0161623Y0217221D01*
X0163541Y0220290D02*
X0163925Y0220674D01*
X0163925Y0221441D01*
X0163541Y0221825D01*
X0163157Y0221825D01*
X0162774Y0221441D01*
X0162390Y0221825D01*
X0162006Y0221825D01*
X0161623Y0221441D01*
X0162774Y0221441D02*
X0162774Y0221057D01*
X0167779Y0221384D02*
X0168162Y0221768D01*
X0169697Y0221768D01*
X0170080Y0221384D01*
X0170080Y0220617D01*
X0169697Y0220233D01*
X0169313Y0220233D01*
X0168930Y0220617D01*
X0168930Y0221768D01*
X0167779Y0221384D02*
X0167779Y0220617D01*
X0168162Y0220233D01*
X0168930Y0219466D02*
X0168930Y0217931D01*
X0170080Y0219082D01*
X0167779Y0219082D01*
X0168162Y0217164D02*
X0167779Y0216780D01*
X0167779Y0216013D01*
X0168162Y0215629D01*
X0169697Y0215629D01*
X0170080Y0216013D01*
X0170080Y0216780D01*
X0169697Y0217164D01*
X0169744Y0209606D02*
X0168209Y0208072D01*
X0167825Y0208455D01*
X0167825Y0209223D01*
X0168209Y0209606D01*
X0169744Y0209606D01*
X0170127Y0209223D01*
X0170127Y0208455D01*
X0169744Y0208072D01*
X0168209Y0208072D01*
X0168209Y0207304D02*
X0167825Y0206921D01*
X0167825Y0206154D01*
X0168209Y0205770D01*
X0168209Y0205003D02*
X0167825Y0204619D01*
X0167825Y0203852D01*
X0168209Y0203468D01*
X0169744Y0203468D01*
X0170127Y0203852D01*
X0170127Y0204619D01*
X0169744Y0205003D01*
X0169744Y0205770D02*
X0170127Y0206154D01*
X0170127Y0206921D01*
X0169744Y0207304D01*
X0169360Y0207304D01*
X0168976Y0206921D01*
X0168593Y0207304D01*
X0168209Y0207304D01*
X0168976Y0206921D02*
X0168976Y0206537D01*
X0164077Y0207159D02*
X0163694Y0206392D01*
X0162926Y0205625D01*
X0162926Y0206776D01*
X0162543Y0207159D01*
X0162159Y0207159D01*
X0161775Y0206776D01*
X0161775Y0206008D01*
X0162159Y0205625D01*
X0162926Y0205625D01*
X0162926Y0204857D02*
X0162543Y0204474D01*
X0162543Y0203323D01*
X0162543Y0204090D02*
X0161775Y0204857D01*
X0162926Y0204857D02*
X0163694Y0204857D01*
X0164077Y0204474D01*
X0164077Y0203323D01*
X0161775Y0203323D01*
X0158018Y0203217D02*
X0158018Y0204368D01*
X0157634Y0204752D01*
X0156100Y0204752D01*
X0155716Y0204368D01*
X0155716Y0203217D01*
X0158018Y0203217D01*
X0157251Y0205519D02*
X0158018Y0206286D01*
X0155716Y0206286D01*
X0155716Y0205519D02*
X0155716Y0207054D01*
X0156100Y0207821D02*
X0155716Y0208205D01*
X0155716Y0208972D01*
X0156100Y0209356D01*
X0156483Y0209356D01*
X0156867Y0208972D01*
X0156867Y0208588D01*
X0156867Y0208972D02*
X0157251Y0209356D01*
X0157634Y0209356D01*
X0158018Y0208972D01*
X0158018Y0208205D01*
X0157634Y0207821D01*
X0161775Y0209077D02*
X0164077Y0209077D01*
X0162926Y0207927D01*
X0162926Y0209461D01*
X0179343Y0209290D02*
X0179343Y0208523D01*
X0179726Y0208139D01*
X0180493Y0208139D02*
X0180877Y0208906D01*
X0180877Y0209290D01*
X0180493Y0209674D01*
X0179726Y0209674D01*
X0179343Y0209290D01*
X0180493Y0208139D02*
X0181644Y0208139D01*
X0181644Y0209674D01*
X0181873Y0209263D02*
X0181873Y0207728D01*
X0183408Y0209263D01*
X0183791Y0209263D01*
X0184175Y0208879D01*
X0184175Y0208112D01*
X0183791Y0207728D01*
X0183791Y0206961D02*
X0183024Y0206961D01*
X0182640Y0206577D01*
X0182640Y0205426D01*
X0181873Y0205426D02*
X0184175Y0205426D01*
X0184175Y0206577D01*
X0183791Y0206961D01*
X0182640Y0206194D02*
X0181873Y0206961D01*
X0181644Y0206988D02*
X0181644Y0206221D01*
X0181261Y0205837D01*
X0181261Y0205070D02*
X0180493Y0205070D01*
X0180110Y0204686D01*
X0180110Y0203535D01*
X0180110Y0204302D02*
X0179343Y0205070D01*
X0179343Y0205837D02*
X0180877Y0207372D01*
X0181261Y0207372D01*
X0181644Y0206988D01*
X0181261Y0205070D02*
X0181644Y0204686D01*
X0181644Y0203535D01*
X0179343Y0203535D01*
X0179343Y0205837D02*
X0179343Y0207372D01*
X0183024Y0210030D02*
X0183024Y0211565D01*
X0181873Y0211181D02*
X0184175Y0211181D01*
X0183024Y0210030D01*
X0181996Y0215673D02*
X0179694Y0215673D01*
X0180461Y0215673D02*
X0180461Y0216824D01*
X0180845Y0217208D01*
X0181612Y0217208D01*
X0181996Y0216824D01*
X0181996Y0215673D01*
X0180461Y0216440D02*
X0179694Y0217208D01*
X0179694Y0217975D02*
X0181228Y0219510D01*
X0181612Y0219510D01*
X0181996Y0219126D01*
X0181996Y0218359D01*
X0181612Y0217975D01*
X0182116Y0217435D02*
X0184417Y0217435D01*
X0184417Y0218586D01*
X0184034Y0218969D01*
X0183266Y0218969D01*
X0182883Y0218586D01*
X0182883Y0217435D01*
X0182883Y0218202D02*
X0182116Y0218969D01*
X0182116Y0219737D02*
X0183650Y0221271D01*
X0184034Y0221271D01*
X0184417Y0220888D01*
X0184417Y0220120D01*
X0184034Y0219737D01*
X0182116Y0219737D02*
X0182116Y0221271D01*
X0181996Y0221428D02*
X0181612Y0221812D01*
X0181228Y0221812D01*
X0180845Y0221428D01*
X0180461Y0221812D01*
X0180077Y0221812D01*
X0179694Y0221428D01*
X0179694Y0220661D01*
X0180077Y0220277D01*
X0179694Y0219510D02*
X0179694Y0217975D01*
X0181612Y0220277D02*
X0181996Y0220661D01*
X0181996Y0221428D01*
X0182116Y0222039D02*
X0183650Y0223573D01*
X0184034Y0223573D01*
X0184417Y0223190D01*
X0184417Y0222422D01*
X0184034Y0222039D01*
X0182116Y0222039D02*
X0182116Y0223573D01*
X0180845Y0221428D02*
X0180845Y0221044D01*
X0196351Y0213884D02*
X0196351Y0211582D01*
X0195967Y0212733D02*
X0197502Y0212733D01*
X0196351Y0213884D01*
X0199036Y0213884D02*
X0199036Y0211582D01*
X0198269Y0211582D02*
X0199804Y0211582D01*
X0200571Y0211966D02*
X0200571Y0213501D01*
X0200955Y0213884D01*
X0202105Y0213884D01*
X0202105Y0211582D01*
X0200955Y0211582D01*
X0200571Y0211966D01*
X0199804Y0213117D02*
X0199036Y0213884D01*
X0198359Y0207821D02*
X0198359Y0207437D01*
X0199893Y0205902D01*
X0199893Y0205519D01*
X0200660Y0205519D02*
X0201428Y0206286D01*
X0201044Y0206286D02*
X0202195Y0206286D01*
X0202195Y0205519D02*
X0202195Y0207821D01*
X0201044Y0207821D01*
X0200660Y0207437D01*
X0200660Y0206670D01*
X0201044Y0206286D01*
X0199893Y0207821D02*
X0198359Y0207821D01*
X0197591Y0207053D02*
X0196824Y0207821D01*
X0196824Y0205519D01*
X0197591Y0205519D02*
X0196057Y0205519D01*
X0196245Y0201755D02*
X0196245Y0201371D01*
X0197779Y0199836D01*
X0197779Y0199453D01*
X0198547Y0199836D02*
X0198930Y0199453D01*
X0199698Y0199453D01*
X0200081Y0199836D01*
X0200848Y0199836D02*
X0201232Y0199453D01*
X0201999Y0199453D01*
X0202383Y0199836D01*
X0202383Y0201371D01*
X0201999Y0201755D01*
X0201232Y0201755D01*
X0200848Y0201371D01*
X0200081Y0201371D02*
X0199698Y0201755D01*
X0198930Y0201755D01*
X0198547Y0201371D01*
X0198547Y0200987D01*
X0198930Y0200604D01*
X0198547Y0200220D01*
X0198547Y0199836D01*
X0198930Y0200604D02*
X0199314Y0200604D01*
X0197779Y0201755D02*
X0196245Y0201755D01*
X0196340Y0190252D02*
X0196340Y0189869D01*
X0197875Y0188334D01*
X0197875Y0187950D01*
X0198235Y0187710D02*
X0199002Y0187326D01*
X0199769Y0186559D01*
X0198618Y0186559D01*
X0198235Y0186175D01*
X0198235Y0185792D01*
X0198618Y0185408D01*
X0199386Y0185408D01*
X0199769Y0185792D01*
X0199769Y0186559D01*
X0200537Y0186943D02*
X0200537Y0187326D01*
X0200920Y0187710D01*
X0201688Y0187710D01*
X0202071Y0187326D01*
X0202479Y0187950D02*
X0202479Y0190252D01*
X0201328Y0190252D01*
X0200944Y0189869D01*
X0200944Y0189101D01*
X0201328Y0188718D01*
X0202479Y0188718D01*
X0201711Y0188718D02*
X0200944Y0187950D01*
X0200177Y0187950D02*
X0198642Y0189485D01*
X0198642Y0189869D01*
X0199026Y0190252D01*
X0199793Y0190252D01*
X0200177Y0189869D01*
X0200177Y0187950D02*
X0198642Y0187950D01*
X0200537Y0186943D02*
X0202071Y0185408D01*
X0200537Y0185408D01*
X0202839Y0185408D02*
X0203606Y0186175D01*
X0203222Y0186175D02*
X0204373Y0186175D01*
X0204373Y0185408D02*
X0204373Y0187710D01*
X0203222Y0187710D01*
X0202839Y0187326D01*
X0202839Y0186559D01*
X0203222Y0186175D01*
X0197875Y0190252D02*
X0196340Y0190252D01*
X0178828Y0188101D02*
X0178828Y0185799D01*
X0177677Y0185799D01*
X0177293Y0186183D01*
X0177293Y0187718D01*
X0177677Y0188101D01*
X0178828Y0188101D01*
X0176526Y0187334D02*
X0175759Y0188101D01*
X0175759Y0185799D01*
X0176526Y0185799D02*
X0174991Y0185799D01*
X0174224Y0186183D02*
X0173840Y0185799D01*
X0173073Y0185799D01*
X0172689Y0186183D01*
X0172689Y0186950D01*
X0173073Y0187334D01*
X0173457Y0187334D01*
X0174224Y0186950D01*
X0174224Y0188101D01*
X0172689Y0188101D01*
X0167735Y0188187D02*
X0167735Y0185885D01*
X0166584Y0185885D01*
X0166200Y0186269D01*
X0166200Y0187803D01*
X0166584Y0188187D01*
X0167735Y0188187D01*
X0165433Y0187803D02*
X0165049Y0188187D01*
X0164282Y0188187D01*
X0163898Y0187803D01*
X0163898Y0187420D01*
X0164282Y0187036D01*
X0163898Y0186652D01*
X0163898Y0186269D01*
X0164282Y0185885D01*
X0165049Y0185885D01*
X0165433Y0186269D01*
X0164665Y0187036D02*
X0164282Y0187036D01*
X0163131Y0187803D02*
X0162747Y0188187D01*
X0161980Y0188187D01*
X0161596Y0187803D01*
X0161596Y0187420D01*
X0163131Y0185885D01*
X0161596Y0185885D01*
X0162075Y0182156D02*
X0162842Y0182156D01*
X0163226Y0181772D01*
X0163993Y0181772D02*
X0163993Y0181388D01*
X0164377Y0181005D01*
X0165144Y0181005D01*
X0165528Y0181388D01*
X0165528Y0181772D01*
X0165144Y0182156D01*
X0164377Y0182156D01*
X0163993Y0181772D01*
X0164377Y0181005D02*
X0163993Y0180621D01*
X0163993Y0180237D01*
X0164377Y0179854D01*
X0165144Y0179854D01*
X0165528Y0180237D01*
X0165528Y0180621D01*
X0165144Y0181005D01*
X0166295Y0181005D02*
X0166679Y0180621D01*
X0167830Y0180621D01*
X0167830Y0179854D02*
X0167830Y0182156D01*
X0166679Y0182156D01*
X0166295Y0181772D01*
X0166295Y0181005D01*
X0167062Y0180621D02*
X0166295Y0179854D01*
X0163226Y0179854D02*
X0161691Y0181388D01*
X0161691Y0181772D01*
X0162075Y0182156D01*
X0161691Y0179854D02*
X0163226Y0179854D01*
X0163020Y0176093D02*
X0162253Y0176093D01*
X0161869Y0175709D01*
X0161869Y0175326D01*
X0162253Y0174942D01*
X0163020Y0174942D01*
X0163403Y0175326D01*
X0163403Y0175709D01*
X0163020Y0176093D01*
X0163020Y0174942D02*
X0163403Y0174558D01*
X0163403Y0174175D01*
X0163020Y0173791D01*
X0162253Y0173791D01*
X0161869Y0174175D01*
X0161869Y0174558D01*
X0162253Y0174942D01*
X0164171Y0174942D02*
X0165705Y0174942D01*
X0164554Y0176093D01*
X0164554Y0173791D01*
X0166473Y0174175D02*
X0166856Y0173791D01*
X0167624Y0173791D01*
X0168007Y0174175D01*
X0168007Y0175709D01*
X0167624Y0176093D01*
X0166856Y0176093D01*
X0166473Y0175709D01*
X0172798Y0180080D02*
X0173182Y0179696D01*
X0173949Y0179696D01*
X0174333Y0180080D01*
X0174333Y0180847D02*
X0173566Y0181231D01*
X0173182Y0181231D01*
X0172798Y0180847D01*
X0172798Y0180080D01*
X0174333Y0180847D02*
X0174333Y0181998D01*
X0172798Y0181998D01*
X0175100Y0181998D02*
X0175100Y0181615D01*
X0176635Y0180080D01*
X0176635Y0179696D01*
X0177402Y0179696D02*
X0178170Y0180464D01*
X0177786Y0180464D02*
X0178937Y0180464D01*
X0178937Y0179696D02*
X0178937Y0181998D01*
X0177786Y0181998D01*
X0177402Y0181615D01*
X0177402Y0180847D01*
X0177786Y0180464D01*
X0176635Y0181998D02*
X0175100Y0181998D01*
X0175670Y0175918D02*
X0176821Y0174767D01*
X0175287Y0174767D01*
X0174519Y0175151D02*
X0173752Y0175918D01*
X0173752Y0173616D01*
X0174519Y0173616D02*
X0172985Y0173616D01*
X0175670Y0173616D02*
X0175670Y0175918D01*
X0177589Y0175534D02*
X0177972Y0175918D01*
X0178740Y0175918D01*
X0179123Y0175534D01*
X0179123Y0174000D01*
X0178740Y0173616D01*
X0177972Y0173616D01*
X0177589Y0174000D01*
X0178027Y0164426D02*
X0177644Y0164043D01*
X0177644Y0163275D01*
X0178027Y0162892D01*
X0179178Y0162892D01*
X0178411Y0162892D02*
X0177644Y0162124D01*
X0177638Y0161858D02*
X0178406Y0161858D01*
X0178789Y0161474D01*
X0179178Y0162124D02*
X0179178Y0164426D01*
X0178027Y0164426D01*
X0176876Y0164043D02*
X0176493Y0164426D01*
X0175725Y0164426D01*
X0175342Y0164043D01*
X0175342Y0163659D01*
X0176876Y0162124D01*
X0175342Y0162124D01*
X0175337Y0161858D02*
X0174953Y0161474D01*
X0174953Y0161090D01*
X0175337Y0160707D01*
X0176104Y0160707D01*
X0176488Y0161090D01*
X0176488Y0161474D01*
X0176104Y0161858D01*
X0175337Y0161858D01*
X0174574Y0162508D02*
X0174191Y0162124D01*
X0173424Y0162124D01*
X0173040Y0162508D01*
X0173040Y0164043D01*
X0173424Y0164426D01*
X0174191Y0164426D01*
X0174574Y0164043D01*
X0174574Y0163659D01*
X0174191Y0163275D01*
X0173040Y0163275D01*
X0175337Y0160707D02*
X0174953Y0160323D01*
X0174953Y0159939D01*
X0175337Y0159556D01*
X0176104Y0159556D01*
X0176488Y0159939D01*
X0176488Y0160323D01*
X0176104Y0160707D01*
X0177255Y0161090D02*
X0177255Y0161474D01*
X0177638Y0161858D01*
X0177255Y0161090D02*
X0178789Y0159556D01*
X0177255Y0159556D01*
X0179557Y0159556D02*
X0180324Y0160323D01*
X0179940Y0160323D02*
X0181091Y0160323D01*
X0181091Y0159556D02*
X0181091Y0161858D01*
X0179940Y0161858D01*
X0179557Y0161474D01*
X0179557Y0160707D01*
X0179940Y0160323D01*
X0169976Y0160498D02*
X0168825Y0160498D01*
X0168441Y0160881D01*
X0168441Y0161649D01*
X0168825Y0162032D01*
X0169976Y0162032D01*
X0169976Y0159730D01*
X0169208Y0160498D02*
X0168441Y0159730D01*
X0167674Y0160114D02*
X0167290Y0159730D01*
X0166523Y0159730D01*
X0166139Y0160114D01*
X0166139Y0160498D01*
X0166523Y0160881D01*
X0166906Y0160881D01*
X0166523Y0160881D02*
X0166139Y0161265D01*
X0166139Y0161649D01*
X0166523Y0162032D01*
X0167290Y0162032D01*
X0167674Y0161649D01*
X0168081Y0162213D02*
X0168081Y0164515D01*
X0166931Y0164515D01*
X0166547Y0164131D01*
X0166547Y0163364D01*
X0166931Y0162980D01*
X0168081Y0162980D01*
X0167314Y0162980D02*
X0166547Y0162213D01*
X0165780Y0162597D02*
X0165396Y0162213D01*
X0164629Y0162213D01*
X0164245Y0162597D01*
X0164245Y0162980D01*
X0164629Y0163364D01*
X0165012Y0163364D01*
X0164629Y0163364D02*
X0164245Y0163748D01*
X0164245Y0164131D01*
X0164629Y0164515D01*
X0165396Y0164515D01*
X0165780Y0164131D01*
X0164988Y0162032D02*
X0164221Y0162032D01*
X0163837Y0161649D01*
X0165372Y0160114D01*
X0164988Y0159730D01*
X0164221Y0159730D01*
X0163837Y0160114D01*
X0163837Y0161649D01*
X0163478Y0162213D02*
X0161943Y0162213D01*
X0162710Y0162213D02*
X0162710Y0164515D01*
X0163478Y0163748D01*
X0164988Y0162032D02*
X0165372Y0161649D01*
X0165372Y0160114D01*
X0167086Y0143890D02*
X0167086Y0141588D01*
X0166319Y0141588D02*
X0167854Y0141588D01*
X0168621Y0141972D02*
X0169005Y0141588D01*
X0169772Y0141588D01*
X0170156Y0141972D01*
X0170923Y0141972D02*
X0170923Y0143506D01*
X0171307Y0143890D01*
X0172458Y0143890D01*
X0172458Y0141588D01*
X0171307Y0141588D01*
X0170923Y0141972D01*
X0170156Y0143506D02*
X0169772Y0143890D01*
X0169005Y0143890D01*
X0168621Y0143506D01*
X0168621Y0143123D01*
X0169005Y0142739D01*
X0168621Y0142355D01*
X0168621Y0141972D01*
X0169005Y0142739D02*
X0169388Y0142739D01*
X0167854Y0143123D02*
X0167086Y0143890D01*
X0167083Y0139173D02*
X0167083Y0136871D01*
X0167850Y0136871D02*
X0166315Y0136871D01*
X0167850Y0138405D02*
X0167083Y0139173D01*
X0168617Y0138789D02*
X0168617Y0138405D01*
X0169001Y0138022D01*
X0169768Y0138022D01*
X0170152Y0138405D01*
X0170152Y0138789D01*
X0169768Y0139173D01*
X0169001Y0139173D01*
X0168617Y0138789D01*
X0169001Y0138022D02*
X0168617Y0137638D01*
X0168617Y0137254D01*
X0169001Y0136871D01*
X0169768Y0136871D01*
X0170152Y0137254D01*
X0170152Y0137638D01*
X0169768Y0138022D01*
X0170919Y0138022D02*
X0171303Y0137638D01*
X0172454Y0137638D01*
X0172454Y0136871D02*
X0172454Y0139173D01*
X0171303Y0139173D01*
X0170919Y0138789D01*
X0170919Y0138022D01*
X0171687Y0137638D02*
X0170919Y0136871D01*
X0171300Y0134362D02*
X0172067Y0134362D01*
X0172451Y0133978D01*
X0172451Y0132443D01*
X0172067Y0132060D01*
X0171300Y0132060D01*
X0170916Y0132443D01*
X0170149Y0133211D02*
X0168998Y0134362D01*
X0168998Y0132060D01*
X0167847Y0132060D02*
X0167847Y0132443D01*
X0166312Y0133978D01*
X0166312Y0134362D01*
X0167847Y0134362D01*
X0168614Y0133211D02*
X0170149Y0133211D01*
X0170916Y0133978D02*
X0171300Y0134362D01*
X0180319Y0133959D02*
X0180703Y0134343D01*
X0181470Y0134343D01*
X0181854Y0133959D01*
X0182621Y0133192D02*
X0184156Y0133192D01*
X0183005Y0134343D01*
X0183005Y0132041D01*
X0181854Y0132041D02*
X0180319Y0133576D01*
X0180319Y0133959D01*
X0180319Y0132041D02*
X0181854Y0132041D01*
X0184923Y0132425D02*
X0185307Y0132041D01*
X0186074Y0132041D01*
X0186458Y0132425D01*
X0186458Y0133959D01*
X0186074Y0134343D01*
X0185307Y0134343D01*
X0184923Y0133959D01*
X0184924Y0136847D02*
X0185691Y0137614D01*
X0185308Y0137614D02*
X0186459Y0137614D01*
X0186459Y0136847D02*
X0186459Y0139148D01*
X0185308Y0139148D01*
X0184924Y0138765D01*
X0184924Y0137998D01*
X0185308Y0137614D01*
X0184157Y0137230D02*
X0184157Y0136847D01*
X0184157Y0137230D02*
X0182622Y0138765D01*
X0182622Y0139148D01*
X0184157Y0139148D01*
X0184155Y0141606D02*
X0182620Y0141606D01*
X0183388Y0141606D02*
X0183388Y0143908D01*
X0184155Y0143141D01*
X0184922Y0143524D02*
X0185306Y0143908D01*
X0186457Y0143908D01*
X0186457Y0141606D01*
X0185306Y0141606D01*
X0184922Y0141990D01*
X0184922Y0143524D01*
X0181853Y0143524D02*
X0181853Y0143141D01*
X0181469Y0142757D01*
X0180702Y0142757D01*
X0180318Y0142373D01*
X0180318Y0141990D01*
X0180702Y0141606D01*
X0181469Y0141606D01*
X0181853Y0141990D01*
X0181853Y0142373D01*
X0181469Y0142757D01*
X0180702Y0142757D02*
X0180318Y0143141D01*
X0180318Y0143524D01*
X0180702Y0143908D01*
X0181469Y0143908D01*
X0181853Y0143524D01*
X0180320Y0139148D02*
X0181087Y0138765D01*
X0181855Y0137998D01*
X0180704Y0137998D01*
X0180320Y0137614D01*
X0180320Y0137230D01*
X0180704Y0136847D01*
X0181471Y0136847D01*
X0181855Y0137230D01*
X0181855Y0137998D01*
X0181818Y0125187D02*
X0180283Y0125187D01*
X0180283Y0124803D01*
X0181818Y0123268D01*
X0181818Y0122885D01*
X0182585Y0123268D02*
X0182969Y0122885D01*
X0183736Y0122885D01*
X0184120Y0123268D01*
X0184887Y0122885D02*
X0185654Y0123652D01*
X0185271Y0123652D02*
X0186422Y0123652D01*
X0186422Y0122885D02*
X0186422Y0125187D01*
X0185271Y0125187D01*
X0184887Y0124803D01*
X0184887Y0124036D01*
X0185271Y0123652D01*
X0184120Y0124803D02*
X0183736Y0125187D01*
X0182969Y0125187D01*
X0182585Y0124803D01*
X0182585Y0124419D01*
X0182969Y0124036D01*
X0182585Y0123652D01*
X0182585Y0123268D01*
X0182969Y0124036D02*
X0183352Y0124036D01*
X0182216Y0121534D02*
X0182983Y0121150D01*
X0183751Y0120383D01*
X0182600Y0120383D01*
X0182216Y0120000D01*
X0182216Y0119616D01*
X0182600Y0119232D01*
X0183367Y0119232D01*
X0183751Y0119616D01*
X0183751Y0120383D01*
X0184518Y0120000D02*
X0184902Y0120383D01*
X0185285Y0120383D01*
X0184902Y0120383D02*
X0184518Y0120767D01*
X0184518Y0121150D01*
X0184902Y0121534D01*
X0185669Y0121534D01*
X0186052Y0121150D01*
X0186820Y0121150D02*
X0186820Y0120383D01*
X0187203Y0120000D01*
X0188354Y0120000D01*
X0187587Y0120000D02*
X0186820Y0119232D01*
X0186052Y0119616D02*
X0185669Y0119232D01*
X0184902Y0119232D01*
X0184518Y0119616D01*
X0184518Y0120000D01*
X0186820Y0121150D02*
X0187203Y0121534D01*
X0188354Y0121534D01*
X0188354Y0119232D01*
X0196125Y0116680D02*
X0197659Y0116680D01*
X0197659Y0115529D01*
X0196892Y0115912D01*
X0196508Y0115912D01*
X0196125Y0115529D01*
X0196125Y0114761D01*
X0196508Y0114378D01*
X0197276Y0114378D01*
X0197659Y0114761D01*
X0198427Y0114761D02*
X0198810Y0114378D01*
X0199578Y0114378D01*
X0199961Y0114761D01*
X0200729Y0114378D02*
X0201496Y0115145D01*
X0201112Y0115145D02*
X0202263Y0115145D01*
X0202263Y0114378D02*
X0202263Y0116680D01*
X0201112Y0116680D01*
X0200729Y0116296D01*
X0200729Y0115529D01*
X0201112Y0115145D01*
X0199961Y0116296D02*
X0199578Y0116680D01*
X0198810Y0116680D01*
X0198427Y0116296D01*
X0198427Y0115912D01*
X0198810Y0115529D01*
X0198427Y0115145D01*
X0198427Y0114761D01*
X0198810Y0115529D02*
X0199194Y0115529D01*
X0197893Y0109717D02*
X0196742Y0109717D01*
X0196358Y0109334D01*
X0196358Y0107799D01*
X0196742Y0107415D01*
X0197893Y0107415D01*
X0197893Y0109717D01*
X0195591Y0109334D02*
X0195207Y0109717D01*
X0194440Y0109717D01*
X0194056Y0109334D01*
X0194056Y0108950D01*
X0195591Y0107415D01*
X0194056Y0107415D01*
X0193289Y0108566D02*
X0192138Y0109717D01*
X0192138Y0107415D01*
X0191754Y0108566D02*
X0193289Y0108566D01*
X0193304Y0104835D02*
X0191770Y0104835D01*
X0191770Y0104452D01*
X0193304Y0102917D01*
X0193304Y0102533D01*
X0194072Y0104452D02*
X0195606Y0102917D01*
X0195606Y0102533D01*
X0196374Y0102533D02*
X0197141Y0103301D01*
X0196757Y0103301D02*
X0197908Y0103301D01*
X0197908Y0102533D02*
X0197908Y0104835D01*
X0196757Y0104835D01*
X0196374Y0104452D01*
X0196374Y0103684D01*
X0196757Y0103301D01*
X0195606Y0104835D02*
X0194072Y0104835D01*
X0194072Y0104452D01*
X0194452Y0100013D02*
X0195603Y0098862D01*
X0194068Y0098862D01*
X0193301Y0098095D02*
X0192917Y0097711D01*
X0192150Y0097711D01*
X0191766Y0098095D01*
X0191766Y0098479D01*
X0192150Y0098862D01*
X0192534Y0098862D01*
X0192150Y0098862D02*
X0191766Y0099246D01*
X0191766Y0099630D01*
X0192150Y0100013D01*
X0192917Y0100013D01*
X0193301Y0099630D01*
X0194452Y0100013D02*
X0194452Y0097711D01*
X0196370Y0098095D02*
X0196754Y0097711D01*
X0197521Y0097711D01*
X0197905Y0098095D01*
X0197905Y0099630D01*
X0197521Y0100013D01*
X0196754Y0100013D01*
X0196370Y0099630D01*
X0201928Y0098885D02*
X0203462Y0098885D01*
X0202311Y0100036D01*
X0202311Y0097734D01*
X0204230Y0098885D02*
X0205764Y0098885D01*
X0204613Y0100036D01*
X0204613Y0097734D01*
X0206532Y0098118D02*
X0206915Y0097734D01*
X0207683Y0097734D01*
X0208066Y0098118D01*
X0208066Y0099652D01*
X0207683Y0100036D01*
X0206915Y0100036D01*
X0206532Y0099652D01*
X0206556Y0102542D02*
X0207323Y0103309D01*
X0206940Y0103309D02*
X0208090Y0103309D01*
X0208090Y0102542D02*
X0208090Y0104844D01*
X0206940Y0104844D01*
X0206556Y0104460D01*
X0206556Y0103693D01*
X0206940Y0103309D01*
X0205789Y0102925D02*
X0205789Y0102542D01*
X0205789Y0102925D02*
X0204254Y0104460D01*
X0204254Y0104844D01*
X0205789Y0104844D01*
X0203487Y0104460D02*
X0203487Y0104076D01*
X0203103Y0103693D01*
X0202336Y0103693D01*
X0201952Y0103309D01*
X0201952Y0102925D01*
X0202336Y0102542D01*
X0203103Y0102542D01*
X0203487Y0102925D01*
X0203487Y0103309D01*
X0203103Y0103693D01*
X0202336Y0103693D02*
X0201952Y0104076D01*
X0201952Y0104460D01*
X0202336Y0104844D01*
X0203103Y0104844D01*
X0203487Y0104460D01*
X0203112Y0107431D02*
X0203496Y0107814D01*
X0203112Y0107431D02*
X0202345Y0107431D01*
X0201961Y0107814D01*
X0201961Y0108582D01*
X0202345Y0108965D01*
X0202728Y0108965D01*
X0203496Y0108582D01*
X0203496Y0109733D01*
X0201961Y0109733D01*
X0204263Y0109349D02*
X0204263Y0108965D01*
X0204647Y0108582D01*
X0204263Y0108198D01*
X0204263Y0107814D01*
X0204647Y0107431D01*
X0205414Y0107431D01*
X0205798Y0107814D01*
X0206565Y0107814D02*
X0206565Y0109349D01*
X0206949Y0109733D01*
X0208099Y0109733D01*
X0208099Y0107431D01*
X0206949Y0107431D01*
X0206565Y0107814D01*
X0205030Y0108582D02*
X0204647Y0108582D01*
X0204263Y0109349D02*
X0204647Y0109733D01*
X0205414Y0109733D01*
X0205798Y0109349D01*
X0210132Y0119223D02*
X0211666Y0119223D01*
X0210132Y0120758D01*
X0210132Y0121141D01*
X0210515Y0121525D01*
X0211283Y0121525D01*
X0211666Y0121141D01*
X0212434Y0121141D02*
X0212434Y0120758D01*
X0212817Y0120374D01*
X0212434Y0119990D01*
X0212434Y0119607D01*
X0212817Y0119223D01*
X0213585Y0119223D01*
X0213968Y0119607D01*
X0214736Y0119223D02*
X0215503Y0119990D01*
X0215119Y0119990D02*
X0216270Y0119990D01*
X0216270Y0119223D02*
X0216270Y0121525D01*
X0215119Y0121525D01*
X0214736Y0121141D01*
X0214736Y0120374D01*
X0215119Y0119990D01*
X0213968Y0121141D02*
X0213585Y0121525D01*
X0212817Y0121525D01*
X0212434Y0121141D01*
X0212817Y0120374D02*
X0213201Y0120374D01*
X0212740Y0122875D02*
X0213507Y0123643D01*
X0213123Y0123643D02*
X0214274Y0123643D01*
X0214274Y0122875D02*
X0214274Y0125177D01*
X0213123Y0125177D01*
X0212740Y0124794D01*
X0212740Y0124026D01*
X0213123Y0123643D01*
X0211972Y0123259D02*
X0211589Y0122875D01*
X0210821Y0122875D01*
X0210438Y0123259D01*
X0210438Y0123643D01*
X0210821Y0124026D01*
X0211205Y0124026D01*
X0210821Y0124026D02*
X0210438Y0124410D01*
X0210438Y0124794D01*
X0210821Y0125177D01*
X0211589Y0125177D01*
X0211972Y0124794D01*
X0209670Y0124794D02*
X0209287Y0125177D01*
X0208520Y0125177D01*
X0208136Y0124794D01*
X0208136Y0124410D01*
X0208520Y0124026D01*
X0208136Y0123643D01*
X0208136Y0123259D01*
X0208520Y0122875D01*
X0209287Y0122875D01*
X0209670Y0123259D01*
X0208903Y0124026D02*
X0208520Y0124026D01*
X0202337Y0124932D02*
X0201953Y0124548D01*
X0201186Y0124548D01*
X0200802Y0124932D01*
X0200035Y0124932D02*
X0199651Y0124548D01*
X0198884Y0124548D01*
X0198500Y0124932D01*
X0198500Y0125316D01*
X0198884Y0125699D01*
X0199268Y0125699D01*
X0198884Y0125699D02*
X0198500Y0126083D01*
X0198500Y0126467D01*
X0198884Y0126850D01*
X0199651Y0126850D01*
X0200035Y0126467D01*
X0200802Y0126467D02*
X0201186Y0126850D01*
X0201953Y0126850D01*
X0202337Y0126467D01*
X0202337Y0124932D01*
X0200415Y0127716D02*
X0200415Y0130018D01*
X0199265Y0130018D01*
X0198881Y0129635D01*
X0198881Y0128867D01*
X0199265Y0128484D01*
X0200415Y0128484D01*
X0199648Y0128484D02*
X0198881Y0127716D01*
X0198114Y0128100D02*
X0197730Y0127716D01*
X0196963Y0127716D01*
X0196579Y0128100D01*
X0196579Y0128484D01*
X0196963Y0128867D01*
X0197346Y0128867D01*
X0196963Y0128867D02*
X0196579Y0129251D01*
X0196579Y0129635D01*
X0196963Y0130018D01*
X0197730Y0130018D01*
X0198114Y0129635D01*
X0197706Y0129731D02*
X0196172Y0131266D01*
X0196172Y0129731D01*
X0196555Y0129347D01*
X0197323Y0129347D01*
X0197706Y0129731D01*
X0197706Y0131266D01*
X0197323Y0131649D01*
X0196555Y0131649D01*
X0196172Y0131266D01*
X0194661Y0130018D02*
X0195812Y0128867D01*
X0194277Y0128867D01*
X0194661Y0127716D02*
X0194661Y0130018D01*
X0196198Y0126850D02*
X0196966Y0126467D01*
X0197733Y0125699D01*
X0196582Y0125699D01*
X0196198Y0125316D01*
X0196198Y0124932D01*
X0196582Y0124548D01*
X0197349Y0124548D01*
X0197733Y0124932D01*
X0197733Y0125699D01*
X0200008Y0129347D02*
X0200008Y0129731D01*
X0198474Y0131266D01*
X0198474Y0131649D01*
X0200008Y0131649D01*
X0200776Y0131266D02*
X0200776Y0130498D01*
X0201159Y0130115D01*
X0202310Y0130115D01*
X0201543Y0130115D02*
X0200776Y0129347D01*
X0202310Y0129347D02*
X0202310Y0131649D01*
X0201159Y0131649D01*
X0200776Y0131266D01*
X0201149Y0134106D02*
X0200765Y0134489D01*
X0200765Y0136024D01*
X0201149Y0136408D01*
X0202300Y0136408D01*
X0202300Y0134106D01*
X0201149Y0134106D01*
X0199998Y0134106D02*
X0198463Y0134106D01*
X0197696Y0134106D02*
X0197696Y0134489D01*
X0196161Y0136024D01*
X0196161Y0136408D01*
X0197696Y0136408D01*
X0199231Y0136408D02*
X0199231Y0134106D01*
X0199998Y0135640D02*
X0199231Y0136408D01*
X0208182Y0137254D02*
X0208565Y0136870D01*
X0209333Y0136870D01*
X0209716Y0137254D01*
X0209716Y0138021D02*
X0208949Y0138405D01*
X0208565Y0138405D01*
X0208182Y0138021D01*
X0208182Y0137254D01*
X0209716Y0138021D02*
X0209716Y0139172D01*
X0208182Y0139172D01*
X0210484Y0139172D02*
X0211251Y0138789D01*
X0212018Y0138021D01*
X0210867Y0138021D01*
X0210484Y0137638D01*
X0210484Y0137254D01*
X0210867Y0136870D01*
X0211635Y0136870D01*
X0212018Y0137254D01*
X0212018Y0138021D01*
X0212786Y0138021D02*
X0213169Y0137638D01*
X0214320Y0137638D01*
X0213553Y0137638D02*
X0212786Y0136870D01*
X0212786Y0138021D02*
X0212786Y0138789D01*
X0213169Y0139172D01*
X0214320Y0139172D01*
X0214320Y0136870D01*
X0213993Y0134345D02*
X0214377Y0133962D01*
X0214377Y0132427D01*
X0213993Y0132043D01*
X0213226Y0132043D01*
X0212842Y0132427D01*
X0212075Y0132427D02*
X0211691Y0132043D01*
X0210924Y0132043D01*
X0210540Y0132427D01*
X0210540Y0132811D01*
X0210924Y0133194D01*
X0211307Y0133194D01*
X0210924Y0133194D02*
X0210540Y0133578D01*
X0210540Y0133962D01*
X0210924Y0134345D01*
X0211691Y0134345D01*
X0212075Y0133962D01*
X0212842Y0133962D02*
X0213226Y0134345D01*
X0213993Y0134345D01*
X0209773Y0133578D02*
X0209005Y0134345D01*
X0209005Y0132043D01*
X0208238Y0132043D02*
X0209773Y0132043D01*
X0209344Y0141605D02*
X0208577Y0141605D01*
X0208193Y0141989D01*
X0208193Y0142373D01*
X0208577Y0142756D01*
X0209728Y0142756D01*
X0209728Y0141989D01*
X0209344Y0141605D01*
X0210495Y0141605D02*
X0212029Y0141605D01*
X0211262Y0141605D02*
X0211262Y0143907D01*
X0212029Y0143140D01*
X0212797Y0143523D02*
X0213180Y0143907D01*
X0214331Y0143907D01*
X0214331Y0141605D01*
X0213180Y0141605D01*
X0212797Y0141989D01*
X0212797Y0143523D01*
X0209728Y0142756D02*
X0208960Y0143523D01*
X0208193Y0143907D01*
X0187756Y0109721D02*
X0186605Y0109721D01*
X0186221Y0109337D01*
X0186221Y0107803D01*
X0186605Y0107419D01*
X0187756Y0107419D01*
X0187756Y0109721D01*
X0185454Y0109337D02*
X0185070Y0109721D01*
X0184303Y0109721D01*
X0183919Y0109337D01*
X0183919Y0108954D01*
X0185454Y0107419D01*
X0183919Y0107419D01*
X0183152Y0107803D02*
X0182768Y0107419D01*
X0182001Y0107419D01*
X0181617Y0107803D01*
X0181617Y0108186D01*
X0182001Y0108570D01*
X0182385Y0108570D01*
X0182001Y0108570D02*
X0181617Y0108954D01*
X0181617Y0109337D01*
X0182001Y0109721D01*
X0182768Y0109721D01*
X0183152Y0109337D01*
X0182753Y0104845D02*
X0183137Y0104461D01*
X0183137Y0104077D01*
X0182753Y0103694D01*
X0181602Y0103694D01*
X0181602Y0104461D02*
X0181602Y0102926D01*
X0181986Y0102543D01*
X0182753Y0102543D01*
X0183137Y0102926D01*
X0183904Y0102926D02*
X0183904Y0103310D01*
X0184288Y0103694D01*
X0185439Y0103694D01*
X0185439Y0102926D01*
X0185055Y0102543D01*
X0184288Y0102543D01*
X0183904Y0102926D01*
X0184671Y0104461D02*
X0185439Y0103694D01*
X0186206Y0103694D02*
X0186206Y0104461D01*
X0186590Y0104845D01*
X0187741Y0104845D01*
X0187741Y0102543D01*
X0187741Y0103310D02*
X0186590Y0103310D01*
X0186206Y0103694D01*
X0186973Y0103310D02*
X0186206Y0102543D01*
X0184671Y0104461D02*
X0183904Y0104845D01*
X0182753Y0104845D02*
X0181986Y0104845D01*
X0181602Y0104461D01*
X0177469Y0104807D02*
X0177469Y0102505D01*
X0177469Y0103272D02*
X0176318Y0103272D01*
X0175935Y0103656D01*
X0175935Y0104423D01*
X0176318Y0104807D01*
X0177469Y0104807D01*
X0176702Y0103272D02*
X0175935Y0102505D01*
X0175167Y0102889D02*
X0174784Y0102505D01*
X0174016Y0102505D01*
X0173633Y0102889D01*
X0173633Y0103272D01*
X0174016Y0103656D01*
X0175167Y0103656D01*
X0175167Y0102889D01*
X0175167Y0103656D02*
X0174400Y0104423D01*
X0173633Y0104807D01*
X0172865Y0104423D02*
X0172865Y0104040D01*
X0172482Y0103656D01*
X0171715Y0103656D01*
X0171331Y0103272D01*
X0171331Y0102889D01*
X0171715Y0102505D01*
X0172482Y0102505D01*
X0172865Y0102889D01*
X0172865Y0103272D01*
X0172482Y0103656D01*
X0171715Y0103656D02*
X0171331Y0104040D01*
X0171331Y0104423D01*
X0171715Y0104807D01*
X0172482Y0104807D01*
X0172865Y0104423D01*
X0172847Y0107347D02*
X0171312Y0108881D01*
X0171312Y0109265D01*
X0171696Y0109649D01*
X0172463Y0109649D01*
X0172847Y0109265D01*
X0173614Y0109265D02*
X0173998Y0109649D01*
X0174765Y0109649D01*
X0175149Y0109265D01*
X0175916Y0109265D02*
X0176300Y0109649D01*
X0177451Y0109649D01*
X0177451Y0107347D01*
X0176300Y0107347D01*
X0175916Y0107730D01*
X0175916Y0109265D01*
X0175149Y0107347D02*
X0173614Y0108881D01*
X0173614Y0109265D01*
X0173614Y0107347D02*
X0175149Y0107347D01*
X0172847Y0107347D02*
X0171312Y0107347D01*
X0167040Y0107315D02*
X0165889Y0107315D01*
X0165505Y0107699D01*
X0165505Y0109233D01*
X0165889Y0109617D01*
X0167040Y0109617D01*
X0167040Y0107315D01*
X0164738Y0107315D02*
X0163203Y0107315D01*
X0163971Y0107315D02*
X0163971Y0109617D01*
X0164738Y0108850D01*
X0162436Y0108850D02*
X0162052Y0108466D01*
X0160901Y0108466D01*
X0160901Y0109233D02*
X0161285Y0109617D01*
X0162052Y0109617D01*
X0162436Y0109233D01*
X0162436Y0108850D01*
X0162436Y0107699D02*
X0162052Y0107315D01*
X0161285Y0107315D01*
X0160901Y0107699D01*
X0160901Y0109233D01*
X0160909Y0104789D02*
X0161676Y0104406D01*
X0162444Y0103638D01*
X0161293Y0103638D01*
X0160909Y0103255D01*
X0160909Y0102871D01*
X0161293Y0102487D01*
X0162060Y0102487D01*
X0162444Y0102871D01*
X0162444Y0103638D01*
X0163211Y0103255D02*
X0163595Y0103638D01*
X0164746Y0103638D01*
X0164746Y0102871D01*
X0164362Y0102487D01*
X0163595Y0102487D01*
X0163211Y0102871D01*
X0163211Y0103255D01*
X0163978Y0104406D02*
X0164746Y0103638D01*
X0165513Y0103638D02*
X0165513Y0104406D01*
X0165897Y0104789D01*
X0167048Y0104789D01*
X0167048Y0102487D01*
X0167048Y0103255D02*
X0165897Y0103255D01*
X0165513Y0103638D01*
X0166280Y0103255D02*
X0165513Y0102487D01*
X0163978Y0104406D02*
X0163211Y0104789D01*
X0163586Y0100007D02*
X0163202Y0099623D01*
X0163202Y0099239D01*
X0163586Y0098856D01*
X0163202Y0098472D01*
X0163202Y0098088D01*
X0163586Y0097705D01*
X0164353Y0097705D01*
X0164737Y0098088D01*
X0165504Y0098088D02*
X0165888Y0097705D01*
X0166655Y0097705D01*
X0167039Y0098088D01*
X0167039Y0099623D01*
X0166655Y0100007D01*
X0165888Y0100007D01*
X0165504Y0099623D01*
X0164737Y0099623D02*
X0164353Y0100007D01*
X0163586Y0100007D01*
X0163586Y0098856D02*
X0163970Y0098856D01*
X0162435Y0099623D02*
X0162051Y0100007D01*
X0161284Y0100007D01*
X0160900Y0099623D01*
X0160900Y0099239D01*
X0162435Y0097705D01*
X0160900Y0097705D01*
X0156817Y0098039D02*
X0156433Y0097655D01*
X0155666Y0097655D01*
X0155282Y0098039D01*
X0154515Y0098039D02*
X0154131Y0097655D01*
X0153364Y0097655D01*
X0152980Y0098039D01*
X0152980Y0098422D01*
X0153364Y0098806D01*
X0153748Y0098806D01*
X0153364Y0098806D02*
X0152980Y0099190D01*
X0152980Y0099573D01*
X0153364Y0099957D01*
X0154131Y0099957D01*
X0154515Y0099573D01*
X0155282Y0099573D02*
X0155666Y0099957D01*
X0156433Y0099957D01*
X0156817Y0099573D01*
X0156817Y0098039D01*
X0152213Y0098039D02*
X0151829Y0097655D01*
X0151062Y0097655D01*
X0150679Y0098039D01*
X0150679Y0098806D01*
X0151062Y0099190D01*
X0151446Y0099190D01*
X0152213Y0098806D01*
X0152213Y0099957D01*
X0150679Y0099957D01*
X0151083Y0102419D02*
X0151850Y0102419D01*
X0152234Y0102802D01*
X0150699Y0104337D01*
X0150699Y0102802D01*
X0151083Y0102419D01*
X0152234Y0102802D02*
X0152234Y0104337D01*
X0151850Y0104721D01*
X0151083Y0104721D01*
X0150699Y0104337D01*
X0148454Y0105102D02*
X0148454Y0102800D01*
X0147303Y0102800D01*
X0146919Y0103184D01*
X0146919Y0104719D01*
X0147303Y0105102D01*
X0148454Y0105102D01*
X0146152Y0104719D02*
X0145768Y0105102D01*
X0145001Y0105102D01*
X0144617Y0104719D01*
X0144617Y0104335D01*
X0146152Y0102800D01*
X0144617Y0102800D01*
X0143850Y0102800D02*
X0142315Y0102800D01*
X0143082Y0102800D02*
X0143082Y0105102D01*
X0143850Y0104335D01*
X0144035Y0099742D02*
X0144802Y0099358D01*
X0145570Y0098591D01*
X0144419Y0098591D01*
X0144035Y0098207D01*
X0144035Y0097824D01*
X0144419Y0097440D01*
X0145186Y0097440D01*
X0145570Y0097824D01*
X0145570Y0098591D01*
X0146337Y0098591D02*
X0146721Y0098207D01*
X0147872Y0098207D01*
X0147872Y0097440D02*
X0147872Y0099742D01*
X0146721Y0099742D01*
X0146337Y0099358D01*
X0146337Y0098591D01*
X0147104Y0098207D02*
X0146337Y0097440D01*
X0146706Y0095570D02*
X0147473Y0095570D01*
X0147857Y0095187D01*
X0147857Y0093652D01*
X0147473Y0093268D01*
X0146706Y0093268D01*
X0146322Y0093652D01*
X0145555Y0093652D02*
X0145171Y0093268D01*
X0144404Y0093268D01*
X0144020Y0093652D01*
X0144020Y0094036D01*
X0144404Y0094419D01*
X0144788Y0094419D01*
X0144404Y0094419D02*
X0144020Y0094803D01*
X0144020Y0095187D01*
X0144404Y0095570D01*
X0145171Y0095570D01*
X0145555Y0095187D01*
X0146322Y0095187D02*
X0146706Y0095570D01*
X0143253Y0094419D02*
X0141718Y0094419D01*
X0142102Y0093268D02*
X0142102Y0095570D01*
X0143253Y0094419D01*
X0143268Y0097440D02*
X0143268Y0097824D01*
X0141733Y0099358D01*
X0141733Y0099742D01*
X0143268Y0099742D01*
X0138467Y0100368D02*
X0138467Y0098066D01*
X0138467Y0098833D02*
X0137316Y0098833D01*
X0136932Y0099217D01*
X0136932Y0099984D01*
X0137316Y0100368D01*
X0138467Y0100368D01*
X0137700Y0098833D02*
X0136932Y0098066D01*
X0136165Y0098066D02*
X0136165Y0098449D01*
X0134630Y0099984D01*
X0134630Y0100368D01*
X0136165Y0100368D01*
X0133863Y0099984D02*
X0133863Y0099600D01*
X0133479Y0099217D01*
X0132328Y0099217D01*
X0132328Y0099984D02*
X0132712Y0100368D01*
X0133479Y0100368D01*
X0133863Y0099984D01*
X0132328Y0099984D02*
X0132328Y0098449D01*
X0132712Y0098066D01*
X0133479Y0098066D01*
X0133863Y0098449D01*
X0134383Y0095600D02*
X0135534Y0094449D01*
X0133999Y0094449D01*
X0133232Y0094449D02*
X0132465Y0094833D01*
X0132081Y0094833D01*
X0131697Y0094449D01*
X0131697Y0093682D01*
X0132081Y0093298D01*
X0132848Y0093298D01*
X0133232Y0093682D01*
X0133232Y0094449D02*
X0133232Y0095600D01*
X0131697Y0095600D01*
X0134383Y0095600D02*
X0134383Y0093298D01*
X0135373Y0092197D02*
X0134989Y0091814D01*
X0134989Y0091046D01*
X0135373Y0090663D01*
X0136524Y0090663D01*
X0135756Y0090663D02*
X0134989Y0089895D01*
X0134222Y0091046D02*
X0132687Y0091046D01*
X0131920Y0091430D02*
X0131536Y0091046D01*
X0130385Y0091046D01*
X0130385Y0090279D02*
X0130385Y0091814D01*
X0130769Y0092197D01*
X0131536Y0092197D01*
X0131920Y0091814D01*
X0131920Y0091430D01*
X0131920Y0090279D02*
X0131536Y0089895D01*
X0130769Y0089895D01*
X0130385Y0090279D01*
X0133071Y0089895D02*
X0133071Y0092197D01*
X0134222Y0091046D01*
X0135373Y0092197D02*
X0136524Y0092197D01*
X0136524Y0089895D01*
X0136685Y0093298D02*
X0136301Y0093682D01*
X0136685Y0093298D02*
X0137452Y0093298D01*
X0137836Y0093682D01*
X0137836Y0095217D01*
X0137452Y0095600D01*
X0136685Y0095600D01*
X0136301Y0095217D01*
X0141018Y0090946D02*
X0141018Y0090562D01*
X0142552Y0089028D01*
X0142552Y0088644D01*
X0143703Y0088644D02*
X0143703Y0090946D01*
X0144854Y0089795D01*
X0143320Y0089795D01*
X0142552Y0090946D02*
X0141018Y0090946D01*
X0145622Y0090562D02*
X0145622Y0089795D01*
X0146005Y0089411D01*
X0147156Y0089411D01*
X0147156Y0088644D02*
X0147156Y0090946D01*
X0146005Y0090946D01*
X0145622Y0090562D01*
X0146389Y0089411D02*
X0145622Y0088644D01*
X0145087Y0086107D02*
X0146238Y0084956D01*
X0144703Y0084956D01*
X0143936Y0084573D02*
X0143552Y0084956D01*
X0142785Y0084956D01*
X0142401Y0084573D01*
X0142401Y0084189D01*
X0142785Y0083805D01*
X0143552Y0083805D01*
X0143936Y0084189D01*
X0143936Y0084573D01*
X0143552Y0084956D02*
X0143936Y0085340D01*
X0143936Y0085723D01*
X0143552Y0086107D01*
X0142785Y0086107D01*
X0142401Y0085723D01*
X0142401Y0085340D01*
X0142785Y0084956D01*
X0145087Y0083805D02*
X0145087Y0086107D01*
X0147005Y0085723D02*
X0147005Y0084956D01*
X0147389Y0084573D01*
X0148540Y0084573D01*
X0147773Y0084573D02*
X0147005Y0083805D01*
X0148540Y0083805D02*
X0148540Y0086107D01*
X0147389Y0086107D01*
X0147005Y0085723D01*
X0150686Y0088967D02*
X0150686Y0089351D01*
X0151070Y0089734D01*
X0152221Y0089734D01*
X0152221Y0088967D01*
X0151837Y0088583D01*
X0151070Y0088583D01*
X0150686Y0088967D01*
X0151453Y0090502D02*
X0152221Y0089734D01*
X0152988Y0089734D02*
X0154523Y0089734D01*
X0153372Y0090885D01*
X0153372Y0088583D01*
X0154138Y0087151D02*
X0154138Y0086000D01*
X0153371Y0086384D01*
X0152987Y0086384D01*
X0152604Y0086000D01*
X0152604Y0085233D01*
X0152987Y0084849D01*
X0153755Y0084849D01*
X0154138Y0085233D01*
X0154906Y0086000D02*
X0156440Y0086000D01*
X0155289Y0087151D01*
X0155289Y0084849D01*
X0157208Y0084849D02*
X0157975Y0085617D01*
X0157591Y0085617D02*
X0158742Y0085617D01*
X0158742Y0084849D02*
X0158742Y0087151D01*
X0157591Y0087151D01*
X0157208Y0086768D01*
X0157208Y0086000D01*
X0157591Y0085617D01*
X0156825Y0088583D02*
X0156825Y0090885D01*
X0155674Y0090885D01*
X0155290Y0090502D01*
X0155290Y0089734D01*
X0155674Y0089351D01*
X0156825Y0089351D01*
X0156057Y0089351D02*
X0155290Y0088583D01*
X0154138Y0087151D02*
X0152604Y0087151D01*
X0151453Y0090502D02*
X0150686Y0090885D01*
X0160930Y0089797D02*
X0162464Y0089797D01*
X0161313Y0090948D01*
X0161313Y0088646D01*
X0163232Y0089797D02*
X0164766Y0089797D01*
X0163615Y0090948D01*
X0163615Y0088646D01*
X0163247Y0087206D02*
X0162863Y0086823D01*
X0162863Y0086439D01*
X0163247Y0086055D01*
X0162863Y0085672D01*
X0162863Y0085288D01*
X0163247Y0084904D01*
X0164014Y0084904D01*
X0164398Y0085288D01*
X0163631Y0086055D02*
X0163247Y0086055D01*
X0163247Y0087206D02*
X0164014Y0087206D01*
X0164398Y0086823D01*
X0165165Y0086055D02*
X0166700Y0086055D01*
X0165549Y0087206D01*
X0165549Y0084904D01*
X0167467Y0084904D02*
X0168235Y0085672D01*
X0167851Y0085672D02*
X0169002Y0085672D01*
X0169002Y0084904D02*
X0169002Y0087206D01*
X0167851Y0087206D01*
X0167467Y0086823D01*
X0167467Y0086055D01*
X0167851Y0085672D01*
X0167068Y0088646D02*
X0167068Y0090948D01*
X0165917Y0090948D01*
X0165534Y0090565D01*
X0165534Y0089797D01*
X0165917Y0089414D01*
X0167068Y0089414D01*
X0166301Y0089414D02*
X0165534Y0088646D01*
X0171401Y0088345D02*
X0172936Y0088345D01*
X0171401Y0089880D01*
X0171401Y0090263D01*
X0171785Y0090647D01*
X0172552Y0090647D01*
X0172936Y0090263D01*
X0173703Y0090647D02*
X0175238Y0090647D01*
X0175238Y0089496D01*
X0174470Y0089880D01*
X0174087Y0089880D01*
X0173703Y0089496D01*
X0173703Y0088729D01*
X0174087Y0088345D01*
X0174854Y0088345D01*
X0175238Y0088729D01*
X0176005Y0088345D02*
X0176772Y0089112D01*
X0176389Y0089112D02*
X0177540Y0089112D01*
X0177540Y0088345D02*
X0177540Y0090647D01*
X0176389Y0090647D01*
X0176005Y0090263D01*
X0176005Y0089496D01*
X0176389Y0089112D01*
X0177156Y0087072D02*
X0177156Y0085921D01*
X0176388Y0086305D01*
X0176005Y0086305D01*
X0175621Y0085921D01*
X0175621Y0085154D01*
X0176005Y0084770D01*
X0176772Y0084770D01*
X0177156Y0085154D01*
X0177923Y0084770D02*
X0178690Y0085538D01*
X0178307Y0085538D02*
X0179458Y0085538D01*
X0179458Y0084770D02*
X0179458Y0087072D01*
X0178307Y0087072D01*
X0177923Y0086689D01*
X0177923Y0085921D01*
X0178307Y0085538D01*
X0177156Y0087072D02*
X0175621Y0087072D01*
X0174854Y0086305D02*
X0174086Y0087072D01*
X0174086Y0084770D01*
X0173319Y0084770D02*
X0174854Y0084770D01*
X0181983Y0088408D02*
X0181983Y0090710D01*
X0183134Y0089559D01*
X0181599Y0089559D01*
X0183901Y0089559D02*
X0183901Y0088791D01*
X0184285Y0088408D01*
X0185052Y0088408D01*
X0185436Y0088791D01*
X0185436Y0089559D02*
X0184669Y0089942D01*
X0184285Y0089942D01*
X0183901Y0089559D01*
X0183901Y0090710D02*
X0185436Y0090710D01*
X0185436Y0089559D01*
X0186203Y0089559D02*
X0186587Y0089175D01*
X0187738Y0089175D01*
X0187738Y0088408D02*
X0187738Y0090710D01*
X0186587Y0090710D01*
X0186203Y0090326D01*
X0186203Y0089559D01*
X0186971Y0089175D02*
X0186203Y0088408D01*
X0185842Y0087125D02*
X0187377Y0087125D01*
X0187377Y0085974D01*
X0186610Y0086357D01*
X0186226Y0086357D01*
X0185842Y0085974D01*
X0185842Y0085206D01*
X0186226Y0084823D01*
X0186993Y0084823D01*
X0187377Y0085206D01*
X0188144Y0084823D02*
X0188912Y0085590D01*
X0188528Y0085590D02*
X0189679Y0085590D01*
X0189679Y0084823D02*
X0189679Y0087125D01*
X0188528Y0087125D01*
X0188144Y0086741D01*
X0188144Y0085974D01*
X0188528Y0085590D01*
X0185075Y0085206D02*
X0184691Y0084823D01*
X0183924Y0084823D01*
X0183540Y0085206D01*
X0183540Y0085590D01*
X0183924Y0085974D01*
X0184308Y0085974D01*
X0183924Y0085974D02*
X0183540Y0086357D01*
X0183540Y0086741D01*
X0183924Y0087125D01*
X0184691Y0087125D01*
X0185075Y0086741D01*
X0191759Y0088770D02*
X0191759Y0089154D01*
X0192143Y0089537D01*
X0193294Y0089537D01*
X0193294Y0088770D01*
X0192910Y0088386D01*
X0192143Y0088386D01*
X0191759Y0088770D01*
X0192526Y0090305D02*
X0193294Y0089537D01*
X0194061Y0089537D02*
X0194061Y0088770D01*
X0194445Y0088386D01*
X0195212Y0088386D01*
X0195596Y0088770D01*
X0195596Y0089537D02*
X0194828Y0089921D01*
X0194445Y0089921D01*
X0194061Y0089537D01*
X0194061Y0090688D02*
X0195596Y0090688D01*
X0195596Y0089537D01*
X0196363Y0089537D02*
X0196747Y0089154D01*
X0197897Y0089154D01*
X0197130Y0089154D02*
X0196363Y0088386D01*
X0196363Y0089537D02*
X0196363Y0090305D01*
X0196747Y0090688D01*
X0197897Y0090688D01*
X0197897Y0088386D01*
X0197557Y0087104D02*
X0196023Y0087104D01*
X0195255Y0087104D02*
X0195255Y0085953D01*
X0194488Y0086337D01*
X0194104Y0086337D01*
X0193721Y0085953D01*
X0193721Y0085186D01*
X0194104Y0084802D01*
X0194872Y0084802D01*
X0195255Y0085186D01*
X0196023Y0085186D02*
X0196406Y0084802D01*
X0197174Y0084802D01*
X0197557Y0085186D01*
X0197557Y0085953D02*
X0196790Y0086337D01*
X0196406Y0086337D01*
X0196023Y0085953D01*
X0196023Y0085186D01*
X0197557Y0085953D02*
X0197557Y0087104D01*
X0198325Y0086721D02*
X0198325Y0085953D01*
X0198708Y0085570D01*
X0199859Y0085570D01*
X0199092Y0085570D02*
X0198325Y0084802D01*
X0199859Y0084802D02*
X0199859Y0087104D01*
X0198708Y0087104D01*
X0198325Y0086721D01*
X0195255Y0087104D02*
X0193721Y0087104D01*
X0192526Y0090305D02*
X0191759Y0090688D01*
X0187318Y0097723D02*
X0186550Y0097723D01*
X0186167Y0098106D01*
X0185399Y0098106D02*
X0185016Y0097723D01*
X0184248Y0097723D01*
X0183865Y0098106D01*
X0183865Y0098490D01*
X0184248Y0098874D01*
X0184632Y0098874D01*
X0184248Y0098874D02*
X0183865Y0099257D01*
X0183865Y0099641D01*
X0184248Y0100025D01*
X0185016Y0100025D01*
X0185399Y0099641D01*
X0186167Y0099641D02*
X0186550Y0100025D01*
X0187318Y0100025D01*
X0187701Y0099641D01*
X0187701Y0098106D01*
X0187318Y0097723D01*
X0183097Y0098106D02*
X0182714Y0097723D01*
X0181946Y0097723D01*
X0181563Y0098106D01*
X0181563Y0098490D01*
X0181946Y0098874D01*
X0182330Y0098874D01*
X0181946Y0098874D02*
X0181563Y0099257D01*
X0181563Y0099641D01*
X0181946Y0100025D01*
X0182714Y0100025D01*
X0183097Y0099641D01*
X0177431Y0099619D02*
X0177431Y0098084D01*
X0177048Y0097701D01*
X0176280Y0097701D01*
X0175897Y0098084D01*
X0175129Y0098084D02*
X0175129Y0098468D01*
X0174746Y0098852D01*
X0173978Y0098852D01*
X0173595Y0098468D01*
X0173595Y0098084D01*
X0173978Y0097701D01*
X0174746Y0097701D01*
X0175129Y0098084D01*
X0174746Y0098852D02*
X0175129Y0099235D01*
X0175129Y0099619D01*
X0174746Y0100003D01*
X0173978Y0100003D01*
X0173595Y0099619D01*
X0173595Y0099235D01*
X0173978Y0098852D01*
X0175897Y0099619D02*
X0176280Y0100003D01*
X0177048Y0100003D01*
X0177431Y0099619D01*
X0174347Y0119234D02*
X0174347Y0121536D01*
X0173196Y0121536D01*
X0172813Y0121152D01*
X0172813Y0120385D01*
X0173196Y0120001D01*
X0174347Y0120001D01*
X0173580Y0120001D02*
X0172813Y0119234D01*
X0172045Y0119618D02*
X0171662Y0119234D01*
X0170895Y0119234D01*
X0170511Y0119618D01*
X0170511Y0120001D01*
X0170895Y0120385D01*
X0171278Y0120385D01*
X0170895Y0120385D02*
X0170511Y0120769D01*
X0170511Y0121152D01*
X0170895Y0121536D01*
X0171662Y0121536D01*
X0172045Y0121152D01*
X0172452Y0122934D02*
X0172452Y0125236D01*
X0171301Y0125236D01*
X0170917Y0124853D01*
X0170917Y0124085D01*
X0171301Y0123702D01*
X0172452Y0123702D01*
X0171685Y0123702D02*
X0170917Y0122934D01*
X0170150Y0123318D02*
X0169766Y0122934D01*
X0168999Y0122934D01*
X0168615Y0123318D01*
X0168615Y0123702D01*
X0168999Y0124085D01*
X0169383Y0124085D01*
X0168999Y0124085D02*
X0168615Y0124469D01*
X0168615Y0124853D01*
X0168999Y0125236D01*
X0169766Y0125236D01*
X0170150Y0124853D01*
X0167848Y0124853D02*
X0167848Y0124469D01*
X0167464Y0124085D01*
X0166313Y0124085D01*
X0166313Y0123318D02*
X0166313Y0124853D01*
X0166697Y0125236D01*
X0167464Y0125236D01*
X0167848Y0124853D01*
X0167848Y0123318D02*
X0167464Y0122934D01*
X0166697Y0122934D01*
X0166313Y0123318D01*
X0168209Y0121152D02*
X0168209Y0120769D01*
X0168593Y0120385D01*
X0169360Y0120385D01*
X0169744Y0120769D01*
X0169744Y0121152D01*
X0169360Y0121536D01*
X0168593Y0121536D01*
X0168209Y0121152D01*
X0168593Y0120385D02*
X0168209Y0120001D01*
X0168209Y0119618D01*
X0168593Y0119234D01*
X0169360Y0119234D01*
X0169744Y0119618D01*
X0169744Y0120001D01*
X0169360Y0120385D01*
X0156824Y0109567D02*
X0156824Y0107265D01*
X0155673Y0107265D01*
X0155289Y0107649D01*
X0155289Y0109184D01*
X0155673Y0109567D01*
X0156824Y0109567D01*
X0154522Y0109184D02*
X0154138Y0109567D01*
X0153371Y0109567D01*
X0152987Y0109184D01*
X0152987Y0108800D01*
X0154522Y0107265D01*
X0152987Y0107265D01*
X0152220Y0107649D02*
X0150685Y0109184D01*
X0150685Y0107649D01*
X0151069Y0107265D01*
X0151836Y0107265D01*
X0152220Y0107649D01*
X0152220Y0109184D01*
X0151836Y0109567D01*
X0151069Y0109567D01*
X0150685Y0109184D01*
X0153385Y0104721D02*
X0154536Y0103570D01*
X0153001Y0103570D01*
X0153385Y0102419D02*
X0153385Y0104721D01*
X0155303Y0104337D02*
X0155303Y0103570D01*
X0155687Y0103186D01*
X0156838Y0103186D01*
X0156838Y0102419D02*
X0156838Y0104721D01*
X0155687Y0104721D01*
X0155303Y0104337D01*
X0156070Y0103186D02*
X0155303Y0102419D01*
X0138479Y0102845D02*
X0137329Y0102845D01*
X0136945Y0103229D01*
X0136945Y0104763D01*
X0137329Y0105147D01*
X0138479Y0105147D01*
X0138479Y0102845D01*
X0136178Y0103229D02*
X0135794Y0102845D01*
X0135027Y0102845D01*
X0134643Y0103229D01*
X0134643Y0103612D01*
X0135027Y0103996D01*
X0135410Y0103996D01*
X0135027Y0103996D02*
X0134643Y0104380D01*
X0134643Y0104763D01*
X0135027Y0105147D01*
X0135794Y0105147D01*
X0136178Y0104763D01*
X0133876Y0103996D02*
X0132341Y0103996D01*
X0132725Y0102845D02*
X0132725Y0105147D01*
X0133876Y0103996D01*
X0133422Y0086049D02*
X0132654Y0086049D01*
X0132271Y0085665D01*
X0133805Y0084131D01*
X0133422Y0083747D01*
X0132654Y0083747D01*
X0132271Y0084131D01*
X0132271Y0085665D01*
X0133422Y0086049D02*
X0133805Y0085665D01*
X0133805Y0084131D01*
X0134573Y0084131D02*
X0134956Y0083747D01*
X0135724Y0083747D01*
X0136107Y0084131D01*
X0136107Y0084898D02*
X0135340Y0085282D01*
X0134956Y0085282D01*
X0134573Y0084898D01*
X0134573Y0084131D01*
X0136107Y0084898D02*
X0136107Y0086049D01*
X0134573Y0086049D01*
X0136875Y0085665D02*
X0136875Y0084898D01*
X0137258Y0084514D01*
X0138409Y0084514D01*
X0138409Y0083747D02*
X0138409Y0086049D01*
X0137258Y0086049D01*
X0136875Y0085665D01*
X0137642Y0084514D02*
X0136875Y0083747D01*
X0111955Y0099827D02*
X0111571Y0099444D01*
X0110037Y0099444D01*
X0109653Y0099827D01*
X0109653Y0100594D01*
X0110037Y0100978D01*
X0110037Y0101745D02*
X0109653Y0102129D01*
X0109653Y0102896D01*
X0110037Y0103280D01*
X0110420Y0103280D01*
X0110804Y0102896D01*
X0110804Y0101745D01*
X0110037Y0101745D01*
X0110804Y0101745D02*
X0111571Y0102513D01*
X0111955Y0103280D01*
X0111955Y0104047D02*
X0110804Y0104047D01*
X0111188Y0104815D01*
X0111188Y0105198D01*
X0110804Y0105582D01*
X0110037Y0105582D01*
X0109653Y0105198D01*
X0109653Y0104431D01*
X0110037Y0104047D01*
X0111955Y0104047D02*
X0111955Y0105582D01*
X0111571Y0100978D02*
X0111955Y0100594D01*
X0111955Y0099827D01*
X0104422Y0100470D02*
X0104039Y0100087D01*
X0102504Y0100087D01*
X0102120Y0100470D01*
X0102120Y0101238D01*
X0102504Y0101621D01*
X0102504Y0102389D02*
X0102120Y0102772D01*
X0102120Y0103540D01*
X0102504Y0103923D01*
X0103271Y0103923D01*
X0103655Y0103540D01*
X0103655Y0103156D01*
X0103271Y0102389D01*
X0104422Y0102389D01*
X0104422Y0103923D01*
X0104422Y0104691D02*
X0104422Y0106225D01*
X0104039Y0106225D01*
X0102504Y0104691D01*
X0102120Y0104691D01*
X0104039Y0101621D02*
X0104422Y0101238D01*
X0104422Y0100470D01*
X0104285Y0123671D02*
X0102750Y0123671D01*
X0102367Y0124054D01*
X0102367Y0124822D01*
X0102750Y0125205D01*
X0102750Y0125973D02*
X0102367Y0126356D01*
X0102367Y0127124D01*
X0102750Y0127507D01*
X0103134Y0127507D01*
X0103518Y0127124D01*
X0103518Y0125973D01*
X0102750Y0125973D01*
X0103518Y0125973D02*
X0104285Y0126740D01*
X0104669Y0127507D01*
X0103518Y0128274D02*
X0103518Y0129425D01*
X0103134Y0129809D01*
X0102750Y0129809D01*
X0102367Y0129425D01*
X0102367Y0128658D01*
X0102750Y0128274D01*
X0103518Y0128274D01*
X0104285Y0129042D01*
X0104669Y0129809D01*
X0104285Y0125205D02*
X0104669Y0124822D01*
X0104669Y0124054D01*
X0104285Y0123671D01*
X0201980Y0090313D02*
X0201980Y0089929D01*
X0202363Y0089545D01*
X0203130Y0089545D01*
X0203514Y0089929D01*
X0203514Y0090313D01*
X0203130Y0090696D01*
X0202363Y0090696D01*
X0201980Y0090313D01*
X0202363Y0089545D02*
X0201980Y0089162D01*
X0201980Y0088778D01*
X0202363Y0088394D01*
X0203130Y0088394D01*
X0203514Y0088778D01*
X0203514Y0089162D01*
X0203130Y0089545D01*
X0204281Y0089545D02*
X0204281Y0088778D01*
X0204665Y0088394D01*
X0205432Y0088394D01*
X0205816Y0088778D01*
X0205816Y0089545D02*
X0205049Y0089929D01*
X0204665Y0089929D01*
X0204281Y0089545D01*
X0204281Y0090696D02*
X0205816Y0090696D01*
X0205816Y0089545D01*
X0206583Y0089545D02*
X0206967Y0089162D01*
X0208118Y0089162D01*
X0207351Y0089162D02*
X0206583Y0088394D01*
X0206583Y0089545D02*
X0206583Y0090313D01*
X0206967Y0090696D01*
X0208118Y0090696D01*
X0208118Y0088394D01*
X0207716Y0087200D02*
X0206182Y0087200D01*
X0205414Y0087200D02*
X0203880Y0087200D01*
X0203880Y0086816D01*
X0205414Y0085282D01*
X0205414Y0084898D01*
X0206182Y0085282D02*
X0206565Y0084898D01*
X0207333Y0084898D01*
X0207716Y0085282D01*
X0207716Y0086049D02*
X0206949Y0086433D01*
X0206565Y0086433D01*
X0206182Y0086049D01*
X0206182Y0085282D01*
X0207716Y0086049D02*
X0207716Y0087200D01*
X0208484Y0086816D02*
X0208484Y0086049D01*
X0208867Y0085665D01*
X0210018Y0085665D01*
X0210018Y0084898D02*
X0210018Y0087200D01*
X0208867Y0087200D01*
X0208484Y0086816D01*
X0209251Y0085665D02*
X0208484Y0084898D01*
D11*
X0113918Y0098967D02*
X0109975Y0098967D01*
X0109975Y0106847D01*
X0113918Y0106847D01*
X0113918Y0098967D01*
X0108204Y0097811D02*
X0101511Y0097811D01*
X0101511Y0110803D01*
X0108204Y0110803D01*
X0108204Y0097811D01*
X0089164Y0084756D02*
X0089164Y0080813D01*
X0081284Y0080813D01*
X0081284Y0084756D01*
X0089164Y0084756D01*
X0078199Y0084739D02*
X0078199Y0080796D01*
X0070318Y0080796D01*
X0070318Y0084739D01*
X0078199Y0084739D01*
X0068132Y0085553D02*
X0068132Y0081610D01*
X0060252Y0081610D01*
X0060252Y0085553D01*
X0068132Y0085553D01*
X0057810Y0081727D02*
X0053866Y0081727D01*
X0053866Y0089607D01*
X0057810Y0089607D01*
X0057810Y0081727D01*
X0051841Y0081882D02*
X0051841Y0089762D01*
X0047897Y0089762D01*
X0047897Y0081882D01*
X0051841Y0081882D01*
X0045911Y0085530D02*
X0032919Y0085530D01*
X0032919Y0092223D01*
X0045911Y0092223D01*
X0045911Y0085530D01*
X0036733Y0095258D02*
X0030434Y0095258D01*
X0030434Y0107957D01*
X0036733Y0107957D01*
X0036733Y0108250D01*
X0030434Y0108250D01*
X0030434Y0108744D01*
X0036733Y0108744D01*
X0036733Y0108250D01*
X0036733Y0107957D02*
X0036733Y0095258D01*
X0041041Y0099242D02*
X0041041Y0107122D01*
X0044984Y0107122D01*
X0044984Y0099242D01*
X0041041Y0099242D01*
X0036733Y0108744D02*
X0036733Y0109238D01*
X0030434Y0109238D01*
X0030434Y0108744D01*
X0030434Y0108250D02*
X0030434Y0107957D01*
X0034549Y0115163D02*
X0034549Y0119106D01*
X0042430Y0119106D01*
X0042430Y0115163D01*
X0034549Y0115163D01*
X0034557Y0120331D02*
X0034557Y0124274D01*
X0042438Y0124274D01*
X0042438Y0120331D01*
X0034557Y0120331D01*
X0034570Y0125628D02*
X0034570Y0129571D01*
X0042451Y0129571D01*
X0042451Y0125628D01*
X0034570Y0125628D01*
X0035226Y0135792D02*
X0041525Y0135792D01*
X0041525Y0136286D01*
X0041525Y0136779D01*
X0035226Y0136779D01*
X0035226Y0137073D01*
X0041525Y0137073D01*
X0041525Y0136779D01*
X0041525Y0137073D02*
X0041525Y0149771D01*
X0035226Y0149771D01*
X0035226Y0137073D01*
X0035226Y0136779D02*
X0035226Y0136286D01*
X0041525Y0136286D01*
X0035226Y0136286D02*
X0035226Y0135792D01*
X0048571Y0138968D02*
X0048571Y0146848D01*
X0052514Y0146848D01*
X0052514Y0138968D01*
X0048571Y0138968D01*
X0052596Y0158829D02*
X0052596Y0166709D01*
X0056540Y0166709D01*
X0056540Y0158829D01*
X0052596Y0158829D01*
X0057274Y0175667D02*
X0057274Y0188660D01*
X0063967Y0188660D01*
X0063967Y0175667D01*
X0057274Y0175667D01*
X0053784Y0176437D02*
X0053784Y0184318D01*
X0049840Y0184318D01*
X0049840Y0176437D01*
X0053784Y0176437D01*
X0065541Y0175701D02*
X0065541Y0188693D01*
X0072234Y0188693D01*
X0072234Y0175701D01*
X0065541Y0175701D01*
X0074202Y0175764D02*
X0074202Y0188756D01*
X0080895Y0188756D01*
X0080895Y0175764D01*
X0074202Y0175764D01*
X0082794Y0175730D02*
X0082794Y0188723D01*
X0089487Y0188723D01*
X0089487Y0175730D01*
X0082794Y0175730D01*
X0085587Y0173242D02*
X0085587Y0165362D01*
X0089530Y0165362D01*
X0089530Y0173242D01*
X0085587Y0173242D01*
X0091541Y0176502D02*
X0091541Y0184382D01*
X0095484Y0184382D01*
X0095484Y0176502D01*
X0091541Y0176502D01*
X0083362Y0166101D02*
X0079418Y0166101D01*
X0079418Y0158221D01*
X0083362Y0158221D01*
X0083362Y0166101D01*
X0102089Y0131674D02*
X0102089Y0123794D01*
X0106032Y0123794D01*
X0106032Y0131674D01*
X0102089Y0131674D01*
X0103817Y0200706D02*
X0103817Y0208586D01*
X0107760Y0208586D01*
X0107760Y0200706D01*
X0103817Y0200706D01*
X0107213Y0219220D02*
X0115094Y0219220D01*
X0115094Y0223163D01*
X0107213Y0223163D01*
X0107213Y0219220D01*
X0107245Y0226781D02*
X0115126Y0226781D01*
X0115126Y0230725D01*
X0107245Y0230725D01*
X0107245Y0226781D01*
X0089826Y0226413D02*
X0089826Y0222470D01*
X0081946Y0222470D01*
X0081946Y0226413D01*
X0089826Y0226413D01*
X0089833Y0228979D02*
X0081952Y0228979D01*
X0081952Y0232922D01*
X0089833Y0232922D01*
X0089833Y0228979D01*
D12*
X0089297Y0212409D02*
X0076897Y0212409D01*
X0076821Y0212407D01*
X0076745Y0212401D01*
X0076670Y0212392D01*
X0076595Y0212378D01*
X0076521Y0212361D01*
X0076448Y0212340D01*
X0076376Y0212316D01*
X0076305Y0212287D01*
X0076236Y0212256D01*
X0076169Y0212221D01*
X0076104Y0212182D01*
X0076040Y0212140D01*
X0075979Y0212095D01*
X0075920Y0212047D01*
X0075864Y0211996D01*
X0075810Y0211942D01*
X0075759Y0211886D01*
X0075711Y0211827D01*
X0075666Y0211766D01*
X0075624Y0211702D01*
X0075585Y0211637D01*
X0075550Y0211570D01*
X0075519Y0211501D01*
X0075490Y0211430D01*
X0075466Y0211358D01*
X0075445Y0211285D01*
X0075428Y0211211D01*
X0075414Y0211136D01*
X0075405Y0211061D01*
X0075399Y0210985D01*
X0075397Y0210909D01*
X0075397Y0193909D01*
X0075399Y0193833D01*
X0075405Y0193757D01*
X0075414Y0193682D01*
X0075428Y0193607D01*
X0075445Y0193533D01*
X0075466Y0193460D01*
X0075490Y0193388D01*
X0075519Y0193317D01*
X0075550Y0193248D01*
X0075585Y0193181D01*
X0075624Y0193116D01*
X0075666Y0193052D01*
X0075711Y0192991D01*
X0075759Y0192932D01*
X0075810Y0192876D01*
X0075864Y0192822D01*
X0075920Y0192771D01*
X0075979Y0192723D01*
X0076040Y0192678D01*
X0076104Y0192636D01*
X0076169Y0192597D01*
X0076236Y0192562D01*
X0076305Y0192531D01*
X0076376Y0192502D01*
X0076448Y0192478D01*
X0076521Y0192457D01*
X0076595Y0192440D01*
X0076670Y0192426D01*
X0076745Y0192417D01*
X0076821Y0192411D01*
X0076897Y0192409D01*
X0081097Y0192409D01*
X0085097Y0192409D01*
X0089297Y0192409D01*
X0089373Y0192411D01*
X0089449Y0192417D01*
X0089524Y0192426D01*
X0089599Y0192440D01*
X0089673Y0192457D01*
X0089746Y0192478D01*
X0089818Y0192502D01*
X0089889Y0192531D01*
X0089958Y0192562D01*
X0090025Y0192597D01*
X0090090Y0192636D01*
X0090154Y0192678D01*
X0090215Y0192723D01*
X0090274Y0192771D01*
X0090330Y0192822D01*
X0090384Y0192876D01*
X0090435Y0192932D01*
X0090483Y0192991D01*
X0090528Y0193052D01*
X0090570Y0193116D01*
X0090609Y0193181D01*
X0090644Y0193248D01*
X0090675Y0193317D01*
X0090704Y0193388D01*
X0090728Y0193460D01*
X0090749Y0193533D01*
X0090766Y0193607D01*
X0090780Y0193682D01*
X0090789Y0193757D01*
X0090795Y0193833D01*
X0090797Y0193909D01*
X0090797Y0210909D01*
X0090795Y0210985D01*
X0090789Y0211061D01*
X0090780Y0211136D01*
X0090766Y0211211D01*
X0090749Y0211285D01*
X0090728Y0211358D01*
X0090704Y0211430D01*
X0090675Y0211501D01*
X0090644Y0211570D01*
X0090609Y0211637D01*
X0090570Y0211702D01*
X0090528Y0211766D01*
X0090483Y0211827D01*
X0090435Y0211886D01*
X0090384Y0211942D01*
X0090330Y0211996D01*
X0090274Y0212047D01*
X0090215Y0212095D01*
X0090154Y0212140D01*
X0090090Y0212182D01*
X0090025Y0212221D01*
X0089958Y0212256D01*
X0089889Y0212287D01*
X0089818Y0212316D01*
X0089746Y0212340D01*
X0089673Y0212361D01*
X0089599Y0212378D01*
X0089524Y0212392D01*
X0089449Y0212401D01*
X0089373Y0212407D01*
X0089297Y0212409D01*
X0085097Y0192409D02*
X0085095Y0192497D01*
X0085089Y0192586D01*
X0085079Y0192674D01*
X0085066Y0192761D01*
X0085048Y0192848D01*
X0085027Y0192934D01*
X0085002Y0193019D01*
X0084973Y0193102D01*
X0084940Y0193185D01*
X0084904Y0193265D01*
X0084865Y0193344D01*
X0084822Y0193422D01*
X0084775Y0193497D01*
X0084725Y0193570D01*
X0084672Y0193641D01*
X0084616Y0193710D01*
X0084557Y0193776D01*
X0084495Y0193839D01*
X0084431Y0193899D01*
X0084364Y0193957D01*
X0084294Y0194011D01*
X0084222Y0194063D01*
X0084148Y0194111D01*
X0084071Y0194156D01*
X0083993Y0194197D01*
X0083913Y0194235D01*
X0083832Y0194269D01*
X0083749Y0194300D01*
X0083664Y0194327D01*
X0083579Y0194350D01*
X0083493Y0194369D01*
X0083405Y0194385D01*
X0083318Y0194397D01*
X0083230Y0194405D01*
X0083141Y0194409D01*
X0083053Y0194409D01*
X0082964Y0194405D01*
X0082876Y0194397D01*
X0082789Y0194385D01*
X0082701Y0194369D01*
X0082615Y0194350D01*
X0082530Y0194327D01*
X0082445Y0194300D01*
X0082362Y0194269D01*
X0082281Y0194235D01*
X0082201Y0194197D01*
X0082123Y0194156D01*
X0082046Y0194111D01*
X0081972Y0194063D01*
X0081900Y0194011D01*
X0081830Y0193957D01*
X0081763Y0193899D01*
X0081699Y0193839D01*
X0081637Y0193776D01*
X0081578Y0193710D01*
X0081522Y0193641D01*
X0081469Y0193570D01*
X0081419Y0193497D01*
X0081372Y0193422D01*
X0081329Y0193344D01*
X0081290Y0193265D01*
X0081254Y0193185D01*
X0081221Y0193102D01*
X0081192Y0193019D01*
X0081167Y0192934D01*
X0081146Y0192848D01*
X0081128Y0192761D01*
X0081115Y0192674D01*
X0081105Y0192586D01*
X0081099Y0192497D01*
X0081097Y0192409D01*
X0109148Y0050710D02*
X0109148Y0049710D01*
X0110648Y0049710D01*
X0110648Y0050710D02*
X0109148Y0050710D01*
X0102448Y0043210D02*
X0102448Y0025410D01*
X0097227Y0025419D02*
X0097227Y0043219D01*
X0077227Y0043219D02*
X0077227Y0035519D01*
X0077227Y0033119D01*
X0077227Y0025419D01*
X0089027Y0018919D02*
X0090527Y0018919D01*
X0090527Y0017919D01*
X0089027Y0017919D01*
X0122448Y0025410D02*
X0122448Y0033110D01*
X0122448Y0035510D01*
X0122448Y0043210D01*
X0127947Y0043186D02*
X0127947Y0035486D01*
X0127947Y0033086D01*
X0127947Y0025386D01*
X0139747Y0018886D02*
X0141247Y0018886D01*
X0141247Y0017886D01*
X0139747Y0017886D01*
X0147947Y0025386D02*
X0147947Y0043186D01*
X0153120Y0043209D02*
X0153120Y0025409D01*
X0173120Y0025409D02*
X0173120Y0033109D01*
X0173120Y0035509D01*
X0173120Y0043209D01*
X0178348Y0043175D02*
X0178348Y0025375D01*
X0198348Y0025375D02*
X0198348Y0033075D01*
X0198348Y0035475D01*
X0198348Y0043175D01*
X0203555Y0043212D02*
X0203555Y0025412D01*
X0223555Y0025412D02*
X0223555Y0033112D01*
X0223555Y0035512D01*
X0223555Y0043212D01*
X0211755Y0049712D02*
X0210255Y0049712D01*
X0210255Y0050712D01*
X0211755Y0050712D01*
X0186548Y0050675D02*
X0185048Y0050675D01*
X0185048Y0049675D01*
X0186548Y0049675D01*
X0161320Y0049709D02*
X0159820Y0049709D01*
X0159820Y0050709D01*
X0161320Y0050709D01*
D13*
X0173120Y0035509D02*
X0173051Y0035507D01*
X0172983Y0035501D01*
X0172915Y0035491D01*
X0172848Y0035478D01*
X0172782Y0035460D01*
X0172717Y0035439D01*
X0172653Y0035414D01*
X0172591Y0035386D01*
X0172530Y0035354D01*
X0172471Y0035319D01*
X0172415Y0035280D01*
X0172360Y0035238D01*
X0172309Y0035193D01*
X0172259Y0035145D01*
X0172213Y0035095D01*
X0172170Y0035042D01*
X0172129Y0034986D01*
X0172092Y0034929D01*
X0172059Y0034869D01*
X0172028Y0034807D01*
X0172002Y0034744D01*
X0171979Y0034680D01*
X0171959Y0034614D01*
X0171944Y0034547D01*
X0171932Y0034480D01*
X0171924Y0034412D01*
X0171920Y0034343D01*
X0171920Y0034275D01*
X0171924Y0034206D01*
X0171932Y0034138D01*
X0171944Y0034071D01*
X0171959Y0034004D01*
X0171979Y0033938D01*
X0172002Y0033874D01*
X0172028Y0033811D01*
X0172059Y0033749D01*
X0172092Y0033689D01*
X0172129Y0033632D01*
X0172170Y0033576D01*
X0172213Y0033523D01*
X0172259Y0033473D01*
X0172309Y0033425D01*
X0172360Y0033380D01*
X0172415Y0033338D01*
X0172471Y0033299D01*
X0172530Y0033264D01*
X0172591Y0033232D01*
X0172653Y0033204D01*
X0172717Y0033179D01*
X0172782Y0033158D01*
X0172848Y0033140D01*
X0172915Y0033127D01*
X0172983Y0033117D01*
X0173051Y0033111D01*
X0173120Y0033109D01*
X0198348Y0033075D02*
X0198279Y0033077D01*
X0198211Y0033083D01*
X0198143Y0033093D01*
X0198076Y0033106D01*
X0198010Y0033124D01*
X0197945Y0033145D01*
X0197881Y0033170D01*
X0197819Y0033198D01*
X0197758Y0033230D01*
X0197699Y0033265D01*
X0197643Y0033304D01*
X0197588Y0033346D01*
X0197537Y0033391D01*
X0197487Y0033439D01*
X0197441Y0033489D01*
X0197398Y0033542D01*
X0197357Y0033598D01*
X0197320Y0033655D01*
X0197287Y0033715D01*
X0197256Y0033777D01*
X0197230Y0033840D01*
X0197207Y0033904D01*
X0197187Y0033970D01*
X0197172Y0034037D01*
X0197160Y0034104D01*
X0197152Y0034172D01*
X0197148Y0034241D01*
X0197148Y0034309D01*
X0197152Y0034378D01*
X0197160Y0034446D01*
X0197172Y0034513D01*
X0197187Y0034580D01*
X0197207Y0034646D01*
X0197230Y0034710D01*
X0197256Y0034773D01*
X0197287Y0034835D01*
X0197320Y0034895D01*
X0197357Y0034952D01*
X0197398Y0035008D01*
X0197441Y0035061D01*
X0197487Y0035111D01*
X0197537Y0035159D01*
X0197588Y0035204D01*
X0197643Y0035246D01*
X0197699Y0035285D01*
X0197758Y0035320D01*
X0197819Y0035352D01*
X0197881Y0035380D01*
X0197945Y0035405D01*
X0198010Y0035426D01*
X0198076Y0035444D01*
X0198143Y0035457D01*
X0198211Y0035467D01*
X0198279Y0035473D01*
X0198348Y0035475D01*
X0223555Y0035512D02*
X0223486Y0035510D01*
X0223418Y0035504D01*
X0223350Y0035494D01*
X0223283Y0035481D01*
X0223217Y0035463D01*
X0223152Y0035442D01*
X0223088Y0035417D01*
X0223026Y0035389D01*
X0222965Y0035357D01*
X0222906Y0035322D01*
X0222850Y0035283D01*
X0222795Y0035241D01*
X0222744Y0035196D01*
X0222694Y0035148D01*
X0222648Y0035098D01*
X0222605Y0035045D01*
X0222564Y0034989D01*
X0222527Y0034932D01*
X0222494Y0034872D01*
X0222463Y0034810D01*
X0222437Y0034747D01*
X0222414Y0034683D01*
X0222394Y0034617D01*
X0222379Y0034550D01*
X0222367Y0034483D01*
X0222359Y0034415D01*
X0222355Y0034346D01*
X0222355Y0034278D01*
X0222359Y0034209D01*
X0222367Y0034141D01*
X0222379Y0034074D01*
X0222394Y0034007D01*
X0222414Y0033941D01*
X0222437Y0033877D01*
X0222463Y0033814D01*
X0222494Y0033752D01*
X0222527Y0033692D01*
X0222564Y0033635D01*
X0222605Y0033579D01*
X0222648Y0033526D01*
X0222694Y0033476D01*
X0222744Y0033428D01*
X0222795Y0033383D01*
X0222850Y0033341D01*
X0222906Y0033302D01*
X0222965Y0033267D01*
X0223026Y0033235D01*
X0223088Y0033207D01*
X0223152Y0033182D01*
X0223217Y0033161D01*
X0223283Y0033143D01*
X0223350Y0033130D01*
X0223418Y0033120D01*
X0223486Y0033114D01*
X0223555Y0033112D01*
X0127947Y0033086D02*
X0128016Y0033088D01*
X0128084Y0033094D01*
X0128152Y0033104D01*
X0128219Y0033117D01*
X0128285Y0033135D01*
X0128350Y0033156D01*
X0128414Y0033181D01*
X0128476Y0033209D01*
X0128537Y0033241D01*
X0128596Y0033276D01*
X0128652Y0033315D01*
X0128707Y0033357D01*
X0128758Y0033402D01*
X0128808Y0033450D01*
X0128854Y0033500D01*
X0128897Y0033553D01*
X0128938Y0033609D01*
X0128975Y0033666D01*
X0129008Y0033726D01*
X0129039Y0033788D01*
X0129065Y0033851D01*
X0129088Y0033915D01*
X0129108Y0033981D01*
X0129123Y0034048D01*
X0129135Y0034115D01*
X0129143Y0034183D01*
X0129147Y0034252D01*
X0129147Y0034320D01*
X0129143Y0034389D01*
X0129135Y0034457D01*
X0129123Y0034524D01*
X0129108Y0034591D01*
X0129088Y0034657D01*
X0129065Y0034721D01*
X0129039Y0034784D01*
X0129008Y0034846D01*
X0128975Y0034906D01*
X0128938Y0034963D01*
X0128897Y0035019D01*
X0128854Y0035072D01*
X0128808Y0035122D01*
X0128758Y0035170D01*
X0128707Y0035215D01*
X0128652Y0035257D01*
X0128596Y0035296D01*
X0128537Y0035331D01*
X0128476Y0035363D01*
X0128414Y0035391D01*
X0128350Y0035416D01*
X0128285Y0035437D01*
X0128219Y0035455D01*
X0128152Y0035468D01*
X0128084Y0035478D01*
X0128016Y0035484D01*
X0127947Y0035486D01*
X0122448Y0035510D02*
X0122379Y0035508D01*
X0122311Y0035502D01*
X0122243Y0035492D01*
X0122176Y0035479D01*
X0122110Y0035461D01*
X0122045Y0035440D01*
X0121981Y0035415D01*
X0121919Y0035387D01*
X0121858Y0035355D01*
X0121799Y0035320D01*
X0121743Y0035281D01*
X0121688Y0035239D01*
X0121637Y0035194D01*
X0121587Y0035146D01*
X0121541Y0035096D01*
X0121498Y0035043D01*
X0121457Y0034987D01*
X0121420Y0034930D01*
X0121387Y0034870D01*
X0121356Y0034808D01*
X0121330Y0034745D01*
X0121307Y0034681D01*
X0121287Y0034615D01*
X0121272Y0034548D01*
X0121260Y0034481D01*
X0121252Y0034413D01*
X0121248Y0034344D01*
X0121248Y0034276D01*
X0121252Y0034207D01*
X0121260Y0034139D01*
X0121272Y0034072D01*
X0121287Y0034005D01*
X0121307Y0033939D01*
X0121330Y0033875D01*
X0121356Y0033812D01*
X0121387Y0033750D01*
X0121420Y0033690D01*
X0121457Y0033633D01*
X0121498Y0033577D01*
X0121541Y0033524D01*
X0121587Y0033474D01*
X0121637Y0033426D01*
X0121688Y0033381D01*
X0121743Y0033339D01*
X0121799Y0033300D01*
X0121858Y0033265D01*
X0121919Y0033233D01*
X0121981Y0033205D01*
X0122045Y0033180D01*
X0122110Y0033159D01*
X0122176Y0033141D01*
X0122243Y0033128D01*
X0122311Y0033118D01*
X0122379Y0033112D01*
X0122448Y0033110D01*
X0077227Y0033119D02*
X0077296Y0033121D01*
X0077364Y0033127D01*
X0077432Y0033137D01*
X0077499Y0033150D01*
X0077565Y0033168D01*
X0077630Y0033189D01*
X0077694Y0033214D01*
X0077756Y0033242D01*
X0077817Y0033274D01*
X0077876Y0033309D01*
X0077932Y0033348D01*
X0077987Y0033390D01*
X0078038Y0033435D01*
X0078088Y0033483D01*
X0078134Y0033533D01*
X0078177Y0033586D01*
X0078218Y0033642D01*
X0078255Y0033699D01*
X0078288Y0033759D01*
X0078319Y0033821D01*
X0078345Y0033884D01*
X0078368Y0033948D01*
X0078388Y0034014D01*
X0078403Y0034081D01*
X0078415Y0034148D01*
X0078423Y0034216D01*
X0078427Y0034285D01*
X0078427Y0034353D01*
X0078423Y0034422D01*
X0078415Y0034490D01*
X0078403Y0034557D01*
X0078388Y0034624D01*
X0078368Y0034690D01*
X0078345Y0034754D01*
X0078319Y0034817D01*
X0078288Y0034879D01*
X0078255Y0034939D01*
X0078218Y0034996D01*
X0078177Y0035052D01*
X0078134Y0035105D01*
X0078088Y0035155D01*
X0078038Y0035203D01*
X0077987Y0035248D01*
X0077932Y0035290D01*
X0077876Y0035329D01*
X0077817Y0035364D01*
X0077756Y0035396D01*
X0077694Y0035424D01*
X0077630Y0035449D01*
X0077565Y0035470D01*
X0077499Y0035488D01*
X0077432Y0035501D01*
X0077364Y0035511D01*
X0077296Y0035517D01*
X0077227Y0035519D01*
D14*
X0079675Y0035466D02*
X0080042Y0035099D01*
X0080409Y0035099D01*
X0080776Y0035466D01*
X0081143Y0035099D01*
X0081510Y0035099D01*
X0081877Y0035466D01*
X0081877Y0036200D01*
X0081510Y0036567D01*
X0081510Y0037401D02*
X0079675Y0037401D01*
X0080042Y0036567D02*
X0079675Y0036200D01*
X0079675Y0035466D01*
X0080776Y0035466D02*
X0080776Y0035833D01*
X0081510Y0037401D02*
X0081877Y0037768D01*
X0081877Y0038502D01*
X0081510Y0038869D01*
X0079675Y0038869D01*
X0077693Y0045833D02*
X0074557Y0048969D01*
X0074557Y0047401D02*
X0077693Y0047401D01*
X0077693Y0048969D02*
X0074557Y0045833D01*
X0076125Y0045833D02*
X0076125Y0048969D01*
X0107898Y0036229D02*
X0107898Y0034761D01*
X0107898Y0035495D02*
X0110100Y0035495D01*
X0109366Y0034761D01*
X0110100Y0033927D02*
X0108265Y0033927D01*
X0107898Y0033560D01*
X0107898Y0032826D01*
X0108265Y0032460D01*
X0110100Y0032460D01*
X0121982Y0022796D02*
X0125118Y0019660D01*
X0125118Y0021228D02*
X0121982Y0021228D01*
X0121982Y0019660D02*
X0125118Y0022796D01*
X0123550Y0022796D02*
X0123550Y0019660D01*
X0133995Y0029434D02*
X0134362Y0029067D01*
X0134729Y0029067D01*
X0135096Y0029434D01*
X0135096Y0030168D01*
X0134729Y0030535D01*
X0134362Y0030535D01*
X0133995Y0030168D01*
X0133995Y0029434D01*
X0135096Y0029434D02*
X0135463Y0029067D01*
X0135830Y0029067D01*
X0136197Y0029434D01*
X0136197Y0030168D01*
X0135830Y0030535D01*
X0135463Y0030535D01*
X0135096Y0030168D01*
X0135830Y0031369D02*
X0133995Y0031369D01*
X0133995Y0032836D02*
X0135830Y0032836D01*
X0136197Y0032470D01*
X0136197Y0031736D01*
X0135830Y0031369D01*
X0128413Y0045800D02*
X0125277Y0048936D01*
X0125277Y0047368D02*
X0128413Y0047368D01*
X0128413Y0048936D02*
X0125277Y0045800D01*
X0126845Y0045800D02*
X0126845Y0048936D01*
X0157070Y0034362D02*
X0157437Y0034729D01*
X0157804Y0034729D01*
X0158171Y0034362D01*
X0158171Y0033261D01*
X0157437Y0033261D01*
X0157070Y0033628D01*
X0157070Y0034362D01*
X0158171Y0033261D02*
X0158905Y0033995D01*
X0159272Y0034729D01*
X0159272Y0032427D02*
X0157437Y0032427D01*
X0157070Y0032060D01*
X0157070Y0031326D01*
X0157437Y0030959D01*
X0159272Y0030959D01*
X0172654Y0022795D02*
X0175790Y0019659D01*
X0175790Y0021227D02*
X0172654Y0021227D01*
X0172654Y0019659D02*
X0175790Y0022795D01*
X0174222Y0022795D02*
X0174222Y0019659D01*
X0193723Y0033024D02*
X0193723Y0033758D01*
X0194090Y0034125D01*
X0195925Y0034125D01*
X0195925Y0034959D02*
X0194824Y0034959D01*
X0195191Y0035693D01*
X0195191Y0036060D01*
X0194824Y0036427D01*
X0194090Y0036427D01*
X0193723Y0036060D01*
X0193723Y0035326D01*
X0194090Y0034959D01*
X0195925Y0034959D02*
X0195925Y0036427D01*
X0195925Y0032657D02*
X0194090Y0032657D01*
X0193723Y0033024D01*
X0197882Y0022761D02*
X0201018Y0019625D01*
X0199450Y0019625D02*
X0199450Y0022761D01*
X0201018Y0022761D02*
X0197882Y0019625D01*
X0197882Y0021193D02*
X0201018Y0021193D01*
X0221060Y0035337D02*
X0221060Y0036071D01*
X0221427Y0036438D01*
X0223262Y0036438D01*
X0222161Y0037272D02*
X0222161Y0038740D01*
X0221060Y0038373D02*
X0223262Y0038373D01*
X0222161Y0037272D01*
X0221060Y0035337D02*
X0221427Y0034970D01*
X0223262Y0034970D01*
X0223089Y0022798D02*
X0226225Y0019662D01*
X0224657Y0019662D02*
X0224657Y0022798D01*
X0226225Y0022798D02*
X0223089Y0019662D01*
X0223089Y0021230D02*
X0226225Y0021230D01*
X0081986Y0188559D02*
X0081252Y0188559D01*
X0080885Y0188926D01*
X0080885Y0190761D01*
X0080051Y0190027D02*
X0079317Y0190761D01*
X0079317Y0188559D01*
X0080051Y0188559D02*
X0078583Y0188559D01*
X0077749Y0188559D02*
X0076281Y0188559D01*
X0077015Y0188559D02*
X0077015Y0190761D01*
X0077749Y0190027D01*
X0081986Y0188559D02*
X0082353Y0188926D01*
X0082353Y0190761D01*
D15*
X0091829Y0139957D02*
X0057183Y0139957D01*
X0055608Y0138383D01*
X0055608Y0103737D01*
X0057183Y0102162D01*
X0091829Y0102162D01*
X0093404Y0103737D01*
X0093404Y0138383D01*
X0091829Y0139957D01*
D16*
X0057645Y0136808D02*
X0057647Y0136875D01*
X0057653Y0136941D01*
X0057663Y0137007D01*
X0057677Y0137072D01*
X0057694Y0137136D01*
X0057716Y0137199D01*
X0057741Y0137261D01*
X0057770Y0137321D01*
X0057803Y0137379D01*
X0057838Y0137435D01*
X0057878Y0137489D01*
X0057920Y0137540D01*
X0057965Y0137589D01*
X0058013Y0137635D01*
X0058064Y0137678D01*
X0058117Y0137718D01*
X0058173Y0137755D01*
X0058231Y0137788D01*
X0058290Y0137818D01*
X0058351Y0137844D01*
X0058414Y0137867D01*
X0058478Y0137885D01*
X0058543Y0137900D01*
X0058609Y0137911D01*
X0058675Y0137918D01*
X0058741Y0137921D01*
X0058808Y0137920D01*
X0058874Y0137915D01*
X0058940Y0137906D01*
X0059006Y0137893D01*
X0059070Y0137876D01*
X0059133Y0137856D01*
X0059195Y0137831D01*
X0059256Y0137803D01*
X0059315Y0137772D01*
X0059371Y0137737D01*
X0059426Y0137699D01*
X0059478Y0137657D01*
X0059527Y0137612D01*
X0059574Y0137565D01*
X0059618Y0137515D01*
X0059658Y0137462D01*
X0059696Y0137407D01*
X0059730Y0137350D01*
X0059761Y0137291D01*
X0059788Y0137230D01*
X0059811Y0137168D01*
X0059831Y0137104D01*
X0059847Y0137039D01*
X0059859Y0136974D01*
X0059867Y0136908D01*
X0059871Y0136841D01*
X0059871Y0136775D01*
X0059867Y0136708D01*
X0059859Y0136642D01*
X0059847Y0136577D01*
X0059831Y0136512D01*
X0059811Y0136448D01*
X0059788Y0136386D01*
X0059761Y0136325D01*
X0059730Y0136266D01*
X0059696Y0136209D01*
X0059658Y0136154D01*
X0059618Y0136101D01*
X0059574Y0136051D01*
X0059527Y0136004D01*
X0059478Y0135959D01*
X0059426Y0135917D01*
X0059371Y0135879D01*
X0059314Y0135844D01*
X0059256Y0135813D01*
X0059195Y0135785D01*
X0059133Y0135760D01*
X0059070Y0135740D01*
X0059006Y0135723D01*
X0058940Y0135710D01*
X0058874Y0135701D01*
X0058808Y0135696D01*
X0058741Y0135695D01*
X0058675Y0135698D01*
X0058609Y0135705D01*
X0058543Y0135716D01*
X0058478Y0135731D01*
X0058414Y0135749D01*
X0058351Y0135772D01*
X0058290Y0135798D01*
X0058231Y0135828D01*
X0058173Y0135861D01*
X0058117Y0135898D01*
X0058064Y0135938D01*
X0058013Y0135981D01*
X0057965Y0136027D01*
X0057920Y0136076D01*
X0057878Y0136127D01*
X0057838Y0136181D01*
X0057803Y0136237D01*
X0057770Y0136295D01*
X0057741Y0136355D01*
X0057716Y0136417D01*
X0057694Y0136480D01*
X0057677Y0136544D01*
X0057663Y0136609D01*
X0057653Y0136675D01*
X0057647Y0136741D01*
X0057645Y0136808D01*
M02*
