G75*
%MOIN*%
%OFA0B0*%
%FSLAX24Y24*%
%IPPOS*%
%LPD*%
%AMOC8*
5,1,8,0,0,1.08239X$1,22.5*
%
%ADD10R,0.0276X0.0354*%
%ADD11R,0.0354X0.0276*%
%ADD12R,0.0394X0.0551*%
%ADD13R,0.0551X0.0394*%
%ADD14R,0.0256X0.0217*%
%ADD15R,0.0217X0.0256*%
%ADD16R,0.0140X0.0580*%
%ADD17R,0.0118X0.0472*%
%ADD18R,0.0472X0.0118*%
%ADD19R,0.0800X0.0260*%
D10*
X003623Y005454D03*
X004135Y005454D03*
X004643Y005465D03*
X005155Y005465D03*
X005717Y005461D03*
X006229Y005461D03*
X006738Y005442D03*
X007249Y005442D03*
X007257Y006050D03*
X006745Y006050D03*
X006236Y006068D03*
X005724Y006068D03*
X005163Y006070D03*
X004651Y006070D03*
X004136Y006063D03*
X003624Y006063D03*
X003623Y006726D03*
X004135Y006726D03*
X004641Y006728D03*
X005153Y006728D03*
X005714Y006728D03*
X006226Y006728D03*
X006746Y006720D03*
X007257Y006720D03*
X007256Y007387D03*
X006744Y007387D03*
X006231Y007392D03*
X005719Y007392D03*
X005158Y007392D03*
X004646Y007392D03*
X004135Y007390D03*
X003623Y007390D03*
X013026Y008748D03*
X013028Y009233D03*
X013029Y009713D03*
X013032Y010190D03*
X013033Y010668D03*
X013545Y010668D03*
X013544Y010190D03*
X013541Y009713D03*
X013540Y009233D03*
X013538Y008748D03*
X014039Y008754D03*
X014032Y009228D03*
X014031Y009710D03*
X014033Y010187D03*
X014031Y010663D03*
X014543Y010663D03*
X014544Y010187D03*
X014543Y009710D03*
X014543Y009228D03*
X014551Y008754D03*
X015059Y008742D03*
X015060Y009218D03*
X015058Y009699D03*
X015060Y010175D03*
X015058Y010660D03*
X015570Y010660D03*
X015572Y010175D03*
X016081Y010182D03*
X016080Y010665D03*
X016592Y010665D03*
X016593Y010182D03*
X016592Y009704D03*
X016597Y009224D03*
X016595Y008748D03*
X016083Y008748D03*
X015570Y008742D03*
X015571Y009218D03*
X016086Y009224D03*
X016080Y009704D03*
X015570Y009699D03*
X017119Y009703D03*
X017123Y010184D03*
X017121Y010668D03*
X017633Y010668D03*
X017635Y010184D03*
X017631Y009703D03*
X017643Y009210D03*
X017642Y008718D03*
X018150Y008724D03*
X018153Y009215D03*
X018146Y009705D03*
X018150Y010187D03*
X018152Y010675D03*
X018663Y010675D03*
X018662Y010187D03*
X018658Y009705D03*
X018665Y009215D03*
X018662Y008724D03*
X019166Y008722D03*
X019171Y009213D03*
X019167Y009704D03*
X019167Y010187D03*
X019165Y010675D03*
X019677Y010675D03*
X019679Y010187D03*
X019678Y009704D03*
X019683Y009213D03*
X019678Y008722D03*
X020188Y008723D03*
X020187Y009223D03*
X020183Y009707D03*
X020185Y010187D03*
X020186Y010676D03*
X020698Y010676D03*
X020697Y010187D03*
X020694Y009707D03*
X020699Y009223D03*
X020700Y008723D03*
X020803Y012171D03*
X020812Y012656D03*
X020814Y013138D03*
X020808Y013620D03*
X020809Y014094D03*
X021321Y014094D03*
X021320Y013620D03*
X021326Y013138D03*
X021324Y012656D03*
X021315Y012171D03*
X019924Y012171D03*
X019929Y012655D03*
X019931Y013138D03*
X019928Y013618D03*
X019927Y014094D03*
X019415Y014094D03*
X019416Y013618D03*
X019419Y013138D03*
X019418Y012655D03*
X019412Y012171D03*
X018530Y012172D03*
X018533Y012656D03*
X018534Y013137D03*
X018534Y013618D03*
X018534Y014094D03*
X018022Y014094D03*
X018022Y013618D03*
X018022Y013137D03*
X018021Y012656D03*
X018018Y012172D03*
X017133Y012177D03*
X016621Y012177D03*
X016620Y012657D03*
X017132Y012657D03*
X017133Y013139D03*
X017133Y013620D03*
X016621Y013620D03*
X016621Y013139D03*
X016622Y014092D03*
X017134Y014092D03*
X017294Y016096D03*
X017806Y016096D03*
X017806Y016689D03*
X017295Y016689D03*
X016695Y016706D03*
X016183Y016706D03*
X016184Y016105D03*
X016696Y016105D03*
X016689Y017312D03*
X016177Y017312D03*
X016159Y017919D03*
X016671Y017919D03*
X017270Y017903D03*
X017782Y017903D03*
X017800Y017295D03*
X017288Y017295D03*
X017259Y018513D03*
X017771Y018513D03*
X016661Y018522D03*
X016150Y018522D03*
X019624Y018678D03*
X020136Y018678D03*
X020135Y019274D03*
X019623Y019274D03*
X019614Y019878D03*
X020126Y019878D03*
X020107Y020485D03*
X019596Y020485D03*
X019587Y021091D03*
X020098Y021091D03*
X017131Y009210D03*
X017130Y008718D03*
X024574Y004640D03*
X025086Y004640D03*
D11*
X014600Y020332D03*
X014600Y020844D03*
X013989Y020839D03*
X013989Y020327D03*
X013340Y020325D03*
X013340Y020837D03*
X012735Y020833D03*
X012735Y020321D03*
X012144Y020309D03*
X012144Y020821D03*
X012127Y021463D03*
X012127Y021975D03*
X012127Y022633D03*
X012127Y023145D03*
X012734Y023145D03*
X012734Y022633D03*
X013343Y022633D03*
X013343Y023144D03*
X013991Y023140D03*
X013991Y022628D03*
X014596Y022628D03*
X014596Y023140D03*
X014596Y021967D03*
X014596Y021455D03*
X013988Y021455D03*
X013988Y021967D03*
X013341Y021971D03*
X013341Y021459D03*
X012732Y021461D03*
X012732Y021973D03*
X015920Y021937D03*
X015920Y022449D03*
X016524Y022448D03*
X016524Y021937D03*
X017140Y021931D03*
X017140Y022443D03*
X017773Y022433D03*
X017773Y021921D03*
X018381Y021935D03*
X018381Y022447D03*
X018346Y021233D03*
X018346Y020721D03*
X017749Y020720D03*
X017749Y021232D03*
X017144Y021226D03*
X017144Y020715D03*
X016539Y020700D03*
X016539Y021212D03*
X015934Y021201D03*
X015934Y020690D03*
X007126Y004915D03*
X007126Y004403D03*
X007117Y004011D03*
X007117Y003500D03*
X007118Y003058D03*
X007118Y002546D03*
X007121Y002160D03*
X007121Y001648D03*
D12*
X004207Y009081D03*
X003420Y009081D03*
D13*
X010358Y010230D03*
X010358Y011018D03*
X008486Y018022D03*
X008486Y018810D03*
X007627Y018813D03*
X007627Y018025D03*
X006761Y018019D03*
X006761Y018807D03*
X005934Y018803D03*
X005934Y018016D03*
D14*
X005053Y018014D03*
X005053Y018447D03*
X005329Y016687D03*
X005329Y016254D03*
X004926Y014701D03*
X004926Y014267D03*
X008011Y016193D03*
X008011Y016626D03*
X008628Y016907D03*
X008628Y017340D03*
X009223Y018021D03*
X009223Y018454D03*
X010451Y020441D03*
X010451Y020874D03*
X010278Y013183D03*
X010278Y012750D03*
X011067Y010700D03*
X011067Y010267D03*
X005456Y008976D03*
X005456Y008543D03*
X004859Y008559D03*
X004859Y008992D03*
X004173Y010295D03*
X004173Y010728D03*
D15*
X003937Y011907D03*
X003504Y011907D03*
X003505Y012423D03*
X003938Y012423D03*
X003940Y012953D03*
X003506Y012953D03*
X006075Y008551D03*
X006508Y008551D03*
X007081Y008470D03*
X007514Y008470D03*
X008178Y008472D03*
X008611Y008472D03*
X010771Y022312D03*
X011204Y022312D03*
X011207Y023068D03*
X010774Y023068D03*
X008678Y023288D03*
X008245Y023288D03*
X008244Y022637D03*
X008677Y022637D03*
D16*
X008595Y004775D03*
X008855Y004775D03*
X009105Y004775D03*
X009365Y004775D03*
X010347Y004774D03*
X010607Y004774D03*
X010857Y004774D03*
X011117Y004774D03*
X011377Y004774D03*
X011627Y004774D03*
X011887Y004774D03*
X012897Y004772D03*
X013157Y004772D03*
X013407Y004772D03*
X013667Y004772D03*
X013927Y004772D03*
X014177Y004772D03*
X014437Y004772D03*
X015414Y004774D03*
X015674Y004774D03*
X015924Y004774D03*
X016184Y004774D03*
X016444Y004774D03*
X016694Y004774D03*
X016954Y004774D03*
X017937Y004771D03*
X018197Y004771D03*
X018447Y004771D03*
X018707Y004771D03*
X018967Y004771D03*
X019217Y004771D03*
X019477Y004771D03*
X020457Y004774D03*
X020717Y004774D03*
X020967Y004774D03*
X021227Y004774D03*
X021487Y004774D03*
X021737Y004774D03*
X021997Y004774D03*
X021997Y002474D03*
X021737Y002474D03*
X021487Y002474D03*
X021227Y002474D03*
X020967Y002474D03*
X020717Y002474D03*
X020457Y002474D03*
X019477Y002471D03*
X019217Y002471D03*
X018967Y002471D03*
X018707Y002471D03*
X018447Y002471D03*
X018197Y002471D03*
X017937Y002471D03*
X016954Y002474D03*
X016694Y002474D03*
X016444Y002474D03*
X016184Y002474D03*
X015924Y002474D03*
X015674Y002474D03*
X015414Y002474D03*
X014437Y002472D03*
X014177Y002472D03*
X013927Y002472D03*
X013667Y002472D03*
X013407Y002472D03*
X013157Y002472D03*
X012897Y002472D03*
X011887Y002474D03*
X011627Y002474D03*
X011377Y002474D03*
X011117Y002474D03*
X010857Y002474D03*
X010607Y002474D03*
X010347Y002474D03*
X009365Y002475D03*
X009105Y002475D03*
X008855Y002475D03*
X008595Y002475D03*
X008335Y002475D03*
X008085Y002475D03*
X007825Y002475D03*
X007825Y004775D03*
X008085Y004775D03*
X008335Y004775D03*
D17*
X008405Y010055D03*
X008208Y010055D03*
X008012Y010055D03*
X007815Y010055D03*
X007618Y010055D03*
X007421Y010055D03*
X007224Y010055D03*
X007027Y010055D03*
X006830Y010055D03*
X006634Y010055D03*
X006437Y010055D03*
X006240Y010055D03*
X006043Y010055D03*
X005846Y010055D03*
X008602Y010055D03*
X008799Y010055D03*
X008799Y014543D03*
X008602Y014543D03*
X008405Y014543D03*
X008208Y014543D03*
X008012Y014543D03*
X007815Y014543D03*
X007618Y014543D03*
X007421Y014543D03*
X007224Y014543D03*
X007027Y014543D03*
X006830Y014543D03*
X006634Y014543D03*
X006437Y014543D03*
X006240Y014543D03*
X006043Y014543D03*
X005846Y014543D03*
D18*
X005078Y013776D03*
X005078Y013579D03*
X005078Y013382D03*
X005078Y013185D03*
X005078Y012988D03*
X005078Y012791D03*
X005078Y012594D03*
X005078Y012398D03*
X005078Y012201D03*
X005078Y012004D03*
X005078Y011807D03*
X005078Y011610D03*
X005078Y011413D03*
X005078Y011217D03*
X005078Y011020D03*
X005078Y010823D03*
X009567Y010823D03*
X009567Y011020D03*
X009567Y011217D03*
X009567Y011413D03*
X009567Y011610D03*
X009567Y011807D03*
X009567Y012004D03*
X009567Y012201D03*
X009567Y012398D03*
X009567Y012594D03*
X009567Y012791D03*
X009567Y012988D03*
X009567Y013185D03*
X009567Y013382D03*
X009567Y013579D03*
X009567Y013776D03*
D19*
X009392Y019684D03*
X009392Y020184D03*
X009392Y020684D03*
X009392Y021184D03*
X006972Y021184D03*
X006972Y020684D03*
X006972Y020184D03*
X006972Y019684D03*
M02*
