G75*
%MOIN*%
%OFA0B0*%
%FSLAX24Y24*%
%IPPOS*%
%LPD*%
%AMOC8*
5,1,8,0,0,1.08239X$1,22.5*
%
%ADD10C,0.0020*%
%ADD11C,0.0050*%
%ADD12C,0.0060*%
%ADD13C,0.0000*%
%ADD14C,0.0030*%
%ADD15C,0.0080*%
%ADD16C,0.0100*%
D10*
X004756Y004917D02*
X004909Y004917D01*
X004756Y005071D01*
X004756Y005109D01*
X004794Y005147D01*
X004871Y005147D01*
X004909Y005109D01*
X005063Y005147D02*
X005063Y004917D01*
X005139Y004917D02*
X004986Y004917D01*
X005139Y005071D02*
X005063Y005147D01*
X005216Y005109D02*
X005216Y005032D01*
X005255Y004994D01*
X005370Y004994D01*
X005370Y004917D02*
X005370Y005147D01*
X005255Y005147D01*
X005216Y005109D01*
X005293Y004994D02*
X005216Y004917D01*
X005956Y004980D02*
X005994Y004941D01*
X006071Y004941D01*
X006109Y004980D01*
X005956Y005133D01*
X005956Y004980D01*
X006109Y004980D02*
X006109Y005133D01*
X006071Y005172D01*
X005994Y005172D01*
X005956Y005133D01*
X006186Y004941D02*
X006339Y004941D01*
X006263Y004941D02*
X006263Y005172D01*
X006339Y005095D01*
X006416Y005133D02*
X006416Y005057D01*
X006455Y005018D01*
X006570Y005018D01*
X006570Y004941D02*
X006570Y005172D01*
X006455Y005172D01*
X006416Y005133D01*
X006493Y005018D02*
X006416Y004941D01*
X006498Y004864D02*
X006575Y004864D01*
X006613Y004825D01*
X006613Y004787D01*
X006575Y004749D01*
X006460Y004749D01*
X006460Y004825D02*
X006460Y004672D01*
X006498Y004634D01*
X006575Y004634D01*
X006613Y004672D01*
X006690Y004634D02*
X006767Y004710D01*
X006728Y004710D02*
X006843Y004710D01*
X006843Y004634D02*
X006843Y004864D01*
X006728Y004864D01*
X006690Y004825D01*
X006690Y004749D01*
X006728Y004710D01*
X006498Y004864D02*
X006460Y004825D01*
X006610Y004112D02*
X006610Y003958D01*
X006610Y003881D02*
X006610Y003728D01*
X006610Y003805D02*
X006840Y003805D01*
X006763Y003728D01*
X006725Y003651D02*
X006687Y003613D01*
X006687Y003498D01*
X006687Y003574D02*
X006610Y003651D01*
X006725Y003651D02*
X006802Y003651D01*
X006840Y003613D01*
X006840Y003498D01*
X006610Y003498D01*
X006763Y003958D02*
X006840Y004035D01*
X006610Y004035D01*
X006621Y003103D02*
X006583Y003064D01*
X006583Y002988D01*
X006621Y002949D01*
X006583Y002873D02*
X006583Y002719D01*
X006583Y002642D02*
X006660Y002566D01*
X006660Y002604D02*
X006660Y002489D01*
X006583Y002489D02*
X006813Y002489D01*
X006813Y002604D01*
X006775Y002642D01*
X006698Y002642D01*
X006660Y002604D01*
X006737Y002719D02*
X006813Y002796D01*
X006583Y002796D01*
X006775Y002949D02*
X006813Y002988D01*
X006813Y003064D01*
X006775Y003103D01*
X006737Y003103D01*
X006698Y003064D01*
X006660Y003103D01*
X006621Y003103D01*
X006698Y003064D02*
X006698Y003026D01*
X006717Y002082D02*
X006641Y002082D01*
X006602Y002044D01*
X006602Y001967D01*
X006641Y001929D01*
X006717Y001929D02*
X006756Y002006D01*
X006756Y002044D01*
X006717Y002082D01*
X006832Y002082D02*
X006832Y001929D01*
X006717Y001929D01*
X006602Y001852D02*
X006602Y001699D01*
X006602Y001775D02*
X006832Y001775D01*
X006756Y001699D01*
X006794Y001622D02*
X006717Y001622D01*
X006679Y001583D01*
X006679Y001468D01*
X006602Y001468D02*
X006832Y001468D01*
X006832Y001583D01*
X006794Y001622D01*
X006679Y001545D02*
X006602Y001622D01*
X007533Y005270D02*
X007609Y005270D01*
X007648Y005309D01*
X007648Y005347D01*
X007609Y005385D01*
X007533Y005385D01*
X007494Y005347D01*
X007494Y005309D01*
X007533Y005270D01*
X007533Y005385D02*
X007494Y005424D01*
X007494Y005462D01*
X007533Y005500D01*
X007609Y005500D01*
X007648Y005462D01*
X007648Y005424D01*
X007609Y005385D01*
X007725Y005385D02*
X007763Y005347D01*
X007878Y005347D01*
X007801Y005347D02*
X007725Y005270D01*
X007725Y005385D02*
X007725Y005462D01*
X007763Y005500D01*
X007878Y005500D01*
X007878Y005270D01*
X007888Y005906D02*
X007888Y006136D01*
X007965Y006060D01*
X008042Y006098D02*
X008080Y006136D01*
X008157Y006136D01*
X008195Y006098D01*
X008195Y005945D01*
X008157Y005906D01*
X008080Y005906D01*
X008042Y005945D01*
X007965Y005906D02*
X007811Y005906D01*
X007735Y005906D02*
X007581Y006060D01*
X007581Y006098D01*
X007620Y006136D01*
X007696Y006136D01*
X007735Y006098D01*
X007735Y005906D02*
X007581Y005906D01*
X007362Y006920D02*
X007362Y007150D01*
X007247Y007150D01*
X007208Y007111D01*
X007208Y007035D01*
X007247Y006996D01*
X007362Y006996D01*
X007285Y006996D02*
X007208Y006920D01*
X007132Y006958D02*
X007093Y006920D01*
X007017Y006920D01*
X006978Y006958D01*
X006978Y006996D01*
X007017Y007035D01*
X007132Y007035D01*
X007132Y006958D01*
X007132Y007035D02*
X007055Y007111D01*
X006978Y007150D01*
X006901Y007111D02*
X006863Y007150D01*
X006786Y007150D01*
X006748Y007111D01*
X006748Y007073D01*
X006901Y006920D01*
X006748Y006920D01*
X006361Y006935D02*
X006361Y007165D01*
X006246Y007165D01*
X006207Y007127D01*
X006207Y007050D01*
X006246Y007012D01*
X006361Y007012D01*
X006284Y007012D02*
X006207Y006935D01*
X006130Y006935D02*
X006130Y006974D01*
X005977Y007127D01*
X005977Y007165D01*
X006130Y007165D01*
X005900Y007127D02*
X005862Y007165D01*
X005785Y007165D01*
X005747Y007127D01*
X005747Y007089D01*
X005785Y007050D01*
X005747Y007012D01*
X005747Y006974D01*
X005785Y006935D01*
X005862Y006935D01*
X005900Y006974D01*
X005824Y007050D02*
X005785Y007050D01*
X005788Y006508D02*
X005864Y006508D01*
X005903Y006470D01*
X005903Y006431D01*
X005864Y006393D01*
X005749Y006393D01*
X005749Y006316D02*
X005749Y006470D01*
X005788Y006508D01*
X005979Y006470D02*
X005979Y006431D01*
X006018Y006393D01*
X005979Y006355D01*
X005979Y006316D01*
X006018Y006278D01*
X006094Y006278D01*
X006133Y006316D01*
X006210Y006316D02*
X006248Y006278D01*
X006325Y006278D01*
X006363Y006316D01*
X006363Y006470D01*
X006325Y006508D01*
X006248Y006508D01*
X006210Y006470D01*
X006133Y006470D02*
X006094Y006508D01*
X006018Y006508D01*
X005979Y006470D01*
X006018Y006393D02*
X006056Y006393D01*
X005903Y006316D02*
X005864Y006278D01*
X005788Y006278D01*
X005749Y006316D01*
X005293Y006320D02*
X005293Y006474D01*
X005255Y006512D01*
X005178Y006512D01*
X005140Y006474D01*
X005063Y006436D02*
X004986Y006512D01*
X004986Y006282D01*
X004910Y006282D02*
X005063Y006282D01*
X005140Y006320D02*
X005178Y006282D01*
X005255Y006282D01*
X005293Y006320D01*
X004833Y006282D02*
X004679Y006282D01*
X004756Y006282D02*
X004756Y006512D01*
X004833Y006436D01*
X004850Y006947D02*
X004812Y006985D01*
X004812Y007024D01*
X004850Y007062D01*
X004965Y007062D01*
X004965Y006985D01*
X004927Y006947D01*
X004850Y006947D01*
X004735Y006947D02*
X004582Y006947D01*
X004658Y006947D02*
X004658Y007177D01*
X004735Y007101D01*
X004812Y007177D02*
X004889Y007139D01*
X004965Y007062D01*
X005042Y007062D02*
X005080Y007024D01*
X005196Y007024D01*
X005196Y006947D02*
X005196Y007177D01*
X005080Y007177D01*
X005042Y007139D01*
X005042Y007062D01*
X005119Y007024D02*
X005042Y006947D01*
X005014Y007648D02*
X004938Y007648D01*
X004899Y007686D01*
X004899Y007724D01*
X004938Y007763D01*
X005053Y007763D01*
X005053Y007686D01*
X005014Y007648D01*
X005053Y007763D02*
X004976Y007839D01*
X004899Y007878D01*
X005021Y008062D02*
X004983Y008100D01*
X004983Y008177D01*
X005021Y008215D01*
X005059Y008215D01*
X005136Y008177D01*
X005136Y008292D01*
X004983Y008292D01*
X005213Y008254D02*
X005366Y008100D01*
X005328Y008062D01*
X005251Y008062D01*
X005213Y008100D01*
X005213Y008254D01*
X005251Y008292D01*
X005328Y008292D01*
X005366Y008254D01*
X005366Y008100D01*
X005443Y008062D02*
X005596Y008062D01*
X005520Y008062D02*
X005520Y008292D01*
X005596Y008215D01*
X005673Y008177D02*
X005712Y008139D01*
X005827Y008139D01*
X005750Y008139D02*
X005673Y008062D01*
X005673Y008177D02*
X005673Y008254D01*
X005712Y008292D01*
X005827Y008292D01*
X005827Y008062D01*
X005863Y007867D02*
X006016Y007867D01*
X006016Y007751D01*
X005940Y007790D01*
X005901Y007790D01*
X005863Y007751D01*
X005863Y007675D01*
X005901Y007636D01*
X005978Y007636D01*
X006016Y007675D01*
X006093Y007675D02*
X006093Y007828D01*
X006131Y007867D01*
X006247Y007867D01*
X006247Y007636D01*
X006131Y007636D01*
X006093Y007675D01*
X005283Y007648D02*
X005168Y007648D01*
X005129Y007686D01*
X005129Y007839D01*
X005168Y007878D01*
X005283Y007878D01*
X005283Y007648D01*
X005098Y008062D02*
X005136Y008100D01*
X005098Y008062D02*
X005021Y008062D01*
X005873Y008779D02*
X005873Y009009D01*
X005988Y008894D01*
X005835Y008894D01*
X006065Y008971D02*
X006219Y008817D01*
X006180Y008779D01*
X006104Y008779D01*
X006065Y008817D01*
X006065Y008971D01*
X006104Y009009D01*
X006180Y009009D01*
X006219Y008971D01*
X006219Y008817D01*
X006295Y008779D02*
X006449Y008779D01*
X006526Y008779D02*
X006602Y008855D01*
X006564Y008855D02*
X006679Y008855D01*
X006679Y008779D02*
X006679Y009009D01*
X006564Y009009D01*
X006526Y008971D01*
X006526Y008894D01*
X006564Y008855D01*
X006449Y008932D02*
X006372Y009009D01*
X006372Y008779D01*
X006938Y008221D02*
X006900Y008183D01*
X006900Y008145D01*
X006938Y008106D01*
X006900Y008068D01*
X006900Y008029D01*
X006938Y007991D01*
X007015Y007991D01*
X007054Y008029D01*
X007130Y008029D02*
X007130Y008183D01*
X007284Y008029D01*
X007245Y007991D01*
X007169Y007991D01*
X007130Y008029D01*
X007284Y008029D02*
X007284Y008183D01*
X007245Y008221D01*
X007169Y008221D01*
X007130Y008183D01*
X007054Y008183D02*
X007015Y008221D01*
X006938Y008221D01*
X006938Y008106D02*
X006977Y008106D01*
X007360Y007991D02*
X007514Y007991D01*
X007591Y007991D02*
X007667Y008068D01*
X007629Y008068D02*
X007744Y008068D01*
X007744Y007991D02*
X007744Y008221D01*
X007629Y008221D01*
X007591Y008183D01*
X007591Y008106D01*
X007629Y008068D01*
X007514Y008145D02*
X007437Y008221D01*
X007437Y007991D01*
X007608Y007450D02*
X007723Y007335D01*
X007569Y007335D01*
X007608Y007220D02*
X007608Y007450D01*
X007799Y007412D02*
X007838Y007450D01*
X007953Y007450D01*
X007953Y007220D01*
X007838Y007220D01*
X007799Y007258D01*
X007799Y007412D01*
X008224Y007973D02*
X008301Y007973D01*
X008339Y008011D01*
X008416Y008011D02*
X008416Y008050D01*
X008454Y008088D01*
X008569Y008088D01*
X008569Y008011D01*
X008531Y007973D01*
X008454Y007973D01*
X008416Y008011D01*
X008569Y008088D02*
X008493Y008165D01*
X008416Y008203D01*
X008339Y008165D02*
X008301Y008203D01*
X008224Y008203D01*
X008186Y008165D01*
X008186Y008126D01*
X008224Y008088D01*
X008186Y008050D01*
X008186Y008011D01*
X008224Y007973D01*
X008224Y008088D02*
X008263Y008088D01*
X008646Y008011D02*
X008685Y007973D01*
X008761Y007973D01*
X008800Y008011D01*
X008800Y008165D01*
X008761Y008203D01*
X008685Y008203D01*
X008646Y008165D01*
X010782Y010978D02*
X010859Y010978D01*
X010897Y011016D01*
X010897Y011093D02*
X010820Y011131D01*
X010782Y011131D01*
X010744Y011093D01*
X010744Y011016D01*
X010782Y010978D01*
X010897Y011093D02*
X010897Y011208D01*
X010744Y011208D01*
X010723Y011344D02*
X010684Y011382D01*
X010723Y011344D02*
X010799Y011344D01*
X010838Y011382D01*
X010838Y011536D01*
X010799Y011574D01*
X010723Y011574D01*
X010684Y011536D01*
X010607Y011574D02*
X010607Y011459D01*
X010531Y011498D01*
X010492Y011498D01*
X010454Y011459D01*
X010454Y011382D01*
X010492Y011344D01*
X010569Y011344D01*
X010607Y011382D01*
X010607Y011574D02*
X010454Y011574D01*
X010377Y011574D02*
X010224Y011574D01*
X010224Y011536D01*
X010377Y011382D01*
X010377Y011344D01*
X010974Y011208D02*
X011051Y011170D01*
X011127Y011093D01*
X011012Y011093D01*
X010974Y011054D01*
X010974Y011016D01*
X011012Y010978D01*
X011089Y010978D01*
X011127Y011016D01*
X011127Y011093D01*
X011204Y011170D02*
X011243Y011208D01*
X011319Y011208D01*
X011358Y011170D01*
X011358Y011016D01*
X011319Y010978D01*
X011243Y010978D01*
X011204Y011016D01*
X012354Y010628D02*
X012354Y010398D01*
X012315Y010513D02*
X012469Y010513D01*
X012354Y010628D01*
X012545Y010589D02*
X012545Y010551D01*
X012584Y010513D01*
X012545Y010474D01*
X012545Y010436D01*
X012584Y010398D01*
X012660Y010398D01*
X012699Y010436D01*
X012776Y010436D02*
X012776Y010589D01*
X012814Y010628D01*
X012929Y010628D01*
X012929Y010398D01*
X012814Y010398D01*
X012776Y010436D01*
X012699Y010589D02*
X012660Y010628D01*
X012584Y010628D01*
X012545Y010589D01*
X012584Y010513D02*
X012622Y010513D01*
X012547Y010264D02*
X012547Y010226D01*
X012701Y010072D01*
X012701Y010034D01*
X012777Y010034D02*
X012854Y010111D01*
X012816Y010111D02*
X012931Y010111D01*
X012931Y010034D02*
X012931Y010264D01*
X012816Y010264D01*
X012777Y010226D01*
X012777Y010149D01*
X012816Y010111D01*
X012701Y010264D02*
X012547Y010264D01*
X012470Y010226D02*
X012470Y010187D01*
X012432Y010149D01*
X012317Y010149D01*
X012317Y010072D02*
X012317Y010226D01*
X012355Y010264D01*
X012432Y010264D01*
X012470Y010226D01*
X012470Y010072D02*
X012432Y010034D01*
X012355Y010034D01*
X012317Y010072D01*
X012325Y009803D02*
X012479Y009803D01*
X012479Y009688D01*
X012402Y009726D01*
X012364Y009726D01*
X012325Y009688D01*
X012325Y009611D01*
X012364Y009573D01*
X012440Y009573D01*
X012479Y009611D01*
X012555Y009688D02*
X012709Y009688D01*
X012594Y009803D01*
X012594Y009573D01*
X012786Y009611D02*
X012824Y009573D01*
X012901Y009573D01*
X012939Y009611D01*
X012939Y009764D01*
X012901Y009803D01*
X012824Y009803D01*
X012786Y009764D01*
X012839Y009365D02*
X012724Y009365D01*
X012686Y009326D01*
X012686Y009249D01*
X012724Y009211D01*
X012839Y009211D01*
X012763Y009211D02*
X012686Y009134D01*
X012609Y009249D02*
X012456Y009249D01*
X012379Y009288D02*
X012341Y009249D01*
X012226Y009249D01*
X012226Y009173D02*
X012226Y009326D01*
X012264Y009365D01*
X012341Y009365D01*
X012379Y009326D01*
X012379Y009288D01*
X012379Y009173D02*
X012341Y009134D01*
X012264Y009134D01*
X012226Y009173D01*
X012494Y009134D02*
X012494Y009365D01*
X012609Y009249D01*
X012839Y009134D02*
X012839Y009365D01*
X012827Y008835D02*
X012789Y008797D01*
X012789Y008720D01*
X012827Y008682D01*
X012942Y008682D01*
X012866Y008682D02*
X012789Y008605D01*
X012712Y008643D02*
X012674Y008605D01*
X012597Y008605D01*
X012559Y008643D01*
X012559Y008720D01*
X012597Y008759D01*
X012635Y008759D01*
X012712Y008720D01*
X012712Y008835D01*
X012559Y008835D01*
X012482Y008797D02*
X012444Y008835D01*
X012367Y008835D01*
X012329Y008797D01*
X012482Y008643D01*
X012444Y008605D01*
X012367Y008605D01*
X012329Y008643D01*
X012329Y008797D01*
X012482Y008797D02*
X012482Y008643D01*
X012827Y008835D02*
X012942Y008835D01*
X012942Y008605D01*
X013974Y008426D02*
X013974Y008388D01*
X014012Y008349D01*
X014089Y008349D01*
X014127Y008388D01*
X014127Y008426D01*
X014089Y008464D01*
X014012Y008464D01*
X013974Y008426D01*
X014012Y008349D02*
X013974Y008311D01*
X013974Y008273D01*
X014012Y008234D01*
X014089Y008234D01*
X014127Y008273D01*
X014127Y008311D01*
X014089Y008349D01*
X014204Y008349D02*
X014357Y008349D01*
X014242Y008464D01*
X014242Y008234D01*
X014434Y008234D02*
X014511Y008311D01*
X014472Y008311D02*
X014587Y008311D01*
X014574Y008309D02*
X014612Y008347D01*
X014727Y008347D01*
X014727Y008270D01*
X014689Y008232D01*
X014612Y008232D01*
X014574Y008270D01*
X014574Y008309D01*
X014587Y008234D02*
X014587Y008464D01*
X014472Y008464D01*
X014434Y008426D01*
X014434Y008349D01*
X014472Y008311D01*
X014574Y008462D02*
X014651Y008424D01*
X014727Y008347D01*
X014804Y008347D02*
X014957Y008347D01*
X014842Y008462D01*
X014842Y008232D01*
X015034Y008232D02*
X015111Y008309D01*
X015073Y008309D02*
X015188Y008309D01*
X015188Y008232D02*
X015188Y008462D01*
X015073Y008462D01*
X015034Y008424D01*
X015034Y008347D01*
X015073Y008309D01*
X014922Y008813D02*
X014922Y008928D01*
X014884Y008966D01*
X014807Y008966D01*
X014769Y008928D01*
X014769Y008813D01*
X014769Y008889D02*
X014692Y008966D01*
X014807Y009043D02*
X014807Y009196D01*
X014730Y009273D02*
X014884Y009426D01*
X014922Y009426D01*
X014922Y009273D01*
X014880Y009370D02*
X014727Y009370D01*
X014688Y009409D01*
X014688Y009486D01*
X014727Y009524D01*
X014727Y009601D02*
X014688Y009639D01*
X014688Y009716D01*
X014727Y009754D01*
X014765Y009754D01*
X014803Y009716D01*
X014803Y009677D01*
X014803Y009716D02*
X014842Y009754D01*
X014880Y009754D01*
X014919Y009716D01*
X014919Y009639D01*
X014880Y009601D01*
X014880Y009524D02*
X014919Y009486D01*
X014919Y009409D01*
X014880Y009370D01*
X014730Y009273D02*
X014692Y009273D01*
X014692Y009158D02*
X014922Y009158D01*
X014807Y009043D01*
X014692Y008813D02*
X014922Y008813D01*
X015728Y008901D02*
X015958Y008901D01*
X015958Y009016D01*
X015919Y009055D01*
X015843Y009055D01*
X015804Y009016D01*
X015804Y008901D01*
X015804Y008978D02*
X015728Y009055D01*
X015843Y009131D02*
X015843Y009285D01*
X015843Y009361D02*
X015881Y009438D01*
X015881Y009477D01*
X015843Y009515D01*
X015766Y009515D01*
X015728Y009477D01*
X015728Y009400D01*
X015766Y009361D01*
X015843Y009361D02*
X015958Y009361D01*
X015958Y009515D01*
X015953Y009541D02*
X015915Y009503D01*
X015762Y009503D01*
X015723Y009541D01*
X015723Y009618D01*
X015762Y009656D01*
X015762Y009733D02*
X015723Y009771D01*
X015723Y009848D01*
X015762Y009886D01*
X015800Y009886D01*
X015838Y009848D01*
X015838Y009810D01*
X015838Y009848D02*
X015877Y009886D01*
X015915Y009886D01*
X015953Y009848D01*
X015953Y009771D01*
X015915Y009733D01*
X015915Y009656D02*
X015953Y009618D01*
X015953Y009541D01*
X015958Y009246D02*
X015728Y009246D01*
X015843Y009131D02*
X015958Y009246D01*
X015953Y009963D02*
X015838Y009963D01*
X015877Y010040D01*
X015877Y010078D01*
X015838Y010117D01*
X015762Y010117D01*
X015723Y010078D01*
X015723Y010002D01*
X015762Y009963D01*
X015792Y010096D02*
X015792Y010211D01*
X015831Y010250D01*
X015908Y010250D01*
X015946Y010211D01*
X015946Y010096D01*
X015716Y010096D01*
X015792Y010173D02*
X015716Y010250D01*
X015831Y010326D02*
X015831Y010480D01*
X015908Y010557D02*
X015946Y010595D01*
X015946Y010672D01*
X015908Y010710D01*
X015754Y010557D01*
X015716Y010595D01*
X015716Y010672D01*
X015754Y010710D01*
X015908Y010710D01*
X015908Y010557D02*
X015754Y010557D01*
X015716Y010442D02*
X015946Y010442D01*
X015831Y010326D01*
X015953Y010117D02*
X015953Y009963D01*
X016750Y009982D02*
X016750Y009828D01*
X016904Y009982D01*
X016942Y009982D01*
X016980Y009943D01*
X016980Y009866D01*
X016942Y009828D01*
X016942Y009751D02*
X016904Y009751D01*
X016865Y009713D01*
X016827Y009751D01*
X016789Y009751D01*
X016750Y009713D01*
X016750Y009636D01*
X016789Y009598D01*
X016789Y009521D02*
X016750Y009483D01*
X016750Y009406D01*
X016789Y009368D01*
X016942Y009368D01*
X016980Y009406D01*
X016980Y009483D01*
X016942Y009521D01*
X016942Y009598D02*
X016980Y009636D01*
X016980Y009713D01*
X016942Y009751D01*
X016865Y009713D02*
X016865Y009675D01*
X016835Y009972D02*
X016835Y010087D01*
X016873Y010126D01*
X016950Y010126D01*
X016988Y010087D01*
X016988Y009972D01*
X016758Y009972D01*
X016835Y010049D02*
X016758Y010126D01*
X016797Y010203D02*
X016758Y010241D01*
X016758Y010318D01*
X016797Y010356D01*
X016835Y010356D01*
X016873Y010318D01*
X016873Y010203D01*
X016797Y010203D01*
X016873Y010203D02*
X016950Y010279D01*
X016988Y010356D01*
X016873Y010433D02*
X016873Y010548D01*
X016835Y010586D01*
X016797Y010586D01*
X016758Y010548D01*
X016758Y010471D01*
X016797Y010433D01*
X016873Y010433D01*
X016950Y010509D01*
X016988Y010586D01*
X016976Y010955D02*
X017130Y010955D01*
X016976Y011108D01*
X016976Y011147D01*
X017015Y011185D01*
X017091Y011185D01*
X017130Y011147D01*
X017207Y011147D02*
X017245Y011185D01*
X017322Y011185D01*
X017360Y011147D01*
X017437Y011147D02*
X017475Y011185D01*
X017590Y011185D01*
X017590Y010955D01*
X017475Y010955D01*
X017437Y010993D01*
X017437Y011147D01*
X017360Y010955D02*
X017207Y011108D01*
X017207Y011147D01*
X017207Y010955D02*
X017360Y010955D01*
X017772Y010531D02*
X017772Y010454D01*
X017810Y010416D01*
X017849Y010416D01*
X017887Y010454D01*
X017887Y010531D01*
X017849Y010569D01*
X017810Y010569D01*
X017772Y010531D01*
X017887Y010531D02*
X017926Y010569D01*
X017964Y010569D01*
X018002Y010531D01*
X018002Y010454D01*
X017964Y010416D01*
X017926Y010416D01*
X017887Y010454D01*
X017849Y010339D02*
X017887Y010301D01*
X017887Y010185D01*
X017810Y010185D01*
X017772Y010224D01*
X017772Y010301D01*
X017810Y010339D01*
X017849Y010339D01*
X017964Y010262D02*
X017887Y010185D01*
X017887Y010109D02*
X017849Y010070D01*
X017849Y009955D01*
X017772Y009955D02*
X018002Y009955D01*
X018002Y010070D01*
X017964Y010109D01*
X017887Y010109D01*
X017849Y010032D02*
X017772Y010109D01*
X017964Y010262D02*
X018002Y010339D01*
X017965Y009860D02*
X017926Y009860D01*
X017888Y009822D01*
X017888Y009745D01*
X017926Y009707D01*
X017965Y009707D01*
X018003Y009745D01*
X018003Y009822D01*
X017965Y009860D01*
X017888Y009822D02*
X017850Y009860D01*
X017811Y009860D01*
X017773Y009822D01*
X017773Y009745D01*
X017811Y009707D01*
X017850Y009707D01*
X017888Y009745D01*
X017811Y009630D02*
X017773Y009592D01*
X017773Y009515D01*
X017811Y009477D01*
X017965Y009477D01*
X018003Y009515D01*
X018003Y009592D01*
X017965Y009630D01*
X018012Y009418D02*
X017782Y009418D01*
X017782Y009341D02*
X017782Y009495D01*
X017935Y009341D02*
X018012Y009418D01*
X018012Y009265D02*
X018012Y009111D01*
X017897Y009111D01*
X017935Y009188D01*
X017935Y009226D01*
X017897Y009265D01*
X017820Y009265D01*
X017782Y009226D01*
X017782Y009150D01*
X017820Y009111D01*
X017782Y009035D02*
X017858Y008958D01*
X017858Y008996D02*
X017858Y008881D01*
X017782Y008881D02*
X018012Y008881D01*
X018012Y008996D01*
X017974Y009035D01*
X017897Y009035D01*
X017858Y008996D01*
X017920Y008465D02*
X018035Y008350D01*
X017881Y008350D01*
X017808Y008305D02*
X017693Y008305D01*
X017654Y008343D01*
X017654Y008420D01*
X017693Y008458D01*
X017808Y008458D01*
X017808Y008228D01*
X017731Y008305D02*
X017654Y008228D01*
X017578Y008266D02*
X017539Y008228D01*
X017462Y008228D01*
X017424Y008266D01*
X017424Y008343D01*
X017462Y008381D01*
X017501Y008381D01*
X017578Y008343D01*
X017578Y008458D01*
X017424Y008458D01*
X017347Y008420D02*
X017309Y008458D01*
X017232Y008458D01*
X017194Y008420D01*
X017194Y008381D01*
X017347Y008228D01*
X017194Y008228D01*
X016970Y008270D02*
X016970Y008500D01*
X016854Y008500D01*
X016816Y008462D01*
X016816Y008385D01*
X016854Y008347D01*
X016970Y008347D01*
X016893Y008347D02*
X016816Y008270D01*
X016739Y008385D02*
X016586Y008385D01*
X016509Y008385D02*
X016356Y008385D01*
X016394Y008270D02*
X016394Y008500D01*
X016509Y008385D01*
X016624Y008270D02*
X016624Y008500D01*
X016739Y008385D01*
X016752Y008676D02*
X016983Y008676D01*
X016983Y008792D01*
X016944Y008830D01*
X016868Y008830D01*
X016829Y008792D01*
X016829Y008676D01*
X016829Y008753D02*
X016752Y008830D01*
X016868Y008907D02*
X016868Y009060D01*
X016944Y009137D02*
X016983Y009175D01*
X016983Y009252D01*
X016944Y009290D01*
X016906Y009290D01*
X016868Y009252D01*
X016829Y009290D01*
X016791Y009290D01*
X016752Y009252D01*
X016752Y009175D01*
X016791Y009137D01*
X016868Y009214D02*
X016868Y009252D01*
X016983Y009022D02*
X016868Y008907D01*
X016983Y009022D02*
X016752Y009022D01*
X017920Y008465D02*
X017920Y008235D01*
X018112Y008273D02*
X018112Y008350D01*
X018150Y008388D01*
X018188Y008388D01*
X018265Y008350D01*
X018265Y008465D01*
X018112Y008465D01*
X018112Y008273D02*
X018150Y008235D01*
X018227Y008235D01*
X018265Y008273D01*
X018342Y008235D02*
X018418Y008312D01*
X018380Y008312D02*
X018495Y008312D01*
X018495Y008235D02*
X018495Y008465D01*
X018380Y008465D01*
X018342Y008427D01*
X018342Y008350D01*
X018380Y008312D01*
X018805Y008829D02*
X019035Y008829D01*
X019035Y008945D01*
X018997Y008983D01*
X018920Y008983D01*
X018882Y008945D01*
X018882Y008829D01*
X018882Y008906D02*
X018805Y008983D01*
X018843Y009060D02*
X018805Y009098D01*
X018805Y009175D01*
X018843Y009213D01*
X018920Y009213D01*
X018958Y009175D01*
X018958Y009136D01*
X018920Y009060D01*
X019035Y009060D01*
X019035Y009213D01*
X018997Y009290D02*
X019035Y009328D01*
X019035Y009405D01*
X018997Y009443D01*
X018958Y009443D01*
X018920Y009405D01*
X018882Y009443D01*
X018843Y009443D01*
X018805Y009405D01*
X018805Y009328D01*
X018843Y009290D01*
X018920Y009367D02*
X018920Y009405D01*
X018847Y009410D02*
X018808Y009448D01*
X018808Y009525D01*
X018847Y009563D01*
X018847Y009640D02*
X018808Y009678D01*
X018808Y009755D01*
X018847Y009793D01*
X018885Y009793D01*
X018924Y009755D01*
X018924Y009716D01*
X018924Y009755D02*
X018962Y009793D01*
X019000Y009793D01*
X019039Y009755D01*
X019039Y009678D01*
X019000Y009640D01*
X019000Y009563D02*
X019039Y009525D01*
X019039Y009448D01*
X019000Y009410D01*
X018847Y009410D01*
X018847Y009870D02*
X018808Y009908D01*
X018808Y009985D01*
X018847Y010023D01*
X018885Y010023D01*
X018924Y009985D01*
X018924Y009947D01*
X018924Y009985D02*
X018962Y010023D01*
X019000Y010023D01*
X019039Y009985D01*
X019039Y009908D01*
X019000Y009870D01*
X019041Y010001D02*
X018810Y010001D01*
X018887Y010001D02*
X018887Y010116D01*
X018925Y010155D01*
X019002Y010155D01*
X019041Y010116D01*
X019041Y010001D01*
X018887Y010078D02*
X018810Y010155D01*
X018849Y010231D02*
X018810Y010270D01*
X018810Y010346D01*
X018849Y010385D01*
X018887Y010385D01*
X018925Y010346D01*
X018925Y010231D01*
X018849Y010231D01*
X018925Y010231D02*
X019002Y010308D01*
X019041Y010385D01*
X019002Y010462D02*
X018964Y010462D01*
X018925Y010500D01*
X018925Y010615D01*
X018849Y010615D02*
X019002Y010615D01*
X019041Y010577D01*
X019041Y010500D01*
X019002Y010462D01*
X018849Y010462D02*
X018810Y010500D01*
X018810Y010577D01*
X018849Y010615D01*
X018639Y010962D02*
X018524Y010962D01*
X018485Y011000D01*
X018485Y011154D01*
X018524Y011192D01*
X018639Y011192D01*
X018639Y010962D01*
X018408Y010962D02*
X018255Y011115D01*
X018255Y011154D01*
X018293Y011192D01*
X018370Y011192D01*
X018408Y011154D01*
X018408Y010962D02*
X018255Y010962D01*
X018178Y011000D02*
X018140Y010962D01*
X018063Y010962D01*
X018025Y011000D01*
X018025Y011039D01*
X018063Y011077D01*
X018101Y011077D01*
X018063Y011077D02*
X018025Y011115D01*
X018025Y011154D01*
X018063Y011192D01*
X018140Y011192D01*
X018178Y011154D01*
X017863Y011983D02*
X017863Y012213D01*
X017748Y012213D01*
X017709Y012175D01*
X017709Y012098D01*
X017748Y012060D01*
X017863Y012060D01*
X017786Y012060D02*
X017709Y011983D01*
X017633Y012021D02*
X017594Y011983D01*
X017517Y011983D01*
X017479Y012021D01*
X017479Y012060D01*
X017517Y012098D01*
X017556Y012098D01*
X017517Y012098D02*
X017479Y012136D01*
X017479Y012175D01*
X017517Y012213D01*
X017594Y012213D01*
X017633Y012175D01*
X017621Y012366D02*
X017698Y012366D01*
X017737Y012404D01*
X017813Y012366D02*
X017890Y012443D01*
X017852Y012443D02*
X017967Y012443D01*
X017967Y012366D02*
X017967Y012596D01*
X017852Y012596D01*
X017813Y012558D01*
X017813Y012481D01*
X017852Y012443D01*
X017737Y012558D02*
X017698Y012596D01*
X017621Y012596D01*
X017583Y012558D01*
X017583Y012519D01*
X017621Y012481D01*
X017583Y012443D01*
X017583Y012404D01*
X017621Y012366D01*
X017621Y012481D02*
X017660Y012481D01*
X017506Y012481D02*
X017391Y012481D01*
X017353Y012443D01*
X017353Y012404D01*
X017391Y012366D01*
X017468Y012366D01*
X017506Y012404D01*
X017506Y012481D01*
X017430Y012558D01*
X017353Y012596D01*
X017406Y013038D02*
X017253Y013191D01*
X017253Y013229D01*
X017291Y013268D01*
X017368Y013268D01*
X017406Y013229D01*
X017483Y013153D02*
X017636Y013153D01*
X017521Y013268D01*
X017521Y013038D01*
X017406Y013038D02*
X017253Y013038D01*
X017300Y013385D02*
X017262Y013423D01*
X017262Y013461D01*
X017300Y013500D01*
X017415Y013500D01*
X017415Y013423D01*
X017377Y013385D01*
X017300Y013385D01*
X017415Y013500D02*
X017339Y013577D01*
X017262Y013615D01*
X017492Y013615D02*
X017492Y013577D01*
X017646Y013423D01*
X017646Y013385D01*
X017722Y013385D02*
X017799Y013461D01*
X017761Y013461D02*
X017876Y013461D01*
X017876Y013385D02*
X017876Y013615D01*
X017761Y013615D01*
X017722Y013577D01*
X017722Y013500D01*
X017761Y013461D01*
X017646Y013615D02*
X017492Y013615D01*
X017751Y013268D02*
X017828Y013268D01*
X017866Y013229D01*
X017866Y013076D01*
X017828Y013038D01*
X017751Y013038D01*
X017713Y013076D01*
X017713Y013229D02*
X017751Y013268D01*
X018687Y012918D02*
X018687Y012688D01*
X018648Y012803D02*
X018802Y012803D01*
X018687Y012918D01*
X018879Y012880D02*
X018879Y012842D01*
X018917Y012803D01*
X018879Y012765D01*
X018879Y012727D01*
X018917Y012688D01*
X018994Y012688D01*
X019032Y012727D01*
X019109Y012688D02*
X019185Y012765D01*
X019147Y012765D02*
X019262Y012765D01*
X019262Y012688D02*
X019262Y012918D01*
X019147Y012918D01*
X019109Y012880D01*
X019109Y012803D01*
X019147Y012765D01*
X019032Y012880D02*
X018994Y012918D01*
X018917Y012918D01*
X018879Y012880D01*
X018917Y012803D02*
X018955Y012803D01*
X019492Y011900D02*
X019646Y011900D01*
X019646Y011785D01*
X019569Y011823D01*
X019531Y011823D01*
X019492Y011785D01*
X019492Y011708D01*
X019531Y011670D01*
X019607Y011670D01*
X019646Y011708D01*
X019722Y011708D02*
X019761Y011670D01*
X019837Y011670D01*
X019876Y011708D01*
X019953Y011670D02*
X020029Y011746D01*
X019991Y011746D02*
X020106Y011746D01*
X020106Y011670D02*
X020106Y011900D01*
X019991Y011900D01*
X019953Y011861D01*
X019953Y011785D01*
X019991Y011746D01*
X019876Y011861D02*
X019837Y011900D01*
X019761Y011900D01*
X019722Y011861D01*
X019722Y011823D01*
X019761Y011785D01*
X019722Y011746D01*
X019722Y011708D01*
X019761Y011785D02*
X019799Y011785D01*
X019940Y011470D02*
X019940Y011317D01*
X020055Y011432D01*
X019825Y011432D01*
X019825Y011240D02*
X019825Y011086D01*
X019978Y011240D01*
X020017Y011240D01*
X020055Y011201D01*
X020055Y011125D01*
X020017Y011086D01*
X020017Y011010D02*
X020055Y010971D01*
X020055Y010856D01*
X019825Y010856D01*
X019825Y010971D01*
X019863Y011010D01*
X020017Y011010D01*
X020010Y010784D02*
X019857Y010631D01*
X019818Y010631D01*
X020010Y010554D02*
X019857Y010400D01*
X019818Y010400D01*
X019818Y010324D02*
X019895Y010247D01*
X019895Y010285D02*
X019895Y010170D01*
X019900Y010133D02*
X019861Y010133D01*
X019823Y010095D01*
X019823Y010018D01*
X019861Y009980D01*
X019938Y010056D02*
X019938Y010095D01*
X019900Y010133D01*
X019938Y010095D02*
X019976Y010133D01*
X020015Y010133D01*
X020053Y010095D01*
X020053Y010018D01*
X020015Y009980D01*
X019938Y009903D02*
X019938Y009749D01*
X020053Y009864D01*
X019823Y009864D01*
X019861Y009673D02*
X019823Y009634D01*
X019823Y009558D01*
X019861Y009519D01*
X020015Y009519D01*
X020053Y009558D01*
X020053Y009634D01*
X020015Y009673D01*
X020050Y009511D02*
X020050Y009358D01*
X019935Y009358D01*
X019973Y009434D01*
X019973Y009473D01*
X019935Y009511D01*
X019858Y009511D01*
X019820Y009473D01*
X019820Y009396D01*
X019858Y009358D01*
X019858Y009281D02*
X019820Y009242D01*
X019820Y009166D01*
X019858Y009127D01*
X019935Y009127D02*
X019973Y009204D01*
X019973Y009242D01*
X019935Y009281D01*
X019858Y009281D01*
X019935Y009127D02*
X020050Y009127D01*
X020050Y009281D01*
X020012Y009051D02*
X019935Y009051D01*
X019897Y009012D01*
X019897Y008897D01*
X019897Y008974D02*
X019820Y009051D01*
X019820Y008897D02*
X020050Y008897D01*
X020050Y009012D01*
X020012Y009051D01*
X019718Y008443D02*
X019602Y008443D01*
X019564Y008405D01*
X019564Y008328D01*
X019602Y008290D01*
X019718Y008290D01*
X019718Y008213D02*
X019718Y008443D01*
X019641Y008290D02*
X019564Y008213D01*
X019487Y008251D02*
X019449Y008213D01*
X019372Y008213D01*
X019334Y008251D01*
X019334Y008328D01*
X019372Y008366D01*
X019411Y008366D01*
X019487Y008328D01*
X019487Y008443D01*
X019334Y008443D01*
X019257Y008328D02*
X019142Y008328D01*
X019104Y008290D01*
X019104Y008251D01*
X019142Y008213D01*
X019219Y008213D01*
X019257Y008251D01*
X019257Y008328D01*
X019180Y008405D01*
X019104Y008443D01*
X019818Y010170D02*
X020048Y010170D01*
X020048Y010285D01*
X020010Y010324D01*
X019933Y010324D01*
X019895Y010285D01*
X020048Y010400D02*
X020048Y010554D01*
X020010Y010554D01*
X020048Y010631D02*
X020048Y010784D01*
X020010Y010784D01*
X021169Y010791D02*
X021322Y010791D01*
X021322Y010676D01*
X021245Y010714D01*
X021207Y010714D01*
X021169Y010676D01*
X021169Y010599D01*
X021207Y010561D01*
X021284Y010561D01*
X021322Y010599D01*
X021399Y010599D02*
X021437Y010561D01*
X021514Y010561D01*
X021552Y010599D01*
X021629Y010599D02*
X021629Y010752D01*
X021667Y010791D01*
X021782Y010791D01*
X021782Y010561D01*
X021667Y010561D01*
X021629Y010599D01*
X021552Y010752D02*
X021514Y010791D01*
X021437Y010791D01*
X021399Y010752D01*
X021399Y010714D01*
X021437Y010676D01*
X021399Y010637D01*
X021399Y010599D01*
X021437Y010676D02*
X021476Y010676D01*
X021541Y010268D02*
X021388Y010268D01*
X021388Y010230D01*
X021541Y010076D01*
X021541Y010038D01*
X021618Y010038D02*
X021695Y010115D01*
X021656Y010115D02*
X021772Y010115D01*
X021772Y010038D02*
X021772Y010268D01*
X021656Y010268D01*
X021618Y010230D01*
X021618Y010153D01*
X021656Y010115D01*
X021650Y009795D02*
X021612Y009756D01*
X021650Y009795D02*
X021727Y009795D01*
X021765Y009756D01*
X021765Y009603D01*
X021727Y009565D01*
X021650Y009565D01*
X021612Y009603D01*
X021535Y009680D02*
X021382Y009680D01*
X021305Y009680D02*
X021152Y009680D01*
X021190Y009795D02*
X021305Y009680D01*
X021420Y009565D02*
X021420Y009795D01*
X021535Y009680D01*
X021190Y009565D02*
X021190Y009795D01*
X021196Y010038D02*
X021273Y010038D01*
X021311Y010076D01*
X021311Y010115D01*
X021273Y010153D01*
X021196Y010153D01*
X021158Y010115D01*
X021158Y010076D01*
X021196Y010038D01*
X021196Y010153D02*
X021158Y010191D01*
X021158Y010230D01*
X021196Y010268D01*
X021273Y010268D01*
X021311Y010230D01*
X021311Y010191D01*
X021273Y010153D01*
X021240Y009175D02*
X021393Y009175D01*
X021393Y009060D01*
X021316Y009098D01*
X021278Y009098D01*
X021240Y009060D01*
X021240Y008983D01*
X021278Y008945D01*
X021355Y008945D01*
X021393Y008983D01*
X021470Y008945D02*
X021547Y009022D01*
X021508Y009022D02*
X021623Y009022D01*
X021623Y008945D02*
X021623Y009175D01*
X021508Y009175D01*
X021470Y009137D01*
X021470Y009060D01*
X021508Y009022D01*
X021521Y008820D02*
X021406Y008820D01*
X021368Y008782D01*
X021368Y008705D01*
X021406Y008666D01*
X021521Y008666D01*
X021521Y008590D02*
X021521Y008820D01*
X021444Y008666D02*
X021368Y008590D01*
X021291Y008628D02*
X021253Y008590D01*
X021176Y008590D01*
X021138Y008628D01*
X021138Y008705D01*
X021176Y008743D01*
X021214Y008743D01*
X021291Y008705D01*
X021291Y008820D01*
X021138Y008820D01*
X021061Y008782D02*
X021061Y008743D01*
X021022Y008705D01*
X020946Y008705D01*
X020907Y008666D01*
X020907Y008628D01*
X020946Y008590D01*
X021022Y008590D01*
X021061Y008628D01*
X021061Y008666D01*
X021022Y008705D01*
X020946Y008705D02*
X020907Y008743D01*
X020907Y008782D01*
X020946Y008820D01*
X021022Y008820D01*
X021061Y008782D01*
X021163Y008945D02*
X021163Y008983D01*
X021010Y009137D01*
X021010Y009175D01*
X021163Y009175D01*
X021516Y012028D02*
X021592Y012028D01*
X021631Y012066D01*
X021707Y012066D02*
X021746Y012028D01*
X021822Y012028D01*
X021861Y012066D01*
X021938Y012028D02*
X022014Y012104D01*
X021976Y012104D02*
X022091Y012104D01*
X022091Y012028D02*
X022091Y012258D01*
X021976Y012258D01*
X021938Y012219D01*
X021938Y012143D01*
X021976Y012104D01*
X021861Y012219D02*
X021822Y012258D01*
X021746Y012258D01*
X021707Y012219D01*
X021707Y012181D01*
X021746Y012143D01*
X021707Y012104D01*
X021707Y012066D01*
X021746Y012143D02*
X021784Y012143D01*
X021631Y012219D02*
X021592Y012258D01*
X021516Y012258D01*
X021477Y012219D01*
X021477Y012181D01*
X021516Y012143D01*
X021477Y012104D01*
X021477Y012066D01*
X021516Y012028D01*
X021516Y012143D02*
X021554Y012143D01*
X021607Y012517D02*
X021761Y012517D01*
X021607Y012671D01*
X021607Y012709D01*
X021646Y012748D01*
X021722Y012748D01*
X021761Y012709D01*
X021837Y012709D02*
X021837Y012671D01*
X021876Y012633D01*
X021837Y012594D01*
X021837Y012556D01*
X021876Y012517D01*
X021952Y012517D01*
X021991Y012556D01*
X022068Y012517D02*
X022144Y012594D01*
X022106Y012594D02*
X022221Y012594D01*
X022221Y012517D02*
X022221Y012748D01*
X022106Y012748D01*
X022068Y012709D01*
X022068Y012633D01*
X022106Y012594D01*
X021991Y012709D02*
X021952Y012748D01*
X021876Y012748D01*
X021837Y012709D01*
X021876Y012633D02*
X021914Y012633D01*
X021973Y013054D02*
X021935Y013092D01*
X021973Y013054D02*
X022050Y013054D01*
X022088Y013092D01*
X022088Y013245D01*
X022050Y013284D01*
X021973Y013284D01*
X021935Y013245D01*
X021858Y013245D02*
X021819Y013284D01*
X021743Y013284D01*
X021704Y013245D01*
X021704Y013207D01*
X021743Y013169D01*
X021704Y013130D01*
X021704Y013092D01*
X021743Y013054D01*
X021819Y013054D01*
X021858Y013092D01*
X021781Y013169D02*
X021743Y013169D01*
X021628Y013207D02*
X021551Y013284D01*
X021551Y013054D01*
X021628Y013054D02*
X021474Y013054D01*
X021555Y013502D02*
X021631Y013502D01*
X021670Y013540D01*
X021746Y013540D02*
X021746Y013579D01*
X021785Y013617D01*
X021900Y013617D01*
X021900Y013540D01*
X021861Y013502D01*
X021785Y013502D01*
X021746Y013540D01*
X021670Y013617D02*
X021593Y013655D01*
X021555Y013655D01*
X021516Y013617D01*
X021516Y013540D01*
X021555Y013502D01*
X021670Y013617D02*
X021670Y013732D01*
X021516Y013732D01*
X021577Y013947D02*
X021539Y013986D01*
X021539Y014024D01*
X021577Y014062D01*
X021692Y014062D01*
X021692Y013986D01*
X021654Y013947D01*
X021577Y013947D01*
X021692Y014062D02*
X021615Y014139D01*
X021539Y014178D01*
X021845Y014178D02*
X021845Y013947D01*
X021769Y013947D02*
X021922Y013947D01*
X021999Y013986D02*
X021999Y014139D01*
X022037Y014178D01*
X022152Y014178D01*
X022152Y013947D01*
X022037Y013947D01*
X021999Y013986D01*
X021922Y014101D02*
X021845Y014178D01*
X021746Y013732D02*
X021823Y013694D01*
X021900Y013617D01*
X021977Y013617D02*
X022015Y013579D01*
X022130Y013579D01*
X022053Y013579D02*
X021977Y013502D01*
X021977Y013617D02*
X021977Y013694D01*
X022015Y013732D01*
X022130Y013732D01*
X022130Y013502D01*
X020769Y013489D02*
X020769Y013719D01*
X020654Y013719D01*
X020616Y013681D01*
X020616Y013604D01*
X020654Y013566D01*
X020769Y013566D01*
X020692Y013566D02*
X020616Y013489D01*
X020539Y013489D02*
X020539Y013527D01*
X020386Y013681D01*
X020386Y013719D01*
X020539Y013719D01*
X020309Y013681D02*
X020270Y013719D01*
X020194Y013719D01*
X020155Y013681D01*
X020309Y013527D01*
X020270Y013489D01*
X020194Y013489D01*
X020155Y013527D01*
X020155Y013681D01*
X020309Y013681D02*
X020309Y013527D01*
X020419Y013258D02*
X020381Y013220D01*
X020381Y013181D01*
X020419Y013143D01*
X020381Y013104D01*
X020381Y013066D01*
X020419Y013028D01*
X020496Y013028D01*
X020534Y013066D01*
X020611Y013066D02*
X020650Y013028D01*
X020726Y013028D01*
X020765Y013066D01*
X020765Y013220D01*
X020726Y013258D01*
X020650Y013258D01*
X020611Y013220D01*
X020534Y013220D02*
X020496Y013258D01*
X020419Y013258D01*
X020419Y013143D02*
X020458Y013143D01*
X020304Y013143D02*
X020304Y013066D01*
X020266Y013028D01*
X020189Y013028D01*
X020151Y013066D01*
X020151Y013104D01*
X020189Y013143D01*
X020304Y013143D01*
X020227Y013220D01*
X020151Y013258D01*
X020285Y013969D02*
X020285Y014007D01*
X020132Y014160D01*
X020132Y014199D01*
X020285Y014199D01*
X020439Y014199D02*
X020439Y013969D01*
X020516Y013969D02*
X020362Y013969D01*
X020516Y014122D02*
X020439Y014199D01*
X020592Y014160D02*
X020631Y014199D01*
X020746Y014199D01*
X020746Y013969D01*
X020631Y013969D01*
X020592Y014007D01*
X020592Y014160D01*
X018529Y014396D02*
X018414Y014396D01*
X018375Y014434D01*
X018375Y014588D01*
X018414Y014626D01*
X018529Y014626D01*
X018529Y014396D01*
X018299Y014396D02*
X018145Y014396D01*
X018222Y014396D02*
X018222Y014626D01*
X018299Y014549D01*
X018069Y014549D02*
X018069Y014588D01*
X018030Y014626D01*
X017953Y014626D01*
X017915Y014588D01*
X017915Y014549D01*
X017953Y014511D01*
X018030Y014511D01*
X018069Y014549D01*
X018030Y014511D02*
X018069Y014473D01*
X018069Y014434D01*
X018030Y014396D01*
X017953Y014396D01*
X017915Y014434D01*
X017915Y014473D01*
X017953Y014511D01*
X017872Y015620D02*
X017872Y015850D01*
X017757Y015850D01*
X017718Y015812D01*
X017718Y015735D01*
X017757Y015697D01*
X017872Y015697D01*
X017795Y015697D02*
X017718Y015620D01*
X017642Y015620D02*
X017488Y015774D01*
X017488Y015812D01*
X017527Y015850D01*
X017603Y015850D01*
X017642Y015812D01*
X017642Y015620D02*
X017488Y015620D01*
X017411Y015659D02*
X017373Y015620D01*
X017296Y015620D01*
X017258Y015659D01*
X017258Y015812D01*
X017296Y015850D01*
X017373Y015850D01*
X017411Y015812D01*
X017411Y015774D01*
X017373Y015735D01*
X017258Y015735D01*
X016732Y015681D02*
X016616Y015681D01*
X016578Y015719D01*
X016578Y015796D01*
X016616Y015834D01*
X016732Y015834D01*
X016732Y015604D01*
X016655Y015681D02*
X016578Y015604D01*
X016501Y015642D02*
X016463Y015604D01*
X016386Y015604D01*
X016348Y015642D01*
X016348Y015681D01*
X016386Y015719D01*
X016425Y015719D01*
X016386Y015719D02*
X016348Y015757D01*
X016348Y015796D01*
X016386Y015834D01*
X016463Y015834D01*
X016501Y015796D01*
X016271Y015757D02*
X016194Y015834D01*
X016194Y015604D01*
X016118Y015604D02*
X016271Y015604D01*
X016240Y016295D02*
X016317Y016372D01*
X016278Y016372D02*
X016393Y016372D01*
X016393Y016295D02*
X016393Y016525D01*
X016278Y016525D01*
X016240Y016487D01*
X016240Y016410D01*
X016278Y016372D01*
X016163Y016333D02*
X016125Y016295D01*
X016048Y016295D01*
X016010Y016333D01*
X016010Y016372D01*
X016048Y016410D01*
X016087Y016410D01*
X016048Y016410D02*
X016010Y016448D01*
X016010Y016487D01*
X016048Y016525D01*
X016125Y016525D01*
X016163Y016487D01*
X015933Y016487D02*
X015895Y016525D01*
X015818Y016525D01*
X015780Y016487D01*
X015933Y016333D01*
X015895Y016295D01*
X015818Y016295D01*
X015780Y016333D01*
X015780Y016487D01*
X015933Y016487D02*
X015933Y016333D01*
X015916Y017428D02*
X015839Y017428D01*
X015801Y017466D01*
X015724Y017543D02*
X015571Y017543D01*
X015494Y017581D02*
X015494Y017619D01*
X015456Y017658D01*
X015379Y017658D01*
X015340Y017619D01*
X015340Y017581D01*
X015379Y017543D01*
X015456Y017543D01*
X015494Y017581D01*
X015456Y017543D02*
X015494Y017504D01*
X015494Y017466D01*
X015456Y017428D01*
X015379Y017428D01*
X015340Y017466D01*
X015340Y017504D01*
X015379Y017543D01*
X015609Y017658D02*
X015724Y017543D01*
X015801Y017619D02*
X015839Y017658D01*
X015916Y017658D01*
X015954Y017619D01*
X015954Y017466D01*
X015916Y017428D01*
X015609Y017428D02*
X015609Y017658D01*
X015608Y017994D02*
X015685Y017994D01*
X015724Y018032D01*
X015724Y018071D01*
X015685Y018109D01*
X015608Y018109D01*
X015570Y018071D01*
X015570Y018032D01*
X015608Y017994D01*
X015493Y017994D02*
X015340Y018148D01*
X015340Y018186D01*
X015378Y018224D01*
X015455Y018224D01*
X015493Y018186D01*
X015570Y018186D02*
X015608Y018224D01*
X015685Y018224D01*
X015724Y018186D01*
X015724Y018148D01*
X015685Y018109D01*
X015608Y018109D02*
X015570Y018148D01*
X015570Y018186D01*
X015493Y017994D02*
X015340Y017994D01*
X015800Y017994D02*
X015877Y018071D01*
X015839Y018071D02*
X015954Y018071D01*
X015954Y017994D02*
X015954Y018224D01*
X015839Y018224D01*
X015800Y018186D01*
X015800Y018109D01*
X015839Y018071D01*
X016051Y018840D02*
X016204Y018840D01*
X016051Y018993D01*
X016051Y019031D01*
X016089Y019070D01*
X016166Y019070D01*
X016204Y019031D01*
X016281Y019031D02*
X016281Y018993D01*
X016319Y018955D01*
X016281Y018916D01*
X016281Y018878D01*
X016319Y018840D01*
X016396Y018840D01*
X016435Y018878D01*
X016511Y018878D02*
X016511Y019031D01*
X016550Y019070D01*
X016665Y019070D01*
X016665Y018840D01*
X016550Y018840D01*
X016511Y018878D01*
X016358Y018955D02*
X016319Y018955D01*
X016281Y019031D02*
X016319Y019070D01*
X016396Y019070D01*
X016435Y019031D01*
X016311Y019775D02*
X016081Y019775D01*
X016157Y019775D02*
X016157Y019890D01*
X016196Y019929D01*
X016273Y019929D01*
X016311Y019890D01*
X016311Y019775D01*
X016157Y019852D02*
X016081Y019929D01*
X016119Y020005D02*
X016081Y020044D01*
X016081Y020120D01*
X016119Y020159D01*
X016157Y020159D01*
X016196Y020120D01*
X016196Y020005D01*
X016119Y020005D01*
X016196Y020005D02*
X016273Y020082D01*
X016311Y020159D01*
X016196Y020235D02*
X016196Y020389D01*
X016311Y020351D02*
X016196Y020235D01*
X016081Y020351D02*
X016311Y020351D01*
X015875Y020362D02*
X015875Y020286D01*
X015836Y020247D01*
X015760Y020324D02*
X015760Y020362D01*
X015721Y020401D01*
X015683Y020401D01*
X015645Y020362D01*
X015645Y020286D01*
X015683Y020247D01*
X015645Y020171D02*
X015645Y020017D01*
X015645Y020094D02*
X015875Y020094D01*
X015798Y020017D01*
X015836Y019940D02*
X015683Y019940D01*
X015645Y019902D01*
X015645Y019787D01*
X015875Y019787D01*
X015875Y019902D01*
X015836Y019940D01*
X015875Y020362D02*
X015836Y020401D01*
X015798Y020401D01*
X015760Y020362D01*
X015032Y020310D02*
X015032Y020425D01*
X014993Y020463D01*
X014916Y020463D01*
X014878Y020425D01*
X014878Y020310D01*
X014878Y020386D02*
X014801Y020463D01*
X014801Y020540D02*
X014955Y020693D01*
X014993Y020693D01*
X015032Y020655D01*
X015032Y020578D01*
X014993Y020540D01*
X014801Y020540D02*
X014801Y020693D01*
X014801Y020770D02*
X014801Y020924D01*
X014801Y020847D02*
X015032Y020847D01*
X014955Y020770D01*
X015032Y020310D02*
X014801Y020310D01*
X014402Y020402D02*
X014402Y020517D01*
X014364Y020556D01*
X014287Y020556D01*
X014249Y020517D01*
X014249Y020402D01*
X014249Y020479D02*
X014172Y020556D01*
X014172Y020632D02*
X014325Y020786D01*
X014364Y020786D01*
X014402Y020747D01*
X014402Y020671D01*
X014364Y020632D01*
X014172Y020632D02*
X014172Y020786D01*
X014210Y020862D02*
X014364Y021016D01*
X014210Y021016D01*
X014172Y020978D01*
X014172Y020901D01*
X014210Y020862D01*
X014364Y020862D01*
X014402Y020901D01*
X014402Y020978D01*
X014364Y021016D01*
X014408Y021412D02*
X014177Y021412D01*
X014254Y021412D02*
X014254Y021527D01*
X014293Y021565D01*
X014369Y021565D01*
X014408Y021527D01*
X014408Y021412D01*
X014254Y021489D02*
X014177Y021565D01*
X014177Y021642D02*
X014177Y021795D01*
X014177Y021719D02*
X014408Y021719D01*
X014331Y021642D01*
X014331Y021872D02*
X014369Y021872D01*
X014408Y021911D01*
X014408Y021987D01*
X014369Y022026D01*
X014331Y022026D01*
X014293Y021987D01*
X014293Y021911D01*
X014331Y021872D01*
X014293Y021911D02*
X014254Y021872D01*
X014216Y021872D01*
X014177Y021911D01*
X014177Y021987D01*
X014216Y022026D01*
X014254Y022026D01*
X014293Y021987D01*
X014248Y022394D02*
X014248Y022509D01*
X014286Y022547D01*
X014363Y022547D01*
X014401Y022509D01*
X014401Y022394D01*
X014171Y022394D01*
X014248Y022470D02*
X014171Y022547D01*
X014171Y022624D02*
X014171Y022777D01*
X014171Y022700D02*
X014401Y022700D01*
X014325Y022624D01*
X014286Y022854D02*
X014209Y022854D01*
X014171Y022892D01*
X014171Y022969D01*
X014209Y023007D01*
X014248Y023007D01*
X014286Y022969D01*
X014286Y022854D01*
X014363Y022931D01*
X014401Y023007D01*
X014820Y023001D02*
X014858Y023001D01*
X015012Y023154D01*
X015050Y023154D01*
X015050Y023001D01*
X015050Y022847D02*
X014820Y022847D01*
X014820Y022770D02*
X014820Y022924D01*
X014973Y022770D02*
X015050Y022847D01*
X015012Y022694D02*
X014935Y022694D01*
X014897Y022655D01*
X014897Y022540D01*
X014897Y022617D02*
X014820Y022694D01*
X014820Y022540D02*
X015050Y022540D01*
X015050Y022655D01*
X015012Y022694D01*
X015008Y021947D02*
X015046Y021909D01*
X015046Y021832D01*
X015008Y021794D01*
X014969Y021794D01*
X014931Y021832D01*
X014931Y021947D01*
X014854Y021947D02*
X015008Y021947D01*
X014854Y021947D02*
X014816Y021909D01*
X014816Y021832D01*
X014854Y021794D01*
X014816Y021717D02*
X014816Y021563D01*
X014816Y021487D02*
X014893Y021410D01*
X014893Y021448D02*
X014893Y021333D01*
X014816Y021333D02*
X015046Y021333D01*
X015046Y021448D01*
X015008Y021487D01*
X014931Y021487D01*
X014893Y021448D01*
X014969Y021563D02*
X015046Y021640D01*
X014816Y021640D01*
X013788Y021673D02*
X013750Y021711D01*
X013711Y021711D01*
X013673Y021673D01*
X013635Y021711D01*
X013596Y021711D01*
X013558Y021673D01*
X013558Y021596D01*
X013596Y021558D01*
X013596Y021481D02*
X013558Y021443D01*
X013558Y021366D01*
X013596Y021327D01*
X013750Y021327D01*
X013788Y021366D01*
X013788Y021443D01*
X013750Y021481D01*
X013750Y021558D02*
X013788Y021596D01*
X013788Y021673D01*
X013673Y021673D02*
X013673Y021634D01*
X013635Y021788D02*
X013673Y021826D01*
X013673Y021903D01*
X013635Y021941D01*
X013596Y021941D01*
X013558Y021903D01*
X013558Y021826D01*
X013596Y021788D01*
X013635Y021788D01*
X013673Y021826D02*
X013711Y021788D01*
X013750Y021788D01*
X013788Y021826D01*
X013788Y021903D01*
X013750Y021941D01*
X013711Y021941D01*
X013673Y021903D01*
X013136Y021927D02*
X013136Y021850D01*
X013097Y021812D01*
X013097Y021735D02*
X012944Y021581D01*
X012905Y021581D01*
X012905Y021505D02*
X012982Y021428D01*
X012982Y021466D02*
X012982Y021351D01*
X012905Y021351D02*
X013136Y021351D01*
X013136Y021466D01*
X013097Y021505D01*
X013020Y021505D01*
X012982Y021466D01*
X013136Y021581D02*
X013136Y021735D01*
X013097Y021735D01*
X013136Y021927D02*
X013097Y021965D01*
X013059Y021965D01*
X012905Y021812D01*
X012905Y021965D01*
X012556Y021912D02*
X012326Y021912D01*
X012326Y021835D02*
X012326Y021989D01*
X012479Y021835D02*
X012556Y021912D01*
X012556Y021682D02*
X012326Y021682D01*
X012326Y021605D02*
X012326Y021759D01*
X012479Y021605D02*
X012556Y021682D01*
X012518Y021528D02*
X012364Y021528D01*
X012326Y021490D01*
X012326Y021375D01*
X012556Y021375D01*
X012556Y021490D01*
X012518Y021528D01*
X012926Y020886D02*
X013156Y020886D01*
X013041Y020771D01*
X013041Y020924D01*
X013118Y020694D02*
X012964Y020540D01*
X012926Y020540D01*
X012926Y020464D02*
X013003Y020387D01*
X013003Y020425D02*
X013003Y020310D01*
X012926Y020310D02*
X013156Y020310D01*
X013156Y020425D01*
X013118Y020464D01*
X013041Y020464D01*
X013003Y020425D01*
X013156Y020540D02*
X013156Y020694D01*
X013118Y020694D01*
X013548Y020646D02*
X013778Y020646D01*
X013663Y020531D01*
X013663Y020685D01*
X013739Y020761D02*
X013586Y020761D01*
X013739Y020915D01*
X013586Y020915D01*
X013548Y020876D01*
X013548Y020800D01*
X013586Y020761D01*
X013739Y020761D02*
X013778Y020800D01*
X013778Y020876D01*
X013739Y020915D01*
X013739Y020454D02*
X013778Y020416D01*
X013778Y020339D01*
X013739Y020301D01*
X013586Y020301D01*
X013548Y020339D01*
X013548Y020416D01*
X013586Y020454D01*
X014172Y020402D02*
X014402Y020402D01*
X013765Y022498D02*
X013611Y022498D01*
X013573Y022537D01*
X013573Y022614D01*
X013611Y022652D01*
X013573Y022729D02*
X013726Y022882D01*
X013765Y022882D01*
X013803Y022844D01*
X013803Y022767D01*
X013765Y022729D01*
X013765Y022652D02*
X013803Y022614D01*
X013803Y022537D01*
X013765Y022498D01*
X013573Y022729D02*
X013573Y022882D01*
X013611Y022959D02*
X013573Y022997D01*
X013573Y023074D01*
X013611Y023112D01*
X013765Y023112D01*
X013803Y023074D01*
X013803Y022997D01*
X013765Y022959D01*
X013726Y022959D01*
X013688Y022997D01*
X013688Y023112D01*
X013165Y023104D02*
X013126Y023143D01*
X013088Y023143D01*
X013050Y023104D01*
X013011Y023143D01*
X012973Y023143D01*
X012934Y023104D01*
X012934Y023027D01*
X012973Y022989D01*
X012973Y022912D02*
X013011Y022912D01*
X013050Y022874D01*
X013050Y022759D01*
X012973Y022759D01*
X012934Y022797D01*
X012934Y022874D01*
X012973Y022912D01*
X013126Y022836D02*
X013050Y022759D01*
X013050Y022682D02*
X013011Y022644D01*
X013011Y022529D01*
X013011Y022605D02*
X012934Y022682D01*
X013050Y022682D02*
X013126Y022682D01*
X013165Y022644D01*
X013165Y022529D01*
X012934Y022529D01*
X013126Y022836D02*
X013165Y022912D01*
X013126Y022989D02*
X013165Y023027D01*
X013165Y023104D01*
X013050Y023104D02*
X013050Y023066D01*
X012557Y023028D02*
X012519Y022990D01*
X012365Y022990D01*
X012519Y023143D01*
X012365Y023143D01*
X012327Y023105D01*
X012327Y023028D01*
X012365Y022990D01*
X012327Y022913D02*
X012327Y022759D01*
X012327Y022836D02*
X012557Y022836D01*
X012480Y022759D01*
X012519Y022683D02*
X012365Y022683D01*
X012327Y022644D01*
X012327Y022529D01*
X012557Y022529D01*
X012557Y022644D01*
X012519Y022683D01*
X012557Y023028D02*
X012557Y023105D01*
X012519Y023143D01*
X011510Y022062D02*
X011395Y022062D01*
X011357Y022023D01*
X011357Y021946D01*
X011395Y021908D01*
X011510Y021908D01*
X011434Y021908D02*
X011357Y021831D01*
X011280Y021831D02*
X011127Y021831D01*
X011203Y021831D02*
X011203Y022062D01*
X011280Y021985D01*
X011050Y021985D02*
X010973Y022062D01*
X010973Y021831D01*
X011050Y021831D02*
X010896Y021831D01*
X010820Y021831D02*
X010666Y021831D01*
X010743Y021831D02*
X010743Y022062D01*
X010820Y021985D01*
X011510Y022062D02*
X011510Y021831D01*
X011659Y020931D02*
X011659Y020777D01*
X011812Y020931D01*
X011851Y020931D01*
X011889Y020892D01*
X011889Y020816D01*
X011851Y020777D01*
X011889Y020624D02*
X011659Y020624D01*
X011659Y020700D02*
X011659Y020547D01*
X011697Y020470D02*
X011851Y020470D01*
X011889Y020432D01*
X011889Y020317D01*
X011659Y020317D01*
X011659Y020432D01*
X011697Y020470D01*
X011812Y020547D02*
X011889Y020624D01*
X010179Y020572D02*
X010141Y020496D01*
X010064Y020419D01*
X010064Y020534D01*
X010026Y020572D01*
X009987Y020572D01*
X009949Y020534D01*
X009949Y020457D01*
X009987Y020419D01*
X010064Y020419D01*
X009987Y020342D02*
X009949Y020304D01*
X009949Y020227D01*
X009987Y020189D01*
X010141Y020189D01*
X010179Y020227D01*
X010179Y020304D01*
X010141Y020342D01*
X010141Y020649D02*
X010103Y020649D01*
X010064Y020687D01*
X010064Y020764D01*
X010026Y020803D01*
X009987Y020803D01*
X009949Y020764D01*
X009949Y020687D01*
X009987Y020649D01*
X010026Y020649D01*
X010064Y020687D01*
X010064Y020764D02*
X010103Y020803D01*
X010141Y020803D01*
X010179Y020764D01*
X010179Y020687D01*
X010141Y020649D01*
X009077Y019199D02*
X009039Y019199D01*
X009000Y019160D01*
X009000Y019084D01*
X009039Y019045D01*
X009077Y019045D01*
X009115Y019084D01*
X009115Y019160D01*
X009077Y019199D01*
X009000Y019160D02*
X008962Y019199D01*
X008924Y019199D01*
X008885Y019160D01*
X008885Y019084D01*
X008924Y019045D01*
X008962Y019045D01*
X009000Y019084D01*
X009000Y018969D02*
X008924Y018969D01*
X008885Y018930D01*
X008885Y018853D01*
X008924Y018815D01*
X009000Y018815D02*
X009039Y018892D01*
X009039Y018930D01*
X009000Y018969D01*
X009115Y018969D02*
X009115Y018815D01*
X009000Y018815D01*
X008924Y018738D02*
X008885Y018700D01*
X008885Y018623D01*
X008924Y018585D01*
X009077Y018585D01*
X009115Y018623D01*
X009115Y018700D01*
X009077Y018738D01*
X009519Y018574D02*
X009557Y018612D01*
X009711Y018612D01*
X009749Y018574D01*
X009749Y018497D01*
X009711Y018459D01*
X009673Y018459D01*
X009634Y018497D01*
X009634Y018612D01*
X009519Y018574D02*
X009519Y018497D01*
X009557Y018459D01*
X009557Y018382D02*
X009596Y018382D01*
X009634Y018344D01*
X009634Y018229D01*
X009557Y018229D01*
X009519Y018267D01*
X009519Y018344D01*
X009557Y018382D01*
X009634Y018229D02*
X009711Y018305D01*
X009749Y018382D01*
X009711Y018152D02*
X009749Y018113D01*
X009749Y018037D01*
X009711Y017998D01*
X009557Y017998D01*
X009519Y018037D01*
X009519Y018113D01*
X009557Y018152D01*
X009093Y017445D02*
X009131Y017406D01*
X009131Y017330D01*
X009093Y017291D01*
X009054Y017291D01*
X009016Y017330D01*
X009016Y017445D01*
X008939Y017445D02*
X009093Y017445D01*
X008939Y017445D02*
X008901Y017406D01*
X008901Y017330D01*
X008939Y017291D01*
X008939Y017215D02*
X008901Y017176D01*
X008901Y017099D01*
X008939Y017061D01*
X009093Y017215D01*
X008939Y017215D01*
X009093Y017215D02*
X009131Y017176D01*
X009131Y017099D01*
X009093Y017061D01*
X008939Y017061D01*
X008901Y016984D02*
X008901Y016831D01*
X008901Y016908D02*
X009131Y016908D01*
X009054Y016831D01*
X009016Y016754D02*
X008978Y016716D01*
X008978Y016601D01*
X008978Y016677D02*
X008901Y016754D01*
X009016Y016754D02*
X009093Y016754D01*
X009131Y016716D01*
X009131Y016601D01*
X008901Y016601D01*
X007728Y016666D02*
X007651Y016589D01*
X007575Y016513D02*
X007613Y016474D01*
X007613Y016359D01*
X007536Y016359D01*
X007498Y016398D01*
X007498Y016474D01*
X007536Y016513D01*
X007575Y016513D01*
X007498Y016589D02*
X007498Y016743D01*
X007498Y016666D02*
X007728Y016666D01*
X007728Y016513D02*
X007690Y016436D01*
X007613Y016359D01*
X007536Y016282D02*
X007498Y016244D01*
X007498Y016167D01*
X007536Y016129D01*
X007690Y016129D01*
X007728Y016167D01*
X007728Y016244D01*
X007690Y016282D01*
X007600Y017480D02*
X007484Y017480D01*
X007446Y017519D01*
X007446Y017557D01*
X007484Y017595D01*
X007600Y017595D01*
X007600Y017480D02*
X007600Y017710D01*
X007484Y017710D01*
X007446Y017672D01*
X007446Y017634D01*
X007484Y017595D01*
X007369Y017634D02*
X007293Y017710D01*
X007293Y017480D01*
X007369Y017480D02*
X007216Y017480D01*
X007002Y017474D02*
X007002Y017704D01*
X006849Y017704D01*
X006772Y017704D02*
X006657Y017704D01*
X006618Y017665D01*
X006618Y017627D01*
X006657Y017589D01*
X006772Y017589D01*
X006772Y017474D02*
X006772Y017704D01*
X006657Y017589D02*
X006618Y017550D01*
X006618Y017512D01*
X006657Y017474D01*
X006772Y017474D01*
X006925Y017589D02*
X007002Y017589D01*
X006542Y017665D02*
X006503Y017704D01*
X006427Y017704D01*
X006388Y017665D01*
X006388Y017627D01*
X006542Y017474D01*
X006388Y017474D01*
X006360Y017502D02*
X006321Y017464D01*
X006245Y017464D01*
X006206Y017502D01*
X006129Y017502D02*
X006091Y017464D01*
X006014Y017464D01*
X005976Y017502D01*
X005976Y017579D01*
X006014Y017617D01*
X006053Y017617D01*
X006129Y017579D01*
X006129Y017694D01*
X005976Y017694D01*
X005899Y017656D02*
X005861Y017694D01*
X005784Y017694D01*
X005746Y017656D01*
X005746Y017502D01*
X005784Y017464D01*
X005861Y017464D01*
X005899Y017502D01*
X005861Y017579D02*
X005746Y017579D01*
X005861Y017579D02*
X005899Y017617D01*
X005899Y017656D01*
X006206Y017656D02*
X006245Y017694D01*
X006321Y017694D01*
X006360Y017656D01*
X006360Y017502D01*
X007676Y017710D02*
X007830Y017710D01*
X007830Y017480D01*
X007830Y017595D02*
X007753Y017595D01*
X007552Y019434D02*
X007552Y021434D01*
X007506Y022697D02*
X007544Y022735D01*
X007391Y022889D01*
X007391Y022735D01*
X007429Y022697D01*
X007506Y022697D01*
X007544Y022735D02*
X007544Y022889D01*
X007506Y022927D01*
X007429Y022927D01*
X007391Y022889D01*
X007314Y022889D02*
X007314Y022850D01*
X007276Y022812D01*
X007199Y022812D01*
X007161Y022773D01*
X007161Y022735D01*
X007199Y022697D01*
X007276Y022697D01*
X007314Y022735D01*
X007314Y022773D01*
X007276Y022812D01*
X007199Y022812D02*
X007161Y022850D01*
X007161Y022889D01*
X007199Y022927D01*
X007276Y022927D01*
X007314Y022889D01*
X007621Y022697D02*
X007775Y022697D01*
X007851Y022697D02*
X007928Y022773D01*
X007890Y022773D02*
X008005Y022773D01*
X008005Y022697D02*
X008005Y022927D01*
X007890Y022927D01*
X007851Y022889D01*
X007851Y022812D01*
X007890Y022773D01*
X007775Y022850D02*
X007698Y022927D01*
X007698Y022697D01*
X007699Y023318D02*
X007699Y023548D01*
X007775Y023471D01*
X007852Y023433D02*
X007890Y023394D01*
X008005Y023394D01*
X007929Y023394D02*
X007852Y023318D01*
X007775Y023318D02*
X007622Y023318D01*
X007545Y023318D02*
X007392Y023318D01*
X007468Y023318D02*
X007468Y023548D01*
X007545Y023471D01*
X007315Y023509D02*
X007276Y023548D01*
X007200Y023548D01*
X007161Y023509D01*
X007161Y023471D01*
X007200Y023433D01*
X007161Y023394D01*
X007161Y023356D01*
X007200Y023318D01*
X007276Y023318D01*
X007315Y023356D01*
X007238Y023433D02*
X007200Y023433D01*
X007852Y023433D02*
X007852Y023509D01*
X007890Y023548D01*
X008005Y023548D01*
X008005Y023318D01*
X009853Y023151D02*
X009891Y023189D01*
X009968Y023189D01*
X010006Y023151D01*
X009853Y023151D02*
X009853Y023113D01*
X010006Y022959D01*
X009853Y022959D01*
X010083Y022959D02*
X010237Y022959D01*
X010313Y022959D02*
X010467Y022959D01*
X010544Y022959D02*
X010620Y023036D01*
X010582Y023036D02*
X010697Y023036D01*
X010697Y022959D02*
X010697Y023189D01*
X010582Y023189D01*
X010544Y023151D01*
X010544Y023074D01*
X010582Y023036D01*
X010467Y023113D02*
X010390Y023189D01*
X010390Y022959D01*
X010237Y023113D02*
X010160Y023189D01*
X010160Y022959D01*
X004785Y018512D02*
X004785Y018435D01*
X004747Y018397D01*
X004594Y018397D01*
X004747Y018550D01*
X004594Y018550D01*
X004555Y018512D01*
X004555Y018435D01*
X004594Y018397D01*
X004747Y018320D02*
X004594Y018167D01*
X004555Y018167D01*
X004594Y018090D02*
X004555Y018052D01*
X004555Y017975D01*
X004594Y017937D01*
X004747Y017937D01*
X004785Y017975D01*
X004785Y018052D01*
X004747Y018090D01*
X004785Y018167D02*
X004785Y018320D01*
X004747Y018320D01*
X004785Y018512D02*
X004747Y018550D01*
X004859Y016777D02*
X004820Y016739D01*
X004820Y016662D01*
X004859Y016623D01*
X005012Y016777D01*
X004859Y016777D01*
X005012Y016777D02*
X005050Y016739D01*
X005050Y016662D01*
X005012Y016623D01*
X004859Y016623D01*
X004820Y016547D02*
X004820Y016393D01*
X004820Y016317D02*
X004820Y016163D01*
X004820Y016086D02*
X004897Y016010D01*
X004897Y016048D02*
X004897Y015933D01*
X004820Y015933D02*
X005050Y015933D01*
X005050Y016048D01*
X005012Y016086D01*
X004935Y016086D01*
X004897Y016048D01*
X004974Y016163D02*
X005050Y016240D01*
X004820Y016240D01*
X004974Y016393D02*
X005050Y016470D01*
X004820Y016470D01*
X004323Y016425D02*
X004285Y016425D01*
X004208Y016348D01*
X004093Y016348D01*
X004208Y016348D02*
X004285Y016271D01*
X004323Y016271D01*
X004246Y016501D02*
X004323Y016578D01*
X004093Y016578D01*
X004093Y016501D02*
X004093Y016655D01*
X004445Y014808D02*
X004445Y014654D01*
X004598Y014808D01*
X004637Y014808D01*
X004675Y014769D01*
X004675Y014693D01*
X004637Y014654D01*
X004675Y014578D02*
X004637Y014501D01*
X004560Y014424D01*
X004560Y014539D01*
X004521Y014578D01*
X004483Y014578D01*
X004445Y014539D01*
X004445Y014462D01*
X004483Y014424D01*
X004560Y014424D01*
X004637Y014347D02*
X004675Y014309D01*
X004675Y014232D01*
X004637Y014194D01*
X004483Y014194D01*
X004445Y014232D01*
X004445Y014309D01*
X004483Y014347D01*
X003191Y013086D02*
X003114Y013086D01*
X003076Y013047D01*
X002999Y012971D02*
X002884Y012971D01*
X002846Y012932D01*
X002846Y012894D01*
X002884Y012856D01*
X002961Y012856D01*
X002999Y012894D01*
X002999Y012971D01*
X002923Y013047D01*
X002846Y013086D01*
X002769Y012971D02*
X002616Y012971D01*
X002654Y013086D02*
X002769Y012971D01*
X002654Y012856D02*
X002654Y013086D01*
X003076Y012894D02*
X003114Y012856D01*
X003191Y012856D01*
X003229Y012894D01*
X003229Y013047D01*
X003191Y013086D01*
X003246Y012291D02*
X003131Y012291D01*
X003093Y012252D01*
X003093Y012176D01*
X003131Y012137D01*
X003246Y012137D01*
X003170Y012137D02*
X003093Y012060D01*
X003016Y012060D02*
X002863Y012060D01*
X002939Y012060D02*
X002939Y012291D01*
X003016Y012214D01*
X002786Y012252D02*
X002748Y012291D01*
X002671Y012291D01*
X002633Y012252D01*
X002786Y012099D01*
X002748Y012060D01*
X002671Y012060D01*
X002633Y012099D01*
X002633Y012252D01*
X002556Y012291D02*
X002402Y012291D01*
X002402Y012252D01*
X002556Y012099D01*
X002556Y012060D01*
X002786Y012099D02*
X002786Y012252D01*
X003246Y012291D02*
X003246Y012060D01*
X003622Y011635D02*
X003699Y011596D01*
X003776Y011520D01*
X003661Y011520D01*
X003622Y011481D01*
X003622Y011443D01*
X003661Y011405D01*
X003737Y011405D01*
X003776Y011443D01*
X003776Y011520D01*
X003853Y011596D02*
X004006Y011443D01*
X003968Y011405D01*
X003891Y011405D01*
X003853Y011443D01*
X003853Y011596D01*
X003891Y011635D01*
X003968Y011635D01*
X004006Y011596D01*
X004006Y011443D01*
X004083Y011405D02*
X004236Y011405D01*
X004160Y011405D02*
X004160Y011635D01*
X004236Y011558D01*
X004313Y011520D02*
X004351Y011481D01*
X004466Y011481D01*
X004390Y011481D02*
X004313Y011405D01*
X004313Y011520D02*
X004313Y011596D01*
X004351Y011635D01*
X004466Y011635D01*
X004466Y011405D01*
X003886Y010681D02*
X003847Y010681D01*
X003694Y010527D01*
X003655Y010527D01*
X003694Y010450D02*
X003655Y010412D01*
X003655Y010335D01*
X003694Y010297D01*
X003770Y010297D01*
X003770Y010412D01*
X003732Y010450D01*
X003694Y010450D01*
X003847Y010374D02*
X003770Y010297D01*
X003694Y010220D02*
X003655Y010182D01*
X003655Y010105D01*
X003694Y010067D01*
X003847Y010067D01*
X003886Y010105D01*
X003886Y010182D01*
X003847Y010220D01*
X003847Y010374D02*
X003886Y010450D01*
X003886Y010527D02*
X003886Y010681D01*
X004568Y009510D02*
X004529Y009472D01*
X004683Y009318D01*
X004644Y009280D01*
X004568Y009280D01*
X004529Y009318D01*
X004529Y009472D01*
X004568Y009510D02*
X004644Y009510D01*
X004683Y009472D01*
X004683Y009318D01*
X004759Y009318D02*
X004759Y009357D01*
X004798Y009395D01*
X004913Y009395D01*
X004913Y009318D01*
X004874Y009280D01*
X004798Y009280D01*
X004759Y009318D01*
X004836Y009472D02*
X004913Y009395D01*
X004990Y009318D02*
X005028Y009280D01*
X005105Y009280D01*
X005143Y009318D01*
X005143Y009472D01*
X005105Y009510D01*
X005028Y009510D01*
X004990Y009472D01*
X004836Y009472D02*
X004759Y009510D01*
X003045Y009267D02*
X003007Y009190D01*
X002930Y009114D01*
X002930Y009229D01*
X002891Y009267D01*
X002853Y009267D01*
X002815Y009229D01*
X002815Y009152D01*
X002853Y009114D01*
X002930Y009114D01*
X002930Y009037D02*
X002853Y009037D01*
X002815Y008998D01*
X002815Y008922D01*
X002853Y008883D01*
X002853Y008807D02*
X002815Y008768D01*
X002815Y008691D01*
X002853Y008653D01*
X003007Y008653D01*
X003045Y008691D01*
X003045Y008768D01*
X003007Y008807D01*
X003045Y008883D02*
X002930Y008883D01*
X002968Y008960D01*
X002968Y008998D01*
X002930Y009037D01*
X003045Y009037D02*
X003045Y008883D01*
X003052Y007543D02*
X003013Y007505D01*
X003013Y007466D01*
X003052Y007428D01*
X003013Y007390D01*
X003013Y007351D01*
X003052Y007313D01*
X003129Y007313D01*
X003167Y007351D01*
X003244Y007351D02*
X003244Y007505D01*
X003282Y007543D01*
X003397Y007543D01*
X003397Y007313D01*
X003282Y007313D01*
X003244Y007351D01*
X003167Y007505D02*
X003129Y007543D01*
X003052Y007543D01*
X003052Y007428D02*
X003090Y007428D01*
X002937Y007351D02*
X002937Y007505D01*
X002898Y007543D01*
X002822Y007543D01*
X002783Y007505D01*
X002937Y007351D01*
X002898Y007313D01*
X002822Y007313D01*
X002783Y007351D01*
X002783Y007505D01*
X002816Y006903D02*
X002931Y006788D01*
X002778Y006788D01*
X002816Y006673D02*
X002816Y006903D01*
X003008Y006865D02*
X003008Y006827D01*
X003046Y006788D01*
X003123Y006788D01*
X003162Y006827D01*
X003162Y006865D01*
X003123Y006903D01*
X003046Y006903D01*
X003008Y006865D01*
X003046Y006788D02*
X003008Y006750D01*
X003008Y006711D01*
X003046Y006673D01*
X003123Y006673D01*
X003162Y006711D01*
X003162Y006750D01*
X003123Y006788D01*
X003238Y006788D02*
X003277Y006750D01*
X003392Y006750D01*
X003392Y006673D02*
X003392Y006903D01*
X003277Y006903D01*
X003238Y006865D01*
X003238Y006788D01*
X003315Y006750D02*
X003238Y006673D01*
X003259Y006230D02*
X003336Y006230D01*
X003374Y006191D01*
X003374Y006038D01*
X003336Y006000D01*
X003259Y006000D01*
X003220Y006038D01*
X003144Y006038D02*
X003105Y006000D01*
X003029Y006000D01*
X002990Y006038D01*
X002990Y006115D01*
X003029Y006153D01*
X003067Y006153D01*
X003144Y006115D01*
X003144Y006230D01*
X002990Y006230D01*
X002914Y006191D02*
X002875Y006230D01*
X002798Y006230D01*
X002760Y006191D01*
X002914Y006038D01*
X002875Y006000D01*
X002798Y006000D01*
X002760Y006038D01*
X002760Y006191D01*
X002914Y006191D02*
X002914Y006038D01*
X003220Y006191D02*
X003259Y006230D01*
X003186Y005549D02*
X003186Y005319D01*
X003263Y005319D02*
X003109Y005319D01*
X003032Y005434D02*
X002879Y005434D01*
X002917Y005319D02*
X002917Y005549D01*
X003032Y005434D01*
X003186Y005549D02*
X003263Y005473D01*
X003339Y005511D02*
X003339Y005434D01*
X003378Y005396D01*
X003493Y005396D01*
X003493Y005319D02*
X003493Y005549D01*
X003378Y005549D01*
X003339Y005511D01*
X003416Y005396D02*
X003339Y005319D01*
X010586Y012568D02*
X010548Y012606D01*
X010548Y012683D01*
X010586Y012721D01*
X010586Y012798D02*
X010548Y012836D01*
X010548Y012913D01*
X010586Y012951D01*
X010625Y012951D01*
X010663Y012913D01*
X010663Y012798D01*
X010586Y012798D01*
X010663Y012798D02*
X010740Y012875D01*
X010778Y012951D01*
X010663Y013028D02*
X010663Y013143D01*
X010625Y013182D01*
X010586Y013182D01*
X010548Y013143D01*
X010548Y013066D01*
X010586Y013028D01*
X010663Y013028D01*
X010740Y013105D01*
X010778Y013182D01*
X010740Y012721D02*
X010778Y012683D01*
X010778Y012606D01*
X010740Y012568D01*
X010586Y012568D01*
X009661Y014537D02*
X009584Y014537D01*
X009545Y014576D01*
X009545Y014767D01*
X009469Y014691D02*
X009392Y014767D01*
X009392Y014537D01*
X009469Y014537D02*
X009315Y014537D01*
X009239Y014576D02*
X009085Y014729D01*
X009085Y014576D01*
X009123Y014537D01*
X009200Y014537D01*
X009239Y014576D01*
X009239Y014729D01*
X009200Y014767D01*
X009123Y014767D01*
X009085Y014729D01*
X009661Y014537D02*
X009699Y014576D01*
X009699Y014767D01*
X014185Y011128D02*
X014185Y010898D01*
X014261Y010898D02*
X014108Y010898D01*
X014261Y011051D02*
X014185Y011128D01*
X014338Y011089D02*
X014376Y011128D01*
X014453Y011128D01*
X014492Y011089D01*
X014568Y011089D02*
X014568Y010936D01*
X014607Y010898D01*
X014722Y010898D01*
X014722Y011128D01*
X014607Y011128D01*
X014568Y011089D01*
X014492Y010898D02*
X014338Y011051D01*
X014338Y011089D01*
X014338Y010898D02*
X014492Y010898D01*
X014884Y010575D02*
X014730Y010421D01*
X014692Y010421D01*
X014730Y010345D02*
X014769Y010345D01*
X014807Y010306D01*
X014807Y010191D01*
X014730Y010191D01*
X014692Y010230D01*
X014692Y010306D01*
X014730Y010345D01*
X014884Y010268D02*
X014807Y010191D01*
X014807Y010115D02*
X014769Y010076D01*
X014769Y009961D01*
X014803Y009984D02*
X014803Y009831D01*
X014919Y009946D01*
X014688Y009946D01*
X014692Y009961D02*
X014922Y009961D01*
X014922Y010076D01*
X014884Y010115D01*
X014807Y010115D01*
X014769Y010038D02*
X014692Y010115D01*
X014884Y010268D02*
X014922Y010345D01*
X014922Y010421D02*
X014922Y010575D01*
X014884Y010575D01*
X015443Y010955D02*
X015443Y011108D01*
X015596Y010955D01*
X015558Y010917D01*
X015481Y010917D01*
X015443Y010955D01*
X015596Y010955D02*
X015596Y011108D01*
X015558Y011147D01*
X015481Y011147D01*
X015443Y011108D01*
X015673Y011108D02*
X015712Y011147D01*
X015788Y011147D01*
X015827Y011108D01*
X015903Y011108D02*
X015942Y011147D01*
X016057Y011147D01*
X016057Y010917D01*
X015942Y010917D01*
X015903Y010955D01*
X015903Y011108D01*
X015827Y010917D02*
X015673Y010917D01*
X015673Y011070D02*
X015673Y011108D01*
X015673Y011070D02*
X015827Y010917D01*
X016130Y010954D02*
X016130Y011107D01*
X016168Y011146D01*
X016245Y011146D01*
X016283Y011107D01*
X016283Y011069D01*
X016245Y011030D01*
X016130Y011030D01*
X016130Y010954D02*
X016168Y010915D01*
X016245Y010915D01*
X016283Y010954D01*
X016360Y010915D02*
X016513Y010915D01*
X016436Y010915D02*
X016436Y011146D01*
X016513Y011069D01*
X016590Y011107D02*
X016628Y011146D01*
X016743Y011146D01*
X016743Y010915D01*
X016628Y010915D01*
X016590Y010954D01*
X016590Y011107D01*
X017402Y011983D02*
X017402Y012021D01*
X017249Y012175D01*
X017249Y012213D01*
X017402Y012213D01*
X016519Y012524D02*
X016519Y012754D01*
X016404Y012754D01*
X016366Y012715D01*
X016366Y012639D01*
X016404Y012600D01*
X016519Y012600D01*
X016443Y012600D02*
X016366Y012524D01*
X016289Y012562D02*
X016251Y012524D01*
X016174Y012524D01*
X016136Y012562D01*
X016136Y012600D01*
X016174Y012639D01*
X016212Y012639D01*
X016174Y012639D02*
X016136Y012677D01*
X016136Y012715D01*
X016174Y012754D01*
X016251Y012754D01*
X016289Y012715D01*
X016059Y012715D02*
X016059Y012677D01*
X016021Y012639D01*
X015944Y012639D01*
X015905Y012600D01*
X015905Y012562D01*
X015944Y012524D01*
X016021Y012524D01*
X016059Y012562D01*
X016059Y012600D01*
X016021Y012639D01*
X015944Y012639D02*
X015905Y012677D01*
X015905Y012715D01*
X015944Y012754D01*
X016021Y012754D01*
X016059Y012715D01*
X016057Y012300D02*
X016019Y012262D01*
X016019Y012223D01*
X016057Y012185D01*
X016019Y012147D01*
X016019Y012108D01*
X016057Y012070D01*
X016134Y012070D01*
X016172Y012108D01*
X016249Y012070D02*
X016326Y012147D01*
X016287Y012147D02*
X016403Y012147D01*
X016403Y012070D02*
X016403Y012300D01*
X016287Y012300D01*
X016249Y012262D01*
X016249Y012185D01*
X016287Y012147D01*
X016172Y012262D02*
X016134Y012300D01*
X016057Y012300D01*
X016057Y012185D02*
X016096Y012185D01*
X015942Y012223D02*
X015904Y012185D01*
X015789Y012185D01*
X015789Y012262D02*
X015827Y012300D01*
X015904Y012300D01*
X015942Y012262D01*
X015942Y012223D01*
X015942Y012108D02*
X015904Y012070D01*
X015827Y012070D01*
X015789Y012108D01*
X015789Y012262D01*
X015948Y013210D02*
X015948Y013249D01*
X015795Y013402D01*
X015795Y013440D01*
X015948Y013440D01*
X016064Y013440D02*
X016179Y013325D01*
X016025Y013325D01*
X016064Y013210D02*
X016064Y013440D01*
X016080Y013563D02*
X016156Y013563D01*
X016195Y013602D01*
X016195Y013640D01*
X016156Y013678D01*
X016080Y013678D01*
X016041Y013640D01*
X016041Y013602D01*
X016080Y013563D01*
X016080Y013678D02*
X016041Y013717D01*
X016041Y013755D01*
X016080Y013793D01*
X016156Y013793D01*
X016195Y013755D01*
X016195Y013717D01*
X016156Y013678D01*
X016272Y013678D02*
X016310Y013640D01*
X016425Y013640D01*
X016348Y013640D02*
X016272Y013563D01*
X016272Y013678D02*
X016272Y013755D01*
X016310Y013793D01*
X016425Y013793D01*
X016425Y013563D01*
X016371Y013440D02*
X016409Y013402D01*
X016409Y013249D01*
X016371Y013210D01*
X016294Y013210D01*
X016255Y013249D01*
X016255Y013402D02*
X016294Y013440D01*
X016371Y013440D01*
X015965Y013563D02*
X015811Y013563D01*
X015888Y013563D02*
X015888Y013793D01*
X015965Y013717D01*
X015969Y014004D02*
X015816Y014004D01*
X015893Y014004D02*
X015893Y014234D01*
X015969Y014157D01*
X016046Y014157D02*
X016085Y014119D01*
X016046Y014080D01*
X016046Y014042D01*
X016085Y014004D01*
X016161Y014004D01*
X016200Y014042D01*
X016276Y014042D02*
X016276Y014195D01*
X016315Y014234D01*
X016430Y014234D01*
X016430Y014004D01*
X016315Y014004D01*
X016276Y014042D01*
X016123Y014119D02*
X016085Y014119D01*
X016046Y014157D02*
X016046Y014195D01*
X016085Y014234D01*
X016161Y014234D01*
X016200Y014195D01*
X018075Y016578D02*
X018152Y016578D01*
X018190Y016616D01*
X018190Y016654D01*
X018152Y016693D01*
X018075Y016693D01*
X018037Y016654D01*
X018037Y016616D01*
X018075Y016578D01*
X018075Y016693D02*
X018037Y016731D01*
X018037Y016770D01*
X018075Y016808D01*
X018152Y016808D01*
X018190Y016770D01*
X018190Y016731D01*
X018152Y016693D01*
X018267Y016731D02*
X018420Y016578D01*
X018267Y016578D01*
X018267Y016731D02*
X018267Y016770D01*
X018305Y016808D01*
X018382Y016808D01*
X018420Y016770D01*
X018497Y016770D02*
X018497Y016693D01*
X018535Y016654D01*
X018651Y016654D01*
X018651Y016578D02*
X018651Y016808D01*
X018535Y016808D01*
X018497Y016770D01*
X018574Y016654D02*
X018497Y016578D01*
X018528Y017300D02*
X018451Y017300D01*
X018412Y017339D01*
X018336Y017415D02*
X018182Y017415D01*
X018106Y017454D02*
X018029Y017530D01*
X018029Y017300D01*
X018106Y017300D02*
X017952Y017300D01*
X018221Y017300D02*
X018221Y017530D01*
X018336Y017415D01*
X018412Y017492D02*
X018451Y017530D01*
X018528Y017530D01*
X018566Y017492D01*
X018566Y017339D01*
X018528Y017300D01*
X018532Y017988D02*
X018532Y018218D01*
X018417Y018218D01*
X018379Y018180D01*
X018379Y018103D01*
X018417Y018065D01*
X018532Y018065D01*
X018456Y018065D02*
X018379Y017988D01*
X018302Y017988D02*
X018302Y018026D01*
X018149Y018180D01*
X018149Y018218D01*
X018302Y018218D01*
X018072Y018218D02*
X018072Y018103D01*
X017995Y018141D01*
X017957Y018141D01*
X017919Y018103D01*
X017919Y018026D01*
X017957Y017988D01*
X018034Y017988D01*
X018072Y018026D01*
X018072Y018218D02*
X017919Y018218D01*
X017806Y018837D02*
X017691Y018837D01*
X017653Y018876D01*
X017653Y019029D01*
X017691Y019068D01*
X017806Y019068D01*
X017806Y018837D01*
X017576Y018837D02*
X017423Y018837D01*
X017499Y018837D02*
X017499Y019068D01*
X017576Y018991D01*
X017346Y018953D02*
X017346Y019068D01*
X017192Y019068D01*
X017231Y018991D02*
X017192Y018953D01*
X017192Y018876D01*
X017231Y018837D01*
X017307Y018837D01*
X017346Y018876D01*
X017346Y018953D02*
X017269Y018991D01*
X017231Y018991D01*
X017306Y019772D02*
X017153Y019772D01*
X017115Y019810D01*
X017115Y019887D01*
X017153Y019925D01*
X017153Y020002D02*
X017115Y020040D01*
X017115Y020117D01*
X017153Y020155D01*
X017191Y020155D01*
X017230Y020117D01*
X017230Y020079D01*
X017230Y020117D02*
X017268Y020155D01*
X017306Y020155D01*
X017345Y020117D01*
X017345Y020040D01*
X017306Y020002D01*
X017306Y019925D02*
X017345Y019887D01*
X017345Y019810D01*
X017306Y019772D01*
X017643Y019892D02*
X017873Y019892D01*
X017873Y020007D01*
X017835Y020046D01*
X017758Y020046D01*
X017720Y020007D01*
X017720Y019892D01*
X017720Y019969D02*
X017643Y020046D01*
X017643Y020122D02*
X017796Y020276D01*
X017835Y020276D01*
X017873Y020237D01*
X017873Y020161D01*
X017835Y020122D01*
X017643Y020122D02*
X017643Y020276D01*
X017758Y020352D02*
X017758Y020506D01*
X017643Y020468D02*
X017873Y020468D01*
X017758Y020352D01*
X017345Y020347D02*
X017345Y020271D01*
X017306Y020232D01*
X017153Y020232D01*
X017306Y020386D01*
X017153Y020386D01*
X017115Y020347D01*
X017115Y020271D01*
X017153Y020232D01*
X017306Y020386D02*
X017345Y020347D01*
X018212Y020327D02*
X018251Y020288D01*
X018212Y020327D02*
X018212Y020403D01*
X018251Y020442D01*
X018328Y020442D01*
X018366Y020403D01*
X018366Y020365D01*
X018328Y020288D01*
X018443Y020288D01*
X018443Y020442D01*
X018404Y020212D02*
X018443Y020173D01*
X018443Y020097D01*
X018404Y020058D01*
X018404Y019981D02*
X018328Y019981D01*
X018289Y019943D01*
X018289Y019828D01*
X018212Y019828D02*
X018443Y019828D01*
X018443Y019943D01*
X018404Y019981D01*
X018289Y019905D02*
X018212Y019981D01*
X018212Y020058D02*
X018366Y020212D01*
X018404Y020212D01*
X018212Y020212D02*
X018212Y020058D01*
X018728Y020144D02*
X018881Y019991D01*
X018881Y019952D01*
X018958Y019991D02*
X018997Y019952D01*
X019073Y019952D01*
X019112Y019991D01*
X019188Y019991D02*
X019227Y019952D01*
X019303Y019952D01*
X019342Y019991D01*
X019342Y020144D01*
X019303Y020182D01*
X019227Y020182D01*
X019188Y020144D01*
X019112Y020144D02*
X019073Y020182D01*
X018997Y020182D01*
X018958Y020144D01*
X018958Y020106D01*
X018997Y020067D01*
X018958Y020029D01*
X018958Y019991D01*
X018997Y020067D02*
X019035Y020067D01*
X018881Y020182D02*
X018728Y020182D01*
X018728Y020144D01*
X018732Y020475D02*
X018885Y020475D01*
X018809Y020475D02*
X018809Y020706D01*
X018885Y020629D01*
X018962Y020667D02*
X019115Y020514D01*
X019115Y020475D01*
X019192Y020475D02*
X019269Y020552D01*
X019231Y020552D02*
X019346Y020552D01*
X019346Y020475D02*
X019346Y020706D01*
X019231Y020706D01*
X019192Y020667D01*
X019192Y020590D01*
X019231Y020552D01*
X019115Y020706D02*
X018962Y020706D01*
X018962Y020667D01*
X018976Y021004D02*
X019129Y021004D01*
X019053Y021004D02*
X019053Y021234D01*
X019129Y021158D01*
X019206Y021196D02*
X019244Y021234D01*
X019359Y021234D01*
X019359Y021004D01*
X019244Y021004D01*
X019206Y021042D01*
X019206Y021196D01*
X018899Y021119D02*
X018746Y021119D01*
X018784Y021004D02*
X018784Y021234D01*
X018899Y021119D01*
X018500Y022547D02*
X018270Y022547D01*
X018347Y022547D02*
X018347Y022662D01*
X018385Y022700D01*
X018462Y022700D01*
X018500Y022662D01*
X018500Y022547D01*
X018347Y022623D02*
X018270Y022700D01*
X018270Y022777D02*
X018424Y022930D01*
X018462Y022930D01*
X018500Y022892D01*
X018500Y022815D01*
X018462Y022777D01*
X018270Y022777D02*
X018270Y022930D01*
X018308Y023007D02*
X018270Y023045D01*
X018270Y023122D01*
X018308Y023160D01*
X018347Y023160D01*
X018385Y023122D01*
X018385Y023084D01*
X018385Y023122D02*
X018424Y023160D01*
X018462Y023160D01*
X018500Y023122D01*
X018500Y023045D01*
X018462Y023007D01*
X017916Y022970D02*
X017916Y022893D01*
X017878Y022855D01*
X017878Y022778D02*
X017801Y022778D01*
X017763Y022740D01*
X017763Y022625D01*
X017763Y022701D02*
X017686Y022778D01*
X017686Y022855D02*
X017839Y023008D01*
X017878Y023008D01*
X017916Y022970D01*
X017878Y023085D02*
X017916Y023123D01*
X017916Y023200D01*
X017878Y023238D01*
X017839Y023238D01*
X017686Y023085D01*
X017686Y023238D01*
X017686Y023008D02*
X017686Y022855D01*
X017878Y022778D02*
X017916Y022740D01*
X017916Y022625D01*
X017686Y022625D01*
X017269Y022642D02*
X017269Y022565D01*
X017230Y022527D01*
X017077Y022527D01*
X017038Y022565D01*
X017038Y022642D01*
X017077Y022680D01*
X017154Y022757D02*
X017154Y022911D01*
X017192Y022987D02*
X017154Y023026D01*
X017154Y023141D01*
X017230Y023141D02*
X017269Y023102D01*
X017269Y023026D01*
X017230Y022987D01*
X017192Y022987D01*
X017077Y022987D02*
X017038Y023026D01*
X017038Y023102D01*
X017077Y023141D01*
X017230Y023141D01*
X017269Y022872D02*
X017038Y022872D01*
X017154Y022757D02*
X017269Y022872D01*
X017230Y022680D02*
X017269Y022642D01*
X016649Y022650D02*
X016610Y022688D01*
X016533Y022688D01*
X016495Y022650D01*
X016495Y022535D01*
X016495Y022611D02*
X016418Y022688D01*
X016457Y022765D02*
X016495Y022765D01*
X016533Y022803D01*
X016533Y022880D01*
X016495Y022918D01*
X016457Y022918D01*
X016418Y022880D01*
X016418Y022803D01*
X016457Y022765D01*
X016533Y022803D02*
X016572Y022765D01*
X016610Y022765D01*
X016649Y022803D01*
X016649Y022880D01*
X016610Y022918D01*
X016572Y022918D01*
X016533Y022880D01*
X016457Y022995D02*
X016418Y023033D01*
X016418Y023110D01*
X016457Y023148D01*
X016495Y023148D01*
X016533Y023110D01*
X016533Y023072D01*
X016533Y023110D02*
X016572Y023148D01*
X016610Y023148D01*
X016649Y023110D01*
X016649Y023033D01*
X016610Y022995D01*
X016649Y022650D02*
X016649Y022535D01*
X016418Y022535D01*
X016040Y022557D02*
X016040Y022672D01*
X016001Y022711D01*
X015848Y022711D01*
X015809Y022672D01*
X015809Y022557D01*
X016040Y022557D01*
X016001Y022788D02*
X016040Y022826D01*
X016040Y022903D01*
X016001Y022941D01*
X015963Y022941D01*
X015924Y022903D01*
X015886Y022941D01*
X015848Y022941D01*
X015809Y022903D01*
X015809Y022826D01*
X015848Y022788D01*
X015924Y022864D02*
X015924Y022903D01*
X015848Y023018D02*
X015809Y023056D01*
X015809Y023133D01*
X015848Y023171D01*
X015886Y023171D01*
X015924Y023133D01*
X015924Y023094D01*
X015924Y023133D02*
X015963Y023171D01*
X016001Y023171D01*
X016040Y023133D01*
X016040Y023056D01*
X016001Y023018D01*
X020450Y019353D02*
X020527Y019314D01*
X020604Y019238D01*
X020489Y019238D01*
X020450Y019199D01*
X020450Y019161D01*
X020489Y019123D01*
X020565Y019123D01*
X020604Y019161D01*
X020604Y019238D01*
X020680Y019276D02*
X020834Y019123D01*
X020680Y019123D01*
X020680Y019276D02*
X020680Y019314D01*
X020719Y019353D01*
X020796Y019353D01*
X020834Y019314D01*
X020911Y019314D02*
X020911Y019238D01*
X020949Y019199D01*
X021064Y019199D01*
X021064Y019123D02*
X021064Y019353D01*
X020949Y019353D01*
X020911Y019314D01*
X020987Y019199D02*
X020911Y019123D01*
X020205Y018383D02*
X020090Y018383D01*
X020051Y018345D01*
X020051Y018268D01*
X020090Y018230D01*
X020205Y018230D01*
X020205Y018153D02*
X020205Y018383D01*
X020128Y018230D02*
X020051Y018153D01*
X019974Y018153D02*
X019821Y018306D01*
X019821Y018345D01*
X019859Y018383D01*
X019936Y018383D01*
X019974Y018345D01*
X019974Y018153D02*
X019821Y018153D01*
X019744Y018153D02*
X019744Y018191D01*
X019591Y018345D01*
X019591Y018383D01*
X019744Y018383D01*
X023331Y005261D02*
X023471Y005261D01*
X023471Y004981D01*
X023331Y004981D01*
X023284Y005027D01*
X023284Y005214D01*
X023331Y005261D01*
X023561Y005261D02*
X023561Y004981D01*
X023747Y005261D01*
X023747Y004981D01*
X023837Y005027D02*
X023837Y005121D01*
X023930Y005121D01*
X023837Y005214D02*
X023883Y005261D01*
X023977Y005261D01*
X024024Y005214D01*
X024024Y005027D01*
X023977Y004981D01*
X023883Y004981D01*
X023837Y005027D01*
X024113Y005121D02*
X024300Y004981D01*
X024389Y005121D02*
X024576Y005121D01*
X024665Y005261D02*
X024852Y005121D01*
X024665Y004981D01*
X024942Y005027D02*
X024942Y005214D01*
X024988Y005261D01*
X025129Y005261D01*
X025129Y004981D01*
X024988Y004981D01*
X024942Y005027D01*
X025218Y004981D02*
X025218Y005261D01*
X025405Y005261D02*
X025218Y004981D01*
X025405Y004981D02*
X025405Y005261D01*
X025494Y005214D02*
X025541Y005261D01*
X025634Y005261D01*
X025681Y005214D01*
X025681Y005027D01*
X025634Y004981D01*
X025541Y004981D01*
X025494Y005027D01*
X025494Y005121D01*
X025588Y005121D01*
X025770Y005214D02*
X025817Y005261D01*
X025911Y005261D01*
X025957Y005214D01*
X025957Y005027D01*
X025911Y004981D01*
X025817Y004981D01*
X025770Y005027D01*
X025739Y004741D02*
X025739Y004626D01*
X025663Y004665D01*
X025624Y004665D01*
X025586Y004626D01*
X025586Y004549D01*
X025624Y004511D01*
X025701Y004511D01*
X025739Y004549D01*
X025816Y004511D02*
X025893Y004588D01*
X025855Y004588D02*
X025970Y004588D01*
X025970Y004511D02*
X025970Y004741D01*
X025855Y004741D01*
X025816Y004703D01*
X025816Y004626D01*
X025855Y004588D01*
X025739Y004741D02*
X025586Y004741D01*
X025509Y004703D02*
X025509Y004665D01*
X025471Y004626D01*
X025356Y004626D01*
X025356Y004549D02*
X025356Y004703D01*
X025394Y004741D01*
X025471Y004741D01*
X025509Y004703D01*
X025509Y004549D02*
X025471Y004511D01*
X025394Y004511D01*
X025356Y004549D01*
X024300Y005261D02*
X024113Y005121D01*
D11*
X023005Y005521D02*
X023005Y004271D01*
X026055Y004271D01*
X026055Y005521D01*
X023005Y005521D01*
X011264Y010090D02*
X010869Y010090D01*
X010869Y010878D01*
X011264Y010878D01*
X011264Y010090D01*
X010692Y009974D02*
X010023Y009974D01*
X010023Y011273D01*
X010692Y011273D01*
X010692Y009974D01*
X008788Y008669D02*
X008788Y008274D01*
X008000Y008274D01*
X008000Y008669D01*
X008788Y008669D01*
X007692Y008667D02*
X007692Y008273D01*
X006904Y008273D01*
X006904Y008667D01*
X007692Y008667D01*
X006685Y008749D02*
X006685Y008354D01*
X005897Y008354D01*
X005897Y008749D01*
X006685Y008749D01*
X005653Y008366D02*
X005259Y008366D01*
X005259Y009154D01*
X005653Y009154D01*
X005653Y008366D01*
X005056Y008381D02*
X004662Y008381D01*
X004662Y009169D01*
X005056Y009169D01*
X005056Y008381D01*
X004463Y008746D02*
X003164Y008746D01*
X003164Y009415D01*
X004463Y009415D01*
X004463Y008746D01*
X004370Y010117D02*
X003976Y010117D01*
X003976Y010905D01*
X004370Y010905D01*
X004370Y010117D01*
X004115Y011709D02*
X003327Y011709D01*
X003327Y012104D01*
X004115Y012104D01*
X004115Y011709D01*
X004116Y012226D02*
X003328Y012226D01*
X003328Y012621D01*
X004116Y012621D01*
X004116Y012226D01*
X004117Y012756D02*
X003329Y012756D01*
X003329Y013150D01*
X004117Y013150D01*
X004117Y012756D01*
X004729Y014090D02*
X004729Y014878D01*
X005123Y014878D01*
X005123Y014090D01*
X004729Y014090D01*
X005132Y016076D02*
X005132Y016864D01*
X005526Y016864D01*
X005526Y016076D01*
X005132Y016076D01*
X005599Y017760D02*
X005599Y019059D01*
X006269Y019059D01*
X006269Y017760D01*
X005599Y017760D01*
X005250Y017837D02*
X005250Y018625D01*
X004856Y018625D01*
X004856Y017837D01*
X005250Y017837D01*
X006426Y017763D02*
X006426Y019063D01*
X007095Y019063D01*
X007095Y017763D01*
X006426Y017763D01*
X007292Y017770D02*
X007292Y019069D01*
X007961Y019069D01*
X007961Y017770D01*
X007292Y017770D01*
X008151Y017766D02*
X008151Y019065D01*
X008821Y019065D01*
X008821Y017766D01*
X008151Y017766D01*
X008431Y017517D02*
X008431Y016729D01*
X008825Y016729D01*
X008825Y017517D01*
X008431Y017517D01*
X009026Y017843D02*
X009026Y018631D01*
X009420Y018631D01*
X009420Y017843D01*
X009026Y017843D01*
X008208Y016803D02*
X008208Y016015D01*
X007814Y016015D01*
X007814Y016803D01*
X008208Y016803D01*
X010081Y013361D02*
X010081Y012573D01*
X010475Y012573D01*
X010475Y013361D01*
X010081Y013361D01*
X010254Y020264D02*
X010254Y021052D01*
X010648Y021052D01*
X010648Y020264D01*
X010254Y020264D01*
X010593Y022115D02*
X011381Y022115D01*
X011381Y022510D01*
X010593Y022510D01*
X010593Y022115D01*
X010596Y022871D02*
X011384Y022871D01*
X011384Y023266D01*
X010596Y023266D01*
X010596Y022871D01*
X008855Y022835D02*
X008855Y022440D01*
X008067Y022440D01*
X008067Y022835D01*
X008855Y022835D01*
X008855Y023091D02*
X008067Y023091D01*
X008067Y023485D01*
X008855Y023485D01*
X008855Y023091D01*
D12*
X008802Y021434D02*
X007562Y021434D01*
X007539Y021432D01*
X007516Y021427D01*
X007494Y021418D01*
X007474Y021405D01*
X007456Y021390D01*
X007441Y021372D01*
X007428Y021352D01*
X007419Y021330D01*
X007414Y021307D01*
X007412Y021284D01*
X007412Y019584D01*
X007414Y019561D01*
X007419Y019538D01*
X007428Y019516D01*
X007441Y019496D01*
X007456Y019478D01*
X007474Y019463D01*
X007494Y019450D01*
X007516Y019441D01*
X007539Y019436D01*
X007562Y019434D01*
X007982Y019434D01*
X008382Y019434D01*
X008802Y019434D01*
X008825Y019436D01*
X008848Y019441D01*
X008870Y019450D01*
X008890Y019463D01*
X008908Y019478D01*
X008923Y019496D01*
X008936Y019516D01*
X008945Y019538D01*
X008950Y019561D01*
X008952Y019584D01*
X008952Y021284D01*
X008950Y021307D01*
X008945Y021330D01*
X008936Y021352D01*
X008923Y021372D01*
X008908Y021390D01*
X008890Y021405D01*
X008870Y021418D01*
X008848Y021427D01*
X008825Y021432D01*
X008802Y021434D01*
X008382Y019434D02*
X008380Y019461D01*
X008375Y019488D01*
X008365Y019514D01*
X008353Y019538D01*
X008337Y019560D01*
X008319Y019580D01*
X008297Y019597D01*
X008274Y019612D01*
X008249Y019622D01*
X008223Y019630D01*
X008196Y019634D01*
X008168Y019634D01*
X008141Y019630D01*
X008115Y019622D01*
X008090Y019612D01*
X008067Y019597D01*
X008045Y019580D01*
X008027Y019560D01*
X008011Y019538D01*
X007999Y019514D01*
X007989Y019488D01*
X007984Y019461D01*
X007982Y019434D01*
X010787Y005264D02*
X010787Y005164D01*
X010937Y005164D01*
X010937Y005264D02*
X010787Y005264D01*
X010117Y004514D02*
X010117Y002734D01*
X009595Y002735D02*
X009595Y004515D01*
X007595Y004515D02*
X007595Y003745D01*
X007595Y003505D01*
X007595Y002735D01*
X008775Y002085D02*
X008925Y002085D01*
X008925Y001985D01*
X008775Y001985D01*
X012117Y002734D02*
X012117Y003504D01*
X012117Y003744D01*
X012117Y004514D01*
X012667Y004512D02*
X012667Y003742D01*
X012667Y003502D01*
X012667Y002732D01*
X013847Y002082D02*
X013997Y002082D01*
X013997Y001982D01*
X013847Y001982D01*
X014667Y002732D02*
X014667Y004512D01*
X015184Y004514D02*
X015184Y002734D01*
X017184Y002734D02*
X017184Y003504D01*
X017184Y003744D01*
X017184Y004514D01*
X017707Y004511D02*
X017707Y002731D01*
X019707Y002731D02*
X019707Y003501D01*
X019707Y003741D01*
X019707Y004511D01*
X020227Y004514D02*
X020227Y002734D01*
X022227Y002734D02*
X022227Y003504D01*
X022227Y003744D01*
X022227Y004514D01*
X021047Y005164D02*
X020897Y005164D01*
X020897Y005264D01*
X021047Y005264D01*
X018527Y005261D02*
X018377Y005261D01*
X018377Y005161D01*
X018527Y005161D01*
X016004Y005164D02*
X015854Y005164D01*
X015854Y005264D01*
X016004Y005264D01*
D13*
X017184Y003744D02*
X017163Y003742D01*
X017143Y003737D01*
X017124Y003728D01*
X017107Y003716D01*
X017092Y003701D01*
X017080Y003684D01*
X017071Y003665D01*
X017066Y003645D01*
X017064Y003624D01*
X017066Y003603D01*
X017071Y003583D01*
X017080Y003564D01*
X017092Y003547D01*
X017107Y003532D01*
X017124Y003520D01*
X017143Y003511D01*
X017163Y003506D01*
X017184Y003504D01*
X019707Y003501D02*
X019686Y003503D01*
X019666Y003508D01*
X019647Y003517D01*
X019630Y003529D01*
X019615Y003544D01*
X019603Y003561D01*
X019594Y003580D01*
X019589Y003600D01*
X019587Y003621D01*
X019589Y003642D01*
X019594Y003662D01*
X019603Y003681D01*
X019615Y003698D01*
X019630Y003713D01*
X019647Y003725D01*
X019666Y003734D01*
X019686Y003739D01*
X019707Y003741D01*
X022227Y003744D02*
X022206Y003742D01*
X022186Y003737D01*
X022167Y003728D01*
X022150Y003716D01*
X022135Y003701D01*
X022123Y003684D01*
X022114Y003665D01*
X022109Y003645D01*
X022107Y003624D01*
X022109Y003603D01*
X022114Y003583D01*
X022123Y003564D01*
X022135Y003547D01*
X022150Y003532D01*
X022167Y003520D01*
X022186Y003511D01*
X022206Y003506D01*
X022227Y003504D01*
X012667Y003502D02*
X012688Y003504D01*
X012708Y003509D01*
X012727Y003518D01*
X012744Y003530D01*
X012759Y003545D01*
X012771Y003562D01*
X012780Y003581D01*
X012785Y003601D01*
X012787Y003622D01*
X012785Y003643D01*
X012780Y003663D01*
X012771Y003682D01*
X012759Y003699D01*
X012744Y003714D01*
X012727Y003726D01*
X012708Y003735D01*
X012688Y003740D01*
X012667Y003742D01*
X012117Y003744D02*
X012096Y003742D01*
X012076Y003737D01*
X012057Y003728D01*
X012040Y003716D01*
X012025Y003701D01*
X012013Y003684D01*
X012004Y003665D01*
X011999Y003645D01*
X011997Y003624D01*
X011999Y003603D01*
X012004Y003583D01*
X012013Y003564D01*
X012025Y003547D01*
X012040Y003532D01*
X012057Y003520D01*
X012076Y003511D01*
X012096Y003506D01*
X012117Y003504D01*
X007595Y003505D02*
X007616Y003507D01*
X007636Y003512D01*
X007655Y003521D01*
X007672Y003533D01*
X007687Y003548D01*
X007699Y003565D01*
X007708Y003584D01*
X007713Y003604D01*
X007715Y003625D01*
X007713Y003646D01*
X007708Y003666D01*
X007699Y003685D01*
X007687Y003702D01*
X007672Y003717D01*
X007655Y003729D01*
X007636Y003738D01*
X007616Y003743D01*
X007595Y003745D01*
D14*
X007641Y004777D02*
X007328Y005090D01*
X007484Y005090D02*
X007484Y004777D01*
X007328Y004777D02*
X007641Y005090D01*
X007641Y004933D02*
X007328Y004933D01*
X009593Y004962D02*
X009593Y004889D01*
X009630Y004852D01*
X009630Y004768D02*
X009813Y004768D01*
X009776Y004852D02*
X009813Y004889D01*
X009813Y004962D01*
X009776Y004999D01*
X009740Y004999D01*
X009703Y004962D01*
X009666Y004999D01*
X009630Y004999D01*
X009593Y004962D01*
X009703Y004962D02*
X009703Y004925D01*
X009630Y004768D02*
X009593Y004732D01*
X009593Y004658D01*
X009630Y004622D01*
X009813Y004622D01*
X012059Y004640D02*
X012059Y004713D01*
X012096Y004750D01*
X012280Y004750D01*
X012206Y004833D02*
X012280Y004906D01*
X012059Y004906D01*
X012059Y004833D02*
X012059Y004980D01*
X012059Y004640D02*
X012096Y004603D01*
X012280Y004603D01*
X012400Y004773D02*
X012713Y005087D01*
X012556Y005087D02*
X012556Y004773D01*
X012713Y004773D02*
X012400Y005087D01*
X012400Y004930D02*
X012713Y004930D01*
X014634Y004927D02*
X014634Y004854D01*
X014671Y004817D01*
X014708Y004817D01*
X014745Y004854D01*
X014745Y004927D01*
X014708Y004964D01*
X014671Y004964D01*
X014634Y004927D01*
X014745Y004927D02*
X014781Y004964D01*
X014818Y004964D01*
X014855Y004927D01*
X014855Y004854D01*
X014818Y004817D01*
X014781Y004817D01*
X014745Y004854D01*
X014671Y004734D02*
X014855Y004734D01*
X014855Y004587D02*
X014671Y004587D01*
X014634Y004624D01*
X014634Y004697D01*
X014671Y004734D01*
X012384Y002473D02*
X012070Y002159D01*
X012070Y002316D02*
X012384Y002316D01*
X012384Y002159D02*
X012070Y002473D01*
X012227Y002473D02*
X012227Y002159D01*
X017137Y002159D02*
X017451Y002473D01*
X017294Y002473D02*
X017294Y002159D01*
X017451Y002159D02*
X017137Y002473D01*
X017137Y002316D02*
X017451Y002316D01*
X019660Y002312D02*
X019974Y002312D01*
X019974Y002156D02*
X019660Y002469D01*
X019817Y002469D02*
X019817Y002156D01*
X019660Y002156D02*
X019974Y002469D01*
X019936Y004633D02*
X019753Y004633D01*
X019716Y004670D01*
X019716Y004743D01*
X019753Y004780D01*
X019936Y004780D01*
X019936Y004863D02*
X019826Y004863D01*
X019863Y004937D01*
X019863Y004973D01*
X019826Y005010D01*
X019753Y005010D01*
X019716Y004973D01*
X019716Y004900D01*
X019753Y004863D01*
X019936Y004863D02*
X019936Y005010D01*
X022257Y004974D02*
X022477Y004974D01*
X022367Y004864D01*
X022367Y005011D01*
X022294Y004781D02*
X022477Y004781D01*
X022477Y004634D02*
X022294Y004634D01*
X022257Y004671D01*
X022257Y004744D01*
X022294Y004781D01*
X022338Y002473D02*
X022338Y002159D01*
X022494Y002159D02*
X022181Y002473D01*
X022181Y002316D02*
X022494Y002316D01*
X022494Y002473D02*
X022181Y002159D01*
X017396Y004596D02*
X017213Y004596D01*
X017176Y004632D01*
X017176Y004706D01*
X017213Y004742D01*
X017396Y004742D01*
X017286Y004826D02*
X017286Y004936D01*
X017249Y004973D01*
X017213Y004973D01*
X017176Y004936D01*
X017176Y004863D01*
X017213Y004826D01*
X017286Y004826D01*
X017359Y004899D01*
X017396Y004973D01*
X008559Y021521D02*
X008485Y021521D01*
X008449Y021558D01*
X008449Y021742D01*
X008365Y021668D02*
X008292Y021742D01*
X008292Y021521D01*
X008365Y021521D02*
X008219Y021521D01*
X008135Y021521D02*
X007988Y021521D01*
X008062Y021521D02*
X008062Y021742D01*
X008135Y021668D01*
X008559Y021521D02*
X008596Y021558D01*
X008596Y021742D01*
D15*
X009055Y014189D02*
X005590Y014189D01*
X005433Y014031D01*
X005433Y010567D01*
X005590Y010409D01*
X009055Y010409D01*
X009212Y010567D01*
X009212Y014031D01*
X009055Y014189D01*
D16*
X005637Y013874D02*
X005639Y013894D01*
X005644Y013914D01*
X005654Y013932D01*
X005666Y013949D01*
X005681Y013963D01*
X005699Y013973D01*
X005718Y013981D01*
X005738Y013985D01*
X005758Y013985D01*
X005778Y013981D01*
X005797Y013973D01*
X005815Y013963D01*
X005830Y013949D01*
X005842Y013932D01*
X005852Y013914D01*
X005857Y013894D01*
X005859Y013874D01*
X005857Y013854D01*
X005852Y013834D01*
X005842Y013816D01*
X005830Y013799D01*
X005815Y013785D01*
X005797Y013775D01*
X005778Y013767D01*
X005758Y013763D01*
X005738Y013763D01*
X005718Y013767D01*
X005699Y013775D01*
X005681Y013785D01*
X005666Y013799D01*
X005654Y013816D01*
X005644Y013834D01*
X005639Y013854D01*
X005637Y013874D01*
M02*
