G75*
%MOIN*%
%OFA0B0*%
%FSLAX24Y24*%
%IPPOS*%
%LPD*%
%AMOC8*
5,1,8,0,0,1.08239X$1,22.5*
%
%ADD10R,0.0326X0.0404*%
%ADD11R,0.0404X0.0326*%
%ADD12R,0.0444X0.0601*%
%ADD13R,0.0601X0.0444*%
%ADD14R,0.0306X0.0267*%
%ADD15R,0.0267X0.0306*%
%ADD16C,0.0621*%
%ADD17R,0.0190X0.0630*%
%ADD18R,0.0168X0.0522*%
%ADD19R,0.0522X0.0168*%
%ADD20R,0.0850X0.0310*%
%ADD21C,0.0350*%
%ADD22C,0.0530*%
%ADD23C,0.1310*%
%ADD24C,0.0719*%
%ADD25C,0.0230*%
%ADD26C,0.0404*%
%ADD27C,0.0280*%
%ADD28C,0.2615*%
D10*
X003623Y005454D03*
X004135Y005454D03*
X004643Y005465D03*
X005155Y005465D03*
X005717Y005461D03*
X006229Y005461D03*
X006738Y005442D03*
X007249Y005442D03*
X007257Y006050D03*
X006745Y006050D03*
X006236Y006068D03*
X005724Y006068D03*
X005163Y006070D03*
X004651Y006070D03*
X004136Y006063D03*
X003624Y006063D03*
X003623Y006726D03*
X004135Y006726D03*
X004641Y006728D03*
X005153Y006728D03*
X005714Y006728D03*
X006226Y006728D03*
X006746Y006720D03*
X007257Y006720D03*
X007256Y007387D03*
X006744Y007387D03*
X006231Y007392D03*
X005719Y007392D03*
X005158Y007392D03*
X004646Y007392D03*
X004135Y007390D03*
X003623Y007390D03*
X013026Y008748D03*
X013028Y009233D03*
X013029Y009713D03*
X013032Y010190D03*
X013033Y010668D03*
X013545Y010668D03*
X013544Y010190D03*
X013541Y009713D03*
X013540Y009233D03*
X013538Y008748D03*
X014039Y008754D03*
X014032Y009228D03*
X014031Y009710D03*
X014033Y010187D03*
X014031Y010663D03*
X014543Y010663D03*
X014544Y010187D03*
X014543Y009710D03*
X014543Y009228D03*
X014551Y008754D03*
X015059Y008742D03*
X015060Y009218D03*
X015058Y009699D03*
X015060Y010175D03*
X015058Y010660D03*
X015570Y010660D03*
X015572Y010175D03*
X016081Y010182D03*
X016080Y010665D03*
X016592Y010665D03*
X016593Y010182D03*
X016592Y009704D03*
X016597Y009224D03*
X016595Y008748D03*
X016083Y008748D03*
X015570Y008742D03*
X015571Y009218D03*
X016086Y009224D03*
X016080Y009704D03*
X015570Y009699D03*
X017119Y009703D03*
X017123Y010184D03*
X017121Y010668D03*
X017633Y010668D03*
X017635Y010184D03*
X017631Y009703D03*
X017643Y009210D03*
X017642Y008718D03*
X018150Y008724D03*
X018153Y009215D03*
X018146Y009705D03*
X018150Y010187D03*
X018152Y010675D03*
X018663Y010675D03*
X018662Y010187D03*
X018658Y009705D03*
X018665Y009215D03*
X018662Y008724D03*
X019166Y008722D03*
X019171Y009213D03*
X019167Y009704D03*
X019167Y010187D03*
X019165Y010675D03*
X019677Y010675D03*
X019679Y010187D03*
X019678Y009704D03*
X019683Y009213D03*
X019678Y008722D03*
X020188Y008723D03*
X020187Y009223D03*
X020183Y009707D03*
X020185Y010187D03*
X020186Y010676D03*
X020698Y010676D03*
X020697Y010187D03*
X020694Y009707D03*
X020699Y009223D03*
X020700Y008723D03*
X020803Y012171D03*
X020812Y012656D03*
X020814Y013138D03*
X020808Y013620D03*
X020809Y014094D03*
X021321Y014094D03*
X021320Y013620D03*
X021326Y013138D03*
X021324Y012656D03*
X021315Y012171D03*
X019924Y012171D03*
X019929Y012655D03*
X019931Y013138D03*
X019928Y013618D03*
X019927Y014094D03*
X019415Y014094D03*
X019416Y013618D03*
X019419Y013138D03*
X019418Y012655D03*
X019412Y012171D03*
X018530Y012172D03*
X018533Y012656D03*
X018534Y013137D03*
X018534Y013618D03*
X018534Y014094D03*
X018022Y014094D03*
X018022Y013618D03*
X018022Y013137D03*
X018021Y012656D03*
X018018Y012172D03*
X017133Y012177D03*
X016621Y012177D03*
X016620Y012657D03*
X017132Y012657D03*
X017133Y013139D03*
X017133Y013620D03*
X016621Y013620D03*
X016621Y013139D03*
X016622Y014092D03*
X017134Y014092D03*
X017294Y016096D03*
X017806Y016096D03*
X017806Y016689D03*
X017295Y016689D03*
X016695Y016706D03*
X016183Y016706D03*
X016184Y016105D03*
X016696Y016105D03*
X016689Y017312D03*
X016177Y017312D03*
X016159Y017919D03*
X016671Y017919D03*
X017270Y017903D03*
X017782Y017903D03*
X017800Y017295D03*
X017288Y017295D03*
X017259Y018513D03*
X017771Y018513D03*
X016661Y018522D03*
X016150Y018522D03*
X019624Y018678D03*
X020136Y018678D03*
X020135Y019274D03*
X019623Y019274D03*
X019614Y019878D03*
X020126Y019878D03*
X020107Y020485D03*
X019596Y020485D03*
X019587Y021091D03*
X020098Y021091D03*
X017131Y009210D03*
X017130Y008718D03*
X024574Y004640D03*
X025086Y004640D03*
D11*
X014600Y020332D03*
X014600Y020844D03*
X013989Y020839D03*
X013989Y020327D03*
X013340Y020325D03*
X013340Y020837D03*
X012735Y020833D03*
X012735Y020321D03*
X012144Y020309D03*
X012144Y020821D03*
X012127Y021463D03*
X012127Y021975D03*
X012127Y022633D03*
X012127Y023145D03*
X012734Y023145D03*
X012734Y022633D03*
X013343Y022633D03*
X013343Y023144D03*
X013991Y023140D03*
X013991Y022628D03*
X014596Y022628D03*
X014596Y023140D03*
X014596Y021967D03*
X014596Y021455D03*
X013988Y021455D03*
X013988Y021967D03*
X013341Y021971D03*
X013341Y021459D03*
X012732Y021461D03*
X012732Y021973D03*
X015920Y021937D03*
X015920Y022449D03*
X016524Y022448D03*
X016524Y021937D03*
X017140Y021931D03*
X017140Y022443D03*
X017773Y022433D03*
X017773Y021921D03*
X018381Y021935D03*
X018381Y022447D03*
X018346Y021233D03*
X018346Y020721D03*
X017749Y020720D03*
X017749Y021232D03*
X017144Y021226D03*
X017144Y020715D03*
X016539Y020700D03*
X016539Y021212D03*
X015934Y021201D03*
X015934Y020690D03*
X007126Y004915D03*
X007126Y004403D03*
X007117Y004011D03*
X007117Y003500D03*
X007118Y003058D03*
X007118Y002546D03*
X007121Y002160D03*
X007121Y001648D03*
D12*
X004207Y009081D03*
X003420Y009081D03*
D13*
X010358Y010230D03*
X010358Y011018D03*
X008486Y018022D03*
X008486Y018810D03*
X007627Y018813D03*
X007627Y018025D03*
X006761Y018019D03*
X006761Y018807D03*
X005934Y018803D03*
X005934Y018016D03*
D14*
X005053Y018014D03*
X005053Y018447D03*
X005329Y016687D03*
X005329Y016254D03*
X004926Y014701D03*
X004926Y014267D03*
X008011Y016193D03*
X008011Y016626D03*
X008628Y016907D03*
X008628Y017340D03*
X009223Y018021D03*
X009223Y018454D03*
X010451Y020441D03*
X010451Y020874D03*
X010278Y013183D03*
X010278Y012750D03*
X011067Y010700D03*
X011067Y010267D03*
X005456Y008976D03*
X005456Y008543D03*
X004859Y008559D03*
X004859Y008992D03*
X004173Y010295D03*
X004173Y010728D03*
D15*
X003937Y011907D03*
X003504Y011907D03*
X003505Y012423D03*
X003938Y012423D03*
X003940Y012953D03*
X003506Y012953D03*
X006075Y008551D03*
X006508Y008551D03*
X007081Y008470D03*
X007514Y008470D03*
X008178Y008472D03*
X008611Y008472D03*
X010771Y022312D03*
X011204Y022312D03*
X011207Y023068D03*
X010774Y023068D03*
X008678Y023288D03*
X008245Y023288D03*
X008244Y022637D03*
X008677Y022637D03*
D16*
X009391Y022245D03*
X007422Y022245D03*
D17*
X007825Y004775D03*
X008085Y004775D03*
X008335Y004775D03*
X008595Y004775D03*
X008855Y004775D03*
X009105Y004775D03*
X009365Y004775D03*
X010347Y004774D03*
X010607Y004774D03*
X010857Y004774D03*
X011117Y004774D03*
X011377Y004774D03*
X011627Y004774D03*
X011887Y004774D03*
X012897Y004772D03*
X013157Y004772D03*
X013407Y004772D03*
X013667Y004772D03*
X013927Y004772D03*
X014177Y004772D03*
X014437Y004772D03*
X015414Y004774D03*
X015674Y004774D03*
X015924Y004774D03*
X016184Y004774D03*
X016444Y004774D03*
X016694Y004774D03*
X016954Y004774D03*
X017937Y004771D03*
X018197Y004771D03*
X018447Y004771D03*
X018707Y004771D03*
X018967Y004771D03*
X019217Y004771D03*
X019477Y004771D03*
X020457Y004774D03*
X020717Y004774D03*
X020967Y004774D03*
X021227Y004774D03*
X021487Y004774D03*
X021737Y004774D03*
X021997Y004774D03*
X021997Y002474D03*
X021737Y002474D03*
X021487Y002474D03*
X021227Y002474D03*
X020967Y002474D03*
X020717Y002474D03*
X020457Y002474D03*
X019477Y002471D03*
X019217Y002471D03*
X018967Y002471D03*
X018707Y002471D03*
X018447Y002471D03*
X018197Y002471D03*
X017937Y002471D03*
X016954Y002474D03*
X016694Y002474D03*
X016444Y002474D03*
X016184Y002474D03*
X015924Y002474D03*
X015674Y002474D03*
X015414Y002474D03*
X014437Y002472D03*
X014177Y002472D03*
X013927Y002472D03*
X013667Y002472D03*
X013407Y002472D03*
X013157Y002472D03*
X012897Y002472D03*
X011887Y002474D03*
X011627Y002474D03*
X011377Y002474D03*
X011117Y002474D03*
X010857Y002474D03*
X010607Y002474D03*
X010347Y002474D03*
X009365Y002475D03*
X009105Y002475D03*
X008855Y002475D03*
X008595Y002475D03*
X008335Y002475D03*
X008085Y002475D03*
X007825Y002475D03*
D18*
X007815Y010055D03*
X008012Y010055D03*
X008208Y010055D03*
X008405Y010055D03*
X008602Y010055D03*
X008799Y010055D03*
X007618Y010055D03*
X007421Y010055D03*
X007224Y010055D03*
X007027Y010055D03*
X006830Y010055D03*
X006634Y010055D03*
X006437Y010055D03*
X006240Y010055D03*
X006043Y010055D03*
X005846Y010055D03*
X005846Y014543D03*
X006043Y014543D03*
X006240Y014543D03*
X006437Y014543D03*
X006634Y014543D03*
X006830Y014543D03*
X007027Y014543D03*
X007224Y014543D03*
X007421Y014543D03*
X007618Y014543D03*
X007815Y014543D03*
X008012Y014543D03*
X008208Y014543D03*
X008405Y014543D03*
X008602Y014543D03*
X008799Y014543D03*
D19*
X009567Y013776D03*
X009567Y013579D03*
X009567Y013382D03*
X009567Y013185D03*
X009567Y012988D03*
X009567Y012791D03*
X009567Y012594D03*
X009567Y012398D03*
X009567Y012201D03*
X009567Y012004D03*
X009567Y011807D03*
X009567Y011610D03*
X009567Y011413D03*
X009567Y011217D03*
X009567Y011020D03*
X009567Y010823D03*
X005078Y010823D03*
X005078Y011020D03*
X005078Y011217D03*
X005078Y011413D03*
X005078Y011610D03*
X005078Y011807D03*
X005078Y012004D03*
X005078Y012201D03*
X005078Y012398D03*
X005078Y012594D03*
X005078Y012791D03*
X005078Y012988D03*
X005078Y013185D03*
X005078Y013382D03*
X005078Y013579D03*
X005078Y013776D03*
D20*
X006972Y019684D03*
X006972Y020184D03*
X006972Y020684D03*
X006972Y021184D03*
X009392Y021184D03*
X009392Y020684D03*
X009392Y020184D03*
X009392Y019684D03*
D21*
X018354Y019675D03*
X018354Y019365D03*
X018354Y019055D03*
X018354Y018745D03*
X018664Y018745D03*
X018974Y018745D03*
X018974Y019055D03*
X018664Y019055D03*
X018664Y019365D03*
X018974Y019365D03*
X018974Y019675D03*
X018664Y019675D03*
X018664Y018435D03*
X018974Y018435D03*
X018354Y018435D03*
D22*
X015457Y016172D03*
X015196Y015303D03*
X014644Y014581D03*
X013887Y014093D03*
X013011Y013881D03*
X012113Y013973D03*
X011299Y014362D03*
X010663Y014999D03*
X011299Y015635D03*
X011936Y016271D03*
X012572Y015635D03*
X011936Y014999D03*
X012806Y014765D03*
X013682Y014977D03*
X014319Y015614D03*
X014545Y016505D03*
X015238Y017198D03*
X015005Y018067D03*
X014368Y017431D03*
X013732Y018067D03*
X014368Y018704D03*
X013499Y018937D03*
X012806Y018244D03*
X011915Y018018D03*
X011278Y017381D03*
X011066Y016505D03*
X010182Y016710D03*
X010394Y017587D03*
X010882Y018343D03*
X011603Y018895D03*
X012473Y019156D03*
X013039Y017374D03*
X013675Y016738D03*
X012806Y016505D03*
X013442Y015868D03*
X012169Y017141D03*
X010274Y015812D03*
D23*
X006435Y016533D03*
X019233Y016533D03*
D24*
X024544Y015937D03*
X024544Y014559D03*
X024544Y013181D03*
X024544Y011803D03*
X024544Y010425D03*
X024544Y009048D03*
X024544Y007670D03*
X024544Y017315D03*
X024544Y018693D03*
D25*
X022240Y021162D03*
X022020Y021382D03*
X021820Y021582D03*
X021620Y021782D03*
X021020Y022382D03*
X021070Y020582D03*
X021070Y020282D03*
X021070Y019982D03*
X020770Y019982D03*
X020770Y020282D03*
X020770Y020582D03*
X020600Y018682D03*
X020520Y018362D03*
X020520Y018062D03*
X020820Y018062D03*
X021120Y018362D03*
X020990Y018682D03*
X021785Y018060D03*
X021120Y017162D03*
X020820Y017162D03*
X020820Y017462D03*
X020520Y017462D03*
X020520Y017162D03*
X020220Y017162D03*
X019655Y017421D03*
X019150Y017852D03*
X018660Y017862D03*
X018160Y017862D03*
X018300Y017072D03*
X018240Y016362D03*
X018240Y015862D03*
X016470Y015482D03*
X015660Y016772D03*
X017030Y019046D03*
X015180Y020612D03*
X015030Y020282D03*
X014880Y019982D03*
X013029Y019976D03*
X012449Y019986D03*
X011655Y021311D03*
X011775Y021721D03*
X011645Y022181D03*
X011775Y022471D03*
X010980Y022692D03*
X010840Y023522D03*
X011200Y023522D03*
X010470Y023522D03*
X011020Y021682D03*
X011020Y021382D03*
X011020Y021082D03*
X011020Y020782D03*
X010560Y021362D03*
X010200Y021242D03*
X010080Y020882D03*
X010120Y020082D03*
X010120Y019782D03*
X008460Y020002D03*
X008480Y019352D03*
X008110Y019342D03*
X007740Y019322D03*
X006300Y019322D03*
X005940Y019382D03*
X005280Y018902D03*
X004860Y017522D03*
X005520Y017102D03*
X003960Y017312D03*
X003560Y017312D03*
X002940Y016562D03*
X002900Y014912D03*
X002900Y014592D03*
X003260Y014582D03*
X002935Y014081D03*
X003750Y013472D03*
X004468Y013200D03*
X004320Y012902D03*
X002937Y012425D03*
X002955Y011901D03*
X003438Y011422D03*
X004080Y011192D03*
X004860Y010472D03*
X004830Y010022D03*
X004980Y009722D03*
X004070Y009932D03*
X003750Y009962D03*
X003780Y009622D03*
X002955Y010271D03*
X002930Y008612D03*
X002930Y008312D03*
X003850Y007922D03*
X004460Y008262D03*
X004470Y008552D03*
X004860Y008162D03*
X004687Y007769D03*
X003322Y006393D03*
X003313Y005746D03*
X003431Y005042D03*
X004430Y005042D03*
X005640Y005052D03*
X005908Y004952D03*
X006660Y005022D03*
X006710Y004472D03*
X007620Y003722D03*
X007980Y003722D03*
X008593Y003936D03*
X009240Y003902D03*
X010652Y003222D03*
X011059Y004239D03*
X011040Y005282D03*
X010464Y005819D03*
X010290Y006032D03*
X010290Y006362D03*
X010410Y006662D03*
X009660Y006362D03*
X009510Y006032D03*
X009365Y005677D03*
X009134Y005449D03*
X008580Y006842D03*
X008220Y006842D03*
X007860Y006842D03*
X007620Y006372D03*
X007660Y005722D03*
X007775Y008151D03*
X008113Y008939D03*
X008220Y009302D03*
X008601Y009117D03*
X008665Y008821D03*
X009125Y009111D03*
X009013Y009367D03*
X009170Y009732D03*
X009390Y010082D03*
X009540Y009842D03*
X009690Y010082D03*
X009845Y009740D03*
X009546Y009522D03*
X010495Y009091D03*
X010935Y009211D03*
X011205Y009421D03*
X011385Y009601D03*
X011367Y009912D03*
X011635Y010481D03*
X011905Y010281D03*
X012670Y010782D03*
X012490Y011022D03*
X012790Y011082D03*
X013220Y011382D03*
X013520Y011382D03*
X013420Y011132D03*
X013720Y011132D03*
X014720Y011382D03*
X015020Y011382D03*
X015020Y011082D03*
X015320Y011082D03*
X015755Y013018D03*
X015438Y013140D03*
X016170Y013082D03*
X017570Y012732D03*
X017520Y013732D03*
X018970Y014082D03*
X018970Y012522D03*
X018970Y012182D03*
X018870Y011071D03*
X019415Y011120D03*
X019707Y011116D03*
X020469Y011111D03*
X021060Y010622D03*
X021060Y010322D03*
X021060Y010022D03*
X021040Y009712D03*
X021040Y009432D03*
X021668Y007392D03*
X021840Y006842D03*
X021960Y006572D03*
X022080Y006152D03*
X021270Y006512D03*
X021060Y006722D03*
X020772Y006719D03*
X020552Y006509D03*
X020310Y006262D03*
X020251Y005993D03*
X021210Y005552D03*
X021210Y004262D03*
X020720Y004082D03*
X021018Y003337D03*
X021900Y004142D03*
X021870Y001892D03*
X021420Y001682D03*
X021000Y001922D03*
X018720Y001622D03*
X017534Y002327D03*
X017970Y003422D03*
X018450Y005252D03*
X018620Y005482D03*
X019020Y005482D03*
X019033Y005895D03*
X018150Y005342D03*
X017580Y005312D03*
X016710Y005312D03*
X016170Y005282D03*
X016230Y006122D03*
X016954Y006336D03*
X017760Y006482D03*
X017938Y006921D03*
X017590Y007342D03*
X016800Y008102D03*
X017040Y008342D03*
X016320Y008282D03*
X015660Y008282D03*
X015360Y008282D03*
X015510Y007772D03*
X015210Y007742D03*
X015000Y007952D03*
X014760Y007742D03*
X014320Y007732D03*
X014970Y007112D03*
X015150Y007412D03*
X014730Y006842D03*
X014472Y006586D03*
X014520Y005492D03*
X015310Y005722D03*
X015360Y003932D03*
X015300Y003662D03*
X014220Y003062D03*
X013920Y003362D03*
X013680Y003062D03*
X013290Y003572D03*
X012937Y003126D03*
X012480Y003422D03*
X012390Y002977D03*
X011010Y001922D03*
X008640Y001922D03*
X007860Y001622D03*
X007560Y001712D03*
X006690Y002402D03*
X006420Y001982D03*
X011586Y006867D03*
X010989Y007498D03*
X011362Y008151D03*
X011305Y008471D03*
X010855Y008741D03*
X010685Y008241D03*
X009545Y008441D03*
X009300Y008162D03*
X009566Y010565D03*
X010050Y011492D03*
X010230Y011732D03*
X010260Y012062D03*
X010260Y012362D03*
X009990Y012212D03*
X010200Y013562D03*
X009540Y014342D03*
X008680Y013882D03*
X008499Y013717D03*
X008209Y013626D03*
X008548Y013370D03*
X008631Y012976D03*
X008339Y012417D03*
X008455Y012021D03*
X008279Y011836D03*
X008413Y011627D03*
X008279Y011382D03*
X007686Y011245D03*
X007453Y010968D03*
X007635Y010771D03*
X008394Y010577D03*
X007783Y011838D03*
X007849Y012104D03*
X007849Y012336D03*
X007849Y012713D03*
X007853Y013108D03*
X007559Y013201D03*
X007161Y013202D03*
X007158Y013642D03*
X007816Y014138D03*
X007800Y015422D03*
X008012Y015600D03*
X007432Y015752D03*
X007310Y015502D03*
X008610Y015452D03*
X008926Y015440D03*
X009480Y015722D03*
X009660Y015962D03*
X009360Y016022D03*
X008190Y017162D03*
X008040Y017522D03*
X005418Y015036D03*
X005136Y015263D03*
X004800Y015272D03*
X005340Y014222D03*
X005796Y013549D03*
X006033Y013109D03*
X006473Y012910D03*
X006471Y012503D03*
X006470Y012107D03*
X006073Y012517D03*
X005704Y012224D03*
X005577Y011737D03*
X005620Y010891D03*
X006491Y011232D03*
X006966Y011827D03*
X007356Y011818D03*
X007359Y012220D03*
X007425Y012444D03*
X007140Y012776D03*
X006883Y012786D03*
X006883Y012517D03*
X006520Y009632D03*
X006810Y009602D03*
X006140Y009112D03*
X005850Y009632D03*
X006425Y008161D03*
X011480Y012222D03*
X011420Y012942D03*
X011760Y012942D03*
X012100Y012942D03*
X012990Y007742D03*
X013015Y006291D03*
X012769Y006095D03*
X012790Y005682D03*
X013020Y005522D03*
X012810Y005342D03*
X011700Y005822D03*
X015060Y002222D03*
X015630Y001892D03*
X016170Y001892D03*
X013740Y001952D03*
X018609Y008341D03*
X020370Y012532D03*
X020370Y012832D03*
X021040Y014822D03*
X021340Y014812D03*
X021720Y015592D03*
X021120Y015952D03*
X021140Y016352D03*
X018785Y021492D03*
X018819Y022426D03*
X019104Y022420D03*
X017460Y021572D03*
X016810Y021572D03*
X015555Y021872D03*
X014972Y022907D03*
X013620Y023582D03*
X013270Y023582D03*
X012920Y023582D03*
X012570Y023582D03*
X012220Y023582D03*
D26*
X024005Y004621D03*
D27*
X023281Y015205D03*
X016860Y019592D03*
X016860Y019922D03*
X016860Y020252D03*
X016530Y020252D03*
X016530Y019922D03*
X016530Y019592D03*
D28*
X004090Y002809D03*
X004076Y021946D03*
X024230Y002796D03*
X024273Y021963D03*
M02*
