%
M48
M72
T01C0.0060
T02C0.0080
T03C0.0100
T04C0.0150
T05C0.0200
T06C0.0236
T07C0.0320
T08C0.0335
T09C0.0433
T10C0.1260
T11C0.2165
%
T01
X11645Y22181
X11775Y21721
X11655Y21311
X13029Y19976
X8926Y15440
X7800Y15422
X7432Y15752
X7310Y15502
X7816Y14138
X8209Y13626
X8499Y13717
X8680Y13882
X8488Y13310
X8630Y12998
X8345Y12413
X8409Y12076
X8279Y11836
X8413Y11627
X8279Y11382
X7686Y11245
X7453Y10968
X7635Y10771
X8394Y10577
X8220Y9302
X8113Y8939
X8665Y8821
X9013Y9367
X9546Y9522
X9845Y9740
X10495Y9091
X10935Y9211
X11205Y9421
X11385Y9601
X10855Y8741
X11370Y8192
X11040Y7582
X12769Y6095
X13015Y6291
X14520Y5492
X15310Y5722
X15360Y3932
X14220Y3062
X10652Y3222
X6140Y9112
X5850Y9632
X5620Y10891
X5577Y11777
X5704Y12224
X6073Y12517
X6471Y12503
X6470Y12107
X6966Y11827
X7356Y11818
X7359Y12220
X7425Y12432
X7849Y12336
X7849Y12104
X7783Y11838
X7849Y12713
X7853Y13108
X7559Y13201
X7161Y13202
X7158Y13642
X7140Y12776
X6883Y12786
X6887Y12541
X6473Y12910
X6033Y13109
X5796Y13549
X5418Y15036
X5136Y15263
X2937Y12425
X2955Y11901
X6491Y11232
X4687Y7769
X3322Y6393
X17580Y5312
X18450Y5252
X18620Y5482
X19020Y5482
X17760Y6482
X18609Y8341
X21210Y5552
X22080Y6152
X21960Y6572
X21840Y6842
X21668Y7392
X21210Y4262
X21785Y18060
T02
X17040Y8342
X16800Y8102
X19033Y5895
T03
X10470Y23522
X10840Y23522
X11200Y23522
X10980Y22692
X11775Y22471
X11020Y21682
X11020Y21382
X11020Y21082
X11020Y20782
X10560Y21362
X10200Y21242
X10080Y20882
X10120Y20082
X10120Y19782
X8460Y20002
X8480Y19352
X8110Y19342
X7740Y19322
X6300Y19322
X5940Y19382
X5280Y18902
X4860Y17522
X5520Y17102
X3960Y17312
X3560Y17312
X2940Y16562
X2900Y14912
X2900Y14592
X3260Y14582
X2935Y14081
X3750Y13472
X4468Y13200
X4320Y12902
X5340Y14222
X4800Y15272
X8012Y15600
X8610Y15452
X9480Y15722
X9660Y15962
X9360Y16022
X8190Y17162
X8040Y17522
X9540Y14342
X10200Y13562
X10260Y12362
X10260Y12062
X9990Y12212
X10230Y11732
X10050Y11492
X9566Y10565
X9690Y10082
X9540Y9842
X9390Y10082
X9170Y9732
X9125Y9111
X8601Y9117
X9545Y8441
X9300Y8162
X10685Y8241
X11305Y8471
X11367Y9912
X11635Y10481
X11905Y10281
X12670Y10782
X12490Y11022
X12790Y11082
X13220Y11382
X13520Y11382
X13420Y11132
X13720Y11132
X14720Y11382
X15020Y11382
X15020Y11082
X15320Y11082
X15755Y13018
X15438Y13140
X16170Y13082
X17570Y12732
X17520Y13732
X18970Y14082
X18970Y12522
X18970Y12182
X18870Y11071
X19415Y11120
X19707Y11116
X20469Y11111
X21060Y10622
X21060Y10322
X21060Y10022
X21040Y9712
X21040Y9432
X21060Y6722
X20772Y6719
X20552Y6509
X20310Y6262
X20251Y5993
X21270Y6512
X21900Y4142
X21018Y3337
X20720Y4082
X21000Y1922
X21420Y1682
X21870Y1892
X18720Y1622
X17534Y2327
X17970Y3422
X18150Y5342
X16954Y6336
X16230Y6122
X16170Y5282
X16710Y5312
X17938Y6921
X17590Y7342
X16320Y8282
X15660Y8282
X15360Y8282
X15510Y7772
X15210Y7742
X15000Y7952
X14760Y7742
X14320Y7732
X14970Y7112
X15150Y7412
X14730Y6842
X14472Y6586
X13020Y5522
X12810Y5342
X12790Y5682
X11700Y5822
X11040Y5282
X10464Y5819
X10290Y6032
X10290Y6362
X10410Y6662
X9660Y6362
X9510Y6032
X9365Y5677
X9134Y5449
X8580Y6842
X8220Y6842
X7860Y6842
X7620Y6372
X7660Y5722
X6660Y5022
X6710Y4472
X5908Y4952
X5640Y5052
X4430Y5042
X3431Y5042
X3313Y5746
X3850Y7922
X4460Y8262
X4470Y8552
X4860Y8162
X3780Y9622
X3750Y9962
X4070Y9932
X4830Y10022
X4980Y9722
X4860Y10472
X4080Y11192
X3438Y11422
X2955Y10271
X2930Y8612
X2930Y8312
X6425Y8161
X7775Y8151
X6810Y9602
X6520Y9632
X11480Y12222
X11420Y12942
X11760Y12942
X12100Y12942
X15660Y16772
X16470Y15482
X18240Y15862
X18240Y16362
X18300Y17072
X18160Y17862
X18660Y17862
X19150Y17852
X19655Y17421
X20220Y17162
X20520Y17162
X20820Y17162
X20820Y17462
X20520Y17462
X20520Y18062
X20820Y18062
X20520Y18362
X20600Y18682
X20990Y18682
X21120Y18362
X21120Y17162
X21140Y16352
X21120Y15952
X21720Y15592
X21340Y14812
X21040Y14822
X20370Y12832
X20370Y12532
X17030Y19046
X15180Y20612
X15030Y20282
X14880Y19982
X15555Y21872
X14972Y22907
X13620Y23582
X13270Y23582
X12920Y23582
X12570Y23582
X12220Y23582
X12449Y19986
X16810Y21572
X17460Y21572
X18785Y21492
X18819Y22426
X19104Y22420
X21020Y22382
X21620Y21782
X21820Y21582
X22020Y21382
X22240Y21162
X21070Y20582
X21070Y20282
X21070Y19982
X20770Y19982
X20770Y20282
X20770Y20582
X12990Y7742
X11586Y6867
X11059Y4239
X12390Y2977
X12480Y3422
X12937Y3126
X13290Y3572
X13680Y3062
X13920Y3362
X13740Y1952
X15060Y2222
X15630Y1892
X16170Y1892
X15300Y3662
X11010Y1922
X9240Y3902
X8593Y3936
X7980Y3722
X7620Y3722
X6690Y2402
X6420Y1982
X7560Y1712
X7860Y1622
X8640Y1922
T04
X23281Y15205
X16860Y19592
X16860Y19922
X16860Y20252
X16530Y20252
X16530Y19922
X16530Y19592
T05
X18354Y19675
X18354Y19365
X18354Y19055
X18354Y18745
X18664Y18745
X18974Y18745
X18974Y19055
X18664Y19055
X18664Y19365
X18974Y19365
X18974Y19675
X18664Y19675
X18664Y18435
X18974Y18435
X18354Y18435
T06
X24005Y4621
T07
X14644Y14581
X13887Y14093
X13011Y13881
X12113Y13973
X11299Y14362
X10663Y14999
X11299Y15635
X11936Y16271
X12572Y15635
X11936Y14999
X12806Y14765
X13682Y14977
X14319Y15614
X14545Y16505
X15457Y16172
X15196Y15303
X13675Y16738
X13039Y17374
X12806Y16505
X13442Y15868
X12169Y17141
X11915Y18018
X11278Y17381
X11066Y16505
X10182Y16710
X10394Y17587
X10882Y18343
X11603Y18895
X12473Y19156
X12806Y18244
X13499Y18937
X14368Y18704
X13732Y18067
X14368Y17431
X15005Y18067
X15238Y17198
X10274Y15812
T08
X7422Y22245
X9391Y22245
T09
X24544Y18693
X24544Y17315
X24544Y15937
X24544Y14559
X24544Y13181
X24544Y11803
X24544Y10425
X24544Y9048
X24544Y7670
T10
X19233Y16533
X6435Y16533
T11
X4090Y2809
X4076Y21946
X24273Y21963
X24230Y2796
M30
