G75*
%MOIN*%
%OFA0B0*%
%FSLAX24Y24*%
%IPPOS*%
%LPD*%
%AMOC8*
5,1,8,0,0,1.08239X$1,22.5*
%
%ADD10C,0.0020*%
%ADD11C,0.0050*%
%ADD12C,0.0030*%
%ADD13C,0.0080*%
%ADD14C,0.0040*%
%ADD15R,0.0118X0.0118*%
%ADD16C,0.0060*%
%ADD17C,0.0000*%
%ADD18C,0.0100*%
D10*
X005285Y005436D02*
X005400Y005436D01*
X005438Y005474D01*
X005438Y005628D01*
X005400Y005666D01*
X005285Y005666D01*
X005285Y005436D01*
X005515Y005474D02*
X005515Y005513D01*
X005553Y005551D01*
X005630Y005551D01*
X005668Y005513D01*
X005668Y005474D01*
X005630Y005436D01*
X005553Y005436D01*
X005515Y005474D01*
X005553Y005551D02*
X005515Y005589D01*
X005515Y005628D01*
X005553Y005666D01*
X005630Y005666D01*
X005668Y005628D01*
X005668Y005589D01*
X005630Y005551D01*
X004840Y006561D02*
X004763Y006561D01*
X004725Y006599D01*
X004725Y006676D02*
X004801Y006714D01*
X004840Y006714D01*
X004878Y006676D01*
X004878Y006599D01*
X004840Y006561D01*
X004725Y006676D02*
X004725Y006791D01*
X004878Y006791D01*
X004648Y006791D02*
X004648Y006752D01*
X004494Y006599D01*
X004494Y006561D01*
X004418Y006599D02*
X004379Y006561D01*
X004303Y006561D01*
X004264Y006599D01*
X004264Y006752D01*
X004303Y006791D01*
X004379Y006791D01*
X004418Y006752D01*
X004494Y006791D02*
X004648Y006791D01*
X004714Y007201D02*
X004675Y007239D01*
X004829Y007392D01*
X004829Y007239D01*
X004790Y007201D01*
X004714Y007201D01*
X004675Y007239D02*
X004675Y007392D01*
X004714Y007431D01*
X004790Y007431D01*
X004829Y007392D01*
X004599Y007431D02*
X004522Y007392D01*
X004445Y007316D01*
X004560Y007316D01*
X004599Y007277D01*
X004599Y007239D01*
X004560Y007201D01*
X004483Y007201D01*
X004445Y007239D01*
X004445Y007316D01*
X004368Y007316D02*
X004330Y007277D01*
X004215Y007277D01*
X004215Y007201D02*
X004215Y007431D01*
X004330Y007431D01*
X004368Y007392D01*
X004368Y007316D01*
X004292Y007277D02*
X004368Y007201D01*
X006058Y006923D02*
X006173Y006923D01*
X006211Y006885D01*
X006211Y006732D01*
X006173Y006693D01*
X006058Y006693D01*
X006058Y006923D01*
X006288Y006923D02*
X006441Y006923D01*
X006441Y006885D01*
X006288Y006732D01*
X006288Y006693D01*
X007077Y005807D02*
X007192Y005807D01*
X007231Y005769D01*
X007231Y005692D01*
X007192Y005654D01*
X007077Y005654D01*
X007154Y005654D02*
X007231Y005577D01*
X007307Y005615D02*
X007346Y005577D01*
X007423Y005577D01*
X007461Y005615D01*
X007461Y005654D01*
X007423Y005692D01*
X007307Y005692D01*
X007307Y005615D01*
X007307Y005692D02*
X007384Y005769D01*
X007461Y005807D01*
X007077Y005807D02*
X007077Y005577D01*
X008646Y003191D02*
X008608Y003153D01*
X008608Y002999D01*
X008646Y002961D01*
X008723Y002961D01*
X008761Y002999D01*
X008838Y002961D02*
X008991Y002961D01*
X008915Y002961D02*
X008915Y003191D01*
X008838Y003115D01*
X008761Y003153D02*
X008723Y003191D01*
X008646Y003191D01*
X009068Y003153D02*
X009107Y003191D01*
X009183Y003191D01*
X009222Y003153D01*
X009068Y002999D01*
X009107Y002961D01*
X009183Y002961D01*
X009222Y002999D01*
X009222Y003153D01*
X009068Y003153D02*
X009068Y002999D01*
X011194Y003257D02*
X011232Y003218D01*
X011309Y003218D01*
X011347Y003257D01*
X011424Y003257D02*
X011424Y003218D01*
X011424Y003257D02*
X011578Y003410D01*
X011578Y003448D01*
X011424Y003448D01*
X011347Y003410D02*
X011309Y003448D01*
X011232Y003448D01*
X011194Y003410D01*
X011194Y003257D01*
X012600Y003516D02*
X012639Y003478D01*
X012715Y003478D01*
X012754Y003516D01*
X012830Y003478D02*
X012984Y003632D01*
X012984Y003670D01*
X012946Y003708D01*
X012869Y003708D01*
X012830Y003670D01*
X012754Y003670D02*
X012715Y003708D01*
X012639Y003708D01*
X012600Y003670D01*
X012600Y003516D01*
X012830Y003478D02*
X012984Y003478D01*
X013061Y003593D02*
X013214Y003593D01*
X013176Y003478D02*
X013176Y003708D01*
X013061Y003593D01*
X013027Y004844D02*
X012873Y004844D01*
X012950Y004844D02*
X012950Y005074D01*
X012873Y004997D01*
X012797Y005035D02*
X012758Y005074D01*
X012681Y005074D01*
X012643Y005035D01*
X012643Y004882D01*
X012681Y004844D01*
X012758Y004844D01*
X012797Y004882D01*
X013103Y004959D02*
X013257Y004959D01*
X013219Y005074D02*
X013103Y004959D01*
X013219Y004844D02*
X013219Y005074D01*
X012783Y006666D02*
X012706Y006666D01*
X012668Y006704D01*
X012668Y006781D02*
X012745Y006819D01*
X012783Y006819D01*
X012821Y006781D01*
X012821Y006704D01*
X012783Y006666D01*
X012668Y006781D02*
X012668Y006896D01*
X012821Y006896D01*
X012514Y006896D02*
X012514Y006666D01*
X012438Y006666D02*
X012591Y006666D01*
X012438Y006819D02*
X012514Y006896D01*
X012361Y006858D02*
X012323Y006896D01*
X012246Y006896D01*
X012207Y006858D01*
X012207Y006704D01*
X012246Y006666D01*
X012323Y006666D01*
X012361Y006704D01*
X012304Y007966D02*
X012457Y008119D01*
X012457Y008158D01*
X012419Y008196D01*
X012342Y008196D01*
X012304Y008158D01*
X012227Y008158D02*
X012188Y008196D01*
X012112Y008196D01*
X012073Y008158D01*
X012073Y008004D01*
X012112Y007966D01*
X012188Y007966D01*
X012227Y008004D01*
X012304Y007966D02*
X012457Y007966D01*
X012534Y008004D02*
X012572Y007966D01*
X012649Y007966D01*
X012687Y008004D01*
X012687Y008043D01*
X012649Y008081D01*
X012610Y008081D01*
X012649Y008081D02*
X012687Y008119D01*
X012687Y008158D01*
X012649Y008196D01*
X012572Y008196D01*
X012534Y008158D01*
X013399Y010315D02*
X013476Y010315D01*
X013514Y010354D01*
X013514Y010545D01*
X013591Y010545D02*
X013744Y010545D01*
X013744Y010507D01*
X013591Y010354D01*
X013591Y010315D01*
X013399Y010315D02*
X013360Y010354D01*
X013360Y010545D01*
X010470Y012628D02*
X010432Y012590D01*
X010355Y012590D01*
X010317Y012628D01*
X010240Y012628D02*
X010202Y012590D01*
X010125Y012590D01*
X010086Y012628D01*
X010010Y012628D02*
X009971Y012590D01*
X009895Y012590D01*
X009856Y012628D01*
X009856Y012782D01*
X009895Y012820D01*
X009971Y012820D01*
X010010Y012782D01*
X010086Y012820D02*
X010086Y012705D01*
X010163Y012743D01*
X010202Y012743D01*
X010240Y012705D01*
X010240Y012628D01*
X010393Y012705D02*
X010432Y012705D01*
X010470Y012666D01*
X010470Y012628D01*
X010432Y012705D02*
X010470Y012743D01*
X010470Y012782D01*
X010432Y012820D01*
X010355Y012820D01*
X010317Y012782D01*
X010240Y012820D02*
X010086Y012820D01*
X010026Y012964D02*
X009950Y012964D01*
X009911Y013002D01*
X009911Y013156D01*
X009950Y013194D01*
X010026Y013194D01*
X010065Y013156D01*
X010142Y013194D02*
X010142Y013079D01*
X010218Y013118D01*
X010257Y013118D01*
X010295Y013079D01*
X010295Y013002D01*
X010257Y012964D01*
X010180Y012964D01*
X010142Y013002D01*
X010065Y013002D02*
X010026Y012964D01*
X010142Y013194D02*
X010295Y013194D01*
X010372Y013156D02*
X010410Y013194D01*
X010487Y013194D01*
X010525Y013156D01*
X010525Y013118D01*
X010372Y012964D01*
X010525Y012964D01*
X008836Y011402D02*
X008797Y011441D01*
X008759Y011441D01*
X008720Y011402D01*
X008720Y011287D01*
X008797Y011287D01*
X008836Y011326D01*
X008836Y011402D01*
X008720Y011287D02*
X008644Y011364D01*
X008605Y011441D01*
X008720Y011210D02*
X008720Y011057D01*
X008605Y011172D01*
X008836Y011172D01*
X008797Y010980D02*
X008836Y010942D01*
X008836Y010865D01*
X008797Y010827D01*
X008644Y010827D01*
X008605Y010865D01*
X008605Y010942D01*
X008644Y010980D01*
X007094Y010978D02*
X007094Y010939D01*
X007055Y010901D01*
X006979Y010901D01*
X006940Y010939D01*
X006940Y010978D01*
X006979Y011016D01*
X007055Y011016D01*
X007094Y010978D01*
X007055Y010901D02*
X007094Y010863D01*
X007094Y010824D01*
X007055Y010786D01*
X006979Y010786D01*
X006940Y010824D01*
X006940Y010863D01*
X006979Y010901D01*
X006864Y010901D02*
X006748Y010901D01*
X006710Y010939D01*
X006710Y010978D01*
X006748Y011016D01*
X006825Y011016D01*
X006864Y010978D01*
X006864Y010824D01*
X006825Y010786D01*
X006748Y010786D01*
X006710Y010824D01*
X006633Y010786D02*
X006557Y010863D01*
X006595Y010863D02*
X006480Y010863D01*
X006480Y010786D02*
X006480Y011016D01*
X006595Y011016D01*
X006633Y010978D01*
X006633Y010901D01*
X006595Y010863D01*
X005921Y011044D02*
X005921Y011197D01*
X005882Y011236D01*
X005806Y011236D01*
X005767Y011197D01*
X005767Y011159D01*
X005806Y011121D01*
X005921Y011121D01*
X005921Y011044D02*
X005882Y011006D01*
X005806Y011006D01*
X005767Y011044D01*
X005691Y011044D02*
X005691Y011236D01*
X005537Y011236D02*
X005537Y011044D01*
X005575Y011006D01*
X005652Y011006D01*
X005691Y011044D01*
X005305Y010867D02*
X005152Y010867D01*
X005228Y010867D02*
X005228Y011097D01*
X005152Y011020D01*
X005075Y010982D02*
X004960Y010982D01*
X004921Y011020D01*
X004921Y011059D01*
X004960Y011097D01*
X005036Y011097D01*
X005075Y011059D01*
X005075Y010905D01*
X005036Y010867D01*
X004960Y010867D01*
X004921Y010905D01*
X004845Y010867D02*
X004768Y010944D01*
X004806Y010944D02*
X004691Y010944D01*
X004691Y010867D02*
X004691Y011097D01*
X004806Y011097D01*
X004845Y011059D01*
X004845Y010982D01*
X004806Y010944D01*
X004596Y010759D02*
X004519Y010759D01*
X004481Y010720D01*
X004404Y010720D02*
X004250Y010567D01*
X004289Y010528D01*
X004366Y010528D01*
X004404Y010567D01*
X004404Y010720D01*
X004366Y010759D01*
X004289Y010759D01*
X004250Y010720D01*
X004250Y010567D01*
X004174Y010528D02*
X004020Y010528D01*
X003944Y010528D02*
X003867Y010605D01*
X003905Y010605D02*
X003790Y010605D01*
X003790Y010528D02*
X003790Y010759D01*
X003905Y010759D01*
X003944Y010720D01*
X003944Y010644D01*
X003905Y010605D01*
X004020Y010682D02*
X004097Y010759D01*
X004097Y010528D01*
X004481Y010528D02*
X004634Y010682D01*
X004634Y010720D01*
X004596Y010759D01*
X004634Y010528D02*
X004481Y010528D01*
X004499Y011306D02*
X004460Y011344D01*
X004499Y011306D02*
X004575Y011306D01*
X004614Y011344D01*
X004614Y011383D01*
X004575Y011421D01*
X004537Y011421D01*
X004575Y011421D02*
X004614Y011459D01*
X004614Y011498D01*
X004575Y011536D01*
X004499Y011536D01*
X004460Y011498D01*
X004384Y011498D02*
X004345Y011536D01*
X004268Y011536D01*
X004230Y011498D01*
X004230Y011459D01*
X004268Y011421D01*
X004384Y011421D01*
X004384Y011344D02*
X004384Y011498D01*
X004384Y011344D02*
X004345Y011306D01*
X004268Y011306D01*
X004230Y011344D01*
X004153Y011306D02*
X004077Y011383D01*
X004115Y011383D02*
X004000Y011383D01*
X004000Y011306D02*
X004000Y011536D01*
X004115Y011536D01*
X004153Y011498D01*
X004153Y011421D01*
X004115Y011383D01*
X004152Y011822D02*
X004075Y011899D01*
X004114Y011899D02*
X003999Y011899D01*
X003999Y011822D02*
X003999Y012052D01*
X004114Y012052D01*
X004152Y012014D01*
X004152Y011937D01*
X004114Y011899D01*
X004229Y011860D02*
X004267Y011822D01*
X004344Y011822D01*
X004382Y011860D01*
X004382Y012014D01*
X004344Y012052D01*
X004267Y012052D01*
X004229Y012014D01*
X004229Y011976D01*
X004267Y011937D01*
X004382Y011937D01*
X004459Y011937D02*
X004612Y011937D01*
X004574Y011822D02*
X004574Y012052D01*
X004459Y011937D01*
X004500Y012335D02*
X004462Y012374D01*
X004500Y012335D02*
X004577Y012335D01*
X004616Y012374D01*
X004616Y012450D01*
X004577Y012489D01*
X004539Y012489D01*
X004462Y012450D01*
X004462Y012565D01*
X004616Y012565D01*
X004385Y012527D02*
X004347Y012565D01*
X004270Y012565D01*
X004232Y012527D01*
X004232Y012489D01*
X004270Y012450D01*
X004385Y012450D01*
X004385Y012374D02*
X004385Y012527D01*
X004385Y012374D02*
X004347Y012335D01*
X004270Y012335D01*
X004232Y012374D01*
X004155Y012335D02*
X004078Y012412D01*
X004117Y012412D02*
X004002Y012412D01*
X004002Y012335D02*
X004002Y012565D01*
X004117Y012565D01*
X004155Y012527D01*
X004155Y012450D01*
X004117Y012412D01*
X004059Y012843D02*
X004212Y012996D01*
X004212Y013035D01*
X004174Y013073D01*
X004097Y013073D01*
X004059Y013035D01*
X003982Y013035D02*
X003944Y013073D01*
X003867Y013073D01*
X003829Y013035D01*
X003829Y012996D01*
X003867Y012958D01*
X003982Y012958D01*
X003982Y012881D02*
X003982Y013035D01*
X003982Y012881D02*
X003944Y012843D01*
X003867Y012843D01*
X003829Y012881D01*
X003752Y012843D02*
X003675Y012919D01*
X003714Y012919D02*
X003599Y012919D01*
X003599Y012843D02*
X003599Y013073D01*
X003714Y013073D01*
X003752Y013035D01*
X003752Y012958D01*
X003714Y012919D01*
X004059Y012843D02*
X004212Y012843D01*
X004162Y013365D02*
X004085Y013365D01*
X004047Y013403D01*
X003970Y013403D02*
X003932Y013365D01*
X003855Y013365D01*
X003817Y013403D01*
X003817Y013557D01*
X003855Y013595D01*
X003932Y013595D01*
X003970Y013557D01*
X004047Y013595D02*
X004047Y013480D01*
X004124Y013518D01*
X004162Y013518D01*
X004201Y013480D01*
X004201Y013403D01*
X004162Y013365D01*
X004277Y013403D02*
X004316Y013365D01*
X004392Y013365D01*
X004431Y013403D01*
X004431Y013480D01*
X004392Y013518D01*
X004354Y013518D01*
X004277Y013480D01*
X004277Y013595D01*
X004431Y013595D01*
X004201Y013595D02*
X004047Y013595D01*
X003960Y013654D02*
X003883Y013654D01*
X003845Y013693D01*
X003845Y013731D01*
X003883Y013769D01*
X003960Y013769D01*
X003999Y013731D01*
X003999Y013693D01*
X003960Y013654D01*
X003960Y013769D02*
X003999Y013808D01*
X003999Y013846D01*
X003960Y013884D01*
X003883Y013884D01*
X003845Y013846D01*
X003845Y013808D01*
X003883Y013769D01*
X003768Y013808D02*
X003768Y013846D01*
X003730Y013884D01*
X003653Y013884D01*
X003615Y013846D01*
X003538Y013846D02*
X003500Y013884D01*
X003385Y013884D01*
X003385Y013654D01*
X003500Y013654D01*
X003538Y013693D01*
X003538Y013846D01*
X003572Y013988D02*
X003649Y013988D01*
X003687Y014026D01*
X003764Y014026D02*
X003764Y013988D01*
X003764Y014026D02*
X003918Y014179D01*
X003918Y014218D01*
X003764Y014218D01*
X003687Y014179D02*
X003649Y014218D01*
X003572Y014218D01*
X003534Y014179D01*
X003534Y014026D01*
X003572Y013988D01*
X003768Y013808D02*
X003615Y013654D01*
X003768Y013654D01*
X003994Y013988D02*
X004148Y014141D01*
X004148Y014179D01*
X004109Y014218D01*
X004033Y014218D01*
X003994Y014179D01*
X003994Y013988D02*
X004148Y013988D01*
X004897Y014479D02*
X004897Y014709D01*
X005012Y014709D01*
X005051Y014670D01*
X005051Y014594D01*
X005012Y014555D01*
X004897Y014555D01*
X004974Y014555D02*
X005051Y014479D01*
X005128Y014517D02*
X005166Y014479D01*
X005243Y014479D01*
X005281Y014517D01*
X005281Y014670D01*
X005243Y014709D01*
X005166Y014709D01*
X005128Y014670D01*
X005128Y014632D01*
X005166Y014594D01*
X005281Y014594D01*
X005358Y014670D02*
X005396Y014709D01*
X005473Y014709D01*
X005511Y014670D01*
X005358Y014517D01*
X005396Y014479D01*
X005473Y014479D01*
X005511Y014517D01*
X005511Y014670D01*
X005358Y014670D02*
X005358Y014517D01*
X005917Y015052D02*
X005917Y015282D01*
X006032Y015282D01*
X006070Y015243D01*
X006070Y015167D01*
X006032Y015128D01*
X005917Y015128D01*
X005993Y015128D02*
X006070Y015052D01*
X006147Y015090D02*
X006147Y015128D01*
X006185Y015167D01*
X006262Y015167D01*
X006300Y015128D01*
X006300Y015090D01*
X006262Y015052D01*
X006185Y015052D01*
X006147Y015090D01*
X006185Y015167D02*
X006147Y015205D01*
X006147Y015243D01*
X006185Y015282D01*
X006262Y015282D01*
X006300Y015243D01*
X006300Y015205D01*
X006262Y015167D01*
X006377Y015167D02*
X006492Y015167D01*
X006530Y015128D01*
X006530Y015090D01*
X006492Y015052D01*
X006415Y015052D01*
X006377Y015090D01*
X006377Y015167D01*
X006454Y015243D01*
X006530Y015282D01*
X006501Y015396D02*
X006578Y015396D01*
X006616Y015435D01*
X006616Y015588D01*
X006578Y015626D01*
X006501Y015626D01*
X006463Y015588D01*
X006463Y015550D01*
X006501Y015511D01*
X006616Y015511D01*
X006501Y015396D02*
X006463Y015435D01*
X006386Y015435D02*
X006348Y015396D01*
X006271Y015396D01*
X006233Y015435D01*
X006233Y015473D01*
X006271Y015511D01*
X006348Y015511D01*
X006386Y015473D01*
X006386Y015435D01*
X006348Y015511D02*
X006386Y015550D01*
X006386Y015588D01*
X006348Y015626D01*
X006271Y015626D01*
X006233Y015588D01*
X006233Y015550D01*
X006271Y015511D01*
X006156Y015511D02*
X006118Y015473D01*
X006002Y015473D01*
X006002Y015396D02*
X006002Y015626D01*
X006118Y015626D01*
X006156Y015588D01*
X006156Y015511D01*
X006079Y015473D02*
X006156Y015396D01*
X006924Y015151D02*
X006924Y014997D01*
X006962Y014959D01*
X007039Y014959D01*
X007078Y014997D01*
X007154Y014997D02*
X007193Y014959D01*
X007269Y014959D01*
X007308Y014997D01*
X007308Y015074D01*
X007269Y015112D01*
X007231Y015112D01*
X007154Y015074D01*
X007154Y015189D01*
X007308Y015189D01*
X007384Y015074D02*
X007538Y015074D01*
X007500Y015189D02*
X007384Y015074D01*
X007500Y014959D02*
X007500Y015189D01*
X007762Y015138D02*
X007762Y014984D01*
X007800Y014946D01*
X007877Y014946D01*
X007915Y014984D01*
X007992Y014984D02*
X008030Y014946D01*
X008107Y014946D01*
X008146Y014984D01*
X008146Y015061D01*
X008107Y015099D01*
X008069Y015099D01*
X007992Y015061D01*
X007992Y015176D01*
X008146Y015176D01*
X008222Y015099D02*
X008299Y015176D01*
X008299Y014946D01*
X008222Y014946D02*
X008376Y014946D01*
X007915Y015138D02*
X007877Y015176D01*
X007800Y015176D01*
X007762Y015138D01*
X007078Y015151D02*
X007039Y015189D01*
X006962Y015189D01*
X006924Y015151D01*
X007513Y015946D02*
X007513Y016176D01*
X007628Y016176D01*
X007667Y016137D01*
X007667Y016061D01*
X007628Y016022D01*
X007513Y016022D01*
X007590Y016022D02*
X007667Y015946D01*
X007743Y015946D02*
X007897Y015946D01*
X007974Y015946D02*
X008127Y015946D01*
X008050Y015946D02*
X008050Y016176D01*
X007974Y016099D01*
X007820Y016176D02*
X007820Y015946D01*
X007743Y016099D02*
X007820Y016176D01*
X008204Y016176D02*
X008204Y016061D01*
X008281Y016099D01*
X008319Y016099D01*
X008357Y016061D01*
X008357Y015984D01*
X008319Y015946D01*
X008242Y015946D01*
X008204Y015984D01*
X008204Y016176D02*
X008357Y016176D01*
X008859Y015214D02*
X008974Y015214D01*
X009013Y015175D01*
X009013Y015098D01*
X008974Y015060D01*
X008859Y015060D01*
X008859Y014983D02*
X008859Y015214D01*
X008936Y015060D02*
X009013Y014983D01*
X009089Y015022D02*
X009128Y014983D01*
X009205Y014983D01*
X009243Y015022D01*
X009243Y015175D01*
X009205Y015214D01*
X009128Y015214D01*
X009089Y015175D01*
X009089Y015137D01*
X009128Y015098D01*
X009243Y015098D01*
X009320Y015022D02*
X009320Y014983D01*
X009320Y015022D02*
X009473Y015175D01*
X009473Y015214D01*
X009320Y015214D01*
X008522Y017850D02*
X008522Y018081D01*
X008407Y017965D01*
X008560Y017965D01*
X008330Y017850D02*
X008176Y017850D01*
X008100Y017850D02*
X007946Y017850D01*
X007869Y017850D02*
X007793Y017927D01*
X007831Y017927D02*
X007716Y017927D01*
X007716Y017850D02*
X007716Y018081D01*
X007831Y018081D01*
X007869Y018042D01*
X007869Y017965D01*
X007831Y017927D01*
X007946Y018004D02*
X008023Y018081D01*
X008023Y017850D01*
X008176Y018004D02*
X008253Y018081D01*
X008253Y017850D01*
X008237Y018565D02*
X008084Y018565D01*
X008237Y018719D01*
X008237Y018757D01*
X008199Y018795D01*
X008122Y018795D01*
X008084Y018757D01*
X008007Y018757D02*
X007969Y018795D01*
X007854Y018795D01*
X007854Y018565D01*
X007969Y018565D01*
X008007Y018603D01*
X008007Y018757D01*
X008314Y018757D02*
X008314Y018719D01*
X008353Y018680D01*
X008468Y018680D01*
X008468Y018603D02*
X008468Y018757D01*
X008429Y018795D01*
X008353Y018795D01*
X008314Y018757D01*
X008314Y018603D02*
X008353Y018565D01*
X008429Y018565D01*
X008468Y018603D01*
X009390Y020955D02*
X009505Y020955D01*
X009543Y020993D01*
X009543Y021147D01*
X009505Y021185D01*
X009390Y021185D01*
X009390Y020955D01*
X009620Y020955D02*
X009774Y021108D01*
X009774Y021147D01*
X009735Y021185D01*
X009658Y021185D01*
X009620Y021147D01*
X009620Y020955D02*
X009774Y020955D01*
X009167Y021609D02*
X009013Y021609D01*
X009090Y021609D02*
X009090Y021839D01*
X009013Y021763D01*
X008936Y021724D02*
X008783Y021724D01*
X008898Y021839D01*
X008898Y021609D01*
X008706Y021609D02*
X008629Y021686D01*
X008668Y021686D02*
X008553Y021686D01*
X008553Y021609D02*
X008553Y021839D01*
X008668Y021839D01*
X008706Y021801D01*
X008706Y021724D01*
X008668Y021686D01*
X008369Y021754D02*
X008216Y021601D01*
X008369Y021601D01*
X008369Y021754D02*
X008369Y021793D01*
X008331Y021831D01*
X008254Y021831D01*
X008216Y021793D01*
X008139Y021716D02*
X007986Y021716D01*
X008101Y021831D01*
X008101Y021601D01*
X007909Y021601D02*
X007832Y021677D01*
X007870Y021677D02*
X007755Y021677D01*
X007755Y021601D02*
X007755Y021831D01*
X007870Y021831D01*
X007909Y021793D01*
X007909Y021716D01*
X007870Y021677D01*
X007272Y021134D02*
X007272Y021096D01*
X007234Y021058D01*
X007272Y021019D01*
X007272Y020981D01*
X007234Y020943D01*
X007157Y020943D01*
X007119Y020981D01*
X007042Y020981D02*
X007042Y021134D01*
X007004Y021173D01*
X006889Y021173D01*
X006889Y020943D01*
X007004Y020943D01*
X007042Y020981D01*
X007119Y021134D02*
X007157Y021173D01*
X007234Y021173D01*
X007272Y021134D01*
X007234Y021058D02*
X007196Y021058D01*
X004820Y016975D02*
X004743Y016898D01*
X004666Y016936D02*
X004513Y016783D01*
X004513Y016744D01*
X004436Y016783D02*
X004398Y016744D01*
X004321Y016744D01*
X004283Y016783D01*
X004283Y016936D01*
X004321Y016975D01*
X004398Y016975D01*
X004436Y016936D01*
X004513Y016975D02*
X004666Y016975D01*
X004666Y016936D01*
X004820Y016975D02*
X004820Y016744D01*
X004896Y016744D02*
X004743Y016744D01*
X004110Y016438D02*
X004110Y016208D01*
X004033Y016208D02*
X004187Y016208D01*
X004033Y016361D02*
X004110Y016438D01*
X003957Y016438D02*
X003957Y016400D01*
X003880Y016323D01*
X003880Y016208D01*
X003880Y016323D02*
X003803Y016400D01*
X003803Y016438D01*
X003149Y010055D02*
X003149Y010017D01*
X002996Y009863D01*
X002996Y009825D01*
X002919Y009825D02*
X002766Y009825D01*
X002919Y009979D01*
X002919Y010017D01*
X002881Y010055D01*
X002804Y010055D01*
X002766Y010017D01*
X002689Y010017D02*
X002651Y010055D01*
X002536Y010055D01*
X002536Y009825D01*
X002651Y009825D01*
X002689Y009863D01*
X002689Y010017D01*
X002996Y010055D02*
X003149Y010055D01*
X004873Y009501D02*
X004873Y009271D01*
X004873Y009348D02*
X004988Y009348D01*
X005026Y009386D01*
X005026Y009463D01*
X004988Y009501D01*
X004873Y009501D01*
X004950Y009348D02*
X005026Y009271D01*
X005103Y009271D02*
X005257Y009271D01*
X005180Y009271D02*
X005180Y009501D01*
X005103Y009424D01*
X005333Y009463D02*
X005333Y009309D01*
X005487Y009463D01*
X005487Y009309D01*
X005448Y009271D01*
X005372Y009271D01*
X005333Y009309D01*
X005333Y009463D02*
X005372Y009501D01*
X005448Y009501D01*
X005487Y009463D01*
X005564Y009424D02*
X005640Y009501D01*
X005640Y009271D01*
X005564Y009271D02*
X005717Y009271D01*
X005760Y009244D02*
X005760Y009474D01*
X005876Y009474D01*
X005914Y009436D01*
X005914Y009359D01*
X005876Y009321D01*
X005760Y009321D01*
X005837Y009321D02*
X005914Y009244D01*
X005991Y009244D02*
X006144Y009244D01*
X006067Y009244D02*
X006067Y009474D01*
X005991Y009397D01*
X006221Y009436D02*
X006221Y009282D01*
X006374Y009436D01*
X006374Y009282D01*
X006336Y009244D01*
X006259Y009244D01*
X006221Y009282D01*
X006221Y009436D02*
X006259Y009474D01*
X006336Y009474D01*
X006374Y009436D01*
X006451Y009436D02*
X006489Y009474D01*
X006566Y009474D01*
X006604Y009436D01*
X006451Y009282D01*
X006489Y009244D01*
X006566Y009244D01*
X006604Y009282D01*
X006604Y009436D01*
X006451Y009436D02*
X006451Y009282D01*
X007062Y009058D02*
X007062Y008828D01*
X007177Y008828D01*
X007215Y008866D01*
X007215Y009020D01*
X007177Y009058D01*
X007062Y009058D01*
X007292Y009020D02*
X007330Y009058D01*
X007407Y009058D01*
X007445Y009020D01*
X007445Y008981D01*
X007292Y008828D01*
X007445Y008828D01*
X007522Y008866D02*
X007560Y008828D01*
X007637Y008828D01*
X007676Y008866D01*
X007676Y008905D01*
X007637Y008943D01*
X007522Y008943D01*
X007522Y008866D01*
X007522Y008943D02*
X007599Y009020D01*
X007676Y009058D01*
X007856Y008719D02*
X007971Y008719D01*
X008010Y008680D01*
X008010Y008604D01*
X007971Y008565D01*
X007856Y008565D01*
X007856Y008489D02*
X007856Y008719D01*
X007933Y008565D02*
X008010Y008489D01*
X008086Y008527D02*
X008125Y008489D01*
X008202Y008489D01*
X008240Y008527D01*
X008240Y008680D01*
X008202Y008719D01*
X008125Y008719D01*
X008086Y008680D01*
X008086Y008642D01*
X008125Y008604D01*
X008240Y008604D01*
X008317Y008604D02*
X008432Y008604D01*
X008470Y008565D01*
X008470Y008527D01*
X008432Y008489D01*
X008355Y008489D01*
X008317Y008527D01*
X008317Y008604D01*
X008393Y008680D01*
X008470Y008719D01*
X008526Y008596D02*
X008564Y008557D01*
X008564Y008481D01*
X008526Y008442D01*
X008410Y008442D01*
X008410Y008366D02*
X008410Y008596D01*
X008526Y008596D01*
X008641Y008557D02*
X008679Y008596D01*
X008756Y008596D01*
X008794Y008557D01*
X008794Y008404D01*
X008756Y008366D01*
X008679Y008366D01*
X008641Y008404D01*
X008679Y008481D02*
X008794Y008481D01*
X008871Y008519D02*
X008909Y008481D01*
X009024Y008481D01*
X009024Y008557D02*
X008986Y008596D01*
X008909Y008596D01*
X008871Y008557D01*
X008871Y008519D01*
X008871Y008404D02*
X008909Y008366D01*
X008986Y008366D01*
X009024Y008404D01*
X009024Y008557D01*
X008679Y008481D02*
X008641Y008519D01*
X008641Y008557D01*
X008487Y008442D02*
X008564Y008366D01*
X009546Y008076D02*
X009623Y008076D01*
X009585Y008076D02*
X009585Y007846D01*
X009623Y007846D02*
X009546Y007846D01*
X009700Y007885D02*
X009738Y007846D01*
X009815Y007846D01*
X009853Y007885D01*
X009930Y007846D02*
X010084Y008000D01*
X010084Y008038D01*
X010045Y008076D01*
X009968Y008076D01*
X009930Y008038D01*
X009853Y008038D02*
X009815Y008076D01*
X009738Y008076D01*
X009700Y008038D01*
X009700Y007885D01*
X009930Y007846D02*
X010084Y007846D01*
X014025Y002035D02*
X013987Y001997D01*
X013987Y001843D01*
X014025Y001805D01*
X014102Y001805D01*
X014140Y001843D01*
X014217Y001805D02*
X014371Y001959D01*
X014371Y001997D01*
X014332Y002035D01*
X014256Y002035D01*
X014217Y001997D01*
X014140Y001997D02*
X014102Y002035D01*
X014025Y002035D01*
X014217Y001805D02*
X014371Y001805D01*
X014447Y001805D02*
X014601Y001959D01*
X014601Y001997D01*
X014562Y002035D01*
X014486Y002035D01*
X014447Y001997D01*
X014447Y001805D02*
X014601Y001805D01*
X014781Y001831D02*
X014781Y001985D01*
X014820Y002023D01*
X014897Y002023D01*
X014935Y001985D01*
X015012Y001985D02*
X015050Y002023D01*
X015127Y002023D01*
X015165Y001985D01*
X015165Y001947D01*
X015012Y001793D01*
X015165Y001793D01*
X015242Y001793D02*
X015395Y001793D01*
X015319Y001793D02*
X015319Y002023D01*
X015242Y001947D01*
X014935Y001831D02*
X014897Y001793D01*
X014820Y001793D01*
X014781Y001831D01*
X015831Y002145D02*
X015869Y002107D01*
X015946Y002107D01*
X015984Y002145D01*
X016061Y002107D02*
X016215Y002261D01*
X016215Y002299D01*
X016176Y002337D01*
X016099Y002337D01*
X016061Y002299D01*
X015984Y002299D02*
X015946Y002337D01*
X015869Y002337D01*
X015831Y002299D01*
X015831Y002145D01*
X016061Y002107D02*
X016215Y002107D01*
X016291Y002107D02*
X016291Y002145D01*
X016445Y002299D01*
X016445Y002337D01*
X016291Y002337D01*
X016651Y002293D02*
X016651Y002140D01*
X016689Y002101D01*
X016766Y002101D01*
X016804Y002140D01*
X016881Y002101D02*
X017035Y002255D01*
X017035Y002293D01*
X016996Y002331D01*
X016919Y002331D01*
X016881Y002293D01*
X016804Y002293D02*
X016766Y002331D01*
X016689Y002331D01*
X016651Y002293D01*
X016881Y002101D02*
X017035Y002101D01*
X017111Y002140D02*
X017111Y002178D01*
X017150Y002216D01*
X017226Y002216D01*
X017265Y002178D01*
X017265Y002140D01*
X017226Y002101D01*
X017150Y002101D01*
X017111Y002140D01*
X017150Y002216D02*
X017111Y002255D01*
X017111Y002293D01*
X017150Y002331D01*
X017226Y002331D01*
X017265Y002293D01*
X017265Y002255D01*
X017226Y002216D01*
X018165Y002649D02*
X018203Y002611D01*
X018280Y002611D01*
X018318Y002649D01*
X018395Y002611D02*
X018548Y002611D01*
X018472Y002611D02*
X018472Y002841D01*
X018395Y002764D01*
X018318Y002802D02*
X018280Y002841D01*
X018203Y002841D01*
X018165Y002802D01*
X018165Y002649D01*
X018625Y002649D02*
X018663Y002611D01*
X018740Y002611D01*
X018779Y002649D01*
X018779Y002687D01*
X018740Y002726D01*
X018625Y002726D01*
X018625Y002649D01*
X018625Y002726D02*
X018702Y002802D01*
X018779Y002841D01*
X020990Y004864D02*
X021028Y004825D01*
X021105Y004825D01*
X021143Y004864D01*
X021220Y004825D02*
X021374Y004979D01*
X021374Y005017D01*
X021335Y005056D01*
X021258Y005056D01*
X021220Y005017D01*
X021143Y005017D02*
X021105Y005056D01*
X021028Y005056D01*
X020990Y005017D01*
X020990Y004864D01*
X021220Y004825D02*
X021374Y004825D01*
X021450Y004864D02*
X021489Y004825D01*
X021565Y004825D01*
X021604Y004864D01*
X021604Y004941D01*
X021565Y004979D01*
X021527Y004979D01*
X021450Y004941D01*
X021450Y005056D01*
X021604Y005056D01*
X021548Y005459D02*
X021586Y005497D01*
X021548Y005459D02*
X021471Y005459D01*
X021433Y005497D01*
X021433Y005651D01*
X021471Y005689D01*
X021548Y005689D01*
X021586Y005651D01*
X021663Y005612D02*
X021740Y005689D01*
X021740Y005459D01*
X021816Y005459D02*
X021663Y005459D01*
X021893Y005497D02*
X021893Y005535D01*
X021931Y005574D01*
X022008Y005574D01*
X022047Y005535D01*
X022047Y005497D01*
X022008Y005459D01*
X021931Y005459D01*
X021893Y005497D01*
X021931Y005574D02*
X021893Y005612D01*
X021893Y005651D01*
X021931Y005689D01*
X022008Y005689D01*
X022047Y005651D01*
X022047Y005612D01*
X022008Y005574D01*
X021873Y005968D02*
X021873Y006006D01*
X022027Y006160D01*
X022027Y006198D01*
X021873Y006198D01*
X021720Y006198D02*
X021720Y005968D01*
X021643Y005968D02*
X021797Y005968D01*
X021643Y006121D02*
X021720Y006198D01*
X021566Y006160D02*
X021528Y006198D01*
X021451Y006198D01*
X021413Y006160D01*
X021413Y006006D01*
X021451Y005968D01*
X021528Y005968D01*
X021566Y006006D01*
X021928Y007103D02*
X021890Y007142D01*
X021890Y007295D01*
X021928Y007334D01*
X022005Y007334D01*
X022043Y007295D01*
X022120Y007295D02*
X022159Y007334D01*
X022235Y007334D01*
X022274Y007295D01*
X022274Y007257D01*
X022120Y007103D01*
X022274Y007103D01*
X022350Y007142D02*
X022504Y007295D01*
X022504Y007142D01*
X022465Y007103D01*
X022389Y007103D01*
X022350Y007142D01*
X022350Y007295D01*
X022389Y007334D01*
X022465Y007334D01*
X022504Y007295D01*
X022043Y007142D02*
X022005Y007103D01*
X021928Y007103D01*
X021899Y008194D02*
X021861Y008232D01*
X021861Y008385D01*
X021899Y008424D01*
X021976Y008424D01*
X022014Y008385D01*
X022091Y008385D02*
X022129Y008424D01*
X022206Y008424D01*
X022244Y008385D01*
X022244Y008347D01*
X022091Y008194D01*
X022244Y008194D01*
X022321Y008232D02*
X022360Y008194D01*
X022436Y008194D01*
X022475Y008232D01*
X022475Y008270D01*
X022436Y008309D01*
X022321Y008309D01*
X022321Y008232D01*
X022321Y008309D02*
X022398Y008385D01*
X022475Y008424D01*
X022014Y008232D02*
X021976Y008194D01*
X021899Y008194D01*
X021912Y008899D02*
X021835Y008899D01*
X021797Y008938D01*
X021835Y009014D02*
X021950Y009014D01*
X021950Y008938D02*
X021950Y009091D01*
X021912Y009129D01*
X021835Y009129D01*
X021797Y009091D01*
X021797Y009053D01*
X021835Y009014D01*
X021950Y008938D02*
X021912Y008899D01*
X021720Y008899D02*
X021566Y008899D01*
X021643Y008899D02*
X021643Y009129D01*
X021566Y009053D01*
X021490Y009091D02*
X021451Y009129D01*
X021375Y009129D01*
X021336Y009091D01*
X021336Y008938D01*
X021375Y008899D01*
X021451Y008899D01*
X021490Y008938D01*
X019568Y011465D02*
X019414Y011465D01*
X019491Y011465D02*
X019491Y011695D01*
X019414Y011618D01*
X019338Y011656D02*
X019299Y011695D01*
X019222Y011695D01*
X019184Y011656D01*
X019184Y011503D01*
X019222Y011465D01*
X019299Y011465D01*
X019338Y011503D01*
X019107Y011465D02*
X019031Y011465D01*
X019069Y011465D02*
X019069Y011695D01*
X019031Y011695D02*
X019107Y011695D01*
X018344Y011688D02*
X018344Y011650D01*
X018305Y011611D01*
X018344Y011573D01*
X018344Y011535D01*
X018305Y011496D01*
X018229Y011496D01*
X018190Y011535D01*
X018267Y011611D02*
X018305Y011611D01*
X018344Y011688D02*
X018305Y011727D01*
X018229Y011727D01*
X018190Y011688D01*
X018114Y011688D02*
X017960Y011535D01*
X017960Y011496D01*
X017883Y011535D02*
X017845Y011496D01*
X017768Y011496D01*
X017730Y011535D01*
X017730Y011688D01*
X017768Y011727D01*
X017845Y011727D01*
X017883Y011688D01*
X017960Y011727D02*
X018114Y011727D01*
X018114Y011688D01*
X018037Y011349D02*
X018037Y011118D01*
X017960Y011118D02*
X018114Y011118D01*
X018191Y011157D02*
X018229Y011118D01*
X018306Y011118D01*
X018344Y011157D01*
X018344Y011195D01*
X018306Y011233D01*
X018267Y011233D01*
X018306Y011233D02*
X018344Y011272D01*
X018344Y011310D01*
X018306Y011349D01*
X018229Y011349D01*
X018191Y011310D01*
X018037Y011349D02*
X017960Y011272D01*
X017884Y011310D02*
X017845Y011349D01*
X017769Y011349D01*
X017730Y011310D01*
X017730Y011157D01*
X017769Y011118D01*
X017845Y011118D01*
X017884Y011157D01*
X022249Y012269D02*
X022364Y012269D01*
X022403Y012308D01*
X022403Y012461D01*
X022364Y012500D01*
X022249Y012500D01*
X022249Y012269D01*
X022479Y012308D02*
X022518Y012269D01*
X022595Y012269D01*
X022633Y012308D01*
X022633Y012461D01*
X022595Y012500D01*
X022518Y012500D01*
X022479Y012461D01*
X022479Y012423D01*
X022518Y012384D01*
X022633Y012384D01*
X022563Y013321D02*
X022486Y013321D01*
X022448Y013359D01*
X022448Y013436D02*
X022525Y013475D01*
X022563Y013475D01*
X022602Y013436D01*
X022602Y013359D01*
X022563Y013321D01*
X022448Y013436D02*
X022448Y013551D01*
X022602Y013551D01*
X022371Y013513D02*
X022371Y013436D01*
X022333Y013398D01*
X022218Y013398D01*
X022295Y013398D02*
X022371Y013321D01*
X022218Y013321D02*
X022218Y013551D01*
X022333Y013551D01*
X022371Y013513D01*
X022346Y014319D02*
X022385Y014358D01*
X022385Y014511D01*
X022346Y014549D01*
X022231Y014549D01*
X022231Y014319D01*
X022346Y014319D01*
X022462Y014319D02*
X022615Y014473D01*
X022615Y014511D01*
X022577Y014549D01*
X022500Y014549D01*
X022462Y014511D01*
X022462Y014319D02*
X022615Y014319D01*
X022692Y014358D02*
X022730Y014319D01*
X022807Y014319D01*
X022845Y014358D01*
X022845Y014434D01*
X022807Y014473D01*
X022768Y014473D01*
X022692Y014434D01*
X022692Y014549D01*
X022845Y014549D01*
X022841Y015972D02*
X022880Y016011D01*
X022880Y016164D01*
X022841Y016203D01*
X022764Y016203D01*
X022726Y016164D01*
X022726Y016126D01*
X022764Y016087D01*
X022880Y016087D01*
X022841Y015972D02*
X022764Y015972D01*
X022726Y016011D01*
X022649Y016011D02*
X022611Y015972D01*
X022534Y015972D01*
X022496Y016011D01*
X022496Y016164D01*
X022534Y016203D01*
X022611Y016203D01*
X022649Y016164D01*
X022540Y016680D02*
X022578Y016718D01*
X022540Y016680D02*
X022463Y016680D01*
X022425Y016718D01*
X022425Y016872D01*
X022463Y016910D01*
X022540Y016910D01*
X022578Y016872D01*
X022655Y016795D02*
X022808Y016795D01*
X022770Y016680D02*
X022770Y016910D01*
X022655Y016795D01*
X021334Y016727D02*
X021334Y016880D01*
X021334Y016727D02*
X021257Y016650D01*
X021181Y016727D01*
X021181Y016880D01*
X021104Y016842D02*
X021066Y016880D01*
X020989Y016880D01*
X020950Y016842D01*
X021104Y016842D02*
X021104Y016803D01*
X020950Y016650D01*
X021104Y016650D01*
X020874Y016650D02*
X020835Y016650D01*
X020835Y016688D01*
X020874Y016688D01*
X020874Y016650D01*
X020759Y016650D02*
X020605Y016650D01*
X020682Y016650D02*
X020682Y016880D01*
X020605Y016803D01*
X022473Y019140D02*
X022550Y019140D01*
X022588Y019178D01*
X022665Y019178D02*
X022703Y019140D01*
X022780Y019140D01*
X022818Y019178D01*
X022818Y019217D01*
X022780Y019255D01*
X022742Y019255D01*
X022780Y019255D02*
X022818Y019293D01*
X022818Y019332D01*
X022780Y019370D01*
X022703Y019370D01*
X022665Y019332D01*
X022588Y019332D02*
X022550Y019370D01*
X022473Y019370D01*
X022435Y019332D01*
X022435Y019178D01*
X022473Y019140D01*
X023971Y020278D02*
X023971Y020508D01*
X024086Y020508D01*
X024124Y020469D01*
X024124Y020316D01*
X024086Y020278D01*
X023971Y020278D01*
X024201Y020316D02*
X024239Y020278D01*
X024316Y020278D01*
X024354Y020316D01*
X024354Y020354D01*
X024316Y020393D01*
X024277Y020393D01*
X024316Y020393D02*
X024354Y020431D01*
X024354Y020469D01*
X024316Y020508D01*
X024239Y020508D01*
X024201Y020469D01*
X024431Y020393D02*
X024431Y020316D01*
X024469Y020278D01*
X024546Y020278D01*
X024584Y020316D01*
X024584Y020354D01*
X024546Y020393D01*
X024431Y020393D01*
X024508Y020469D01*
X024584Y020508D01*
X022644Y021934D02*
X022644Y022167D01*
X022504Y022167D01*
X022457Y022121D01*
X022457Y022027D01*
X022504Y021981D01*
X022644Y021981D01*
X022644Y021934D02*
X022597Y021887D01*
X022550Y021887D01*
X022368Y021981D02*
X022368Y022121D01*
X022321Y022167D01*
X022181Y022167D01*
X022181Y021981D01*
X022091Y021981D02*
X022091Y022167D01*
X022091Y021981D02*
X021951Y021981D01*
X021904Y022027D01*
X021904Y022167D01*
X021815Y022121D02*
X021768Y022167D01*
X021675Y022167D01*
X021628Y022121D01*
X021628Y022027D01*
X021675Y021981D01*
X021768Y021981D01*
X021815Y022027D01*
X021815Y022121D01*
X021539Y022214D02*
X021539Y022261D01*
X021539Y022214D02*
X021445Y022121D01*
X021445Y021981D01*
X021445Y022121D02*
X021352Y022214D01*
X021352Y022261D01*
X021263Y022121D02*
X021076Y022121D01*
X020938Y022167D02*
X020938Y021981D01*
X020892Y021981D02*
X020985Y021981D01*
X020938Y022167D02*
X020892Y022167D01*
X020802Y022167D02*
X020755Y022167D01*
X020661Y022074D01*
X020572Y022074D02*
X020432Y022074D01*
X020385Y022027D01*
X020432Y021981D01*
X020572Y021981D01*
X020572Y022121D01*
X020525Y022167D01*
X020432Y022167D01*
X020296Y022167D02*
X020156Y022167D01*
X020109Y022121D01*
X020109Y022027D01*
X020156Y021981D01*
X020296Y021981D01*
X020296Y022261D01*
X020020Y022121D02*
X020020Y021981D01*
X020020Y022121D02*
X019973Y022167D01*
X019833Y022167D01*
X019833Y021981D01*
X019743Y021981D02*
X019603Y021981D01*
X019556Y022027D01*
X019603Y022074D01*
X019743Y022074D01*
X019743Y022121D02*
X019743Y021981D01*
X019743Y022121D02*
X019697Y022167D01*
X019603Y022167D01*
X019467Y022121D02*
X019467Y021981D01*
X019467Y022121D02*
X019420Y022167D01*
X019327Y022167D01*
X019280Y022121D01*
X019191Y022167D02*
X019144Y022121D01*
X019004Y022121D01*
X019004Y021981D02*
X019004Y022261D01*
X019144Y022261D01*
X019191Y022214D01*
X019191Y022167D01*
X019144Y022121D02*
X019191Y022074D01*
X019191Y022027D01*
X019144Y021981D01*
X019004Y021981D01*
X019096Y021811D02*
X019096Y021764D01*
X019189Y021671D01*
X019189Y021531D01*
X019189Y021671D02*
X019283Y021764D01*
X019283Y021811D01*
X019419Y021717D02*
X019512Y021717D01*
X019559Y021671D01*
X019559Y021624D01*
X019372Y021624D01*
X019372Y021671D02*
X019419Y021717D01*
X019372Y021671D02*
X019372Y021577D01*
X019419Y021531D01*
X019512Y021531D01*
X019649Y021577D02*
X019695Y021531D01*
X019789Y021531D01*
X019835Y021577D01*
X019835Y021671D01*
X019789Y021717D01*
X019695Y021717D01*
X019649Y021671D01*
X019649Y021577D01*
X019604Y021361D02*
X019464Y021361D01*
X019464Y021081D01*
X019604Y021081D01*
X019651Y021127D01*
X019651Y021174D01*
X019604Y021221D01*
X019464Y021221D01*
X019604Y021221D02*
X019651Y021267D01*
X019651Y021314D01*
X019604Y021361D01*
X019787Y021267D02*
X019881Y021267D01*
X019927Y021221D01*
X019927Y021081D01*
X019787Y021081D01*
X019741Y021127D01*
X019787Y021174D01*
X019927Y021174D01*
X020017Y021174D02*
X020110Y021267D01*
X020157Y021267D01*
X020247Y021221D02*
X020294Y021267D01*
X020434Y021267D01*
X020434Y021361D02*
X020434Y021081D01*
X020294Y021081D01*
X020247Y021127D01*
X020247Y021221D01*
X020017Y021267D02*
X020017Y021081D01*
X019993Y020907D02*
X019993Y020715D01*
X020031Y020676D01*
X020108Y020676D01*
X020147Y020715D01*
X020147Y020907D01*
X020223Y020868D02*
X020262Y020907D01*
X020338Y020907D01*
X020377Y020868D01*
X020377Y020830D01*
X020223Y020676D01*
X020377Y020676D01*
X020320Y020395D02*
X020205Y020395D01*
X020205Y020165D01*
X020205Y020242D02*
X020320Y020242D01*
X020358Y020280D01*
X020358Y020357D01*
X020320Y020395D01*
X020435Y020357D02*
X020473Y020395D01*
X020550Y020395D01*
X020588Y020357D01*
X020588Y020319D01*
X020435Y020165D01*
X020588Y020165D01*
X020511Y020081D02*
X020511Y019851D01*
X020434Y019851D02*
X020588Y019851D01*
X020434Y020004D02*
X020511Y020081D01*
X020357Y020042D02*
X020319Y020081D01*
X020204Y020081D01*
X020204Y019851D01*
X020204Y019927D02*
X020319Y019927D01*
X020357Y019966D01*
X020357Y020042D01*
X020358Y020165D02*
X020281Y020242D01*
X020281Y019927D02*
X020357Y019851D01*
X020570Y021081D02*
X020523Y021127D01*
X020523Y021221D01*
X020570Y021267D01*
X020663Y021267D01*
X020710Y021221D01*
X020710Y021127D01*
X020663Y021081D01*
X020570Y021081D01*
X020800Y021081D02*
X020940Y021081D01*
X020986Y021127D01*
X020940Y021174D01*
X020846Y021174D01*
X020800Y021221D01*
X020846Y021267D01*
X020986Y021267D01*
X021155Y021182D02*
X021194Y021220D01*
X021270Y021220D01*
X021309Y021182D01*
X021309Y021143D01*
X021270Y021105D01*
X021309Y021067D01*
X021309Y021028D01*
X021270Y020990D01*
X021194Y020990D01*
X021155Y021028D01*
X021232Y021105D02*
X021270Y021105D01*
X021385Y021028D02*
X021424Y021028D01*
X021424Y020990D01*
X021385Y020990D01*
X021385Y021028D01*
X021500Y021028D02*
X021539Y020990D01*
X021616Y020990D01*
X021654Y021028D01*
X021654Y021067D01*
X021616Y021105D01*
X021577Y021105D01*
X021616Y021105D02*
X021654Y021143D01*
X021654Y021182D01*
X021616Y021220D01*
X021539Y021220D01*
X021500Y021182D01*
X021731Y021220D02*
X021731Y021067D01*
X021807Y020990D01*
X021884Y021067D01*
X021884Y021220D01*
X021124Y021624D02*
X020938Y021624D01*
X020938Y021671D02*
X020984Y021717D01*
X021078Y021717D01*
X021124Y021671D01*
X021124Y021624D01*
X021078Y021531D02*
X020984Y021531D01*
X020938Y021577D01*
X020938Y021671D01*
X020848Y021671D02*
X020848Y021624D01*
X020661Y021624D01*
X020661Y021671D02*
X020708Y021717D01*
X020802Y021717D01*
X020848Y021671D01*
X020802Y021531D02*
X020708Y021531D01*
X020661Y021577D01*
X020661Y021671D01*
X020572Y021531D02*
X020385Y021531D01*
X020385Y021811D01*
X020661Y021981D02*
X020661Y022167D01*
X020938Y022261D02*
X020938Y022308D01*
X019971Y021811D02*
X019971Y021531D01*
X019925Y021531D02*
X020018Y021531D01*
X019971Y021811D02*
X019925Y021811D01*
X019280Y021981D02*
X019280Y022261D01*
X018730Y021717D02*
X018590Y021717D01*
X018544Y021671D01*
X018544Y021577D01*
X018590Y021531D01*
X018730Y021531D01*
X018730Y021484D02*
X018730Y021717D01*
X018730Y021484D02*
X018684Y021437D01*
X018637Y021437D01*
X018682Y021267D02*
X018776Y021267D01*
X018822Y021221D01*
X018822Y021081D01*
X018682Y021081D01*
X018636Y021127D01*
X018682Y021174D01*
X018822Y021174D01*
X018912Y021267D02*
X019052Y021267D01*
X019099Y021221D01*
X019099Y021081D01*
X018912Y021081D02*
X018912Y021267D01*
X018545Y021267D02*
X018452Y021267D01*
X018498Y021314D02*
X018498Y021127D01*
X018545Y021081D01*
X018361Y021081D02*
X018267Y021081D01*
X018314Y021081D02*
X018314Y021361D01*
X018267Y021361D01*
X018131Y021267D02*
X018038Y021267D01*
X017991Y021221D01*
X017991Y021127D01*
X018038Y021081D01*
X018131Y021081D01*
X018178Y021127D01*
X018178Y021221D01*
X018131Y021267D01*
X017902Y021314D02*
X017715Y021127D01*
X017715Y021081D01*
X017902Y021081D01*
X017902Y021314D02*
X017902Y021361D01*
X017715Y021361D01*
X017715Y021531D02*
X017855Y021531D01*
X017902Y021577D01*
X017902Y021764D01*
X017855Y021811D01*
X017715Y021811D01*
X017715Y021531D01*
X017991Y021577D02*
X018038Y021531D01*
X018131Y021531D01*
X018178Y021577D01*
X018178Y021671D01*
X018131Y021717D01*
X018038Y021717D01*
X017991Y021671D01*
X017991Y021577D01*
X018267Y021531D02*
X018267Y021717D01*
X018407Y021717D01*
X018454Y021671D01*
X018454Y021531D01*
X018452Y021981D02*
X018638Y022167D01*
X018452Y022167D02*
X018638Y021981D01*
X018362Y022074D02*
X018175Y022074D01*
X018175Y022121D02*
X018222Y022167D01*
X018315Y022167D01*
X018362Y022121D01*
X018362Y022074D01*
X018315Y021981D02*
X018222Y021981D01*
X018175Y022027D01*
X018175Y022121D01*
X018085Y021981D02*
X017991Y021981D01*
X018038Y021981D02*
X018038Y022261D01*
X017991Y022261D01*
X017902Y022167D02*
X017902Y021981D01*
X017902Y022121D02*
X017715Y022121D01*
X017715Y022167D02*
X017808Y022261D01*
X017902Y022167D01*
X017715Y022167D02*
X017715Y021981D01*
X017130Y021405D02*
X016976Y021405D01*
X016976Y021289D01*
X017053Y021328D01*
X017091Y021328D01*
X017130Y021289D01*
X017130Y021213D01*
X017091Y021174D01*
X017015Y021174D01*
X016976Y021213D01*
X016899Y021213D02*
X016861Y021174D01*
X016784Y021174D01*
X016746Y021213D01*
X016746Y021366D01*
X016784Y021405D01*
X016861Y021405D01*
X016899Y021366D01*
X016752Y020667D02*
X016637Y020552D01*
X016791Y020552D01*
X016752Y020437D02*
X016752Y020667D01*
X016561Y020667D02*
X016561Y020628D01*
X016407Y020475D01*
X016407Y020437D01*
X016330Y020475D02*
X016292Y020437D01*
X016215Y020437D01*
X016177Y020475D01*
X016177Y020628D01*
X016215Y020667D01*
X016292Y020667D01*
X016330Y020628D01*
X016407Y020667D02*
X016561Y020667D01*
X016562Y022090D02*
X016639Y022167D01*
X016639Y022320D01*
X016485Y022320D02*
X016485Y022167D01*
X016562Y022090D01*
X016409Y022128D02*
X016370Y022090D01*
X016294Y022090D01*
X016255Y022128D01*
X016255Y022205D02*
X016332Y022243D01*
X016370Y022243D01*
X016409Y022205D01*
X016409Y022128D01*
X016255Y022205D02*
X016255Y022320D01*
X016409Y022320D01*
X016473Y023180D02*
X016473Y023410D01*
X016588Y023410D01*
X016626Y023372D01*
X016626Y023295D01*
X016588Y023257D01*
X016473Y023257D01*
X016550Y023257D02*
X016626Y023180D01*
X016703Y023218D02*
X016741Y023180D01*
X016818Y023180D01*
X016856Y023218D01*
X016856Y023257D01*
X016818Y023295D01*
X016780Y023295D01*
X016818Y023295D02*
X016856Y023334D01*
X016856Y023372D01*
X016818Y023410D01*
X016741Y023410D01*
X016703Y023372D01*
X015861Y023323D02*
X015861Y023285D01*
X015823Y023246D01*
X015746Y023246D01*
X015708Y023285D01*
X015708Y023323D01*
X015746Y023362D01*
X015823Y023362D01*
X015861Y023323D01*
X015823Y023246D02*
X015861Y023208D01*
X015861Y023170D01*
X015823Y023131D01*
X015746Y023131D01*
X015708Y023170D01*
X015708Y023208D01*
X015746Y023246D01*
X015631Y023208D02*
X015631Y023170D01*
X015592Y023131D01*
X015516Y023131D01*
X015477Y023170D01*
X015401Y023170D02*
X015401Y023323D01*
X015362Y023362D01*
X015247Y023362D01*
X015247Y023131D01*
X015362Y023131D01*
X015401Y023170D01*
X015554Y023246D02*
X015592Y023246D01*
X015631Y023208D01*
X015592Y023246D02*
X015631Y023285D01*
X015631Y023323D01*
X015592Y023362D01*
X015516Y023362D01*
X015477Y023323D01*
X015480Y022542D02*
X015480Y022503D01*
X015327Y022350D01*
X015327Y022312D01*
X015250Y022350D02*
X015212Y022312D01*
X015135Y022312D01*
X015097Y022350D01*
X015020Y022350D02*
X015020Y022503D01*
X014981Y022542D01*
X014866Y022542D01*
X014866Y022312D01*
X014981Y022312D01*
X015020Y022350D01*
X015173Y022427D02*
X015212Y022427D01*
X015250Y022388D01*
X015250Y022350D01*
X015212Y022427D02*
X015250Y022465D01*
X015250Y022503D01*
X015212Y022542D01*
X015135Y022542D01*
X015097Y022503D01*
X015327Y022542D02*
X015480Y022542D01*
X013263Y021100D02*
X013110Y021100D01*
X013186Y021100D02*
X013186Y021331D01*
X013110Y021254D01*
X013033Y021331D02*
X012879Y021331D01*
X012879Y021100D01*
X012879Y021215D02*
X012956Y021215D01*
X014287Y020163D02*
X014287Y020009D01*
X014326Y019971D01*
X014402Y019971D01*
X014441Y020009D01*
X014517Y019971D02*
X014671Y019971D01*
X014594Y019971D02*
X014594Y020201D01*
X014517Y020124D01*
X014441Y020163D02*
X014402Y020201D01*
X014326Y020201D01*
X014287Y020163D01*
X014526Y019731D02*
X014488Y019693D01*
X014488Y019540D01*
X014526Y019501D01*
X014603Y019501D01*
X014642Y019540D01*
X014718Y019501D02*
X014872Y019655D01*
X014872Y019693D01*
X014833Y019731D01*
X014757Y019731D01*
X014718Y019693D01*
X014642Y019693D02*
X014603Y019731D01*
X014526Y019731D01*
X014718Y019501D02*
X014872Y019501D01*
X015856Y018695D02*
X015856Y018542D01*
X015895Y018503D01*
X015971Y018503D01*
X016010Y018542D01*
X016087Y018542D02*
X016125Y018503D01*
X016202Y018503D01*
X016240Y018542D01*
X016240Y018580D01*
X016202Y018618D01*
X016087Y018618D01*
X016087Y018542D01*
X016087Y018618D02*
X016163Y018695D01*
X016240Y018733D01*
X016010Y018695D02*
X015971Y018733D01*
X015895Y018733D01*
X015856Y018695D01*
X016353Y016886D02*
X016315Y016847D01*
X016315Y016694D01*
X016353Y016656D01*
X016430Y016656D01*
X016468Y016694D01*
X016545Y016694D02*
X016545Y016656D01*
X016545Y016694D02*
X016699Y016847D01*
X016699Y016886D01*
X016545Y016886D01*
X016468Y016847D02*
X016430Y016886D01*
X016353Y016886D01*
X016775Y016771D02*
X016890Y016771D01*
X016929Y016732D01*
X016929Y016694D01*
X016890Y016656D01*
X016814Y016656D01*
X016775Y016694D01*
X016775Y016771D01*
X016852Y016847D01*
X016929Y016886D01*
X017677Y016363D02*
X017677Y016132D01*
X017677Y016209D02*
X017792Y016209D01*
X017830Y016248D01*
X017830Y016324D01*
X017792Y016363D01*
X017677Y016363D01*
X017754Y016209D02*
X017830Y016132D01*
X017907Y016132D02*
X017907Y016171D01*
X018061Y016324D01*
X018061Y016363D01*
X017907Y016363D01*
X013082Y022899D02*
X012929Y022899D01*
X013006Y022899D02*
X013006Y023129D01*
X012929Y023052D01*
X012852Y023090D02*
X012852Y022937D01*
X012814Y022899D01*
X012699Y022899D01*
X012699Y023129D01*
X012814Y023129D01*
X012852Y023090D01*
D11*
X013305Y020970D02*
X011505Y020970D01*
X011505Y020420D01*
X013305Y020420D01*
X013305Y020970D01*
X016155Y022020D02*
X016705Y022020D01*
X016705Y022420D01*
X016155Y022420D01*
X016155Y022020D01*
X017005Y021470D02*
X017005Y023820D01*
X026105Y023820D01*
X026105Y020820D01*
X025005Y020820D01*
X023555Y020820D02*
X020455Y020820D01*
X019905Y020820D02*
X017705Y020820D01*
X017155Y020820D02*
X017005Y020820D01*
X017005Y021070D01*
X017322Y023096D02*
X017505Y023096D01*
X017597Y023187D01*
X017782Y023096D02*
X017782Y023463D01*
X017966Y023646D01*
X018149Y023463D01*
X018149Y023096D01*
X018335Y023096D02*
X018335Y023646D01*
X018702Y023096D01*
X018702Y023646D01*
X018149Y023371D02*
X017782Y023371D01*
X017597Y023554D02*
X017505Y023646D01*
X017322Y023646D01*
X017230Y023554D01*
X017230Y023187D01*
X017322Y023096D01*
X019440Y023096D02*
X019440Y023646D01*
X019715Y023646D01*
X019807Y023554D01*
X019807Y023371D01*
X019715Y023279D01*
X019440Y023279D01*
X019623Y023279D02*
X019807Y023096D01*
X019992Y023187D02*
X019992Y023371D01*
X020084Y023463D01*
X020267Y023463D01*
X020359Y023371D01*
X020359Y023279D01*
X019992Y023279D01*
X019992Y023187D02*
X020084Y023096D01*
X020267Y023096D01*
X020545Y023096D02*
X020545Y023463D01*
X020636Y023463D01*
X020728Y023371D01*
X020820Y023463D01*
X020912Y023371D01*
X020912Y023096D01*
X020728Y023096D02*
X020728Y023371D01*
X021097Y023371D02*
X021097Y023187D01*
X021189Y023096D01*
X021372Y023096D01*
X021464Y023187D01*
X021464Y023371D01*
X021372Y023463D01*
X021189Y023463D01*
X021097Y023371D01*
X021650Y023463D02*
X021833Y023463D01*
X021741Y023554D02*
X021741Y023187D01*
X021833Y023096D01*
X022018Y023187D02*
X022018Y023371D01*
X022110Y023463D01*
X022293Y023463D01*
X022385Y023371D01*
X022385Y023279D01*
X022018Y023279D01*
X022018Y023187D02*
X022110Y023096D01*
X022293Y023096D01*
X023123Y023096D02*
X023306Y023096D01*
X023215Y023096D02*
X023215Y023646D01*
X023306Y023646D02*
X023123Y023646D01*
X023491Y023096D02*
X023858Y023646D01*
X024044Y023554D02*
X024044Y023187D01*
X024135Y023096D01*
X024319Y023096D01*
X024411Y023187D01*
X024411Y023554D01*
X024319Y023646D01*
X024135Y023646D01*
X024044Y023554D01*
X021905Y021320D02*
X021055Y021320D01*
X021055Y020920D01*
X021905Y020920D01*
X021905Y021320D01*
X021355Y016970D02*
X020555Y016970D01*
X020555Y016570D01*
X021355Y016570D01*
X021355Y016970D01*
X016855Y014070D02*
X016855Y013420D01*
X015505Y013420D01*
X015505Y014070D01*
X016855Y014070D01*
X016755Y012220D02*
X014055Y012220D01*
X014055Y011570D01*
X016755Y011570D01*
X016755Y012220D01*
X012255Y011270D02*
X012255Y010620D01*
X009705Y010620D01*
X009705Y011270D01*
X012255Y011270D01*
X009764Y012133D02*
X009764Y012528D01*
X008976Y012528D01*
X008976Y012133D01*
X009764Y012133D01*
X009316Y011898D02*
X009316Y010599D01*
X008647Y010599D01*
X008647Y011898D01*
X009316Y011898D01*
X008982Y012758D02*
X009770Y012758D01*
X009770Y013152D01*
X008982Y013152D01*
X008982Y012758D01*
X008342Y013694D02*
X005979Y013694D01*
X005979Y011528D01*
X006176Y011331D01*
X008342Y011331D01*
X008342Y013694D01*
X008517Y014013D02*
X008122Y014013D01*
X008122Y014801D01*
X008517Y014801D01*
X008517Y014013D01*
X008870Y014016D02*
X008870Y014804D01*
X009264Y014804D01*
X009264Y014016D01*
X008870Y014016D01*
X007550Y014011D02*
X007550Y014799D01*
X007155Y014799D01*
X007155Y014011D01*
X007550Y014011D01*
X007032Y014008D02*
X007032Y014797D01*
X006638Y014797D01*
X006638Y014008D01*
X007032Y014008D01*
X006478Y014005D02*
X006478Y014793D01*
X006084Y014793D01*
X006084Y014005D01*
X006478Y014005D01*
X005961Y014010D02*
X005961Y014798D01*
X005566Y014798D01*
X005566Y014010D01*
X005961Y014010D01*
X005417Y013651D02*
X004629Y013651D01*
X004629Y013257D01*
X005417Y013257D01*
X005417Y013651D01*
X005417Y013140D02*
X004629Y013140D01*
X004629Y012746D01*
X005417Y012746D01*
X005417Y013140D01*
X005420Y012633D02*
X004632Y012633D01*
X004632Y012239D01*
X005420Y012239D01*
X005420Y012633D01*
X005417Y012120D02*
X004629Y012120D01*
X004629Y011726D01*
X005417Y011726D01*
X005417Y012120D01*
X005418Y011604D02*
X004630Y011604D01*
X004630Y011209D01*
X005418Y011209D01*
X005418Y011604D01*
X005979Y011528D02*
X005979Y011331D01*
X006176Y011331D01*
X006275Y011233D02*
X006176Y011134D01*
X006373Y011134D01*
X006275Y011233D01*
X006308Y011199D02*
X006241Y011199D01*
X006192Y011150D02*
X006357Y011150D01*
X006505Y010732D02*
X006110Y010732D01*
X006110Y009944D01*
X006505Y009944D01*
X006505Y010732D01*
X006623Y010733D02*
X006623Y009945D01*
X007017Y009945D01*
X007017Y010733D01*
X006623Y010733D01*
X007137Y010611D02*
X007767Y010611D01*
X007767Y010562D01*
X007767Y010512D01*
X007137Y010512D01*
X007137Y010483D01*
X007767Y010483D01*
X007767Y010512D01*
X007767Y010483D02*
X007767Y009213D01*
X007137Y009213D01*
X007137Y010483D01*
X007137Y010512D02*
X007137Y010562D01*
X007767Y010562D01*
X007907Y010199D02*
X007907Y009411D01*
X008302Y009411D01*
X008302Y010199D01*
X007907Y010199D01*
X007137Y010562D02*
X007137Y010611D01*
X005992Y010730D02*
X005992Y009942D01*
X005597Y009942D01*
X005597Y010730D01*
X005992Y010730D01*
X005418Y010732D02*
X005024Y010732D01*
X005024Y009944D01*
X005418Y009944D01*
X005418Y010732D01*
X003849Y011113D02*
X003849Y010325D01*
X003455Y010325D01*
X003455Y011113D01*
X003849Y011113D01*
X003265Y011699D02*
X002635Y011699D01*
X002635Y011728D01*
X003265Y011728D01*
X003265Y011778D01*
X003265Y011827D01*
X002635Y011827D01*
X002635Y011778D01*
X003265Y011778D01*
X003265Y011728D02*
X003265Y011699D01*
X003265Y010429D01*
X002635Y010429D01*
X002635Y011699D01*
X002635Y011728D02*
X002635Y011778D01*
X002625Y012542D02*
X003254Y012542D01*
X003254Y012592D01*
X002625Y012592D01*
X002625Y012641D01*
X003254Y012641D01*
X003254Y012671D01*
X002625Y012671D01*
X002625Y012641D01*
X002625Y012671D02*
X002625Y013940D01*
X003254Y013940D01*
X003254Y012671D01*
X003254Y012641D02*
X003254Y012592D01*
X002625Y012592D02*
X002625Y012542D01*
X003536Y014340D02*
X004324Y014340D01*
X004324Y014734D01*
X003536Y014734D01*
X003536Y014340D01*
X003794Y015052D02*
X003872Y015052D01*
X004384Y015643D02*
X004384Y015800D01*
X003872Y016391D02*
X003794Y016391D01*
X004131Y016688D02*
X004131Y017082D01*
X003343Y017082D01*
X003343Y016688D01*
X004131Y016688D01*
X003282Y015800D02*
X003282Y015643D01*
X008333Y015618D02*
X009122Y015618D01*
X009122Y016012D01*
X008333Y016012D01*
X008333Y015618D01*
X008797Y017767D02*
X009585Y017767D01*
X009585Y018161D01*
X008797Y018161D01*
X008797Y017767D01*
X008614Y018368D02*
X009884Y018368D01*
X009884Y018998D01*
X009913Y018998D01*
X009913Y018368D01*
X009962Y018368D01*
X009962Y018998D01*
X009913Y018998D01*
X009884Y018998D02*
X008614Y018998D01*
X008614Y018368D01*
X009884Y018368D02*
X009913Y018368D01*
X009962Y018368D02*
X010012Y018368D01*
X010012Y018998D01*
X009962Y018998D01*
X006655Y022370D02*
X006655Y023020D01*
X005505Y023020D01*
X005505Y022370D01*
X006655Y022370D01*
X008482Y010203D02*
X008482Y009415D01*
X008876Y009415D01*
X008876Y010203D01*
X008482Y010203D01*
X009305Y003020D02*
X010705Y003020D01*
X010705Y002370D01*
X009305Y002370D01*
X009305Y003020D01*
D12*
X009474Y002855D02*
X009420Y002802D01*
X009420Y002588D01*
X009474Y002535D01*
X009580Y002535D01*
X009634Y002588D01*
X009742Y002535D02*
X009742Y002748D01*
X009849Y002855D01*
X009956Y002748D01*
X009956Y002535D01*
X010065Y002535D02*
X010065Y002855D01*
X010278Y002535D01*
X010278Y002855D01*
X010387Y002802D02*
X010440Y002855D01*
X010547Y002855D01*
X010600Y002802D01*
X010600Y002748D01*
X010387Y002535D01*
X010600Y002535D01*
X009956Y002695D02*
X009742Y002695D01*
X009634Y002802D02*
X009580Y002855D01*
X009474Y002855D01*
X013783Y003681D02*
X014097Y003995D01*
X013940Y003995D02*
X013940Y003681D01*
X014097Y003681D02*
X013783Y003995D01*
X013783Y003838D02*
X014097Y003838D01*
X015920Y007335D02*
X015920Y007655D01*
X016080Y007655D01*
X016134Y007602D01*
X016134Y007495D01*
X016080Y007442D01*
X015920Y007442D01*
X016027Y007442D02*
X016134Y007335D01*
X016242Y007335D02*
X016242Y007655D01*
X016349Y007548D01*
X016456Y007655D01*
X016456Y007335D01*
X016565Y007495D02*
X016778Y007495D01*
X016887Y007602D02*
X016940Y007655D01*
X017047Y007655D01*
X017100Y007602D01*
X017100Y007548D01*
X016887Y007335D01*
X017100Y007335D01*
X016725Y007335D02*
X016725Y007655D01*
X016565Y007495D01*
X016526Y011735D02*
X016472Y011788D01*
X016472Y011895D01*
X016526Y011948D01*
X016633Y011948D01*
X016686Y011895D01*
X016686Y011842D01*
X016472Y011842D01*
X016526Y011735D02*
X016633Y011735D01*
X016795Y011735D02*
X016795Y011948D01*
X016795Y011842D02*
X016901Y011948D01*
X016955Y011948D01*
X016364Y011735D02*
X016258Y011735D01*
X016311Y011735D02*
X016311Y012055D01*
X016258Y012055D01*
X016096Y012055D02*
X016096Y011735D01*
X016043Y011735D02*
X016149Y011735D01*
X015934Y011788D02*
X015934Y011895D01*
X015881Y011948D01*
X015774Y011948D01*
X015720Y011895D01*
X015720Y011788D01*
X015774Y011735D01*
X015881Y011735D01*
X015934Y011788D01*
X016043Y012055D02*
X016096Y012055D01*
X015612Y011948D02*
X015559Y011948D01*
X015452Y011842D01*
X015452Y011948D02*
X015452Y011735D01*
X015344Y011735D02*
X015290Y011788D01*
X015290Y012002D01*
X015237Y011948D02*
X015344Y011948D01*
X015128Y011895D02*
X015128Y011735D01*
X015128Y011895D02*
X015075Y011948D01*
X014915Y011948D01*
X014915Y011735D01*
X014806Y011788D02*
X014806Y011895D01*
X014753Y011948D01*
X014646Y011948D01*
X014592Y011895D01*
X014592Y011788D01*
X014646Y011735D01*
X014753Y011735D01*
X014806Y011788D01*
X014484Y011788D02*
X014430Y011735D01*
X014324Y011735D01*
X014270Y011788D01*
X014270Y012002D01*
X014324Y012055D01*
X014430Y012055D01*
X014484Y012002D01*
X015674Y013585D02*
X015780Y013585D01*
X015834Y013638D01*
X015942Y013585D02*
X015942Y013798D01*
X016049Y013905D01*
X016156Y013798D01*
X016156Y013585D01*
X016265Y013585D02*
X016265Y013905D01*
X016478Y013585D01*
X016478Y013905D01*
X016587Y013798D02*
X016694Y013905D01*
X016694Y013585D01*
X016800Y013585D02*
X016587Y013585D01*
X016156Y013745D02*
X015942Y013745D01*
X015834Y013852D02*
X015780Y013905D01*
X015674Y013905D01*
X015620Y013852D01*
X015620Y013638D01*
X015674Y013585D01*
X012021Y010998D02*
X011968Y010998D01*
X011861Y010892D01*
X011861Y010998D02*
X011861Y010785D01*
X011752Y010838D02*
X011752Y010945D01*
X011699Y010998D01*
X011592Y010998D01*
X011539Y010945D01*
X011539Y010838D01*
X011592Y010785D01*
X011699Y010785D01*
X011752Y010838D01*
X011431Y010785D02*
X011377Y010838D01*
X011377Y011052D01*
X011324Y010998D02*
X011431Y010998D01*
X011215Y010945D02*
X011215Y010785D01*
X011055Y010785D01*
X011002Y010838D01*
X011055Y010892D01*
X011215Y010892D01*
X011215Y010945D02*
X011162Y010998D01*
X011055Y010998D01*
X010840Y011105D02*
X010840Y010785D01*
X010787Y010785D02*
X010894Y010785D01*
X010678Y010785D02*
X010678Y010998D01*
X010787Y011105D02*
X010840Y011105D01*
X010678Y010785D02*
X010518Y010785D01*
X010465Y010838D01*
X010465Y010998D01*
X010356Y010945D02*
X010303Y010998D01*
X010249Y010945D01*
X010249Y010785D01*
X010142Y010785D02*
X010142Y010998D01*
X010196Y010998D01*
X010249Y010945D01*
X010356Y010945D02*
X010356Y010785D01*
X010034Y010785D02*
X009820Y010785D01*
X009820Y011105D01*
X010034Y011105D01*
X009927Y010945D02*
X009820Y010945D01*
X008131Y016685D02*
X007985Y016685D01*
X008058Y016685D02*
X008058Y016906D01*
X007985Y016832D01*
X007901Y016869D02*
X007901Y016722D01*
X007865Y016685D01*
X007791Y016685D01*
X007754Y016722D01*
X007754Y016869D01*
X007791Y016906D01*
X007865Y016906D01*
X007901Y016869D01*
X007828Y016759D02*
X007901Y016685D01*
X011670Y020535D02*
X011670Y020855D01*
X011830Y020855D01*
X011884Y020802D01*
X011884Y020695D01*
X011830Y020642D01*
X011670Y020642D01*
X011992Y020695D02*
X011992Y020588D01*
X012046Y020535D01*
X012153Y020535D01*
X012206Y020588D01*
X012206Y020695D01*
X012153Y020748D01*
X012046Y020748D01*
X011992Y020695D01*
X012315Y020748D02*
X012315Y020588D01*
X012368Y020535D01*
X012421Y020588D01*
X012475Y020535D01*
X012528Y020588D01*
X012528Y020748D01*
X012637Y020695D02*
X012690Y020748D01*
X012797Y020748D01*
X012850Y020695D01*
X012850Y020642D01*
X012637Y020642D01*
X012637Y020695D02*
X012637Y020588D01*
X012690Y020535D01*
X012797Y020535D01*
X012959Y020535D02*
X012959Y020748D01*
X012959Y020642D02*
X013066Y020748D01*
X013119Y020748D01*
X017239Y020806D02*
X017552Y020806D01*
X017552Y020962D02*
X017239Y020649D01*
X017395Y020649D02*
X017395Y020962D01*
X017239Y020962D02*
X017552Y020649D01*
X017592Y022586D02*
X017806Y022906D01*
X017914Y022906D02*
X018128Y022586D01*
X018128Y022906D01*
X018237Y022799D02*
X018237Y022746D01*
X018290Y022746D01*
X018290Y022799D01*
X018237Y022799D01*
X018237Y022639D02*
X018237Y022586D01*
X018290Y022586D01*
X018290Y022639D01*
X018237Y022639D01*
X018720Y022692D02*
X018880Y022692D01*
X018934Y022746D01*
X018934Y022852D01*
X018880Y022906D01*
X018720Y022906D01*
X018720Y022586D01*
X019042Y022639D02*
X019096Y022586D01*
X019203Y022586D01*
X019256Y022639D01*
X019365Y022586D02*
X019525Y022586D01*
X019578Y022639D01*
X019578Y022692D01*
X019525Y022746D01*
X019365Y022746D01*
X019256Y022852D02*
X019203Y022906D01*
X019096Y022906D01*
X019042Y022852D01*
X019042Y022639D01*
X019365Y022586D02*
X019365Y022906D01*
X019525Y022906D01*
X019578Y022852D01*
X019578Y022799D01*
X019525Y022746D01*
X019687Y022746D02*
X019900Y022746D01*
X019900Y022799D02*
X019900Y022586D01*
X020009Y022746D02*
X020223Y022746D01*
X020331Y022852D02*
X020385Y022906D01*
X020492Y022906D01*
X020545Y022852D01*
X020331Y022639D01*
X020385Y022586D01*
X020492Y022586D01*
X020545Y022639D01*
X020545Y022852D01*
X020654Y022852D02*
X020654Y022639D01*
X020867Y022852D01*
X020867Y022639D01*
X020814Y022586D01*
X020707Y022586D01*
X020654Y022639D01*
X020654Y022852D02*
X020707Y022906D01*
X020814Y022906D01*
X020867Y022852D01*
X020976Y022799D02*
X021083Y022906D01*
X021083Y022586D01*
X020976Y022586D02*
X021190Y022586D01*
X021621Y022586D02*
X021621Y022906D01*
X021781Y022906D01*
X021834Y022852D01*
X021834Y022746D01*
X021781Y022692D01*
X021621Y022692D01*
X021727Y022692D02*
X021834Y022586D01*
X021943Y022639D02*
X021943Y022746D01*
X021996Y022799D01*
X022103Y022799D01*
X022156Y022746D01*
X022156Y022692D01*
X021943Y022692D01*
X021943Y022639D02*
X021996Y022586D01*
X022103Y022586D01*
X022265Y022799D02*
X022372Y022586D01*
X022479Y022799D01*
X022587Y022799D02*
X022694Y022906D01*
X022694Y022586D01*
X022587Y022586D02*
X022801Y022586D01*
X020331Y022639D02*
X020331Y022852D01*
X019900Y022799D02*
X019794Y022906D01*
X019687Y022799D01*
X019687Y022586D01*
X017914Y022586D02*
X017914Y022906D01*
X017483Y022852D02*
X017483Y022746D01*
X017430Y022692D01*
X017270Y022692D01*
X017270Y022586D02*
X017270Y022906D01*
X017430Y022906D01*
X017483Y022852D01*
X025356Y020609D02*
X025503Y020609D01*
X025429Y020609D02*
X025429Y020389D01*
X025586Y020389D02*
X025586Y020609D01*
X025696Y020609D01*
X025733Y020573D01*
X025733Y020499D01*
X025696Y020463D01*
X025586Y020463D01*
X025816Y020536D02*
X025890Y020609D01*
X025890Y020389D01*
X025963Y020389D02*
X025816Y020389D01*
X022677Y012420D02*
X022677Y012366D01*
X022783Y012260D01*
X022677Y012260D02*
X022890Y012260D01*
X022837Y012151D02*
X022730Y012151D01*
X022677Y012098D01*
X022677Y011991D01*
X022730Y011937D01*
X022837Y011937D01*
X022890Y011991D01*
X022890Y012098D01*
X022837Y012151D01*
X022890Y011829D02*
X022837Y011776D01*
X022623Y011776D01*
X022677Y011723D02*
X022677Y011829D01*
X022677Y011614D02*
X022677Y011454D01*
X022730Y011400D01*
X022837Y011400D01*
X022890Y011454D01*
X022890Y011614D01*
X022783Y011292D02*
X022783Y011078D01*
X022730Y011078D02*
X022677Y011131D01*
X022677Y011238D01*
X022730Y011292D01*
X022783Y011292D01*
X022890Y011238D02*
X022890Y011131D01*
X022837Y011078D01*
X022730Y011078D01*
X022730Y010969D02*
X022677Y010916D01*
X022677Y010756D01*
X022890Y010756D01*
X022890Y010647D02*
X022730Y010647D01*
X022677Y010594D01*
X022677Y010433D01*
X022890Y010433D01*
X022837Y010325D02*
X022730Y010325D01*
X022677Y010271D01*
X022677Y010165D01*
X022730Y010111D01*
X022837Y010111D01*
X022890Y010165D01*
X022890Y010271D01*
X022837Y010325D01*
X022837Y010002D02*
X022890Y009949D01*
X022890Y009842D01*
X022837Y009789D01*
X022623Y009789D01*
X022570Y009842D01*
X022570Y009949D01*
X022623Y010002D01*
X022677Y009359D02*
X022677Y009252D01*
X022623Y009305D02*
X022837Y009305D01*
X022890Y009359D01*
X022837Y009143D02*
X022783Y009090D01*
X022783Y008983D01*
X022730Y008929D01*
X022677Y008983D01*
X022677Y009143D01*
X022837Y009143D02*
X022890Y009090D01*
X022890Y008929D01*
X022783Y008821D02*
X022783Y008607D01*
X022730Y008607D02*
X022677Y008661D01*
X022677Y008767D01*
X022730Y008821D01*
X022783Y008821D01*
X022890Y008767D02*
X022890Y008661D01*
X022837Y008607D01*
X022730Y008607D01*
X022570Y008498D02*
X022570Y008285D01*
X022570Y008392D02*
X022890Y008392D01*
X022890Y010969D02*
X022730Y010969D01*
X020145Y002595D02*
X020145Y002375D01*
X020072Y002375D02*
X020219Y002375D01*
X020072Y002522D02*
X020145Y002595D01*
X019989Y002375D02*
X019842Y002375D01*
X019842Y002595D01*
X019758Y002522D02*
X019758Y002375D01*
X019758Y002485D02*
X019612Y002485D01*
X019612Y002522D02*
X019685Y002595D01*
X019758Y002522D01*
X019612Y002522D02*
X019612Y002375D01*
X019455Y002375D02*
X019455Y002595D01*
X019528Y002595D02*
X019381Y002595D01*
X019298Y002595D02*
X019151Y002375D01*
X019298Y002375D02*
X019151Y002595D01*
X002942Y009050D02*
X002905Y009013D01*
X002832Y009013D01*
X002795Y009050D01*
X002712Y009050D02*
X002675Y009013D01*
X002602Y009013D01*
X002565Y009050D01*
X002565Y009196D01*
X002602Y009233D01*
X002675Y009233D01*
X002712Y009196D01*
X002712Y009050D01*
X002712Y009013D02*
X002638Y009086D01*
X002795Y009196D02*
X002832Y009233D01*
X002905Y009233D01*
X002942Y009196D01*
X002942Y009160D01*
X002905Y009123D01*
X002942Y009086D01*
X002942Y009050D01*
X002905Y009123D02*
X002869Y009123D01*
X005724Y022535D02*
X005830Y022535D01*
X005884Y022588D01*
X005884Y022855D01*
X005992Y022802D02*
X005992Y022748D01*
X006046Y022695D01*
X006153Y022695D01*
X006206Y022642D01*
X006206Y022588D01*
X006153Y022535D01*
X006046Y022535D01*
X005992Y022588D01*
X005992Y022802D02*
X006046Y022855D01*
X006153Y022855D01*
X006206Y022802D01*
X006315Y022855D02*
X006475Y022855D01*
X006528Y022802D01*
X006528Y022748D01*
X006475Y022695D01*
X006315Y022695D01*
X006475Y022695D02*
X006528Y022642D01*
X006528Y022588D01*
X006475Y022535D01*
X006315Y022535D01*
X006315Y022855D01*
X005670Y022855D02*
X005670Y022588D01*
X005724Y022535D01*
D13*
X017941Y015545D02*
X020490Y015545D01*
X019721Y015524D02*
X019719Y015480D01*
X019713Y015437D01*
X019704Y015395D01*
X019691Y015353D01*
X019674Y015313D01*
X019654Y015274D01*
X019631Y015237D01*
X019604Y015203D01*
X019575Y015170D01*
X019542Y015141D01*
X019508Y015114D01*
X019471Y015091D01*
X019432Y015071D01*
X019392Y015054D01*
X019350Y015041D01*
X019308Y015032D01*
X019265Y015026D01*
X019221Y015024D01*
X019177Y015026D01*
X019134Y015032D01*
X019092Y015041D01*
X019050Y015054D01*
X019010Y015071D01*
X018971Y015091D01*
X018934Y015114D01*
X018900Y015141D01*
X018867Y015170D01*
X018838Y015203D01*
X018811Y015237D01*
X018788Y015274D01*
X018768Y015313D01*
X018751Y015353D01*
X018738Y015395D01*
X018729Y015437D01*
X018723Y015480D01*
X018721Y015524D01*
X017941Y011864D02*
X020490Y011864D01*
X011280Y007677D02*
X008731Y007677D01*
X009500Y004017D02*
X009502Y004061D01*
X009508Y004104D01*
X009517Y004146D01*
X009530Y004188D01*
X009547Y004228D01*
X009567Y004267D01*
X009590Y004304D01*
X009617Y004338D01*
X009646Y004371D01*
X009679Y004400D01*
X009713Y004427D01*
X009750Y004450D01*
X009789Y004470D01*
X009829Y004487D01*
X009871Y004500D01*
X009913Y004509D01*
X009956Y004515D01*
X010000Y004517D01*
X010044Y004515D01*
X010087Y004509D01*
X010129Y004500D01*
X010171Y004487D01*
X010211Y004470D01*
X010250Y004450D01*
X010287Y004427D01*
X010321Y004400D01*
X010354Y004371D01*
X010383Y004338D01*
X010410Y004304D01*
X010433Y004267D01*
X010453Y004228D01*
X010470Y004188D01*
X010483Y004146D01*
X010492Y004104D01*
X010498Y004061D01*
X010500Y004017D01*
X011280Y003996D02*
X008731Y003996D01*
D14*
X023068Y006882D02*
X023752Y006882D01*
X023752Y019481D01*
X023068Y019481D01*
X023068Y006882D01*
X023303Y007512D02*
X023149Y007666D01*
X023610Y007666D01*
X023610Y007819D02*
X023610Y007512D01*
X024264Y008144D02*
X024267Y008142D01*
X023973Y007670D02*
X023975Y007717D01*
X023981Y007764D01*
X023990Y007810D01*
X024004Y007855D01*
X024021Y007899D01*
X024042Y007942D01*
X024066Y007982D01*
X024093Y008021D01*
X024124Y008057D01*
X024157Y008090D01*
X024193Y008121D01*
X024232Y008148D01*
X024272Y008172D01*
X024315Y008193D01*
X024359Y008210D01*
X024404Y008224D01*
X024450Y008233D01*
X024497Y008239D01*
X024544Y008241D01*
X024591Y008239D01*
X024638Y008233D01*
X024684Y008224D01*
X024729Y008210D01*
X024773Y008193D01*
X024816Y008172D01*
X024856Y008148D01*
X024895Y008121D01*
X024931Y008090D01*
X024964Y008057D01*
X024995Y008021D01*
X025022Y007982D01*
X025046Y007942D01*
X025067Y007899D01*
X025084Y007855D01*
X025098Y007810D01*
X025107Y007764D01*
X025113Y007717D01*
X025115Y007670D01*
X025113Y007623D01*
X025107Y007576D01*
X025098Y007530D01*
X025084Y007485D01*
X025067Y007441D01*
X025046Y007398D01*
X025022Y007358D01*
X024995Y007319D01*
X024964Y007283D01*
X024931Y007250D01*
X024895Y007219D01*
X024856Y007192D01*
X024816Y007168D01*
X024773Y007147D01*
X024729Y007130D01*
X024684Y007116D01*
X024638Y007107D01*
X024591Y007101D01*
X024544Y007099D01*
X024497Y007101D01*
X024450Y007107D01*
X024404Y007116D01*
X024359Y007130D01*
X024315Y007147D01*
X024272Y007168D01*
X024232Y007192D01*
X024193Y007219D01*
X024157Y007250D01*
X024124Y007283D01*
X024093Y007319D01*
X024066Y007358D01*
X024042Y007398D01*
X024021Y007441D01*
X024004Y007485D01*
X023990Y007530D01*
X023981Y007576D01*
X023975Y007623D01*
X023973Y007670D01*
X023939Y006882D02*
X023939Y019481D01*
X023752Y019481D01*
X023939Y019481D02*
X025141Y019481D01*
X025141Y006882D01*
X025331Y006882D01*
X025651Y006882D01*
X025824Y006882D01*
X025942Y006882D01*
X025942Y019481D01*
X025824Y019481D01*
X025651Y019481D01*
X025651Y006882D01*
X025824Y006882D02*
X025824Y019481D01*
X025651Y019481D02*
X025331Y019481D01*
X025141Y019481D01*
X025331Y019481D02*
X025331Y006882D01*
X025380Y006992D02*
X025380Y007242D01*
X025630Y007117D01*
X025380Y006992D01*
X025380Y007018D02*
X025432Y007018D01*
X025380Y007057D02*
X025509Y007057D01*
X025586Y007095D02*
X025380Y007095D01*
X025380Y007134D02*
X025597Y007134D01*
X025520Y007172D02*
X025380Y007172D01*
X025380Y007211D02*
X025443Y007211D01*
X025141Y006882D02*
X023939Y006882D01*
X023752Y006882D01*
X023610Y008887D02*
X023303Y009194D01*
X023226Y009194D01*
X023149Y009118D01*
X023149Y008964D01*
X023226Y008887D01*
X023610Y008887D02*
X023610Y009194D01*
X024264Y009522D02*
X024267Y009520D01*
X023973Y009048D02*
X023975Y009095D01*
X023981Y009142D01*
X023990Y009188D01*
X024004Y009233D01*
X024021Y009277D01*
X024042Y009320D01*
X024066Y009360D01*
X024093Y009399D01*
X024124Y009435D01*
X024157Y009468D01*
X024193Y009499D01*
X024232Y009526D01*
X024272Y009550D01*
X024315Y009571D01*
X024359Y009588D01*
X024404Y009602D01*
X024450Y009611D01*
X024497Y009617D01*
X024544Y009619D01*
X024591Y009617D01*
X024638Y009611D01*
X024684Y009602D01*
X024729Y009588D01*
X024773Y009571D01*
X024816Y009550D01*
X024856Y009526D01*
X024895Y009499D01*
X024931Y009468D01*
X024964Y009435D01*
X024995Y009399D01*
X025022Y009360D01*
X025046Y009320D01*
X025067Y009277D01*
X025084Y009233D01*
X025098Y009188D01*
X025107Y009142D01*
X025113Y009095D01*
X025115Y009048D01*
X025113Y009001D01*
X025107Y008954D01*
X025098Y008908D01*
X025084Y008863D01*
X025067Y008819D01*
X025046Y008776D01*
X025022Y008736D01*
X024995Y008697D01*
X024964Y008661D01*
X024931Y008628D01*
X024895Y008597D01*
X024856Y008570D01*
X024816Y008546D01*
X024773Y008525D01*
X024729Y008508D01*
X024684Y008494D01*
X024638Y008485D01*
X024591Y008479D01*
X024544Y008477D01*
X024497Y008479D01*
X024450Y008485D01*
X024404Y008494D01*
X024359Y008508D01*
X024315Y008525D01*
X024272Y008546D01*
X024232Y008570D01*
X024193Y008597D01*
X024157Y008628D01*
X024124Y008661D01*
X024093Y008697D01*
X024066Y008736D01*
X024042Y008776D01*
X024021Y008819D01*
X024004Y008863D01*
X023990Y008908D01*
X023981Y008954D01*
X023975Y009001D01*
X023973Y009048D01*
X023533Y010262D02*
X023610Y010339D01*
X023610Y010493D01*
X023533Y010569D01*
X023456Y010569D01*
X023380Y010493D01*
X023380Y010416D01*
X023380Y010493D02*
X023303Y010569D01*
X023226Y010569D01*
X023149Y010493D01*
X023149Y010339D01*
X023226Y010262D01*
X024264Y010900D02*
X024267Y010898D01*
X023973Y010425D02*
X023975Y010472D01*
X023981Y010519D01*
X023990Y010565D01*
X024004Y010610D01*
X024021Y010654D01*
X024042Y010697D01*
X024066Y010737D01*
X024093Y010776D01*
X024124Y010812D01*
X024157Y010845D01*
X024193Y010876D01*
X024232Y010903D01*
X024272Y010927D01*
X024315Y010948D01*
X024359Y010965D01*
X024404Y010979D01*
X024450Y010988D01*
X024497Y010994D01*
X024544Y010996D01*
X024591Y010994D01*
X024638Y010988D01*
X024684Y010979D01*
X024729Y010965D01*
X024773Y010948D01*
X024816Y010927D01*
X024856Y010903D01*
X024895Y010876D01*
X024931Y010845D01*
X024964Y010812D01*
X024995Y010776D01*
X025022Y010737D01*
X025046Y010697D01*
X025067Y010654D01*
X025084Y010610D01*
X025098Y010565D01*
X025107Y010519D01*
X025113Y010472D01*
X025115Y010425D01*
X025113Y010378D01*
X025107Y010331D01*
X025098Y010285D01*
X025084Y010240D01*
X025067Y010196D01*
X025046Y010153D01*
X025022Y010113D01*
X024995Y010074D01*
X024964Y010038D01*
X024931Y010005D01*
X024895Y009974D01*
X024856Y009947D01*
X024816Y009923D01*
X024773Y009902D01*
X024729Y009885D01*
X024684Y009871D01*
X024638Y009862D01*
X024591Y009856D01*
X024544Y009854D01*
X024497Y009856D01*
X024450Y009862D01*
X024404Y009871D01*
X024359Y009885D01*
X024315Y009902D01*
X024272Y009923D01*
X024232Y009947D01*
X024193Y009974D01*
X024157Y010005D01*
X024124Y010038D01*
X024093Y010074D01*
X024066Y010113D01*
X024042Y010153D01*
X024021Y010196D01*
X024004Y010240D01*
X023990Y010285D01*
X023981Y010331D01*
X023975Y010378D01*
X023973Y010425D01*
X023380Y011637D02*
X023380Y011944D01*
X023610Y011868D02*
X023149Y011868D01*
X023380Y011637D01*
X024264Y012278D02*
X024267Y012276D01*
X023973Y011803D02*
X023975Y011850D01*
X023981Y011897D01*
X023990Y011943D01*
X024004Y011988D01*
X024021Y012032D01*
X024042Y012075D01*
X024066Y012115D01*
X024093Y012154D01*
X024124Y012190D01*
X024157Y012223D01*
X024193Y012254D01*
X024232Y012281D01*
X024272Y012305D01*
X024315Y012326D01*
X024359Y012343D01*
X024404Y012357D01*
X024450Y012366D01*
X024497Y012372D01*
X024544Y012374D01*
X024591Y012372D01*
X024638Y012366D01*
X024684Y012357D01*
X024729Y012343D01*
X024773Y012326D01*
X024816Y012305D01*
X024856Y012281D01*
X024895Y012254D01*
X024931Y012223D01*
X024964Y012190D01*
X024995Y012154D01*
X025022Y012115D01*
X025046Y012075D01*
X025067Y012032D01*
X025084Y011988D01*
X025098Y011943D01*
X025107Y011897D01*
X025113Y011850D01*
X025115Y011803D01*
X025113Y011756D01*
X025107Y011709D01*
X025098Y011663D01*
X025084Y011618D01*
X025067Y011574D01*
X025046Y011531D01*
X025022Y011491D01*
X024995Y011452D01*
X024964Y011416D01*
X024931Y011383D01*
X024895Y011352D01*
X024856Y011325D01*
X024816Y011301D01*
X024773Y011280D01*
X024729Y011263D01*
X024684Y011249D01*
X024638Y011240D01*
X024591Y011234D01*
X024544Y011232D01*
X024497Y011234D01*
X024450Y011240D01*
X024404Y011249D01*
X024359Y011263D01*
X024315Y011280D01*
X024272Y011301D01*
X024232Y011325D01*
X024193Y011352D01*
X024157Y011383D01*
X024124Y011416D01*
X024093Y011452D01*
X024066Y011491D01*
X024042Y011531D01*
X024021Y011574D01*
X024004Y011618D01*
X023990Y011663D01*
X023981Y011709D01*
X023975Y011756D01*
X023973Y011803D01*
X023533Y013012D02*
X023610Y013089D01*
X023610Y013243D01*
X023533Y013319D01*
X023380Y013319D01*
X023303Y013243D01*
X023303Y013166D01*
X023380Y013012D01*
X023149Y013012D01*
X023149Y013319D01*
X023380Y014387D02*
X023380Y014618D01*
X023456Y014694D01*
X023533Y014694D01*
X023610Y014618D01*
X023610Y014464D01*
X023533Y014387D01*
X023380Y014387D01*
X023226Y014541D01*
X023149Y014694D01*
X023149Y015762D02*
X023149Y016069D01*
X023226Y016069D01*
X023533Y015762D01*
X023610Y015762D01*
X024264Y015034D02*
X024267Y015032D01*
X023973Y014559D02*
X023975Y014606D01*
X023981Y014653D01*
X023990Y014699D01*
X024004Y014744D01*
X024021Y014788D01*
X024042Y014831D01*
X024066Y014871D01*
X024093Y014910D01*
X024124Y014946D01*
X024157Y014979D01*
X024193Y015010D01*
X024232Y015037D01*
X024272Y015061D01*
X024315Y015082D01*
X024359Y015099D01*
X024404Y015113D01*
X024450Y015122D01*
X024497Y015128D01*
X024544Y015130D01*
X024591Y015128D01*
X024638Y015122D01*
X024684Y015113D01*
X024729Y015099D01*
X024773Y015082D01*
X024816Y015061D01*
X024856Y015037D01*
X024895Y015010D01*
X024931Y014979D01*
X024964Y014946D01*
X024995Y014910D01*
X025022Y014871D01*
X025046Y014831D01*
X025067Y014788D01*
X025084Y014744D01*
X025098Y014699D01*
X025107Y014653D01*
X025113Y014606D01*
X025115Y014559D01*
X025113Y014512D01*
X025107Y014465D01*
X025098Y014419D01*
X025084Y014374D01*
X025067Y014330D01*
X025046Y014287D01*
X025022Y014247D01*
X024995Y014208D01*
X024964Y014172D01*
X024931Y014139D01*
X024895Y014108D01*
X024856Y014081D01*
X024816Y014057D01*
X024773Y014036D01*
X024729Y014019D01*
X024684Y014005D01*
X024638Y013996D01*
X024591Y013990D01*
X024544Y013988D01*
X024497Y013990D01*
X024450Y013996D01*
X024404Y014005D01*
X024359Y014019D01*
X024315Y014036D01*
X024272Y014057D01*
X024232Y014081D01*
X024193Y014108D01*
X024157Y014139D01*
X024124Y014172D01*
X024093Y014208D01*
X024066Y014247D01*
X024042Y014287D01*
X024021Y014330D01*
X024004Y014374D01*
X023990Y014419D01*
X023981Y014465D01*
X023975Y014512D01*
X023973Y014559D01*
X024264Y013656D02*
X024267Y013654D01*
X023973Y013181D02*
X023975Y013228D01*
X023981Y013275D01*
X023990Y013321D01*
X024004Y013366D01*
X024021Y013410D01*
X024042Y013453D01*
X024066Y013493D01*
X024093Y013532D01*
X024124Y013568D01*
X024157Y013601D01*
X024193Y013632D01*
X024232Y013659D01*
X024272Y013683D01*
X024315Y013704D01*
X024359Y013721D01*
X024404Y013735D01*
X024450Y013744D01*
X024497Y013750D01*
X024544Y013752D01*
X024591Y013750D01*
X024638Y013744D01*
X024684Y013735D01*
X024729Y013721D01*
X024773Y013704D01*
X024816Y013683D01*
X024856Y013659D01*
X024895Y013632D01*
X024931Y013601D01*
X024964Y013568D01*
X024995Y013532D01*
X025022Y013493D01*
X025046Y013453D01*
X025067Y013410D01*
X025084Y013366D01*
X025098Y013321D01*
X025107Y013275D01*
X025113Y013228D01*
X025115Y013181D01*
X025113Y013134D01*
X025107Y013087D01*
X025098Y013041D01*
X025084Y012996D01*
X025067Y012952D01*
X025046Y012909D01*
X025022Y012869D01*
X024995Y012830D01*
X024964Y012794D01*
X024931Y012761D01*
X024895Y012730D01*
X024856Y012703D01*
X024816Y012679D01*
X024773Y012658D01*
X024729Y012641D01*
X024684Y012627D01*
X024638Y012618D01*
X024591Y012612D01*
X024544Y012610D01*
X024497Y012612D01*
X024450Y012618D01*
X024404Y012627D01*
X024359Y012641D01*
X024315Y012658D01*
X024272Y012679D01*
X024232Y012703D01*
X024193Y012730D01*
X024157Y012761D01*
X024124Y012794D01*
X024093Y012830D01*
X024066Y012869D01*
X024042Y012909D01*
X024021Y012952D01*
X024004Y012996D01*
X023990Y013041D01*
X023981Y013087D01*
X023975Y013134D01*
X023973Y013181D01*
X023973Y015937D02*
X023975Y015984D01*
X023981Y016031D01*
X023990Y016077D01*
X024004Y016122D01*
X024021Y016166D01*
X024042Y016209D01*
X024066Y016249D01*
X024093Y016288D01*
X024124Y016324D01*
X024157Y016357D01*
X024193Y016388D01*
X024232Y016415D01*
X024272Y016439D01*
X024315Y016460D01*
X024359Y016477D01*
X024404Y016491D01*
X024450Y016500D01*
X024497Y016506D01*
X024544Y016508D01*
X024591Y016506D01*
X024638Y016500D01*
X024684Y016491D01*
X024729Y016477D01*
X024773Y016460D01*
X024816Y016439D01*
X024856Y016415D01*
X024895Y016388D01*
X024931Y016357D01*
X024964Y016324D01*
X024995Y016288D01*
X025022Y016249D01*
X025046Y016209D01*
X025067Y016166D01*
X025084Y016122D01*
X025098Y016077D01*
X025107Y016031D01*
X025113Y015984D01*
X025115Y015937D01*
X025113Y015890D01*
X025107Y015843D01*
X025098Y015797D01*
X025084Y015752D01*
X025067Y015708D01*
X025046Y015665D01*
X025022Y015625D01*
X024995Y015586D01*
X024964Y015550D01*
X024931Y015517D01*
X024895Y015486D01*
X024856Y015459D01*
X024816Y015435D01*
X024773Y015414D01*
X024729Y015397D01*
X024684Y015383D01*
X024638Y015374D01*
X024591Y015368D01*
X024544Y015366D01*
X024497Y015368D01*
X024450Y015374D01*
X024404Y015383D01*
X024359Y015397D01*
X024315Y015414D01*
X024272Y015435D01*
X024232Y015459D01*
X024193Y015486D01*
X024157Y015517D01*
X024124Y015550D01*
X024093Y015586D01*
X024066Y015625D01*
X024042Y015665D01*
X024021Y015708D01*
X024004Y015752D01*
X023990Y015797D01*
X023981Y015843D01*
X023975Y015890D01*
X023973Y015937D01*
X024267Y016410D02*
X024264Y016412D01*
X023973Y017315D02*
X023975Y017362D01*
X023981Y017409D01*
X023990Y017455D01*
X024004Y017500D01*
X024021Y017544D01*
X024042Y017587D01*
X024066Y017627D01*
X024093Y017666D01*
X024124Y017702D01*
X024157Y017735D01*
X024193Y017766D01*
X024232Y017793D01*
X024272Y017817D01*
X024315Y017838D01*
X024359Y017855D01*
X024404Y017869D01*
X024450Y017878D01*
X024497Y017884D01*
X024544Y017886D01*
X024591Y017884D01*
X024638Y017878D01*
X024684Y017869D01*
X024729Y017855D01*
X024773Y017838D01*
X024816Y017817D01*
X024856Y017793D01*
X024895Y017766D01*
X024931Y017735D01*
X024964Y017702D01*
X024995Y017666D01*
X025022Y017627D01*
X025046Y017587D01*
X025067Y017544D01*
X025084Y017500D01*
X025098Y017455D01*
X025107Y017409D01*
X025113Y017362D01*
X025115Y017315D01*
X025113Y017268D01*
X025107Y017221D01*
X025098Y017175D01*
X025084Y017130D01*
X025067Y017086D01*
X025046Y017043D01*
X025022Y017003D01*
X024995Y016964D01*
X024964Y016928D01*
X024931Y016895D01*
X024895Y016864D01*
X024856Y016837D01*
X024816Y016813D01*
X024773Y016792D01*
X024729Y016775D01*
X024684Y016761D01*
X024638Y016752D01*
X024591Y016746D01*
X024544Y016744D01*
X024497Y016746D01*
X024450Y016752D01*
X024404Y016761D01*
X024359Y016775D01*
X024315Y016792D01*
X024272Y016813D01*
X024232Y016837D01*
X024193Y016864D01*
X024157Y016895D01*
X024124Y016928D01*
X024093Y016964D01*
X024066Y017003D01*
X024042Y017043D01*
X024021Y017086D01*
X024004Y017130D01*
X023990Y017175D01*
X023981Y017221D01*
X023975Y017268D01*
X023973Y017315D01*
X023610Y017368D02*
X023533Y017444D01*
X023456Y017444D01*
X023380Y017368D01*
X023380Y017214D01*
X023303Y017137D01*
X023226Y017137D01*
X023149Y017214D01*
X023149Y017368D01*
X023226Y017444D01*
X023303Y017444D01*
X023380Y017368D01*
X023380Y017214D02*
X023456Y017137D01*
X023533Y017137D01*
X023610Y017214D01*
X023610Y017368D01*
X024264Y017790D02*
X024267Y017788D01*
X023973Y018693D02*
X023975Y018740D01*
X023981Y018787D01*
X023990Y018833D01*
X024004Y018878D01*
X024021Y018922D01*
X024042Y018965D01*
X024066Y019005D01*
X024093Y019044D01*
X024124Y019080D01*
X024157Y019113D01*
X024193Y019144D01*
X024232Y019171D01*
X024272Y019195D01*
X024315Y019216D01*
X024359Y019233D01*
X024404Y019247D01*
X024450Y019256D01*
X024497Y019262D01*
X024544Y019264D01*
X024591Y019262D01*
X024638Y019256D01*
X024684Y019247D01*
X024729Y019233D01*
X024773Y019216D01*
X024816Y019195D01*
X024856Y019171D01*
X024895Y019144D01*
X024931Y019113D01*
X024964Y019080D01*
X024995Y019044D01*
X025022Y019005D01*
X025046Y018965D01*
X025067Y018922D01*
X025084Y018878D01*
X025098Y018833D01*
X025107Y018787D01*
X025113Y018740D01*
X025115Y018693D01*
X025113Y018646D01*
X025107Y018599D01*
X025098Y018553D01*
X025084Y018508D01*
X025067Y018464D01*
X025046Y018421D01*
X025022Y018381D01*
X024995Y018342D01*
X024964Y018306D01*
X024931Y018273D01*
X024895Y018242D01*
X024856Y018215D01*
X024816Y018191D01*
X024773Y018170D01*
X024729Y018153D01*
X024684Y018139D01*
X024638Y018130D01*
X024591Y018124D01*
X024544Y018122D01*
X024497Y018124D01*
X024450Y018130D01*
X024404Y018139D01*
X024359Y018153D01*
X024315Y018170D01*
X024272Y018191D01*
X024232Y018215D01*
X024193Y018242D01*
X024157Y018273D01*
X024124Y018306D01*
X024093Y018342D01*
X024066Y018381D01*
X024042Y018421D01*
X024021Y018464D01*
X024004Y018508D01*
X023990Y018553D01*
X023981Y018599D01*
X023975Y018646D01*
X023973Y018693D01*
X023610Y018746D02*
X023533Y018822D01*
X023226Y018822D01*
X023149Y018746D01*
X023149Y018592D01*
X023226Y018515D01*
X023303Y018515D01*
X023380Y018592D01*
X023380Y018822D01*
X023610Y018746D02*
X023610Y018592D01*
X023533Y018515D01*
X024264Y019168D02*
X024267Y019166D01*
X023326Y019682D02*
X023019Y019682D01*
X023326Y019989D01*
X023326Y020066D01*
X023250Y020143D01*
X023096Y020143D01*
X023019Y020066D01*
X022866Y020143D02*
X022559Y019682D01*
X022866Y019682D02*
X022559Y020143D01*
X015832Y022757D02*
X015359Y022757D01*
X015359Y023033D02*
X015832Y023033D01*
X011419Y019658D02*
X011112Y019658D01*
X010959Y019658D02*
X010652Y020118D01*
X010959Y020118D02*
X010652Y019658D01*
X011112Y019964D02*
X011266Y020118D01*
X011266Y019658D01*
D15*
X015674Y022895D03*
D16*
X017784Y020615D02*
X017784Y017495D01*
X019544Y017495D01*
X019544Y020615D01*
X018784Y020615D01*
X018544Y020615D01*
X017784Y020615D01*
X017784Y020525D02*
X017364Y020525D01*
X017364Y020405D01*
X017784Y020405D01*
X017784Y020525D01*
X017784Y020265D02*
X017364Y020265D01*
X017364Y020145D01*
X017784Y020145D01*
X017784Y020265D01*
X017784Y020015D02*
X017364Y020015D01*
X017364Y019895D01*
X017784Y019895D01*
X017784Y020015D01*
X017784Y019755D02*
X017364Y019755D01*
X017364Y019635D01*
X017784Y019635D01*
X017784Y019755D01*
X017784Y019495D02*
X017364Y019495D01*
X017364Y019375D01*
X017784Y019375D01*
X017784Y019495D01*
X017784Y019245D02*
X017364Y019245D01*
X017364Y019125D01*
X017784Y019125D01*
X017784Y019245D01*
X017784Y018985D02*
X017364Y018985D01*
X017364Y018865D01*
X017784Y018865D01*
X017784Y018985D01*
X017784Y018735D02*
X017364Y018735D01*
X017364Y018615D01*
X017784Y018615D01*
X017784Y018735D01*
X017784Y018475D02*
X017364Y018475D01*
X017364Y018355D01*
X017784Y018355D01*
X017784Y018475D01*
X017784Y018215D02*
X017364Y018215D01*
X017364Y018095D01*
X017784Y018095D01*
X017784Y018215D01*
X017784Y017965D02*
X017364Y017965D01*
X017364Y017845D01*
X017784Y017845D01*
X017784Y017965D01*
X017784Y017705D02*
X017364Y017705D01*
X017364Y017585D01*
X017784Y017585D01*
X017784Y017705D01*
X019544Y017705D02*
X019544Y017585D01*
X019964Y017585D01*
X019964Y017705D01*
X019544Y017705D01*
X019544Y017845D02*
X019964Y017845D01*
X019964Y017965D01*
X019544Y017965D01*
X019544Y017845D01*
X019544Y018095D02*
X019964Y018095D01*
X019964Y018215D01*
X019544Y018215D01*
X019544Y018095D01*
X019544Y018355D02*
X019964Y018355D01*
X019964Y018475D01*
X019544Y018475D01*
X019544Y018355D01*
X019544Y018615D02*
X019964Y018615D01*
X019964Y018735D01*
X019544Y018735D01*
X019544Y018615D01*
X019544Y018865D02*
X019964Y018865D01*
X019964Y018985D01*
X019544Y018985D01*
X019544Y018865D01*
X019544Y019125D02*
X019964Y019125D01*
X019964Y019245D01*
X019544Y019245D01*
X019544Y019125D01*
X019544Y019375D02*
X019964Y019375D01*
X019964Y019495D01*
X019544Y019495D01*
X019544Y019375D01*
X019544Y019635D02*
X019964Y019635D01*
X019964Y019755D01*
X019544Y019755D01*
X019544Y019635D01*
X019544Y019895D02*
X019964Y019895D01*
X019964Y020015D01*
X019544Y020015D01*
X019544Y019895D01*
X019544Y020145D02*
X019964Y020145D01*
X019964Y020265D01*
X019544Y020265D01*
X019544Y020145D01*
X019544Y020405D02*
X019964Y020405D01*
X019964Y020525D01*
X019544Y020525D01*
X019544Y020405D01*
X018970Y010666D02*
X018860Y010666D01*
X018860Y010276D01*
X018970Y010276D01*
X018970Y010666D01*
X018770Y010666D02*
X018660Y010666D01*
X018660Y010276D01*
X018770Y010276D01*
X018770Y010666D01*
X018570Y010666D02*
X018570Y010276D01*
X018460Y010276D01*
X018460Y010666D01*
X018570Y010666D01*
X018380Y010666D02*
X018380Y010276D01*
X018270Y010276D01*
X018270Y010666D01*
X018380Y010666D01*
X018180Y010666D02*
X018180Y010276D01*
X018070Y010276D01*
X018070Y010666D01*
X018180Y010666D01*
X017980Y010666D02*
X017870Y010666D01*
X017870Y010276D01*
X017980Y010276D01*
X017980Y010666D01*
X017790Y010666D02*
X017790Y010276D01*
X017680Y010276D01*
X017680Y010666D01*
X017790Y010666D01*
X017590Y010666D02*
X017590Y010276D01*
X017480Y010276D01*
X017480Y010666D01*
X017590Y010666D01*
X017390Y010666D02*
X017390Y010276D01*
X017280Y010276D01*
X017280Y010666D01*
X017390Y010666D01*
X017200Y010666D02*
X017090Y010666D01*
X017090Y010276D01*
X017200Y010276D01*
X017200Y010666D01*
X017000Y010666D02*
X017000Y010276D01*
X016890Y010276D01*
X016890Y010666D01*
X017000Y010666D01*
X016800Y010666D02*
X016800Y010276D01*
X016690Y010276D01*
X016690Y010666D01*
X016800Y010666D01*
X016600Y010666D02*
X016610Y010276D01*
X016490Y010276D01*
X016490Y010666D01*
X016600Y010666D01*
X016410Y010666D02*
X016300Y010666D01*
X016300Y010276D01*
X016410Y010276D01*
X016410Y010666D01*
X016210Y010666D02*
X016210Y010276D01*
X016100Y010276D01*
X016100Y010666D01*
X016210Y010666D01*
X016010Y010666D02*
X016010Y010276D01*
X015900Y010276D01*
X015900Y010666D01*
X016010Y010666D01*
X015820Y010666D02*
X015820Y010276D01*
X015710Y010276D01*
X015710Y010666D01*
X015820Y010666D01*
X015620Y010666D02*
X015510Y010666D01*
X015510Y010276D01*
X015620Y010276D01*
X015620Y010666D01*
X015420Y010666D02*
X015420Y010276D01*
X015310Y010276D01*
X015310Y010666D01*
X015420Y010666D01*
X015230Y010666D02*
X015230Y010276D01*
X015120Y010276D01*
X015120Y010666D01*
X015230Y010666D01*
X015030Y010666D02*
X015030Y010276D01*
X014920Y010276D01*
X014920Y010666D01*
X015030Y010666D01*
X014830Y010666D02*
X014720Y010666D01*
X014720Y010276D01*
X014830Y010276D01*
X014830Y010666D01*
X014640Y010666D02*
X014640Y010276D01*
X014530Y010276D01*
X014530Y010666D01*
X014640Y010666D01*
X014440Y010666D02*
X014440Y010276D01*
X014330Y010276D01*
X014330Y010666D01*
X014440Y010666D01*
X014240Y010666D02*
X014240Y010276D01*
X014130Y010276D01*
X014130Y010666D01*
X014240Y010666D01*
X013750Y010276D02*
X013750Y004676D01*
X019350Y004676D01*
X019350Y010276D01*
X013750Y010276D01*
X013750Y009896D02*
X013360Y009896D01*
X013360Y009786D01*
X013750Y009786D01*
X013750Y009896D01*
X013750Y009696D02*
X013360Y009696D01*
X013360Y009586D01*
X013750Y009586D01*
X013750Y009696D01*
X013750Y009496D02*
X013360Y009496D01*
X013360Y009386D01*
X013750Y009386D01*
X013750Y009496D01*
X013750Y009306D02*
X013360Y009306D01*
X013360Y009196D01*
X013750Y009196D01*
X013750Y009306D01*
X013750Y009106D02*
X013360Y009106D01*
X013360Y008996D01*
X013750Y008996D01*
X013750Y009106D01*
X013750Y008906D02*
X013360Y008906D01*
X013360Y008796D01*
X013750Y008796D01*
X013750Y008906D01*
X013750Y008716D02*
X013360Y008716D01*
X013360Y008606D01*
X013750Y008606D01*
X013750Y008716D01*
X013750Y008516D02*
X013360Y008516D01*
X013360Y008406D01*
X013750Y008406D01*
X013750Y008516D01*
X013750Y008316D02*
X013360Y008316D01*
X013360Y008206D01*
X013750Y008206D01*
X013750Y008316D01*
X013750Y008126D02*
X013360Y008126D01*
X013360Y008016D01*
X013750Y008016D01*
X013750Y008126D01*
X013750Y007926D02*
X013360Y007926D01*
X013360Y007816D01*
X013750Y007816D01*
X013750Y007926D01*
X013750Y007726D02*
X013360Y007726D01*
X013360Y007616D01*
X013750Y007616D01*
X013750Y007726D01*
X013750Y007536D02*
X013360Y007526D01*
X013360Y007416D01*
X013750Y007416D01*
X013750Y007536D01*
X013750Y007336D02*
X013360Y007336D01*
X013360Y007226D01*
X013750Y007226D01*
X013750Y007336D01*
X013750Y007136D02*
X013360Y007136D01*
X013360Y007026D01*
X013750Y007026D01*
X013750Y007136D01*
X013750Y006936D02*
X013360Y006936D01*
X013360Y006826D01*
X013750Y006826D01*
X013750Y006936D01*
X013750Y006746D02*
X013360Y006746D01*
X013360Y006636D01*
X013750Y006636D01*
X013750Y006746D01*
X013750Y006546D02*
X013360Y006546D01*
X013360Y006436D01*
X013750Y006436D01*
X013750Y006546D01*
X013750Y006346D02*
X013360Y006346D01*
X013360Y006236D01*
X013750Y006236D01*
X013750Y006346D01*
X013750Y006156D02*
X013360Y006156D01*
X013360Y006046D01*
X013750Y006046D01*
X013750Y006156D01*
X013750Y005956D02*
X013360Y005956D01*
X013360Y005846D01*
X013750Y005846D01*
X013750Y005956D01*
X013750Y005756D02*
X013360Y005756D01*
X013360Y005646D01*
X013750Y005646D01*
X013750Y005756D01*
X013750Y005566D02*
X013360Y005566D01*
X013360Y005456D01*
X013750Y005456D01*
X013750Y005566D01*
X013750Y005366D02*
X013360Y005366D01*
X013360Y005256D01*
X013750Y005256D01*
X013750Y005366D01*
X013750Y005176D02*
X014250Y004676D01*
X014240Y004676D02*
X014240Y004286D01*
X014130Y004286D01*
X014130Y004676D01*
X014240Y004676D01*
X014330Y004676D02*
X014330Y004286D01*
X014440Y004286D01*
X014440Y004676D01*
X014330Y004676D01*
X014530Y004676D02*
X014530Y004286D01*
X014640Y004286D01*
X014640Y004676D01*
X014530Y004676D01*
X014720Y004676D02*
X014720Y004286D01*
X014830Y004286D01*
X014830Y004676D01*
X014720Y004676D01*
X014920Y004676D02*
X014920Y004286D01*
X015030Y004286D01*
X015030Y004676D01*
X014920Y004676D01*
X015120Y004676D02*
X015120Y004286D01*
X015230Y004286D01*
X015230Y004676D01*
X015120Y004676D01*
X015310Y004676D02*
X015310Y004286D01*
X015420Y004286D01*
X015420Y004676D01*
X015310Y004676D01*
X015510Y004676D02*
X015510Y004286D01*
X015620Y004286D01*
X015620Y004676D01*
X015510Y004676D01*
X015710Y004676D02*
X015710Y004286D01*
X015820Y004286D01*
X015820Y004676D01*
X015710Y004676D01*
X015900Y004676D02*
X015900Y004286D01*
X016010Y004286D01*
X016010Y004676D01*
X015900Y004676D01*
X016100Y004676D02*
X016100Y004286D01*
X016210Y004286D01*
X016210Y004676D01*
X016100Y004676D01*
X016300Y004676D02*
X016300Y004286D01*
X016410Y004286D01*
X016410Y004676D01*
X016300Y004676D01*
X016490Y004676D02*
X016500Y004286D01*
X016610Y004286D01*
X016610Y004676D01*
X016490Y004676D01*
X016690Y004676D02*
X016690Y004286D01*
X016800Y004286D01*
X016800Y004676D01*
X016690Y004676D01*
X016890Y004676D02*
X016890Y004286D01*
X017000Y004286D01*
X017000Y004676D01*
X016890Y004676D01*
X017090Y004676D02*
X017090Y004286D01*
X017200Y004286D01*
X017200Y004676D01*
X017090Y004676D01*
X017280Y004676D02*
X017280Y004286D01*
X017390Y004286D01*
X017390Y004676D01*
X017280Y004676D01*
X017480Y004676D02*
X017480Y004286D01*
X017590Y004286D01*
X017590Y004676D01*
X017480Y004676D01*
X017680Y004676D02*
X017680Y004286D01*
X017790Y004286D01*
X017790Y004676D01*
X017680Y004676D01*
X017870Y004676D02*
X017870Y004286D01*
X017980Y004286D01*
X017980Y004676D01*
X017870Y004676D01*
X018070Y004676D02*
X018070Y004286D01*
X018180Y004286D01*
X018180Y004676D01*
X018070Y004676D01*
X018270Y004676D02*
X018270Y004286D01*
X018380Y004286D01*
X018380Y004676D01*
X018270Y004676D01*
X018460Y004676D02*
X018460Y004286D01*
X018570Y004286D01*
X018570Y004676D01*
X018460Y004676D01*
X018660Y004676D02*
X018660Y004286D01*
X018770Y004286D01*
X018770Y004676D01*
X018660Y004676D01*
X018860Y004676D02*
X018860Y004286D01*
X018970Y004286D01*
X018970Y004676D01*
X018860Y004676D01*
X019350Y005056D02*
X019350Y005166D01*
X019740Y005166D01*
X019740Y005056D01*
X019350Y005056D01*
X019350Y005256D02*
X019740Y005256D01*
X019740Y005366D01*
X019350Y005366D01*
X019350Y005256D01*
X019350Y005456D02*
X019740Y005456D01*
X019740Y005566D01*
X019350Y005566D01*
X019350Y005456D01*
X019350Y005646D02*
X019740Y005646D01*
X019740Y005756D01*
X019350Y005756D01*
X019350Y005646D01*
X019350Y005846D02*
X019740Y005846D01*
X019740Y005956D01*
X019350Y005956D01*
X019350Y005846D01*
X019350Y006046D02*
X019740Y006046D01*
X019740Y006156D01*
X019350Y006156D01*
X019350Y006046D01*
X019350Y006236D02*
X019740Y006236D01*
X019740Y006346D01*
X019350Y006346D01*
X019350Y006236D01*
X019350Y006436D02*
X019740Y006436D01*
X019740Y006546D01*
X019350Y006546D01*
X019350Y006436D01*
X019350Y006636D02*
X019740Y006636D01*
X019740Y006746D01*
X019350Y006746D01*
X019350Y006636D01*
X019350Y006826D02*
X019740Y006826D01*
X019740Y006936D01*
X019350Y006936D01*
X019350Y006826D01*
X019350Y007026D02*
X019740Y007026D01*
X019740Y007136D01*
X019350Y007136D01*
X019350Y007026D01*
X019350Y007226D02*
X019740Y007226D01*
X019740Y007336D01*
X019350Y007336D01*
X019350Y007226D01*
X019350Y007416D02*
X019740Y007426D01*
X019740Y007536D01*
X019350Y007536D01*
X019350Y007416D01*
X019350Y007616D02*
X019740Y007616D01*
X019740Y007726D01*
X019350Y007726D01*
X019350Y007616D01*
X019350Y007816D02*
X019740Y007816D01*
X019740Y007926D01*
X019350Y007926D01*
X019350Y007816D01*
X019350Y008016D02*
X019740Y008016D01*
X019740Y008126D01*
X019350Y008126D01*
X019350Y008016D01*
X019350Y008206D02*
X019740Y008206D01*
X019740Y008316D01*
X019350Y008316D01*
X019350Y008206D01*
X019350Y008406D02*
X019740Y008406D01*
X019740Y008516D01*
X019350Y008516D01*
X019350Y008406D01*
X019350Y008606D02*
X019740Y008606D01*
X019740Y008716D01*
X019350Y008716D01*
X019350Y008606D01*
X019350Y008796D02*
X019740Y008796D01*
X019740Y008906D01*
X019350Y008906D01*
X019350Y008796D01*
X019350Y008996D02*
X019740Y008996D01*
X019740Y009106D01*
X019350Y009106D01*
X019350Y008996D01*
X019350Y009196D02*
X019740Y009196D01*
X019740Y009306D01*
X019350Y009306D01*
X019350Y009196D01*
X019350Y009386D02*
X019740Y009386D01*
X019740Y009496D01*
X019350Y009496D01*
X019350Y009386D01*
X019350Y009586D02*
X019740Y009586D01*
X019740Y009696D01*
X019350Y009696D01*
X019350Y009586D01*
X019350Y009786D02*
X019740Y009786D01*
X019740Y009896D01*
X019350Y009896D01*
X019350Y009786D01*
X013750Y005166D02*
X013750Y005056D01*
X013360Y005056D01*
X013360Y005166D01*
X013750Y005166D01*
X019269Y003641D02*
X019269Y003563D01*
X020293Y003563D02*
X020293Y003641D01*
X020473Y003130D02*
X020475Y003144D01*
X020481Y003158D01*
X020489Y003170D01*
X020501Y003178D01*
X020515Y003184D01*
X020529Y003186D01*
X020543Y003184D01*
X020557Y003178D01*
X020569Y003170D01*
X020577Y003158D01*
X020583Y003144D01*
X020585Y003130D01*
X020583Y003116D01*
X020577Y003102D01*
X020569Y003090D01*
X020557Y003082D01*
X020543Y003076D01*
X020529Y003074D01*
X020515Y003076D01*
X020501Y003082D01*
X020489Y003090D01*
X020481Y003102D01*
X020475Y003116D01*
X020473Y003130D01*
X009464Y016785D02*
X008324Y016785D01*
X008324Y017085D01*
X009464Y017085D01*
X009464Y016785D01*
X004411Y008377D02*
X003271Y008377D01*
X003271Y008077D01*
X004411Y008077D01*
X004411Y008377D01*
D17*
X018544Y020615D02*
X018546Y020594D01*
X018551Y020574D01*
X018560Y020555D01*
X018572Y020538D01*
X018587Y020523D01*
X018604Y020511D01*
X018623Y020502D01*
X018643Y020497D01*
X018664Y020495D01*
X018685Y020497D01*
X018705Y020502D01*
X018724Y020511D01*
X018741Y020523D01*
X018756Y020538D01*
X018768Y020555D01*
X018777Y020574D01*
X018782Y020594D01*
X018784Y020615D01*
D18*
X015839Y018831D02*
X015485Y018478D01*
X015839Y018831D02*
X015132Y019538D01*
X014778Y019185D01*
X014778Y019184D02*
X014686Y019250D01*
X014591Y019312D01*
X014494Y019371D01*
X014395Y019427D01*
X014294Y019479D01*
X014191Y019528D01*
X014087Y019573D01*
X013981Y019614D01*
X013874Y019652D01*
X013765Y019686D01*
X013656Y019717D01*
X013545Y019743D01*
X013434Y019766D01*
X013322Y019785D01*
X013209Y019799D01*
X013096Y019811D01*
X012983Y019818D01*
X012869Y019821D01*
X012756Y019820D01*
X012642Y019815D01*
X012529Y019807D01*
X012416Y019794D01*
X012304Y019778D01*
X012192Y019758D01*
X012081Y019734D01*
X011971Y019706D01*
X011862Y019674D01*
X011754Y019638D01*
X011647Y019599D01*
X011542Y019556D01*
X011438Y019510D01*
X011336Y019460D01*
X011236Y019407D01*
X011138Y019350D01*
X011041Y019289D01*
X010947Y019226D01*
X010855Y019159D01*
X010766Y019089D01*
X010679Y019016D01*
X010594Y018940D01*
X010512Y018861D01*
X010433Y018780D01*
X010357Y018695D01*
X010284Y018609D01*
X010214Y018519D01*
X010147Y018427D01*
X010083Y018334D01*
X010022Y018237D01*
X009965Y018139D01*
X009911Y018039D01*
X009861Y017937D01*
X009814Y017834D01*
X009771Y017729D01*
X009732Y017622D01*
X009696Y017514D01*
X009664Y017405D01*
X009636Y017295D01*
X009611Y017184D01*
X009591Y017073D01*
X009574Y016960D01*
X009561Y016847D01*
X009552Y016734D01*
X009547Y016621D01*
X009546Y016507D01*
X009549Y016393D01*
X009556Y016280D01*
X009566Y016167D01*
X009581Y016054D01*
X009600Y015942D01*
X009622Y015831D01*
X009648Y015720D01*
X009678Y015611D01*
X009712Y015502D01*
X009749Y015395D01*
X009790Y015289D01*
X009835Y015185D01*
X009884Y015082D01*
X009936Y014981D01*
X009991Y014881D01*
X010050Y014784D01*
X010112Y014689D01*
X010177Y014596D01*
X010246Y014506D01*
X010317Y014417D01*
X010392Y014332D01*
X010469Y014249D01*
X010550Y014168D01*
X010633Y014091D01*
X010718Y014016D01*
X010807Y013945D01*
X010897Y013876D01*
X010990Y013811D01*
X011085Y013749D01*
X011182Y013690D01*
X011282Y013635D01*
X011383Y013583D01*
X011486Y013534D01*
X011590Y013489D01*
X011696Y013448D01*
X011803Y013411D01*
X011912Y013377D01*
X012021Y013347D01*
X012132Y013321D01*
X012243Y013299D01*
X012355Y013280D01*
X012468Y013265D01*
X012581Y013255D01*
X012694Y013248D01*
X012808Y013245D01*
X012922Y013246D01*
X013035Y013251D01*
X013148Y013260D01*
X013261Y013273D01*
X013374Y013290D01*
X013485Y013310D01*
X013596Y013335D01*
X013706Y013363D01*
X013815Y013395D01*
X013923Y013431D01*
X014030Y013470D01*
X014135Y013513D01*
X014238Y013560D01*
X014340Y013610D01*
X014440Y013664D01*
X014538Y013721D01*
X014635Y013782D01*
X014728Y013846D01*
X014820Y013913D01*
X014910Y013983D01*
X014996Y014056D01*
X015081Y014132D01*
X015162Y014211D01*
X015241Y014293D01*
X015317Y014378D01*
X015390Y014465D01*
X015460Y014554D01*
X015527Y014646D01*
X015590Y014740D01*
X015651Y014837D01*
X015708Y014935D01*
X015761Y015035D01*
X015811Y015137D01*
X015857Y015241D01*
X015900Y015346D01*
X015939Y015453D01*
X015975Y015561D01*
X016007Y015670D01*
X016035Y015780D01*
X016059Y015891D01*
X016079Y016003D01*
X016095Y016115D01*
X016108Y016228D01*
X016116Y016341D01*
X016121Y016455D01*
X016122Y016568D01*
X016119Y016682D01*
X016112Y016795D01*
X016100Y016908D01*
X016086Y017021D01*
X016067Y017133D01*
X016044Y017244D01*
X016018Y017355D01*
X015987Y017464D01*
X015953Y017573D01*
X015915Y017680D01*
X015874Y017786D01*
X015829Y017890D01*
X015780Y017993D01*
X015728Y018094D01*
X015672Y018193D01*
X015613Y018290D01*
X015551Y018385D01*
X015485Y018477D01*
M02*
