G75*
%MOIN*%
%OFA0B0*%
%FSLAX24Y24*%
%IPPOS*%
%LPD*%
%AMOC8*
5,1,8,0,0,1.08239X$1,22.5*
%
%ADD10C,0.0020*%
%ADD11C,0.0050*%
%ADD12C,0.0030*%
%ADD13C,0.0080*%
%ADD14C,0.0040*%
%ADD15R,0.0118X0.0118*%
%ADD16C,0.0060*%
%ADD17C,0.0000*%
%ADD18C,0.0100*%
D10*
X005285Y005436D02*
X005400Y005436D01*
X005438Y005474D01*
X005438Y005628D01*
X005400Y005666D01*
X005285Y005666D01*
X005285Y005436D01*
X005515Y005474D02*
X005515Y005513D01*
X005553Y005551D01*
X005630Y005551D01*
X005668Y005513D01*
X005668Y005474D01*
X005630Y005436D01*
X005553Y005436D01*
X005515Y005474D01*
X005553Y005551D02*
X005515Y005589D01*
X005515Y005628D01*
X005553Y005666D01*
X005630Y005666D01*
X005668Y005628D01*
X005668Y005589D01*
X005630Y005551D01*
X004840Y006561D02*
X004763Y006561D01*
X004725Y006599D01*
X004725Y006676D02*
X004801Y006714D01*
X004840Y006714D01*
X004878Y006676D01*
X004878Y006599D01*
X004840Y006561D01*
X004725Y006676D02*
X004725Y006791D01*
X004878Y006791D01*
X004648Y006791D02*
X004648Y006752D01*
X004494Y006599D01*
X004494Y006561D01*
X004418Y006599D02*
X004379Y006561D01*
X004303Y006561D01*
X004264Y006599D01*
X004264Y006752D01*
X004303Y006791D01*
X004379Y006791D01*
X004418Y006752D01*
X004494Y006791D02*
X004648Y006791D01*
X004714Y007201D02*
X004675Y007239D01*
X004829Y007392D01*
X004829Y007239D01*
X004790Y007201D01*
X004714Y007201D01*
X004675Y007239D02*
X004675Y007392D01*
X004714Y007431D01*
X004790Y007431D01*
X004829Y007392D01*
X004599Y007431D02*
X004522Y007392D01*
X004445Y007316D01*
X004560Y007316D01*
X004599Y007277D01*
X004599Y007239D01*
X004560Y007201D01*
X004483Y007201D01*
X004445Y007239D01*
X004445Y007316D01*
X004368Y007316D02*
X004330Y007277D01*
X004215Y007277D01*
X004215Y007201D02*
X004215Y007431D01*
X004330Y007431D01*
X004368Y007392D01*
X004368Y007316D01*
X004292Y007277D02*
X004368Y007201D01*
X006058Y006923D02*
X006173Y006923D01*
X006211Y006885D01*
X006211Y006732D01*
X006173Y006693D01*
X006058Y006693D01*
X006058Y006923D01*
X006288Y006923D02*
X006441Y006923D01*
X006441Y006885D01*
X006288Y006732D01*
X006288Y006693D01*
X007077Y005807D02*
X007192Y005807D01*
X007231Y005769D01*
X007231Y005692D01*
X007192Y005654D01*
X007077Y005654D01*
X007154Y005654D02*
X007231Y005577D01*
X007307Y005615D02*
X007346Y005577D01*
X007423Y005577D01*
X007461Y005615D01*
X007461Y005654D01*
X007423Y005692D01*
X007307Y005692D01*
X007307Y005615D01*
X007307Y005692D02*
X007384Y005769D01*
X007461Y005807D01*
X007077Y005807D02*
X007077Y005577D01*
X008646Y003191D02*
X008608Y003153D01*
X008608Y002999D01*
X008646Y002961D01*
X008723Y002961D01*
X008761Y002999D01*
X008838Y002961D02*
X008991Y002961D01*
X008915Y002961D02*
X008915Y003191D01*
X008838Y003115D01*
X008761Y003153D02*
X008723Y003191D01*
X008646Y003191D01*
X009068Y003153D02*
X009107Y003191D01*
X009183Y003191D01*
X009222Y003153D01*
X009068Y002999D01*
X009107Y002961D01*
X009183Y002961D01*
X009222Y002999D01*
X009222Y003153D01*
X009068Y003153D02*
X009068Y002999D01*
X011194Y003257D02*
X011232Y003218D01*
X011309Y003218D01*
X011347Y003257D01*
X011424Y003257D02*
X011424Y003218D01*
X011424Y003257D02*
X011578Y003410D01*
X011578Y003448D01*
X011424Y003448D01*
X011347Y003410D02*
X011309Y003448D01*
X011232Y003448D01*
X011194Y003410D01*
X011194Y003257D01*
X012570Y003516D02*
X012609Y003478D01*
X012685Y003478D01*
X012724Y003516D01*
X012800Y003478D02*
X012954Y003632D01*
X012954Y003670D01*
X012916Y003708D01*
X012839Y003708D01*
X012800Y003670D01*
X012724Y003670D02*
X012685Y003708D01*
X012609Y003708D01*
X012570Y003670D01*
X012570Y003516D01*
X012800Y003478D02*
X012954Y003478D01*
X013031Y003593D02*
X013184Y003593D01*
X013146Y003478D02*
X013146Y003708D01*
X013031Y003593D01*
X013027Y004844D02*
X012873Y004844D01*
X012950Y004844D02*
X012950Y005074D01*
X012873Y004997D01*
X012797Y005035D02*
X012758Y005074D01*
X012681Y005074D01*
X012643Y005035D01*
X012643Y004882D01*
X012681Y004844D01*
X012758Y004844D01*
X012797Y004882D01*
X013103Y004959D02*
X013257Y004959D01*
X013219Y005074D02*
X013103Y004959D01*
X013219Y004844D02*
X013219Y005074D01*
X012783Y006666D02*
X012706Y006666D01*
X012668Y006704D01*
X012668Y006781D02*
X012745Y006819D01*
X012783Y006819D01*
X012821Y006781D01*
X012821Y006704D01*
X012783Y006666D01*
X012668Y006781D02*
X012668Y006896D01*
X012821Y006896D01*
X012514Y006896D02*
X012514Y006666D01*
X012438Y006666D02*
X012591Y006666D01*
X012438Y006819D02*
X012514Y006896D01*
X012361Y006858D02*
X012323Y006896D01*
X012246Y006896D01*
X012207Y006858D01*
X012207Y006704D01*
X012246Y006666D01*
X012323Y006666D01*
X012361Y006704D01*
X012304Y007966D02*
X012457Y008119D01*
X012457Y008158D01*
X012419Y008196D01*
X012342Y008196D01*
X012304Y008158D01*
X012227Y008158D02*
X012188Y008196D01*
X012112Y008196D01*
X012073Y008158D01*
X012073Y008004D01*
X012112Y007966D01*
X012188Y007966D01*
X012227Y008004D01*
X012304Y007966D02*
X012457Y007966D01*
X012534Y008004D02*
X012572Y007966D01*
X012649Y007966D01*
X012687Y008004D01*
X012687Y008043D01*
X012649Y008081D01*
X012610Y008081D01*
X012649Y008081D02*
X012687Y008119D01*
X012687Y008158D01*
X012649Y008196D01*
X012572Y008196D01*
X012534Y008158D01*
X013399Y010315D02*
X013476Y010315D01*
X013514Y010354D01*
X013514Y010545D01*
X013591Y010545D02*
X013744Y010545D01*
X013744Y010507D01*
X013591Y010354D01*
X013591Y010315D01*
X013399Y010315D02*
X013360Y010354D01*
X013360Y010545D01*
X016553Y011313D02*
X016592Y011274D01*
X016745Y011274D01*
X016784Y011313D01*
X016784Y011389D01*
X016745Y011428D01*
X016784Y011505D02*
X016784Y011658D01*
X016784Y011581D02*
X016553Y011581D01*
X016630Y011505D01*
X016592Y011428D02*
X016553Y011389D01*
X016553Y011313D01*
X016592Y011735D02*
X016553Y011773D01*
X016553Y011850D01*
X016592Y011888D01*
X016630Y011888D01*
X016668Y011850D01*
X016707Y011888D01*
X016745Y011888D01*
X016784Y011850D01*
X016784Y011773D01*
X016745Y011735D01*
X016668Y011811D02*
X016668Y011850D01*
X017031Y011850D02*
X017031Y011773D01*
X017070Y011735D01*
X017070Y011658D02*
X017223Y011505D01*
X017262Y011505D01*
X017223Y011428D02*
X017262Y011390D01*
X017262Y011313D01*
X017223Y011275D01*
X017070Y011275D01*
X017031Y011313D01*
X017031Y011390D01*
X017070Y011428D01*
X017031Y011505D02*
X017031Y011658D01*
X017070Y011658D01*
X017223Y011735D02*
X017262Y011773D01*
X017262Y011850D01*
X017223Y011888D01*
X017185Y011888D01*
X017146Y011850D01*
X017146Y011812D01*
X017146Y011850D02*
X017108Y011888D01*
X017070Y011888D01*
X017031Y011850D01*
X019081Y011695D02*
X019157Y011695D01*
X019119Y011695D02*
X019119Y011465D01*
X019081Y011465D02*
X019157Y011465D01*
X019234Y011503D02*
X019272Y011465D01*
X019349Y011465D01*
X019388Y011503D01*
X019464Y011465D02*
X019618Y011465D01*
X019541Y011465D02*
X019541Y011695D01*
X019464Y011618D01*
X019388Y011656D02*
X019349Y011695D01*
X019272Y011695D01*
X019234Y011656D01*
X019234Y011503D01*
X021375Y009129D02*
X021336Y009091D01*
X021336Y008938D01*
X021375Y008899D01*
X021451Y008899D01*
X021490Y008938D01*
X021566Y008899D02*
X021720Y008899D01*
X021643Y008899D02*
X021643Y009129D01*
X021566Y009053D01*
X021490Y009091D02*
X021451Y009129D01*
X021375Y009129D01*
X021797Y009091D02*
X021797Y009053D01*
X021835Y009014D01*
X021950Y009014D01*
X021950Y008938D02*
X021950Y009091D01*
X021912Y009129D01*
X021835Y009129D01*
X021797Y009091D01*
X021797Y008938D02*
X021835Y008899D01*
X021912Y008899D01*
X021950Y008938D01*
X021976Y008424D02*
X021899Y008424D01*
X021861Y008385D01*
X021861Y008232D01*
X021899Y008194D01*
X021976Y008194D01*
X022014Y008232D01*
X022091Y008194D02*
X022244Y008347D01*
X022244Y008385D01*
X022206Y008424D01*
X022129Y008424D01*
X022091Y008385D01*
X022014Y008385D02*
X021976Y008424D01*
X022091Y008194D02*
X022244Y008194D01*
X022321Y008232D02*
X022360Y008194D01*
X022436Y008194D01*
X022475Y008232D01*
X022475Y008270D01*
X022436Y008309D01*
X022321Y008309D01*
X022321Y008232D01*
X022321Y008309D02*
X022398Y008385D01*
X022475Y008424D01*
X022465Y007334D02*
X022389Y007334D01*
X022350Y007295D01*
X022350Y007142D01*
X022504Y007295D01*
X022504Y007142D01*
X022465Y007103D01*
X022389Y007103D01*
X022350Y007142D01*
X022274Y007103D02*
X022120Y007103D01*
X022274Y007257D01*
X022274Y007295D01*
X022235Y007334D01*
X022159Y007334D01*
X022120Y007295D01*
X022043Y007295D02*
X022005Y007334D01*
X021928Y007334D01*
X021890Y007295D01*
X021890Y007142D01*
X021928Y007103D01*
X022005Y007103D01*
X022043Y007142D01*
X022465Y007334D02*
X022504Y007295D01*
X022027Y006198D02*
X021873Y006198D01*
X021720Y006198D02*
X021720Y005968D01*
X021643Y005968D02*
X021797Y005968D01*
X021873Y005968D02*
X021873Y006006D01*
X022027Y006160D01*
X022027Y006198D01*
X021720Y006198D02*
X021643Y006121D01*
X021566Y006160D02*
X021528Y006198D01*
X021451Y006198D01*
X021413Y006160D01*
X021413Y006006D01*
X021451Y005968D01*
X021528Y005968D01*
X021566Y006006D01*
X021548Y005689D02*
X021471Y005689D01*
X021433Y005651D01*
X021433Y005497D01*
X021471Y005459D01*
X021548Y005459D01*
X021586Y005497D01*
X021663Y005459D02*
X021816Y005459D01*
X021740Y005459D02*
X021740Y005689D01*
X021663Y005612D01*
X021586Y005651D02*
X021548Y005689D01*
X021893Y005651D02*
X021893Y005612D01*
X021931Y005574D01*
X022008Y005574D01*
X022047Y005535D01*
X022047Y005497D01*
X022008Y005459D01*
X021931Y005459D01*
X021893Y005497D01*
X021893Y005535D01*
X021931Y005574D01*
X022008Y005574D02*
X022047Y005612D01*
X022047Y005651D01*
X022008Y005689D01*
X021931Y005689D01*
X021893Y005651D01*
X021604Y005056D02*
X021450Y005056D01*
X021450Y004941D01*
X021527Y004979D01*
X021565Y004979D01*
X021604Y004941D01*
X021604Y004864D01*
X021565Y004825D01*
X021489Y004825D01*
X021450Y004864D01*
X021374Y004825D02*
X021220Y004825D01*
X021374Y004979D01*
X021374Y005017D01*
X021335Y005056D01*
X021258Y005056D01*
X021220Y005017D01*
X021143Y005017D02*
X021105Y005056D01*
X021028Y005056D01*
X020990Y005017D01*
X020990Y004864D01*
X021028Y004825D01*
X021105Y004825D01*
X021143Y004864D01*
X018779Y002841D02*
X018702Y002802D01*
X018625Y002726D01*
X018740Y002726D01*
X018779Y002687D01*
X018779Y002649D01*
X018740Y002611D01*
X018663Y002611D01*
X018625Y002649D01*
X018625Y002726D01*
X018548Y002611D02*
X018395Y002611D01*
X018472Y002611D02*
X018472Y002841D01*
X018395Y002764D01*
X018318Y002802D02*
X018280Y002841D01*
X018203Y002841D01*
X018165Y002802D01*
X018165Y002649D01*
X018203Y002611D01*
X018280Y002611D01*
X018318Y002649D01*
X017265Y002293D02*
X017265Y002255D01*
X017226Y002216D01*
X017150Y002216D01*
X017111Y002255D01*
X017111Y002293D01*
X017150Y002331D01*
X017226Y002331D01*
X017265Y002293D01*
X017226Y002216D02*
X017265Y002178D01*
X017265Y002140D01*
X017226Y002101D01*
X017150Y002101D01*
X017111Y002140D01*
X017111Y002178D01*
X017150Y002216D01*
X017035Y002255D02*
X016881Y002101D01*
X017035Y002101D01*
X017035Y002255D02*
X017035Y002293D01*
X016996Y002331D01*
X016919Y002331D01*
X016881Y002293D01*
X016804Y002293D02*
X016766Y002331D01*
X016689Y002331D01*
X016651Y002293D01*
X016651Y002140D01*
X016689Y002101D01*
X016766Y002101D01*
X016804Y002140D01*
X016445Y002299D02*
X016291Y002145D01*
X016291Y002107D01*
X016215Y002107D02*
X016061Y002107D01*
X016215Y002261D01*
X016215Y002299D01*
X016176Y002337D01*
X016099Y002337D01*
X016061Y002299D01*
X015984Y002299D02*
X015946Y002337D01*
X015869Y002337D01*
X015831Y002299D01*
X015831Y002145D01*
X015869Y002107D01*
X015946Y002107D01*
X015984Y002145D01*
X016291Y002337D02*
X016445Y002337D01*
X016445Y002299D01*
X015319Y002023D02*
X015319Y001793D01*
X015395Y001793D02*
X015242Y001793D01*
X015165Y001793D02*
X015012Y001793D01*
X015165Y001947D01*
X015165Y001985D01*
X015127Y002023D01*
X015050Y002023D01*
X015012Y001985D01*
X014935Y001985D02*
X014897Y002023D01*
X014820Y002023D01*
X014781Y001985D01*
X014781Y001831D01*
X014820Y001793D01*
X014897Y001793D01*
X014935Y001831D01*
X015242Y001947D02*
X015319Y002023D01*
X014601Y001997D02*
X014562Y002035D01*
X014486Y002035D01*
X014447Y001997D01*
X014371Y001997D02*
X014332Y002035D01*
X014256Y002035D01*
X014217Y001997D01*
X014140Y001997D02*
X014102Y002035D01*
X014025Y002035D01*
X013987Y001997D01*
X013987Y001843D01*
X014025Y001805D01*
X014102Y001805D01*
X014140Y001843D01*
X014217Y001805D02*
X014371Y001959D01*
X014371Y001997D01*
X014371Y001805D02*
X014217Y001805D01*
X014447Y001805D02*
X014601Y001959D01*
X014601Y001997D01*
X014601Y001805D02*
X014447Y001805D01*
X010084Y007846D02*
X009930Y007846D01*
X010084Y008000D01*
X010084Y008038D01*
X010045Y008076D01*
X009968Y008076D01*
X009930Y008038D01*
X009853Y008038D02*
X009815Y008076D01*
X009738Y008076D01*
X009700Y008038D01*
X009700Y007885D01*
X009738Y007846D01*
X009815Y007846D01*
X009853Y007885D01*
X009623Y007846D02*
X009546Y007846D01*
X009585Y007846D02*
X009585Y008076D01*
X009623Y008076D02*
X009546Y008076D01*
X008454Y009398D02*
X008224Y009398D01*
X008224Y009513D01*
X008262Y009552D01*
X008339Y009552D01*
X008377Y009513D01*
X008377Y009398D01*
X008377Y009475D02*
X008454Y009552D01*
X008415Y009628D02*
X008454Y009667D01*
X008454Y009744D01*
X008415Y009782D01*
X008262Y009782D01*
X008224Y009744D01*
X008224Y009667D01*
X008262Y009628D01*
X008300Y009628D01*
X008339Y009667D01*
X008339Y009782D01*
X008339Y009859D02*
X008339Y009974D01*
X008377Y010012D01*
X008415Y010012D01*
X008454Y009974D01*
X008454Y009897D01*
X008415Y009859D01*
X008339Y009859D01*
X008262Y009935D01*
X008224Y010012D01*
X008810Y010166D02*
X008810Y010396D01*
X008926Y010396D01*
X008964Y010357D01*
X008964Y010281D01*
X008926Y010242D01*
X008810Y010242D01*
X008887Y010242D02*
X008964Y010166D01*
X009041Y010204D02*
X009079Y010166D01*
X009156Y010166D01*
X009194Y010204D01*
X009194Y010357D01*
X009156Y010396D01*
X009079Y010396D01*
X009041Y010357D01*
X009041Y010319D01*
X009079Y010281D01*
X009194Y010281D01*
X009271Y010319D02*
X009309Y010281D01*
X009424Y010281D01*
X009424Y010357D02*
X009386Y010396D01*
X009309Y010396D01*
X009271Y010357D01*
X009271Y010319D01*
X009271Y010204D02*
X009309Y010166D01*
X009386Y010166D01*
X009424Y010204D01*
X009424Y010357D01*
X008836Y010865D02*
X008836Y010942D01*
X008797Y010980D01*
X008720Y011057D02*
X008720Y011210D01*
X008720Y011287D02*
X008644Y011364D01*
X008605Y011441D01*
X008720Y011402D02*
X008720Y011287D01*
X008797Y011287D01*
X008836Y011326D01*
X008836Y011402D01*
X008797Y011441D01*
X008759Y011441D01*
X008720Y011402D01*
X008605Y011172D02*
X008720Y011057D01*
X008644Y010980D02*
X008605Y010942D01*
X008605Y010865D01*
X008644Y010827D01*
X008797Y010827D01*
X008836Y010865D01*
X008836Y011172D02*
X008605Y011172D01*
X009145Y012090D02*
X009221Y012090D01*
X009260Y012128D01*
X009336Y012128D02*
X009375Y012090D01*
X009452Y012090D01*
X009490Y012128D01*
X009490Y012205D01*
X009452Y012243D01*
X009413Y012243D01*
X009336Y012205D01*
X009336Y012320D01*
X009490Y012320D01*
X009567Y012282D02*
X009605Y012320D01*
X009682Y012320D01*
X009720Y012282D01*
X009720Y012243D01*
X009682Y012205D01*
X009720Y012166D01*
X009720Y012128D01*
X009682Y012090D01*
X009605Y012090D01*
X009567Y012128D01*
X009643Y012205D02*
X009682Y012205D01*
X009260Y012282D02*
X009221Y012320D01*
X009145Y012320D01*
X009106Y012282D01*
X009106Y012128D01*
X009145Y012090D01*
X009150Y012714D02*
X009226Y012714D01*
X009265Y012752D01*
X009342Y012752D02*
X009380Y012714D01*
X009457Y012714D01*
X009495Y012752D01*
X009495Y012829D01*
X009457Y012868D01*
X009418Y012868D01*
X009342Y012829D01*
X009342Y012944D01*
X009495Y012944D01*
X009572Y012906D02*
X009610Y012944D01*
X009687Y012944D01*
X009725Y012906D01*
X009725Y012868D01*
X009572Y012714D01*
X009725Y012714D01*
X009265Y012906D02*
X009226Y012944D01*
X009150Y012944D01*
X009111Y012906D01*
X009111Y012752D01*
X009150Y012714D01*
X009155Y014933D02*
X009193Y014972D01*
X009193Y015125D01*
X009155Y015164D01*
X009078Y015164D01*
X009039Y015125D01*
X009039Y015087D01*
X009078Y015048D01*
X009193Y015048D01*
X009270Y014972D02*
X009270Y014933D01*
X009270Y014972D02*
X009423Y015125D01*
X009423Y015164D01*
X009270Y015164D01*
X009155Y014933D02*
X009078Y014933D01*
X009039Y014972D01*
X008963Y014933D02*
X008886Y015010D01*
X008924Y015010D02*
X008809Y015010D01*
X008809Y014933D02*
X008809Y015164D01*
X008924Y015164D01*
X008963Y015125D01*
X008963Y015048D01*
X008924Y015010D01*
X008526Y014846D02*
X008372Y014846D01*
X008449Y014846D02*
X008449Y015076D01*
X008372Y014999D01*
X008296Y014961D02*
X008257Y014999D01*
X008219Y014999D01*
X008142Y014961D01*
X008142Y015076D01*
X008296Y015076D01*
X008296Y014961D02*
X008296Y014884D01*
X008257Y014846D01*
X008180Y014846D01*
X008142Y014884D01*
X008065Y014884D02*
X008027Y014846D01*
X007950Y014846D01*
X007912Y014884D01*
X007912Y015038D01*
X007950Y015076D01*
X008027Y015076D01*
X008065Y015038D01*
X007788Y014974D02*
X007634Y014974D01*
X007750Y015089D01*
X007750Y014859D01*
X007558Y014897D02*
X007519Y014859D01*
X007443Y014859D01*
X007404Y014897D01*
X007328Y014897D02*
X007289Y014859D01*
X007212Y014859D01*
X007174Y014897D01*
X007174Y015051D01*
X007212Y015089D01*
X007289Y015089D01*
X007328Y015051D01*
X007404Y015089D02*
X007404Y014974D01*
X007481Y015012D01*
X007519Y015012D01*
X007558Y014974D01*
X007558Y014897D01*
X007558Y015089D02*
X007404Y015089D01*
X007130Y015132D02*
X007054Y015093D01*
X006977Y015017D01*
X007092Y015017D01*
X007130Y014978D01*
X007130Y014940D01*
X007092Y014902D01*
X007015Y014902D01*
X006977Y014940D01*
X006977Y015017D01*
X006900Y015055D02*
X006862Y015017D01*
X006785Y015017D01*
X006747Y015055D01*
X006747Y015093D01*
X006785Y015132D01*
X006862Y015132D01*
X006900Y015093D01*
X006900Y015055D01*
X006862Y015017D02*
X006900Y014978D01*
X006900Y014940D01*
X006862Y014902D01*
X006785Y014902D01*
X006747Y014940D01*
X006747Y014978D01*
X006785Y015017D01*
X006670Y015017D02*
X006632Y014978D01*
X006517Y014978D01*
X006501Y015011D02*
X006616Y015011D01*
X006593Y014978D02*
X006670Y014902D01*
X006616Y014935D02*
X006616Y015088D01*
X006578Y015126D01*
X006501Y015126D01*
X006463Y015088D01*
X006463Y015050D01*
X006501Y015011D01*
X006463Y014935D02*
X006501Y014896D01*
X006578Y014896D01*
X006616Y014935D01*
X006670Y015017D02*
X006670Y015093D01*
X006632Y015132D01*
X006517Y015132D01*
X006517Y014902D01*
X006386Y014935D02*
X006348Y014896D01*
X006271Y014896D01*
X006233Y014935D01*
X006233Y014973D01*
X006271Y015011D01*
X006348Y015011D01*
X006386Y014973D01*
X006386Y014935D01*
X006348Y015011D02*
X006386Y015050D01*
X006386Y015088D01*
X006348Y015126D01*
X006271Y015126D01*
X006233Y015088D01*
X006233Y015050D01*
X006271Y015011D01*
X006156Y015011D02*
X006118Y014973D01*
X006002Y014973D01*
X006002Y014896D02*
X006002Y015126D01*
X006118Y015126D01*
X006156Y015088D01*
X006156Y015011D01*
X006079Y014973D02*
X006156Y014896D01*
X005511Y014670D02*
X005358Y014517D01*
X005396Y014479D01*
X005473Y014479D01*
X005511Y014517D01*
X005511Y014670D01*
X005473Y014709D01*
X005396Y014709D01*
X005358Y014670D01*
X005358Y014517D01*
X005281Y014517D02*
X005281Y014670D01*
X005243Y014709D01*
X005166Y014709D01*
X005128Y014670D01*
X005128Y014632D01*
X005166Y014594D01*
X005281Y014594D01*
X005281Y014517D02*
X005243Y014479D01*
X005166Y014479D01*
X005128Y014517D01*
X005051Y014479D02*
X004974Y014555D01*
X005012Y014555D02*
X004897Y014555D01*
X004897Y014479D02*
X004897Y014709D01*
X005012Y014709D01*
X005051Y014670D01*
X005051Y014594D01*
X005012Y014555D01*
X004138Y014488D02*
X003984Y014488D01*
X004138Y014641D01*
X004138Y014679D01*
X004099Y014718D01*
X004023Y014718D01*
X003984Y014679D01*
X003908Y014679D02*
X003754Y014526D01*
X003754Y014488D01*
X003677Y014526D02*
X003639Y014488D01*
X003562Y014488D01*
X003524Y014526D01*
X003524Y014679D01*
X003562Y014718D01*
X003639Y014718D01*
X003677Y014679D01*
X003754Y014718D02*
X003908Y014718D01*
X003908Y014679D01*
X003932Y013595D02*
X003855Y013595D01*
X003817Y013557D01*
X003817Y013403D01*
X003855Y013365D01*
X003932Y013365D01*
X003970Y013403D01*
X004047Y013403D02*
X004085Y013365D01*
X004162Y013365D01*
X004201Y013403D01*
X004201Y013480D01*
X004162Y013518D01*
X004124Y013518D01*
X004047Y013480D01*
X004047Y013595D01*
X004201Y013595D01*
X004277Y013595D02*
X004277Y013480D01*
X004354Y013518D01*
X004392Y013518D01*
X004431Y013480D01*
X004431Y013403D01*
X004392Y013365D01*
X004316Y013365D01*
X004277Y013403D01*
X004277Y013595D02*
X004431Y013595D01*
X003970Y013557D02*
X003932Y013595D01*
X003944Y013073D02*
X003867Y013073D01*
X003829Y013035D01*
X003829Y012996D01*
X003867Y012958D01*
X003982Y012958D01*
X003982Y013035D02*
X003944Y013073D01*
X003982Y013035D02*
X003982Y012881D01*
X003944Y012843D01*
X003867Y012843D01*
X003829Y012881D01*
X003752Y012843D02*
X003675Y012919D01*
X003714Y012919D02*
X003599Y012919D01*
X003599Y012843D02*
X003599Y013073D01*
X003714Y013073D01*
X003752Y013035D01*
X003752Y012958D01*
X003714Y012919D01*
X004059Y012843D02*
X004212Y012996D01*
X004212Y013035D01*
X004174Y013073D01*
X004097Y013073D01*
X004059Y013035D01*
X004059Y012843D02*
X004212Y012843D01*
X004270Y012565D02*
X004232Y012527D01*
X004232Y012489D01*
X004270Y012450D01*
X004385Y012450D01*
X004385Y012374D02*
X004385Y012527D01*
X004347Y012565D01*
X004270Y012565D01*
X004155Y012527D02*
X004155Y012450D01*
X004117Y012412D01*
X004002Y012412D01*
X004078Y012412D02*
X004155Y012335D01*
X004232Y012374D02*
X004270Y012335D01*
X004347Y012335D01*
X004385Y012374D01*
X004462Y012374D02*
X004500Y012335D01*
X004577Y012335D01*
X004616Y012374D01*
X004616Y012450D01*
X004577Y012489D01*
X004539Y012489D01*
X004462Y012450D01*
X004462Y012565D01*
X004616Y012565D01*
X004574Y012052D02*
X004459Y011937D01*
X004612Y011937D01*
X004574Y011822D02*
X004574Y012052D01*
X004382Y012014D02*
X004344Y012052D01*
X004267Y012052D01*
X004229Y012014D01*
X004229Y011976D01*
X004267Y011937D01*
X004382Y011937D01*
X004382Y011860D02*
X004382Y012014D01*
X004382Y011860D02*
X004344Y011822D01*
X004267Y011822D01*
X004229Y011860D01*
X004152Y011822D02*
X004075Y011899D01*
X004114Y011899D02*
X003999Y011899D01*
X003999Y011822D02*
X003999Y012052D01*
X004114Y012052D01*
X004152Y012014D01*
X004152Y011937D01*
X004114Y011899D01*
X004115Y011536D02*
X004153Y011498D01*
X004153Y011421D01*
X004115Y011383D01*
X004000Y011383D01*
X004077Y011383D02*
X004153Y011306D01*
X004230Y011344D02*
X004268Y011306D01*
X004345Y011306D01*
X004384Y011344D01*
X004384Y011498D01*
X004345Y011536D01*
X004268Y011536D01*
X004230Y011498D01*
X004230Y011459D01*
X004268Y011421D01*
X004384Y011421D01*
X004460Y011498D02*
X004499Y011536D01*
X004575Y011536D01*
X004614Y011498D01*
X004614Y011459D01*
X004575Y011421D01*
X004614Y011383D01*
X004614Y011344D01*
X004575Y011306D01*
X004499Y011306D01*
X004460Y011344D01*
X004537Y011421D02*
X004575Y011421D01*
X004115Y011536D02*
X004000Y011536D01*
X004000Y011306D01*
X003905Y010809D02*
X003944Y010770D01*
X003944Y010694D01*
X003905Y010655D01*
X003790Y010655D01*
X003790Y010578D02*
X003790Y010809D01*
X003905Y010809D01*
X004020Y010732D02*
X004097Y010809D01*
X004097Y010578D01*
X004020Y010578D02*
X004174Y010578D01*
X004250Y010617D02*
X004404Y010770D01*
X004404Y010617D01*
X004366Y010578D01*
X004289Y010578D01*
X004250Y010617D01*
X004250Y010770D01*
X004289Y010809D01*
X004366Y010809D01*
X004404Y010770D01*
X004481Y010770D02*
X004519Y010809D01*
X004596Y010809D01*
X004634Y010770D01*
X004634Y010732D01*
X004481Y010578D01*
X004634Y010578D01*
X004578Y010397D02*
X004578Y010167D01*
X004502Y010167D02*
X004655Y010167D01*
X004502Y010320D02*
X004578Y010397D01*
X004425Y010359D02*
X004386Y010397D01*
X004310Y010397D01*
X004271Y010359D01*
X004271Y010320D01*
X004310Y010282D01*
X004425Y010282D01*
X004425Y010205D02*
X004425Y010359D01*
X004425Y010205D02*
X004386Y010167D01*
X004310Y010167D01*
X004271Y010205D01*
X004195Y010167D02*
X004118Y010244D01*
X004156Y010244D02*
X004041Y010244D01*
X004041Y010167D02*
X004041Y010397D01*
X004156Y010397D01*
X004195Y010359D01*
X004195Y010282D01*
X004156Y010244D01*
X003944Y010578D02*
X003867Y010655D01*
X004973Y009451D02*
X005088Y009451D01*
X005126Y009413D01*
X005126Y009336D01*
X005088Y009298D01*
X004973Y009298D01*
X005050Y009298D02*
X005126Y009221D01*
X005203Y009221D02*
X005357Y009221D01*
X005280Y009221D02*
X005280Y009451D01*
X005203Y009374D01*
X005433Y009413D02*
X005433Y009259D01*
X005587Y009413D01*
X005587Y009259D01*
X005548Y009221D01*
X005472Y009221D01*
X005433Y009259D01*
X005433Y009413D02*
X005472Y009451D01*
X005548Y009451D01*
X005587Y009413D01*
X005664Y009374D02*
X005740Y009451D01*
X005740Y009221D01*
X005664Y009221D02*
X005817Y009221D01*
X005810Y009294D02*
X005810Y009524D01*
X005926Y009524D01*
X005964Y009486D01*
X005964Y009409D01*
X005926Y009371D01*
X005810Y009371D01*
X005887Y009371D02*
X005964Y009294D01*
X006041Y009294D02*
X006194Y009294D01*
X006117Y009294D02*
X006117Y009524D01*
X006041Y009447D01*
X006271Y009486D02*
X006271Y009332D01*
X006424Y009486D01*
X006424Y009332D01*
X006386Y009294D01*
X006309Y009294D01*
X006271Y009332D01*
X006271Y009486D02*
X006309Y009524D01*
X006386Y009524D01*
X006424Y009486D01*
X006501Y009486D02*
X006539Y009524D01*
X006616Y009524D01*
X006654Y009486D01*
X006501Y009332D01*
X006539Y009294D01*
X006616Y009294D01*
X006654Y009332D01*
X006654Y009486D01*
X006501Y009486D02*
X006501Y009332D01*
X007062Y009058D02*
X007062Y008828D01*
X007177Y008828D01*
X007215Y008866D01*
X007215Y009020D01*
X007177Y009058D01*
X007062Y009058D01*
X007292Y009020D02*
X007330Y009058D01*
X007407Y009058D01*
X007445Y009020D01*
X007445Y008981D01*
X007292Y008828D01*
X007445Y008828D01*
X007522Y008866D02*
X007560Y008828D01*
X007637Y008828D01*
X007676Y008866D01*
X007676Y008905D01*
X007637Y008943D01*
X007522Y008943D01*
X007522Y008866D01*
X007522Y008943D02*
X007599Y009020D01*
X007676Y009058D01*
X007055Y010786D02*
X006979Y010786D01*
X006940Y010824D01*
X006940Y010863D01*
X006979Y010901D01*
X007055Y010901D01*
X007094Y010863D01*
X007094Y010824D01*
X007055Y010786D01*
X007055Y010901D02*
X007094Y010939D01*
X007094Y010978D01*
X007055Y011016D01*
X006979Y011016D01*
X006940Y010978D01*
X006940Y010939D01*
X006979Y010901D01*
X006864Y010901D02*
X006748Y010901D01*
X006710Y010939D01*
X006710Y010978D01*
X006748Y011016D01*
X006825Y011016D01*
X006864Y010978D01*
X006864Y010824D01*
X006825Y010786D01*
X006748Y010786D01*
X006710Y010824D01*
X006633Y010786D02*
X006557Y010863D01*
X006595Y010863D02*
X006480Y010863D01*
X006480Y010786D02*
X006480Y011016D01*
X006595Y011016D01*
X006633Y010978D01*
X006633Y010901D01*
X006595Y010863D01*
X005871Y010986D02*
X005833Y010948D01*
X005641Y010948D01*
X005641Y011101D02*
X005833Y011101D01*
X005871Y011063D01*
X005871Y010986D01*
X005833Y011178D02*
X005871Y011216D01*
X005871Y011293D01*
X005833Y011331D01*
X005679Y011331D01*
X005641Y011293D01*
X005641Y011216D01*
X005679Y011178D01*
X005717Y011178D01*
X005756Y011216D01*
X005756Y011331D01*
X004155Y012527D02*
X004117Y012565D01*
X004002Y012565D01*
X004002Y012335D01*
X003320Y012950D02*
X003320Y013065D01*
X003281Y013103D01*
X003128Y013103D01*
X003089Y013065D01*
X003089Y012950D01*
X003320Y012950D01*
X003320Y013180D02*
X003166Y013333D01*
X003128Y013333D01*
X003089Y013295D01*
X003089Y013218D01*
X003128Y013180D01*
X003320Y013180D02*
X003320Y013333D01*
X003281Y013410D02*
X003243Y013410D01*
X003204Y013449D01*
X003204Y013525D01*
X003243Y013564D01*
X003281Y013564D01*
X003320Y013525D01*
X003320Y013449D01*
X003281Y013410D01*
X003204Y013449D02*
X003166Y013410D01*
X003128Y013410D01*
X003089Y013449D01*
X003089Y013525D01*
X003128Y013564D01*
X003166Y013564D01*
X003204Y013525D01*
X002248Y011183D02*
X002402Y011029D01*
X002440Y011029D01*
X002440Y010953D02*
X002440Y010799D01*
X002287Y010953D01*
X002248Y010953D01*
X002210Y010914D01*
X002210Y010838D01*
X002248Y010799D01*
X002248Y010722D02*
X002210Y010684D01*
X002210Y010569D01*
X002440Y010569D01*
X002440Y010684D01*
X002402Y010722D01*
X002248Y010722D01*
X002210Y011029D02*
X002210Y011183D01*
X002248Y011183D01*
X004973Y009451D02*
X004973Y009221D01*
X008363Y015846D02*
X008363Y016076D01*
X008478Y016076D01*
X008517Y016037D01*
X008517Y015961D01*
X008478Y015922D01*
X008363Y015922D01*
X008440Y015922D02*
X008517Y015846D01*
X008593Y015846D02*
X008747Y015846D01*
X008824Y015846D02*
X008977Y015846D01*
X008900Y015846D02*
X008900Y016076D01*
X008824Y015999D01*
X008670Y016076D02*
X008670Y015846D01*
X008593Y015999D02*
X008670Y016076D01*
X009054Y016076D02*
X009054Y015961D01*
X009131Y015999D01*
X009169Y015999D01*
X009207Y015961D01*
X009207Y015884D01*
X009169Y015846D01*
X009092Y015846D01*
X009054Y015884D01*
X009054Y016076D02*
X009207Y016076D01*
X009203Y017400D02*
X009203Y017631D01*
X009126Y017554D01*
X009126Y017400D02*
X009280Y017400D01*
X009357Y017515D02*
X009510Y017515D01*
X009472Y017400D02*
X009472Y017631D01*
X009357Y017515D01*
X009050Y017400D02*
X008896Y017400D01*
X008819Y017400D02*
X008743Y017477D01*
X008781Y017477D02*
X008666Y017477D01*
X008666Y017400D02*
X008666Y017631D01*
X008781Y017631D01*
X008819Y017592D01*
X008819Y017515D01*
X008781Y017477D01*
X008896Y017554D02*
X008973Y017631D01*
X008973Y017400D01*
X009754Y019115D02*
X009869Y019115D01*
X009907Y019153D01*
X009907Y019307D01*
X009869Y019345D01*
X009754Y019345D01*
X009754Y019115D01*
X009984Y019115D02*
X010137Y019269D01*
X010137Y019307D01*
X010099Y019345D01*
X010022Y019345D01*
X009984Y019307D01*
X009984Y019115D02*
X010137Y019115D01*
X010214Y019153D02*
X010253Y019115D01*
X010329Y019115D01*
X010368Y019153D01*
X010368Y019307D01*
X010329Y019345D01*
X010253Y019345D01*
X010214Y019307D01*
X010214Y019269D01*
X010253Y019230D01*
X010368Y019230D01*
X009724Y021405D02*
X009570Y021405D01*
X009724Y021558D01*
X009724Y021597D01*
X009685Y021635D01*
X009608Y021635D01*
X009570Y021597D01*
X009493Y021597D02*
X009455Y021635D01*
X009340Y021635D01*
X009340Y021405D01*
X009455Y021405D01*
X009493Y021443D01*
X009493Y021597D01*
X009067Y021559D02*
X008913Y021559D01*
X008990Y021559D02*
X008990Y021789D01*
X008913Y021713D01*
X008836Y021674D02*
X008683Y021674D01*
X008798Y021789D01*
X008798Y021559D01*
X008606Y021559D02*
X008529Y021636D01*
X008568Y021636D02*
X008453Y021636D01*
X008453Y021559D02*
X008453Y021789D01*
X008568Y021789D01*
X008606Y021751D01*
X008606Y021674D01*
X008568Y021636D01*
X008319Y021704D02*
X008319Y021743D01*
X008281Y021781D01*
X008204Y021781D01*
X008166Y021743D01*
X008089Y021666D02*
X007936Y021666D01*
X008051Y021781D01*
X008051Y021551D01*
X008166Y021551D02*
X008319Y021704D01*
X008319Y021551D02*
X008166Y021551D01*
X007859Y021551D02*
X007782Y021627D01*
X007820Y021627D02*
X007705Y021627D01*
X007705Y021551D02*
X007705Y021781D01*
X007820Y021781D01*
X007859Y021743D01*
X007859Y021666D01*
X007820Y021627D01*
X007322Y021584D02*
X007322Y021546D01*
X007284Y021508D01*
X007322Y021469D01*
X007322Y021431D01*
X007284Y021393D01*
X007207Y021393D01*
X007169Y021431D01*
X007092Y021431D02*
X007054Y021393D01*
X006939Y021393D01*
X006939Y021623D01*
X007054Y021623D01*
X007092Y021584D01*
X007092Y021431D01*
X007169Y021584D02*
X007207Y021623D01*
X007284Y021623D01*
X007322Y021584D01*
X007284Y021508D02*
X007246Y021508D01*
X004820Y016975D02*
X004743Y016898D01*
X004666Y016936D02*
X004513Y016783D01*
X004513Y016744D01*
X004436Y016783D02*
X004398Y016744D01*
X004321Y016744D01*
X004283Y016783D01*
X004283Y016936D01*
X004321Y016975D01*
X004398Y016975D01*
X004436Y016936D01*
X004513Y016975D02*
X004666Y016975D01*
X004666Y016936D01*
X004820Y016975D02*
X004820Y016744D01*
X004896Y016744D02*
X004743Y016744D01*
X012599Y021799D02*
X012714Y021799D01*
X012752Y021837D01*
X012752Y021990D01*
X012714Y022029D01*
X012599Y022029D01*
X012599Y021799D01*
X012829Y021799D02*
X012982Y021799D01*
X012906Y021799D02*
X012906Y022029D01*
X012829Y021952D01*
X012979Y021481D02*
X013133Y021481D01*
X013210Y021404D02*
X013286Y021481D01*
X013286Y021250D01*
X013210Y021250D02*
X013363Y021250D01*
X013056Y021365D02*
X012979Y021365D01*
X012979Y021250D02*
X012979Y021481D01*
X014287Y020263D02*
X014287Y020109D01*
X014326Y020071D01*
X014402Y020071D01*
X014441Y020109D01*
X014517Y020071D02*
X014671Y020071D01*
X014594Y020071D02*
X014594Y020301D01*
X014517Y020224D01*
X014441Y020263D02*
X014402Y020301D01*
X014326Y020301D01*
X014287Y020263D01*
X014526Y019731D02*
X014488Y019693D01*
X014488Y019540D01*
X014526Y019501D01*
X014603Y019501D01*
X014642Y019540D01*
X014718Y019501D02*
X014872Y019655D01*
X014872Y019693D01*
X014833Y019731D01*
X014757Y019731D01*
X014718Y019693D01*
X014642Y019693D02*
X014603Y019731D01*
X014526Y019731D01*
X014718Y019501D02*
X014872Y019501D01*
X015856Y018795D02*
X015856Y018642D01*
X015895Y018603D01*
X015971Y018603D01*
X016010Y018642D01*
X016087Y018642D02*
X016125Y018603D01*
X016202Y018603D01*
X016240Y018642D01*
X016240Y018680D01*
X016202Y018718D01*
X016087Y018718D01*
X016087Y018642D01*
X016087Y018718D02*
X016163Y018795D01*
X016240Y018833D01*
X016010Y018795D02*
X015971Y018833D01*
X015895Y018833D01*
X015856Y018795D01*
X016315Y020437D02*
X016392Y020437D01*
X016430Y020475D01*
X016507Y020475D02*
X016507Y020437D01*
X016507Y020475D02*
X016661Y020628D01*
X016661Y020667D01*
X016507Y020667D01*
X016430Y020628D02*
X016392Y020667D01*
X016315Y020667D01*
X016277Y020628D01*
X016277Y020475D01*
X016315Y020437D01*
X016737Y020552D02*
X016891Y020552D01*
X016852Y020667D02*
X016737Y020552D01*
X016852Y020437D02*
X016852Y020667D01*
X017103Y020745D02*
X017103Y020937D01*
X017257Y020937D02*
X017257Y020745D01*
X017218Y020706D01*
X017141Y020706D01*
X017103Y020745D01*
X017333Y020706D02*
X017487Y020860D01*
X017487Y020898D01*
X017448Y020937D01*
X017372Y020937D01*
X017333Y020898D01*
X017333Y020706D02*
X017487Y020706D01*
X017715Y021081D02*
X017902Y021081D01*
X017991Y021127D02*
X017991Y021221D01*
X018038Y021267D01*
X018131Y021267D01*
X018178Y021221D01*
X018178Y021127D01*
X018131Y021081D01*
X018038Y021081D01*
X017991Y021127D01*
X017902Y021314D02*
X017715Y021127D01*
X017715Y021081D01*
X017715Y021361D02*
X017902Y021361D01*
X017902Y021314D01*
X017855Y021531D02*
X017902Y021577D01*
X017902Y021764D01*
X017855Y021811D01*
X017715Y021811D01*
X017715Y021531D01*
X017855Y021531D01*
X017991Y021577D02*
X018038Y021531D01*
X018131Y021531D01*
X018178Y021577D01*
X018178Y021671D01*
X018131Y021717D01*
X018038Y021717D01*
X017991Y021671D01*
X017991Y021577D01*
X018267Y021531D02*
X018267Y021717D01*
X018407Y021717D01*
X018454Y021671D01*
X018454Y021531D01*
X018544Y021577D02*
X018590Y021531D01*
X018730Y021531D01*
X018730Y021484D02*
X018730Y021717D01*
X018590Y021717D01*
X018544Y021671D01*
X018544Y021577D01*
X018637Y021437D02*
X018684Y021437D01*
X018730Y021484D01*
X018776Y021267D02*
X018682Y021267D01*
X018682Y021174D02*
X018822Y021174D01*
X018822Y021221D02*
X018822Y021081D01*
X018682Y021081D01*
X018636Y021127D01*
X018682Y021174D01*
X018776Y021267D02*
X018822Y021221D01*
X018912Y021267D02*
X019052Y021267D01*
X019099Y021221D01*
X019099Y021081D01*
X018912Y021081D02*
X018912Y021267D01*
X018545Y021267D02*
X018452Y021267D01*
X018498Y021314D02*
X018498Y021127D01*
X018545Y021081D01*
X018361Y021081D02*
X018267Y021081D01*
X018314Y021081D02*
X018314Y021361D01*
X018267Y021361D01*
X018222Y021981D02*
X018175Y022027D01*
X018175Y022121D01*
X018222Y022167D01*
X018315Y022167D01*
X018362Y022121D01*
X018362Y022074D01*
X018175Y022074D01*
X018222Y021981D02*
X018315Y021981D01*
X018452Y021981D02*
X018638Y022167D01*
X018452Y022167D02*
X018638Y021981D01*
X019004Y021981D02*
X019144Y021981D01*
X019191Y022027D01*
X019191Y022074D01*
X019144Y022121D01*
X019004Y022121D01*
X019004Y021981D02*
X019004Y022261D01*
X019144Y022261D01*
X019191Y022214D01*
X019191Y022167D01*
X019144Y022121D01*
X019280Y022121D02*
X019327Y022167D01*
X019420Y022167D01*
X019467Y022121D01*
X019467Y021981D01*
X019556Y022027D02*
X019603Y022074D01*
X019743Y022074D01*
X019743Y022121D02*
X019743Y021981D01*
X019603Y021981D01*
X019556Y022027D01*
X019603Y022167D02*
X019697Y022167D01*
X019743Y022121D01*
X019833Y022167D02*
X019973Y022167D01*
X020020Y022121D01*
X020020Y021981D01*
X020109Y022027D02*
X020109Y022121D01*
X020156Y022167D01*
X020296Y022167D01*
X020296Y022261D02*
X020296Y021981D01*
X020156Y021981D01*
X020109Y022027D01*
X019971Y021811D02*
X019971Y021531D01*
X019925Y021531D02*
X020018Y021531D01*
X019835Y021577D02*
X019835Y021671D01*
X019789Y021717D01*
X019695Y021717D01*
X019649Y021671D01*
X019649Y021577D01*
X019695Y021531D01*
X019789Y021531D01*
X019835Y021577D01*
X019925Y021811D02*
X019971Y021811D01*
X019833Y021981D02*
X019833Y022167D01*
X019512Y021717D02*
X019559Y021671D01*
X019559Y021624D01*
X019372Y021624D01*
X019372Y021671D02*
X019419Y021717D01*
X019512Y021717D01*
X019372Y021671D02*
X019372Y021577D01*
X019419Y021531D01*
X019512Y021531D01*
X019464Y021361D02*
X019604Y021361D01*
X019651Y021314D01*
X019651Y021267D01*
X019604Y021221D01*
X019464Y021221D01*
X019464Y021081D02*
X019464Y021361D01*
X019604Y021221D02*
X019651Y021174D01*
X019651Y021127D01*
X019604Y021081D01*
X019464Y021081D01*
X019741Y021127D02*
X019787Y021174D01*
X019927Y021174D01*
X019927Y021221D02*
X019927Y021081D01*
X019787Y021081D01*
X019741Y021127D01*
X019787Y021267D02*
X019881Y021267D01*
X019927Y021221D01*
X020017Y021267D02*
X020017Y021081D01*
X020017Y021174D02*
X020110Y021267D01*
X020157Y021267D01*
X020247Y021221D02*
X020294Y021267D01*
X020434Y021267D01*
X020434Y021361D02*
X020434Y021081D01*
X020294Y021081D01*
X020247Y021127D01*
X020247Y021221D01*
X020523Y021221D02*
X020523Y021127D01*
X020570Y021081D01*
X020663Y021081D01*
X020710Y021127D01*
X020710Y021221D01*
X020663Y021267D01*
X020570Y021267D01*
X020523Y021221D01*
X020800Y021221D02*
X020846Y021267D01*
X020986Y021267D01*
X020940Y021174D02*
X020846Y021174D01*
X020800Y021221D01*
X020800Y021081D02*
X020940Y021081D01*
X020986Y021127D01*
X020940Y021174D01*
X020984Y021531D02*
X020938Y021577D01*
X020938Y021671D01*
X020984Y021717D01*
X021078Y021717D01*
X021124Y021671D01*
X021124Y021624D01*
X020938Y021624D01*
X020848Y021624D02*
X020661Y021624D01*
X020661Y021671D02*
X020708Y021717D01*
X020802Y021717D01*
X020848Y021671D01*
X020848Y021624D01*
X020802Y021531D02*
X020708Y021531D01*
X020661Y021577D01*
X020661Y021671D01*
X020572Y021531D02*
X020385Y021531D01*
X020385Y021811D01*
X020432Y021981D02*
X020385Y022027D01*
X020432Y022074D01*
X020572Y022074D01*
X020572Y022121D02*
X020572Y021981D01*
X020432Y021981D01*
X020432Y022167D02*
X020525Y022167D01*
X020572Y022121D01*
X020661Y022167D02*
X020661Y021981D01*
X020661Y022074D02*
X020755Y022167D01*
X020802Y022167D01*
X020892Y022167D02*
X020938Y022167D01*
X020938Y021981D01*
X020892Y021981D02*
X020985Y021981D01*
X021076Y022121D02*
X021263Y022121D01*
X021352Y022214D02*
X021445Y022121D01*
X021445Y021981D01*
X021445Y022121D02*
X021539Y022214D01*
X021539Y022261D01*
X021675Y022167D02*
X021628Y022121D01*
X021628Y022027D01*
X021675Y021981D01*
X021768Y021981D01*
X021815Y022027D01*
X021815Y022121D01*
X021768Y022167D01*
X021675Y022167D01*
X021904Y022167D02*
X021904Y022027D01*
X021951Y021981D01*
X022091Y021981D01*
X022091Y022167D01*
X022181Y022167D02*
X022321Y022167D01*
X022368Y022121D01*
X022368Y021981D01*
X022457Y022027D02*
X022504Y021981D01*
X022644Y021981D01*
X022644Y021934D02*
X022644Y022167D01*
X022504Y022167D01*
X022457Y022121D01*
X022457Y022027D01*
X022550Y021887D02*
X022597Y021887D01*
X022644Y021934D01*
X022181Y021981D02*
X022181Y022167D01*
X021352Y022214D02*
X021352Y022261D01*
X020938Y022261D02*
X020938Y022308D01*
X020984Y021531D02*
X021078Y021531D01*
X021703Y020640D02*
X021665Y020602D01*
X021665Y020448D01*
X021703Y020410D01*
X021780Y020410D01*
X021818Y020448D01*
X021895Y020448D02*
X021933Y020410D01*
X022010Y020410D01*
X022048Y020448D01*
X022048Y020487D01*
X022010Y020525D01*
X021972Y020525D01*
X022010Y020525D02*
X022048Y020563D01*
X022048Y020602D01*
X022010Y020640D01*
X021933Y020640D01*
X021895Y020602D01*
X021818Y020602D02*
X021780Y020640D01*
X021703Y020640D01*
X020608Y020357D02*
X020608Y020319D01*
X020455Y020165D01*
X020608Y020165D01*
X020531Y020071D02*
X020531Y019841D01*
X020454Y019841D02*
X020608Y019841D01*
X020454Y019994D02*
X020531Y020071D01*
X020377Y020032D02*
X020377Y019956D01*
X020339Y019917D01*
X020224Y019917D01*
X020224Y019841D02*
X020224Y020071D01*
X020339Y020071D01*
X020377Y020032D01*
X020378Y020165D02*
X020301Y020242D01*
X020340Y020242D02*
X020225Y020242D01*
X020225Y020165D02*
X020225Y020395D01*
X020340Y020395D01*
X020378Y020357D01*
X020378Y020280D01*
X020340Y020242D01*
X020455Y020357D02*
X020493Y020395D01*
X020570Y020395D01*
X020608Y020357D01*
X020301Y019917D02*
X020377Y019841D01*
X019189Y021531D02*
X019189Y021671D01*
X019283Y021764D01*
X019283Y021811D01*
X019189Y021671D02*
X019096Y021764D01*
X019096Y021811D01*
X019280Y021981D02*
X019280Y022261D01*
X018085Y021981D02*
X017991Y021981D01*
X018038Y021981D02*
X018038Y022261D01*
X017991Y022261D01*
X017902Y022167D02*
X017902Y021981D01*
X017902Y022121D02*
X017715Y022121D01*
X017715Y022167D02*
X017808Y022261D01*
X017902Y022167D01*
X017715Y022167D02*
X017715Y021981D01*
X017130Y021405D02*
X016976Y021405D01*
X016976Y021289D01*
X017053Y021328D01*
X017091Y021328D01*
X017130Y021289D01*
X017130Y021213D01*
X017091Y021174D01*
X017015Y021174D01*
X016976Y021213D01*
X016899Y021213D02*
X016861Y021174D01*
X016784Y021174D01*
X016746Y021213D01*
X016746Y021366D01*
X016784Y021405D01*
X016861Y021405D01*
X016899Y021366D01*
X015480Y022503D02*
X015327Y022350D01*
X015327Y022312D01*
X015250Y022350D02*
X015212Y022312D01*
X015135Y022312D01*
X015097Y022350D01*
X015020Y022350D02*
X015020Y022503D01*
X014981Y022542D01*
X014866Y022542D01*
X014866Y022312D01*
X014981Y022312D01*
X015020Y022350D01*
X015173Y022427D02*
X015212Y022427D01*
X015250Y022388D01*
X015250Y022350D01*
X015212Y022427D02*
X015250Y022465D01*
X015250Y022503D01*
X015212Y022542D01*
X015135Y022542D01*
X015097Y022503D01*
X015327Y022542D02*
X015480Y022542D01*
X015480Y022503D01*
X015516Y023131D02*
X015477Y023170D01*
X015516Y023131D02*
X015592Y023131D01*
X015631Y023170D01*
X015631Y023208D01*
X015592Y023246D01*
X015554Y023246D01*
X015592Y023246D02*
X015631Y023285D01*
X015631Y023323D01*
X015592Y023362D01*
X015516Y023362D01*
X015477Y023323D01*
X015401Y023323D02*
X015362Y023362D01*
X015247Y023362D01*
X015247Y023131D01*
X015362Y023131D01*
X015401Y023170D01*
X015401Y023323D01*
X015708Y023323D02*
X015708Y023285D01*
X015746Y023246D01*
X015823Y023246D01*
X015861Y023208D01*
X015861Y023170D01*
X015823Y023131D01*
X015746Y023131D01*
X015708Y023170D01*
X015708Y023208D01*
X015746Y023246D01*
X015823Y023246D02*
X015861Y023285D01*
X015861Y023323D01*
X015823Y023362D01*
X015746Y023362D01*
X015708Y023323D01*
X016473Y023360D02*
X016473Y023130D01*
X016473Y023207D02*
X016588Y023207D01*
X016626Y023245D01*
X016626Y023322D01*
X016588Y023360D01*
X016473Y023360D01*
X016550Y023207D02*
X016626Y023130D01*
X016703Y023168D02*
X016741Y023130D01*
X016818Y023130D01*
X016856Y023168D01*
X016856Y023207D01*
X016818Y023245D01*
X016780Y023245D01*
X016818Y023245D02*
X016856Y023284D01*
X016856Y023322D01*
X016818Y023360D01*
X016741Y023360D01*
X016703Y023322D01*
X021703Y018180D02*
X021665Y018142D01*
X021665Y017988D01*
X021703Y017950D01*
X021780Y017950D01*
X021818Y017988D01*
X021895Y018065D02*
X022048Y018065D01*
X022010Y017950D02*
X022010Y018180D01*
X021895Y018065D01*
X021818Y018142D02*
X021780Y018180D01*
X021703Y018180D01*
X023011Y019788D02*
X023126Y019788D01*
X023164Y019826D01*
X023164Y019979D01*
X023126Y020018D01*
X023011Y020018D01*
X023011Y019788D01*
X023241Y019826D02*
X023279Y019788D01*
X023356Y019788D01*
X023394Y019826D01*
X023394Y019864D01*
X023356Y019903D01*
X023317Y019903D01*
X023356Y019903D02*
X023394Y019941D01*
X023394Y019979D01*
X023356Y020018D01*
X023279Y020018D01*
X023241Y019979D01*
X023471Y019903D02*
X023586Y019903D01*
X023624Y019864D01*
X023624Y019826D01*
X023586Y019788D01*
X023509Y019788D01*
X023471Y019826D01*
X023471Y019903D01*
X023548Y019979D01*
X023624Y020018D01*
X022841Y016203D02*
X022764Y016203D01*
X022726Y016164D01*
X022726Y016126D01*
X022764Y016087D01*
X022880Y016087D01*
X022880Y016011D02*
X022880Y016164D01*
X022841Y016203D01*
X022649Y016164D02*
X022611Y016203D01*
X022534Y016203D01*
X022496Y016164D01*
X022496Y016011D01*
X022534Y015972D01*
X022611Y015972D01*
X022649Y016011D01*
X022726Y016011D02*
X022764Y015972D01*
X022841Y015972D01*
X022880Y016011D01*
X022845Y014549D02*
X022692Y014549D01*
X022692Y014434D01*
X022768Y014473D01*
X022807Y014473D01*
X022845Y014434D01*
X022845Y014358D01*
X022807Y014319D01*
X022730Y014319D01*
X022692Y014358D01*
X022615Y014319D02*
X022462Y014319D01*
X022615Y014473D01*
X022615Y014511D01*
X022577Y014549D01*
X022500Y014549D01*
X022462Y014511D01*
X022385Y014511D02*
X022385Y014358D01*
X022346Y014319D01*
X022231Y014319D01*
X022231Y014549D01*
X022346Y014549D01*
X022385Y014511D01*
X022333Y013551D02*
X022371Y013513D01*
X022371Y013436D01*
X022333Y013398D01*
X022218Y013398D01*
X022295Y013398D02*
X022371Y013321D01*
X022448Y013359D02*
X022486Y013321D01*
X022563Y013321D01*
X022602Y013359D01*
X022602Y013436D01*
X022563Y013475D01*
X022525Y013475D01*
X022448Y013436D01*
X022448Y013551D01*
X022602Y013551D01*
X022333Y013551D02*
X022218Y013551D01*
X022218Y013321D01*
X022249Y012500D02*
X022364Y012500D01*
X022403Y012461D01*
X022403Y012308D01*
X022364Y012269D01*
X022249Y012269D01*
X022249Y012500D01*
X022479Y012461D02*
X022479Y012423D01*
X022518Y012384D01*
X022633Y012384D01*
X022633Y012308D02*
X022633Y012461D01*
X022595Y012500D01*
X022518Y012500D01*
X022479Y012461D01*
X022479Y012308D02*
X022518Y012269D01*
X022595Y012269D01*
X022633Y012308D01*
X018448Y016758D02*
X018217Y016758D01*
X018217Y016873D01*
X018256Y016911D01*
X018333Y016911D01*
X018371Y016873D01*
X018371Y016758D01*
X018371Y016834D02*
X018448Y016911D01*
X018448Y016988D02*
X018409Y016988D01*
X018256Y017141D01*
X018217Y017141D01*
X018217Y016988D01*
X016929Y016886D02*
X016852Y016847D01*
X016775Y016771D01*
X016890Y016771D01*
X016929Y016732D01*
X016929Y016694D01*
X016890Y016656D01*
X016814Y016656D01*
X016775Y016694D01*
X016775Y016771D01*
X016699Y016847D02*
X016545Y016694D01*
X016545Y016656D01*
X016468Y016694D02*
X016430Y016656D01*
X016353Y016656D01*
X016315Y016694D01*
X016315Y016847D01*
X016353Y016886D01*
X016430Y016886D01*
X016468Y016847D01*
X016545Y016886D02*
X016699Y016886D01*
X016699Y016847D01*
D11*
X017322Y023096D02*
X017505Y023096D01*
X017597Y023187D01*
X017782Y023096D02*
X017782Y023463D01*
X017966Y023646D01*
X018149Y023463D01*
X018149Y023096D01*
X018335Y023096D02*
X018335Y023646D01*
X018702Y023096D01*
X018702Y023646D01*
X018149Y023371D02*
X017782Y023371D01*
X017597Y023554D02*
X017505Y023646D01*
X017322Y023646D01*
X017230Y023554D01*
X017230Y023187D01*
X017322Y023096D01*
X019440Y023096D02*
X019440Y023646D01*
X019715Y023646D01*
X019807Y023554D01*
X019807Y023371D01*
X019715Y023279D01*
X019440Y023279D01*
X019623Y023279D02*
X019807Y023096D01*
X019992Y023187D02*
X019992Y023371D01*
X020084Y023463D01*
X020267Y023463D01*
X020359Y023371D01*
X020359Y023279D01*
X019992Y023279D01*
X019992Y023187D02*
X020084Y023096D01*
X020267Y023096D01*
X020545Y023096D02*
X020545Y023463D01*
X020636Y023463D01*
X020728Y023371D01*
X020820Y023463D01*
X020912Y023371D01*
X020912Y023096D01*
X020728Y023096D02*
X020728Y023371D01*
X021097Y023371D02*
X021097Y023187D01*
X021189Y023096D01*
X021372Y023096D01*
X021464Y023187D01*
X021464Y023371D01*
X021372Y023463D01*
X021189Y023463D01*
X021097Y023371D01*
X021650Y023463D02*
X021833Y023463D01*
X021741Y023554D02*
X021741Y023187D01*
X021833Y023096D01*
X022018Y023187D02*
X022018Y023371D01*
X022110Y023463D01*
X022293Y023463D01*
X022385Y023371D01*
X022385Y023279D01*
X022018Y023279D01*
X022018Y023187D02*
X022110Y023096D01*
X022293Y023096D01*
X023123Y023096D02*
X023306Y023096D01*
X023215Y023096D02*
X023215Y023646D01*
X023306Y023646D02*
X023123Y023646D01*
X023491Y023096D02*
X023858Y023646D01*
X024044Y023554D02*
X024044Y023187D01*
X024135Y023096D01*
X024319Y023096D01*
X024411Y023187D01*
X024411Y023554D01*
X024319Y023646D01*
X024135Y023646D01*
X024044Y023554D01*
X010012Y018998D02*
X010012Y018368D01*
X009962Y018368D01*
X009913Y018368D01*
X009913Y018998D01*
X009884Y018998D01*
X009884Y018368D01*
X009913Y018368D01*
X009884Y018368D02*
X008614Y018368D01*
X008614Y018998D01*
X009884Y018998D01*
X009913Y018998D02*
X009962Y018998D01*
X009962Y018368D01*
X009585Y018161D02*
X008797Y018161D01*
X008797Y017767D01*
X009585Y017767D01*
X009585Y018161D01*
X009962Y018998D02*
X010012Y018998D01*
X009122Y016012D02*
X008333Y016012D01*
X008333Y015618D01*
X009122Y015618D01*
X009122Y016012D01*
X009264Y014804D02*
X008870Y014804D01*
X008870Y014016D01*
X009264Y014016D01*
X009264Y014804D01*
X008517Y014801D02*
X008517Y014013D01*
X008122Y014013D01*
X008122Y014801D01*
X008517Y014801D01*
X007550Y014799D02*
X007550Y014011D01*
X007155Y014011D01*
X007155Y014799D01*
X007550Y014799D01*
X007032Y014797D02*
X006638Y014797D01*
X006638Y014008D01*
X007032Y014008D01*
X007032Y014797D01*
X006478Y014793D02*
X006478Y014005D01*
X006084Y014005D01*
X006084Y014793D01*
X006478Y014793D01*
X005961Y014798D02*
X005961Y014010D01*
X005566Y014010D01*
X005566Y014798D01*
X005961Y014798D01*
X005979Y013694D02*
X005979Y011528D01*
X006176Y011331D01*
X008342Y011331D01*
X008342Y013694D01*
X005979Y013694D01*
X005417Y013651D02*
X005417Y013257D01*
X004629Y013257D01*
X004629Y013651D01*
X005417Y013651D01*
X005417Y013140D02*
X004629Y013140D01*
X004629Y012746D01*
X005417Y012746D01*
X005417Y013140D01*
X005420Y012633D02*
X004632Y012633D01*
X004632Y012239D01*
X005420Y012239D01*
X005420Y012633D01*
X005417Y012120D02*
X004629Y012120D01*
X004629Y011726D01*
X005417Y011726D01*
X005417Y012120D01*
X005418Y011604D02*
X004630Y011604D01*
X004630Y011209D01*
X005418Y011209D01*
X005418Y011604D01*
X005979Y011528D02*
X005979Y011331D01*
X006176Y011331D01*
X006275Y011233D02*
X006176Y011134D01*
X006373Y011134D01*
X006275Y011233D01*
X006308Y011199D02*
X006241Y011199D01*
X006192Y011150D02*
X006357Y011150D01*
X006505Y010732D02*
X006110Y010732D01*
X006110Y009944D01*
X006505Y009944D01*
X006505Y010732D01*
X006623Y010733D02*
X006623Y009945D01*
X007017Y009945D01*
X007017Y010733D01*
X006623Y010733D01*
X007137Y010611D02*
X007767Y010611D01*
X007767Y010562D01*
X007767Y010512D01*
X007137Y010512D01*
X007137Y010483D01*
X007767Y010483D01*
X007767Y010512D01*
X007767Y010483D02*
X007767Y009213D01*
X007137Y009213D01*
X007137Y010483D01*
X007137Y010512D02*
X007137Y010562D01*
X007767Y010562D01*
X007907Y010199D02*
X007907Y009411D01*
X008302Y009411D01*
X008302Y010199D01*
X007907Y010199D01*
X007137Y010562D02*
X007137Y010611D01*
X005992Y010730D02*
X005992Y009942D01*
X005597Y009942D01*
X005597Y010730D01*
X005992Y010730D01*
X005418Y010732D02*
X005024Y010732D01*
X005024Y009944D01*
X005418Y009944D01*
X005418Y010732D01*
X003849Y011113D02*
X003849Y010325D01*
X003455Y010325D01*
X003455Y011113D01*
X003849Y011113D01*
X003265Y011699D02*
X002635Y011699D01*
X002635Y011728D01*
X003265Y011728D01*
X003265Y011778D01*
X003265Y011827D01*
X002635Y011827D01*
X002635Y011778D01*
X003265Y011778D01*
X003265Y011728D02*
X003265Y011699D01*
X003265Y010429D01*
X002635Y010429D01*
X002635Y011699D01*
X002635Y011728D02*
X002635Y011778D01*
X002625Y012542D02*
X003254Y012542D01*
X003254Y012592D01*
X002625Y012592D01*
X002625Y012641D01*
X003254Y012641D01*
X003254Y012671D01*
X002625Y012671D01*
X002625Y012641D01*
X002625Y012671D02*
X002625Y013940D01*
X003254Y013940D01*
X003254Y012671D01*
X003254Y012641D02*
X003254Y012592D01*
X002625Y012592D02*
X002625Y012542D01*
X003536Y014340D02*
X004324Y014340D01*
X004324Y014734D01*
X003536Y014734D01*
X003536Y014340D01*
X003794Y015052D02*
X003872Y015052D01*
X004384Y015643D02*
X004384Y015800D01*
X003872Y016391D02*
X003794Y016391D01*
X004131Y016688D02*
X004131Y017082D01*
X003343Y017082D01*
X003343Y016688D01*
X004131Y016688D01*
X003282Y015800D02*
X003282Y015643D01*
X008647Y011898D02*
X008647Y010599D01*
X009316Y010599D01*
X009316Y011898D01*
X008647Y011898D01*
X008976Y012133D02*
X008976Y012528D01*
X009764Y012528D01*
X009764Y012133D01*
X008976Y012133D01*
X008982Y012758D02*
X009770Y012758D01*
X009770Y013152D01*
X008982Y013152D01*
X008982Y012758D01*
X008876Y010203D02*
X008482Y010203D01*
X008482Y009415D01*
X008876Y009415D01*
X008876Y010203D01*
D12*
X003342Y008646D02*
X003342Y008610D01*
X003305Y008573D01*
X003342Y008536D01*
X003342Y008500D01*
X003305Y008463D01*
X003232Y008463D01*
X003195Y008500D01*
X003112Y008500D02*
X003112Y008646D01*
X003075Y008683D01*
X003002Y008683D01*
X002965Y008646D01*
X002965Y008500D01*
X003002Y008463D01*
X003075Y008463D01*
X003112Y008500D01*
X003112Y008463D02*
X003038Y008536D01*
X003195Y008646D02*
X003232Y008683D01*
X003305Y008683D01*
X003342Y008646D01*
X003305Y008573D02*
X003269Y008573D01*
X008641Y016435D02*
X008604Y016472D01*
X008604Y016619D01*
X008641Y016656D01*
X008715Y016656D01*
X008751Y016619D01*
X008751Y016472D01*
X008715Y016435D01*
X008641Y016435D01*
X008678Y016509D02*
X008751Y016435D01*
X008835Y016435D02*
X008981Y016435D01*
X008908Y016435D02*
X008908Y016656D01*
X008835Y016582D01*
X017239Y020649D02*
X017552Y020962D01*
X017552Y020806D02*
X017239Y020806D01*
X017239Y020962D02*
X017552Y020649D01*
X017395Y020649D02*
X017395Y020962D01*
X017270Y022586D02*
X017270Y022906D01*
X017430Y022906D01*
X017483Y022852D01*
X017483Y022746D01*
X017430Y022692D01*
X017270Y022692D01*
X017592Y022586D02*
X017806Y022906D01*
X017914Y022906D02*
X018128Y022586D01*
X018128Y022906D01*
X018237Y022799D02*
X018237Y022746D01*
X018290Y022746D01*
X018290Y022799D01*
X018237Y022799D01*
X018237Y022639D02*
X018237Y022586D01*
X018290Y022586D01*
X018290Y022639D01*
X018237Y022639D01*
X018720Y022692D02*
X018880Y022692D01*
X018934Y022746D01*
X018934Y022852D01*
X018880Y022906D01*
X018720Y022906D01*
X018720Y022586D01*
X019042Y022639D02*
X019096Y022586D01*
X019203Y022586D01*
X019256Y022639D01*
X019365Y022586D02*
X019525Y022586D01*
X019578Y022639D01*
X019578Y022692D01*
X019525Y022746D01*
X019365Y022746D01*
X019256Y022852D02*
X019203Y022906D01*
X019096Y022906D01*
X019042Y022852D01*
X019042Y022639D01*
X019365Y022586D02*
X019365Y022906D01*
X019525Y022906D01*
X019578Y022852D01*
X019578Y022799D01*
X019525Y022746D01*
X019687Y022746D02*
X019900Y022746D01*
X019900Y022799D02*
X019900Y022586D01*
X020009Y022746D02*
X020223Y022746D01*
X020331Y022852D02*
X020385Y022906D01*
X020492Y022906D01*
X020545Y022852D01*
X020331Y022639D01*
X020385Y022586D01*
X020492Y022586D01*
X020545Y022639D01*
X020545Y022852D01*
X020654Y022852D02*
X020654Y022639D01*
X020867Y022852D01*
X020867Y022639D01*
X020814Y022586D01*
X020707Y022586D01*
X020654Y022639D01*
X020654Y022852D02*
X020707Y022906D01*
X020814Y022906D01*
X020867Y022852D01*
X020976Y022799D02*
X021083Y022906D01*
X021083Y022586D01*
X020976Y022586D02*
X021190Y022586D01*
X021621Y022586D02*
X021621Y022906D01*
X021781Y022906D01*
X021834Y022852D01*
X021834Y022746D01*
X021781Y022692D01*
X021621Y022692D01*
X021727Y022692D02*
X021834Y022586D01*
X021943Y022639D02*
X021943Y022746D01*
X021996Y022799D01*
X022103Y022799D01*
X022156Y022746D01*
X022156Y022692D01*
X021943Y022692D01*
X021943Y022639D02*
X021996Y022586D01*
X022103Y022586D01*
X022265Y022799D02*
X022372Y022586D01*
X022479Y022799D01*
X022587Y022799D02*
X022694Y022906D01*
X022694Y022586D01*
X022587Y022586D02*
X022801Y022586D01*
X020331Y022639D02*
X020331Y022852D01*
X019900Y022799D02*
X019794Y022906D01*
X019687Y022799D01*
X019687Y022586D01*
X017914Y022586D02*
X017914Y022906D01*
X025356Y020609D02*
X025503Y020609D01*
X025429Y020609D02*
X025429Y020389D01*
X025586Y020389D02*
X025586Y020609D01*
X025696Y020609D01*
X025733Y020573D01*
X025733Y020499D01*
X025696Y020463D01*
X025586Y020463D01*
X025816Y020536D02*
X025890Y020609D01*
X025890Y020389D01*
X025963Y020389D02*
X025816Y020389D01*
X020720Y004480D02*
X020720Y004334D01*
X020720Y004407D02*
X020500Y004407D01*
X020573Y004334D01*
X020720Y004250D02*
X020720Y004103D01*
X020500Y004103D01*
X020573Y004020D02*
X020500Y003947D01*
X020573Y003873D01*
X020720Y003873D01*
X020610Y003873D02*
X020610Y004020D01*
X020573Y004020D02*
X020720Y004020D01*
X020500Y003790D02*
X020500Y003643D01*
X020500Y003716D02*
X020720Y003716D01*
X020720Y003560D02*
X020500Y003413D01*
X020500Y003560D02*
X020720Y003413D01*
X014097Y003681D02*
X013783Y003995D01*
X013940Y003995D02*
X013940Y003681D01*
X013783Y003681D02*
X014097Y003995D01*
X014097Y003838D02*
X013783Y003838D01*
D13*
X011280Y003996D02*
X008731Y003996D01*
X009500Y004017D02*
X009502Y004061D01*
X009508Y004104D01*
X009517Y004146D01*
X009530Y004188D01*
X009547Y004228D01*
X009567Y004267D01*
X009590Y004304D01*
X009617Y004338D01*
X009646Y004371D01*
X009679Y004400D01*
X009713Y004427D01*
X009750Y004450D01*
X009789Y004470D01*
X009829Y004487D01*
X009871Y004500D01*
X009913Y004509D01*
X009956Y004515D01*
X010000Y004517D01*
X010044Y004515D01*
X010087Y004509D01*
X010129Y004500D01*
X010171Y004487D01*
X010211Y004470D01*
X010250Y004450D01*
X010287Y004427D01*
X010321Y004400D01*
X010354Y004371D01*
X010383Y004338D01*
X010410Y004304D01*
X010433Y004267D01*
X010453Y004228D01*
X010470Y004188D01*
X010483Y004146D01*
X010492Y004104D01*
X010498Y004061D01*
X010500Y004017D01*
X011280Y007677D02*
X008731Y007677D01*
X017941Y011864D02*
X020490Y011864D01*
X019721Y015524D02*
X019719Y015480D01*
X019713Y015437D01*
X019704Y015395D01*
X019691Y015353D01*
X019674Y015313D01*
X019654Y015274D01*
X019631Y015237D01*
X019604Y015203D01*
X019575Y015170D01*
X019542Y015141D01*
X019508Y015114D01*
X019471Y015091D01*
X019432Y015071D01*
X019392Y015054D01*
X019350Y015041D01*
X019308Y015032D01*
X019265Y015026D01*
X019221Y015024D01*
X019177Y015026D01*
X019134Y015032D01*
X019092Y015041D01*
X019050Y015054D01*
X019010Y015071D01*
X018971Y015091D01*
X018934Y015114D01*
X018900Y015141D01*
X018867Y015170D01*
X018838Y015203D01*
X018811Y015237D01*
X018788Y015274D01*
X018768Y015313D01*
X018751Y015353D01*
X018738Y015395D01*
X018729Y015437D01*
X018723Y015480D01*
X018721Y015524D01*
X017941Y015545D02*
X020490Y015545D01*
D14*
X023149Y015762D02*
X023149Y016069D01*
X023226Y016069D01*
X023533Y015762D01*
X023610Y015762D01*
X024264Y015034D02*
X024267Y015032D01*
X023973Y014559D02*
X023975Y014606D01*
X023981Y014653D01*
X023990Y014699D01*
X024004Y014744D01*
X024021Y014788D01*
X024042Y014831D01*
X024066Y014871D01*
X024093Y014910D01*
X024124Y014946D01*
X024157Y014979D01*
X024193Y015010D01*
X024232Y015037D01*
X024272Y015061D01*
X024315Y015082D01*
X024359Y015099D01*
X024404Y015113D01*
X024450Y015122D01*
X024497Y015128D01*
X024544Y015130D01*
X024591Y015128D01*
X024638Y015122D01*
X024684Y015113D01*
X024729Y015099D01*
X024773Y015082D01*
X024816Y015061D01*
X024856Y015037D01*
X024895Y015010D01*
X024931Y014979D01*
X024964Y014946D01*
X024995Y014910D01*
X025022Y014871D01*
X025046Y014831D01*
X025067Y014788D01*
X025084Y014744D01*
X025098Y014699D01*
X025107Y014653D01*
X025113Y014606D01*
X025115Y014559D01*
X025113Y014512D01*
X025107Y014465D01*
X025098Y014419D01*
X025084Y014374D01*
X025067Y014330D01*
X025046Y014287D01*
X025022Y014247D01*
X024995Y014208D01*
X024964Y014172D01*
X024931Y014139D01*
X024895Y014108D01*
X024856Y014081D01*
X024816Y014057D01*
X024773Y014036D01*
X024729Y014019D01*
X024684Y014005D01*
X024638Y013996D01*
X024591Y013990D01*
X024544Y013988D01*
X024497Y013990D01*
X024450Y013996D01*
X024404Y014005D01*
X024359Y014019D01*
X024315Y014036D01*
X024272Y014057D01*
X024232Y014081D01*
X024193Y014108D01*
X024157Y014139D01*
X024124Y014172D01*
X024093Y014208D01*
X024066Y014247D01*
X024042Y014287D01*
X024021Y014330D01*
X024004Y014374D01*
X023990Y014419D01*
X023981Y014465D01*
X023975Y014512D01*
X023973Y014559D01*
X023610Y014618D02*
X023533Y014694D01*
X023456Y014694D01*
X023380Y014618D01*
X023380Y014387D01*
X023533Y014387D01*
X023610Y014464D01*
X023610Y014618D01*
X023380Y014387D02*
X023226Y014541D01*
X023149Y014694D01*
X024264Y013656D02*
X024267Y013654D01*
X023973Y013181D02*
X023975Y013228D01*
X023981Y013275D01*
X023990Y013321D01*
X024004Y013366D01*
X024021Y013410D01*
X024042Y013453D01*
X024066Y013493D01*
X024093Y013532D01*
X024124Y013568D01*
X024157Y013601D01*
X024193Y013632D01*
X024232Y013659D01*
X024272Y013683D01*
X024315Y013704D01*
X024359Y013721D01*
X024404Y013735D01*
X024450Y013744D01*
X024497Y013750D01*
X024544Y013752D01*
X024591Y013750D01*
X024638Y013744D01*
X024684Y013735D01*
X024729Y013721D01*
X024773Y013704D01*
X024816Y013683D01*
X024856Y013659D01*
X024895Y013632D01*
X024931Y013601D01*
X024964Y013568D01*
X024995Y013532D01*
X025022Y013493D01*
X025046Y013453D01*
X025067Y013410D01*
X025084Y013366D01*
X025098Y013321D01*
X025107Y013275D01*
X025113Y013228D01*
X025115Y013181D01*
X025113Y013134D01*
X025107Y013087D01*
X025098Y013041D01*
X025084Y012996D01*
X025067Y012952D01*
X025046Y012909D01*
X025022Y012869D01*
X024995Y012830D01*
X024964Y012794D01*
X024931Y012761D01*
X024895Y012730D01*
X024856Y012703D01*
X024816Y012679D01*
X024773Y012658D01*
X024729Y012641D01*
X024684Y012627D01*
X024638Y012618D01*
X024591Y012612D01*
X024544Y012610D01*
X024497Y012612D01*
X024450Y012618D01*
X024404Y012627D01*
X024359Y012641D01*
X024315Y012658D01*
X024272Y012679D01*
X024232Y012703D01*
X024193Y012730D01*
X024157Y012761D01*
X024124Y012794D01*
X024093Y012830D01*
X024066Y012869D01*
X024042Y012909D01*
X024021Y012952D01*
X024004Y012996D01*
X023990Y013041D01*
X023981Y013087D01*
X023975Y013134D01*
X023973Y013181D01*
X023610Y013243D02*
X023610Y013089D01*
X023533Y013012D01*
X023380Y013012D02*
X023303Y013166D01*
X023303Y013243D01*
X023380Y013319D01*
X023533Y013319D01*
X023610Y013243D01*
X023380Y013012D02*
X023149Y013012D01*
X023149Y013319D01*
X024264Y012278D02*
X024267Y012276D01*
X023973Y011803D02*
X023975Y011850D01*
X023981Y011897D01*
X023990Y011943D01*
X024004Y011988D01*
X024021Y012032D01*
X024042Y012075D01*
X024066Y012115D01*
X024093Y012154D01*
X024124Y012190D01*
X024157Y012223D01*
X024193Y012254D01*
X024232Y012281D01*
X024272Y012305D01*
X024315Y012326D01*
X024359Y012343D01*
X024404Y012357D01*
X024450Y012366D01*
X024497Y012372D01*
X024544Y012374D01*
X024591Y012372D01*
X024638Y012366D01*
X024684Y012357D01*
X024729Y012343D01*
X024773Y012326D01*
X024816Y012305D01*
X024856Y012281D01*
X024895Y012254D01*
X024931Y012223D01*
X024964Y012190D01*
X024995Y012154D01*
X025022Y012115D01*
X025046Y012075D01*
X025067Y012032D01*
X025084Y011988D01*
X025098Y011943D01*
X025107Y011897D01*
X025113Y011850D01*
X025115Y011803D01*
X025113Y011756D01*
X025107Y011709D01*
X025098Y011663D01*
X025084Y011618D01*
X025067Y011574D01*
X025046Y011531D01*
X025022Y011491D01*
X024995Y011452D01*
X024964Y011416D01*
X024931Y011383D01*
X024895Y011352D01*
X024856Y011325D01*
X024816Y011301D01*
X024773Y011280D01*
X024729Y011263D01*
X024684Y011249D01*
X024638Y011240D01*
X024591Y011234D01*
X024544Y011232D01*
X024497Y011234D01*
X024450Y011240D01*
X024404Y011249D01*
X024359Y011263D01*
X024315Y011280D01*
X024272Y011301D01*
X024232Y011325D01*
X024193Y011352D01*
X024157Y011383D01*
X024124Y011416D01*
X024093Y011452D01*
X024066Y011491D01*
X024042Y011531D01*
X024021Y011574D01*
X024004Y011618D01*
X023990Y011663D01*
X023981Y011709D01*
X023975Y011756D01*
X023973Y011803D01*
X023610Y011868D02*
X023149Y011868D01*
X023380Y011637D01*
X023380Y011944D01*
X024264Y010900D02*
X024267Y010898D01*
X023973Y010425D02*
X023975Y010472D01*
X023981Y010519D01*
X023990Y010565D01*
X024004Y010610D01*
X024021Y010654D01*
X024042Y010697D01*
X024066Y010737D01*
X024093Y010776D01*
X024124Y010812D01*
X024157Y010845D01*
X024193Y010876D01*
X024232Y010903D01*
X024272Y010927D01*
X024315Y010948D01*
X024359Y010965D01*
X024404Y010979D01*
X024450Y010988D01*
X024497Y010994D01*
X024544Y010996D01*
X024591Y010994D01*
X024638Y010988D01*
X024684Y010979D01*
X024729Y010965D01*
X024773Y010948D01*
X024816Y010927D01*
X024856Y010903D01*
X024895Y010876D01*
X024931Y010845D01*
X024964Y010812D01*
X024995Y010776D01*
X025022Y010737D01*
X025046Y010697D01*
X025067Y010654D01*
X025084Y010610D01*
X025098Y010565D01*
X025107Y010519D01*
X025113Y010472D01*
X025115Y010425D01*
X025113Y010378D01*
X025107Y010331D01*
X025098Y010285D01*
X025084Y010240D01*
X025067Y010196D01*
X025046Y010153D01*
X025022Y010113D01*
X024995Y010074D01*
X024964Y010038D01*
X024931Y010005D01*
X024895Y009974D01*
X024856Y009947D01*
X024816Y009923D01*
X024773Y009902D01*
X024729Y009885D01*
X024684Y009871D01*
X024638Y009862D01*
X024591Y009856D01*
X024544Y009854D01*
X024497Y009856D01*
X024450Y009862D01*
X024404Y009871D01*
X024359Y009885D01*
X024315Y009902D01*
X024272Y009923D01*
X024232Y009947D01*
X024193Y009974D01*
X024157Y010005D01*
X024124Y010038D01*
X024093Y010074D01*
X024066Y010113D01*
X024042Y010153D01*
X024021Y010196D01*
X024004Y010240D01*
X023990Y010285D01*
X023981Y010331D01*
X023975Y010378D01*
X023973Y010425D01*
X023610Y010493D02*
X023610Y010339D01*
X023533Y010262D01*
X023380Y010416D02*
X023380Y010493D01*
X023456Y010569D01*
X023533Y010569D01*
X023610Y010493D01*
X023380Y010493D02*
X023303Y010569D01*
X023226Y010569D01*
X023149Y010493D01*
X023149Y010339D01*
X023226Y010262D01*
X024264Y009522D02*
X024267Y009520D01*
X023973Y009048D02*
X023975Y009095D01*
X023981Y009142D01*
X023990Y009188D01*
X024004Y009233D01*
X024021Y009277D01*
X024042Y009320D01*
X024066Y009360D01*
X024093Y009399D01*
X024124Y009435D01*
X024157Y009468D01*
X024193Y009499D01*
X024232Y009526D01*
X024272Y009550D01*
X024315Y009571D01*
X024359Y009588D01*
X024404Y009602D01*
X024450Y009611D01*
X024497Y009617D01*
X024544Y009619D01*
X024591Y009617D01*
X024638Y009611D01*
X024684Y009602D01*
X024729Y009588D01*
X024773Y009571D01*
X024816Y009550D01*
X024856Y009526D01*
X024895Y009499D01*
X024931Y009468D01*
X024964Y009435D01*
X024995Y009399D01*
X025022Y009360D01*
X025046Y009320D01*
X025067Y009277D01*
X025084Y009233D01*
X025098Y009188D01*
X025107Y009142D01*
X025113Y009095D01*
X025115Y009048D01*
X025113Y009001D01*
X025107Y008954D01*
X025098Y008908D01*
X025084Y008863D01*
X025067Y008819D01*
X025046Y008776D01*
X025022Y008736D01*
X024995Y008697D01*
X024964Y008661D01*
X024931Y008628D01*
X024895Y008597D01*
X024856Y008570D01*
X024816Y008546D01*
X024773Y008525D01*
X024729Y008508D01*
X024684Y008494D01*
X024638Y008485D01*
X024591Y008479D01*
X024544Y008477D01*
X024497Y008479D01*
X024450Y008485D01*
X024404Y008494D01*
X024359Y008508D01*
X024315Y008525D01*
X024272Y008546D01*
X024232Y008570D01*
X024193Y008597D01*
X024157Y008628D01*
X024124Y008661D01*
X024093Y008697D01*
X024066Y008736D01*
X024042Y008776D01*
X024021Y008819D01*
X024004Y008863D01*
X023990Y008908D01*
X023981Y008954D01*
X023975Y009001D01*
X023973Y009048D01*
X023610Y009194D02*
X023610Y008887D01*
X023303Y009194D01*
X023226Y009194D01*
X023149Y009118D01*
X023149Y008964D01*
X023226Y008887D01*
X024264Y008144D02*
X024267Y008142D01*
X023973Y007670D02*
X023975Y007717D01*
X023981Y007764D01*
X023990Y007810D01*
X024004Y007855D01*
X024021Y007899D01*
X024042Y007942D01*
X024066Y007982D01*
X024093Y008021D01*
X024124Y008057D01*
X024157Y008090D01*
X024193Y008121D01*
X024232Y008148D01*
X024272Y008172D01*
X024315Y008193D01*
X024359Y008210D01*
X024404Y008224D01*
X024450Y008233D01*
X024497Y008239D01*
X024544Y008241D01*
X024591Y008239D01*
X024638Y008233D01*
X024684Y008224D01*
X024729Y008210D01*
X024773Y008193D01*
X024816Y008172D01*
X024856Y008148D01*
X024895Y008121D01*
X024931Y008090D01*
X024964Y008057D01*
X024995Y008021D01*
X025022Y007982D01*
X025046Y007942D01*
X025067Y007899D01*
X025084Y007855D01*
X025098Y007810D01*
X025107Y007764D01*
X025113Y007717D01*
X025115Y007670D01*
X025113Y007623D01*
X025107Y007576D01*
X025098Y007530D01*
X025084Y007485D01*
X025067Y007441D01*
X025046Y007398D01*
X025022Y007358D01*
X024995Y007319D01*
X024964Y007283D01*
X024931Y007250D01*
X024895Y007219D01*
X024856Y007192D01*
X024816Y007168D01*
X024773Y007147D01*
X024729Y007130D01*
X024684Y007116D01*
X024638Y007107D01*
X024591Y007101D01*
X024544Y007099D01*
X024497Y007101D01*
X024450Y007107D01*
X024404Y007116D01*
X024359Y007130D01*
X024315Y007147D01*
X024272Y007168D01*
X024232Y007192D01*
X024193Y007219D01*
X024157Y007250D01*
X024124Y007283D01*
X024093Y007319D01*
X024066Y007358D01*
X024042Y007398D01*
X024021Y007441D01*
X024004Y007485D01*
X023990Y007530D01*
X023981Y007576D01*
X023975Y007623D01*
X023973Y007670D01*
X023610Y007666D02*
X023149Y007666D01*
X023303Y007512D01*
X023610Y007512D02*
X023610Y007819D01*
X023752Y006882D02*
X023068Y006882D01*
X023068Y019481D01*
X023752Y019481D01*
X023939Y019481D01*
X023939Y006882D01*
X025141Y006882D01*
X025331Y006882D01*
X025651Y006882D01*
X025824Y006882D01*
X025942Y006882D01*
X025942Y019481D01*
X025824Y019481D01*
X025651Y019481D01*
X025651Y006882D01*
X025824Y006882D02*
X025824Y019481D01*
X025651Y019481D02*
X025331Y019481D01*
X025141Y019481D01*
X025141Y006882D01*
X025331Y006882D02*
X025331Y019481D01*
X025141Y019481D02*
X023939Y019481D01*
X023752Y019481D02*
X023752Y006882D01*
X023939Y006882D01*
X024729Y006723D02*
X025036Y006262D01*
X025189Y006262D02*
X025496Y006569D01*
X025496Y006646D01*
X025420Y006723D01*
X025266Y006723D01*
X025189Y006646D01*
X025036Y006723D02*
X024729Y006262D01*
X025189Y006262D02*
X025496Y006262D01*
X025380Y006992D02*
X025380Y007242D01*
X025630Y007117D01*
X025380Y006992D01*
X025380Y007018D02*
X025432Y007018D01*
X025380Y007057D02*
X025509Y007057D01*
X025586Y007095D02*
X025380Y007095D01*
X025380Y007134D02*
X025597Y007134D01*
X025520Y007172D02*
X025380Y007172D01*
X025380Y007211D02*
X025443Y007211D01*
X023973Y015937D02*
X023975Y015984D01*
X023981Y016031D01*
X023990Y016077D01*
X024004Y016122D01*
X024021Y016166D01*
X024042Y016209D01*
X024066Y016249D01*
X024093Y016288D01*
X024124Y016324D01*
X024157Y016357D01*
X024193Y016388D01*
X024232Y016415D01*
X024272Y016439D01*
X024315Y016460D01*
X024359Y016477D01*
X024404Y016491D01*
X024450Y016500D01*
X024497Y016506D01*
X024544Y016508D01*
X024591Y016506D01*
X024638Y016500D01*
X024684Y016491D01*
X024729Y016477D01*
X024773Y016460D01*
X024816Y016439D01*
X024856Y016415D01*
X024895Y016388D01*
X024931Y016357D01*
X024964Y016324D01*
X024995Y016288D01*
X025022Y016249D01*
X025046Y016209D01*
X025067Y016166D01*
X025084Y016122D01*
X025098Y016077D01*
X025107Y016031D01*
X025113Y015984D01*
X025115Y015937D01*
X025113Y015890D01*
X025107Y015843D01*
X025098Y015797D01*
X025084Y015752D01*
X025067Y015708D01*
X025046Y015665D01*
X025022Y015625D01*
X024995Y015586D01*
X024964Y015550D01*
X024931Y015517D01*
X024895Y015486D01*
X024856Y015459D01*
X024816Y015435D01*
X024773Y015414D01*
X024729Y015397D01*
X024684Y015383D01*
X024638Y015374D01*
X024591Y015368D01*
X024544Y015366D01*
X024497Y015368D01*
X024450Y015374D01*
X024404Y015383D01*
X024359Y015397D01*
X024315Y015414D01*
X024272Y015435D01*
X024232Y015459D01*
X024193Y015486D01*
X024157Y015517D01*
X024124Y015550D01*
X024093Y015586D01*
X024066Y015625D01*
X024042Y015665D01*
X024021Y015708D01*
X024004Y015752D01*
X023990Y015797D01*
X023981Y015843D01*
X023975Y015890D01*
X023973Y015937D01*
X024267Y016410D02*
X024264Y016412D01*
X023973Y017315D02*
X023975Y017362D01*
X023981Y017409D01*
X023990Y017455D01*
X024004Y017500D01*
X024021Y017544D01*
X024042Y017587D01*
X024066Y017627D01*
X024093Y017666D01*
X024124Y017702D01*
X024157Y017735D01*
X024193Y017766D01*
X024232Y017793D01*
X024272Y017817D01*
X024315Y017838D01*
X024359Y017855D01*
X024404Y017869D01*
X024450Y017878D01*
X024497Y017884D01*
X024544Y017886D01*
X024591Y017884D01*
X024638Y017878D01*
X024684Y017869D01*
X024729Y017855D01*
X024773Y017838D01*
X024816Y017817D01*
X024856Y017793D01*
X024895Y017766D01*
X024931Y017735D01*
X024964Y017702D01*
X024995Y017666D01*
X025022Y017627D01*
X025046Y017587D01*
X025067Y017544D01*
X025084Y017500D01*
X025098Y017455D01*
X025107Y017409D01*
X025113Y017362D01*
X025115Y017315D01*
X025113Y017268D01*
X025107Y017221D01*
X025098Y017175D01*
X025084Y017130D01*
X025067Y017086D01*
X025046Y017043D01*
X025022Y017003D01*
X024995Y016964D01*
X024964Y016928D01*
X024931Y016895D01*
X024895Y016864D01*
X024856Y016837D01*
X024816Y016813D01*
X024773Y016792D01*
X024729Y016775D01*
X024684Y016761D01*
X024638Y016752D01*
X024591Y016746D01*
X024544Y016744D01*
X024497Y016746D01*
X024450Y016752D01*
X024404Y016761D01*
X024359Y016775D01*
X024315Y016792D01*
X024272Y016813D01*
X024232Y016837D01*
X024193Y016864D01*
X024157Y016895D01*
X024124Y016928D01*
X024093Y016964D01*
X024066Y017003D01*
X024042Y017043D01*
X024021Y017086D01*
X024004Y017130D01*
X023990Y017175D01*
X023981Y017221D01*
X023975Y017268D01*
X023973Y017315D01*
X023610Y017368D02*
X023533Y017444D01*
X023456Y017444D01*
X023380Y017368D01*
X023380Y017214D01*
X023303Y017137D01*
X023226Y017137D01*
X023149Y017214D01*
X023149Y017368D01*
X023226Y017444D01*
X023303Y017444D01*
X023380Y017368D01*
X023380Y017214D02*
X023456Y017137D01*
X023533Y017137D01*
X023610Y017214D01*
X023610Y017368D01*
X024264Y017790D02*
X024267Y017788D01*
X023973Y018693D02*
X023975Y018740D01*
X023981Y018787D01*
X023990Y018833D01*
X024004Y018878D01*
X024021Y018922D01*
X024042Y018965D01*
X024066Y019005D01*
X024093Y019044D01*
X024124Y019080D01*
X024157Y019113D01*
X024193Y019144D01*
X024232Y019171D01*
X024272Y019195D01*
X024315Y019216D01*
X024359Y019233D01*
X024404Y019247D01*
X024450Y019256D01*
X024497Y019262D01*
X024544Y019264D01*
X024591Y019262D01*
X024638Y019256D01*
X024684Y019247D01*
X024729Y019233D01*
X024773Y019216D01*
X024816Y019195D01*
X024856Y019171D01*
X024895Y019144D01*
X024931Y019113D01*
X024964Y019080D01*
X024995Y019044D01*
X025022Y019005D01*
X025046Y018965D01*
X025067Y018922D01*
X025084Y018878D01*
X025098Y018833D01*
X025107Y018787D01*
X025113Y018740D01*
X025115Y018693D01*
X025113Y018646D01*
X025107Y018599D01*
X025098Y018553D01*
X025084Y018508D01*
X025067Y018464D01*
X025046Y018421D01*
X025022Y018381D01*
X024995Y018342D01*
X024964Y018306D01*
X024931Y018273D01*
X024895Y018242D01*
X024856Y018215D01*
X024816Y018191D01*
X024773Y018170D01*
X024729Y018153D01*
X024684Y018139D01*
X024638Y018130D01*
X024591Y018124D01*
X024544Y018122D01*
X024497Y018124D01*
X024450Y018130D01*
X024404Y018139D01*
X024359Y018153D01*
X024315Y018170D01*
X024272Y018191D01*
X024232Y018215D01*
X024193Y018242D01*
X024157Y018273D01*
X024124Y018306D01*
X024093Y018342D01*
X024066Y018381D01*
X024042Y018421D01*
X024021Y018464D01*
X024004Y018508D01*
X023990Y018553D01*
X023981Y018599D01*
X023975Y018646D01*
X023973Y018693D01*
X023610Y018746D02*
X023533Y018822D01*
X023226Y018822D01*
X023149Y018746D01*
X023149Y018592D01*
X023226Y018515D01*
X023303Y018515D01*
X023380Y018592D01*
X023380Y018822D01*
X023610Y018746D02*
X023610Y018592D01*
X023533Y018515D01*
X024264Y019168D02*
X024267Y019166D01*
X015832Y022757D02*
X015359Y022757D01*
X015359Y023033D02*
X015832Y023033D01*
X007374Y020108D02*
X007157Y019891D01*
X007049Y019783D02*
X006506Y019891D01*
X006723Y020108D02*
X006832Y019566D01*
X006940Y020108D02*
X006940Y020325D01*
X007266Y020000D01*
D15*
X015674Y022895D03*
D16*
X017784Y020615D02*
X017784Y017495D01*
X019544Y017495D01*
X019544Y020615D01*
X018784Y020615D01*
X018544Y020615D01*
X017784Y020615D01*
X017784Y020525D02*
X017364Y020525D01*
X017364Y020405D01*
X017784Y020405D01*
X017784Y020525D01*
X017784Y020265D02*
X017364Y020265D01*
X017364Y020145D01*
X017784Y020145D01*
X017784Y020265D01*
X017784Y020015D02*
X017364Y020015D01*
X017364Y019895D01*
X017784Y019895D01*
X017784Y020015D01*
X017784Y019755D02*
X017364Y019755D01*
X017364Y019635D01*
X017784Y019635D01*
X017784Y019755D01*
X017784Y019495D02*
X017364Y019495D01*
X017364Y019375D01*
X017784Y019375D01*
X017784Y019495D01*
X017784Y019245D02*
X017364Y019245D01*
X017364Y019125D01*
X017784Y019125D01*
X017784Y019245D01*
X017784Y018985D02*
X017364Y018985D01*
X017364Y018865D01*
X017784Y018865D01*
X017784Y018985D01*
X017784Y018735D02*
X017364Y018735D01*
X017364Y018615D01*
X017784Y018615D01*
X017784Y018735D01*
X017784Y018475D02*
X017364Y018475D01*
X017364Y018355D01*
X017784Y018355D01*
X017784Y018475D01*
X017784Y018215D02*
X017364Y018215D01*
X017364Y018095D01*
X017784Y018095D01*
X017784Y018215D01*
X017784Y017965D02*
X017364Y017965D01*
X017364Y017845D01*
X017784Y017845D01*
X017784Y017965D01*
X017784Y017705D02*
X017364Y017705D01*
X017364Y017585D01*
X017784Y017585D01*
X017784Y017705D01*
X019544Y017705D02*
X019544Y017585D01*
X019964Y017585D01*
X019964Y017705D01*
X019544Y017705D01*
X019544Y017845D02*
X019964Y017845D01*
X019964Y017965D01*
X019544Y017965D01*
X019544Y017845D01*
X019544Y018095D02*
X019964Y018095D01*
X019964Y018215D01*
X019544Y018215D01*
X019544Y018095D01*
X019544Y018355D02*
X019964Y018355D01*
X019964Y018475D01*
X019544Y018475D01*
X019544Y018355D01*
X019544Y018615D02*
X019964Y018615D01*
X019964Y018735D01*
X019544Y018735D01*
X019544Y018615D01*
X019544Y018865D02*
X019964Y018865D01*
X019964Y018985D01*
X019544Y018985D01*
X019544Y018865D01*
X019544Y019125D02*
X019964Y019125D01*
X019964Y019245D01*
X019544Y019245D01*
X019544Y019125D01*
X019544Y019375D02*
X019964Y019375D01*
X019964Y019495D01*
X019544Y019495D01*
X019544Y019375D01*
X019544Y019635D02*
X019964Y019635D01*
X019964Y019755D01*
X019544Y019755D01*
X019544Y019635D01*
X019544Y019895D02*
X019964Y019895D01*
X019964Y020015D01*
X019544Y020015D01*
X019544Y019895D01*
X019544Y020145D02*
X019964Y020145D01*
X019964Y020265D01*
X019544Y020265D01*
X019544Y020145D01*
X019544Y020405D02*
X019964Y020405D01*
X019964Y020525D01*
X019544Y020525D01*
X019544Y020405D01*
X018970Y010666D02*
X018860Y010666D01*
X018860Y010276D01*
X018970Y010276D01*
X018970Y010666D01*
X018770Y010666D02*
X018660Y010666D01*
X018660Y010276D01*
X018770Y010276D01*
X018770Y010666D01*
X018570Y010666D02*
X018570Y010276D01*
X018460Y010276D01*
X018460Y010666D01*
X018570Y010666D01*
X018380Y010666D02*
X018380Y010276D01*
X018270Y010276D01*
X018270Y010666D01*
X018380Y010666D01*
X018180Y010666D02*
X018180Y010276D01*
X018070Y010276D01*
X018070Y010666D01*
X018180Y010666D01*
X017980Y010666D02*
X017870Y010666D01*
X017870Y010276D01*
X017980Y010276D01*
X017980Y010666D01*
X017790Y010666D02*
X017790Y010276D01*
X017680Y010276D01*
X017680Y010666D01*
X017790Y010666D01*
X017590Y010666D02*
X017590Y010276D01*
X017480Y010276D01*
X017480Y010666D01*
X017590Y010666D01*
X017390Y010666D02*
X017390Y010276D01*
X017280Y010276D01*
X017280Y010666D01*
X017390Y010666D01*
X017200Y010666D02*
X017090Y010666D01*
X017090Y010276D01*
X017200Y010276D01*
X017200Y010666D01*
X017000Y010666D02*
X017000Y010276D01*
X016890Y010276D01*
X016890Y010666D01*
X017000Y010666D01*
X016800Y010666D02*
X016800Y010276D01*
X016690Y010276D01*
X016690Y010666D01*
X016800Y010666D01*
X016600Y010666D02*
X016610Y010276D01*
X016490Y010276D01*
X016490Y010666D01*
X016600Y010666D01*
X016410Y010666D02*
X016300Y010666D01*
X016300Y010276D01*
X016410Y010276D01*
X016410Y010666D01*
X016210Y010666D02*
X016210Y010276D01*
X016100Y010276D01*
X016100Y010666D01*
X016210Y010666D01*
X016010Y010666D02*
X016010Y010276D01*
X015900Y010276D01*
X015900Y010666D01*
X016010Y010666D01*
X015820Y010666D02*
X015820Y010276D01*
X015710Y010276D01*
X015710Y010666D01*
X015820Y010666D01*
X015620Y010666D02*
X015510Y010666D01*
X015510Y010276D01*
X015620Y010276D01*
X015620Y010666D01*
X015420Y010666D02*
X015420Y010276D01*
X015310Y010276D01*
X015310Y010666D01*
X015420Y010666D01*
X015230Y010666D02*
X015230Y010276D01*
X015120Y010276D01*
X015120Y010666D01*
X015230Y010666D01*
X015030Y010666D02*
X015030Y010276D01*
X014920Y010276D01*
X014920Y010666D01*
X015030Y010666D01*
X014830Y010666D02*
X014720Y010666D01*
X014720Y010276D01*
X014830Y010276D01*
X014830Y010666D01*
X014640Y010666D02*
X014640Y010276D01*
X014530Y010276D01*
X014530Y010666D01*
X014640Y010666D01*
X014440Y010666D02*
X014440Y010276D01*
X014330Y010276D01*
X014330Y010666D01*
X014440Y010666D01*
X014240Y010666D02*
X014240Y010276D01*
X014130Y010276D01*
X014130Y010666D01*
X014240Y010666D01*
X013750Y010276D02*
X013750Y004676D01*
X019350Y004676D01*
X019350Y010276D01*
X013750Y010276D01*
X013750Y009896D02*
X013360Y009896D01*
X013360Y009786D01*
X013750Y009786D01*
X013750Y009896D01*
X013750Y009696D02*
X013360Y009696D01*
X013360Y009586D01*
X013750Y009586D01*
X013750Y009696D01*
X013750Y009496D02*
X013360Y009496D01*
X013360Y009386D01*
X013750Y009386D01*
X013750Y009496D01*
X013750Y009306D02*
X013360Y009306D01*
X013360Y009196D01*
X013750Y009196D01*
X013750Y009306D01*
X013750Y009106D02*
X013360Y009106D01*
X013360Y008996D01*
X013750Y008996D01*
X013750Y009106D01*
X013750Y008906D02*
X013360Y008906D01*
X013360Y008796D01*
X013750Y008796D01*
X013750Y008906D01*
X013750Y008716D02*
X013360Y008716D01*
X013360Y008606D01*
X013750Y008606D01*
X013750Y008716D01*
X013750Y008516D02*
X013360Y008516D01*
X013360Y008406D01*
X013750Y008406D01*
X013750Y008516D01*
X013750Y008316D02*
X013360Y008316D01*
X013360Y008206D01*
X013750Y008206D01*
X013750Y008316D01*
X013750Y008126D02*
X013360Y008126D01*
X013360Y008016D01*
X013750Y008016D01*
X013750Y008126D01*
X013750Y007926D02*
X013360Y007926D01*
X013360Y007816D01*
X013750Y007816D01*
X013750Y007926D01*
X013750Y007726D02*
X013360Y007726D01*
X013360Y007616D01*
X013750Y007616D01*
X013750Y007726D01*
X013750Y007536D02*
X013360Y007526D01*
X013360Y007416D01*
X013750Y007416D01*
X013750Y007536D01*
X013750Y007336D02*
X013360Y007336D01*
X013360Y007226D01*
X013750Y007226D01*
X013750Y007336D01*
X013750Y007136D02*
X013360Y007136D01*
X013360Y007026D01*
X013750Y007026D01*
X013750Y007136D01*
X013750Y006936D02*
X013360Y006936D01*
X013360Y006826D01*
X013750Y006826D01*
X013750Y006936D01*
X013750Y006746D02*
X013360Y006746D01*
X013360Y006636D01*
X013750Y006636D01*
X013750Y006746D01*
X013750Y006546D02*
X013360Y006546D01*
X013360Y006436D01*
X013750Y006436D01*
X013750Y006546D01*
X013750Y006346D02*
X013360Y006346D01*
X013360Y006236D01*
X013750Y006236D01*
X013750Y006346D01*
X013750Y006156D02*
X013360Y006156D01*
X013360Y006046D01*
X013750Y006046D01*
X013750Y006156D01*
X013750Y005956D02*
X013360Y005956D01*
X013360Y005846D01*
X013750Y005846D01*
X013750Y005956D01*
X013750Y005756D02*
X013360Y005756D01*
X013360Y005646D01*
X013750Y005646D01*
X013750Y005756D01*
X013750Y005566D02*
X013360Y005566D01*
X013360Y005456D01*
X013750Y005456D01*
X013750Y005566D01*
X013750Y005366D02*
X013360Y005366D01*
X013360Y005256D01*
X013750Y005256D01*
X013750Y005366D01*
X013750Y005176D02*
X014250Y004676D01*
X014240Y004676D02*
X014240Y004286D01*
X014130Y004286D01*
X014130Y004676D01*
X014240Y004676D01*
X014330Y004676D02*
X014330Y004286D01*
X014440Y004286D01*
X014440Y004676D01*
X014330Y004676D01*
X014530Y004676D02*
X014530Y004286D01*
X014640Y004286D01*
X014640Y004676D01*
X014530Y004676D01*
X014720Y004676D02*
X014720Y004286D01*
X014830Y004286D01*
X014830Y004676D01*
X014720Y004676D01*
X014920Y004676D02*
X014920Y004286D01*
X015030Y004286D01*
X015030Y004676D01*
X014920Y004676D01*
X015120Y004676D02*
X015120Y004286D01*
X015230Y004286D01*
X015230Y004676D01*
X015120Y004676D01*
X015310Y004676D02*
X015310Y004286D01*
X015420Y004286D01*
X015420Y004676D01*
X015310Y004676D01*
X015510Y004676D02*
X015510Y004286D01*
X015620Y004286D01*
X015620Y004676D01*
X015510Y004676D01*
X015710Y004676D02*
X015710Y004286D01*
X015820Y004286D01*
X015820Y004676D01*
X015710Y004676D01*
X015900Y004676D02*
X015900Y004286D01*
X016010Y004286D01*
X016010Y004676D01*
X015900Y004676D01*
X016100Y004676D02*
X016100Y004286D01*
X016210Y004286D01*
X016210Y004676D01*
X016100Y004676D01*
X016300Y004676D02*
X016300Y004286D01*
X016410Y004286D01*
X016410Y004676D01*
X016300Y004676D01*
X016490Y004676D02*
X016500Y004286D01*
X016610Y004286D01*
X016610Y004676D01*
X016490Y004676D01*
X016690Y004676D02*
X016690Y004286D01*
X016800Y004286D01*
X016800Y004676D01*
X016690Y004676D01*
X016890Y004676D02*
X016890Y004286D01*
X017000Y004286D01*
X017000Y004676D01*
X016890Y004676D01*
X017090Y004676D02*
X017090Y004286D01*
X017200Y004286D01*
X017200Y004676D01*
X017090Y004676D01*
X017280Y004676D02*
X017280Y004286D01*
X017390Y004286D01*
X017390Y004676D01*
X017280Y004676D01*
X017480Y004676D02*
X017480Y004286D01*
X017590Y004286D01*
X017590Y004676D01*
X017480Y004676D01*
X017680Y004676D02*
X017680Y004286D01*
X017790Y004286D01*
X017790Y004676D01*
X017680Y004676D01*
X017870Y004676D02*
X017870Y004286D01*
X017980Y004286D01*
X017980Y004676D01*
X017870Y004676D01*
X018070Y004676D02*
X018070Y004286D01*
X018180Y004286D01*
X018180Y004676D01*
X018070Y004676D01*
X018270Y004676D02*
X018270Y004286D01*
X018380Y004286D01*
X018380Y004676D01*
X018270Y004676D01*
X018460Y004676D02*
X018460Y004286D01*
X018570Y004286D01*
X018570Y004676D01*
X018460Y004676D01*
X018660Y004676D02*
X018660Y004286D01*
X018770Y004286D01*
X018770Y004676D01*
X018660Y004676D01*
X018860Y004676D02*
X018860Y004286D01*
X018970Y004286D01*
X018970Y004676D01*
X018860Y004676D01*
X019350Y005056D02*
X019350Y005166D01*
X019740Y005166D01*
X019740Y005056D01*
X019350Y005056D01*
X019350Y005256D02*
X019740Y005256D01*
X019740Y005366D01*
X019350Y005366D01*
X019350Y005256D01*
X019350Y005456D02*
X019740Y005456D01*
X019740Y005566D01*
X019350Y005566D01*
X019350Y005456D01*
X019350Y005646D02*
X019740Y005646D01*
X019740Y005756D01*
X019350Y005756D01*
X019350Y005646D01*
X019350Y005846D02*
X019740Y005846D01*
X019740Y005956D01*
X019350Y005956D01*
X019350Y005846D01*
X019350Y006046D02*
X019740Y006046D01*
X019740Y006156D01*
X019350Y006156D01*
X019350Y006046D01*
X019350Y006236D02*
X019740Y006236D01*
X019740Y006346D01*
X019350Y006346D01*
X019350Y006236D01*
X019350Y006436D02*
X019740Y006436D01*
X019740Y006546D01*
X019350Y006546D01*
X019350Y006436D01*
X019350Y006636D02*
X019740Y006636D01*
X019740Y006746D01*
X019350Y006746D01*
X019350Y006636D01*
X019350Y006826D02*
X019740Y006826D01*
X019740Y006936D01*
X019350Y006936D01*
X019350Y006826D01*
X019350Y007026D02*
X019740Y007026D01*
X019740Y007136D01*
X019350Y007136D01*
X019350Y007026D01*
X019350Y007226D02*
X019740Y007226D01*
X019740Y007336D01*
X019350Y007336D01*
X019350Y007226D01*
X019350Y007416D02*
X019740Y007426D01*
X019740Y007536D01*
X019350Y007536D01*
X019350Y007416D01*
X019350Y007616D02*
X019740Y007616D01*
X019740Y007726D01*
X019350Y007726D01*
X019350Y007616D01*
X019350Y007816D02*
X019740Y007816D01*
X019740Y007926D01*
X019350Y007926D01*
X019350Y007816D01*
X019350Y008016D02*
X019740Y008016D01*
X019740Y008126D01*
X019350Y008126D01*
X019350Y008016D01*
X019350Y008206D02*
X019740Y008206D01*
X019740Y008316D01*
X019350Y008316D01*
X019350Y008206D01*
X019350Y008406D02*
X019740Y008406D01*
X019740Y008516D01*
X019350Y008516D01*
X019350Y008406D01*
X019350Y008606D02*
X019740Y008606D01*
X019740Y008716D01*
X019350Y008716D01*
X019350Y008606D01*
X019350Y008796D02*
X019740Y008796D01*
X019740Y008906D01*
X019350Y008906D01*
X019350Y008796D01*
X019350Y008996D02*
X019740Y008996D01*
X019740Y009106D01*
X019350Y009106D01*
X019350Y008996D01*
X019350Y009196D02*
X019740Y009196D01*
X019740Y009306D01*
X019350Y009306D01*
X019350Y009196D01*
X019350Y009386D02*
X019740Y009386D01*
X019740Y009496D01*
X019350Y009496D01*
X019350Y009386D01*
X019350Y009586D02*
X019740Y009586D01*
X019740Y009696D01*
X019350Y009696D01*
X019350Y009586D01*
X019350Y009786D02*
X019740Y009786D01*
X019740Y009896D01*
X019350Y009896D01*
X019350Y009786D01*
X013750Y005166D02*
X013750Y005056D01*
X013360Y005056D01*
X013360Y005166D01*
X013750Y005166D01*
X019269Y003641D02*
X019269Y003563D01*
X020293Y003563D02*
X020293Y003641D01*
X020473Y003130D02*
X020475Y003144D01*
X020481Y003158D01*
X020489Y003170D01*
X020501Y003178D01*
X020515Y003184D01*
X020529Y003186D01*
X020543Y003184D01*
X020557Y003178D01*
X020569Y003170D01*
X020577Y003158D01*
X020583Y003144D01*
X020585Y003130D01*
X020583Y003116D01*
X020577Y003102D01*
X020569Y003090D01*
X020557Y003082D01*
X020543Y003076D01*
X020529Y003074D01*
X020515Y003076D01*
X020501Y003082D01*
X020489Y003090D01*
X020481Y003102D01*
X020475Y003116D01*
X020473Y003130D01*
X009464Y016785D02*
X008324Y016785D01*
X008324Y017085D01*
X009464Y017085D01*
X009464Y016785D01*
X004411Y008377D02*
X003271Y008377D01*
X003271Y008077D01*
X004411Y008077D01*
X004411Y008377D01*
D17*
X018544Y020615D02*
X018546Y020594D01*
X018551Y020574D01*
X018560Y020555D01*
X018572Y020538D01*
X018587Y020523D01*
X018604Y020511D01*
X018623Y020502D01*
X018643Y020497D01*
X018664Y020495D01*
X018685Y020497D01*
X018705Y020502D01*
X018724Y020511D01*
X018741Y020523D01*
X018756Y020538D01*
X018768Y020555D01*
X018777Y020574D01*
X018782Y020594D01*
X018784Y020615D01*
D18*
X018172Y019856D02*
X018720Y019344D01*
X019304Y018690D01*
X019746Y018106D01*
X020152Y017417D01*
X020382Y016940D01*
X020382Y016126D01*
X020064Y015490D01*
X019640Y014818D01*
X019180Y014217D01*
X018579Y013581D01*
X017854Y012962D01*
X017183Y012502D01*
X016475Y012114D01*
X015609Y011742D01*
X014619Y011459D01*
X013700Y011318D01*
X012816Y011283D01*
X011968Y011318D01*
X011084Y011459D01*
X010306Y011672D01*
X009581Y011937D01*
X008909Y012255D01*
X008202Y012679D01*
X007495Y013210D01*
X006947Y013722D01*
X006364Y014376D01*
X005922Y014960D01*
X005515Y015649D01*
X005285Y016126D01*
X005285Y016940D01*
X005604Y017576D01*
X006028Y018248D01*
X006488Y018849D01*
X007089Y019485D01*
X007813Y020104D01*
X008485Y020563D01*
X009192Y020952D01*
X010058Y021324D01*
X011048Y021606D01*
X011968Y021748D01*
X012852Y021783D01*
X013700Y021748D01*
X014584Y021606D01*
X015362Y021394D01*
X016087Y021129D01*
X016758Y020811D01*
X017465Y020387D01*
X018172Y019856D01*
X015839Y018831D02*
X015485Y018478D01*
X015839Y018831D02*
X015132Y019538D01*
X014778Y019185D01*
X014778Y019184D02*
X014686Y019250D01*
X014591Y019312D01*
X014494Y019371D01*
X014395Y019427D01*
X014294Y019479D01*
X014191Y019528D01*
X014087Y019573D01*
X013981Y019614D01*
X013874Y019652D01*
X013765Y019686D01*
X013656Y019717D01*
X013545Y019743D01*
X013434Y019766D01*
X013322Y019785D01*
X013209Y019799D01*
X013096Y019811D01*
X012983Y019818D01*
X012869Y019821D01*
X012756Y019820D01*
X012642Y019815D01*
X012529Y019807D01*
X012416Y019794D01*
X012304Y019778D01*
X012192Y019758D01*
X012081Y019734D01*
X011971Y019706D01*
X011862Y019674D01*
X011754Y019638D01*
X011647Y019599D01*
X011542Y019556D01*
X011438Y019510D01*
X011336Y019460D01*
X011236Y019407D01*
X011138Y019350D01*
X011041Y019289D01*
X010947Y019226D01*
X010855Y019159D01*
X010766Y019089D01*
X010679Y019016D01*
X010594Y018940D01*
X010512Y018861D01*
X010433Y018780D01*
X010357Y018695D01*
X010284Y018609D01*
X010214Y018519D01*
X010147Y018427D01*
X010083Y018334D01*
X010022Y018237D01*
X009965Y018139D01*
X009911Y018039D01*
X009861Y017937D01*
X009814Y017834D01*
X009771Y017729D01*
X009732Y017622D01*
X009696Y017514D01*
X009664Y017405D01*
X009636Y017295D01*
X009611Y017184D01*
X009591Y017073D01*
X009574Y016960D01*
X009561Y016847D01*
X009552Y016734D01*
X009547Y016621D01*
X009546Y016507D01*
X009549Y016393D01*
X009556Y016280D01*
X009566Y016167D01*
X009581Y016054D01*
X009600Y015942D01*
X009622Y015831D01*
X009648Y015720D01*
X009678Y015611D01*
X009712Y015502D01*
X009749Y015395D01*
X009790Y015289D01*
X009835Y015185D01*
X009884Y015082D01*
X009936Y014981D01*
X009991Y014881D01*
X010050Y014784D01*
X010112Y014689D01*
X010177Y014596D01*
X010246Y014506D01*
X010317Y014417D01*
X010392Y014332D01*
X010469Y014249D01*
X010550Y014168D01*
X010633Y014091D01*
X010718Y014016D01*
X010807Y013945D01*
X010897Y013876D01*
X010990Y013811D01*
X011085Y013749D01*
X011182Y013690D01*
X011282Y013635D01*
X011383Y013583D01*
X011486Y013534D01*
X011590Y013489D01*
X011696Y013448D01*
X011803Y013411D01*
X011912Y013377D01*
X012021Y013347D01*
X012132Y013321D01*
X012243Y013299D01*
X012355Y013280D01*
X012468Y013265D01*
X012581Y013255D01*
X012694Y013248D01*
X012808Y013245D01*
X012922Y013246D01*
X013035Y013251D01*
X013148Y013260D01*
X013261Y013273D01*
X013374Y013290D01*
X013485Y013310D01*
X013596Y013335D01*
X013706Y013363D01*
X013815Y013395D01*
X013923Y013431D01*
X014030Y013470D01*
X014135Y013513D01*
X014238Y013560D01*
X014340Y013610D01*
X014440Y013664D01*
X014538Y013721D01*
X014635Y013782D01*
X014728Y013846D01*
X014820Y013913D01*
X014910Y013983D01*
X014996Y014056D01*
X015081Y014132D01*
X015162Y014211D01*
X015241Y014293D01*
X015317Y014378D01*
X015390Y014465D01*
X015460Y014554D01*
X015527Y014646D01*
X015590Y014740D01*
X015651Y014837D01*
X015708Y014935D01*
X015761Y015035D01*
X015811Y015137D01*
X015857Y015241D01*
X015900Y015346D01*
X015939Y015453D01*
X015975Y015561D01*
X016007Y015670D01*
X016035Y015780D01*
X016059Y015891D01*
X016079Y016003D01*
X016095Y016115D01*
X016108Y016228D01*
X016116Y016341D01*
X016121Y016455D01*
X016122Y016568D01*
X016119Y016682D01*
X016112Y016795D01*
X016100Y016908D01*
X016086Y017021D01*
X016067Y017133D01*
X016044Y017244D01*
X016018Y017355D01*
X015987Y017464D01*
X015953Y017573D01*
X015915Y017680D01*
X015874Y017786D01*
X015829Y017890D01*
X015780Y017993D01*
X015728Y018094D01*
X015672Y018193D01*
X015613Y018290D01*
X015551Y018385D01*
X015485Y018477D01*
X008499Y016533D02*
X008501Y016665D01*
X008507Y016796D01*
X008517Y016927D01*
X008531Y017058D01*
X008549Y017188D01*
X008571Y017318D01*
X008596Y017447D01*
X008626Y017575D01*
X008660Y017703D01*
X008697Y017829D01*
X008738Y017954D01*
X008783Y018077D01*
X008832Y018200D01*
X008885Y018320D01*
X008941Y018439D01*
X009000Y018557D01*
X009063Y018672D01*
X009130Y018785D01*
X009200Y018897D01*
X009274Y019006D01*
X009350Y019113D01*
X009430Y019217D01*
X009513Y019319D01*
X009599Y019419D01*
X009688Y019516D01*
X009780Y019610D01*
X009875Y019701D01*
X009973Y019790D01*
X010073Y019875D01*
X010175Y019957D01*
X010281Y020036D01*
X010388Y020112D01*
X010498Y020185D01*
X010610Y020254D01*
X010724Y020320D01*
X010840Y020382D01*
X010957Y020441D01*
X011077Y020496D01*
X011198Y020547D01*
X011320Y020595D01*
X011444Y020639D01*
X011570Y020680D01*
X011696Y020716D01*
X011824Y020749D01*
X011952Y020777D01*
X012081Y020802D01*
X012211Y020823D01*
X012342Y020840D01*
X012473Y020853D01*
X012604Y020862D01*
X012735Y020867D01*
X012867Y020868D01*
X012998Y020865D01*
X013130Y020858D01*
X013261Y020847D01*
X013392Y020832D01*
X013522Y020813D01*
X013651Y020790D01*
X013780Y020763D01*
X013908Y020733D01*
X014035Y020698D01*
X014161Y020660D01*
X014286Y020618D01*
X014409Y020572D01*
X014531Y020522D01*
X014651Y020469D01*
X014770Y020412D01*
X014887Y020351D01*
X015001Y020287D01*
X015114Y020220D01*
X015225Y020149D01*
X015334Y020075D01*
X015440Y019997D01*
X015544Y019916D01*
X015646Y019833D01*
X015744Y019746D01*
X015841Y019656D01*
X015934Y019563D01*
X016025Y019468D01*
X016112Y019370D01*
X016197Y019269D01*
X016278Y019165D01*
X016356Y019060D01*
X016432Y018952D01*
X016503Y018841D01*
X016572Y018729D01*
X016637Y018614D01*
X016698Y018498D01*
X016756Y018380D01*
X016810Y018260D01*
X016861Y018139D01*
X016908Y018016D01*
X016951Y017891D01*
X016990Y017766D01*
X017026Y017639D01*
X017057Y017511D01*
X017085Y017383D01*
X017109Y017253D01*
X017129Y017123D01*
X017145Y016993D01*
X017157Y016862D01*
X017165Y016730D01*
X017169Y016599D01*
X017169Y016467D01*
X017165Y016336D01*
X017157Y016204D01*
X017145Y016073D01*
X017129Y015943D01*
X017109Y015813D01*
X017085Y015683D01*
X017057Y015555D01*
X017026Y015427D01*
X016990Y015300D01*
X016951Y015175D01*
X016908Y015050D01*
X016861Y014927D01*
X016810Y014806D01*
X016756Y014686D01*
X016698Y014568D01*
X016637Y014452D01*
X016572Y014337D01*
X016503Y014225D01*
X016432Y014114D01*
X016356Y014006D01*
X016278Y013901D01*
X016197Y013797D01*
X016112Y013696D01*
X016025Y013598D01*
X015934Y013503D01*
X015841Y013410D01*
X015744Y013320D01*
X015646Y013233D01*
X015544Y013150D01*
X015440Y013069D01*
X015334Y012991D01*
X015225Y012917D01*
X015114Y012846D01*
X015002Y012779D01*
X014887Y012715D01*
X014770Y012654D01*
X014651Y012597D01*
X014531Y012544D01*
X014409Y012494D01*
X014286Y012448D01*
X014161Y012406D01*
X014035Y012368D01*
X013908Y012333D01*
X013780Y012303D01*
X013651Y012276D01*
X013522Y012253D01*
X013392Y012234D01*
X013261Y012219D01*
X013130Y012208D01*
X012998Y012201D01*
X012867Y012198D01*
X012735Y012199D01*
X012604Y012204D01*
X012473Y012213D01*
X012342Y012226D01*
X012211Y012243D01*
X012081Y012264D01*
X011952Y012289D01*
X011824Y012317D01*
X011696Y012350D01*
X011570Y012386D01*
X011444Y012427D01*
X011320Y012471D01*
X011198Y012519D01*
X011077Y012570D01*
X010957Y012625D01*
X010840Y012684D01*
X010724Y012746D01*
X010610Y012812D01*
X010498Y012881D01*
X010388Y012954D01*
X010281Y013030D01*
X010175Y013109D01*
X010073Y013191D01*
X009973Y013276D01*
X009875Y013365D01*
X009780Y013456D01*
X009688Y013550D01*
X009599Y013647D01*
X009513Y013747D01*
X009430Y013849D01*
X009350Y013953D01*
X009274Y014060D01*
X009200Y014169D01*
X009130Y014281D01*
X009063Y014394D01*
X009000Y014509D01*
X008941Y014627D01*
X008885Y014746D01*
X008832Y014866D01*
X008783Y014989D01*
X008738Y015112D01*
X008697Y015237D01*
X008660Y015363D01*
X008626Y015491D01*
X008596Y015619D01*
X008571Y015748D01*
X008549Y015878D01*
X008531Y016008D01*
X008517Y016139D01*
X008507Y016270D01*
X008501Y016401D01*
X008499Y016533D01*
M02*
