%
M48
M72
T01C0.00500
T02C0.00600
T03C0.00800
T04C0.01000
T05C0.01500
T06C0.02000
T07C0.02362
T08C0.03200
T09C0.03346
T10C0.04331
T11C0.12598
T12C0.21653
%
T01
X30829Y117074
T02
X30651Y122320
X57049Y115842
X58322Y120310
X62016Y123242
X65990Y123102
X66011Y127168
X70112Y125927
X70150Y123482
X72682Y125833
X72889Y130085
X76866Y130075
X79809Y129150
X79767Y125202
X79770Y121429
X79775Y119112
X79107Y116451
X74838Y116251
X70944Y116334
X74873Y120265
X75534Y122387
X84731Y122195
X85370Y118824
X84071Y116426
X85406Y114337
X84066Y111884
X78144Y110513
X75808Y107750
X77628Y105780
X85223Y103839
X83477Y91089
X82414Y87455
X87929Y86274
X91406Y91733
X96740Y93292
X99728Y95436
X106229Y88974
X109829Y85474
X110629Y90174
X113329Y92274
X115129Y94074
X114977Y79989
X111677Y73889
X128973Y59020
X131429Y60974
X154377Y55289
X154877Y37389
X143477Y28689
X107797Y30290
X62677Y89189
X59777Y94389
X57478Y106973
X66186Y110385
X65985Y119137
X61607Y129160
X59240Y133557
X72863Y134491
X79438Y139450
X83375Y134326
X86267Y135239
X88078Y136883
X86158Y131169
X87582Y128051
X90544Y152465
X79277Y152289
X75598Y155593
X74376Y153086
X55456Y148423
X52640Y150699
X117829Y211174
X119029Y215274
X117729Y219874
X187373Y81474
X178877Y62889
X177077Y51189
X185777Y50589
X187477Y52889
X191477Y52889
X213377Y53589
X222077Y59589
X220877Y63789
X219677Y66489
X217964Y71989
X213377Y40689
X48151Y75754
X34499Y62001
T03
X169277Y79089
X171677Y81489
X191613Y57022
T04
X105977Y233289
X109677Y233289
X113277Y233289
X111077Y224989
X119029Y222774
X111477Y214889
X111477Y211889
X111477Y208889
X111477Y205889
X106877Y211689
X103277Y210489
X102077Y206889
X102477Y198889
X102477Y195889
X85877Y198089
X86077Y191589
X82377Y191489
X78677Y191289
X64277Y191289
X60677Y191889
X54077Y187089
X49877Y173289
X56477Y169089
X40877Y171189
X36877Y171189
X30677Y163689
X30277Y147189
X30277Y143989
X33877Y143889
X30629Y138874
X38777Y132789
X44477Y127089
X45957Y130064
X54677Y140289
X49277Y150789
X81405Y154068
X87377Y152589
X96077Y155289
X97877Y157689
X94877Y158289
X83177Y169689
X81677Y173289
X96677Y141489
X103277Y133689
X103877Y121689
X103877Y118689
X101177Y120189
X103577Y115389
X101777Y112989
X96937Y103714
X98177Y98889
X96677Y96489
X95177Y98889
X92977Y95389
X92529Y89174
X87293Y89240
X96729Y82474
X94277Y79689
X108129Y80474
X114329Y82774
X99737Y95445
X114950Y97183
X117629Y102874
X120329Y100874
X127977Y105889
X126177Y108289
X129177Y108889
X133477Y111889
X136477Y111889
X135477Y109389
X138477Y109389
X148477Y111889
X151477Y111889
X151477Y108889
X154477Y108889
X158834Y128251
X155666Y129464
X162977Y128889
X176977Y125389
X176477Y135389
X190977Y138889
X204977Y126389
X204977Y123389
X190977Y123289
X190977Y119889
X189981Y108777
X195434Y109265
X198354Y109227
X205969Y109181
X211877Y104289
X211877Y101289
X211877Y98289
X211677Y95189
X211677Y92389
X211877Y65289
X213977Y63189
X209001Y65254
X206801Y63154
X204377Y60689
X203794Y58000
X208477Y38889
X211458Y31442
X220277Y39489
X219977Y16989
X215477Y14889
X211277Y17289
X188477Y14289
X176625Y21342
X180977Y32289
X182777Y51489
X170820Y61432
X163577Y59289
X162977Y50889
X168377Y51189
X180656Y67273
X177177Y71489
X164477Y80889
X157877Y80889
X154877Y80889
X151277Y77589
X153377Y75489
X156377Y75789
X152777Y72189
X148877Y75489
X144477Y75389
X150977Y69189
X148577Y66489
X145996Y63926
X146477Y52989
X131477Y53289
X129377Y51489
X129177Y54889
X118277Y56289
X111677Y50889
X105917Y56255
X104177Y58389
X104177Y61689
X105377Y64689
X97877Y61689
X96377Y58389
X94927Y54839
X92617Y52554
X77877Y55289
X77477Y61789
X79877Y66489
X83477Y66489
X87077Y66489
X79029Y79574
X65529Y79674
X66477Y94389
X69377Y94089
X51077Y95289
X49577Y98289
X49877Y102789
X41977Y97389
X38777Y97689
X39077Y94289
X30829Y100774
X42077Y109989
X35664Y112291
X36377Y83789
X34077Y80889
X39777Y77289
X46177Y80889
X49877Y79689
X43377Y83789
X34415Y55527
X35589Y48492
X45577Y48489
X57677Y48589
X60365Y47586
X67877Y48289
X68377Y42789
X77477Y35289
X81077Y35289
X87210Y37432
X93677Y37089
X111869Y40458
X125181Y27842
X126077Y32289
X130647Y29327
X134177Y33789
X138077Y28689
X140477Y31689
X151877Y20289
X157577Y16989
X162977Y16989
X154277Y34689
X138677Y17589
X111377Y17289
X87677Y17289
X79877Y14289
X76877Y15189
X68177Y22089
X65477Y17889
X117143Y66736
X131177Y75489
X116077Y120289
X115477Y127489
X118877Y127489
X122277Y127489
X157877Y165789
X165977Y152889
X183677Y156689
X183677Y161689
X184277Y168789
X182877Y176689
X187877Y176689
X192777Y176589
X197829Y172274
X203477Y169689
X206477Y169689
X206477Y172689
X209477Y172689
X209477Y169689
X212477Y169689
X209477Y178689
X206477Y178689
X206477Y181689
X207877Y184289
X210577Y184289
X212477Y181689
X211977Y197889
X211977Y200889
X214977Y199389
X208977Y197889
X208977Y200889
X208977Y203889
X219477Y213889
X221477Y211889
X223677Y209689
X217477Y215889
X211477Y221889
X192318Y222263
X189468Y222325
X189128Y212985
X175877Y213789
X169377Y213789
X156827Y216789
X150997Y227136
X137477Y233889
X133977Y233889
X130477Y233889
X126977Y233889
X123477Y233889
X153077Y204189
X151577Y200889
X150077Y197889
X131477Y197889
X131477Y197889
X125775Y197925
X171579Y188524
X211677Y146289
X214677Y146189
X216677Y155189
X218677Y159189
T05
X234092Y150119
X169877Y193989
X166577Y193989
X166577Y197289
X169877Y197289
X169877Y200589
X166577Y200589
T06
X184817Y194822
X184817Y191722
X184817Y188622
X184817Y185522
X184817Y182422
X187917Y182422
X191017Y182422
X191017Y185522
X191017Y188622
X191017Y191722
X191017Y194822
X187917Y194822
X187917Y191722
X187917Y188622
X187917Y185522
T07
X241329Y44274
T08
X147721Y143881
X140155Y139002
X138104Y147841
X144468Y154205
X135700Y156751
X129336Y163115
X122972Y169479
X120639Y160781
X127003Y154417
X120639Y148053
X114275Y141689
X107911Y148053
X114275Y154417
X111941Y163115
X114063Y171883
X120427Y178247
X110103Y181500
X105224Y173933
X103102Y165165
X104022Y156185
X122406Y137800
X131387Y136881
X129336Y145720
X138033Y165448
X131670Y171812
X138599Y178742
X144963Y185106
X151327Y178742
X144963Y172378
X153661Y170044
X146731Y163115
X155853Y159791
X153236Y151094
X129336Y180510
X136266Y187439
X126013Y189631
X117315Y187015
T09
X75501Y220520
X95186Y220520
T10
X246723Y185000
X246723Y171220
X246723Y157441
X246723Y143661
X246723Y129882
X246723Y116102
X246723Y102323
X246723Y88543
X246723Y74764
T11
X193612Y163398
X65626Y163398
T12
X38184Y22160
X38040Y221529
X248013Y221703
X247577Y22028
M30
