G75*
%MOIN*%
%OFA0B0*%
%FSLAX25Y25*%
%IPPOS*%
%LPD*%
%AMOC8*
5,1,8,0,0,1.08239X$1,22.5*
%
%ADD10C,0.00200*%
%ADD11C,0.00500*%
%ADD12C,0.00300*%
%ADD13C,0.00800*%
%ADD14C,0.00400*%
%ADD15R,0.01181X0.01181*%
%ADD16C,0.00600*%
%ADD17C,0.00000*%
%ADD18C,0.01000*%
D10*
X0054128Y0052427D02*
X0054128Y0054729D01*
X0055279Y0054729D01*
X0055663Y0054345D01*
X0055663Y0052810D01*
X0055279Y0052427D01*
X0054128Y0052427D01*
X0056430Y0052810D02*
X0056430Y0053194D01*
X0056814Y0053578D01*
X0057581Y0053578D01*
X0057965Y0053194D01*
X0057965Y0052810D01*
X0057581Y0052427D01*
X0056814Y0052427D01*
X0056430Y0052810D01*
X0056814Y0053578D02*
X0056430Y0053961D01*
X0056430Y0054345D01*
X0056814Y0054729D01*
X0057581Y0054729D01*
X0057965Y0054345D01*
X0057965Y0053961D01*
X0057581Y0053578D01*
X0049678Y0063674D02*
X0048911Y0063674D01*
X0048527Y0064057D01*
X0048527Y0064825D02*
X0049295Y0065208D01*
X0049678Y0065208D01*
X0050062Y0064825D01*
X0050062Y0064057D01*
X0049678Y0063674D01*
X0048527Y0064825D02*
X0048527Y0065976D01*
X0050062Y0065976D01*
X0047760Y0065976D02*
X0047760Y0065592D01*
X0046225Y0064057D01*
X0046225Y0063674D01*
X0045458Y0064057D02*
X0045074Y0063674D01*
X0044307Y0063674D01*
X0043923Y0064057D01*
X0043923Y0065592D01*
X0044307Y0065976D01*
X0045074Y0065976D01*
X0045458Y0065592D01*
X0046225Y0065976D02*
X0047760Y0065976D01*
X0048417Y0070074D02*
X0048033Y0070457D01*
X0049568Y0071992D01*
X0049568Y0070457D01*
X0049184Y0070074D01*
X0048417Y0070074D01*
X0048033Y0070457D02*
X0048033Y0071992D01*
X0048417Y0072376D01*
X0049184Y0072376D01*
X0049568Y0071992D01*
X0047266Y0072376D02*
X0046499Y0071992D01*
X0045731Y0071225D01*
X0046882Y0071225D01*
X0047266Y0070841D01*
X0047266Y0070457D01*
X0046882Y0070074D01*
X0046115Y0070074D01*
X0045731Y0070457D01*
X0045731Y0071225D01*
X0044964Y0071225D02*
X0044580Y0070841D01*
X0043429Y0070841D01*
X0043429Y0070074D02*
X0043429Y0072376D01*
X0044580Y0072376D01*
X0044964Y0071992D01*
X0044964Y0071225D01*
X0044197Y0070841D02*
X0044964Y0070074D01*
X0061857Y0067302D02*
X0061857Y0065000D01*
X0063008Y0065000D01*
X0063392Y0065384D01*
X0063392Y0066918D01*
X0063008Y0067302D01*
X0061857Y0067302D01*
X0064159Y0067302D02*
X0065694Y0067302D01*
X0065694Y0066918D01*
X0064159Y0065384D01*
X0064159Y0065000D01*
X0072053Y0056138D02*
X0073204Y0056138D01*
X0073588Y0055755D01*
X0073588Y0054987D01*
X0073204Y0054604D01*
X0072053Y0054604D01*
X0072820Y0054604D02*
X0073588Y0053836D01*
X0074355Y0054220D02*
X0074739Y0053836D01*
X0075506Y0053836D01*
X0075890Y0054220D01*
X0075890Y0054604D01*
X0075506Y0054987D01*
X0074355Y0054987D01*
X0074355Y0054220D01*
X0074355Y0054987D02*
X0075122Y0055755D01*
X0075890Y0056138D01*
X0072053Y0056138D02*
X0072053Y0053836D01*
X0087742Y0029981D02*
X0087358Y0029597D01*
X0087358Y0028062D01*
X0087742Y0027679D01*
X0088509Y0027679D01*
X0088893Y0028062D01*
X0089660Y0027679D02*
X0091195Y0027679D01*
X0090428Y0027679D02*
X0090428Y0029981D01*
X0089660Y0029213D01*
X0088893Y0029597D02*
X0088509Y0029981D01*
X0087742Y0029981D01*
X0091962Y0029597D02*
X0091962Y0028062D01*
X0093497Y0029597D01*
X0093497Y0028062D01*
X0093113Y0027679D01*
X0092346Y0027679D01*
X0091962Y0028062D01*
X0091962Y0029597D02*
X0092346Y0029981D01*
X0093113Y0029981D01*
X0093497Y0029597D01*
X0113220Y0030633D02*
X0113604Y0030250D01*
X0114371Y0030250D01*
X0114755Y0030633D01*
X0115522Y0030633D02*
X0117057Y0032168D01*
X0117057Y0032552D01*
X0115522Y0032552D01*
X0114755Y0032168D02*
X0114371Y0032552D01*
X0113604Y0032552D01*
X0113220Y0032168D01*
X0113220Y0030633D01*
X0115522Y0030633D02*
X0115522Y0030250D01*
X0126983Y0033233D02*
X0127366Y0032849D01*
X0128134Y0032849D01*
X0128517Y0033233D01*
X0129285Y0032849D02*
X0130819Y0034384D01*
X0130819Y0034767D01*
X0130436Y0035151D01*
X0129668Y0035151D01*
X0129285Y0034767D01*
X0128517Y0034767D02*
X0128134Y0035151D01*
X0127366Y0035151D01*
X0126983Y0034767D01*
X0126983Y0033233D01*
X0129285Y0032849D02*
X0130819Y0032849D01*
X0131587Y0034000D02*
X0132738Y0035151D01*
X0132738Y0032849D01*
X0133121Y0034000D02*
X0131587Y0034000D01*
X0131548Y0046504D02*
X0130014Y0046504D01*
X0130781Y0046504D02*
X0130781Y0048806D01*
X0130014Y0048039D01*
X0129246Y0048422D02*
X0128863Y0048806D01*
X0128095Y0048806D01*
X0127712Y0048422D01*
X0127712Y0046888D01*
X0128095Y0046504D01*
X0128863Y0046504D01*
X0129246Y0046888D01*
X0132316Y0047655D02*
X0133466Y0048806D01*
X0133466Y0046504D01*
X0133850Y0047655D02*
X0132316Y0047655D01*
X0129110Y0064727D02*
X0128343Y0064727D01*
X0127959Y0065111D01*
X0127959Y0065878D02*
X0128727Y0066262D01*
X0129110Y0066262D01*
X0129494Y0065878D01*
X0129494Y0065111D01*
X0129110Y0064727D01*
X0127959Y0065878D02*
X0127959Y0067029D01*
X0129494Y0067029D01*
X0126425Y0067029D02*
X0126425Y0064727D01*
X0127192Y0064727D02*
X0125657Y0064727D01*
X0124890Y0065111D02*
X0124506Y0064727D01*
X0123739Y0064727D01*
X0123355Y0065111D01*
X0123355Y0066646D01*
X0123739Y0067029D01*
X0124506Y0067029D01*
X0124890Y0066646D01*
X0125657Y0066262D02*
X0126425Y0067029D01*
X0125850Y0077728D02*
X0124316Y0077728D01*
X0125850Y0079262D01*
X0125850Y0079646D01*
X0125467Y0080030D01*
X0124699Y0080030D01*
X0124316Y0079646D01*
X0123548Y0079646D02*
X0123165Y0080030D01*
X0122397Y0080030D01*
X0122014Y0079646D01*
X0122014Y0078111D01*
X0122397Y0077728D01*
X0123165Y0077728D01*
X0123548Y0078111D01*
X0126618Y0078111D02*
X0127001Y0077728D01*
X0127769Y0077728D01*
X0128152Y0078111D01*
X0128152Y0078495D01*
X0127769Y0078879D01*
X0127385Y0078879D01*
X0127769Y0078879D02*
X0128152Y0079262D01*
X0128152Y0079646D01*
X0127769Y0080030D01*
X0127001Y0080030D01*
X0126618Y0079646D01*
X0135268Y0101221D02*
X0136036Y0101221D01*
X0136419Y0101604D01*
X0136419Y0103523D01*
X0137187Y0103523D02*
X0138721Y0103523D01*
X0138721Y0103139D01*
X0137187Y0101604D01*
X0137187Y0101221D01*
X0135268Y0101221D02*
X0134885Y0101604D01*
X0134885Y0103523D01*
X0166814Y0111195D02*
X0167198Y0110811D01*
X0168732Y0110811D01*
X0169116Y0111195D01*
X0169116Y0111962D01*
X0168732Y0112346D01*
X0169116Y0113113D02*
X0169116Y0114648D01*
X0169116Y0113880D02*
X0166814Y0113880D01*
X0167581Y0113113D01*
X0167198Y0112346D02*
X0166814Y0111962D01*
X0166814Y0111195D01*
X0171594Y0111198D02*
X0171978Y0110814D01*
X0173512Y0110814D01*
X0173896Y0111198D01*
X0173896Y0111965D01*
X0173512Y0112349D01*
X0173512Y0113116D02*
X0173896Y0113116D01*
X0173512Y0113116D02*
X0171978Y0114651D01*
X0171594Y0114651D01*
X0171594Y0113116D01*
X0171978Y0112349D02*
X0171594Y0111965D01*
X0171594Y0111198D01*
X0171978Y0115418D02*
X0171594Y0115802D01*
X0171594Y0116569D01*
X0171978Y0116953D01*
X0172361Y0116953D01*
X0172745Y0116569D01*
X0173129Y0116953D01*
X0173512Y0116953D01*
X0173896Y0116569D01*
X0173896Y0115802D01*
X0173512Y0115418D01*
X0172745Y0116185D02*
X0172745Y0116569D01*
X0169116Y0116566D02*
X0169116Y0115799D01*
X0168732Y0115415D01*
X0167965Y0116182D02*
X0167965Y0116566D01*
X0168349Y0116950D01*
X0168732Y0116950D01*
X0169116Y0116566D01*
X0167965Y0116566D02*
X0167581Y0116950D01*
X0167198Y0116950D01*
X0166814Y0116566D01*
X0166814Y0115799D01*
X0167198Y0115415D01*
X0192087Y0115016D02*
X0192854Y0115016D01*
X0192471Y0115016D02*
X0192471Y0112714D01*
X0192854Y0112714D02*
X0192087Y0112714D01*
X0193622Y0113098D02*
X0194005Y0112714D01*
X0194773Y0112714D01*
X0195156Y0113098D01*
X0195924Y0112714D02*
X0197458Y0112714D01*
X0196691Y0112714D02*
X0196691Y0115016D01*
X0195924Y0114249D01*
X0195156Y0114633D02*
X0194773Y0115016D01*
X0194005Y0115016D01*
X0193622Y0114633D01*
X0193622Y0113098D01*
X0215026Y0089362D02*
X0214642Y0088978D01*
X0214642Y0087443D01*
X0215026Y0087060D01*
X0215793Y0087060D01*
X0216177Y0087443D01*
X0216944Y0087060D02*
X0218479Y0087060D01*
X0217712Y0087060D02*
X0217712Y0089362D01*
X0216944Y0088594D01*
X0216177Y0088978D02*
X0215793Y0089362D01*
X0215026Y0089362D01*
X0219246Y0088978D02*
X0219246Y0088594D01*
X0219630Y0088211D01*
X0220781Y0088211D01*
X0220781Y0088978D02*
X0220397Y0089362D01*
X0219630Y0089362D01*
X0219246Y0088978D01*
X0219246Y0087443D02*
X0219630Y0087060D01*
X0220397Y0087060D01*
X0220781Y0087443D01*
X0220781Y0088978D01*
X0221040Y0082305D02*
X0220272Y0082305D01*
X0219889Y0081922D01*
X0219889Y0080387D01*
X0220272Y0080003D01*
X0221040Y0080003D01*
X0221423Y0080387D01*
X0222191Y0080003D02*
X0223725Y0081538D01*
X0223725Y0081922D01*
X0223342Y0082305D01*
X0222574Y0082305D01*
X0222191Y0081922D01*
X0221423Y0081922D02*
X0221040Y0082305D01*
X0222191Y0080003D02*
X0223725Y0080003D01*
X0224493Y0080387D02*
X0224876Y0080003D01*
X0225644Y0080003D01*
X0226027Y0080387D01*
X0226027Y0080771D01*
X0225644Y0081154D01*
X0224493Y0081154D01*
X0224493Y0080387D01*
X0224493Y0081154D02*
X0225260Y0081922D01*
X0226027Y0082305D01*
X0225935Y0071404D02*
X0225168Y0071404D01*
X0224784Y0071020D01*
X0224784Y0069485D01*
X0226319Y0071020D01*
X0226319Y0069485D01*
X0225935Y0069102D01*
X0225168Y0069102D01*
X0224784Y0069485D01*
X0224017Y0069102D02*
X0222483Y0069102D01*
X0224017Y0070636D01*
X0224017Y0071020D01*
X0223634Y0071404D01*
X0222866Y0071404D01*
X0222483Y0071020D01*
X0221715Y0071020D02*
X0221332Y0071404D01*
X0220564Y0071404D01*
X0220181Y0071020D01*
X0220181Y0069485D01*
X0220564Y0069102D01*
X0221332Y0069102D01*
X0221715Y0069485D01*
X0225935Y0071404D02*
X0226319Y0071020D01*
X0221549Y0060048D02*
X0221549Y0059665D01*
X0220015Y0058130D01*
X0220015Y0057746D01*
X0219247Y0057746D02*
X0217713Y0057746D01*
X0218480Y0057746D02*
X0218480Y0060048D01*
X0217713Y0059281D01*
X0216945Y0059665D02*
X0216562Y0060048D01*
X0215794Y0060048D01*
X0215411Y0059665D01*
X0215411Y0058130D01*
X0215794Y0057746D01*
X0216562Y0057746D01*
X0216945Y0058130D01*
X0216758Y0054957D02*
X0215991Y0054957D01*
X0215607Y0054574D01*
X0215607Y0053039D01*
X0215991Y0052655D01*
X0216758Y0052655D01*
X0217142Y0053039D01*
X0217909Y0052655D02*
X0219444Y0052655D01*
X0218677Y0052655D02*
X0218677Y0054957D01*
X0217909Y0054190D01*
X0217142Y0054574D02*
X0216758Y0054957D01*
X0220211Y0054574D02*
X0220211Y0054190D01*
X0220595Y0053806D01*
X0221362Y0053806D01*
X0221746Y0053423D01*
X0221746Y0053039D01*
X0221362Y0052655D01*
X0220595Y0052655D01*
X0220211Y0053039D01*
X0220211Y0053423D01*
X0220595Y0053806D01*
X0221362Y0053806D02*
X0221746Y0054190D01*
X0221746Y0054574D01*
X0221362Y0054957D01*
X0220595Y0054957D01*
X0220211Y0054574D01*
X0220015Y0060048D02*
X0221549Y0060048D01*
X0217318Y0048625D02*
X0215783Y0048625D01*
X0215783Y0047474D01*
X0216551Y0047857D01*
X0216934Y0047857D01*
X0217318Y0047474D01*
X0217318Y0046706D01*
X0216934Y0046323D01*
X0216167Y0046323D01*
X0215783Y0046706D01*
X0215016Y0046323D02*
X0213481Y0046323D01*
X0215016Y0047857D01*
X0215016Y0048241D01*
X0214632Y0048625D01*
X0213865Y0048625D01*
X0213481Y0048241D01*
X0212714Y0048241D02*
X0212330Y0048625D01*
X0211563Y0048625D01*
X0211180Y0048241D01*
X0211180Y0046706D01*
X0211563Y0046323D01*
X0212330Y0046323D01*
X0212714Y0046706D01*
X0189066Y0026477D02*
X0188299Y0026093D01*
X0187531Y0025326D01*
X0188682Y0025326D01*
X0189066Y0024942D01*
X0189066Y0024558D01*
X0188682Y0024175D01*
X0187915Y0024175D01*
X0187531Y0024558D01*
X0187531Y0025326D01*
X0186764Y0024175D02*
X0185229Y0024175D01*
X0185997Y0024175D02*
X0185997Y0026477D01*
X0185229Y0025709D01*
X0184462Y0026093D02*
X0184078Y0026477D01*
X0183311Y0026477D01*
X0182927Y0026093D01*
X0182927Y0024558D01*
X0183311Y0024175D01*
X0184078Y0024175D01*
X0184462Y0024558D01*
X0173928Y0020998D02*
X0173928Y0020615D01*
X0173544Y0020231D01*
X0172777Y0020231D01*
X0172393Y0020615D01*
X0172393Y0020998D01*
X0172777Y0021382D01*
X0173544Y0021382D01*
X0173928Y0020998D01*
X0173544Y0020231D02*
X0173928Y0019847D01*
X0173928Y0019464D01*
X0173544Y0019080D01*
X0172777Y0019080D01*
X0172393Y0019464D01*
X0172393Y0019847D01*
X0172777Y0020231D01*
X0171626Y0020615D02*
X0171626Y0020998D01*
X0171242Y0021382D01*
X0170475Y0021382D01*
X0170091Y0020998D01*
X0169324Y0020998D02*
X0168940Y0021382D01*
X0168173Y0021382D01*
X0167789Y0020998D01*
X0167789Y0019464D01*
X0168173Y0019080D01*
X0168940Y0019080D01*
X0169324Y0019464D01*
X0170091Y0019080D02*
X0171626Y0020615D01*
X0171626Y0019080D02*
X0170091Y0019080D01*
X0165728Y0021057D02*
X0164194Y0019523D01*
X0164194Y0019139D01*
X0163426Y0019139D02*
X0161892Y0019139D01*
X0163426Y0020674D01*
X0163426Y0021057D01*
X0163043Y0021441D01*
X0162275Y0021441D01*
X0161892Y0021057D01*
X0161124Y0021057D02*
X0160741Y0021441D01*
X0159973Y0021441D01*
X0159590Y0021057D01*
X0159590Y0019523D01*
X0159973Y0019139D01*
X0160741Y0019139D01*
X0161124Y0019523D01*
X0164194Y0021441D02*
X0165728Y0021441D01*
X0165728Y0021057D01*
X0154467Y0018301D02*
X0154467Y0015999D01*
X0155234Y0015999D02*
X0153699Y0015999D01*
X0152932Y0015999D02*
X0151397Y0015999D01*
X0152932Y0017533D01*
X0152932Y0017917D01*
X0152548Y0018301D01*
X0151781Y0018301D01*
X0151397Y0017917D01*
X0150630Y0017917D02*
X0150246Y0018301D01*
X0149479Y0018301D01*
X0149096Y0017917D01*
X0149096Y0016382D01*
X0149479Y0015999D01*
X0150246Y0015999D01*
X0150630Y0016382D01*
X0153699Y0017533D02*
X0154467Y0018301D01*
X0147289Y0018037D02*
X0146905Y0018421D01*
X0146138Y0018421D01*
X0145754Y0018037D01*
X0144987Y0018037D02*
X0144603Y0018421D01*
X0143836Y0018421D01*
X0143452Y0018037D01*
X0142685Y0018037D02*
X0142301Y0018421D01*
X0141534Y0018421D01*
X0141150Y0018037D01*
X0141150Y0016502D01*
X0141534Y0016119D01*
X0142301Y0016119D01*
X0142685Y0016502D01*
X0143452Y0016119D02*
X0144987Y0017653D01*
X0144987Y0018037D01*
X0144987Y0016119D02*
X0143452Y0016119D01*
X0145754Y0016119D02*
X0147289Y0017653D01*
X0147289Y0018037D01*
X0147289Y0016119D02*
X0145754Y0016119D01*
X0102116Y0076530D02*
X0100581Y0076530D01*
X0102116Y0078064D01*
X0102116Y0078448D01*
X0101732Y0078832D01*
X0100965Y0078832D01*
X0100581Y0078448D01*
X0099814Y0078448D02*
X0099430Y0078832D01*
X0098663Y0078832D01*
X0098279Y0078448D01*
X0098279Y0076913D01*
X0098663Y0076530D01*
X0099430Y0076530D01*
X0099814Y0076913D01*
X0097512Y0076530D02*
X0096745Y0076530D01*
X0097128Y0076530D02*
X0097128Y0078832D01*
X0096745Y0078832D02*
X0097512Y0078832D01*
X0085819Y0092050D02*
X0083517Y0092050D01*
X0083517Y0093201D01*
X0083901Y0093585D01*
X0084668Y0093585D01*
X0085052Y0093201D01*
X0085052Y0092050D01*
X0085052Y0092818D02*
X0085819Y0093585D01*
X0085436Y0094352D02*
X0085819Y0094736D01*
X0085819Y0095503D01*
X0085436Y0095887D01*
X0083901Y0095887D01*
X0083517Y0095503D01*
X0083517Y0094736D01*
X0083901Y0094352D01*
X0084285Y0094352D01*
X0084668Y0094736D01*
X0084668Y0095887D01*
X0084668Y0096654D02*
X0084668Y0097805D01*
X0085052Y0098189D01*
X0085436Y0098189D01*
X0085819Y0097805D01*
X0085819Y0097038D01*
X0085436Y0096654D01*
X0084668Y0096654D01*
X0083901Y0097421D01*
X0083517Y0098189D01*
X0089385Y0099723D02*
X0089385Y0102025D01*
X0090536Y0102025D01*
X0090919Y0101642D01*
X0090919Y0100874D01*
X0090536Y0100491D01*
X0089385Y0100491D01*
X0090152Y0100491D02*
X0090919Y0099723D01*
X0091687Y0100107D02*
X0092070Y0099723D01*
X0092838Y0099723D01*
X0093221Y0100107D01*
X0093221Y0101642D01*
X0092838Y0102025D01*
X0092070Y0102025D01*
X0091687Y0101642D01*
X0091687Y0101258D01*
X0092070Y0100874D01*
X0093221Y0100874D01*
X0093989Y0101258D02*
X0093989Y0101642D01*
X0094372Y0102025D01*
X0095139Y0102025D01*
X0095523Y0101642D01*
X0095523Y0100107D01*
X0095139Y0099723D01*
X0094372Y0099723D01*
X0093989Y0100107D01*
X0094372Y0100874D02*
X0095523Y0100874D01*
X0094372Y0100874D02*
X0093989Y0101258D01*
X0089252Y0106336D02*
X0089636Y0106719D01*
X0089636Y0107487D01*
X0089252Y0107870D01*
X0088485Y0108638D02*
X0088485Y0110172D01*
X0088485Y0110940D02*
X0088485Y0112091D01*
X0088869Y0112474D01*
X0089252Y0112474D01*
X0089636Y0112091D01*
X0089636Y0111323D01*
X0089252Y0110940D01*
X0088485Y0110940D01*
X0087718Y0111707D01*
X0087334Y0112474D01*
X0087334Y0109789D02*
X0088485Y0108638D01*
X0087718Y0107870D02*
X0087334Y0107487D01*
X0087334Y0106719D01*
X0087718Y0106336D01*
X0089252Y0106336D01*
X0089636Y0109789D02*
X0087334Y0109789D01*
X0092726Y0118966D02*
X0093494Y0118966D01*
X0093877Y0119349D01*
X0094645Y0119349D02*
X0095028Y0118966D01*
X0095796Y0118966D01*
X0096179Y0119349D01*
X0096179Y0120116D01*
X0095796Y0120500D01*
X0095412Y0120500D01*
X0094645Y0120116D01*
X0094645Y0121267D01*
X0096179Y0121267D01*
X0096947Y0120884D02*
X0097330Y0121267D01*
X0098098Y0121267D01*
X0098481Y0120884D01*
X0098481Y0120500D01*
X0098098Y0120116D01*
X0098481Y0119733D01*
X0098481Y0119349D01*
X0098098Y0118966D01*
X0097330Y0118966D01*
X0096947Y0119349D01*
X0097714Y0120116D02*
X0098098Y0120116D01*
X0093877Y0120884D02*
X0093494Y0121267D01*
X0092726Y0121267D01*
X0092343Y0120884D01*
X0092343Y0119349D01*
X0092726Y0118966D01*
X0092778Y0125209D02*
X0093545Y0125209D01*
X0093929Y0125593D01*
X0094696Y0125593D02*
X0095080Y0125209D01*
X0095847Y0125209D01*
X0096231Y0125593D01*
X0096231Y0126360D01*
X0095847Y0126744D01*
X0095464Y0126744D01*
X0094696Y0126360D01*
X0094696Y0127511D01*
X0096231Y0127511D01*
X0096998Y0127127D02*
X0097382Y0127511D01*
X0098149Y0127511D01*
X0098533Y0127127D01*
X0098533Y0126744D01*
X0096998Y0125209D01*
X0098533Y0125209D01*
X0093929Y0127127D02*
X0093545Y0127511D01*
X0092778Y0127511D01*
X0092394Y0127127D01*
X0092394Y0125593D01*
X0092778Y0125209D01*
X0086538Y0146526D02*
X0085003Y0146526D01*
X0085770Y0146526D02*
X0085770Y0148828D01*
X0085003Y0148061D01*
X0084236Y0147677D02*
X0084236Y0146910D01*
X0083852Y0146526D01*
X0083085Y0146526D01*
X0082701Y0146910D01*
X0081934Y0146910D02*
X0081550Y0146526D01*
X0080783Y0146526D01*
X0080399Y0146910D01*
X0080399Y0148445D01*
X0080783Y0148828D01*
X0081550Y0148828D01*
X0081934Y0148445D01*
X0082701Y0148828D02*
X0082701Y0147677D01*
X0083468Y0148061D01*
X0083852Y0148061D01*
X0084236Y0147677D01*
X0084236Y0148828D02*
X0082701Y0148828D01*
X0079160Y0147807D02*
X0077626Y0147807D01*
X0078776Y0148958D01*
X0078776Y0146656D01*
X0076858Y0147040D02*
X0076475Y0146656D01*
X0075707Y0146656D01*
X0075324Y0147040D01*
X0075324Y0147807D02*
X0076091Y0148191D01*
X0076475Y0148191D01*
X0076858Y0147807D01*
X0076858Y0147040D01*
X0075324Y0147807D02*
X0075324Y0148958D01*
X0076858Y0148958D01*
X0074556Y0148575D02*
X0074173Y0148958D01*
X0073405Y0148958D01*
X0073022Y0148575D01*
X0073022Y0147040D01*
X0073405Y0146656D01*
X0074173Y0146656D01*
X0074556Y0147040D01*
X0072585Y0147467D02*
X0072585Y0147851D01*
X0072202Y0148234D01*
X0071051Y0148234D01*
X0071051Y0147467D01*
X0071434Y0147083D01*
X0072202Y0147083D01*
X0072585Y0147467D01*
X0071818Y0149002D02*
X0071051Y0148234D01*
X0070283Y0147851D02*
X0070283Y0147467D01*
X0069900Y0147083D01*
X0069132Y0147083D01*
X0068749Y0147467D01*
X0068749Y0147851D01*
X0069132Y0148234D01*
X0069900Y0148234D01*
X0070283Y0147851D01*
X0069900Y0148234D02*
X0070283Y0148618D01*
X0070283Y0149002D01*
X0069900Y0149385D01*
X0069132Y0149385D01*
X0068749Y0149002D01*
X0068749Y0148618D01*
X0069132Y0148234D01*
X0067981Y0148234D02*
X0067598Y0147851D01*
X0066447Y0147851D01*
X0066292Y0148182D02*
X0067443Y0148182D01*
X0067214Y0147851D02*
X0067981Y0147083D01*
X0067443Y0147414D02*
X0067443Y0148949D01*
X0067060Y0149332D01*
X0066292Y0149332D01*
X0065909Y0148949D01*
X0065909Y0148565D01*
X0066292Y0148182D01*
X0065909Y0147414D02*
X0066292Y0147031D01*
X0067060Y0147031D01*
X0067443Y0147414D01*
X0067981Y0148234D02*
X0067981Y0149002D01*
X0067598Y0149385D01*
X0066447Y0149385D01*
X0066447Y0147083D01*
X0065141Y0147414D02*
X0064758Y0147031D01*
X0063990Y0147031D01*
X0063607Y0147414D01*
X0063607Y0147798D01*
X0063990Y0148182D01*
X0064758Y0148182D01*
X0065141Y0147798D01*
X0065141Y0147414D01*
X0064758Y0148182D02*
X0065141Y0148565D01*
X0065141Y0148949D01*
X0064758Y0149332D01*
X0063990Y0149332D01*
X0063607Y0148949D01*
X0063607Y0148565D01*
X0063990Y0148182D01*
X0062839Y0148182D02*
X0062456Y0147798D01*
X0061305Y0147798D01*
X0062072Y0147798D02*
X0062839Y0147031D01*
X0062839Y0148182D02*
X0062839Y0148949D01*
X0062456Y0149332D01*
X0061305Y0149332D01*
X0061305Y0147031D01*
X0056392Y0144772D02*
X0054858Y0143238D01*
X0055241Y0142854D01*
X0056008Y0142854D01*
X0056392Y0143238D01*
X0056392Y0144772D01*
X0056008Y0145156D01*
X0055241Y0145156D01*
X0054858Y0144772D01*
X0054858Y0143238D01*
X0054090Y0143238D02*
X0054090Y0144772D01*
X0053707Y0145156D01*
X0052939Y0145156D01*
X0052556Y0144772D01*
X0052556Y0144389D01*
X0052939Y0144005D01*
X0054090Y0144005D01*
X0054090Y0143238D02*
X0053707Y0142854D01*
X0052939Y0142854D01*
X0052556Y0143238D01*
X0051788Y0142854D02*
X0051021Y0143621D01*
X0051405Y0143621D02*
X0050254Y0143621D01*
X0050254Y0142854D02*
X0050254Y0145156D01*
X0051405Y0145156D01*
X0051788Y0144772D01*
X0051788Y0144005D01*
X0051405Y0143621D01*
X0045588Y0134018D02*
X0044053Y0134018D01*
X0044053Y0132867D01*
X0044821Y0133250D01*
X0045204Y0133250D01*
X0045588Y0132867D01*
X0045588Y0132099D01*
X0045204Y0131716D01*
X0044437Y0131716D01*
X0044053Y0132099D01*
X0043286Y0132099D02*
X0042902Y0131716D01*
X0042135Y0131716D01*
X0041751Y0132099D01*
X0040984Y0132099D02*
X0040600Y0131716D01*
X0039833Y0131716D01*
X0039449Y0132099D01*
X0039449Y0133634D01*
X0039833Y0134018D01*
X0040600Y0134018D01*
X0040984Y0133634D01*
X0041751Y0134018D02*
X0041751Y0132867D01*
X0042519Y0133250D01*
X0042902Y0133250D01*
X0043286Y0132867D01*
X0043286Y0132099D01*
X0043286Y0134018D02*
X0041751Y0134018D01*
X0042254Y0128797D02*
X0041870Y0128413D01*
X0042254Y0128797D02*
X0043021Y0128797D01*
X0043405Y0128413D01*
X0043405Y0128029D01*
X0041870Y0126495D01*
X0043405Y0126495D01*
X0041103Y0126878D02*
X0041103Y0128413D01*
X0040719Y0128797D01*
X0039952Y0128797D01*
X0039568Y0128413D01*
X0039568Y0128029D01*
X0039952Y0127646D01*
X0041103Y0127646D01*
X0041103Y0126878D02*
X0040719Y0126495D01*
X0039952Y0126495D01*
X0039568Y0126878D01*
X0038801Y0126495D02*
X0038034Y0127262D01*
X0038417Y0127262D02*
X0037266Y0127262D01*
X0037266Y0126495D02*
X0037266Y0128797D01*
X0038417Y0128797D01*
X0038801Y0128413D01*
X0038801Y0127646D01*
X0038417Y0127262D01*
X0041297Y0123721D02*
X0042448Y0123721D01*
X0042832Y0123338D01*
X0042832Y0122570D01*
X0042448Y0122187D01*
X0041297Y0122187D01*
X0042064Y0122187D02*
X0042832Y0121419D01*
X0043599Y0121803D02*
X0043983Y0121419D01*
X0044750Y0121419D01*
X0045134Y0121803D01*
X0045134Y0123338D01*
X0044750Y0123721D01*
X0043983Y0123721D01*
X0043599Y0123338D01*
X0043599Y0122954D01*
X0043983Y0122570D01*
X0045134Y0122570D01*
X0045901Y0122570D02*
X0046668Y0122954D01*
X0047052Y0122954D01*
X0047436Y0122570D01*
X0047436Y0121803D01*
X0047052Y0121419D01*
X0046285Y0121419D01*
X0045901Y0121803D01*
X0045901Y0122570D02*
X0045901Y0123721D01*
X0047436Y0123721D01*
X0047021Y0118590D02*
X0045871Y0117439D01*
X0047405Y0117439D01*
X0047021Y0116288D02*
X0047021Y0118590D01*
X0045103Y0118207D02*
X0045103Y0116672D01*
X0044720Y0116288D01*
X0043952Y0116288D01*
X0043569Y0116672D01*
X0043952Y0117439D02*
X0045103Y0117439D01*
X0045103Y0118207D02*
X0044720Y0118590D01*
X0043952Y0118590D01*
X0043569Y0118207D01*
X0043569Y0117823D01*
X0043952Y0117439D01*
X0042801Y0117439D02*
X0042801Y0118207D01*
X0042418Y0118590D01*
X0041267Y0118590D01*
X0041267Y0116288D01*
X0041267Y0117056D02*
X0042418Y0117056D01*
X0042801Y0117439D01*
X0042034Y0117056D02*
X0042801Y0116288D01*
X0042430Y0113428D02*
X0042814Y0113045D01*
X0042814Y0112277D01*
X0042430Y0111894D01*
X0041279Y0111894D01*
X0042047Y0111894D02*
X0042814Y0111126D01*
X0043581Y0111510D02*
X0043965Y0111126D01*
X0044732Y0111126D01*
X0045116Y0111510D01*
X0045116Y0113045D01*
X0044732Y0113428D01*
X0043965Y0113428D01*
X0043581Y0113045D01*
X0043581Y0112661D01*
X0043965Y0112277D01*
X0045116Y0112277D01*
X0045883Y0111510D02*
X0046267Y0111126D01*
X0047034Y0111126D01*
X0047418Y0111510D01*
X0047418Y0111894D01*
X0047034Y0112277D01*
X0046651Y0112277D01*
X0047034Y0112277D02*
X0047418Y0112661D01*
X0047418Y0113045D01*
X0047034Y0113428D01*
X0046267Y0113428D01*
X0045883Y0113045D01*
X0042430Y0113428D02*
X0041279Y0113428D01*
X0041279Y0111126D01*
X0040332Y0106155D02*
X0039181Y0106155D01*
X0039181Y0103853D01*
X0039181Y0104620D02*
X0040332Y0104620D01*
X0040716Y0105004D01*
X0040716Y0105771D01*
X0040332Y0106155D01*
X0041483Y0105387D02*
X0042250Y0106155D01*
X0042250Y0103853D01*
X0041483Y0103853D02*
X0043018Y0103853D01*
X0043785Y0104236D02*
X0044169Y0103853D01*
X0044936Y0103853D01*
X0045320Y0104236D01*
X0045320Y0105771D01*
X0043785Y0104236D01*
X0043785Y0105771D01*
X0044169Y0106155D01*
X0044936Y0106155D01*
X0045320Y0105771D01*
X0046087Y0105771D02*
X0046471Y0106155D01*
X0047238Y0106155D01*
X0047622Y0105771D01*
X0047622Y0105387D01*
X0046087Y0103853D01*
X0047622Y0103853D01*
X0047063Y0102040D02*
X0047063Y0099738D01*
X0046296Y0099738D02*
X0047831Y0099738D01*
X0046296Y0101273D02*
X0047063Y0102040D01*
X0045529Y0101656D02*
X0045529Y0100122D01*
X0045145Y0099738D01*
X0044378Y0099738D01*
X0043994Y0100122D01*
X0044378Y0100889D02*
X0045529Y0100889D01*
X0045529Y0101656D02*
X0045145Y0102040D01*
X0044378Y0102040D01*
X0043994Y0101656D01*
X0043994Y0101273D01*
X0044378Y0100889D01*
X0043227Y0100889D02*
X0042843Y0100505D01*
X0041692Y0100505D01*
X0041692Y0099738D02*
X0041692Y0102040D01*
X0042843Y0102040D01*
X0043227Y0101656D01*
X0043227Y0100889D01*
X0042459Y0100505D02*
X0043227Y0099738D01*
X0040716Y0103853D02*
X0039949Y0104620D01*
X0025684Y0104908D02*
X0025684Y0103757D01*
X0023382Y0103757D01*
X0023382Y0104908D01*
X0023765Y0105292D01*
X0025300Y0105292D01*
X0025684Y0104908D01*
X0025684Y0106059D02*
X0024149Y0107594D01*
X0023765Y0107594D01*
X0023382Y0107210D01*
X0023382Y0106443D01*
X0023765Y0106059D01*
X0025684Y0106059D02*
X0025684Y0107594D01*
X0025684Y0108361D02*
X0025300Y0108361D01*
X0023765Y0109896D01*
X0023382Y0109896D01*
X0023382Y0108361D01*
X0032174Y0127566D02*
X0032174Y0128717D01*
X0032557Y0129101D01*
X0034092Y0129101D01*
X0034476Y0128717D01*
X0034476Y0127566D01*
X0032174Y0127566D01*
X0032557Y0129868D02*
X0032174Y0130252D01*
X0032174Y0131019D01*
X0032557Y0131403D01*
X0032941Y0131403D01*
X0034476Y0129868D01*
X0034476Y0131403D01*
X0034092Y0132170D02*
X0033708Y0132170D01*
X0033325Y0132554D01*
X0033325Y0133321D01*
X0033708Y0133705D01*
X0034092Y0133705D01*
X0034476Y0133321D01*
X0034476Y0132554D01*
X0034092Y0132170D01*
X0033325Y0132554D02*
X0032941Y0132170D01*
X0032557Y0132170D01*
X0032174Y0132554D01*
X0032174Y0133321D01*
X0032557Y0133705D01*
X0032941Y0133705D01*
X0033325Y0133321D01*
X0041297Y0123721D02*
X0041297Y0121419D01*
X0057687Y0110997D02*
X0057687Y0110230D01*
X0058071Y0109846D01*
X0058455Y0109846D01*
X0058838Y0110230D01*
X0058838Y0111381D01*
X0058071Y0111381D02*
X0057687Y0110997D01*
X0058071Y0111381D02*
X0059606Y0111381D01*
X0059989Y0110997D01*
X0059989Y0110230D01*
X0059606Y0109846D01*
X0059606Y0109079D02*
X0057687Y0109079D01*
X0057687Y0107544D02*
X0059606Y0107544D01*
X0059989Y0107928D01*
X0059989Y0108695D01*
X0059606Y0109079D01*
X0066079Y0108230D02*
X0066079Y0105928D01*
X0066079Y0106695D02*
X0067230Y0106695D01*
X0067614Y0107079D01*
X0067614Y0107846D01*
X0067230Y0108230D01*
X0066079Y0108230D01*
X0066847Y0106695D02*
X0067614Y0105928D01*
X0068381Y0106312D02*
X0068765Y0105928D01*
X0069532Y0105928D01*
X0069916Y0106312D01*
X0069916Y0107846D01*
X0069532Y0108230D01*
X0068765Y0108230D01*
X0068381Y0107846D01*
X0068381Y0107463D01*
X0068765Y0107079D01*
X0069916Y0107079D01*
X0070683Y0107463D02*
X0070683Y0107846D01*
X0071067Y0108230D01*
X0071834Y0108230D01*
X0072218Y0107846D01*
X0072218Y0107463D01*
X0071834Y0107079D01*
X0071067Y0107079D01*
X0070683Y0107463D01*
X0071067Y0107079D02*
X0070683Y0106695D01*
X0070683Y0106312D01*
X0071067Y0105928D01*
X0071834Y0105928D01*
X0072218Y0106312D01*
X0072218Y0106695D01*
X0071834Y0107079D01*
X0067442Y0093308D02*
X0066674Y0093308D01*
X0066291Y0092925D01*
X0066291Y0091390D01*
X0067825Y0092925D01*
X0067825Y0091390D01*
X0067442Y0091006D01*
X0066674Y0091006D01*
X0066291Y0091390D01*
X0065523Y0091390D02*
X0065140Y0091006D01*
X0064372Y0091006D01*
X0063989Y0091390D01*
X0065523Y0092925D01*
X0065523Y0091390D01*
X0063989Y0091390D02*
X0063989Y0092925D01*
X0064372Y0093308D01*
X0065140Y0093308D01*
X0065523Y0092925D01*
X0067442Y0093308D02*
X0067825Y0092925D01*
X0071897Y0088648D02*
X0073048Y0088648D01*
X0073432Y0088264D01*
X0073432Y0086729D01*
X0073048Y0086346D01*
X0071897Y0086346D01*
X0071897Y0088648D01*
X0074199Y0088264D02*
X0074583Y0088648D01*
X0075350Y0088648D01*
X0075734Y0088264D01*
X0075734Y0087880D01*
X0074199Y0086346D01*
X0075734Y0086346D01*
X0076501Y0086729D02*
X0076885Y0086346D01*
X0077652Y0086346D01*
X0078036Y0086729D01*
X0078036Y0087113D01*
X0077652Y0087497D01*
X0076501Y0087497D01*
X0076501Y0086729D01*
X0076501Y0087497D02*
X0077269Y0088264D01*
X0078036Y0088648D01*
X0063221Y0091006D02*
X0061687Y0091006D01*
X0062454Y0091006D02*
X0062454Y0093308D01*
X0061687Y0092541D01*
X0060919Y0092925D02*
X0060919Y0092157D01*
X0060536Y0091774D01*
X0059385Y0091774D01*
X0060152Y0091774D02*
X0060919Y0091006D01*
X0059385Y0091006D02*
X0059385Y0093308D01*
X0060536Y0093308D01*
X0060919Y0092925D01*
X0058683Y0092579D02*
X0058683Y0090278D01*
X0057916Y0090278D02*
X0059450Y0090278D01*
X0057916Y0091812D02*
X0058683Y0092579D01*
X0057148Y0092196D02*
X0055614Y0090661D01*
X0055997Y0090278D01*
X0056765Y0090278D01*
X0057148Y0090661D01*
X0057148Y0092196D01*
X0056765Y0092579D01*
X0055997Y0092579D01*
X0055614Y0092196D01*
X0055614Y0090661D01*
X0054846Y0090278D02*
X0053312Y0090278D01*
X0054079Y0090278D02*
X0054079Y0092579D01*
X0053312Y0091812D01*
X0052544Y0091429D02*
X0052161Y0091045D01*
X0051010Y0091045D01*
X0051777Y0091045D02*
X0052544Y0090278D01*
X0052544Y0091429D02*
X0052544Y0092196D01*
X0052161Y0092579D01*
X0051010Y0092579D01*
X0051010Y0090278D01*
X0042659Y0142943D02*
X0041124Y0142943D01*
X0042659Y0144478D01*
X0042659Y0144861D01*
X0042275Y0145245D01*
X0041508Y0145245D01*
X0041124Y0144861D01*
X0040357Y0144861D02*
X0038822Y0143327D01*
X0038822Y0142943D01*
X0038055Y0143327D02*
X0037671Y0142943D01*
X0036904Y0142943D01*
X0036520Y0143327D01*
X0036520Y0144861D01*
X0036904Y0145245D01*
X0037671Y0145245D01*
X0038055Y0144861D01*
X0038822Y0145245D02*
X0040357Y0145245D01*
X0040357Y0144861D01*
X0044490Y0165512D02*
X0045257Y0165512D01*
X0045641Y0165896D01*
X0046408Y0165896D02*
X0046408Y0165512D01*
X0046408Y0165896D02*
X0047943Y0167430D01*
X0047943Y0167814D01*
X0046408Y0167814D01*
X0045641Y0167430D02*
X0045257Y0167814D01*
X0044490Y0167814D01*
X0044106Y0167430D01*
X0044106Y0165896D01*
X0044490Y0165512D01*
X0048710Y0165512D02*
X0050245Y0165512D01*
X0049477Y0165512D02*
X0049477Y0167814D01*
X0048710Y0167047D01*
X0071818Y0149002D02*
X0072585Y0149385D01*
X0084913Y0156524D02*
X0084913Y0158826D01*
X0086064Y0158826D01*
X0086447Y0158442D01*
X0086447Y0157675D01*
X0086064Y0157291D01*
X0084913Y0157291D01*
X0085680Y0157291D02*
X0086447Y0156524D01*
X0087215Y0156524D02*
X0088749Y0156524D01*
X0087982Y0156524D02*
X0087982Y0158826D01*
X0087215Y0158058D01*
X0089517Y0158058D02*
X0090284Y0158826D01*
X0090284Y0156524D01*
X0089517Y0156524D02*
X0091051Y0156524D01*
X0091819Y0156907D02*
X0092202Y0156524D01*
X0092970Y0156524D01*
X0093353Y0156907D01*
X0093353Y0157675D01*
X0092970Y0158058D01*
X0092586Y0158058D01*
X0091819Y0157675D01*
X0091819Y0158826D01*
X0093353Y0158826D01*
X0092826Y0149703D02*
X0092058Y0149703D01*
X0091675Y0149319D01*
X0091675Y0148936D01*
X0092058Y0148552D01*
X0093209Y0148552D01*
X0093209Y0147785D02*
X0093209Y0149319D01*
X0092826Y0149703D01*
X0093977Y0149703D02*
X0095511Y0149703D01*
X0095511Y0149319D01*
X0093977Y0147785D01*
X0093977Y0147401D01*
X0093209Y0147785D02*
X0092826Y0147401D01*
X0092058Y0147401D01*
X0091675Y0147785D01*
X0090907Y0147401D02*
X0090140Y0148168D01*
X0090524Y0148168D02*
X0089373Y0148168D01*
X0089373Y0147401D02*
X0089373Y0149703D01*
X0090524Y0149703D01*
X0090907Y0149319D01*
X0090907Y0148552D01*
X0090524Y0148168D01*
X0090242Y0172071D02*
X0091777Y0172071D01*
X0092544Y0172071D02*
X0094079Y0172071D01*
X0093311Y0172071D02*
X0093311Y0174373D01*
X0092544Y0173606D01*
X0091009Y0174373D02*
X0091009Y0172071D01*
X0089475Y0172071D02*
X0088707Y0172839D01*
X0089091Y0172839D02*
X0087940Y0172839D01*
X0087940Y0172071D02*
X0087940Y0174373D01*
X0089091Y0174373D01*
X0089475Y0173990D01*
X0089475Y0173222D01*
X0089091Y0172839D01*
X0090242Y0173606D02*
X0091009Y0174373D01*
X0094846Y0173222D02*
X0096381Y0173222D01*
X0095997Y0172071D02*
X0095997Y0174373D01*
X0094846Y0173222D01*
X0098819Y0189218D02*
X0099970Y0189218D01*
X0100353Y0189602D01*
X0100353Y0191137D01*
X0099970Y0191520D01*
X0098819Y0191520D01*
X0098819Y0189218D01*
X0101121Y0189218D02*
X0102655Y0190753D01*
X0102655Y0191137D01*
X0102272Y0191520D01*
X0101504Y0191520D01*
X0101121Y0191137D01*
X0101121Y0189218D02*
X0102655Y0189218D01*
X0103423Y0189602D02*
X0103806Y0189218D01*
X0104574Y0189218D01*
X0104957Y0189602D01*
X0104957Y0191137D01*
X0104574Y0191520D01*
X0103806Y0191520D01*
X0103423Y0191137D01*
X0103423Y0190753D01*
X0103806Y0190369D01*
X0104957Y0190369D01*
X0098516Y0212118D02*
X0096982Y0212118D01*
X0098516Y0213653D01*
X0098516Y0214036D01*
X0098133Y0214420D01*
X0097365Y0214420D01*
X0096982Y0214036D01*
X0096214Y0214036D02*
X0096214Y0212502D01*
X0095831Y0212118D01*
X0094680Y0212118D01*
X0094680Y0214420D01*
X0095831Y0214420D01*
X0096214Y0214036D01*
X0091946Y0213659D02*
X0090412Y0213659D01*
X0091179Y0213659D02*
X0091179Y0215961D01*
X0090412Y0215194D01*
X0089644Y0214810D02*
X0088110Y0214810D01*
X0089261Y0215961D01*
X0089261Y0213659D01*
X0087343Y0213659D02*
X0086575Y0214426D01*
X0086959Y0214426D02*
X0085808Y0214426D01*
X0085808Y0213659D02*
X0085808Y0215961D01*
X0086959Y0215961D01*
X0087343Y0215577D01*
X0087343Y0214810D01*
X0086959Y0214426D01*
X0084473Y0215110D02*
X0084473Y0215493D01*
X0084089Y0215877D01*
X0083322Y0215877D01*
X0082938Y0215493D01*
X0082171Y0214726D02*
X0080636Y0214726D01*
X0081787Y0215877D01*
X0081787Y0213575D01*
X0082938Y0213575D02*
X0084473Y0215110D01*
X0084473Y0213575D02*
X0082938Y0213575D01*
X0079869Y0213575D02*
X0079101Y0214342D01*
X0079485Y0214342D02*
X0078334Y0214342D01*
X0078334Y0213575D02*
X0078334Y0215877D01*
X0079485Y0215877D01*
X0079869Y0215493D01*
X0079869Y0214726D01*
X0079485Y0214342D01*
X0074505Y0213913D02*
X0074505Y0213529D01*
X0074122Y0213145D01*
X0074505Y0212762D01*
X0074505Y0212378D01*
X0074122Y0211994D01*
X0073354Y0211994D01*
X0072971Y0212378D01*
X0072203Y0212378D02*
X0072203Y0213913D01*
X0071820Y0214296D01*
X0070669Y0214296D01*
X0070669Y0211994D01*
X0071820Y0211994D01*
X0072203Y0212378D01*
X0072971Y0213913D02*
X0073354Y0214296D01*
X0074122Y0214296D01*
X0074505Y0213913D01*
X0074122Y0213145D02*
X0073738Y0213145D01*
X0127268Y0216053D02*
X0128419Y0216053D01*
X0128802Y0216437D01*
X0128802Y0217972D01*
X0128419Y0218355D01*
X0127268Y0218355D01*
X0127268Y0216053D01*
X0129570Y0216053D02*
X0131104Y0216053D01*
X0130337Y0216053D02*
X0130337Y0218355D01*
X0129570Y0217588D01*
X0144537Y0201079D02*
X0144153Y0200695D01*
X0144153Y0199161D01*
X0144537Y0198777D01*
X0145304Y0198777D01*
X0145688Y0199161D01*
X0146455Y0198777D02*
X0147990Y0198777D01*
X0147223Y0198777D02*
X0147223Y0201079D01*
X0146455Y0200312D01*
X0145688Y0200695D02*
X0145304Y0201079D01*
X0144537Y0201079D01*
X0146545Y0195382D02*
X0146161Y0194999D01*
X0146161Y0193464D01*
X0146545Y0193081D01*
X0147312Y0193081D01*
X0147696Y0193464D01*
X0148463Y0193081D02*
X0149998Y0194615D01*
X0149998Y0194999D01*
X0149614Y0195382D01*
X0148847Y0195382D01*
X0148463Y0194999D01*
X0147696Y0194999D02*
X0147312Y0195382D01*
X0146545Y0195382D01*
X0148463Y0193081D02*
X0149998Y0193081D01*
X0159844Y0186018D02*
X0159844Y0184483D01*
X0160228Y0184100D01*
X0160995Y0184100D01*
X0161379Y0184483D01*
X0162146Y0184483D02*
X0162530Y0184100D01*
X0163297Y0184100D01*
X0163681Y0184483D01*
X0163681Y0184867D01*
X0163297Y0185251D01*
X0162146Y0185251D01*
X0162146Y0184483D01*
X0162146Y0185251D02*
X0162914Y0186018D01*
X0163681Y0186402D01*
X0161379Y0186018D02*
X0160995Y0186402D01*
X0160228Y0186402D01*
X0159844Y0186018D01*
X0164433Y0201834D02*
X0165201Y0201834D01*
X0165584Y0202218D01*
X0166352Y0202218D02*
X0167886Y0203753D01*
X0167886Y0204136D01*
X0166352Y0204136D01*
X0165584Y0203753D02*
X0165201Y0204136D01*
X0164433Y0204136D01*
X0164050Y0203753D01*
X0164050Y0202218D01*
X0164433Y0201834D01*
X0166352Y0201834D02*
X0166352Y0202218D01*
X0168654Y0202985D02*
X0170188Y0202985D01*
X0169805Y0201834D02*
X0169805Y0204136D01*
X0168654Y0202985D01*
X0172311Y0205515D02*
X0172695Y0205131D01*
X0173462Y0205131D01*
X0173846Y0205515D01*
X0173846Y0207433D01*
X0174613Y0207049D02*
X0174997Y0207433D01*
X0175764Y0207433D01*
X0176148Y0207049D01*
X0176148Y0206666D01*
X0174613Y0205131D01*
X0176148Y0205131D01*
X0172311Y0205515D02*
X0172311Y0207433D01*
X0178429Y0208874D02*
X0180298Y0208874D01*
X0181192Y0209341D02*
X0181659Y0208874D01*
X0182593Y0208874D01*
X0183060Y0209341D01*
X0183060Y0210275D01*
X0182593Y0210742D01*
X0181659Y0210742D01*
X0181192Y0210275D01*
X0181192Y0209341D01*
X0180298Y0211209D02*
X0178429Y0209341D01*
X0178429Y0208874D01*
X0178429Y0211676D02*
X0180298Y0211676D01*
X0180298Y0211209D01*
X0179831Y0213374D02*
X0180298Y0213841D01*
X0180298Y0215709D01*
X0179831Y0216176D01*
X0178429Y0216176D01*
X0178429Y0213374D01*
X0179831Y0213374D01*
X0181192Y0213841D02*
X0181659Y0213374D01*
X0182593Y0213374D01*
X0183060Y0213841D01*
X0183060Y0214775D01*
X0182593Y0215242D01*
X0181659Y0215242D01*
X0181192Y0214775D01*
X0181192Y0213841D01*
X0183954Y0213374D02*
X0183954Y0215242D01*
X0185355Y0215242D01*
X0185822Y0214775D01*
X0185822Y0213374D01*
X0186716Y0213841D02*
X0187183Y0213374D01*
X0188585Y0213374D01*
X0188585Y0212906D02*
X0188585Y0215242D01*
X0187183Y0215242D01*
X0186716Y0214775D01*
X0186716Y0213841D01*
X0187651Y0212439D02*
X0188118Y0212439D01*
X0188585Y0212906D01*
X0189038Y0210742D02*
X0189505Y0210275D01*
X0189505Y0208874D01*
X0188104Y0208874D01*
X0187637Y0209341D01*
X0188104Y0209808D01*
X0189505Y0209808D01*
X0189038Y0210742D02*
X0188104Y0210742D01*
X0186730Y0210742D02*
X0185796Y0210742D01*
X0186263Y0211209D02*
X0186263Y0209341D01*
X0186730Y0208874D01*
X0184888Y0208874D02*
X0183954Y0208874D01*
X0184421Y0208874D02*
X0184421Y0211676D01*
X0183954Y0211676D01*
X0183500Y0217874D02*
X0183033Y0218341D01*
X0183033Y0219275D01*
X0183500Y0219742D01*
X0184434Y0219742D01*
X0184902Y0219275D01*
X0184902Y0218808D01*
X0183033Y0218808D01*
X0183500Y0217874D02*
X0184434Y0217874D01*
X0185796Y0217874D02*
X0187664Y0219742D01*
X0185796Y0219742D02*
X0187664Y0217874D01*
X0191320Y0217874D02*
X0192722Y0217874D01*
X0193189Y0218341D01*
X0193189Y0218808D01*
X0192722Y0219275D01*
X0191320Y0219275D01*
X0191320Y0220676D02*
X0192722Y0220676D01*
X0193189Y0220209D01*
X0193189Y0219742D01*
X0192722Y0219275D01*
X0194083Y0219275D02*
X0194550Y0219742D01*
X0195484Y0219742D01*
X0195951Y0219275D01*
X0195951Y0217874D01*
X0196845Y0218341D02*
X0197312Y0218808D01*
X0198713Y0218808D01*
X0198713Y0219275D02*
X0198713Y0217874D01*
X0197312Y0217874D01*
X0196845Y0218341D01*
X0197312Y0219742D02*
X0198246Y0219742D01*
X0198713Y0219275D01*
X0199607Y0219742D02*
X0201009Y0219742D01*
X0201476Y0219275D01*
X0201476Y0217874D01*
X0202370Y0218341D02*
X0202370Y0219275D01*
X0202837Y0219742D01*
X0204238Y0219742D01*
X0204238Y0220676D02*
X0204238Y0217874D01*
X0202837Y0217874D01*
X0202370Y0218341D01*
X0200995Y0216176D02*
X0200995Y0213374D01*
X0200528Y0213374D02*
X0201462Y0213374D01*
X0199634Y0213841D02*
X0199634Y0214775D01*
X0199167Y0215242D01*
X0198233Y0215242D01*
X0197766Y0214775D01*
X0197766Y0213841D01*
X0198233Y0213374D01*
X0199167Y0213374D01*
X0199634Y0213841D01*
X0200528Y0216176D02*
X0200995Y0216176D01*
X0199607Y0217874D02*
X0199607Y0219742D01*
X0196405Y0215242D02*
X0195471Y0215242D01*
X0195003Y0214775D01*
X0195003Y0213841D01*
X0195471Y0213374D01*
X0196405Y0213374D01*
X0196872Y0214308D02*
X0195003Y0214308D01*
X0194109Y0215709D02*
X0194109Y0216176D01*
X0194109Y0215709D02*
X0193175Y0214775D01*
X0193175Y0213374D01*
X0193175Y0214775D02*
X0192241Y0215709D01*
X0192241Y0216176D01*
X0191320Y0217874D02*
X0191320Y0220676D01*
X0194083Y0220676D02*
X0194083Y0217874D01*
X0196405Y0215242D02*
X0196872Y0214775D01*
X0196872Y0214308D01*
X0197325Y0211676D02*
X0197793Y0211209D01*
X0197793Y0210742D01*
X0197325Y0210275D01*
X0195924Y0210275D01*
X0195924Y0208874D02*
X0195924Y0211676D01*
X0197325Y0211676D01*
X0197325Y0210275D02*
X0197793Y0209808D01*
X0197793Y0209341D01*
X0197325Y0208874D01*
X0195924Y0208874D01*
X0198687Y0209341D02*
X0199154Y0209808D01*
X0200555Y0209808D01*
X0200555Y0210275D02*
X0200555Y0208874D01*
X0199154Y0208874D01*
X0198687Y0209341D01*
X0199154Y0210742D02*
X0200088Y0210742D01*
X0200555Y0210275D01*
X0201449Y0210742D02*
X0201449Y0208874D01*
X0201449Y0209808D02*
X0202383Y0210742D01*
X0202850Y0210742D01*
X0203751Y0210275D02*
X0204218Y0210742D01*
X0205619Y0210742D01*
X0205619Y0211676D02*
X0205619Y0208874D01*
X0204218Y0208874D01*
X0203751Y0209341D01*
X0203751Y0210275D01*
X0205132Y0213374D02*
X0207000Y0213374D01*
X0207894Y0213841D02*
X0208362Y0213374D01*
X0209296Y0213374D01*
X0209763Y0214308D02*
X0207894Y0214308D01*
X0207894Y0214775D02*
X0208362Y0215242D01*
X0209296Y0215242D01*
X0209763Y0214775D01*
X0209763Y0214308D01*
X0210657Y0214308D02*
X0212525Y0214308D01*
X0212525Y0214775D01*
X0212058Y0215242D01*
X0211124Y0215242D01*
X0210657Y0214775D01*
X0210657Y0213841D01*
X0211124Y0213374D01*
X0212058Y0213374D01*
X0211144Y0210742D02*
X0209743Y0210742D01*
X0209276Y0210275D01*
X0209743Y0209808D01*
X0210677Y0209808D01*
X0211144Y0209341D01*
X0210677Y0208874D01*
X0209276Y0208874D01*
X0208382Y0209341D02*
X0208382Y0210275D01*
X0207914Y0210742D01*
X0206980Y0210742D01*
X0206513Y0210275D01*
X0206513Y0209341D01*
X0206980Y0208874D01*
X0207914Y0208874D01*
X0208382Y0209341D01*
X0205132Y0213374D02*
X0205132Y0216176D01*
X0205599Y0217874D02*
X0205132Y0218341D01*
X0205599Y0218808D01*
X0207000Y0218808D01*
X0207000Y0219275D02*
X0207000Y0217874D01*
X0205599Y0217874D01*
X0205599Y0219742D02*
X0206533Y0219742D01*
X0207000Y0219275D01*
X0207894Y0219742D02*
X0207894Y0217874D01*
X0207894Y0218808D02*
X0208829Y0219742D01*
X0209296Y0219742D01*
X0210196Y0219742D02*
X0210663Y0219742D01*
X0210663Y0217874D01*
X0210196Y0217874D02*
X0211131Y0217874D01*
X0212038Y0219275D02*
X0213906Y0219275D01*
X0214800Y0220209D02*
X0215734Y0219275D01*
X0215734Y0217874D01*
X0215734Y0219275D02*
X0216669Y0220209D01*
X0216669Y0220676D01*
X0218030Y0219742D02*
X0217563Y0219275D01*
X0217563Y0218341D01*
X0218030Y0217874D01*
X0218964Y0217874D01*
X0219431Y0218341D01*
X0219431Y0219275D01*
X0218964Y0219742D01*
X0218030Y0219742D01*
X0220325Y0219742D02*
X0220325Y0218341D01*
X0220792Y0217874D01*
X0222193Y0217874D01*
X0222193Y0219742D01*
X0223087Y0219742D02*
X0223087Y0217874D01*
X0223087Y0219742D02*
X0224489Y0219742D01*
X0224956Y0219275D01*
X0224956Y0217874D01*
X0225850Y0218341D02*
X0225850Y0219275D01*
X0226317Y0219742D01*
X0227718Y0219742D01*
X0227718Y0217406D01*
X0227251Y0216939D01*
X0226784Y0216939D01*
X0226317Y0217874D02*
X0227718Y0217874D01*
X0226317Y0217874D02*
X0225850Y0218341D01*
X0214800Y0220209D02*
X0214800Y0220676D01*
X0210663Y0220676D02*
X0210663Y0221143D01*
X0207894Y0214775D02*
X0207894Y0213841D01*
X0192268Y0210275D02*
X0192268Y0208874D01*
X0192268Y0210275D02*
X0191801Y0210742D01*
X0190400Y0210742D01*
X0190400Y0208874D01*
X0182126Y0217874D02*
X0181192Y0217874D01*
X0181659Y0217874D02*
X0181659Y0220676D01*
X0181192Y0220676D01*
X0180298Y0219742D02*
X0180298Y0217874D01*
X0180298Y0219275D02*
X0178429Y0219275D01*
X0178429Y0219742D02*
X0179363Y0220676D01*
X0180298Y0219742D01*
X0178429Y0219742D02*
X0178429Y0217874D01*
X0169462Y0229368D02*
X0168694Y0229368D01*
X0168311Y0229752D01*
X0167543Y0229368D02*
X0166776Y0230136D01*
X0167160Y0230136D02*
X0166009Y0230136D01*
X0166009Y0229368D02*
X0166009Y0231670D01*
X0167160Y0231670D01*
X0167543Y0231287D01*
X0167543Y0230519D01*
X0167160Y0230136D01*
X0168311Y0231287D02*
X0168694Y0231670D01*
X0169462Y0231670D01*
X0169845Y0231287D01*
X0169845Y0230903D01*
X0169462Y0230519D01*
X0169845Y0230136D01*
X0169845Y0229752D01*
X0169462Y0229368D01*
X0169462Y0230519D02*
X0169078Y0230519D01*
X0159890Y0230149D02*
X0159890Y0229766D01*
X0159507Y0229382D01*
X0158739Y0229382D01*
X0158356Y0229766D01*
X0158356Y0230149D01*
X0158739Y0230533D01*
X0159507Y0230533D01*
X0159890Y0230149D01*
X0159507Y0230533D02*
X0159890Y0230917D01*
X0159890Y0231300D01*
X0159507Y0231684D01*
X0158739Y0231684D01*
X0158356Y0231300D01*
X0158356Y0230917D01*
X0158739Y0230533D01*
X0157588Y0230917D02*
X0157205Y0230533D01*
X0157588Y0230149D01*
X0157588Y0229766D01*
X0157205Y0229382D01*
X0156437Y0229382D01*
X0156054Y0229766D01*
X0155286Y0229766D02*
X0154903Y0229382D01*
X0153752Y0229382D01*
X0153752Y0231684D01*
X0154903Y0231684D01*
X0155286Y0231300D01*
X0155286Y0229766D01*
X0156054Y0231300D02*
X0156437Y0231684D01*
X0157205Y0231684D01*
X0157588Y0231300D01*
X0157588Y0230917D01*
X0157205Y0230533D02*
X0156821Y0230533D01*
X0156082Y0223485D02*
X0154548Y0223485D01*
X0153780Y0223101D02*
X0153780Y0222718D01*
X0153397Y0222334D01*
X0153780Y0221950D01*
X0153780Y0221567D01*
X0153397Y0221183D01*
X0152629Y0221183D01*
X0152246Y0221567D01*
X0151478Y0221567D02*
X0151478Y0223101D01*
X0151095Y0223485D01*
X0149944Y0223485D01*
X0149944Y0221183D01*
X0151095Y0221183D01*
X0151478Y0221567D01*
X0152246Y0223101D02*
X0152629Y0223485D01*
X0153397Y0223485D01*
X0153780Y0223101D01*
X0153397Y0222334D02*
X0153013Y0222334D01*
X0154548Y0221567D02*
X0154548Y0221183D01*
X0154548Y0221567D02*
X0156082Y0223101D01*
X0156082Y0223485D01*
X0204121Y0191576D02*
X0204121Y0189274D01*
X0204121Y0190041D02*
X0205272Y0190041D01*
X0205655Y0190425D01*
X0205655Y0191192D01*
X0205272Y0191576D01*
X0204121Y0191576D01*
X0204888Y0190041D02*
X0205655Y0189274D01*
X0206423Y0189274D02*
X0207957Y0189274D01*
X0207190Y0189274D02*
X0207190Y0191576D01*
X0206423Y0190808D01*
X0213126Y0186421D02*
X0213126Y0184119D01*
X0213126Y0184886D02*
X0214277Y0184886D01*
X0214661Y0185270D01*
X0214661Y0186037D01*
X0214277Y0186421D01*
X0213126Y0186421D01*
X0213894Y0184886D02*
X0214661Y0184119D01*
X0215428Y0184119D02*
X0216963Y0185653D01*
X0216963Y0186037D01*
X0216579Y0186421D01*
X0215812Y0186421D01*
X0215428Y0186037D01*
X0215428Y0184119D02*
X0216963Y0184119D01*
X0216682Y0182090D02*
X0215914Y0182090D01*
X0215531Y0181706D01*
X0215531Y0180171D01*
X0215914Y0179788D01*
X0216682Y0179788D01*
X0217065Y0180171D01*
X0217833Y0180939D02*
X0218984Y0182090D01*
X0218984Y0179788D01*
X0219367Y0180939D02*
X0217833Y0180939D01*
X0217065Y0181706D02*
X0216682Y0182090D01*
X0224116Y0190451D02*
X0224884Y0190451D01*
X0225267Y0190834D01*
X0226035Y0190834D02*
X0226418Y0190451D01*
X0227186Y0190451D01*
X0227569Y0190834D01*
X0227569Y0191218D01*
X0227186Y0191602D01*
X0226802Y0191602D01*
X0227186Y0191602D02*
X0227569Y0191985D01*
X0227569Y0192369D01*
X0227186Y0192753D01*
X0226418Y0192753D01*
X0226035Y0192369D01*
X0225267Y0192369D02*
X0224884Y0192753D01*
X0224116Y0192753D01*
X0223733Y0192369D01*
X0223733Y0190834D01*
X0224116Y0190451D01*
X0254386Y0196444D02*
X0255537Y0196444D01*
X0255921Y0196828D01*
X0255921Y0198363D01*
X0255537Y0198746D01*
X0254386Y0198746D01*
X0254386Y0196444D01*
X0256688Y0196828D02*
X0257072Y0196444D01*
X0257839Y0196444D01*
X0258223Y0196828D01*
X0258223Y0197212D01*
X0257839Y0197595D01*
X0257455Y0197595D01*
X0257839Y0197595D02*
X0258223Y0197979D01*
X0258223Y0198363D01*
X0257839Y0198746D01*
X0257072Y0198746D01*
X0256688Y0198363D01*
X0258990Y0197595D02*
X0260141Y0197595D01*
X0260525Y0197212D01*
X0260525Y0196828D01*
X0260141Y0196444D01*
X0259374Y0196444D01*
X0258990Y0196828D01*
X0258990Y0197595D01*
X0259757Y0198363D01*
X0260525Y0198746D01*
X0227893Y0153493D02*
X0227125Y0153493D01*
X0226742Y0153110D01*
X0226742Y0152726D01*
X0227125Y0152342D01*
X0228276Y0152342D01*
X0228276Y0151575D02*
X0228276Y0153110D01*
X0227893Y0153493D01*
X0228276Y0151575D02*
X0227893Y0151191D01*
X0227125Y0151191D01*
X0226742Y0151575D01*
X0225975Y0151575D02*
X0225591Y0151191D01*
X0224824Y0151191D01*
X0224440Y0151575D01*
X0224440Y0153110D01*
X0224824Y0153493D01*
X0225591Y0153493D01*
X0225975Y0153110D01*
X0226279Y0143561D02*
X0225896Y0143178D01*
X0226279Y0143561D02*
X0227047Y0143561D01*
X0227430Y0143178D01*
X0227430Y0142794D01*
X0225896Y0141259D01*
X0227430Y0141259D01*
X0228198Y0141643D02*
X0228581Y0141259D01*
X0229349Y0141259D01*
X0229732Y0141643D01*
X0229732Y0142410D01*
X0229349Y0142794D01*
X0228965Y0142794D01*
X0228198Y0142410D01*
X0228198Y0143561D01*
X0229732Y0143561D01*
X0225128Y0143178D02*
X0224745Y0143561D01*
X0223594Y0143561D01*
X0223594Y0141259D01*
X0224745Y0141259D01*
X0225128Y0141643D01*
X0225128Y0143178D01*
X0224610Y0133581D02*
X0224994Y0133197D01*
X0224994Y0132430D01*
X0224610Y0132046D01*
X0223459Y0132046D01*
X0223459Y0131279D02*
X0223459Y0133581D01*
X0224610Y0133581D01*
X0225761Y0133581D02*
X0225761Y0132430D01*
X0226528Y0132813D01*
X0226912Y0132813D01*
X0227296Y0132430D01*
X0227296Y0131662D01*
X0226912Y0131279D01*
X0226145Y0131279D01*
X0225761Y0131662D01*
X0224994Y0131279D02*
X0224226Y0132046D01*
X0225761Y0133581D02*
X0227296Y0133581D01*
X0227226Y0123064D02*
X0226459Y0123064D01*
X0226075Y0122680D01*
X0226075Y0122296D01*
X0226459Y0121913D01*
X0227610Y0121913D01*
X0227610Y0122680D02*
X0227226Y0123064D01*
X0227610Y0122680D02*
X0227610Y0121145D01*
X0227226Y0120762D01*
X0226459Y0120762D01*
X0226075Y0121145D01*
X0225308Y0121145D02*
X0225308Y0122680D01*
X0224924Y0123064D01*
X0223773Y0123064D01*
X0223773Y0120762D01*
X0224924Y0120762D01*
X0225308Y0121145D01*
X0185757Y0165645D02*
X0183455Y0165645D01*
X0183455Y0166796D01*
X0183839Y0167179D01*
X0184606Y0167179D01*
X0184990Y0166796D01*
X0184990Y0165645D01*
X0184990Y0166412D02*
X0185757Y0167179D01*
X0185757Y0167947D02*
X0185373Y0167947D01*
X0183839Y0169481D01*
X0183455Y0169481D01*
X0183455Y0167947D01*
X0170568Y0166926D02*
X0169801Y0166542D01*
X0169033Y0165775D01*
X0170184Y0165775D01*
X0170568Y0165391D01*
X0170568Y0165007D01*
X0170184Y0164624D01*
X0169417Y0164624D01*
X0169033Y0165007D01*
X0169033Y0165775D01*
X0168266Y0166542D02*
X0166731Y0165007D01*
X0166731Y0164624D01*
X0165964Y0165007D02*
X0165580Y0164624D01*
X0164813Y0164624D01*
X0164429Y0165007D01*
X0164429Y0166542D01*
X0164813Y0166926D01*
X0165580Y0166926D01*
X0165964Y0166542D01*
X0166731Y0166926D02*
X0168266Y0166926D01*
X0168266Y0166542D01*
D11*
X0174497Y0229024D02*
X0176332Y0229024D01*
X0177249Y0229941D01*
X0179104Y0229024D02*
X0179104Y0232693D01*
X0180939Y0234528D01*
X0182774Y0232693D01*
X0182774Y0229024D01*
X0184629Y0229024D02*
X0184629Y0234528D01*
X0188299Y0229024D01*
X0188299Y0234528D01*
X0182774Y0231776D02*
X0179104Y0231776D01*
X0177249Y0233611D02*
X0176332Y0234528D01*
X0174497Y0234528D01*
X0173579Y0233611D01*
X0173579Y0229941D01*
X0174497Y0229024D01*
X0195678Y0229024D02*
X0195678Y0234528D01*
X0198431Y0234528D01*
X0199348Y0233611D01*
X0199348Y0231776D01*
X0198431Y0230858D01*
X0195678Y0230858D01*
X0197513Y0230858D02*
X0199348Y0229024D01*
X0201203Y0229941D02*
X0201203Y0231776D01*
X0202120Y0232693D01*
X0203955Y0232693D01*
X0204873Y0231776D01*
X0204873Y0230858D01*
X0201203Y0230858D01*
X0201203Y0229941D02*
X0202120Y0229024D01*
X0203955Y0229024D01*
X0206728Y0229024D02*
X0206728Y0232693D01*
X0207645Y0232693D01*
X0208563Y0231776D01*
X0209480Y0232693D01*
X0210397Y0231776D01*
X0210397Y0229024D01*
X0208563Y0229024D02*
X0208563Y0231776D01*
X0212252Y0231776D02*
X0212252Y0229941D01*
X0213170Y0229024D01*
X0215005Y0229024D01*
X0215922Y0229941D01*
X0215922Y0231776D01*
X0215005Y0232693D01*
X0213170Y0232693D01*
X0212252Y0231776D01*
X0217777Y0232693D02*
X0219612Y0232693D01*
X0218695Y0233611D02*
X0218695Y0229941D01*
X0219612Y0229024D01*
X0221460Y0229941D02*
X0221460Y0231776D01*
X0222378Y0232693D01*
X0224213Y0232693D01*
X0225130Y0231776D01*
X0225130Y0230858D01*
X0221460Y0230858D01*
X0221460Y0229941D02*
X0222378Y0229024D01*
X0224213Y0229024D01*
X0232510Y0229024D02*
X0234345Y0229024D01*
X0233427Y0229024D02*
X0233427Y0234528D01*
X0232510Y0234528D02*
X0234345Y0234528D01*
X0239863Y0234528D02*
X0236193Y0229024D01*
X0241718Y0229941D02*
X0241718Y0233611D01*
X0242635Y0234528D01*
X0244470Y0234528D01*
X0245387Y0233611D01*
X0245387Y0229941D01*
X0244470Y0229024D01*
X0242635Y0229024D01*
X0241718Y0229941D01*
X0101397Y0188048D02*
X0101397Y0181749D01*
X0100903Y0181749D01*
X0100409Y0181749D01*
X0100409Y0188048D01*
X0100116Y0188048D01*
X0100116Y0181749D01*
X0100409Y0181749D01*
X0100116Y0181749D02*
X0087417Y0181749D01*
X0087417Y0188048D01*
X0100116Y0188048D01*
X0100409Y0188048D02*
X0100903Y0188048D01*
X0100903Y0181749D01*
X0097130Y0179680D02*
X0089249Y0179680D01*
X0089249Y0175737D01*
X0097130Y0175737D01*
X0097130Y0179680D01*
X0100903Y0188048D02*
X0101397Y0188048D01*
X0092496Y0158188D02*
X0084615Y0158188D01*
X0084615Y0154245D01*
X0092496Y0154245D01*
X0092496Y0158188D01*
X0093922Y0146107D02*
X0089979Y0146107D01*
X0089979Y0138227D01*
X0093922Y0138227D01*
X0093922Y0146107D01*
X0086448Y0146081D02*
X0086448Y0138200D01*
X0082504Y0138200D01*
X0082504Y0146081D01*
X0086448Y0146081D01*
X0076777Y0146058D02*
X0076777Y0138178D01*
X0072834Y0138178D01*
X0072834Y0146058D01*
X0076777Y0146058D01*
X0071604Y0146033D02*
X0067661Y0146033D01*
X0067661Y0138153D01*
X0071604Y0138153D01*
X0071604Y0146033D01*
X0066064Y0145996D02*
X0066064Y0138116D01*
X0062121Y0138116D01*
X0062121Y0145996D01*
X0066064Y0145996D01*
X0060888Y0146047D02*
X0060888Y0138167D01*
X0056944Y0138167D01*
X0056944Y0146047D01*
X0060888Y0146047D01*
X0061074Y0135003D02*
X0061074Y0113350D01*
X0063042Y0111381D01*
X0084696Y0111381D01*
X0084696Y0135003D01*
X0061074Y0135003D01*
X0055453Y0134581D02*
X0055453Y0130638D01*
X0047573Y0130638D01*
X0047573Y0134581D01*
X0055453Y0134581D01*
X0055449Y0129473D02*
X0047569Y0129473D01*
X0047569Y0125529D01*
X0055449Y0125529D01*
X0055449Y0129473D01*
X0055480Y0124397D02*
X0047599Y0124397D01*
X0047599Y0120454D01*
X0055480Y0120454D01*
X0055480Y0124397D01*
X0055449Y0119266D02*
X0047569Y0119266D01*
X0047569Y0115323D01*
X0055449Y0115323D01*
X0055449Y0119266D01*
X0055462Y0114104D02*
X0047582Y0114104D01*
X0047582Y0110161D01*
X0055462Y0110161D01*
X0055462Y0114104D01*
X0061074Y0113350D02*
X0061074Y0111381D01*
X0063042Y0111381D01*
X0064026Y0110397D02*
X0063042Y0109413D01*
X0065011Y0109413D01*
X0064026Y0110397D01*
X0063604Y0109974D02*
X0064449Y0109974D01*
X0064947Y0109476D02*
X0063105Y0109476D01*
X0062384Y0105393D02*
X0062384Y0097513D01*
X0066327Y0097513D01*
X0066327Y0105393D01*
X0062384Y0105393D01*
X0061199Y0105368D02*
X0057255Y0105368D01*
X0057255Y0097488D01*
X0061199Y0097488D01*
X0061199Y0105368D01*
X0055459Y0105388D02*
X0051516Y0105388D01*
X0051516Y0097507D01*
X0055459Y0097507D01*
X0055459Y0105388D01*
X0067506Y0105400D02*
X0067506Y0097520D01*
X0071449Y0097520D01*
X0071449Y0105400D01*
X0067506Y0105400D01*
X0072652Y0104180D02*
X0072652Y0103686D01*
X0078951Y0103686D01*
X0078951Y0103193D01*
X0072652Y0103193D01*
X0072652Y0102899D01*
X0078951Y0102899D01*
X0078951Y0103193D01*
X0078951Y0102899D02*
X0078951Y0090200D01*
X0072652Y0090200D01*
X0072652Y0102899D01*
X0072652Y0103193D02*
X0072652Y0103686D01*
X0072652Y0104180D02*
X0078951Y0104180D01*
X0078951Y0103686D01*
X0080354Y0100054D02*
X0080354Y0092173D01*
X0084297Y0092173D01*
X0084297Y0100054D01*
X0080354Y0100054D01*
X0086101Y0100095D02*
X0086101Y0092215D01*
X0090045Y0092215D01*
X0090045Y0100095D01*
X0086101Y0100095D01*
X0087753Y0104060D02*
X0094446Y0104060D01*
X0094446Y0117052D01*
X0087753Y0117052D01*
X0087753Y0104060D01*
X0091045Y0119400D02*
X0098925Y0119400D01*
X0098925Y0123343D01*
X0091045Y0123343D01*
X0091045Y0119400D01*
X0091097Y0125644D02*
X0098977Y0125644D01*
X0098977Y0129587D01*
X0091097Y0129587D01*
X0091097Y0125644D01*
X0044524Y0141465D02*
X0036644Y0141465D01*
X0036644Y0145409D01*
X0044524Y0145409D01*
X0044524Y0141465D01*
X0040004Y0148591D02*
X0039216Y0148591D01*
X0034098Y0154496D02*
X0034098Y0156071D01*
X0039216Y0161976D02*
X0040004Y0161976D01*
X0042589Y0164947D02*
X0042589Y0168890D01*
X0034709Y0168890D01*
X0034709Y0164947D01*
X0042589Y0164947D01*
X0045122Y0156071D02*
X0045122Y0154496D01*
X0033825Y0137471D02*
X0027526Y0137471D01*
X0027526Y0124773D01*
X0033825Y0124773D01*
X0033825Y0124479D01*
X0027526Y0124479D01*
X0027526Y0123986D01*
X0033825Y0123986D01*
X0033825Y0124479D01*
X0033825Y0124773D02*
X0033825Y0137471D01*
X0033825Y0123986D02*
X0033825Y0123492D01*
X0027526Y0123492D01*
X0027526Y0123986D01*
X0027526Y0124479D02*
X0027526Y0124773D01*
X0027634Y0116338D02*
X0033933Y0116338D01*
X0033933Y0115844D01*
X0033933Y0115350D01*
X0027634Y0115350D01*
X0027634Y0115057D01*
X0033933Y0115057D01*
X0033933Y0115350D01*
X0033933Y0115057D02*
X0033933Y0102358D01*
X0027634Y0102358D01*
X0027634Y0115057D01*
X0027634Y0115350D02*
X0027634Y0115844D01*
X0033933Y0115844D01*
X0027634Y0115844D02*
X0027634Y0116338D01*
X0035831Y0109197D02*
X0035831Y0101316D01*
X0039774Y0101316D01*
X0039774Y0109197D01*
X0035831Y0109197D01*
D12*
X0034334Y0084900D02*
X0034701Y0084533D01*
X0034701Y0084166D01*
X0034334Y0083799D01*
X0034701Y0083432D01*
X0034701Y0083065D01*
X0034334Y0082698D01*
X0033600Y0082698D01*
X0033233Y0083065D01*
X0032399Y0083065D02*
X0032032Y0082698D01*
X0031298Y0082698D01*
X0030931Y0083065D01*
X0030931Y0084533D01*
X0031298Y0084900D01*
X0032032Y0084900D01*
X0032399Y0084533D01*
X0032399Y0083065D01*
X0032399Y0082698D02*
X0031665Y0083432D01*
X0033233Y0084533D02*
X0033600Y0084900D01*
X0034334Y0084900D01*
X0034334Y0083799D02*
X0033967Y0083799D01*
X0087692Y0162422D02*
X0087325Y0162789D01*
X0087325Y0164257D01*
X0087692Y0164624D01*
X0088426Y0164624D01*
X0088793Y0164257D01*
X0088793Y0162789D01*
X0088426Y0162422D01*
X0087692Y0162422D01*
X0088059Y0163156D02*
X0088793Y0162422D01*
X0089627Y0162422D02*
X0091095Y0162422D01*
X0090361Y0162422D02*
X0090361Y0164624D01*
X0089627Y0163890D01*
X0128083Y0204221D02*
X0128083Y0207424D01*
X0130218Y0207424D01*
X0131305Y0206356D02*
X0132373Y0207424D01*
X0132373Y0204221D01*
X0131305Y0204221D02*
X0133441Y0204221D01*
X0129150Y0205822D02*
X0128083Y0205822D01*
X0168791Y0210395D02*
X0169324Y0209861D01*
X0170392Y0209861D01*
X0170926Y0210395D01*
X0172013Y0210395D02*
X0172547Y0209861D01*
X0173615Y0209861D01*
X0174149Y0210395D01*
X0174149Y0211463D01*
X0173615Y0211996D01*
X0173081Y0211996D01*
X0172013Y0211463D01*
X0172013Y0213064D01*
X0174149Y0213064D01*
X0170926Y0212530D02*
X0170392Y0213064D01*
X0169324Y0213064D01*
X0168791Y0212530D01*
X0168791Y0210395D01*
X0173667Y0207692D02*
X0176803Y0204556D01*
X0176803Y0206124D02*
X0173667Y0206124D01*
X0173667Y0204556D02*
X0176803Y0207692D01*
X0175235Y0207692D02*
X0175235Y0204556D01*
X0173979Y0223924D02*
X0173979Y0227126D01*
X0175581Y0227126D01*
X0176115Y0226592D01*
X0176115Y0225525D01*
X0175581Y0224991D01*
X0173979Y0224991D01*
X0177202Y0223924D02*
X0179337Y0227126D01*
X0180425Y0227126D02*
X0182560Y0223924D01*
X0182560Y0227126D01*
X0183648Y0226059D02*
X0183648Y0225525D01*
X0184181Y0225525D01*
X0184181Y0226059D01*
X0183648Y0226059D01*
X0183648Y0224457D02*
X0183648Y0223924D01*
X0184181Y0223924D01*
X0184181Y0224457D01*
X0183648Y0224457D01*
X0180425Y0223924D02*
X0180425Y0227126D01*
X0188482Y0227126D02*
X0188482Y0223924D01*
X0188482Y0224991D02*
X0190083Y0224991D01*
X0190617Y0225525D01*
X0190617Y0226592D01*
X0190083Y0227126D01*
X0188482Y0227126D01*
X0191704Y0226592D02*
X0191704Y0224457D01*
X0192238Y0223924D01*
X0193306Y0223924D01*
X0193840Y0224457D01*
X0194927Y0223924D02*
X0196529Y0223924D01*
X0197062Y0224457D01*
X0197062Y0224991D01*
X0196529Y0225525D01*
X0194927Y0225525D01*
X0193840Y0226592D02*
X0193306Y0227126D01*
X0192238Y0227126D01*
X0191704Y0226592D01*
X0194927Y0227126D02*
X0194927Y0223924D01*
X0196529Y0225525D02*
X0197062Y0226059D01*
X0197062Y0226592D01*
X0196529Y0227126D01*
X0194927Y0227126D01*
X0198150Y0226059D02*
X0199218Y0227126D01*
X0200285Y0226059D01*
X0200285Y0223924D01*
X0200285Y0225525D02*
X0198150Y0225525D01*
X0198150Y0226059D02*
X0198150Y0223924D01*
X0201373Y0225525D02*
X0203508Y0225525D01*
X0204595Y0226592D02*
X0205129Y0227126D01*
X0206197Y0227126D01*
X0206731Y0226592D01*
X0204595Y0224457D01*
X0205129Y0223924D01*
X0206197Y0223924D01*
X0206731Y0224457D01*
X0206731Y0226592D01*
X0207818Y0226592D02*
X0208352Y0227126D01*
X0209420Y0227126D01*
X0209953Y0226592D01*
X0207818Y0224457D01*
X0208352Y0223924D01*
X0209420Y0223924D01*
X0209953Y0224457D01*
X0209953Y0226592D01*
X0211041Y0226059D02*
X0212109Y0227126D01*
X0212109Y0223924D01*
X0213176Y0223924D02*
X0211041Y0223924D01*
X0207818Y0224457D02*
X0207818Y0226592D01*
X0204595Y0226592D02*
X0204595Y0224457D01*
X0217486Y0223924D02*
X0217486Y0227126D01*
X0219088Y0227126D01*
X0219622Y0226592D01*
X0219622Y0225525D01*
X0219088Y0224991D01*
X0217486Y0224991D01*
X0218554Y0224991D02*
X0219622Y0223924D01*
X0220709Y0224457D02*
X0220709Y0225525D01*
X0221243Y0226059D01*
X0222311Y0226059D01*
X0222844Y0225525D01*
X0222844Y0224991D01*
X0220709Y0224991D01*
X0220709Y0224457D02*
X0221243Y0223924D01*
X0222311Y0223924D01*
X0223932Y0226059D02*
X0225000Y0223924D01*
X0226067Y0226059D01*
X0227155Y0226059D02*
X0228222Y0227126D01*
X0228222Y0223924D01*
X0227155Y0223924D02*
X0229290Y0223924D01*
X0254339Y0204161D02*
X0255806Y0204161D01*
X0255073Y0204161D02*
X0255073Y0201959D01*
X0256641Y0201959D02*
X0256641Y0204161D01*
X0257741Y0204161D01*
X0258108Y0203794D01*
X0258108Y0203060D01*
X0257741Y0202693D01*
X0256641Y0202693D01*
X0258942Y0203427D02*
X0259676Y0204161D01*
X0259676Y0201959D01*
X0258942Y0201959D02*
X0260410Y0201959D01*
X0208483Y0042872D02*
X0208483Y0041404D01*
X0208483Y0042138D02*
X0206281Y0042138D01*
X0207015Y0041404D01*
X0208483Y0040570D02*
X0208483Y0039102D01*
X0206281Y0039102D01*
X0207015Y0038268D02*
X0206281Y0037534D01*
X0207015Y0036800D01*
X0208483Y0036800D01*
X0207382Y0036800D02*
X0207382Y0038268D01*
X0207015Y0038268D02*
X0208483Y0038268D01*
X0208483Y0035232D02*
X0206281Y0035232D01*
X0206281Y0034498D02*
X0206281Y0035966D01*
X0206281Y0033664D02*
X0208483Y0032196D01*
X0208483Y0033664D02*
X0206281Y0032196D01*
X0142248Y0034879D02*
X0139112Y0038015D01*
X0139112Y0036447D02*
X0142248Y0036447D01*
X0142248Y0038015D02*
X0139112Y0034879D01*
X0140680Y0034879D02*
X0140680Y0038015D01*
D13*
X0114078Y0038024D02*
X0088586Y0038024D01*
X0096283Y0038241D02*
X0096285Y0038381D01*
X0096291Y0038521D01*
X0096301Y0038661D01*
X0096314Y0038801D01*
X0096332Y0038940D01*
X0096354Y0039079D01*
X0096379Y0039216D01*
X0096408Y0039354D01*
X0096441Y0039490D01*
X0096478Y0039625D01*
X0096519Y0039759D01*
X0096564Y0039892D01*
X0096612Y0040024D01*
X0096664Y0040154D01*
X0096719Y0040283D01*
X0096778Y0040410D01*
X0096841Y0040536D01*
X0096907Y0040660D01*
X0096976Y0040781D01*
X0097049Y0040901D01*
X0097126Y0041019D01*
X0097205Y0041134D01*
X0097288Y0041248D01*
X0097374Y0041358D01*
X0097463Y0041467D01*
X0097555Y0041573D01*
X0097650Y0041676D01*
X0097747Y0041777D01*
X0097848Y0041874D01*
X0097951Y0041969D01*
X0098057Y0042061D01*
X0098166Y0042150D01*
X0098276Y0042236D01*
X0098390Y0042319D01*
X0098505Y0042398D01*
X0098623Y0042475D01*
X0098743Y0042548D01*
X0098864Y0042617D01*
X0098988Y0042683D01*
X0099114Y0042746D01*
X0099241Y0042805D01*
X0099370Y0042860D01*
X0099500Y0042912D01*
X0099632Y0042960D01*
X0099765Y0043005D01*
X0099899Y0043046D01*
X0100034Y0043083D01*
X0100170Y0043116D01*
X0100308Y0043145D01*
X0100445Y0043170D01*
X0100584Y0043192D01*
X0100723Y0043210D01*
X0100863Y0043223D01*
X0101003Y0043233D01*
X0101143Y0043239D01*
X0101283Y0043241D01*
X0101423Y0043239D01*
X0101563Y0043233D01*
X0101703Y0043223D01*
X0101843Y0043210D01*
X0101982Y0043192D01*
X0102121Y0043170D01*
X0102258Y0043145D01*
X0102396Y0043116D01*
X0102532Y0043083D01*
X0102667Y0043046D01*
X0102801Y0043005D01*
X0102934Y0042960D01*
X0103066Y0042912D01*
X0103196Y0042860D01*
X0103325Y0042805D01*
X0103452Y0042746D01*
X0103578Y0042683D01*
X0103702Y0042617D01*
X0103823Y0042548D01*
X0103943Y0042475D01*
X0104061Y0042398D01*
X0104176Y0042319D01*
X0104290Y0042236D01*
X0104400Y0042150D01*
X0104509Y0042061D01*
X0104615Y0041969D01*
X0104718Y0041874D01*
X0104819Y0041777D01*
X0104916Y0041676D01*
X0105011Y0041573D01*
X0105103Y0041467D01*
X0105192Y0041358D01*
X0105278Y0041248D01*
X0105361Y0041134D01*
X0105440Y0041019D01*
X0105517Y0040901D01*
X0105590Y0040781D01*
X0105659Y0040660D01*
X0105725Y0040536D01*
X0105788Y0040410D01*
X0105847Y0040283D01*
X0105902Y0040154D01*
X0105954Y0040024D01*
X0106002Y0039892D01*
X0106047Y0039759D01*
X0106088Y0039625D01*
X0106125Y0039490D01*
X0106158Y0039354D01*
X0106187Y0039216D01*
X0106212Y0039079D01*
X0106234Y0038940D01*
X0106252Y0038801D01*
X0106265Y0038661D01*
X0106275Y0038521D01*
X0106281Y0038381D01*
X0106283Y0038241D01*
X0114078Y0074835D02*
X0088586Y0074835D01*
X0180692Y0116709D02*
X0206184Y0116709D01*
X0206184Y0153520D02*
X0180692Y0153520D01*
X0188487Y0153303D02*
X0188489Y0153163D01*
X0188495Y0153023D01*
X0188505Y0152883D01*
X0188518Y0152743D01*
X0188536Y0152604D01*
X0188558Y0152465D01*
X0188583Y0152328D01*
X0188612Y0152190D01*
X0188645Y0152054D01*
X0188682Y0151919D01*
X0188723Y0151785D01*
X0188768Y0151652D01*
X0188816Y0151520D01*
X0188868Y0151390D01*
X0188923Y0151261D01*
X0188982Y0151134D01*
X0189045Y0151008D01*
X0189111Y0150884D01*
X0189180Y0150763D01*
X0189253Y0150643D01*
X0189330Y0150525D01*
X0189409Y0150410D01*
X0189492Y0150296D01*
X0189578Y0150186D01*
X0189667Y0150077D01*
X0189759Y0149971D01*
X0189854Y0149868D01*
X0189951Y0149767D01*
X0190052Y0149670D01*
X0190155Y0149575D01*
X0190261Y0149483D01*
X0190370Y0149394D01*
X0190480Y0149308D01*
X0190594Y0149225D01*
X0190709Y0149146D01*
X0190827Y0149069D01*
X0190947Y0148996D01*
X0191068Y0148927D01*
X0191192Y0148861D01*
X0191318Y0148798D01*
X0191445Y0148739D01*
X0191574Y0148684D01*
X0191704Y0148632D01*
X0191836Y0148584D01*
X0191969Y0148539D01*
X0192103Y0148498D01*
X0192238Y0148461D01*
X0192374Y0148428D01*
X0192512Y0148399D01*
X0192649Y0148374D01*
X0192788Y0148352D01*
X0192927Y0148334D01*
X0193067Y0148321D01*
X0193207Y0148311D01*
X0193347Y0148305D01*
X0193487Y0148303D01*
X0193627Y0148305D01*
X0193767Y0148311D01*
X0193907Y0148321D01*
X0194047Y0148334D01*
X0194186Y0148352D01*
X0194325Y0148374D01*
X0194462Y0148399D01*
X0194600Y0148428D01*
X0194736Y0148461D01*
X0194871Y0148498D01*
X0195005Y0148539D01*
X0195138Y0148584D01*
X0195270Y0148632D01*
X0195400Y0148684D01*
X0195529Y0148739D01*
X0195656Y0148798D01*
X0195782Y0148861D01*
X0195906Y0148927D01*
X0196027Y0148996D01*
X0196147Y0149069D01*
X0196265Y0149146D01*
X0196380Y0149225D01*
X0196494Y0149308D01*
X0196604Y0149394D01*
X0196713Y0149483D01*
X0196819Y0149575D01*
X0196922Y0149670D01*
X0197023Y0149767D01*
X0197120Y0149868D01*
X0197215Y0149971D01*
X0197307Y0150077D01*
X0197396Y0150186D01*
X0197482Y0150296D01*
X0197565Y0150410D01*
X0197644Y0150525D01*
X0197721Y0150643D01*
X0197794Y0150763D01*
X0197863Y0150884D01*
X0197929Y0151008D01*
X0197992Y0151134D01*
X0198051Y0151261D01*
X0198106Y0151390D01*
X0198158Y0151520D01*
X0198206Y0151652D01*
X0198251Y0151785D01*
X0198292Y0151919D01*
X0198329Y0152054D01*
X0198362Y0152190D01*
X0198391Y0152328D01*
X0198416Y0152465D01*
X0198438Y0152604D01*
X0198456Y0152743D01*
X0198469Y0152883D01*
X0198479Y0153023D01*
X0198485Y0153163D01*
X0198487Y0153303D01*
D14*
X0232775Y0155692D02*
X0232775Y0158761D01*
X0233543Y0158761D01*
X0236612Y0155692D01*
X0237379Y0155692D01*
X0243947Y0162165D02*
X0243924Y0162189D01*
X0241014Y0157441D02*
X0241016Y0157592D01*
X0241022Y0157742D01*
X0241032Y0157893D01*
X0241046Y0158043D01*
X0241064Y0158192D01*
X0241085Y0158342D01*
X0241111Y0158490D01*
X0241141Y0158638D01*
X0241174Y0158785D01*
X0241212Y0158931D01*
X0241253Y0159076D01*
X0241298Y0159220D01*
X0241347Y0159362D01*
X0241400Y0159503D01*
X0241456Y0159643D01*
X0241516Y0159781D01*
X0241579Y0159918D01*
X0241647Y0160053D01*
X0241717Y0160186D01*
X0241791Y0160317D01*
X0241869Y0160446D01*
X0241950Y0160573D01*
X0242034Y0160698D01*
X0242122Y0160821D01*
X0242213Y0160941D01*
X0242307Y0161059D01*
X0242404Y0161174D01*
X0242504Y0161287D01*
X0242607Y0161397D01*
X0242713Y0161504D01*
X0242822Y0161609D01*
X0242933Y0161710D01*
X0243047Y0161809D01*
X0243163Y0161904D01*
X0243283Y0161997D01*
X0243404Y0162086D01*
X0243528Y0162172D01*
X0243654Y0162255D01*
X0243782Y0162334D01*
X0243912Y0162410D01*
X0244044Y0162483D01*
X0244178Y0162551D01*
X0244314Y0162617D01*
X0244452Y0162679D01*
X0244591Y0162737D01*
X0244731Y0162791D01*
X0244873Y0162842D01*
X0245016Y0162889D01*
X0245161Y0162932D01*
X0245306Y0162971D01*
X0245453Y0163007D01*
X0245600Y0163038D01*
X0245748Y0163066D01*
X0245897Y0163090D01*
X0246046Y0163110D01*
X0246196Y0163126D01*
X0246346Y0163138D01*
X0246497Y0163146D01*
X0246648Y0163150D01*
X0246798Y0163150D01*
X0246949Y0163146D01*
X0247100Y0163138D01*
X0247250Y0163126D01*
X0247400Y0163110D01*
X0247549Y0163090D01*
X0247698Y0163066D01*
X0247846Y0163038D01*
X0247993Y0163007D01*
X0248140Y0162971D01*
X0248285Y0162932D01*
X0248430Y0162889D01*
X0248573Y0162842D01*
X0248715Y0162791D01*
X0248855Y0162737D01*
X0248994Y0162679D01*
X0249132Y0162617D01*
X0249268Y0162551D01*
X0249402Y0162483D01*
X0249534Y0162410D01*
X0249664Y0162334D01*
X0249792Y0162255D01*
X0249918Y0162172D01*
X0250042Y0162086D01*
X0250163Y0161997D01*
X0250283Y0161904D01*
X0250399Y0161809D01*
X0250513Y0161710D01*
X0250624Y0161609D01*
X0250733Y0161504D01*
X0250839Y0161397D01*
X0250942Y0161287D01*
X0251042Y0161174D01*
X0251139Y0161059D01*
X0251233Y0160941D01*
X0251324Y0160821D01*
X0251412Y0160698D01*
X0251496Y0160573D01*
X0251577Y0160446D01*
X0251655Y0160317D01*
X0251729Y0160186D01*
X0251799Y0160053D01*
X0251867Y0159918D01*
X0251930Y0159781D01*
X0251990Y0159643D01*
X0252046Y0159503D01*
X0252099Y0159362D01*
X0252148Y0159220D01*
X0252193Y0159076D01*
X0252234Y0158931D01*
X0252272Y0158785D01*
X0252305Y0158638D01*
X0252335Y0158490D01*
X0252361Y0158342D01*
X0252382Y0158192D01*
X0252400Y0158043D01*
X0252414Y0157893D01*
X0252424Y0157742D01*
X0252430Y0157592D01*
X0252432Y0157441D01*
X0252430Y0157290D01*
X0252424Y0157140D01*
X0252414Y0156989D01*
X0252400Y0156839D01*
X0252382Y0156690D01*
X0252361Y0156540D01*
X0252335Y0156392D01*
X0252305Y0156244D01*
X0252272Y0156097D01*
X0252234Y0155951D01*
X0252193Y0155806D01*
X0252148Y0155662D01*
X0252099Y0155520D01*
X0252046Y0155379D01*
X0251990Y0155239D01*
X0251930Y0155101D01*
X0251867Y0154964D01*
X0251799Y0154829D01*
X0251729Y0154696D01*
X0251655Y0154565D01*
X0251577Y0154436D01*
X0251496Y0154309D01*
X0251412Y0154184D01*
X0251324Y0154061D01*
X0251233Y0153941D01*
X0251139Y0153823D01*
X0251042Y0153708D01*
X0250942Y0153595D01*
X0250839Y0153485D01*
X0250733Y0153378D01*
X0250624Y0153273D01*
X0250513Y0153172D01*
X0250399Y0153073D01*
X0250283Y0152978D01*
X0250163Y0152885D01*
X0250042Y0152796D01*
X0249918Y0152710D01*
X0249792Y0152627D01*
X0249664Y0152548D01*
X0249534Y0152472D01*
X0249402Y0152399D01*
X0249268Y0152331D01*
X0249132Y0152265D01*
X0248994Y0152203D01*
X0248855Y0152145D01*
X0248715Y0152091D01*
X0248573Y0152040D01*
X0248430Y0151993D01*
X0248285Y0151950D01*
X0248140Y0151911D01*
X0247993Y0151875D01*
X0247846Y0151844D01*
X0247698Y0151816D01*
X0247549Y0151792D01*
X0247400Y0151772D01*
X0247250Y0151756D01*
X0247100Y0151744D01*
X0246949Y0151736D01*
X0246798Y0151732D01*
X0246648Y0151732D01*
X0246497Y0151736D01*
X0246346Y0151744D01*
X0246196Y0151756D01*
X0246046Y0151772D01*
X0245897Y0151792D01*
X0245748Y0151816D01*
X0245600Y0151844D01*
X0245453Y0151875D01*
X0245306Y0151911D01*
X0245161Y0151950D01*
X0245016Y0151993D01*
X0244873Y0152040D01*
X0244731Y0152091D01*
X0244591Y0152145D01*
X0244452Y0152203D01*
X0244314Y0152265D01*
X0244178Y0152331D01*
X0244044Y0152399D01*
X0243912Y0152472D01*
X0243782Y0152548D01*
X0243654Y0152627D01*
X0243528Y0152710D01*
X0243404Y0152796D01*
X0243283Y0152885D01*
X0243163Y0152978D01*
X0243047Y0153073D01*
X0242933Y0153172D01*
X0242822Y0153273D01*
X0242713Y0153378D01*
X0242607Y0153485D01*
X0242504Y0153595D01*
X0242404Y0153708D01*
X0242307Y0153823D01*
X0242213Y0153941D01*
X0242122Y0154061D01*
X0242034Y0154184D01*
X0241950Y0154309D01*
X0241869Y0154436D01*
X0241791Y0154565D01*
X0241717Y0154696D01*
X0241647Y0154829D01*
X0241579Y0154964D01*
X0241516Y0155101D01*
X0241456Y0155239D01*
X0241400Y0155379D01*
X0241347Y0155520D01*
X0241298Y0155662D01*
X0241253Y0155806D01*
X0241212Y0155951D01*
X0241174Y0156097D01*
X0241141Y0156244D01*
X0241111Y0156392D01*
X0241085Y0156540D01*
X0241064Y0156690D01*
X0241046Y0156839D01*
X0241032Y0156989D01*
X0241022Y0157140D01*
X0241016Y0157290D01*
X0241014Y0157441D01*
X0243924Y0148409D02*
X0243947Y0148386D01*
X0241014Y0143661D02*
X0241016Y0143812D01*
X0241022Y0143962D01*
X0241032Y0144113D01*
X0241046Y0144263D01*
X0241064Y0144412D01*
X0241085Y0144562D01*
X0241111Y0144710D01*
X0241141Y0144858D01*
X0241174Y0145005D01*
X0241212Y0145151D01*
X0241253Y0145296D01*
X0241298Y0145440D01*
X0241347Y0145582D01*
X0241400Y0145723D01*
X0241456Y0145863D01*
X0241516Y0146001D01*
X0241579Y0146138D01*
X0241647Y0146273D01*
X0241717Y0146406D01*
X0241791Y0146537D01*
X0241869Y0146666D01*
X0241950Y0146793D01*
X0242034Y0146918D01*
X0242122Y0147041D01*
X0242213Y0147161D01*
X0242307Y0147279D01*
X0242404Y0147394D01*
X0242504Y0147507D01*
X0242607Y0147617D01*
X0242713Y0147724D01*
X0242822Y0147829D01*
X0242933Y0147930D01*
X0243047Y0148029D01*
X0243163Y0148124D01*
X0243283Y0148217D01*
X0243404Y0148306D01*
X0243528Y0148392D01*
X0243654Y0148475D01*
X0243782Y0148554D01*
X0243912Y0148630D01*
X0244044Y0148703D01*
X0244178Y0148771D01*
X0244314Y0148837D01*
X0244452Y0148899D01*
X0244591Y0148957D01*
X0244731Y0149011D01*
X0244873Y0149062D01*
X0245016Y0149109D01*
X0245161Y0149152D01*
X0245306Y0149191D01*
X0245453Y0149227D01*
X0245600Y0149258D01*
X0245748Y0149286D01*
X0245897Y0149310D01*
X0246046Y0149330D01*
X0246196Y0149346D01*
X0246346Y0149358D01*
X0246497Y0149366D01*
X0246648Y0149370D01*
X0246798Y0149370D01*
X0246949Y0149366D01*
X0247100Y0149358D01*
X0247250Y0149346D01*
X0247400Y0149330D01*
X0247549Y0149310D01*
X0247698Y0149286D01*
X0247846Y0149258D01*
X0247993Y0149227D01*
X0248140Y0149191D01*
X0248285Y0149152D01*
X0248430Y0149109D01*
X0248573Y0149062D01*
X0248715Y0149011D01*
X0248855Y0148957D01*
X0248994Y0148899D01*
X0249132Y0148837D01*
X0249268Y0148771D01*
X0249402Y0148703D01*
X0249534Y0148630D01*
X0249664Y0148554D01*
X0249792Y0148475D01*
X0249918Y0148392D01*
X0250042Y0148306D01*
X0250163Y0148217D01*
X0250283Y0148124D01*
X0250399Y0148029D01*
X0250513Y0147930D01*
X0250624Y0147829D01*
X0250733Y0147724D01*
X0250839Y0147617D01*
X0250942Y0147507D01*
X0251042Y0147394D01*
X0251139Y0147279D01*
X0251233Y0147161D01*
X0251324Y0147041D01*
X0251412Y0146918D01*
X0251496Y0146793D01*
X0251577Y0146666D01*
X0251655Y0146537D01*
X0251729Y0146406D01*
X0251799Y0146273D01*
X0251867Y0146138D01*
X0251930Y0146001D01*
X0251990Y0145863D01*
X0252046Y0145723D01*
X0252099Y0145582D01*
X0252148Y0145440D01*
X0252193Y0145296D01*
X0252234Y0145151D01*
X0252272Y0145005D01*
X0252305Y0144858D01*
X0252335Y0144710D01*
X0252361Y0144562D01*
X0252382Y0144412D01*
X0252400Y0144263D01*
X0252414Y0144113D01*
X0252424Y0143962D01*
X0252430Y0143812D01*
X0252432Y0143661D01*
X0252430Y0143510D01*
X0252424Y0143360D01*
X0252414Y0143209D01*
X0252400Y0143059D01*
X0252382Y0142910D01*
X0252361Y0142760D01*
X0252335Y0142612D01*
X0252305Y0142464D01*
X0252272Y0142317D01*
X0252234Y0142171D01*
X0252193Y0142026D01*
X0252148Y0141882D01*
X0252099Y0141740D01*
X0252046Y0141599D01*
X0251990Y0141459D01*
X0251930Y0141321D01*
X0251867Y0141184D01*
X0251799Y0141049D01*
X0251729Y0140916D01*
X0251655Y0140785D01*
X0251577Y0140656D01*
X0251496Y0140529D01*
X0251412Y0140404D01*
X0251324Y0140281D01*
X0251233Y0140161D01*
X0251139Y0140043D01*
X0251042Y0139928D01*
X0250942Y0139815D01*
X0250839Y0139705D01*
X0250733Y0139598D01*
X0250624Y0139493D01*
X0250513Y0139392D01*
X0250399Y0139293D01*
X0250283Y0139198D01*
X0250163Y0139105D01*
X0250042Y0139016D01*
X0249918Y0138930D01*
X0249792Y0138847D01*
X0249664Y0138768D01*
X0249534Y0138692D01*
X0249402Y0138619D01*
X0249268Y0138551D01*
X0249132Y0138485D01*
X0248994Y0138423D01*
X0248855Y0138365D01*
X0248715Y0138311D01*
X0248573Y0138260D01*
X0248430Y0138213D01*
X0248285Y0138170D01*
X0248140Y0138131D01*
X0247993Y0138095D01*
X0247846Y0138064D01*
X0247698Y0138036D01*
X0247549Y0138012D01*
X0247400Y0137992D01*
X0247250Y0137976D01*
X0247100Y0137964D01*
X0246949Y0137956D01*
X0246798Y0137952D01*
X0246648Y0137952D01*
X0246497Y0137956D01*
X0246346Y0137964D01*
X0246196Y0137976D01*
X0246046Y0137992D01*
X0245897Y0138012D01*
X0245748Y0138036D01*
X0245600Y0138064D01*
X0245453Y0138095D01*
X0245306Y0138131D01*
X0245161Y0138170D01*
X0245016Y0138213D01*
X0244873Y0138260D01*
X0244731Y0138311D01*
X0244591Y0138365D01*
X0244452Y0138423D01*
X0244314Y0138485D01*
X0244178Y0138551D01*
X0244044Y0138619D01*
X0243912Y0138692D01*
X0243782Y0138768D01*
X0243654Y0138847D01*
X0243528Y0138930D01*
X0243404Y0139016D01*
X0243283Y0139105D01*
X0243163Y0139198D01*
X0243047Y0139293D01*
X0242933Y0139392D01*
X0242822Y0139493D01*
X0242713Y0139598D01*
X0242607Y0139705D01*
X0242504Y0139815D01*
X0242404Y0139928D01*
X0242307Y0140043D01*
X0242213Y0140161D01*
X0242122Y0140281D01*
X0242034Y0140404D01*
X0241950Y0140529D01*
X0241869Y0140656D01*
X0241791Y0140785D01*
X0241717Y0140916D01*
X0241647Y0141049D01*
X0241579Y0141184D01*
X0241516Y0141321D01*
X0241456Y0141459D01*
X0241400Y0141599D01*
X0241347Y0141740D01*
X0241298Y0141882D01*
X0241253Y0142026D01*
X0241212Y0142171D01*
X0241174Y0142317D01*
X0241141Y0142464D01*
X0241111Y0142612D01*
X0241085Y0142760D01*
X0241064Y0142910D01*
X0241046Y0143059D01*
X0241032Y0143209D01*
X0241022Y0143360D01*
X0241016Y0143510D01*
X0241014Y0143661D01*
X0237379Y0144244D02*
X0236612Y0145011D01*
X0235845Y0145011D01*
X0235077Y0144244D01*
X0235077Y0141942D01*
X0236612Y0141942D01*
X0237379Y0142709D01*
X0237379Y0144244D01*
X0235077Y0141942D02*
X0233543Y0143477D01*
X0232775Y0145011D01*
X0243924Y0134630D02*
X0243947Y0134606D01*
X0241014Y0129882D02*
X0241016Y0130033D01*
X0241022Y0130183D01*
X0241032Y0130334D01*
X0241046Y0130484D01*
X0241064Y0130633D01*
X0241085Y0130783D01*
X0241111Y0130931D01*
X0241141Y0131079D01*
X0241174Y0131226D01*
X0241212Y0131372D01*
X0241253Y0131517D01*
X0241298Y0131661D01*
X0241347Y0131803D01*
X0241400Y0131944D01*
X0241456Y0132084D01*
X0241516Y0132222D01*
X0241579Y0132359D01*
X0241647Y0132494D01*
X0241717Y0132627D01*
X0241791Y0132758D01*
X0241869Y0132887D01*
X0241950Y0133014D01*
X0242034Y0133139D01*
X0242122Y0133262D01*
X0242213Y0133382D01*
X0242307Y0133500D01*
X0242404Y0133615D01*
X0242504Y0133728D01*
X0242607Y0133838D01*
X0242713Y0133945D01*
X0242822Y0134050D01*
X0242933Y0134151D01*
X0243047Y0134250D01*
X0243163Y0134345D01*
X0243283Y0134438D01*
X0243404Y0134527D01*
X0243528Y0134613D01*
X0243654Y0134696D01*
X0243782Y0134775D01*
X0243912Y0134851D01*
X0244044Y0134924D01*
X0244178Y0134992D01*
X0244314Y0135058D01*
X0244452Y0135120D01*
X0244591Y0135178D01*
X0244731Y0135232D01*
X0244873Y0135283D01*
X0245016Y0135330D01*
X0245161Y0135373D01*
X0245306Y0135412D01*
X0245453Y0135448D01*
X0245600Y0135479D01*
X0245748Y0135507D01*
X0245897Y0135531D01*
X0246046Y0135551D01*
X0246196Y0135567D01*
X0246346Y0135579D01*
X0246497Y0135587D01*
X0246648Y0135591D01*
X0246798Y0135591D01*
X0246949Y0135587D01*
X0247100Y0135579D01*
X0247250Y0135567D01*
X0247400Y0135551D01*
X0247549Y0135531D01*
X0247698Y0135507D01*
X0247846Y0135479D01*
X0247993Y0135448D01*
X0248140Y0135412D01*
X0248285Y0135373D01*
X0248430Y0135330D01*
X0248573Y0135283D01*
X0248715Y0135232D01*
X0248855Y0135178D01*
X0248994Y0135120D01*
X0249132Y0135058D01*
X0249268Y0134992D01*
X0249402Y0134924D01*
X0249534Y0134851D01*
X0249664Y0134775D01*
X0249792Y0134696D01*
X0249918Y0134613D01*
X0250042Y0134527D01*
X0250163Y0134438D01*
X0250283Y0134345D01*
X0250399Y0134250D01*
X0250513Y0134151D01*
X0250624Y0134050D01*
X0250733Y0133945D01*
X0250839Y0133838D01*
X0250942Y0133728D01*
X0251042Y0133615D01*
X0251139Y0133500D01*
X0251233Y0133382D01*
X0251324Y0133262D01*
X0251412Y0133139D01*
X0251496Y0133014D01*
X0251577Y0132887D01*
X0251655Y0132758D01*
X0251729Y0132627D01*
X0251799Y0132494D01*
X0251867Y0132359D01*
X0251930Y0132222D01*
X0251990Y0132084D01*
X0252046Y0131944D01*
X0252099Y0131803D01*
X0252148Y0131661D01*
X0252193Y0131517D01*
X0252234Y0131372D01*
X0252272Y0131226D01*
X0252305Y0131079D01*
X0252335Y0130931D01*
X0252361Y0130783D01*
X0252382Y0130633D01*
X0252400Y0130484D01*
X0252414Y0130334D01*
X0252424Y0130183D01*
X0252430Y0130033D01*
X0252432Y0129882D01*
X0252430Y0129731D01*
X0252424Y0129581D01*
X0252414Y0129430D01*
X0252400Y0129280D01*
X0252382Y0129131D01*
X0252361Y0128981D01*
X0252335Y0128833D01*
X0252305Y0128685D01*
X0252272Y0128538D01*
X0252234Y0128392D01*
X0252193Y0128247D01*
X0252148Y0128103D01*
X0252099Y0127961D01*
X0252046Y0127820D01*
X0251990Y0127680D01*
X0251930Y0127542D01*
X0251867Y0127405D01*
X0251799Y0127270D01*
X0251729Y0127137D01*
X0251655Y0127006D01*
X0251577Y0126877D01*
X0251496Y0126750D01*
X0251412Y0126625D01*
X0251324Y0126502D01*
X0251233Y0126382D01*
X0251139Y0126264D01*
X0251042Y0126149D01*
X0250942Y0126036D01*
X0250839Y0125926D01*
X0250733Y0125819D01*
X0250624Y0125714D01*
X0250513Y0125613D01*
X0250399Y0125514D01*
X0250283Y0125419D01*
X0250163Y0125326D01*
X0250042Y0125237D01*
X0249918Y0125151D01*
X0249792Y0125068D01*
X0249664Y0124989D01*
X0249534Y0124913D01*
X0249402Y0124840D01*
X0249268Y0124772D01*
X0249132Y0124706D01*
X0248994Y0124644D01*
X0248855Y0124586D01*
X0248715Y0124532D01*
X0248573Y0124481D01*
X0248430Y0124434D01*
X0248285Y0124391D01*
X0248140Y0124352D01*
X0247993Y0124316D01*
X0247846Y0124285D01*
X0247698Y0124257D01*
X0247549Y0124233D01*
X0247400Y0124213D01*
X0247250Y0124197D01*
X0247100Y0124185D01*
X0246949Y0124177D01*
X0246798Y0124173D01*
X0246648Y0124173D01*
X0246497Y0124177D01*
X0246346Y0124185D01*
X0246196Y0124197D01*
X0246046Y0124213D01*
X0245897Y0124233D01*
X0245748Y0124257D01*
X0245600Y0124285D01*
X0245453Y0124316D01*
X0245306Y0124352D01*
X0245161Y0124391D01*
X0245016Y0124434D01*
X0244873Y0124481D01*
X0244731Y0124532D01*
X0244591Y0124586D01*
X0244452Y0124644D01*
X0244314Y0124706D01*
X0244178Y0124772D01*
X0244044Y0124840D01*
X0243912Y0124913D01*
X0243782Y0124989D01*
X0243654Y0125068D01*
X0243528Y0125151D01*
X0243404Y0125237D01*
X0243283Y0125326D01*
X0243163Y0125419D01*
X0243047Y0125514D01*
X0242933Y0125613D01*
X0242822Y0125714D01*
X0242713Y0125819D01*
X0242607Y0125926D01*
X0242504Y0126036D01*
X0242404Y0126149D01*
X0242307Y0126264D01*
X0242213Y0126382D01*
X0242122Y0126502D01*
X0242034Y0126625D01*
X0241950Y0126750D01*
X0241869Y0126877D01*
X0241791Y0127006D01*
X0241717Y0127137D01*
X0241647Y0127270D01*
X0241579Y0127405D01*
X0241516Y0127542D01*
X0241456Y0127680D01*
X0241400Y0127820D01*
X0241347Y0127961D01*
X0241298Y0128103D01*
X0241253Y0128247D01*
X0241212Y0128392D01*
X0241174Y0128538D01*
X0241141Y0128685D01*
X0241111Y0128833D01*
X0241085Y0128981D01*
X0241064Y0129131D01*
X0241046Y0129280D01*
X0241032Y0129430D01*
X0241022Y0129581D01*
X0241016Y0129731D01*
X0241014Y0129882D01*
X0237379Y0130494D02*
X0236612Y0131261D01*
X0235077Y0131261D01*
X0234310Y0130494D01*
X0234310Y0129727D01*
X0235077Y0128192D01*
X0232775Y0128192D01*
X0232775Y0131261D01*
X0237379Y0130494D02*
X0237379Y0128959D01*
X0236612Y0128192D01*
X0243924Y0120850D02*
X0243947Y0120827D01*
X0241014Y0116102D02*
X0241016Y0116253D01*
X0241022Y0116403D01*
X0241032Y0116554D01*
X0241046Y0116704D01*
X0241064Y0116853D01*
X0241085Y0117003D01*
X0241111Y0117151D01*
X0241141Y0117299D01*
X0241174Y0117446D01*
X0241212Y0117592D01*
X0241253Y0117737D01*
X0241298Y0117881D01*
X0241347Y0118023D01*
X0241400Y0118164D01*
X0241456Y0118304D01*
X0241516Y0118442D01*
X0241579Y0118579D01*
X0241647Y0118714D01*
X0241717Y0118847D01*
X0241791Y0118978D01*
X0241869Y0119107D01*
X0241950Y0119234D01*
X0242034Y0119359D01*
X0242122Y0119482D01*
X0242213Y0119602D01*
X0242307Y0119720D01*
X0242404Y0119835D01*
X0242504Y0119948D01*
X0242607Y0120058D01*
X0242713Y0120165D01*
X0242822Y0120270D01*
X0242933Y0120371D01*
X0243047Y0120470D01*
X0243163Y0120565D01*
X0243283Y0120658D01*
X0243404Y0120747D01*
X0243528Y0120833D01*
X0243654Y0120916D01*
X0243782Y0120995D01*
X0243912Y0121071D01*
X0244044Y0121144D01*
X0244178Y0121212D01*
X0244314Y0121278D01*
X0244452Y0121340D01*
X0244591Y0121398D01*
X0244731Y0121452D01*
X0244873Y0121503D01*
X0245016Y0121550D01*
X0245161Y0121593D01*
X0245306Y0121632D01*
X0245453Y0121668D01*
X0245600Y0121699D01*
X0245748Y0121727D01*
X0245897Y0121751D01*
X0246046Y0121771D01*
X0246196Y0121787D01*
X0246346Y0121799D01*
X0246497Y0121807D01*
X0246648Y0121811D01*
X0246798Y0121811D01*
X0246949Y0121807D01*
X0247100Y0121799D01*
X0247250Y0121787D01*
X0247400Y0121771D01*
X0247549Y0121751D01*
X0247698Y0121727D01*
X0247846Y0121699D01*
X0247993Y0121668D01*
X0248140Y0121632D01*
X0248285Y0121593D01*
X0248430Y0121550D01*
X0248573Y0121503D01*
X0248715Y0121452D01*
X0248855Y0121398D01*
X0248994Y0121340D01*
X0249132Y0121278D01*
X0249268Y0121212D01*
X0249402Y0121144D01*
X0249534Y0121071D01*
X0249664Y0120995D01*
X0249792Y0120916D01*
X0249918Y0120833D01*
X0250042Y0120747D01*
X0250163Y0120658D01*
X0250283Y0120565D01*
X0250399Y0120470D01*
X0250513Y0120371D01*
X0250624Y0120270D01*
X0250733Y0120165D01*
X0250839Y0120058D01*
X0250942Y0119948D01*
X0251042Y0119835D01*
X0251139Y0119720D01*
X0251233Y0119602D01*
X0251324Y0119482D01*
X0251412Y0119359D01*
X0251496Y0119234D01*
X0251577Y0119107D01*
X0251655Y0118978D01*
X0251729Y0118847D01*
X0251799Y0118714D01*
X0251867Y0118579D01*
X0251930Y0118442D01*
X0251990Y0118304D01*
X0252046Y0118164D01*
X0252099Y0118023D01*
X0252148Y0117881D01*
X0252193Y0117737D01*
X0252234Y0117592D01*
X0252272Y0117446D01*
X0252305Y0117299D01*
X0252335Y0117151D01*
X0252361Y0117003D01*
X0252382Y0116853D01*
X0252400Y0116704D01*
X0252414Y0116554D01*
X0252424Y0116403D01*
X0252430Y0116253D01*
X0252432Y0116102D01*
X0252430Y0115951D01*
X0252424Y0115801D01*
X0252414Y0115650D01*
X0252400Y0115500D01*
X0252382Y0115351D01*
X0252361Y0115201D01*
X0252335Y0115053D01*
X0252305Y0114905D01*
X0252272Y0114758D01*
X0252234Y0114612D01*
X0252193Y0114467D01*
X0252148Y0114323D01*
X0252099Y0114181D01*
X0252046Y0114040D01*
X0251990Y0113900D01*
X0251930Y0113762D01*
X0251867Y0113625D01*
X0251799Y0113490D01*
X0251729Y0113357D01*
X0251655Y0113226D01*
X0251577Y0113097D01*
X0251496Y0112970D01*
X0251412Y0112845D01*
X0251324Y0112722D01*
X0251233Y0112602D01*
X0251139Y0112484D01*
X0251042Y0112369D01*
X0250942Y0112256D01*
X0250839Y0112146D01*
X0250733Y0112039D01*
X0250624Y0111934D01*
X0250513Y0111833D01*
X0250399Y0111734D01*
X0250283Y0111639D01*
X0250163Y0111546D01*
X0250042Y0111457D01*
X0249918Y0111371D01*
X0249792Y0111288D01*
X0249664Y0111209D01*
X0249534Y0111133D01*
X0249402Y0111060D01*
X0249268Y0110992D01*
X0249132Y0110926D01*
X0248994Y0110864D01*
X0248855Y0110806D01*
X0248715Y0110752D01*
X0248573Y0110701D01*
X0248430Y0110654D01*
X0248285Y0110611D01*
X0248140Y0110572D01*
X0247993Y0110536D01*
X0247846Y0110505D01*
X0247698Y0110477D01*
X0247549Y0110453D01*
X0247400Y0110433D01*
X0247250Y0110417D01*
X0247100Y0110405D01*
X0246949Y0110397D01*
X0246798Y0110393D01*
X0246648Y0110393D01*
X0246497Y0110397D01*
X0246346Y0110405D01*
X0246196Y0110417D01*
X0246046Y0110433D01*
X0245897Y0110453D01*
X0245748Y0110477D01*
X0245600Y0110505D01*
X0245453Y0110536D01*
X0245306Y0110572D01*
X0245161Y0110611D01*
X0245016Y0110654D01*
X0244873Y0110701D01*
X0244731Y0110752D01*
X0244591Y0110806D01*
X0244452Y0110864D01*
X0244314Y0110926D01*
X0244178Y0110992D01*
X0244044Y0111060D01*
X0243912Y0111133D01*
X0243782Y0111209D01*
X0243654Y0111288D01*
X0243528Y0111371D01*
X0243404Y0111457D01*
X0243283Y0111546D01*
X0243163Y0111639D01*
X0243047Y0111734D01*
X0242933Y0111833D01*
X0242822Y0111934D01*
X0242713Y0112039D01*
X0242607Y0112146D01*
X0242504Y0112256D01*
X0242404Y0112369D01*
X0242307Y0112484D01*
X0242213Y0112602D01*
X0242122Y0112722D01*
X0242034Y0112845D01*
X0241950Y0112970D01*
X0241869Y0113097D01*
X0241791Y0113226D01*
X0241717Y0113357D01*
X0241647Y0113490D01*
X0241579Y0113625D01*
X0241516Y0113762D01*
X0241456Y0113900D01*
X0241400Y0114040D01*
X0241347Y0114181D01*
X0241298Y0114323D01*
X0241253Y0114467D01*
X0241212Y0114612D01*
X0241174Y0114758D01*
X0241141Y0114905D01*
X0241111Y0115053D01*
X0241085Y0115201D01*
X0241064Y0115351D01*
X0241046Y0115500D01*
X0241032Y0115650D01*
X0241022Y0115801D01*
X0241016Y0115951D01*
X0241014Y0116102D01*
X0237379Y0116744D02*
X0232775Y0116744D01*
X0235077Y0114442D01*
X0235077Y0117511D01*
X0243924Y0107071D02*
X0243947Y0107047D01*
X0241014Y0102323D02*
X0241016Y0102474D01*
X0241022Y0102624D01*
X0241032Y0102775D01*
X0241046Y0102925D01*
X0241064Y0103074D01*
X0241085Y0103224D01*
X0241111Y0103372D01*
X0241141Y0103520D01*
X0241174Y0103667D01*
X0241212Y0103813D01*
X0241253Y0103958D01*
X0241298Y0104102D01*
X0241347Y0104244D01*
X0241400Y0104385D01*
X0241456Y0104525D01*
X0241516Y0104663D01*
X0241579Y0104800D01*
X0241647Y0104935D01*
X0241717Y0105068D01*
X0241791Y0105199D01*
X0241869Y0105328D01*
X0241950Y0105455D01*
X0242034Y0105580D01*
X0242122Y0105703D01*
X0242213Y0105823D01*
X0242307Y0105941D01*
X0242404Y0106056D01*
X0242504Y0106169D01*
X0242607Y0106279D01*
X0242713Y0106386D01*
X0242822Y0106491D01*
X0242933Y0106592D01*
X0243047Y0106691D01*
X0243163Y0106786D01*
X0243283Y0106879D01*
X0243404Y0106968D01*
X0243528Y0107054D01*
X0243654Y0107137D01*
X0243782Y0107216D01*
X0243912Y0107292D01*
X0244044Y0107365D01*
X0244178Y0107433D01*
X0244314Y0107499D01*
X0244452Y0107561D01*
X0244591Y0107619D01*
X0244731Y0107673D01*
X0244873Y0107724D01*
X0245016Y0107771D01*
X0245161Y0107814D01*
X0245306Y0107853D01*
X0245453Y0107889D01*
X0245600Y0107920D01*
X0245748Y0107948D01*
X0245897Y0107972D01*
X0246046Y0107992D01*
X0246196Y0108008D01*
X0246346Y0108020D01*
X0246497Y0108028D01*
X0246648Y0108032D01*
X0246798Y0108032D01*
X0246949Y0108028D01*
X0247100Y0108020D01*
X0247250Y0108008D01*
X0247400Y0107992D01*
X0247549Y0107972D01*
X0247698Y0107948D01*
X0247846Y0107920D01*
X0247993Y0107889D01*
X0248140Y0107853D01*
X0248285Y0107814D01*
X0248430Y0107771D01*
X0248573Y0107724D01*
X0248715Y0107673D01*
X0248855Y0107619D01*
X0248994Y0107561D01*
X0249132Y0107499D01*
X0249268Y0107433D01*
X0249402Y0107365D01*
X0249534Y0107292D01*
X0249664Y0107216D01*
X0249792Y0107137D01*
X0249918Y0107054D01*
X0250042Y0106968D01*
X0250163Y0106879D01*
X0250283Y0106786D01*
X0250399Y0106691D01*
X0250513Y0106592D01*
X0250624Y0106491D01*
X0250733Y0106386D01*
X0250839Y0106279D01*
X0250942Y0106169D01*
X0251042Y0106056D01*
X0251139Y0105941D01*
X0251233Y0105823D01*
X0251324Y0105703D01*
X0251412Y0105580D01*
X0251496Y0105455D01*
X0251577Y0105328D01*
X0251655Y0105199D01*
X0251729Y0105068D01*
X0251799Y0104935D01*
X0251867Y0104800D01*
X0251930Y0104663D01*
X0251990Y0104525D01*
X0252046Y0104385D01*
X0252099Y0104244D01*
X0252148Y0104102D01*
X0252193Y0103958D01*
X0252234Y0103813D01*
X0252272Y0103667D01*
X0252305Y0103520D01*
X0252335Y0103372D01*
X0252361Y0103224D01*
X0252382Y0103074D01*
X0252400Y0102925D01*
X0252414Y0102775D01*
X0252424Y0102624D01*
X0252430Y0102474D01*
X0252432Y0102323D01*
X0252430Y0102172D01*
X0252424Y0102022D01*
X0252414Y0101871D01*
X0252400Y0101721D01*
X0252382Y0101572D01*
X0252361Y0101422D01*
X0252335Y0101274D01*
X0252305Y0101126D01*
X0252272Y0100979D01*
X0252234Y0100833D01*
X0252193Y0100688D01*
X0252148Y0100544D01*
X0252099Y0100402D01*
X0252046Y0100261D01*
X0251990Y0100121D01*
X0251930Y0099983D01*
X0251867Y0099846D01*
X0251799Y0099711D01*
X0251729Y0099578D01*
X0251655Y0099447D01*
X0251577Y0099318D01*
X0251496Y0099191D01*
X0251412Y0099066D01*
X0251324Y0098943D01*
X0251233Y0098823D01*
X0251139Y0098705D01*
X0251042Y0098590D01*
X0250942Y0098477D01*
X0250839Y0098367D01*
X0250733Y0098260D01*
X0250624Y0098155D01*
X0250513Y0098054D01*
X0250399Y0097955D01*
X0250283Y0097860D01*
X0250163Y0097767D01*
X0250042Y0097678D01*
X0249918Y0097592D01*
X0249792Y0097509D01*
X0249664Y0097430D01*
X0249534Y0097354D01*
X0249402Y0097281D01*
X0249268Y0097213D01*
X0249132Y0097147D01*
X0248994Y0097085D01*
X0248855Y0097027D01*
X0248715Y0096973D01*
X0248573Y0096922D01*
X0248430Y0096875D01*
X0248285Y0096832D01*
X0248140Y0096793D01*
X0247993Y0096757D01*
X0247846Y0096726D01*
X0247698Y0096698D01*
X0247549Y0096674D01*
X0247400Y0096654D01*
X0247250Y0096638D01*
X0247100Y0096626D01*
X0246949Y0096618D01*
X0246798Y0096614D01*
X0246648Y0096614D01*
X0246497Y0096618D01*
X0246346Y0096626D01*
X0246196Y0096638D01*
X0246046Y0096654D01*
X0245897Y0096674D01*
X0245748Y0096698D01*
X0245600Y0096726D01*
X0245453Y0096757D01*
X0245306Y0096793D01*
X0245161Y0096832D01*
X0245016Y0096875D01*
X0244873Y0096922D01*
X0244731Y0096973D01*
X0244591Y0097027D01*
X0244452Y0097085D01*
X0244314Y0097147D01*
X0244178Y0097213D01*
X0244044Y0097281D01*
X0243912Y0097354D01*
X0243782Y0097430D01*
X0243654Y0097509D01*
X0243528Y0097592D01*
X0243404Y0097678D01*
X0243283Y0097767D01*
X0243163Y0097860D01*
X0243047Y0097955D01*
X0242933Y0098054D01*
X0242822Y0098155D01*
X0242713Y0098260D01*
X0242607Y0098367D01*
X0242504Y0098477D01*
X0242404Y0098590D01*
X0242307Y0098705D01*
X0242213Y0098823D01*
X0242122Y0098943D01*
X0242034Y0099066D01*
X0241950Y0099191D01*
X0241869Y0099318D01*
X0241791Y0099447D01*
X0241717Y0099578D01*
X0241647Y0099711D01*
X0241579Y0099846D01*
X0241516Y0099983D01*
X0241456Y0100121D01*
X0241400Y0100261D01*
X0241347Y0100402D01*
X0241298Y0100544D01*
X0241253Y0100688D01*
X0241212Y0100833D01*
X0241174Y0100979D01*
X0241141Y0101126D01*
X0241111Y0101274D01*
X0241085Y0101422D01*
X0241064Y0101572D01*
X0241046Y0101721D01*
X0241032Y0101871D01*
X0241022Y0102022D01*
X0241016Y0102172D01*
X0241014Y0102323D01*
X0237379Y0102994D02*
X0237379Y0101459D01*
X0236612Y0100692D01*
X0235077Y0102227D02*
X0235077Y0102994D01*
X0235845Y0103761D01*
X0236612Y0103761D01*
X0237379Y0102994D01*
X0235077Y0102994D02*
X0234310Y0103761D01*
X0233543Y0103761D01*
X0232775Y0102994D01*
X0232775Y0101459D01*
X0233543Y0100692D01*
X0243924Y0093291D02*
X0243947Y0093268D01*
X0241014Y0088543D02*
X0241016Y0088694D01*
X0241022Y0088844D01*
X0241032Y0088995D01*
X0241046Y0089145D01*
X0241064Y0089294D01*
X0241085Y0089444D01*
X0241111Y0089592D01*
X0241141Y0089740D01*
X0241174Y0089887D01*
X0241212Y0090033D01*
X0241253Y0090178D01*
X0241298Y0090322D01*
X0241347Y0090464D01*
X0241400Y0090605D01*
X0241456Y0090745D01*
X0241516Y0090883D01*
X0241579Y0091020D01*
X0241647Y0091155D01*
X0241717Y0091288D01*
X0241791Y0091419D01*
X0241869Y0091548D01*
X0241950Y0091675D01*
X0242034Y0091800D01*
X0242122Y0091923D01*
X0242213Y0092043D01*
X0242307Y0092161D01*
X0242404Y0092276D01*
X0242504Y0092389D01*
X0242607Y0092499D01*
X0242713Y0092606D01*
X0242822Y0092711D01*
X0242933Y0092812D01*
X0243047Y0092911D01*
X0243163Y0093006D01*
X0243283Y0093099D01*
X0243404Y0093188D01*
X0243528Y0093274D01*
X0243654Y0093357D01*
X0243782Y0093436D01*
X0243912Y0093512D01*
X0244044Y0093585D01*
X0244178Y0093653D01*
X0244314Y0093719D01*
X0244452Y0093781D01*
X0244591Y0093839D01*
X0244731Y0093893D01*
X0244873Y0093944D01*
X0245016Y0093991D01*
X0245161Y0094034D01*
X0245306Y0094073D01*
X0245453Y0094109D01*
X0245600Y0094140D01*
X0245748Y0094168D01*
X0245897Y0094192D01*
X0246046Y0094212D01*
X0246196Y0094228D01*
X0246346Y0094240D01*
X0246497Y0094248D01*
X0246648Y0094252D01*
X0246798Y0094252D01*
X0246949Y0094248D01*
X0247100Y0094240D01*
X0247250Y0094228D01*
X0247400Y0094212D01*
X0247549Y0094192D01*
X0247698Y0094168D01*
X0247846Y0094140D01*
X0247993Y0094109D01*
X0248140Y0094073D01*
X0248285Y0094034D01*
X0248430Y0093991D01*
X0248573Y0093944D01*
X0248715Y0093893D01*
X0248855Y0093839D01*
X0248994Y0093781D01*
X0249132Y0093719D01*
X0249268Y0093653D01*
X0249402Y0093585D01*
X0249534Y0093512D01*
X0249664Y0093436D01*
X0249792Y0093357D01*
X0249918Y0093274D01*
X0250042Y0093188D01*
X0250163Y0093099D01*
X0250283Y0093006D01*
X0250399Y0092911D01*
X0250513Y0092812D01*
X0250624Y0092711D01*
X0250733Y0092606D01*
X0250839Y0092499D01*
X0250942Y0092389D01*
X0251042Y0092276D01*
X0251139Y0092161D01*
X0251233Y0092043D01*
X0251324Y0091923D01*
X0251412Y0091800D01*
X0251496Y0091675D01*
X0251577Y0091548D01*
X0251655Y0091419D01*
X0251729Y0091288D01*
X0251799Y0091155D01*
X0251867Y0091020D01*
X0251930Y0090883D01*
X0251990Y0090745D01*
X0252046Y0090605D01*
X0252099Y0090464D01*
X0252148Y0090322D01*
X0252193Y0090178D01*
X0252234Y0090033D01*
X0252272Y0089887D01*
X0252305Y0089740D01*
X0252335Y0089592D01*
X0252361Y0089444D01*
X0252382Y0089294D01*
X0252400Y0089145D01*
X0252414Y0088995D01*
X0252424Y0088844D01*
X0252430Y0088694D01*
X0252432Y0088543D01*
X0252430Y0088392D01*
X0252424Y0088242D01*
X0252414Y0088091D01*
X0252400Y0087941D01*
X0252382Y0087792D01*
X0252361Y0087642D01*
X0252335Y0087494D01*
X0252305Y0087346D01*
X0252272Y0087199D01*
X0252234Y0087053D01*
X0252193Y0086908D01*
X0252148Y0086764D01*
X0252099Y0086622D01*
X0252046Y0086481D01*
X0251990Y0086341D01*
X0251930Y0086203D01*
X0251867Y0086066D01*
X0251799Y0085931D01*
X0251729Y0085798D01*
X0251655Y0085667D01*
X0251577Y0085538D01*
X0251496Y0085411D01*
X0251412Y0085286D01*
X0251324Y0085163D01*
X0251233Y0085043D01*
X0251139Y0084925D01*
X0251042Y0084810D01*
X0250942Y0084697D01*
X0250839Y0084587D01*
X0250733Y0084480D01*
X0250624Y0084375D01*
X0250513Y0084274D01*
X0250399Y0084175D01*
X0250283Y0084080D01*
X0250163Y0083987D01*
X0250042Y0083898D01*
X0249918Y0083812D01*
X0249792Y0083729D01*
X0249664Y0083650D01*
X0249534Y0083574D01*
X0249402Y0083501D01*
X0249268Y0083433D01*
X0249132Y0083367D01*
X0248994Y0083305D01*
X0248855Y0083247D01*
X0248715Y0083193D01*
X0248573Y0083142D01*
X0248430Y0083095D01*
X0248285Y0083052D01*
X0248140Y0083013D01*
X0247993Y0082977D01*
X0247846Y0082946D01*
X0247698Y0082918D01*
X0247549Y0082894D01*
X0247400Y0082874D01*
X0247250Y0082858D01*
X0247100Y0082846D01*
X0246949Y0082838D01*
X0246798Y0082834D01*
X0246648Y0082834D01*
X0246497Y0082838D01*
X0246346Y0082846D01*
X0246196Y0082858D01*
X0246046Y0082874D01*
X0245897Y0082894D01*
X0245748Y0082918D01*
X0245600Y0082946D01*
X0245453Y0082977D01*
X0245306Y0083013D01*
X0245161Y0083052D01*
X0245016Y0083095D01*
X0244873Y0083142D01*
X0244731Y0083193D01*
X0244591Y0083247D01*
X0244452Y0083305D01*
X0244314Y0083367D01*
X0244178Y0083433D01*
X0244044Y0083501D01*
X0243912Y0083574D01*
X0243782Y0083650D01*
X0243654Y0083729D01*
X0243528Y0083812D01*
X0243404Y0083898D01*
X0243283Y0083987D01*
X0243163Y0084080D01*
X0243047Y0084175D01*
X0242933Y0084274D01*
X0242822Y0084375D01*
X0242713Y0084480D01*
X0242607Y0084587D01*
X0242504Y0084697D01*
X0242404Y0084810D01*
X0242307Y0084925D01*
X0242213Y0085043D01*
X0242122Y0085163D01*
X0242034Y0085286D01*
X0241950Y0085411D01*
X0241869Y0085538D01*
X0241791Y0085667D01*
X0241717Y0085798D01*
X0241647Y0085931D01*
X0241579Y0086066D01*
X0241516Y0086203D01*
X0241456Y0086341D01*
X0241400Y0086481D01*
X0241347Y0086622D01*
X0241298Y0086764D01*
X0241253Y0086908D01*
X0241212Y0087053D01*
X0241174Y0087199D01*
X0241141Y0087346D01*
X0241111Y0087494D01*
X0241085Y0087642D01*
X0241064Y0087792D01*
X0241046Y0087941D01*
X0241032Y0088091D01*
X0241022Y0088242D01*
X0241016Y0088392D01*
X0241014Y0088543D01*
X0237379Y0090011D02*
X0237379Y0086942D01*
X0234310Y0090011D01*
X0233543Y0090011D01*
X0232775Y0089244D01*
X0232775Y0087709D01*
X0233543Y0086942D01*
X0243924Y0079512D02*
X0243947Y0079488D01*
X0241014Y0074764D02*
X0241016Y0074915D01*
X0241022Y0075065D01*
X0241032Y0075216D01*
X0241046Y0075366D01*
X0241064Y0075515D01*
X0241085Y0075665D01*
X0241111Y0075813D01*
X0241141Y0075961D01*
X0241174Y0076108D01*
X0241212Y0076254D01*
X0241253Y0076399D01*
X0241298Y0076543D01*
X0241347Y0076685D01*
X0241400Y0076826D01*
X0241456Y0076966D01*
X0241516Y0077104D01*
X0241579Y0077241D01*
X0241647Y0077376D01*
X0241717Y0077509D01*
X0241791Y0077640D01*
X0241869Y0077769D01*
X0241950Y0077896D01*
X0242034Y0078021D01*
X0242122Y0078144D01*
X0242213Y0078264D01*
X0242307Y0078382D01*
X0242404Y0078497D01*
X0242504Y0078610D01*
X0242607Y0078720D01*
X0242713Y0078827D01*
X0242822Y0078932D01*
X0242933Y0079033D01*
X0243047Y0079132D01*
X0243163Y0079227D01*
X0243283Y0079320D01*
X0243404Y0079409D01*
X0243528Y0079495D01*
X0243654Y0079578D01*
X0243782Y0079657D01*
X0243912Y0079733D01*
X0244044Y0079806D01*
X0244178Y0079874D01*
X0244314Y0079940D01*
X0244452Y0080002D01*
X0244591Y0080060D01*
X0244731Y0080114D01*
X0244873Y0080165D01*
X0245016Y0080212D01*
X0245161Y0080255D01*
X0245306Y0080294D01*
X0245453Y0080330D01*
X0245600Y0080361D01*
X0245748Y0080389D01*
X0245897Y0080413D01*
X0246046Y0080433D01*
X0246196Y0080449D01*
X0246346Y0080461D01*
X0246497Y0080469D01*
X0246648Y0080473D01*
X0246798Y0080473D01*
X0246949Y0080469D01*
X0247100Y0080461D01*
X0247250Y0080449D01*
X0247400Y0080433D01*
X0247549Y0080413D01*
X0247698Y0080389D01*
X0247846Y0080361D01*
X0247993Y0080330D01*
X0248140Y0080294D01*
X0248285Y0080255D01*
X0248430Y0080212D01*
X0248573Y0080165D01*
X0248715Y0080114D01*
X0248855Y0080060D01*
X0248994Y0080002D01*
X0249132Y0079940D01*
X0249268Y0079874D01*
X0249402Y0079806D01*
X0249534Y0079733D01*
X0249664Y0079657D01*
X0249792Y0079578D01*
X0249918Y0079495D01*
X0250042Y0079409D01*
X0250163Y0079320D01*
X0250283Y0079227D01*
X0250399Y0079132D01*
X0250513Y0079033D01*
X0250624Y0078932D01*
X0250733Y0078827D01*
X0250839Y0078720D01*
X0250942Y0078610D01*
X0251042Y0078497D01*
X0251139Y0078382D01*
X0251233Y0078264D01*
X0251324Y0078144D01*
X0251412Y0078021D01*
X0251496Y0077896D01*
X0251577Y0077769D01*
X0251655Y0077640D01*
X0251729Y0077509D01*
X0251799Y0077376D01*
X0251867Y0077241D01*
X0251930Y0077104D01*
X0251990Y0076966D01*
X0252046Y0076826D01*
X0252099Y0076685D01*
X0252148Y0076543D01*
X0252193Y0076399D01*
X0252234Y0076254D01*
X0252272Y0076108D01*
X0252305Y0075961D01*
X0252335Y0075813D01*
X0252361Y0075665D01*
X0252382Y0075515D01*
X0252400Y0075366D01*
X0252414Y0075216D01*
X0252424Y0075065D01*
X0252430Y0074915D01*
X0252432Y0074764D01*
X0252430Y0074613D01*
X0252424Y0074463D01*
X0252414Y0074312D01*
X0252400Y0074162D01*
X0252382Y0074013D01*
X0252361Y0073863D01*
X0252335Y0073715D01*
X0252305Y0073567D01*
X0252272Y0073420D01*
X0252234Y0073274D01*
X0252193Y0073129D01*
X0252148Y0072985D01*
X0252099Y0072843D01*
X0252046Y0072702D01*
X0251990Y0072562D01*
X0251930Y0072424D01*
X0251867Y0072287D01*
X0251799Y0072152D01*
X0251729Y0072019D01*
X0251655Y0071888D01*
X0251577Y0071759D01*
X0251496Y0071632D01*
X0251412Y0071507D01*
X0251324Y0071384D01*
X0251233Y0071264D01*
X0251139Y0071146D01*
X0251042Y0071031D01*
X0250942Y0070918D01*
X0250839Y0070808D01*
X0250733Y0070701D01*
X0250624Y0070596D01*
X0250513Y0070495D01*
X0250399Y0070396D01*
X0250283Y0070301D01*
X0250163Y0070208D01*
X0250042Y0070119D01*
X0249918Y0070033D01*
X0249792Y0069950D01*
X0249664Y0069871D01*
X0249534Y0069795D01*
X0249402Y0069722D01*
X0249268Y0069654D01*
X0249132Y0069588D01*
X0248994Y0069526D01*
X0248855Y0069468D01*
X0248715Y0069414D01*
X0248573Y0069363D01*
X0248430Y0069316D01*
X0248285Y0069273D01*
X0248140Y0069234D01*
X0247993Y0069198D01*
X0247846Y0069167D01*
X0247698Y0069139D01*
X0247549Y0069115D01*
X0247400Y0069095D01*
X0247250Y0069079D01*
X0247100Y0069067D01*
X0246949Y0069059D01*
X0246798Y0069055D01*
X0246648Y0069055D01*
X0246497Y0069059D01*
X0246346Y0069067D01*
X0246196Y0069079D01*
X0246046Y0069095D01*
X0245897Y0069115D01*
X0245748Y0069139D01*
X0245600Y0069167D01*
X0245453Y0069198D01*
X0245306Y0069234D01*
X0245161Y0069273D01*
X0245016Y0069316D01*
X0244873Y0069363D01*
X0244731Y0069414D01*
X0244591Y0069468D01*
X0244452Y0069526D01*
X0244314Y0069588D01*
X0244178Y0069654D01*
X0244044Y0069722D01*
X0243912Y0069795D01*
X0243782Y0069871D01*
X0243654Y0069950D01*
X0243528Y0070033D01*
X0243404Y0070119D01*
X0243283Y0070208D01*
X0243163Y0070301D01*
X0243047Y0070396D01*
X0242933Y0070495D01*
X0242822Y0070596D01*
X0242713Y0070701D01*
X0242607Y0070808D01*
X0242504Y0070918D01*
X0242404Y0071031D01*
X0242307Y0071146D01*
X0242213Y0071264D01*
X0242122Y0071384D01*
X0242034Y0071507D01*
X0241950Y0071632D01*
X0241869Y0071759D01*
X0241791Y0071888D01*
X0241717Y0072019D01*
X0241647Y0072152D01*
X0241579Y0072287D01*
X0241516Y0072424D01*
X0241456Y0072562D01*
X0241400Y0072702D01*
X0241347Y0072843D01*
X0241298Y0072985D01*
X0241253Y0073129D01*
X0241212Y0073274D01*
X0241174Y0073420D01*
X0241141Y0073567D01*
X0241111Y0073715D01*
X0241085Y0073863D01*
X0241064Y0074013D01*
X0241046Y0074162D01*
X0241032Y0074312D01*
X0241022Y0074463D01*
X0241016Y0074613D01*
X0241014Y0074764D01*
X0237379Y0074727D02*
X0232775Y0074727D01*
X0234310Y0073192D01*
X0237379Y0073192D02*
X0237379Y0076261D01*
X0238801Y0066890D02*
X0231959Y0066890D01*
X0231959Y0192874D01*
X0238801Y0192874D01*
X0240673Y0192874D01*
X0240673Y0066890D01*
X0252693Y0066890D01*
X0254594Y0066890D01*
X0257790Y0066890D01*
X0259518Y0066890D01*
X0260699Y0066890D01*
X0260699Y0192874D01*
X0259518Y0192874D01*
X0257790Y0192874D01*
X0257790Y0066890D01*
X0259518Y0066890D02*
X0259518Y0192874D01*
X0257790Y0192874D02*
X0254594Y0192874D01*
X0252693Y0192874D01*
X0252693Y0066890D01*
X0254594Y0066890D02*
X0254594Y0192874D01*
X0252693Y0192874D02*
X0240673Y0192874D01*
X0238801Y0192874D02*
X0238801Y0066890D01*
X0240673Y0066890D01*
X0248571Y0065296D02*
X0251641Y0060692D01*
X0253175Y0060692D02*
X0256245Y0063761D01*
X0256245Y0064529D01*
X0255477Y0065296D01*
X0253943Y0065296D01*
X0253175Y0064529D01*
X0251641Y0065296D02*
X0248571Y0060692D01*
X0253175Y0060692D02*
X0256245Y0060692D01*
X0255079Y0067992D02*
X0255079Y0070492D01*
X0257579Y0069242D01*
X0255079Y0067992D01*
X0255079Y0068355D02*
X0255805Y0068355D01*
X0255079Y0068753D02*
X0256602Y0068753D01*
X0256963Y0069550D02*
X0255079Y0069550D01*
X0255079Y0069152D02*
X0257399Y0069152D01*
X0256166Y0069949D02*
X0255079Y0069949D01*
X0255079Y0070347D02*
X0255369Y0070347D01*
X0236612Y0169442D02*
X0235845Y0169442D01*
X0235077Y0170209D01*
X0235077Y0171744D01*
X0235845Y0172511D01*
X0236612Y0172511D01*
X0237379Y0171744D01*
X0237379Y0170209D01*
X0236612Y0169442D01*
X0235077Y0170209D02*
X0234310Y0169442D01*
X0233543Y0169442D01*
X0232775Y0170209D01*
X0232775Y0171744D01*
X0233543Y0172511D01*
X0234310Y0172511D01*
X0235077Y0171744D01*
X0243924Y0175968D02*
X0243947Y0175945D01*
X0241014Y0171220D02*
X0241016Y0171371D01*
X0241022Y0171521D01*
X0241032Y0171672D01*
X0241046Y0171822D01*
X0241064Y0171971D01*
X0241085Y0172121D01*
X0241111Y0172269D01*
X0241141Y0172417D01*
X0241174Y0172564D01*
X0241212Y0172710D01*
X0241253Y0172855D01*
X0241298Y0172999D01*
X0241347Y0173141D01*
X0241400Y0173282D01*
X0241456Y0173422D01*
X0241516Y0173560D01*
X0241579Y0173697D01*
X0241647Y0173832D01*
X0241717Y0173965D01*
X0241791Y0174096D01*
X0241869Y0174225D01*
X0241950Y0174352D01*
X0242034Y0174477D01*
X0242122Y0174600D01*
X0242213Y0174720D01*
X0242307Y0174838D01*
X0242404Y0174953D01*
X0242504Y0175066D01*
X0242607Y0175176D01*
X0242713Y0175283D01*
X0242822Y0175388D01*
X0242933Y0175489D01*
X0243047Y0175588D01*
X0243163Y0175683D01*
X0243283Y0175776D01*
X0243404Y0175865D01*
X0243528Y0175951D01*
X0243654Y0176034D01*
X0243782Y0176113D01*
X0243912Y0176189D01*
X0244044Y0176262D01*
X0244178Y0176330D01*
X0244314Y0176396D01*
X0244452Y0176458D01*
X0244591Y0176516D01*
X0244731Y0176570D01*
X0244873Y0176621D01*
X0245016Y0176668D01*
X0245161Y0176711D01*
X0245306Y0176750D01*
X0245453Y0176786D01*
X0245600Y0176817D01*
X0245748Y0176845D01*
X0245897Y0176869D01*
X0246046Y0176889D01*
X0246196Y0176905D01*
X0246346Y0176917D01*
X0246497Y0176925D01*
X0246648Y0176929D01*
X0246798Y0176929D01*
X0246949Y0176925D01*
X0247100Y0176917D01*
X0247250Y0176905D01*
X0247400Y0176889D01*
X0247549Y0176869D01*
X0247698Y0176845D01*
X0247846Y0176817D01*
X0247993Y0176786D01*
X0248140Y0176750D01*
X0248285Y0176711D01*
X0248430Y0176668D01*
X0248573Y0176621D01*
X0248715Y0176570D01*
X0248855Y0176516D01*
X0248994Y0176458D01*
X0249132Y0176396D01*
X0249268Y0176330D01*
X0249402Y0176262D01*
X0249534Y0176189D01*
X0249664Y0176113D01*
X0249792Y0176034D01*
X0249918Y0175951D01*
X0250042Y0175865D01*
X0250163Y0175776D01*
X0250283Y0175683D01*
X0250399Y0175588D01*
X0250513Y0175489D01*
X0250624Y0175388D01*
X0250733Y0175283D01*
X0250839Y0175176D01*
X0250942Y0175066D01*
X0251042Y0174953D01*
X0251139Y0174838D01*
X0251233Y0174720D01*
X0251324Y0174600D01*
X0251412Y0174477D01*
X0251496Y0174352D01*
X0251577Y0174225D01*
X0251655Y0174096D01*
X0251729Y0173965D01*
X0251799Y0173832D01*
X0251867Y0173697D01*
X0251930Y0173560D01*
X0251990Y0173422D01*
X0252046Y0173282D01*
X0252099Y0173141D01*
X0252148Y0172999D01*
X0252193Y0172855D01*
X0252234Y0172710D01*
X0252272Y0172564D01*
X0252305Y0172417D01*
X0252335Y0172269D01*
X0252361Y0172121D01*
X0252382Y0171971D01*
X0252400Y0171822D01*
X0252414Y0171672D01*
X0252424Y0171521D01*
X0252430Y0171371D01*
X0252432Y0171220D01*
X0252430Y0171069D01*
X0252424Y0170919D01*
X0252414Y0170768D01*
X0252400Y0170618D01*
X0252382Y0170469D01*
X0252361Y0170319D01*
X0252335Y0170171D01*
X0252305Y0170023D01*
X0252272Y0169876D01*
X0252234Y0169730D01*
X0252193Y0169585D01*
X0252148Y0169441D01*
X0252099Y0169299D01*
X0252046Y0169158D01*
X0251990Y0169018D01*
X0251930Y0168880D01*
X0251867Y0168743D01*
X0251799Y0168608D01*
X0251729Y0168475D01*
X0251655Y0168344D01*
X0251577Y0168215D01*
X0251496Y0168088D01*
X0251412Y0167963D01*
X0251324Y0167840D01*
X0251233Y0167720D01*
X0251139Y0167602D01*
X0251042Y0167487D01*
X0250942Y0167374D01*
X0250839Y0167264D01*
X0250733Y0167157D01*
X0250624Y0167052D01*
X0250513Y0166951D01*
X0250399Y0166852D01*
X0250283Y0166757D01*
X0250163Y0166664D01*
X0250042Y0166575D01*
X0249918Y0166489D01*
X0249792Y0166406D01*
X0249664Y0166327D01*
X0249534Y0166251D01*
X0249402Y0166178D01*
X0249268Y0166110D01*
X0249132Y0166044D01*
X0248994Y0165982D01*
X0248855Y0165924D01*
X0248715Y0165870D01*
X0248573Y0165819D01*
X0248430Y0165772D01*
X0248285Y0165729D01*
X0248140Y0165690D01*
X0247993Y0165654D01*
X0247846Y0165623D01*
X0247698Y0165595D01*
X0247549Y0165571D01*
X0247400Y0165551D01*
X0247250Y0165535D01*
X0247100Y0165523D01*
X0246949Y0165515D01*
X0246798Y0165511D01*
X0246648Y0165511D01*
X0246497Y0165515D01*
X0246346Y0165523D01*
X0246196Y0165535D01*
X0246046Y0165551D01*
X0245897Y0165571D01*
X0245748Y0165595D01*
X0245600Y0165623D01*
X0245453Y0165654D01*
X0245306Y0165690D01*
X0245161Y0165729D01*
X0245016Y0165772D01*
X0244873Y0165819D01*
X0244731Y0165870D01*
X0244591Y0165924D01*
X0244452Y0165982D01*
X0244314Y0166044D01*
X0244178Y0166110D01*
X0244044Y0166178D01*
X0243912Y0166251D01*
X0243782Y0166327D01*
X0243654Y0166406D01*
X0243528Y0166489D01*
X0243404Y0166575D01*
X0243283Y0166664D01*
X0243163Y0166757D01*
X0243047Y0166852D01*
X0242933Y0166951D01*
X0242822Y0167052D01*
X0242713Y0167157D01*
X0242607Y0167264D01*
X0242504Y0167374D01*
X0242404Y0167487D01*
X0242307Y0167602D01*
X0242213Y0167720D01*
X0242122Y0167840D01*
X0242034Y0167963D01*
X0241950Y0168088D01*
X0241869Y0168215D01*
X0241791Y0168344D01*
X0241717Y0168475D01*
X0241647Y0168608D01*
X0241579Y0168743D01*
X0241516Y0168880D01*
X0241456Y0169018D01*
X0241400Y0169158D01*
X0241347Y0169299D01*
X0241298Y0169441D01*
X0241253Y0169585D01*
X0241212Y0169730D01*
X0241174Y0169876D01*
X0241141Y0170023D01*
X0241111Y0170171D01*
X0241085Y0170319D01*
X0241064Y0170469D01*
X0241046Y0170618D01*
X0241032Y0170768D01*
X0241022Y0170919D01*
X0241016Y0171069D01*
X0241014Y0171220D01*
X0236612Y0183222D02*
X0237379Y0183989D01*
X0237379Y0185524D01*
X0236612Y0186291D01*
X0233543Y0186291D01*
X0232775Y0185524D01*
X0232775Y0183989D01*
X0233543Y0183222D01*
X0234310Y0183222D01*
X0235077Y0183989D01*
X0235077Y0186291D01*
X0243924Y0189748D02*
X0243947Y0189724D01*
X0241014Y0185000D02*
X0241016Y0185151D01*
X0241022Y0185301D01*
X0241032Y0185452D01*
X0241046Y0185602D01*
X0241064Y0185751D01*
X0241085Y0185901D01*
X0241111Y0186049D01*
X0241141Y0186197D01*
X0241174Y0186344D01*
X0241212Y0186490D01*
X0241253Y0186635D01*
X0241298Y0186779D01*
X0241347Y0186921D01*
X0241400Y0187062D01*
X0241456Y0187202D01*
X0241516Y0187340D01*
X0241579Y0187477D01*
X0241647Y0187612D01*
X0241717Y0187745D01*
X0241791Y0187876D01*
X0241869Y0188005D01*
X0241950Y0188132D01*
X0242034Y0188257D01*
X0242122Y0188380D01*
X0242213Y0188500D01*
X0242307Y0188618D01*
X0242404Y0188733D01*
X0242504Y0188846D01*
X0242607Y0188956D01*
X0242713Y0189063D01*
X0242822Y0189168D01*
X0242933Y0189269D01*
X0243047Y0189368D01*
X0243163Y0189463D01*
X0243283Y0189556D01*
X0243404Y0189645D01*
X0243528Y0189731D01*
X0243654Y0189814D01*
X0243782Y0189893D01*
X0243912Y0189969D01*
X0244044Y0190042D01*
X0244178Y0190110D01*
X0244314Y0190176D01*
X0244452Y0190238D01*
X0244591Y0190296D01*
X0244731Y0190350D01*
X0244873Y0190401D01*
X0245016Y0190448D01*
X0245161Y0190491D01*
X0245306Y0190530D01*
X0245453Y0190566D01*
X0245600Y0190597D01*
X0245748Y0190625D01*
X0245897Y0190649D01*
X0246046Y0190669D01*
X0246196Y0190685D01*
X0246346Y0190697D01*
X0246497Y0190705D01*
X0246648Y0190709D01*
X0246798Y0190709D01*
X0246949Y0190705D01*
X0247100Y0190697D01*
X0247250Y0190685D01*
X0247400Y0190669D01*
X0247549Y0190649D01*
X0247698Y0190625D01*
X0247846Y0190597D01*
X0247993Y0190566D01*
X0248140Y0190530D01*
X0248285Y0190491D01*
X0248430Y0190448D01*
X0248573Y0190401D01*
X0248715Y0190350D01*
X0248855Y0190296D01*
X0248994Y0190238D01*
X0249132Y0190176D01*
X0249268Y0190110D01*
X0249402Y0190042D01*
X0249534Y0189969D01*
X0249664Y0189893D01*
X0249792Y0189814D01*
X0249918Y0189731D01*
X0250042Y0189645D01*
X0250163Y0189556D01*
X0250283Y0189463D01*
X0250399Y0189368D01*
X0250513Y0189269D01*
X0250624Y0189168D01*
X0250733Y0189063D01*
X0250839Y0188956D01*
X0250942Y0188846D01*
X0251042Y0188733D01*
X0251139Y0188618D01*
X0251233Y0188500D01*
X0251324Y0188380D01*
X0251412Y0188257D01*
X0251496Y0188132D01*
X0251577Y0188005D01*
X0251655Y0187876D01*
X0251729Y0187745D01*
X0251799Y0187612D01*
X0251867Y0187477D01*
X0251930Y0187340D01*
X0251990Y0187202D01*
X0252046Y0187062D01*
X0252099Y0186921D01*
X0252148Y0186779D01*
X0252193Y0186635D01*
X0252234Y0186490D01*
X0252272Y0186344D01*
X0252305Y0186197D01*
X0252335Y0186049D01*
X0252361Y0185901D01*
X0252382Y0185751D01*
X0252400Y0185602D01*
X0252414Y0185452D01*
X0252424Y0185301D01*
X0252430Y0185151D01*
X0252432Y0185000D01*
X0252430Y0184849D01*
X0252424Y0184699D01*
X0252414Y0184548D01*
X0252400Y0184398D01*
X0252382Y0184249D01*
X0252361Y0184099D01*
X0252335Y0183951D01*
X0252305Y0183803D01*
X0252272Y0183656D01*
X0252234Y0183510D01*
X0252193Y0183365D01*
X0252148Y0183221D01*
X0252099Y0183079D01*
X0252046Y0182938D01*
X0251990Y0182798D01*
X0251930Y0182660D01*
X0251867Y0182523D01*
X0251799Y0182388D01*
X0251729Y0182255D01*
X0251655Y0182124D01*
X0251577Y0181995D01*
X0251496Y0181868D01*
X0251412Y0181743D01*
X0251324Y0181620D01*
X0251233Y0181500D01*
X0251139Y0181382D01*
X0251042Y0181267D01*
X0250942Y0181154D01*
X0250839Y0181044D01*
X0250733Y0180937D01*
X0250624Y0180832D01*
X0250513Y0180731D01*
X0250399Y0180632D01*
X0250283Y0180537D01*
X0250163Y0180444D01*
X0250042Y0180355D01*
X0249918Y0180269D01*
X0249792Y0180186D01*
X0249664Y0180107D01*
X0249534Y0180031D01*
X0249402Y0179958D01*
X0249268Y0179890D01*
X0249132Y0179824D01*
X0248994Y0179762D01*
X0248855Y0179704D01*
X0248715Y0179650D01*
X0248573Y0179599D01*
X0248430Y0179552D01*
X0248285Y0179509D01*
X0248140Y0179470D01*
X0247993Y0179434D01*
X0247846Y0179403D01*
X0247698Y0179375D01*
X0247549Y0179351D01*
X0247400Y0179331D01*
X0247250Y0179315D01*
X0247100Y0179303D01*
X0246949Y0179295D01*
X0246798Y0179291D01*
X0246648Y0179291D01*
X0246497Y0179295D01*
X0246346Y0179303D01*
X0246196Y0179315D01*
X0246046Y0179331D01*
X0245897Y0179351D01*
X0245748Y0179375D01*
X0245600Y0179403D01*
X0245453Y0179434D01*
X0245306Y0179470D01*
X0245161Y0179509D01*
X0245016Y0179552D01*
X0244873Y0179599D01*
X0244731Y0179650D01*
X0244591Y0179704D01*
X0244452Y0179762D01*
X0244314Y0179824D01*
X0244178Y0179890D01*
X0244044Y0179958D01*
X0243912Y0180031D01*
X0243782Y0180107D01*
X0243654Y0180186D01*
X0243528Y0180269D01*
X0243404Y0180355D01*
X0243283Y0180444D01*
X0243163Y0180537D01*
X0243047Y0180632D01*
X0242933Y0180731D01*
X0242822Y0180832D01*
X0242713Y0180937D01*
X0242607Y0181044D01*
X0242504Y0181154D01*
X0242404Y0181267D01*
X0242307Y0181382D01*
X0242213Y0181500D01*
X0242122Y0181620D01*
X0242034Y0181743D01*
X0241950Y0181868D01*
X0241869Y0181995D01*
X0241791Y0182124D01*
X0241717Y0182255D01*
X0241647Y0182388D01*
X0241579Y0182523D01*
X0241516Y0182660D01*
X0241456Y0182798D01*
X0241400Y0182938D01*
X0241347Y0183079D01*
X0241298Y0183221D01*
X0241253Y0183365D01*
X0241212Y0183510D01*
X0241174Y0183656D01*
X0241141Y0183803D01*
X0241111Y0183951D01*
X0241085Y0184099D01*
X0241064Y0184249D01*
X0241046Y0184398D01*
X0241032Y0184548D01*
X0241022Y0184699D01*
X0241016Y0184849D01*
X0241014Y0185000D01*
X0159599Y0225640D02*
X0154874Y0225640D01*
X0154874Y0228396D02*
X0159599Y0228396D01*
X0075025Y0199152D02*
X0072855Y0196982D01*
X0073940Y0198067D02*
X0070684Y0201322D01*
X0070684Y0199152D01*
X0068514Y0199152D02*
X0069599Y0193726D01*
X0071769Y0195896D02*
X0066344Y0196982D01*
D15*
X0158024Y0227018D03*
D16*
X0174917Y0203322D02*
X0174917Y0202122D01*
X0179117Y0202122D01*
X0179117Y0203322D01*
X0174917Y0203322D01*
X0174917Y0200722D02*
X0174917Y0199522D01*
X0179117Y0199522D01*
X0179117Y0200722D01*
X0174917Y0200722D01*
X0174917Y0198222D02*
X0174917Y0197022D01*
X0179117Y0197022D01*
X0179117Y0198222D01*
X0174917Y0198222D01*
X0174917Y0195622D02*
X0174917Y0194422D01*
X0179117Y0194422D01*
X0179117Y0195622D01*
X0174917Y0195622D01*
X0174917Y0193022D02*
X0174917Y0191822D01*
X0179117Y0191822D01*
X0179117Y0193022D01*
X0174917Y0193022D01*
X0174917Y0190522D02*
X0174917Y0189322D01*
X0179117Y0189322D01*
X0179117Y0190522D01*
X0174917Y0190522D01*
X0174917Y0187922D02*
X0174917Y0186722D01*
X0179117Y0186722D01*
X0179117Y0187922D01*
X0174917Y0187922D01*
X0174917Y0185422D02*
X0174917Y0184222D01*
X0179117Y0184222D01*
X0179117Y0185422D01*
X0174917Y0185422D01*
X0174917Y0182822D02*
X0174917Y0181622D01*
X0179117Y0181622D01*
X0179117Y0182822D01*
X0174917Y0182822D01*
X0174917Y0180222D02*
X0174917Y0179022D01*
X0179117Y0179022D01*
X0179117Y0180222D01*
X0174917Y0180222D01*
X0174917Y0177722D02*
X0174917Y0176522D01*
X0179117Y0176522D01*
X0179117Y0177722D01*
X0174917Y0177722D01*
X0174917Y0175122D02*
X0174917Y0173922D01*
X0179117Y0173922D01*
X0179117Y0175122D01*
X0174917Y0175122D01*
X0179117Y0173022D02*
X0179117Y0204222D01*
X0186717Y0204222D01*
X0189117Y0204222D01*
X0196717Y0204222D01*
X0196717Y0173022D01*
X0179117Y0173022D01*
X0196717Y0173922D02*
X0200917Y0173922D01*
X0200917Y0175122D01*
X0196717Y0175122D01*
X0196717Y0173922D01*
X0196717Y0176522D02*
X0200917Y0176522D01*
X0200917Y0177722D01*
X0196717Y0177722D01*
X0196717Y0176522D01*
X0196717Y0179022D02*
X0200917Y0179022D01*
X0200917Y0180222D01*
X0196717Y0180222D01*
X0196717Y0179022D01*
X0196717Y0181622D02*
X0200917Y0181622D01*
X0200917Y0182822D01*
X0196717Y0182822D01*
X0196717Y0181622D01*
X0196717Y0184222D02*
X0200917Y0184222D01*
X0200917Y0185422D01*
X0196717Y0185422D01*
X0196717Y0184222D01*
X0196717Y0186722D02*
X0200917Y0186722D01*
X0200917Y0187922D01*
X0196717Y0187922D01*
X0196717Y0186722D01*
X0196717Y0189322D02*
X0200917Y0189322D01*
X0200917Y0190522D01*
X0196717Y0190522D01*
X0196717Y0189322D01*
X0196717Y0191822D02*
X0200917Y0191822D01*
X0200917Y0193022D01*
X0196717Y0193022D01*
X0196717Y0191822D01*
X0196717Y0194422D02*
X0200917Y0194422D01*
X0200917Y0195622D01*
X0196717Y0195622D01*
X0196717Y0194422D01*
X0196717Y0197022D02*
X0200917Y0197022D01*
X0200917Y0198222D01*
X0196717Y0198222D01*
X0196717Y0197022D01*
X0196717Y0199522D02*
X0200917Y0199522D01*
X0200917Y0200722D01*
X0196717Y0200722D01*
X0196717Y0199522D01*
X0196717Y0202122D02*
X0200917Y0202122D01*
X0200917Y0203322D01*
X0196717Y0203322D01*
X0196717Y0202122D01*
X0190982Y0104729D02*
X0189882Y0104729D01*
X0189882Y0100829D01*
X0190982Y0100829D01*
X0190982Y0104729D01*
X0188982Y0104729D02*
X0187882Y0104729D01*
X0187882Y0100829D01*
X0188982Y0100829D01*
X0188982Y0104729D01*
X0186982Y0104729D02*
X0185882Y0104729D01*
X0185882Y0100829D01*
X0186982Y0100829D01*
X0186982Y0104729D01*
X0185082Y0104729D02*
X0183982Y0104729D01*
X0183982Y0100829D01*
X0185082Y0100829D01*
X0185082Y0104729D01*
X0183082Y0104729D02*
X0181982Y0104729D01*
X0181982Y0100829D01*
X0183082Y0100829D01*
X0183082Y0104729D01*
X0181082Y0104729D02*
X0179982Y0104729D01*
X0179982Y0100829D01*
X0181082Y0100829D01*
X0181082Y0104729D01*
X0179182Y0104729D02*
X0178082Y0104729D01*
X0178082Y0100829D01*
X0179182Y0100829D01*
X0179182Y0104729D01*
X0177182Y0104729D02*
X0176082Y0104729D01*
X0176082Y0100829D01*
X0177182Y0100829D01*
X0177182Y0104729D01*
X0175182Y0104729D02*
X0174082Y0104729D01*
X0174082Y0100829D01*
X0175182Y0100829D01*
X0175182Y0104729D01*
X0173282Y0104729D02*
X0172182Y0104729D01*
X0172182Y0100829D01*
X0173282Y0100829D01*
X0173282Y0104729D01*
X0171282Y0104729D02*
X0170182Y0104729D01*
X0170182Y0100829D01*
X0171282Y0100829D01*
X0171282Y0104729D01*
X0169282Y0104729D02*
X0168182Y0104729D01*
X0168182Y0100829D01*
X0169282Y0100829D01*
X0169282Y0104729D01*
X0167282Y0104729D02*
X0166182Y0104729D01*
X0166182Y0100829D01*
X0167382Y0100829D01*
X0167282Y0104729D01*
X0165382Y0104729D02*
X0164282Y0104729D01*
X0164282Y0100829D01*
X0165382Y0100829D01*
X0165382Y0104729D01*
X0163382Y0104729D02*
X0162282Y0104729D01*
X0162282Y0100829D01*
X0163382Y0100829D01*
X0163382Y0104729D01*
X0161382Y0104729D02*
X0160282Y0104729D01*
X0160282Y0100829D01*
X0161382Y0100829D01*
X0161382Y0104729D01*
X0159482Y0104729D02*
X0158382Y0104729D01*
X0158382Y0100829D01*
X0159482Y0100829D01*
X0159482Y0104729D01*
X0157482Y0104729D02*
X0156382Y0104729D01*
X0156382Y0100829D01*
X0157482Y0100829D01*
X0157482Y0104729D01*
X0155482Y0104729D02*
X0154382Y0104729D01*
X0154382Y0100829D01*
X0155482Y0100829D01*
X0155482Y0104729D01*
X0153582Y0104729D02*
X0152482Y0104729D01*
X0152482Y0100829D01*
X0153582Y0100829D01*
X0153582Y0104729D01*
X0151582Y0104729D02*
X0150482Y0104729D01*
X0150482Y0100829D01*
X0151582Y0100829D01*
X0151582Y0104729D01*
X0149582Y0104729D02*
X0148482Y0104729D01*
X0148482Y0100829D01*
X0149582Y0100829D01*
X0149582Y0104729D01*
X0147682Y0104729D02*
X0146582Y0104729D01*
X0146582Y0100829D01*
X0147682Y0100829D01*
X0147682Y0104729D01*
X0145682Y0104729D02*
X0144582Y0104729D01*
X0144582Y0100829D01*
X0145682Y0100829D01*
X0145682Y0104729D01*
X0143682Y0104729D02*
X0142582Y0104729D01*
X0142582Y0100829D01*
X0143682Y0100829D01*
X0143682Y0104729D01*
X0138782Y0100829D02*
X0138782Y0044829D01*
X0194782Y0044829D01*
X0194782Y0100829D01*
X0138782Y0100829D01*
X0138782Y0097029D02*
X0134882Y0097029D01*
X0134882Y0095929D01*
X0138782Y0095929D01*
X0138782Y0097029D01*
X0138782Y0095029D02*
X0134882Y0095029D01*
X0134882Y0093929D01*
X0138782Y0093929D01*
X0138782Y0095029D01*
X0138782Y0093029D02*
X0134882Y0093029D01*
X0134882Y0091929D01*
X0138782Y0091929D01*
X0138782Y0093029D01*
X0138782Y0091129D02*
X0134882Y0091129D01*
X0134882Y0090029D01*
X0138782Y0090029D01*
X0138782Y0091129D01*
X0138782Y0089129D02*
X0134882Y0089129D01*
X0134882Y0088029D01*
X0138782Y0088029D01*
X0138782Y0089129D01*
X0138782Y0087129D02*
X0134882Y0087129D01*
X0134882Y0086029D01*
X0138782Y0086029D01*
X0138782Y0087129D01*
X0138782Y0085229D02*
X0134882Y0085229D01*
X0134882Y0084129D01*
X0138782Y0084129D01*
X0138782Y0085229D01*
X0138782Y0083229D02*
X0134882Y0083229D01*
X0134882Y0082129D01*
X0138782Y0082129D01*
X0138782Y0083229D01*
X0138782Y0081229D02*
X0134882Y0081229D01*
X0134882Y0080129D01*
X0138782Y0080129D01*
X0138782Y0081229D01*
X0138782Y0079329D02*
X0134882Y0079329D01*
X0134882Y0078229D01*
X0138782Y0078229D01*
X0138782Y0079329D01*
X0138782Y0077329D02*
X0134882Y0077329D01*
X0134882Y0076229D01*
X0138782Y0076229D01*
X0138782Y0077329D01*
X0138782Y0075329D02*
X0134882Y0075329D01*
X0134882Y0074229D01*
X0138782Y0074229D01*
X0138782Y0075329D01*
X0138782Y0073429D02*
X0134882Y0073329D01*
X0134882Y0072229D01*
X0138782Y0072229D01*
X0138782Y0073429D01*
X0138782Y0071429D02*
X0134882Y0071429D01*
X0134882Y0070329D01*
X0138782Y0070329D01*
X0138782Y0071429D01*
X0138782Y0069429D02*
X0134882Y0069429D01*
X0134882Y0068329D01*
X0138782Y0068329D01*
X0138782Y0069429D01*
X0138782Y0067429D02*
X0134882Y0067429D01*
X0134882Y0066329D01*
X0138782Y0066329D01*
X0138782Y0067429D01*
X0138782Y0065529D02*
X0134882Y0065529D01*
X0134882Y0064429D01*
X0138782Y0064429D01*
X0138782Y0065529D01*
X0138782Y0063529D02*
X0134882Y0063529D01*
X0134882Y0062429D01*
X0138782Y0062429D01*
X0138782Y0063529D01*
X0138782Y0061529D02*
X0134882Y0061529D01*
X0134882Y0060429D01*
X0138782Y0060429D01*
X0138782Y0061529D01*
X0138782Y0059629D02*
X0134882Y0059629D01*
X0134882Y0058529D01*
X0138782Y0058529D01*
X0138782Y0059629D01*
X0138782Y0057629D02*
X0134882Y0057629D01*
X0134882Y0056529D01*
X0138782Y0056529D01*
X0138782Y0057629D01*
X0138782Y0055629D02*
X0134882Y0055629D01*
X0134882Y0054529D01*
X0138782Y0054529D01*
X0138782Y0055629D01*
X0138782Y0053729D02*
X0134882Y0053729D01*
X0134882Y0052629D01*
X0138782Y0052629D01*
X0138782Y0053729D01*
X0138782Y0051729D02*
X0134882Y0051729D01*
X0134882Y0050629D01*
X0138782Y0050629D01*
X0138782Y0051729D01*
X0138782Y0049829D02*
X0143782Y0044829D01*
X0143682Y0044829D02*
X0143682Y0040929D01*
X0142582Y0040929D01*
X0142582Y0044829D01*
X0143682Y0044829D01*
X0144582Y0044829D02*
X0144582Y0040929D01*
X0145682Y0040929D01*
X0145682Y0044829D01*
X0144582Y0044829D01*
X0146582Y0044829D02*
X0146582Y0040929D01*
X0147682Y0040929D01*
X0147682Y0044829D01*
X0146582Y0044829D01*
X0148482Y0044829D02*
X0148482Y0040929D01*
X0149582Y0040929D01*
X0149582Y0044829D01*
X0148482Y0044829D01*
X0150482Y0044829D02*
X0150482Y0040929D01*
X0151582Y0040929D01*
X0151582Y0044829D01*
X0150482Y0044829D01*
X0152482Y0044829D02*
X0152482Y0040929D01*
X0153582Y0040929D01*
X0153582Y0044829D01*
X0152482Y0044829D01*
X0154382Y0044829D02*
X0154382Y0040929D01*
X0155482Y0040929D01*
X0155482Y0044829D01*
X0154382Y0044829D01*
X0156382Y0044829D02*
X0156382Y0040929D01*
X0157482Y0040929D01*
X0157482Y0044829D01*
X0156382Y0044829D01*
X0158382Y0044829D02*
X0158382Y0040929D01*
X0159482Y0040929D01*
X0159482Y0044829D01*
X0158382Y0044829D01*
X0160282Y0044829D02*
X0160282Y0040929D01*
X0161382Y0040929D01*
X0161382Y0044829D01*
X0160282Y0044829D01*
X0162282Y0044829D02*
X0162282Y0040929D01*
X0163382Y0040929D01*
X0163382Y0044829D01*
X0162282Y0044829D01*
X0164282Y0044829D02*
X0164282Y0040929D01*
X0165382Y0040929D01*
X0165382Y0044829D01*
X0164282Y0044829D01*
X0166182Y0044829D02*
X0166282Y0040929D01*
X0167382Y0040929D01*
X0167382Y0044829D01*
X0166182Y0044829D01*
X0168182Y0044829D02*
X0168182Y0040929D01*
X0169282Y0040929D01*
X0169282Y0044829D01*
X0168182Y0044829D01*
X0170182Y0044829D02*
X0170182Y0040929D01*
X0171282Y0040929D01*
X0171282Y0044829D01*
X0170182Y0044829D01*
X0172182Y0044829D02*
X0172182Y0040929D01*
X0173282Y0040929D01*
X0173282Y0044829D01*
X0172182Y0044829D01*
X0174082Y0044829D02*
X0174082Y0040929D01*
X0175182Y0040929D01*
X0175182Y0044829D01*
X0174082Y0044829D01*
X0176082Y0044829D02*
X0176082Y0040929D01*
X0177182Y0040929D01*
X0177182Y0044829D01*
X0176082Y0044829D01*
X0178082Y0044829D02*
X0178082Y0040929D01*
X0179182Y0040929D01*
X0179182Y0044829D01*
X0178082Y0044829D01*
X0179982Y0044829D02*
X0179982Y0040929D01*
X0181082Y0040929D01*
X0181082Y0044829D01*
X0179982Y0044829D01*
X0181982Y0044829D02*
X0181982Y0040929D01*
X0183082Y0040929D01*
X0183082Y0044829D01*
X0181982Y0044829D01*
X0183982Y0044829D02*
X0183982Y0040929D01*
X0185082Y0040929D01*
X0185082Y0044829D01*
X0183982Y0044829D01*
X0185882Y0044829D02*
X0185882Y0040929D01*
X0186982Y0040929D01*
X0186982Y0044829D01*
X0185882Y0044829D01*
X0187882Y0044829D02*
X0187882Y0040929D01*
X0188982Y0040929D01*
X0188982Y0044829D01*
X0187882Y0044829D01*
X0189882Y0044829D02*
X0189882Y0040929D01*
X0190982Y0040929D01*
X0190982Y0044829D01*
X0189882Y0044829D01*
X0194782Y0048629D02*
X0198682Y0048629D01*
X0198682Y0049729D01*
X0194782Y0049729D01*
X0194782Y0048629D01*
X0194782Y0050629D02*
X0198682Y0050629D01*
X0198682Y0051729D01*
X0194782Y0051729D01*
X0194782Y0050629D01*
X0194782Y0052629D02*
X0198682Y0052629D01*
X0198682Y0053729D01*
X0194782Y0053729D01*
X0194782Y0052629D01*
X0194782Y0054529D02*
X0198682Y0054529D01*
X0198682Y0055629D01*
X0194782Y0055629D01*
X0194782Y0054529D01*
X0194782Y0056529D02*
X0198682Y0056529D01*
X0198682Y0057629D01*
X0194782Y0057629D01*
X0194782Y0056529D01*
X0194782Y0058529D02*
X0198682Y0058529D01*
X0198682Y0059629D01*
X0194782Y0059629D01*
X0194782Y0058529D01*
X0194782Y0060429D02*
X0198682Y0060429D01*
X0198682Y0061529D01*
X0194782Y0061529D01*
X0194782Y0060429D01*
X0194782Y0062429D02*
X0198682Y0062429D01*
X0198682Y0063529D01*
X0194782Y0063529D01*
X0194782Y0062429D01*
X0194782Y0064429D02*
X0198682Y0064429D01*
X0198682Y0065529D01*
X0194782Y0065529D01*
X0194782Y0064429D01*
X0194782Y0066329D02*
X0198682Y0066329D01*
X0198682Y0067429D01*
X0194782Y0067429D01*
X0194782Y0066329D01*
X0194782Y0068329D02*
X0198682Y0068329D01*
X0198682Y0069429D01*
X0194782Y0069429D01*
X0194782Y0068329D01*
X0194782Y0070329D02*
X0198682Y0070329D01*
X0198682Y0071429D01*
X0194782Y0071429D01*
X0194782Y0070329D01*
X0194782Y0072229D02*
X0198682Y0072329D01*
X0198682Y0073429D01*
X0194782Y0073429D01*
X0194782Y0072229D01*
X0194782Y0074229D02*
X0198682Y0074229D01*
X0198682Y0075329D01*
X0194782Y0075329D01*
X0194782Y0074229D01*
X0194782Y0076229D02*
X0198682Y0076229D01*
X0198682Y0077329D01*
X0194782Y0077329D01*
X0194782Y0076229D01*
X0194782Y0078229D02*
X0198682Y0078229D01*
X0198682Y0079329D01*
X0194782Y0079329D01*
X0194782Y0078229D01*
X0194782Y0080129D02*
X0198682Y0080129D01*
X0198682Y0081229D01*
X0194782Y0081229D01*
X0194782Y0080129D01*
X0194782Y0082129D02*
X0198682Y0082129D01*
X0198682Y0083229D01*
X0194782Y0083229D01*
X0194782Y0082129D01*
X0194782Y0084129D02*
X0198682Y0084129D01*
X0198682Y0085229D01*
X0194782Y0085229D01*
X0194782Y0084129D01*
X0194782Y0086029D02*
X0198682Y0086029D01*
X0198682Y0087129D01*
X0194782Y0087129D01*
X0194782Y0086029D01*
X0194782Y0088029D02*
X0198682Y0088029D01*
X0198682Y0089129D01*
X0194782Y0089129D01*
X0194782Y0088029D01*
X0194782Y0090029D02*
X0198682Y0090029D01*
X0198682Y0091129D01*
X0194782Y0091129D01*
X0194782Y0090029D01*
X0194782Y0091929D02*
X0198682Y0091929D01*
X0198682Y0093029D01*
X0194782Y0093029D01*
X0194782Y0091929D01*
X0194782Y0093929D02*
X0198682Y0093929D01*
X0198682Y0095029D01*
X0194782Y0095029D01*
X0194782Y0093929D01*
X0194782Y0095929D02*
X0198682Y0095929D01*
X0198682Y0097029D01*
X0194782Y0097029D01*
X0194782Y0095929D01*
X0138782Y0049729D02*
X0134882Y0049729D01*
X0134882Y0048629D01*
X0138782Y0048629D01*
X0138782Y0049729D01*
X0193970Y0034482D02*
X0193970Y0033695D01*
X0204206Y0033695D02*
X0204206Y0034482D01*
X0206011Y0029364D02*
X0206013Y0029411D01*
X0206019Y0029457D01*
X0206028Y0029503D01*
X0206042Y0029547D01*
X0206059Y0029591D01*
X0206080Y0029632D01*
X0206104Y0029672D01*
X0206131Y0029710D01*
X0206162Y0029745D01*
X0206195Y0029778D01*
X0206231Y0029808D01*
X0206270Y0029834D01*
X0206310Y0029858D01*
X0206352Y0029877D01*
X0206396Y0029894D01*
X0206441Y0029906D01*
X0206487Y0029915D01*
X0206533Y0029920D01*
X0206580Y0029921D01*
X0206626Y0029918D01*
X0206672Y0029911D01*
X0206718Y0029900D01*
X0206762Y0029886D01*
X0206805Y0029868D01*
X0206846Y0029846D01*
X0206886Y0029821D01*
X0206923Y0029793D01*
X0206958Y0029762D01*
X0206990Y0029728D01*
X0207019Y0029691D01*
X0207044Y0029653D01*
X0207067Y0029612D01*
X0207086Y0029569D01*
X0207101Y0029525D01*
X0207113Y0029480D01*
X0207121Y0029434D01*
X0207125Y0029387D01*
X0207125Y0029341D01*
X0207121Y0029294D01*
X0207113Y0029248D01*
X0207101Y0029203D01*
X0207086Y0029159D01*
X0207067Y0029116D01*
X0207044Y0029075D01*
X0207019Y0029037D01*
X0206990Y0029000D01*
X0206958Y0028966D01*
X0206923Y0028935D01*
X0206886Y0028907D01*
X0206847Y0028882D01*
X0206805Y0028860D01*
X0206762Y0028842D01*
X0206718Y0028828D01*
X0206672Y0028817D01*
X0206626Y0028810D01*
X0206580Y0028807D01*
X0206533Y0028808D01*
X0206487Y0028813D01*
X0206441Y0028822D01*
X0206396Y0028834D01*
X0206352Y0028851D01*
X0206310Y0028870D01*
X0206270Y0028894D01*
X0206231Y0028920D01*
X0206195Y0028950D01*
X0206162Y0028983D01*
X0206131Y0029018D01*
X0206104Y0029056D01*
X0206080Y0029096D01*
X0206059Y0029137D01*
X0206042Y0029181D01*
X0206028Y0029225D01*
X0206019Y0029271D01*
X0206013Y0029317D01*
X0206011Y0029364D01*
X0095918Y0165915D02*
X0084518Y0165915D01*
X0084518Y0168915D01*
X0095918Y0168915D01*
X0095918Y0165915D01*
X0045387Y0081842D02*
X0033987Y0081842D01*
X0033987Y0078842D01*
X0045387Y0078842D01*
X0045387Y0081842D01*
D17*
X0186717Y0204222D02*
X0186719Y0204153D01*
X0186725Y0204085D01*
X0186735Y0204017D01*
X0186748Y0203950D01*
X0186766Y0203884D01*
X0186787Y0203819D01*
X0186812Y0203755D01*
X0186840Y0203693D01*
X0186872Y0203632D01*
X0186907Y0203573D01*
X0186946Y0203517D01*
X0186988Y0203462D01*
X0187033Y0203411D01*
X0187081Y0203361D01*
X0187131Y0203315D01*
X0187184Y0203272D01*
X0187240Y0203231D01*
X0187297Y0203194D01*
X0187357Y0203161D01*
X0187419Y0203130D01*
X0187482Y0203104D01*
X0187546Y0203081D01*
X0187612Y0203061D01*
X0187679Y0203046D01*
X0187746Y0203034D01*
X0187814Y0203026D01*
X0187883Y0203022D01*
X0187951Y0203022D01*
X0188020Y0203026D01*
X0188088Y0203034D01*
X0188155Y0203046D01*
X0188222Y0203061D01*
X0188288Y0203081D01*
X0188352Y0203104D01*
X0188415Y0203130D01*
X0188477Y0203161D01*
X0188537Y0203194D01*
X0188594Y0203231D01*
X0188650Y0203272D01*
X0188703Y0203315D01*
X0188753Y0203361D01*
X0188801Y0203411D01*
X0188846Y0203462D01*
X0188888Y0203517D01*
X0188927Y0203573D01*
X0188962Y0203632D01*
X0188994Y0203693D01*
X0189022Y0203755D01*
X0189047Y0203819D01*
X0189068Y0203884D01*
X0189086Y0203950D01*
X0189099Y0204017D01*
X0189109Y0204085D01*
X0189115Y0204153D01*
X0189117Y0204222D01*
D18*
X0183005Y0196632D02*
X0188486Y0191505D01*
X0194319Y0184964D01*
X0198739Y0179131D01*
X0202804Y0172236D01*
X0205103Y0167463D01*
X0205103Y0159332D01*
X0201921Y0152968D01*
X0197678Y0146250D01*
X0193082Y0140240D01*
X0187071Y0133876D01*
X0179823Y0127689D01*
X0173106Y0123093D01*
X0166035Y0119203D01*
X0157373Y0115491D01*
X0147473Y0112663D01*
X0138281Y0111248D01*
X0129442Y0110895D01*
X0120957Y0111248D01*
X0112118Y0112663D01*
X0104340Y0114784D01*
X0097092Y0117436D01*
X0090374Y0120618D01*
X0083303Y0124860D01*
X0076232Y0130164D01*
X0070752Y0135290D01*
X0064919Y0141831D01*
X0060499Y0147664D01*
X0056433Y0154559D01*
X0054135Y0159332D01*
X0054135Y0167463D01*
X0057317Y0173827D01*
X0061560Y0180545D01*
X0066156Y0186555D01*
X0072166Y0192919D01*
X0079414Y0199106D01*
X0086132Y0203703D01*
X0093203Y0207592D01*
X0101865Y0211304D01*
X0111764Y0214133D01*
X0120957Y0215547D01*
X0129796Y0215900D01*
X0138281Y0215547D01*
X0147120Y0214133D01*
X0154898Y0212011D01*
X0162146Y0209360D01*
X0168863Y0206178D01*
X0175934Y0201935D01*
X0183005Y0196632D01*
X0159671Y0186379D02*
X0156135Y0182843D01*
X0159671Y0186379D02*
X0152600Y0193450D01*
X0149064Y0189914D01*
X0148409Y0190383D01*
X0147742Y0190835D01*
X0147065Y0191271D01*
X0146377Y0191690D01*
X0145678Y0192092D01*
X0144971Y0192476D01*
X0144254Y0192844D01*
X0143528Y0193193D01*
X0142794Y0193525D01*
X0142052Y0193839D01*
X0141303Y0194134D01*
X0140546Y0194411D01*
X0139783Y0194670D01*
X0139014Y0194909D01*
X0138239Y0195130D01*
X0137459Y0195332D01*
X0136675Y0195514D01*
X0135886Y0195677D01*
X0135093Y0195821D01*
X0134297Y0195946D01*
X0133499Y0196050D01*
X0132697Y0196136D01*
X0131895Y0196201D01*
X0131090Y0196247D01*
X0130285Y0196273D01*
X0129480Y0196280D01*
X0128674Y0196266D01*
X0127869Y0196233D01*
X0127065Y0196181D01*
X0126263Y0196108D01*
X0125463Y0196016D01*
X0124665Y0195905D01*
X0123870Y0195774D01*
X0123079Y0195623D01*
X0122291Y0195453D01*
X0121508Y0195264D01*
X0120730Y0195056D01*
X0119957Y0194828D01*
X0119190Y0194582D01*
X0118429Y0194318D01*
X0117675Y0194034D01*
X0116928Y0193732D01*
X0116189Y0193412D01*
X0115458Y0193074D01*
X0114735Y0192719D01*
X0114021Y0192345D01*
X0113317Y0191954D01*
X0112622Y0191546D01*
X0111938Y0191122D01*
X0111264Y0190680D01*
X0110601Y0190222D01*
X0109950Y0189748D01*
X0109310Y0189259D01*
X0108683Y0188753D01*
X0108068Y0188233D01*
X0107466Y0187697D01*
X0106877Y0187148D01*
X0106302Y0186583D01*
X0105741Y0186005D01*
X0105195Y0185413D01*
X0104663Y0184808D01*
X0104146Y0184191D01*
X0103644Y0183560D01*
X0103158Y0182918D01*
X0102688Y0182264D01*
X0102234Y0181599D01*
X0101796Y0180922D01*
X0101375Y0180235D01*
X0100971Y0179538D01*
X0100584Y0178832D01*
X0100215Y0178116D01*
X0099863Y0177391D01*
X0099529Y0176658D01*
X0099213Y0175917D01*
X0098916Y0175168D01*
X0098637Y0174413D01*
X0098376Y0173650D01*
X0098134Y0172882D01*
X0097912Y0172108D01*
X0097708Y0171329D01*
X0097523Y0170544D01*
X0097358Y0169756D01*
X0097211Y0168964D01*
X0097085Y0168168D01*
X0096978Y0167370D01*
X0096890Y0166569D01*
X0096822Y0165766D01*
X0096774Y0164962D01*
X0096746Y0164157D01*
X0096737Y0163352D01*
X0096748Y0162546D01*
X0096779Y0161741D01*
X0096829Y0160937D01*
X0096899Y0160135D01*
X0096989Y0159334D01*
X0097098Y0158536D01*
X0097227Y0157741D01*
X0097376Y0156949D01*
X0097543Y0156161D01*
X0097730Y0155377D01*
X0097936Y0154599D01*
X0098161Y0153825D01*
X0098405Y0153057D01*
X0098668Y0152296D01*
X0098949Y0151541D01*
X0099249Y0150793D01*
X0099567Y0150053D01*
X0099903Y0149321D01*
X0100256Y0148597D01*
X0100628Y0147882D01*
X0101017Y0147177D01*
X0101423Y0146481D01*
X0101846Y0145795D01*
X0102285Y0145120D01*
X0102741Y0144456D01*
X0103213Y0143803D01*
X0103701Y0143162D01*
X0104205Y0142533D01*
X0104723Y0141917D01*
X0105257Y0141314D01*
X0105805Y0140723D01*
X0106368Y0140147D01*
X0106944Y0139584D01*
X0107535Y0139036D01*
X0108138Y0138502D01*
X0108754Y0137984D01*
X0109383Y0137480D01*
X0110024Y0136992D01*
X0110677Y0136520D01*
X0111341Y0136064D01*
X0112016Y0135625D01*
X0112702Y0135202D01*
X0113398Y0134796D01*
X0114103Y0134407D01*
X0114818Y0134035D01*
X0115542Y0133682D01*
X0116274Y0133346D01*
X0117014Y0133028D01*
X0117762Y0132728D01*
X0118517Y0132447D01*
X0119278Y0132184D01*
X0120046Y0131940D01*
X0120820Y0131715D01*
X0121598Y0131509D01*
X0122382Y0131322D01*
X0123170Y0131155D01*
X0123962Y0131006D01*
X0124757Y0130877D01*
X0125555Y0130768D01*
X0126356Y0130678D01*
X0127158Y0130608D01*
X0127962Y0130558D01*
X0128767Y0130527D01*
X0129573Y0130516D01*
X0130378Y0130525D01*
X0131183Y0130553D01*
X0131987Y0130601D01*
X0132790Y0130669D01*
X0133591Y0130757D01*
X0134389Y0130864D01*
X0135185Y0130990D01*
X0135977Y0131137D01*
X0136765Y0131302D01*
X0137550Y0131487D01*
X0138329Y0131691D01*
X0139103Y0131913D01*
X0139871Y0132155D01*
X0140634Y0132416D01*
X0141389Y0132695D01*
X0142138Y0132992D01*
X0142879Y0133308D01*
X0143612Y0133642D01*
X0144337Y0133994D01*
X0145053Y0134363D01*
X0145759Y0134750D01*
X0146456Y0135154D01*
X0147143Y0135575D01*
X0147820Y0136013D01*
X0148485Y0136467D01*
X0149139Y0136937D01*
X0149781Y0137423D01*
X0150412Y0137925D01*
X0151029Y0138442D01*
X0151634Y0138974D01*
X0152226Y0139520D01*
X0152804Y0140081D01*
X0153369Y0140656D01*
X0153918Y0141245D01*
X0154454Y0141847D01*
X0154974Y0142462D01*
X0155480Y0143089D01*
X0155969Y0143729D01*
X0156443Y0144380D01*
X0156901Y0145043D01*
X0157343Y0145717D01*
X0157767Y0146401D01*
X0158175Y0147096D01*
X0158566Y0147800D01*
X0158940Y0148514D01*
X0159295Y0149237D01*
X0159633Y0149968D01*
X0159953Y0150707D01*
X0160255Y0151454D01*
X0160539Y0152208D01*
X0160803Y0152969D01*
X0161049Y0153736D01*
X0161277Y0154509D01*
X0161485Y0155287D01*
X0161674Y0156070D01*
X0161844Y0156858D01*
X0161995Y0157649D01*
X0162126Y0158444D01*
X0162237Y0159242D01*
X0162329Y0160042D01*
X0162402Y0160844D01*
X0162454Y0161648D01*
X0162487Y0162453D01*
X0162501Y0163259D01*
X0162494Y0164064D01*
X0162468Y0164869D01*
X0162422Y0165674D01*
X0162357Y0166476D01*
X0162271Y0167278D01*
X0162167Y0168076D01*
X0162042Y0168872D01*
X0161898Y0169665D01*
X0161735Y0170454D01*
X0161553Y0171238D01*
X0161351Y0172018D01*
X0161130Y0172793D01*
X0160891Y0173562D01*
X0160632Y0174325D01*
X0160355Y0175082D01*
X0160060Y0175831D01*
X0159746Y0176573D01*
X0159414Y0177307D01*
X0159065Y0178033D01*
X0158697Y0178750D01*
X0158313Y0179457D01*
X0157911Y0180156D01*
X0157492Y0180844D01*
X0157056Y0181521D01*
X0156604Y0182188D01*
X0156135Y0182843D01*
X0086273Y0163398D02*
X0086286Y0164462D01*
X0086325Y0165525D01*
X0086390Y0166587D01*
X0086482Y0167647D01*
X0086599Y0168704D01*
X0086742Y0169758D01*
X0086911Y0170809D01*
X0087106Y0171854D01*
X0087326Y0172895D01*
X0087572Y0173930D01*
X0087843Y0174959D01*
X0088139Y0175981D01*
X0088461Y0176995D01*
X0088807Y0178001D01*
X0089177Y0178998D01*
X0089573Y0179986D01*
X0089992Y0180964D01*
X0090435Y0181931D01*
X0090901Y0182887D01*
X0091391Y0183831D01*
X0091904Y0184763D01*
X0092440Y0185682D01*
X0092998Y0186588D01*
X0093578Y0187480D01*
X0094180Y0188357D01*
X0094803Y0189219D01*
X0095447Y0190066D01*
X0096112Y0190896D01*
X0096797Y0191710D01*
X0097502Y0192507D01*
X0098226Y0193287D01*
X0098969Y0194048D01*
X0099730Y0194791D01*
X0100510Y0195515D01*
X0101307Y0196220D01*
X0102121Y0196905D01*
X0102951Y0197570D01*
X0103798Y0198214D01*
X0104660Y0198837D01*
X0105537Y0199439D01*
X0106429Y0200019D01*
X0107335Y0200577D01*
X0108254Y0201113D01*
X0109186Y0201626D01*
X0110130Y0202116D01*
X0111086Y0202582D01*
X0112053Y0203025D01*
X0113031Y0203444D01*
X0114019Y0203840D01*
X0115016Y0204210D01*
X0116022Y0204556D01*
X0117036Y0204878D01*
X0118058Y0205174D01*
X0119087Y0205445D01*
X0120122Y0205691D01*
X0121163Y0205911D01*
X0122208Y0206106D01*
X0123259Y0206275D01*
X0124313Y0206418D01*
X0125370Y0206535D01*
X0126430Y0206627D01*
X0127492Y0206692D01*
X0128555Y0206731D01*
X0129619Y0206744D01*
X0130683Y0206731D01*
X0131746Y0206692D01*
X0132808Y0206627D01*
X0133868Y0206535D01*
X0134925Y0206418D01*
X0135979Y0206275D01*
X0137030Y0206106D01*
X0138075Y0205911D01*
X0139116Y0205691D01*
X0140151Y0205445D01*
X0141180Y0205174D01*
X0142202Y0204878D01*
X0143216Y0204556D01*
X0144222Y0204210D01*
X0145219Y0203840D01*
X0146207Y0203444D01*
X0147185Y0203025D01*
X0148152Y0202582D01*
X0149108Y0202116D01*
X0150052Y0201626D01*
X0150984Y0201113D01*
X0151903Y0200577D01*
X0152809Y0200019D01*
X0153701Y0199439D01*
X0154578Y0198837D01*
X0155440Y0198214D01*
X0156287Y0197570D01*
X0157117Y0196905D01*
X0157931Y0196220D01*
X0158728Y0195515D01*
X0159508Y0194791D01*
X0160269Y0194048D01*
X0161012Y0193287D01*
X0161736Y0192507D01*
X0162441Y0191710D01*
X0163126Y0190896D01*
X0163791Y0190066D01*
X0164435Y0189219D01*
X0165058Y0188357D01*
X0165660Y0187480D01*
X0166240Y0186588D01*
X0166798Y0185682D01*
X0167334Y0184763D01*
X0167847Y0183831D01*
X0168337Y0182887D01*
X0168803Y0181931D01*
X0169246Y0180964D01*
X0169665Y0179986D01*
X0170061Y0178998D01*
X0170431Y0178001D01*
X0170777Y0176995D01*
X0171099Y0175981D01*
X0171395Y0174959D01*
X0171666Y0173930D01*
X0171912Y0172895D01*
X0172132Y0171854D01*
X0172327Y0170809D01*
X0172496Y0169758D01*
X0172639Y0168704D01*
X0172756Y0167647D01*
X0172848Y0166587D01*
X0172913Y0165525D01*
X0172952Y0164462D01*
X0172965Y0163398D01*
X0172952Y0162334D01*
X0172913Y0161271D01*
X0172848Y0160209D01*
X0172756Y0159149D01*
X0172639Y0158092D01*
X0172496Y0157038D01*
X0172327Y0155987D01*
X0172132Y0154942D01*
X0171912Y0153901D01*
X0171666Y0152866D01*
X0171395Y0151837D01*
X0171099Y0150815D01*
X0170777Y0149801D01*
X0170431Y0148795D01*
X0170061Y0147798D01*
X0169665Y0146810D01*
X0169246Y0145832D01*
X0168803Y0144865D01*
X0168337Y0143909D01*
X0167847Y0142965D01*
X0167334Y0142033D01*
X0166798Y0141114D01*
X0166240Y0140208D01*
X0165660Y0139316D01*
X0165058Y0138439D01*
X0164435Y0137577D01*
X0163791Y0136730D01*
X0163126Y0135900D01*
X0162441Y0135086D01*
X0161736Y0134289D01*
X0161012Y0133509D01*
X0160269Y0132748D01*
X0159508Y0132005D01*
X0158728Y0131281D01*
X0157931Y0130576D01*
X0157117Y0129891D01*
X0156287Y0129226D01*
X0155440Y0128582D01*
X0154578Y0127959D01*
X0153701Y0127357D01*
X0152809Y0126777D01*
X0151903Y0126219D01*
X0150984Y0125683D01*
X0150052Y0125170D01*
X0149108Y0124680D01*
X0148152Y0124214D01*
X0147185Y0123771D01*
X0146207Y0123352D01*
X0145219Y0122956D01*
X0144222Y0122586D01*
X0143216Y0122240D01*
X0142202Y0121918D01*
X0141180Y0121622D01*
X0140151Y0121351D01*
X0139116Y0121105D01*
X0138075Y0120885D01*
X0137030Y0120690D01*
X0135979Y0120521D01*
X0134925Y0120378D01*
X0133868Y0120261D01*
X0132808Y0120169D01*
X0131746Y0120104D01*
X0130683Y0120065D01*
X0129619Y0120052D01*
X0128555Y0120065D01*
X0127492Y0120104D01*
X0126430Y0120169D01*
X0125370Y0120261D01*
X0124313Y0120378D01*
X0123259Y0120521D01*
X0122208Y0120690D01*
X0121163Y0120885D01*
X0120122Y0121105D01*
X0119087Y0121351D01*
X0118058Y0121622D01*
X0117036Y0121918D01*
X0116022Y0122240D01*
X0115016Y0122586D01*
X0114019Y0122956D01*
X0113031Y0123352D01*
X0112053Y0123771D01*
X0111086Y0124214D01*
X0110130Y0124680D01*
X0109186Y0125170D01*
X0108254Y0125683D01*
X0107335Y0126219D01*
X0106429Y0126777D01*
X0105537Y0127357D01*
X0104660Y0127959D01*
X0103798Y0128582D01*
X0102951Y0129226D01*
X0102121Y0129891D01*
X0101307Y0130576D01*
X0100510Y0131281D01*
X0099730Y0132005D01*
X0098969Y0132748D01*
X0098226Y0133509D01*
X0097502Y0134289D01*
X0096797Y0135086D01*
X0096112Y0135900D01*
X0095447Y0136730D01*
X0094803Y0137577D01*
X0094180Y0138439D01*
X0093578Y0139316D01*
X0092998Y0140208D01*
X0092440Y0141114D01*
X0091904Y0142033D01*
X0091391Y0142965D01*
X0090901Y0143909D01*
X0090435Y0144865D01*
X0089992Y0145832D01*
X0089573Y0146810D01*
X0089177Y0147798D01*
X0088807Y0148795D01*
X0088461Y0149801D01*
X0088139Y0150815D01*
X0087843Y0151837D01*
X0087572Y0152866D01*
X0087326Y0153901D01*
X0087106Y0154942D01*
X0086911Y0155987D01*
X0086742Y0157038D01*
X0086599Y0158092D01*
X0086482Y0159149D01*
X0086390Y0160209D01*
X0086325Y0161271D01*
X0086286Y0162334D01*
X0086273Y0163398D01*
M02*
