G75*
%MOIN*%
%OFA0B0*%
%FSLAX25Y25*%
%IPPOS*%
%LPD*%
%AMOC8*
5,1,8,0,0,1.08239X$1,22.5*
%
%ADD10C,0.00200*%
%ADD11C,0.00500*%
%ADD12C,0.00600*%
%ADD13C,0.00000*%
%ADD14C,0.00300*%
%ADD15C,0.00800*%
%ADD16C,0.01000*%
D10*
X0048838Y0047240D02*
X0050373Y0047240D01*
X0048838Y0048775D01*
X0048838Y0049159D01*
X0049222Y0049542D01*
X0049989Y0049542D01*
X0050373Y0049159D01*
X0051908Y0049542D02*
X0051908Y0047240D01*
X0052675Y0047240D02*
X0051140Y0047240D01*
X0052675Y0048775D02*
X0051908Y0049542D01*
X0053442Y0049159D02*
X0053442Y0048391D01*
X0053826Y0048008D01*
X0054977Y0048008D01*
X0054210Y0048008D02*
X0053442Y0047240D01*
X0054977Y0047240D02*
X0054977Y0049542D01*
X0053826Y0049542D01*
X0053442Y0049159D01*
X0060838Y0049401D02*
X0060838Y0047867D01*
X0061222Y0047483D01*
X0061989Y0047483D01*
X0062373Y0047867D01*
X0060838Y0049401D01*
X0061222Y0049785D01*
X0061989Y0049785D01*
X0062373Y0049401D01*
X0062373Y0047867D01*
X0063140Y0047483D02*
X0064675Y0047483D01*
X0065442Y0047483D02*
X0066209Y0048250D01*
X0065826Y0048250D02*
X0066977Y0048250D01*
X0066977Y0047483D02*
X0066977Y0049785D01*
X0065826Y0049785D01*
X0065442Y0049401D01*
X0065442Y0048634D01*
X0065826Y0048250D01*
X0064675Y0049018D02*
X0063907Y0049785D01*
X0063907Y0047483D01*
X0065878Y0046322D02*
X0065878Y0044787D01*
X0066262Y0044404D01*
X0067029Y0044404D01*
X0067413Y0044787D01*
X0068180Y0044404D02*
X0068947Y0045171D01*
X0068564Y0045171D02*
X0069715Y0045171D01*
X0069715Y0044404D02*
X0069715Y0046705D01*
X0068564Y0046705D01*
X0068180Y0046322D01*
X0068180Y0045554D01*
X0068564Y0045171D01*
X0067413Y0045938D02*
X0067029Y0045554D01*
X0065878Y0045554D01*
X0065878Y0046322D02*
X0066262Y0046705D01*
X0067029Y0046705D01*
X0067413Y0046322D01*
X0067413Y0045938D01*
X0067381Y0039184D02*
X0067381Y0037649D01*
X0067381Y0038416D02*
X0069683Y0038416D01*
X0068915Y0037649D01*
X0067381Y0036882D02*
X0067381Y0035347D01*
X0067381Y0036114D02*
X0069683Y0036114D01*
X0068915Y0035347D01*
X0068532Y0034580D02*
X0068148Y0034196D01*
X0068148Y0033045D01*
X0068148Y0033812D02*
X0067381Y0034580D01*
X0068532Y0034580D02*
X0069299Y0034580D01*
X0069683Y0034196D01*
X0069683Y0033045D01*
X0067381Y0033045D01*
X0067495Y0029096D02*
X0067111Y0028712D01*
X0067111Y0027945D01*
X0067495Y0027561D01*
X0067111Y0026794D02*
X0067111Y0025259D01*
X0067111Y0024492D02*
X0067879Y0023725D01*
X0067879Y0024108D02*
X0067879Y0022957D01*
X0067111Y0022957D02*
X0069413Y0022957D01*
X0069413Y0024108D01*
X0069030Y0024492D01*
X0068262Y0024492D01*
X0067879Y0024108D01*
X0068646Y0025259D02*
X0069413Y0026027D01*
X0067111Y0026027D01*
X0069030Y0027561D02*
X0069413Y0027945D01*
X0069413Y0028712D01*
X0069030Y0029096D01*
X0068646Y0029096D01*
X0068262Y0028712D01*
X0067879Y0029096D01*
X0067495Y0029096D01*
X0068262Y0028712D02*
X0068262Y0028329D01*
X0068454Y0018890D02*
X0067687Y0018890D01*
X0067303Y0018507D01*
X0067303Y0017739D01*
X0067687Y0017356D01*
X0068454Y0017356D02*
X0068838Y0018123D01*
X0068838Y0018507D01*
X0068454Y0018890D01*
X0069605Y0018890D02*
X0069605Y0017356D01*
X0068454Y0017356D01*
X0067303Y0016588D02*
X0067303Y0015054D01*
X0067303Y0015821D02*
X0069605Y0015821D01*
X0068838Y0015054D01*
X0068454Y0014286D02*
X0068071Y0013903D01*
X0068071Y0012752D01*
X0068071Y0013519D02*
X0067303Y0014286D01*
X0068454Y0014286D02*
X0069222Y0014286D01*
X0069605Y0013903D01*
X0069605Y0012752D01*
X0067303Y0012752D01*
X0076608Y0050770D02*
X0077375Y0050770D01*
X0077759Y0051154D01*
X0077759Y0051537D01*
X0077375Y0051921D01*
X0076608Y0051921D01*
X0076224Y0051537D01*
X0076224Y0051154D01*
X0076608Y0050770D01*
X0076608Y0051921D02*
X0076224Y0052305D01*
X0076224Y0052688D01*
X0076608Y0053072D01*
X0077375Y0053072D01*
X0077759Y0052688D01*
X0077759Y0052305D01*
X0077375Y0051921D01*
X0078526Y0051921D02*
X0078910Y0051537D01*
X0080061Y0051537D01*
X0080061Y0050770D02*
X0080061Y0053072D01*
X0078910Y0053072D01*
X0078526Y0052688D01*
X0078526Y0051921D01*
X0079294Y0051537D02*
X0078526Y0050770D01*
X0078628Y0057130D02*
X0077093Y0058665D01*
X0077093Y0059048D01*
X0077477Y0059432D01*
X0078244Y0059432D01*
X0078628Y0059048D01*
X0080162Y0059432D02*
X0080162Y0057130D01*
X0079395Y0057130D02*
X0080930Y0057130D01*
X0081697Y0057514D02*
X0082081Y0057130D01*
X0082848Y0057130D01*
X0083232Y0057514D01*
X0083232Y0059048D01*
X0082848Y0059432D01*
X0082081Y0059432D01*
X0081697Y0059048D01*
X0080930Y0058665D02*
X0080162Y0059432D01*
X0078628Y0057130D02*
X0077093Y0057130D01*
X0074899Y0067263D02*
X0074899Y0069565D01*
X0073748Y0069565D01*
X0073364Y0069182D01*
X0073364Y0068414D01*
X0073748Y0068031D01*
X0074899Y0068031D01*
X0074131Y0068031D02*
X0073364Y0067263D01*
X0072597Y0067647D02*
X0072213Y0067263D01*
X0071446Y0067263D01*
X0071062Y0067647D01*
X0071062Y0068031D01*
X0071446Y0068414D01*
X0072597Y0068414D01*
X0072597Y0067647D01*
X0072597Y0068414D02*
X0071829Y0069182D01*
X0071062Y0069565D01*
X0070295Y0069182D02*
X0069911Y0069565D01*
X0069144Y0069565D01*
X0068760Y0069182D01*
X0068760Y0068798D01*
X0070295Y0067263D01*
X0068760Y0067263D01*
X0064887Y0067420D02*
X0064887Y0069722D01*
X0063736Y0069722D01*
X0063353Y0069338D01*
X0063353Y0068571D01*
X0063736Y0068187D01*
X0064887Y0068187D01*
X0064120Y0068187D02*
X0063353Y0067420D01*
X0062585Y0067420D02*
X0062585Y0067804D01*
X0061051Y0069338D01*
X0061051Y0069722D01*
X0062585Y0069722D01*
X0060283Y0069338D02*
X0059900Y0069722D01*
X0059132Y0069722D01*
X0058749Y0069338D01*
X0058749Y0068955D01*
X0059132Y0068571D01*
X0058749Y0068187D01*
X0058749Y0067804D01*
X0059132Y0067420D01*
X0059900Y0067420D01*
X0060283Y0067804D01*
X0059516Y0068571D02*
X0059132Y0068571D01*
X0059156Y0063150D02*
X0058773Y0062766D01*
X0058773Y0061231D01*
X0059156Y0060848D01*
X0059924Y0060848D01*
X0060307Y0061231D01*
X0061074Y0061231D02*
X0061458Y0060848D01*
X0062225Y0060848D01*
X0062609Y0061231D01*
X0063376Y0061231D02*
X0063760Y0060848D01*
X0064527Y0060848D01*
X0064911Y0061231D01*
X0064911Y0062766D01*
X0064527Y0063150D01*
X0063760Y0063150D01*
X0063376Y0062766D01*
X0062609Y0062766D02*
X0062225Y0063150D01*
X0061458Y0063150D01*
X0061074Y0062766D01*
X0061074Y0062382D01*
X0061458Y0061999D01*
X0061074Y0061615D01*
X0061074Y0061231D01*
X0061458Y0061999D02*
X0061842Y0061999D01*
X0060307Y0062382D02*
X0059924Y0061999D01*
X0058773Y0061999D01*
X0059156Y0063150D02*
X0059924Y0063150D01*
X0060307Y0062766D01*
X0060307Y0062382D01*
X0054213Y0062807D02*
X0054213Y0061273D01*
X0053830Y0060889D01*
X0053062Y0060889D01*
X0052679Y0061273D01*
X0051911Y0060889D02*
X0050377Y0060889D01*
X0051144Y0060889D02*
X0051144Y0063191D01*
X0051911Y0062424D01*
X0052679Y0062807D02*
X0053062Y0063191D01*
X0053830Y0063191D01*
X0054213Y0062807D01*
X0049609Y0062424D02*
X0048842Y0063191D01*
X0048842Y0060889D01*
X0049609Y0060889D02*
X0048075Y0060889D01*
X0047865Y0067539D02*
X0047865Y0069841D01*
X0048632Y0069074D01*
X0049400Y0069841D02*
X0050167Y0069457D01*
X0050934Y0068690D01*
X0049783Y0068690D01*
X0049400Y0068306D01*
X0049400Y0067923D01*
X0049783Y0067539D01*
X0050551Y0067539D01*
X0050934Y0067923D01*
X0050934Y0068690D01*
X0051702Y0068690D02*
X0051702Y0069457D01*
X0052085Y0069841D01*
X0053236Y0069841D01*
X0053236Y0067539D01*
X0053236Y0068306D02*
X0052085Y0068306D01*
X0051702Y0068690D01*
X0052469Y0068306D02*
X0051702Y0067539D01*
X0048632Y0067539D02*
X0047098Y0067539D01*
X0050657Y0074544D02*
X0050273Y0074928D01*
X0050273Y0075312D01*
X0050657Y0075695D01*
X0051808Y0075695D01*
X0051808Y0074928D01*
X0051424Y0074544D01*
X0050657Y0074544D01*
X0051808Y0075695D02*
X0051040Y0076463D01*
X0050273Y0076846D01*
X0051490Y0078687D02*
X0052257Y0078687D01*
X0052641Y0079070D01*
X0053408Y0079070D02*
X0053792Y0078687D01*
X0054559Y0078687D01*
X0054943Y0079070D01*
X0053408Y0080605D01*
X0053408Y0079070D01*
X0052641Y0079838D02*
X0051874Y0080221D01*
X0051490Y0080221D01*
X0051106Y0079838D01*
X0051106Y0079070D01*
X0051490Y0078687D01*
X0052641Y0079838D02*
X0052641Y0080989D01*
X0051106Y0080989D01*
X0053408Y0080605D02*
X0053792Y0080989D01*
X0054559Y0080989D01*
X0054943Y0080605D01*
X0054943Y0079070D01*
X0055710Y0078687D02*
X0057245Y0078687D01*
X0058012Y0078687D02*
X0058780Y0079454D01*
X0058396Y0079454D02*
X0059547Y0079454D01*
X0059547Y0078687D02*
X0059547Y0080989D01*
X0058396Y0080989D01*
X0058012Y0080605D01*
X0058012Y0079838D01*
X0058396Y0079454D01*
X0057245Y0080221D02*
X0056478Y0080989D01*
X0056478Y0078687D01*
X0054109Y0076846D02*
X0052959Y0076846D01*
X0052575Y0076463D01*
X0052575Y0074928D01*
X0052959Y0074544D01*
X0054109Y0074544D01*
X0054109Y0076846D01*
X0059909Y0076734D02*
X0061444Y0076734D01*
X0061444Y0075583D01*
X0060677Y0075966D01*
X0060293Y0075966D01*
X0059909Y0075583D01*
X0059909Y0074815D01*
X0060293Y0074432D01*
X0061060Y0074432D01*
X0061444Y0074815D01*
X0062211Y0074815D02*
X0062595Y0074432D01*
X0063746Y0074432D01*
X0063746Y0076734D01*
X0062595Y0076734D01*
X0062211Y0076350D01*
X0062211Y0074815D01*
X0070281Y0078363D02*
X0070665Y0077979D01*
X0071432Y0077979D01*
X0071816Y0078363D01*
X0072583Y0078363D02*
X0072967Y0077979D01*
X0073734Y0077979D01*
X0074118Y0078363D01*
X0072583Y0079897D01*
X0072583Y0078363D01*
X0072583Y0079897D02*
X0072967Y0080281D01*
X0073734Y0080281D01*
X0074118Y0079897D01*
X0074118Y0078363D01*
X0074885Y0077979D02*
X0076420Y0077979D01*
X0077187Y0077979D02*
X0077954Y0078746D01*
X0077571Y0078746D02*
X0078722Y0078746D01*
X0078722Y0077979D02*
X0078722Y0080281D01*
X0077571Y0080281D01*
X0077187Y0079897D01*
X0077187Y0079130D01*
X0077571Y0078746D01*
X0076420Y0079514D02*
X0075652Y0080281D01*
X0075652Y0077979D01*
X0071816Y0079897D02*
X0071432Y0080281D01*
X0070665Y0080281D01*
X0070281Y0079897D01*
X0070281Y0079514D01*
X0070665Y0079130D01*
X0070281Y0078746D01*
X0070281Y0078363D01*
X0070665Y0079130D02*
X0071048Y0079130D01*
X0077357Y0072570D02*
X0078508Y0071419D01*
X0076974Y0071419D01*
X0077357Y0070268D02*
X0077357Y0072570D01*
X0079276Y0072186D02*
X0079276Y0070651D01*
X0079659Y0070268D01*
X0080810Y0070268D01*
X0080810Y0072570D01*
X0079659Y0072570D01*
X0079276Y0072186D01*
X0083522Y0077798D02*
X0083139Y0078182D01*
X0083139Y0078565D01*
X0083522Y0078949D01*
X0083906Y0078949D01*
X0083522Y0078949D02*
X0083139Y0079333D01*
X0083139Y0079716D01*
X0083522Y0080100D01*
X0084290Y0080100D01*
X0084673Y0079716D01*
X0085441Y0080100D02*
X0086208Y0079716D01*
X0086975Y0078949D01*
X0085824Y0078949D01*
X0085441Y0078565D01*
X0085441Y0078182D01*
X0085824Y0077798D01*
X0086591Y0077798D01*
X0086975Y0078182D01*
X0086975Y0078949D01*
X0087742Y0078182D02*
X0088126Y0077798D01*
X0088893Y0077798D01*
X0089277Y0078182D01*
X0089277Y0079716D01*
X0088893Y0080100D01*
X0088126Y0080100D01*
X0087742Y0079716D01*
X0084673Y0078182D02*
X0084290Y0077798D01*
X0083522Y0077798D01*
X0068071Y0085855D02*
X0068071Y0088157D01*
X0066920Y0088157D01*
X0066537Y0087773D01*
X0066537Y0087006D01*
X0066920Y0086622D01*
X0068071Y0086622D01*
X0067304Y0086622D02*
X0066537Y0085855D01*
X0065769Y0085855D02*
X0064235Y0085855D01*
X0065002Y0085855D02*
X0065002Y0088157D01*
X0065769Y0087389D01*
X0063467Y0087773D02*
X0063084Y0088157D01*
X0062317Y0088157D01*
X0061933Y0087773D01*
X0063467Y0086238D01*
X0063084Y0085855D01*
X0062317Y0085855D01*
X0061933Y0086238D01*
X0061933Y0087773D01*
X0061166Y0087006D02*
X0060015Y0088157D01*
X0060015Y0085855D01*
X0059631Y0087006D02*
X0061166Y0087006D01*
X0063467Y0086238D02*
X0063467Y0087773D01*
X0052711Y0091252D02*
X0052327Y0090868D01*
X0051560Y0090868D01*
X0051176Y0091252D01*
X0050409Y0091252D02*
X0050025Y0090868D01*
X0049258Y0090868D01*
X0048874Y0091252D01*
X0048874Y0091636D01*
X0049258Y0092019D01*
X0050409Y0092019D01*
X0050409Y0091252D01*
X0050409Y0092019D02*
X0049642Y0092787D01*
X0048874Y0093170D01*
X0048107Y0092787D02*
X0047723Y0093170D01*
X0046956Y0093170D01*
X0046572Y0092787D01*
X0048107Y0091252D01*
X0047723Y0090868D01*
X0046956Y0090868D01*
X0046572Y0091252D01*
X0046572Y0092787D01*
X0048107Y0092787D02*
X0048107Y0091252D01*
X0051176Y0092787D02*
X0051560Y0093170D01*
X0052327Y0093170D01*
X0052711Y0092787D01*
X0052711Y0091252D01*
X0040136Y0099119D02*
X0039752Y0098736D01*
X0038218Y0098736D01*
X0037834Y0099119D01*
X0037834Y0099887D01*
X0038218Y0100270D01*
X0038218Y0101038D02*
X0037834Y0101421D01*
X0037834Y0102189D01*
X0038218Y0102572D01*
X0038601Y0102572D01*
X0038985Y0102189D01*
X0038985Y0101038D01*
X0038218Y0101038D01*
X0038985Y0101038D02*
X0039752Y0101805D01*
X0040136Y0102572D01*
X0040136Y0103340D02*
X0040136Y0104874D01*
X0039752Y0104874D01*
X0038218Y0103340D01*
X0037834Y0103340D01*
X0039752Y0100270D02*
X0040136Y0099887D01*
X0040136Y0099119D01*
X0031730Y0090738D02*
X0031346Y0089970D01*
X0030579Y0089203D01*
X0030579Y0090354D01*
X0030195Y0090738D01*
X0029811Y0090738D01*
X0029428Y0090354D01*
X0029428Y0089587D01*
X0029811Y0089203D01*
X0030579Y0089203D01*
X0030579Y0088436D02*
X0029811Y0088436D01*
X0029428Y0088052D01*
X0029428Y0087285D01*
X0029811Y0086901D01*
X0029811Y0086134D02*
X0029428Y0085750D01*
X0029428Y0084983D01*
X0029811Y0084599D01*
X0031346Y0084599D01*
X0031730Y0084983D01*
X0031730Y0085750D01*
X0031346Y0086134D01*
X0031730Y0086901D02*
X0030579Y0086901D01*
X0030962Y0087668D01*
X0030962Y0088052D01*
X0030579Y0088436D01*
X0031730Y0088436D02*
X0031730Y0086901D01*
X0031799Y0073498D02*
X0031415Y0073114D01*
X0031415Y0072731D01*
X0031799Y0072347D01*
X0031415Y0071963D01*
X0031415Y0071580D01*
X0031799Y0071196D01*
X0032566Y0071196D01*
X0032950Y0071580D01*
X0033717Y0071580D02*
X0033717Y0073114D01*
X0034101Y0073498D01*
X0035252Y0073498D01*
X0035252Y0071196D01*
X0034101Y0071196D01*
X0033717Y0071580D01*
X0032950Y0073114D02*
X0032566Y0073498D01*
X0031799Y0073498D01*
X0031799Y0072347D02*
X0032182Y0072347D01*
X0030648Y0071580D02*
X0030648Y0073114D01*
X0030264Y0073498D01*
X0029497Y0073498D01*
X0029113Y0073114D01*
X0030648Y0071580D01*
X0030264Y0071196D01*
X0029497Y0071196D01*
X0029113Y0071580D01*
X0029113Y0073114D01*
X0029443Y0067101D02*
X0030594Y0065950D01*
X0029060Y0065950D01*
X0029443Y0064799D02*
X0029443Y0067101D01*
X0031362Y0066717D02*
X0031362Y0066333D01*
X0031745Y0065950D01*
X0032513Y0065950D01*
X0032896Y0066333D01*
X0032896Y0066717D01*
X0032513Y0067101D01*
X0031745Y0067101D01*
X0031362Y0066717D01*
X0031745Y0065950D02*
X0031362Y0065566D01*
X0031362Y0065182D01*
X0031745Y0064799D01*
X0032513Y0064799D01*
X0032896Y0065182D01*
X0032896Y0065566D01*
X0032513Y0065950D01*
X0033663Y0065950D02*
X0034047Y0065566D01*
X0035198Y0065566D01*
X0034431Y0065566D02*
X0033663Y0064799D01*
X0033663Y0065950D02*
X0033663Y0066717D01*
X0034047Y0067101D01*
X0035198Y0067101D01*
X0035198Y0064799D01*
X0034636Y0060366D02*
X0035020Y0059982D01*
X0035020Y0058447D01*
X0034636Y0058064D01*
X0033869Y0058064D01*
X0033485Y0058447D01*
X0032718Y0058447D02*
X0032334Y0058064D01*
X0031567Y0058064D01*
X0031183Y0058447D01*
X0031183Y0059215D01*
X0031567Y0059598D01*
X0031950Y0059598D01*
X0032718Y0059215D01*
X0032718Y0060366D01*
X0031183Y0060366D01*
X0030416Y0059982D02*
X0030032Y0060366D01*
X0029265Y0060366D01*
X0028881Y0059982D01*
X0030416Y0058447D01*
X0030032Y0058064D01*
X0029265Y0058064D01*
X0028881Y0058447D01*
X0028881Y0059982D01*
X0030416Y0059982D02*
X0030416Y0058447D01*
X0033485Y0059982D02*
X0033869Y0060366D01*
X0034636Y0060366D01*
X0035057Y0053561D02*
X0034673Y0053177D01*
X0034673Y0052410D01*
X0035057Y0052026D01*
X0036208Y0052026D01*
X0036208Y0051259D02*
X0036208Y0053561D01*
X0035057Y0053561D01*
X0033906Y0052794D02*
X0033139Y0053561D01*
X0033139Y0051259D01*
X0033906Y0051259D02*
X0032371Y0051259D01*
X0031604Y0052410D02*
X0030453Y0053561D01*
X0030453Y0051259D01*
X0030070Y0052410D02*
X0031604Y0052410D01*
X0034673Y0051259D02*
X0035441Y0052026D01*
X0037888Y0112114D02*
X0037504Y0112497D01*
X0037504Y0112881D01*
X0037888Y0113265D01*
X0039039Y0113265D01*
X0039039Y0112497D01*
X0038655Y0112114D01*
X0037888Y0112114D01*
X0039039Y0113265D02*
X0038272Y0114032D01*
X0037504Y0114416D01*
X0039806Y0114032D02*
X0041341Y0112497D01*
X0040957Y0112114D01*
X0040190Y0112114D01*
X0039806Y0112497D01*
X0039806Y0114032D01*
X0040190Y0114416D01*
X0040957Y0114416D01*
X0041341Y0114032D01*
X0041341Y0112497D01*
X0042108Y0112114D02*
X0043643Y0112114D01*
X0044410Y0112114D02*
X0045178Y0112881D01*
X0044794Y0112881D02*
X0045945Y0112881D01*
X0045945Y0112114D02*
X0045945Y0114416D01*
X0044794Y0114416D01*
X0044410Y0114032D01*
X0044410Y0113265D01*
X0044794Y0112881D01*
X0043643Y0113648D02*
X0042876Y0114416D01*
X0042876Y0112114D01*
X0033745Y0118672D02*
X0033745Y0120974D01*
X0032594Y0120974D01*
X0032210Y0120591D01*
X0032210Y0119823D01*
X0032594Y0119440D01*
X0033745Y0119440D01*
X0032977Y0119440D02*
X0032210Y0118672D01*
X0031443Y0118672D02*
X0029908Y0118672D01*
X0030675Y0118672D02*
X0030675Y0120974D01*
X0031443Y0120207D01*
X0029141Y0120591D02*
X0029141Y0119056D01*
X0027606Y0120591D01*
X0027606Y0119056D01*
X0027990Y0118672D01*
X0028757Y0118672D01*
X0029141Y0119056D01*
X0029141Y0120591D02*
X0028757Y0120974D01*
X0027990Y0120974D01*
X0027606Y0120591D01*
X0026839Y0120974D02*
X0025304Y0120974D01*
X0025304Y0120591D01*
X0026839Y0119056D01*
X0026839Y0118672D01*
X0027820Y0126624D02*
X0027820Y0128926D01*
X0028971Y0127775D01*
X0027437Y0127775D01*
X0029739Y0127391D02*
X0030122Y0127775D01*
X0031273Y0127775D01*
X0031273Y0127008D01*
X0030889Y0126624D01*
X0030122Y0126624D01*
X0029739Y0127008D01*
X0029739Y0127391D01*
X0030506Y0128542D02*
X0031273Y0127775D01*
X0030506Y0128542D02*
X0029739Y0128926D01*
X0032040Y0128542D02*
X0032424Y0128926D01*
X0033191Y0128926D01*
X0033575Y0128542D01*
X0033575Y0127008D01*
X0033191Y0126624D01*
X0032424Y0126624D01*
X0032040Y0127008D01*
X0045727Y0140390D02*
X0045727Y0141157D01*
X0046111Y0141541D01*
X0046111Y0142308D02*
X0045727Y0142692D01*
X0045727Y0143459D01*
X0046111Y0143843D01*
X0046495Y0143843D01*
X0046878Y0143459D01*
X0046878Y0142308D01*
X0046111Y0142308D01*
X0046878Y0142308D02*
X0047646Y0143076D01*
X0048029Y0143843D01*
X0047646Y0144610D02*
X0048029Y0144994D01*
X0048029Y0145761D01*
X0047646Y0146145D01*
X0047262Y0146145D01*
X0045727Y0144610D01*
X0045727Y0146145D01*
X0047646Y0141541D02*
X0048029Y0141157D01*
X0048029Y0140390D01*
X0047646Y0140006D01*
X0046111Y0140006D01*
X0045727Y0140390D01*
X0049483Y0157397D02*
X0051785Y0157397D01*
X0051785Y0158548D01*
X0051401Y0158931D01*
X0050634Y0158931D01*
X0050250Y0158548D01*
X0050250Y0157397D01*
X0050250Y0158164D02*
X0049483Y0158931D01*
X0049483Y0159699D02*
X0049483Y0161233D01*
X0049483Y0160466D02*
X0051785Y0160466D01*
X0051018Y0159699D01*
X0051018Y0162001D02*
X0051785Y0162768D01*
X0049483Y0162768D01*
X0049483Y0162001D02*
X0049483Y0163535D01*
X0049867Y0164303D02*
X0051401Y0165837D01*
X0049867Y0165837D01*
X0049483Y0165454D01*
X0049483Y0164686D01*
X0049867Y0164303D01*
X0051401Y0164303D01*
X0051785Y0164686D01*
X0051785Y0165454D01*
X0051401Y0165837D01*
X0058739Y0173091D02*
X0058739Y0174625D01*
X0059123Y0175009D01*
X0059890Y0175009D01*
X0060274Y0174625D01*
X0060274Y0174242D01*
X0059890Y0173858D01*
X0058739Y0173858D01*
X0058739Y0173091D02*
X0059123Y0172707D01*
X0059890Y0172707D01*
X0060274Y0173091D01*
X0061041Y0173091D02*
X0061424Y0172707D01*
X0062192Y0172707D01*
X0062575Y0173091D01*
X0062575Y0173858D02*
X0061808Y0174242D01*
X0061424Y0174242D01*
X0061041Y0173858D01*
X0061041Y0173091D01*
X0062575Y0173858D02*
X0062575Y0175009D01*
X0061041Y0175009D01*
X0063343Y0174625D02*
X0063726Y0175009D01*
X0064494Y0175009D01*
X0064877Y0174625D01*
X0064877Y0173091D01*
X0064494Y0172707D01*
X0063726Y0172707D01*
X0063343Y0173091D01*
X0065163Y0172804D02*
X0066698Y0172804D01*
X0065163Y0174338D01*
X0065163Y0174722D01*
X0065547Y0175106D01*
X0066314Y0175106D01*
X0066698Y0174722D01*
X0067465Y0174722D02*
X0067465Y0174338D01*
X0067849Y0173955D01*
X0069000Y0173955D01*
X0069000Y0175106D02*
X0067849Y0175106D01*
X0067465Y0174722D01*
X0067849Y0173955D02*
X0067465Y0173571D01*
X0067465Y0173187D01*
X0067849Y0172804D01*
X0069000Y0172804D01*
X0069000Y0175106D01*
X0069767Y0175106D02*
X0071302Y0175106D01*
X0071302Y0172804D01*
X0071302Y0173955D02*
X0070534Y0173955D01*
X0073439Y0172870D02*
X0074974Y0172870D01*
X0074206Y0172870D02*
X0074206Y0175172D01*
X0074974Y0174404D01*
X0075741Y0174404D02*
X0076125Y0174021D01*
X0077276Y0174021D01*
X0077276Y0175172D02*
X0076125Y0175172D01*
X0075741Y0174788D01*
X0075741Y0174404D01*
X0076125Y0174021D02*
X0075741Y0173637D01*
X0075741Y0173253D01*
X0076125Y0172870D01*
X0077276Y0172870D01*
X0077276Y0175172D01*
X0078043Y0175172D02*
X0079578Y0175172D01*
X0079578Y0172870D01*
X0079578Y0174021D02*
X0078810Y0174021D01*
X0076260Y0165496D02*
X0076260Y0163961D01*
X0076260Y0164729D02*
X0078562Y0164729D01*
X0077795Y0163961D01*
X0078562Y0163194D02*
X0078178Y0162427D01*
X0077411Y0161659D01*
X0077411Y0162810D01*
X0077027Y0163194D01*
X0076644Y0163194D01*
X0076260Y0162810D01*
X0076260Y0162043D01*
X0076644Y0161659D01*
X0077411Y0161659D01*
X0078178Y0160892D02*
X0078562Y0160508D01*
X0078562Y0159741D01*
X0078178Y0159357D01*
X0076644Y0159357D01*
X0076260Y0159741D01*
X0076260Y0160508D01*
X0076644Y0160892D01*
X0090290Y0164075D02*
X0092592Y0164075D01*
X0092592Y0165226D01*
X0092208Y0165609D01*
X0091441Y0165609D01*
X0091057Y0165226D01*
X0091057Y0164075D01*
X0091057Y0164842D02*
X0090290Y0165609D01*
X0090290Y0166377D02*
X0090290Y0167911D01*
X0090290Y0167144D02*
X0092592Y0167144D01*
X0091824Y0166377D01*
X0092208Y0168678D02*
X0090673Y0168678D01*
X0092208Y0170213D01*
X0090673Y0170213D01*
X0090290Y0169829D01*
X0090290Y0169062D01*
X0090673Y0168678D01*
X0092208Y0168678D02*
X0092592Y0169062D01*
X0092592Y0169829D01*
X0092208Y0170213D01*
X0092208Y0170980D02*
X0091824Y0170980D01*
X0091441Y0171364D01*
X0091441Y0172515D01*
X0092208Y0172515D02*
X0092592Y0172131D01*
X0092592Y0171364D01*
X0092208Y0170980D01*
X0090673Y0170980D02*
X0090290Y0171364D01*
X0090290Y0172131D01*
X0090673Y0172515D01*
X0092208Y0172515D01*
X0096855Y0178051D02*
X0096472Y0178435D01*
X0096472Y0179202D01*
X0096855Y0179586D01*
X0096855Y0180353D02*
X0096472Y0180737D01*
X0096472Y0181504D01*
X0096855Y0181888D01*
X0097239Y0181888D01*
X0097623Y0181504D01*
X0097623Y0180353D01*
X0096855Y0180353D01*
X0097623Y0180353D02*
X0098390Y0181121D01*
X0098774Y0181888D01*
X0098390Y0182655D02*
X0098006Y0182655D01*
X0097623Y0183039D01*
X0097623Y0184190D01*
X0098390Y0184190D02*
X0098774Y0183806D01*
X0098774Y0183039D01*
X0098390Y0182655D01*
X0096855Y0182655D02*
X0096472Y0183039D01*
X0096472Y0183806D01*
X0096855Y0184190D01*
X0098390Y0184190D01*
X0098390Y0179586D02*
X0098774Y0179202D01*
X0098774Y0178435D01*
X0098390Y0178051D01*
X0096855Y0178051D01*
X0092051Y0183917D02*
X0090516Y0183917D01*
X0090132Y0184301D01*
X0090132Y0185068D01*
X0090516Y0185452D01*
X0090516Y0186219D02*
X0090132Y0186602D01*
X0090132Y0187370D01*
X0090516Y0187753D01*
X0091283Y0187753D01*
X0091667Y0187370D01*
X0091667Y0186986D01*
X0091283Y0186219D01*
X0092434Y0186219D01*
X0092434Y0187753D01*
X0092051Y0188521D02*
X0091667Y0188521D01*
X0091283Y0188904D01*
X0091283Y0189672D01*
X0090900Y0190055D01*
X0090516Y0190055D01*
X0090132Y0189672D01*
X0090132Y0188904D01*
X0090516Y0188521D01*
X0090900Y0188521D01*
X0091283Y0188904D01*
X0091283Y0189672D02*
X0091667Y0190055D01*
X0092051Y0190055D01*
X0092434Y0189672D01*
X0092434Y0188904D01*
X0092051Y0188521D01*
X0092051Y0185452D02*
X0092434Y0185068D01*
X0092434Y0184301D01*
X0092051Y0183917D01*
X0076797Y0192409D02*
X0076797Y0212409D01*
X0076341Y0225035D02*
X0076725Y0225419D01*
X0075190Y0226953D01*
X0075190Y0225419D01*
X0075574Y0225035D01*
X0076341Y0225035D01*
X0076725Y0225419D02*
X0076725Y0226953D01*
X0076341Y0227337D01*
X0075574Y0227337D01*
X0075190Y0226953D01*
X0074423Y0226953D02*
X0074039Y0227337D01*
X0073272Y0227337D01*
X0072888Y0226953D01*
X0072888Y0226570D01*
X0073272Y0226186D01*
X0074039Y0226186D01*
X0074423Y0226570D01*
X0074423Y0226953D01*
X0074039Y0226186D02*
X0074423Y0225802D01*
X0074423Y0225419D01*
X0074039Y0225035D01*
X0073272Y0225035D01*
X0072888Y0225419D01*
X0072888Y0225802D01*
X0073272Y0226186D01*
X0077492Y0225035D02*
X0079027Y0225035D01*
X0079794Y0225035D02*
X0080561Y0225802D01*
X0080178Y0225802D02*
X0081329Y0225802D01*
X0081329Y0225035D02*
X0081329Y0227337D01*
X0080178Y0227337D01*
X0079794Y0226953D01*
X0079794Y0226186D01*
X0080178Y0225802D01*
X0079027Y0226570D02*
X0078259Y0227337D01*
X0078259Y0225035D01*
X0078266Y0231244D02*
X0078266Y0233546D01*
X0079033Y0232779D01*
X0079800Y0233162D02*
X0079800Y0232395D01*
X0080184Y0232011D01*
X0081335Y0232011D01*
X0081335Y0231244D02*
X0081335Y0233546D01*
X0080184Y0233546D01*
X0079800Y0233162D01*
X0080568Y0232011D02*
X0079800Y0231244D01*
X0079033Y0231244D02*
X0077498Y0231244D01*
X0076731Y0231244D02*
X0075196Y0231244D01*
X0075964Y0231244D02*
X0075964Y0233546D01*
X0076731Y0232779D01*
X0074429Y0233162D02*
X0074045Y0233546D01*
X0073278Y0233546D01*
X0072894Y0233162D01*
X0072894Y0232779D01*
X0073278Y0232395D01*
X0072894Y0232011D01*
X0072894Y0231628D01*
X0073278Y0231244D01*
X0074045Y0231244D01*
X0074429Y0231628D01*
X0073662Y0232395D02*
X0073278Y0232395D01*
X0099810Y0229578D02*
X0100194Y0229961D01*
X0100961Y0229961D01*
X0101345Y0229578D01*
X0099810Y0229578D02*
X0099810Y0229194D01*
X0101345Y0227659D01*
X0099810Y0227659D01*
X0102112Y0227659D02*
X0103647Y0227659D01*
X0104414Y0227659D02*
X0105949Y0227659D01*
X0106716Y0227659D02*
X0107483Y0228427D01*
X0107100Y0228427D02*
X0108251Y0228427D01*
X0108251Y0227659D02*
X0108251Y0229961D01*
X0107100Y0229961D01*
X0106716Y0229578D01*
X0106716Y0228810D01*
X0107100Y0228427D01*
X0105949Y0229194D02*
X0105181Y0229961D01*
X0105181Y0227659D01*
X0103647Y0229194D02*
X0102879Y0229961D01*
X0102879Y0227659D01*
X0108710Y0218683D02*
X0108710Y0216381D01*
X0107943Y0216381D02*
X0109478Y0216381D01*
X0110245Y0216381D02*
X0111780Y0216381D01*
X0112547Y0216381D02*
X0114082Y0216381D01*
X0114849Y0216381D02*
X0115616Y0217149D01*
X0115233Y0217149D02*
X0116384Y0217149D01*
X0116384Y0216381D02*
X0116384Y0218683D01*
X0115233Y0218683D01*
X0114849Y0218300D01*
X0114849Y0217532D01*
X0115233Y0217149D01*
X0114082Y0217916D02*
X0113314Y0218683D01*
X0113314Y0216381D01*
X0111780Y0217916D02*
X0111012Y0218683D01*
X0111012Y0216381D01*
X0109478Y0217916D02*
X0108710Y0218683D01*
X0102690Y0206093D02*
X0102306Y0206093D01*
X0101923Y0205710D01*
X0101923Y0204942D01*
X0102306Y0204559D01*
X0102690Y0204559D01*
X0103074Y0204942D01*
X0103074Y0205710D01*
X0102690Y0206093D01*
X0101923Y0205710D02*
X0101539Y0206093D01*
X0101155Y0206093D01*
X0100772Y0205710D01*
X0100772Y0204942D01*
X0101155Y0204559D01*
X0101539Y0204559D01*
X0101923Y0204942D01*
X0101539Y0203791D02*
X0101923Y0203408D01*
X0101923Y0202257D01*
X0101155Y0202257D01*
X0100772Y0202640D01*
X0100772Y0203408D01*
X0101155Y0203791D01*
X0101539Y0203791D01*
X0102690Y0203024D02*
X0101923Y0202257D01*
X0102690Y0203024D02*
X0103074Y0203791D01*
X0102690Y0201489D02*
X0103074Y0201106D01*
X0103074Y0200338D01*
X0102690Y0199955D01*
X0101155Y0199955D01*
X0100772Y0200338D01*
X0100772Y0201106D01*
X0101155Y0201489D01*
X0117871Y0201235D02*
X0117871Y0202386D01*
X0118255Y0202770D01*
X0119789Y0202770D01*
X0120173Y0202386D01*
X0120173Y0201235D01*
X0117871Y0201235D01*
X0117871Y0203537D02*
X0117871Y0205072D01*
X0117871Y0204305D02*
X0120173Y0204305D01*
X0119406Y0203537D01*
X0119789Y0205839D02*
X0120173Y0206223D01*
X0120173Y0206990D01*
X0119789Y0207374D01*
X0119406Y0207374D01*
X0117871Y0205839D01*
X0117871Y0207374D01*
X0124538Y0211817D02*
X0124538Y0212968D01*
X0124922Y0213352D01*
X0126456Y0213352D01*
X0126840Y0212968D01*
X0126840Y0211817D01*
X0124538Y0211817D01*
X0124538Y0214119D02*
X0124538Y0215653D01*
X0124538Y0214886D02*
X0126840Y0214886D01*
X0126073Y0214119D01*
X0126073Y0216421D02*
X0126840Y0217188D01*
X0124538Y0217188D01*
X0124538Y0216421D02*
X0124538Y0217955D01*
X0124551Y0223360D02*
X0124551Y0224511D01*
X0124934Y0224894D01*
X0126469Y0224894D01*
X0126853Y0224511D01*
X0126853Y0223360D01*
X0124551Y0223360D01*
X0124551Y0225662D02*
X0124551Y0227196D01*
X0124551Y0226429D02*
X0126853Y0226429D01*
X0126085Y0225662D01*
X0126469Y0227964D02*
X0124934Y0227964D01*
X0126469Y0229498D01*
X0124934Y0229498D01*
X0124551Y0229115D01*
X0124551Y0228347D01*
X0124934Y0227964D01*
X0126469Y0227964D02*
X0126853Y0228347D01*
X0126853Y0229115D01*
X0126469Y0229498D01*
X0130625Y0229110D02*
X0130625Y0228343D01*
X0131009Y0227959D01*
X0131009Y0227192D02*
X0131393Y0227192D01*
X0131776Y0226808D01*
X0131776Y0225657D01*
X0131009Y0225657D01*
X0130625Y0226041D01*
X0130625Y0226808D01*
X0131009Y0227192D01*
X0131776Y0228726D02*
X0131776Y0229110D01*
X0131393Y0229494D01*
X0131009Y0229494D01*
X0130625Y0229110D01*
X0131776Y0229110D02*
X0132160Y0229494D01*
X0132544Y0229494D01*
X0132927Y0229110D01*
X0132927Y0228343D01*
X0132544Y0227959D01*
X0132927Y0227192D02*
X0132544Y0226424D01*
X0131776Y0225657D01*
X0131776Y0224890D02*
X0131393Y0224506D01*
X0131393Y0223355D01*
X0131393Y0224123D02*
X0130625Y0224890D01*
X0131776Y0224890D02*
X0132544Y0224890D01*
X0132927Y0224506D01*
X0132927Y0223355D01*
X0130625Y0223355D01*
X0130334Y0217718D02*
X0130334Y0216184D01*
X0131869Y0217718D01*
X0132253Y0217718D01*
X0132636Y0217335D01*
X0132636Y0216567D01*
X0132253Y0216184D01*
X0132253Y0215416D02*
X0130718Y0213882D01*
X0130334Y0213882D01*
X0130334Y0213115D02*
X0131102Y0212347D01*
X0131102Y0212731D02*
X0131102Y0211580D01*
X0130334Y0211580D02*
X0132636Y0211580D01*
X0132636Y0212731D01*
X0132253Y0213115D01*
X0131485Y0213115D01*
X0131102Y0212731D01*
X0132636Y0213882D02*
X0132636Y0215416D01*
X0132253Y0215416D01*
X0136860Y0214796D02*
X0136860Y0214028D01*
X0137244Y0213645D01*
X0137244Y0212877D02*
X0136860Y0212494D01*
X0136860Y0211726D01*
X0137244Y0211343D01*
X0138778Y0211343D01*
X0139162Y0211726D01*
X0139162Y0212494D01*
X0138778Y0212877D01*
X0138778Y0213645D02*
X0139162Y0214028D01*
X0139162Y0214796D01*
X0138778Y0215179D01*
X0138395Y0215179D01*
X0138011Y0214796D01*
X0137627Y0215179D01*
X0137244Y0215179D01*
X0136860Y0214796D01*
X0138011Y0214796D02*
X0138011Y0214412D01*
X0137627Y0215947D02*
X0138011Y0216330D01*
X0138011Y0217098D01*
X0137627Y0217481D01*
X0137244Y0217481D01*
X0136860Y0217098D01*
X0136860Y0216330D01*
X0137244Y0215947D01*
X0137627Y0215947D01*
X0138011Y0216330D02*
X0138395Y0215947D01*
X0138778Y0215947D01*
X0139162Y0216330D01*
X0139162Y0217098D01*
X0138778Y0217481D01*
X0138395Y0217481D01*
X0138011Y0217098D01*
X0143055Y0217174D02*
X0143439Y0216790D01*
X0143822Y0216790D01*
X0144206Y0217174D01*
X0144206Y0217941D01*
X0143822Y0218325D01*
X0143439Y0218325D01*
X0143055Y0217941D01*
X0143055Y0217174D01*
X0143055Y0216023D02*
X0143055Y0214488D01*
X0143055Y0213721D02*
X0143822Y0212954D01*
X0143822Y0213337D02*
X0143822Y0212186D01*
X0143055Y0212186D02*
X0145357Y0212186D01*
X0145357Y0213337D01*
X0144973Y0213721D01*
X0144206Y0213721D01*
X0143822Y0213337D01*
X0144590Y0214488D02*
X0145357Y0215256D01*
X0143055Y0215256D01*
X0144590Y0216790D02*
X0144973Y0216790D01*
X0145357Y0217174D01*
X0145357Y0217941D01*
X0144973Y0218325D01*
X0144590Y0218325D01*
X0144206Y0217941D01*
X0144206Y0217174D02*
X0144590Y0216790D01*
X0149439Y0217156D02*
X0149823Y0217539D01*
X0151357Y0217539D01*
X0151741Y0217156D01*
X0151741Y0216388D01*
X0151357Y0216005D01*
X0150973Y0216005D01*
X0150590Y0216388D01*
X0150590Y0217539D01*
X0149439Y0217156D02*
X0149439Y0216388D01*
X0149823Y0216005D01*
X0149439Y0215237D02*
X0149439Y0213703D01*
X0149439Y0214470D02*
X0151741Y0214470D01*
X0150973Y0213703D01*
X0150590Y0212935D02*
X0150206Y0212552D01*
X0150206Y0211401D01*
X0150206Y0212168D02*
X0149439Y0212935D01*
X0150590Y0212935D02*
X0151357Y0212935D01*
X0151741Y0212552D01*
X0151741Y0211401D01*
X0149439Y0211401D01*
X0149295Y0207303D02*
X0149295Y0205768D01*
X0149295Y0205001D02*
X0149295Y0203466D01*
X0150829Y0205001D01*
X0151213Y0205001D01*
X0151596Y0204617D01*
X0151596Y0203850D01*
X0151213Y0203466D01*
X0151213Y0202699D02*
X0150446Y0202699D01*
X0150062Y0202316D01*
X0150062Y0201165D01*
X0150062Y0201932D02*
X0149295Y0202699D01*
X0149295Y0201165D02*
X0151596Y0201165D01*
X0151596Y0202316D01*
X0151213Y0202699D01*
X0150829Y0205768D02*
X0151596Y0206536D01*
X0149295Y0206536D01*
X0145303Y0207076D02*
X0145303Y0207844D01*
X0144919Y0208227D01*
X0143384Y0206693D01*
X0143001Y0207076D01*
X0143001Y0207844D01*
X0143384Y0208227D01*
X0144919Y0208227D01*
X0145303Y0207076D02*
X0144919Y0206693D01*
X0143384Y0206693D01*
X0143001Y0205925D02*
X0143001Y0204391D01*
X0144535Y0205925D01*
X0144919Y0205925D01*
X0145303Y0205542D01*
X0145303Y0204774D01*
X0144919Y0204391D01*
X0144919Y0203623D02*
X0144152Y0203623D01*
X0143768Y0203240D01*
X0143768Y0202089D01*
X0143768Y0202856D02*
X0143001Y0203623D01*
X0143001Y0202089D02*
X0145303Y0202089D01*
X0145303Y0203240D01*
X0144919Y0203623D01*
X0139059Y0204531D02*
X0137908Y0203380D01*
X0137908Y0204915D01*
X0138675Y0205682D02*
X0139059Y0206066D01*
X0139059Y0206833D01*
X0138675Y0207217D01*
X0137141Y0205682D01*
X0136757Y0206066D01*
X0136757Y0206833D01*
X0137141Y0207217D01*
X0138675Y0207217D01*
X0138675Y0205682D02*
X0137141Y0205682D01*
X0136757Y0204531D02*
X0139059Y0204531D01*
X0138675Y0202613D02*
X0139059Y0202229D01*
X0139059Y0201462D01*
X0138675Y0201078D01*
X0137141Y0201078D01*
X0136757Y0201462D01*
X0136757Y0202229D01*
X0137141Y0202613D01*
X0132843Y0202322D02*
X0132459Y0202705D01*
X0131692Y0202705D01*
X0131308Y0202322D01*
X0131308Y0201171D01*
X0130541Y0201171D02*
X0132843Y0201171D01*
X0132843Y0202322D01*
X0132843Y0203473D02*
X0132843Y0205007D01*
X0132459Y0205007D01*
X0130925Y0203473D01*
X0130541Y0203473D01*
X0130541Y0202705D02*
X0131308Y0201938D01*
X0131692Y0205775D02*
X0131692Y0207309D01*
X0132843Y0206926D02*
X0131692Y0205775D01*
X0130541Y0206926D02*
X0132843Y0206926D01*
X0137394Y0223053D02*
X0137010Y0223436D01*
X0137010Y0224204D01*
X0137394Y0224587D01*
X0137010Y0225355D02*
X0138545Y0226889D01*
X0138928Y0226889D01*
X0139312Y0226506D01*
X0139312Y0225738D01*
X0138928Y0225355D01*
X0138928Y0224587D02*
X0139312Y0224204D01*
X0139312Y0223436D01*
X0138928Y0223053D01*
X0137394Y0223053D01*
X0137010Y0225355D02*
X0137010Y0226889D01*
X0137394Y0227657D02*
X0137010Y0228040D01*
X0137010Y0228808D01*
X0137394Y0229191D01*
X0138928Y0229191D01*
X0139312Y0228808D01*
X0139312Y0228040D01*
X0138928Y0227657D01*
X0138545Y0227657D01*
X0138161Y0228040D01*
X0138161Y0229191D01*
X0142991Y0227758D02*
X0143375Y0228142D01*
X0143759Y0228142D01*
X0144142Y0227758D01*
X0144142Y0226607D01*
X0143375Y0226607D01*
X0142991Y0226991D01*
X0142991Y0227758D01*
X0144142Y0226607D02*
X0144910Y0227375D01*
X0145293Y0228142D01*
X0145293Y0225073D02*
X0142991Y0225073D01*
X0142991Y0225840D02*
X0142991Y0224305D01*
X0142991Y0223538D02*
X0143759Y0222771D01*
X0143759Y0223154D02*
X0143759Y0222003D01*
X0142991Y0222003D02*
X0145293Y0222003D01*
X0145293Y0223154D01*
X0144910Y0223538D01*
X0144142Y0223538D01*
X0143759Y0223154D01*
X0144526Y0224305D02*
X0145293Y0225073D01*
X0149479Y0225004D02*
X0150246Y0224237D01*
X0150246Y0224621D02*
X0150246Y0223470D01*
X0149479Y0223470D02*
X0151781Y0223470D01*
X0151781Y0224621D01*
X0151397Y0225004D01*
X0150630Y0225004D01*
X0150246Y0224621D01*
X0151013Y0225772D02*
X0151781Y0226539D01*
X0149479Y0226539D01*
X0149479Y0225772D02*
X0149479Y0227306D01*
X0149479Y0228074D02*
X0149862Y0228074D01*
X0151397Y0229608D01*
X0151781Y0229608D01*
X0151781Y0228074D01*
X0159374Y0228629D02*
X0159758Y0228245D01*
X0159374Y0228629D02*
X0159374Y0229396D01*
X0159758Y0229780D01*
X0160141Y0229780D01*
X0160525Y0229396D01*
X0160525Y0229012D01*
X0160525Y0229396D02*
X0160909Y0229780D01*
X0161292Y0229780D01*
X0161676Y0229396D01*
X0161676Y0228629D01*
X0161292Y0228245D01*
X0161292Y0227478D02*
X0160909Y0227478D01*
X0160525Y0227094D01*
X0160141Y0227478D01*
X0159758Y0227478D01*
X0159374Y0227094D01*
X0159374Y0226327D01*
X0159758Y0225943D01*
X0159758Y0225176D02*
X0161292Y0225176D01*
X0161676Y0224792D01*
X0161676Y0223641D01*
X0159374Y0223641D01*
X0159374Y0224792D01*
X0159758Y0225176D01*
X0161292Y0225943D02*
X0161676Y0226327D01*
X0161676Y0227094D01*
X0161292Y0227478D01*
X0160525Y0227094D02*
X0160525Y0226710D01*
X0165464Y0226866D02*
X0165464Y0226099D01*
X0165848Y0225715D01*
X0166232Y0225715D01*
X0166615Y0226099D01*
X0166615Y0226866D01*
X0166232Y0227250D01*
X0165848Y0227250D01*
X0165464Y0226866D01*
X0166615Y0226866D02*
X0166999Y0227250D01*
X0167383Y0227250D01*
X0167766Y0226866D01*
X0167766Y0226099D01*
X0167383Y0225715D01*
X0166999Y0225715D01*
X0166615Y0226099D01*
X0166615Y0224948D02*
X0166232Y0224564D01*
X0166232Y0223413D01*
X0166232Y0224181D02*
X0165464Y0224948D01*
X0166615Y0224948D02*
X0167383Y0224948D01*
X0167766Y0224564D01*
X0167766Y0223413D01*
X0165464Y0223413D01*
X0165848Y0228017D02*
X0165464Y0228401D01*
X0165464Y0229168D01*
X0165848Y0229552D01*
X0166232Y0229552D01*
X0166615Y0229168D01*
X0166615Y0228784D01*
X0166615Y0229168D02*
X0166999Y0229552D01*
X0167383Y0229552D01*
X0167766Y0229168D01*
X0167766Y0228401D01*
X0167383Y0228017D01*
X0171665Y0228324D02*
X0171665Y0229092D01*
X0172048Y0229475D01*
X0173583Y0229475D01*
X0173967Y0229092D01*
X0173967Y0228324D01*
X0173583Y0227941D01*
X0173199Y0227941D01*
X0172816Y0228324D01*
X0172816Y0229475D01*
X0171665Y0228324D02*
X0172048Y0227941D01*
X0172816Y0227173D02*
X0172816Y0225639D01*
X0173967Y0226790D01*
X0171665Y0226790D01*
X0172048Y0224871D02*
X0171665Y0224488D01*
X0171665Y0223720D01*
X0172048Y0223337D01*
X0173583Y0223337D01*
X0173967Y0223720D01*
X0173967Y0224488D01*
X0173583Y0224871D01*
X0178140Y0224313D02*
X0180442Y0224313D01*
X0180442Y0225464D01*
X0180058Y0225848D01*
X0179291Y0225848D01*
X0178907Y0225464D01*
X0178907Y0224313D01*
X0178907Y0225080D02*
X0178140Y0225848D01*
X0178140Y0226615D02*
X0179675Y0228150D01*
X0180058Y0228150D01*
X0180442Y0227766D01*
X0180442Y0226999D01*
X0180058Y0226615D01*
X0178140Y0226615D02*
X0178140Y0228150D01*
X0178140Y0228917D02*
X0179675Y0230452D01*
X0180058Y0230452D01*
X0180442Y0230068D01*
X0180442Y0229301D01*
X0180058Y0228917D01*
X0178140Y0228917D02*
X0178140Y0230452D01*
X0183982Y0229289D02*
X0183982Y0228522D01*
X0184365Y0228138D01*
X0183982Y0227371D02*
X0183982Y0225836D01*
X0185516Y0227371D01*
X0185900Y0227371D01*
X0186284Y0226987D01*
X0186284Y0226220D01*
X0185900Y0225836D01*
X0185900Y0225069D02*
X0185133Y0225069D01*
X0184749Y0224685D01*
X0184749Y0223534D01*
X0183982Y0223534D02*
X0186284Y0223534D01*
X0186284Y0224685D01*
X0185900Y0225069D01*
X0184749Y0224301D02*
X0183982Y0225069D01*
X0185900Y0228138D02*
X0186284Y0228522D01*
X0186284Y0229289D01*
X0185900Y0229673D01*
X0185516Y0229673D01*
X0185133Y0229289D01*
X0184749Y0229673D01*
X0184365Y0229673D01*
X0183982Y0229289D01*
X0185133Y0229289D02*
X0185133Y0228905D01*
X0189120Y0210411D02*
X0190271Y0209260D01*
X0188737Y0209260D01*
X0189120Y0208109D02*
X0189120Y0210411D01*
X0191806Y0210411D02*
X0191806Y0208109D01*
X0192573Y0208109D02*
X0191039Y0208109D01*
X0192573Y0209643D02*
X0191806Y0210411D01*
X0193341Y0210027D02*
X0193724Y0210411D01*
X0194875Y0210411D01*
X0194875Y0208109D01*
X0193724Y0208109D01*
X0193341Y0208492D01*
X0193341Y0210027D01*
X0193586Y0205123D02*
X0193203Y0204739D01*
X0193203Y0203972D01*
X0193586Y0203588D01*
X0194737Y0203588D01*
X0194737Y0202821D02*
X0194737Y0205123D01*
X0193586Y0205123D01*
X0192435Y0205123D02*
X0190901Y0205123D01*
X0190901Y0204739D01*
X0192435Y0203205D01*
X0192435Y0202821D01*
X0193203Y0202821D02*
X0193970Y0203588D01*
X0194315Y0199892D02*
X0194699Y0199508D01*
X0194699Y0197973D01*
X0194315Y0197590D01*
X0193548Y0197590D01*
X0193164Y0197973D01*
X0192397Y0197973D02*
X0192013Y0197590D01*
X0191246Y0197590D01*
X0190862Y0197973D01*
X0190862Y0198357D01*
X0191246Y0198741D01*
X0191629Y0198741D01*
X0191246Y0198741D02*
X0190862Y0199124D01*
X0190862Y0199508D01*
X0191246Y0199892D01*
X0192013Y0199892D01*
X0192397Y0199508D01*
X0193164Y0199508D02*
X0193548Y0199892D01*
X0194315Y0199892D01*
X0190095Y0199892D02*
X0188560Y0199892D01*
X0188560Y0199508D01*
X0190095Y0197973D01*
X0190095Y0197590D01*
X0185707Y0197499D02*
X0185323Y0197882D01*
X0184556Y0197882D01*
X0184172Y0197499D01*
X0184172Y0196348D01*
X0183405Y0196348D02*
X0185707Y0196348D01*
X0185707Y0197499D01*
X0185323Y0198650D02*
X0185707Y0199033D01*
X0185707Y0199800D01*
X0185323Y0200184D01*
X0184940Y0200184D01*
X0183405Y0198650D01*
X0183405Y0200184D01*
X0183789Y0200951D02*
X0183405Y0201335D01*
X0183405Y0202102D01*
X0183789Y0202486D01*
X0184556Y0202486D01*
X0184940Y0202102D01*
X0184940Y0201719D01*
X0184556Y0200951D01*
X0185707Y0200951D01*
X0185707Y0202486D01*
X0188599Y0202821D02*
X0190133Y0202821D01*
X0189366Y0202821D02*
X0189366Y0205123D01*
X0190133Y0204356D01*
X0183405Y0197882D02*
X0184172Y0197115D01*
X0180013Y0196989D02*
X0180013Y0198140D01*
X0179629Y0198523D01*
X0178862Y0198523D01*
X0178478Y0198140D01*
X0178478Y0196989D01*
X0178478Y0197756D02*
X0177711Y0198523D01*
X0177711Y0199291D02*
X0179245Y0200825D01*
X0179629Y0200825D01*
X0180013Y0200442D01*
X0180013Y0199674D01*
X0179629Y0199291D01*
X0177711Y0199291D02*
X0177711Y0200825D01*
X0178862Y0201593D02*
X0178862Y0203127D01*
X0180013Y0202744D02*
X0178862Y0201593D01*
X0177711Y0202744D02*
X0180013Y0202744D01*
X0174728Y0201540D02*
X0174344Y0201924D01*
X0172810Y0200389D01*
X0172426Y0200773D01*
X0172426Y0201540D01*
X0172810Y0201924D01*
X0174344Y0201924D01*
X0174728Y0201540D02*
X0174728Y0200773D01*
X0174344Y0200389D01*
X0172810Y0200389D01*
X0172810Y0199622D02*
X0172426Y0199238D01*
X0172426Y0198471D01*
X0172810Y0198087D01*
X0172810Y0197320D02*
X0172426Y0196937D01*
X0172426Y0196169D01*
X0172810Y0195786D01*
X0174344Y0195786D01*
X0174728Y0196169D01*
X0174728Y0196937D01*
X0174344Y0197320D01*
X0174344Y0198087D02*
X0174728Y0198471D01*
X0174728Y0199238D01*
X0174344Y0199622D01*
X0173961Y0199622D01*
X0173577Y0199238D01*
X0173193Y0199622D01*
X0172810Y0199622D01*
X0173577Y0199238D02*
X0173577Y0198855D01*
X0177711Y0196989D02*
X0180013Y0196989D01*
X0179342Y0188745D02*
X0178191Y0188745D01*
X0177808Y0188361D01*
X0177808Y0186826D01*
X0178191Y0186443D01*
X0179342Y0186443D01*
X0179342Y0188745D01*
X0177041Y0187977D02*
X0176273Y0188745D01*
X0176273Y0186443D01*
X0175506Y0186443D02*
X0177041Y0186443D01*
X0174739Y0186826D02*
X0174355Y0186443D01*
X0173588Y0186443D01*
X0173204Y0186826D01*
X0173204Y0187594D01*
X0173588Y0187977D01*
X0173971Y0187977D01*
X0174739Y0187594D01*
X0174739Y0188745D01*
X0173204Y0188745D01*
X0167928Y0188766D02*
X0167928Y0186464D01*
X0166777Y0186464D01*
X0166393Y0186848D01*
X0166393Y0188383D01*
X0166777Y0188766D01*
X0167928Y0188766D01*
X0165626Y0188383D02*
X0165242Y0188766D01*
X0164475Y0188766D01*
X0164091Y0188383D01*
X0164091Y0187999D01*
X0164475Y0187615D01*
X0164091Y0187232D01*
X0164091Y0186848D01*
X0164475Y0186464D01*
X0165242Y0186464D01*
X0165626Y0186848D01*
X0164858Y0187615D02*
X0164475Y0187615D01*
X0163324Y0188383D02*
X0162940Y0188766D01*
X0162173Y0188766D01*
X0161789Y0188383D01*
X0161789Y0187999D01*
X0163324Y0186464D01*
X0161789Y0186464D01*
X0160818Y0180311D02*
X0159667Y0180311D01*
X0159284Y0179927D01*
X0159284Y0179160D01*
X0159667Y0178776D01*
X0160818Y0178776D01*
X0160051Y0178776D02*
X0159284Y0178009D01*
X0158516Y0178392D02*
X0158516Y0178776D01*
X0158133Y0179160D01*
X0157365Y0179160D01*
X0156982Y0178776D01*
X0156982Y0178392D01*
X0157365Y0178009D01*
X0158133Y0178009D01*
X0158516Y0178392D01*
X0158133Y0179160D02*
X0158516Y0179543D01*
X0158516Y0179927D01*
X0158133Y0180311D01*
X0157365Y0180311D01*
X0156982Y0179927D01*
X0156982Y0179543D01*
X0157365Y0179160D01*
X0156214Y0179927D02*
X0155831Y0180311D01*
X0155063Y0180311D01*
X0154680Y0179927D01*
X0154680Y0179543D01*
X0156214Y0178009D01*
X0154680Y0178009D01*
X0155069Y0174645D02*
X0154685Y0174262D01*
X0154685Y0173878D01*
X0155069Y0173494D01*
X0155836Y0173494D01*
X0156220Y0173878D01*
X0156220Y0174262D01*
X0155836Y0174645D01*
X0155069Y0174645D01*
X0155069Y0173494D02*
X0154685Y0173111D01*
X0154685Y0172727D01*
X0155069Y0172343D01*
X0155836Y0172343D01*
X0156220Y0172727D01*
X0156220Y0173111D01*
X0155836Y0173494D01*
X0156987Y0173494D02*
X0158522Y0173494D01*
X0157371Y0174645D01*
X0157371Y0172343D01*
X0159289Y0172727D02*
X0159673Y0172343D01*
X0160440Y0172343D01*
X0160824Y0172727D01*
X0160824Y0174262D01*
X0160440Y0174645D01*
X0159673Y0174645D01*
X0159289Y0174262D01*
X0160818Y0178009D02*
X0160818Y0180311D01*
X0162088Y0195819D02*
X0164390Y0195819D01*
X0164390Y0196970D01*
X0164006Y0197354D01*
X0163239Y0197354D01*
X0162855Y0196970D01*
X0162855Y0195819D01*
X0162855Y0196586D02*
X0162088Y0197354D01*
X0162472Y0198121D02*
X0162088Y0198504D01*
X0162088Y0199272D01*
X0162472Y0199655D01*
X0162855Y0199655D01*
X0163239Y0199272D01*
X0163239Y0198121D01*
X0162472Y0198121D01*
X0163239Y0198121D02*
X0164006Y0198888D01*
X0164390Y0199655D01*
X0163239Y0200423D02*
X0163239Y0201957D01*
X0162088Y0201574D02*
X0164390Y0201574D01*
X0163239Y0200423D01*
X0160028Y0200924D02*
X0160028Y0201692D01*
X0159644Y0202075D01*
X0159261Y0202075D01*
X0158877Y0201692D01*
X0158493Y0202075D01*
X0158110Y0202075D01*
X0157726Y0201692D01*
X0157726Y0200924D01*
X0158110Y0200541D01*
X0157726Y0199773D02*
X0157726Y0198239D01*
X0157726Y0199006D02*
X0160028Y0199006D01*
X0159261Y0198239D01*
X0159644Y0197471D02*
X0158110Y0197471D01*
X0157726Y0197088D01*
X0157726Y0195937D01*
X0160028Y0195937D01*
X0160028Y0197088D01*
X0159644Y0197471D01*
X0159644Y0200541D02*
X0160028Y0200924D01*
X0158877Y0201308D02*
X0158877Y0201692D01*
X0180466Y0180249D02*
X0182000Y0180249D01*
X0182000Y0179098D01*
X0181233Y0179482D01*
X0180849Y0179482D01*
X0180466Y0179098D01*
X0180466Y0178331D01*
X0180849Y0177947D01*
X0181617Y0177947D01*
X0182000Y0178331D01*
X0182768Y0179865D02*
X0184302Y0178331D01*
X0184302Y0177947D01*
X0185070Y0177947D02*
X0185837Y0178714D01*
X0185453Y0178714D02*
X0186604Y0178714D01*
X0186604Y0177947D02*
X0186604Y0180249D01*
X0185453Y0180249D01*
X0185070Y0179865D01*
X0185070Y0179098D01*
X0185453Y0178714D01*
X0184302Y0180249D02*
X0182768Y0180249D01*
X0182768Y0179865D01*
X0183487Y0173372D02*
X0184638Y0172221D01*
X0183104Y0172221D01*
X0182336Y0172605D02*
X0181569Y0173372D01*
X0181569Y0171070D01*
X0182336Y0171070D02*
X0180802Y0171070D01*
X0183487Y0171070D02*
X0183487Y0173372D01*
X0185406Y0172989D02*
X0185789Y0173372D01*
X0186557Y0173372D01*
X0186940Y0172989D01*
X0186940Y0171454D01*
X0186557Y0171070D01*
X0185789Y0171070D01*
X0185406Y0171454D01*
X0185100Y0166147D02*
X0184333Y0166147D01*
X0183949Y0165763D01*
X0183949Y0165379D01*
X0185484Y0163845D01*
X0183949Y0163845D01*
X0183182Y0164228D02*
X0183182Y0164612D01*
X0182798Y0164996D01*
X0182031Y0164996D01*
X0181647Y0164612D01*
X0181647Y0164228D01*
X0182031Y0163845D01*
X0182798Y0163845D01*
X0183182Y0164228D01*
X0182798Y0164996D02*
X0183182Y0165379D01*
X0183182Y0165763D01*
X0182798Y0166147D01*
X0182031Y0166147D01*
X0181647Y0165763D01*
X0181647Y0165379D01*
X0182031Y0164996D01*
X0185100Y0166147D02*
X0185484Y0165763D01*
X0186251Y0165763D02*
X0186251Y0164996D01*
X0186635Y0164612D01*
X0187786Y0164612D01*
X0187786Y0163845D02*
X0187786Y0166147D01*
X0186635Y0166147D01*
X0186251Y0165763D01*
X0187018Y0164612D02*
X0186251Y0163845D01*
X0179999Y0156573D02*
X0178848Y0156573D01*
X0178465Y0156189D01*
X0178465Y0155422D01*
X0178848Y0155038D01*
X0179999Y0155038D01*
X0179232Y0155038D02*
X0178465Y0154271D01*
X0177697Y0154271D02*
X0176163Y0155805D01*
X0176163Y0156189D01*
X0176546Y0156573D01*
X0177314Y0156573D01*
X0177697Y0156189D01*
X0177697Y0154271D02*
X0176163Y0154271D01*
X0175395Y0154654D02*
X0175012Y0154271D01*
X0174244Y0154271D01*
X0173861Y0154654D01*
X0173861Y0156189D01*
X0174244Y0156573D01*
X0175012Y0156573D01*
X0175395Y0156189D01*
X0175395Y0155805D01*
X0175012Y0155422D01*
X0173861Y0155422D01*
X0168596Y0154873D02*
X0167445Y0154873D01*
X0167061Y0155257D01*
X0167061Y0156024D01*
X0167445Y0156408D01*
X0168596Y0156408D01*
X0168596Y0154106D01*
X0167829Y0154873D02*
X0167061Y0154106D01*
X0166294Y0154490D02*
X0165911Y0154106D01*
X0165143Y0154106D01*
X0164760Y0154490D01*
X0164760Y0154873D01*
X0165143Y0155257D01*
X0165527Y0155257D01*
X0165143Y0155257D02*
X0164760Y0155641D01*
X0164760Y0156024D01*
X0165143Y0156408D01*
X0165911Y0156408D01*
X0166294Y0156024D01*
X0163992Y0155641D02*
X0163225Y0156408D01*
X0163225Y0154106D01*
X0163992Y0154106D02*
X0162458Y0154106D01*
X0162530Y0161017D02*
X0162913Y0161401D01*
X0162530Y0161017D02*
X0161762Y0161017D01*
X0161379Y0161401D01*
X0161379Y0161784D01*
X0161762Y0162168D01*
X0162146Y0162168D01*
X0161762Y0162168D02*
X0161379Y0162552D01*
X0161379Y0162935D01*
X0161762Y0163319D01*
X0162530Y0163319D01*
X0162913Y0162935D01*
X0163681Y0162935D02*
X0163681Y0162168D01*
X0164064Y0161784D01*
X0165215Y0161784D01*
X0165215Y0161017D02*
X0165215Y0163319D01*
X0164064Y0163319D01*
X0163681Y0162935D01*
X0164448Y0161784D02*
X0163681Y0161017D01*
X0160611Y0161401D02*
X0159077Y0162935D01*
X0159077Y0161401D01*
X0159460Y0161017D01*
X0160228Y0161017D01*
X0160611Y0161401D01*
X0160611Y0162935D01*
X0160228Y0163319D01*
X0159460Y0163319D01*
X0159077Y0162935D01*
X0179999Y0156573D02*
X0179999Y0154271D01*
X0180815Y0144329D02*
X0180431Y0143945D01*
X0180431Y0143562D01*
X0180815Y0143178D01*
X0181582Y0143178D01*
X0181966Y0143562D01*
X0181966Y0143945D01*
X0181582Y0144329D01*
X0180815Y0144329D01*
X0180815Y0143178D02*
X0180431Y0142794D01*
X0180431Y0142411D01*
X0180815Y0142027D01*
X0181582Y0142027D01*
X0181966Y0142411D01*
X0181966Y0142794D01*
X0181582Y0143178D01*
X0182733Y0142027D02*
X0184268Y0142027D01*
X0183500Y0142027D02*
X0183500Y0144329D01*
X0184268Y0143562D01*
X0185035Y0143945D02*
X0185419Y0144329D01*
X0186570Y0144329D01*
X0186570Y0142027D01*
X0185419Y0142027D01*
X0185035Y0142411D01*
X0185035Y0143945D01*
X0180038Y0134217D02*
X0178887Y0134217D01*
X0178503Y0133833D01*
X0178503Y0133066D01*
X0178887Y0132682D01*
X0180038Y0132682D01*
X0180038Y0131915D02*
X0180038Y0134217D01*
X0179271Y0132682D02*
X0178503Y0131915D01*
X0177736Y0131915D02*
X0177736Y0132298D01*
X0176202Y0133833D01*
X0176202Y0134217D01*
X0177736Y0134217D01*
X0175434Y0133066D02*
X0174283Y0133066D01*
X0173900Y0132682D01*
X0173900Y0132298D01*
X0174283Y0131915D01*
X0175051Y0131915D01*
X0175434Y0132298D01*
X0175434Y0133066D01*
X0174667Y0133833D01*
X0173900Y0134217D01*
X0174190Y0130745D02*
X0174957Y0130745D01*
X0175341Y0130361D01*
X0176108Y0129594D02*
X0177642Y0129594D01*
X0176491Y0130745D01*
X0176491Y0128443D01*
X0175341Y0128443D02*
X0173806Y0129978D01*
X0173806Y0130361D01*
X0174190Y0130745D01*
X0173806Y0128443D02*
X0175341Y0128443D01*
X0178410Y0128827D02*
X0178793Y0128443D01*
X0179561Y0128443D01*
X0179944Y0128827D01*
X0179944Y0130361D01*
X0179561Y0130745D01*
X0178793Y0130745D01*
X0178410Y0130361D01*
X0178262Y0124028D02*
X0177495Y0124028D01*
X0177111Y0123644D01*
X0177111Y0123260D01*
X0177495Y0122877D01*
X0177111Y0122493D01*
X0177111Y0122109D01*
X0177495Y0121726D01*
X0178262Y0121726D01*
X0178646Y0122109D01*
X0179413Y0121726D02*
X0180180Y0122493D01*
X0179797Y0122493D02*
X0180948Y0122493D01*
X0180948Y0121726D02*
X0180948Y0124028D01*
X0179797Y0124028D01*
X0179413Y0123644D01*
X0179413Y0122877D01*
X0179797Y0122493D01*
X0178646Y0123644D02*
X0178262Y0124028D01*
X0177878Y0122877D02*
X0177495Y0122877D01*
X0176344Y0122877D02*
X0176344Y0122109D01*
X0175960Y0121726D01*
X0175193Y0121726D01*
X0174809Y0122109D01*
X0174809Y0122493D01*
X0175193Y0122877D01*
X0176344Y0122877D01*
X0175576Y0123644D01*
X0174809Y0124028D01*
X0175304Y0120199D02*
X0173770Y0120199D01*
X0173770Y0119816D01*
X0175304Y0118281D01*
X0175304Y0117897D01*
X0176072Y0118281D02*
X0176455Y0117897D01*
X0177223Y0117897D01*
X0177606Y0118281D01*
X0178373Y0117897D02*
X0179141Y0118665D01*
X0178757Y0118665D02*
X0179908Y0118665D01*
X0179908Y0117897D02*
X0179908Y0120199D01*
X0178757Y0120199D01*
X0178373Y0119816D01*
X0178373Y0119048D01*
X0178757Y0118665D01*
X0177606Y0119816D02*
X0177223Y0120199D01*
X0176455Y0120199D01*
X0176072Y0119816D01*
X0176072Y0119432D01*
X0176455Y0119048D01*
X0176072Y0118665D01*
X0176072Y0118281D01*
X0176455Y0119048D02*
X0176839Y0119048D01*
X0177182Y0109917D02*
X0176031Y0109917D01*
X0175648Y0109533D01*
X0175648Y0107999D01*
X0176031Y0107615D01*
X0177182Y0107615D01*
X0177182Y0109917D01*
X0174880Y0109533D02*
X0174497Y0109917D01*
X0173730Y0109917D01*
X0173346Y0109533D01*
X0173346Y0109150D01*
X0174880Y0107615D01*
X0173346Y0107615D01*
X0172579Y0107615D02*
X0171044Y0109150D01*
X0171044Y0109533D01*
X0171428Y0109917D01*
X0172195Y0109917D01*
X0172579Y0109533D01*
X0172579Y0107615D02*
X0171044Y0107615D01*
X0168715Y0107222D02*
X0168715Y0109524D01*
X0167564Y0109524D01*
X0167180Y0109140D01*
X0167180Y0107606D01*
X0167564Y0107222D01*
X0168715Y0107222D01*
X0166413Y0107222D02*
X0164878Y0107222D01*
X0165645Y0107222D02*
X0165645Y0109524D01*
X0166413Y0108757D01*
X0164111Y0108757D02*
X0163727Y0108373D01*
X0162576Y0108373D01*
X0162576Y0109140D02*
X0162960Y0109524D01*
X0163727Y0109524D01*
X0164111Y0109140D01*
X0164111Y0108757D01*
X0164111Y0107606D02*
X0163727Y0107222D01*
X0162960Y0107222D01*
X0162576Y0107606D01*
X0162576Y0109140D01*
X0161849Y0109536D02*
X0161849Y0107234D01*
X0160698Y0107234D01*
X0160314Y0107618D01*
X0160314Y0109153D01*
X0160698Y0109536D01*
X0161849Y0109536D01*
X0159547Y0109153D02*
X0159163Y0109536D01*
X0158396Y0109536D01*
X0158012Y0109153D01*
X0158012Y0108769D01*
X0159547Y0107234D01*
X0158012Y0107234D01*
X0157245Y0107618D02*
X0155710Y0109153D01*
X0155710Y0107618D01*
X0156094Y0107234D01*
X0156861Y0107234D01*
X0157245Y0107618D01*
X0157245Y0109153D01*
X0156861Y0109536D01*
X0156094Y0109536D01*
X0155710Y0109153D01*
X0158821Y0105169D02*
X0158438Y0104785D01*
X0158438Y0104018D01*
X0158821Y0103634D01*
X0160356Y0105169D01*
X0158821Y0105169D01*
X0158821Y0103634D02*
X0160356Y0103634D01*
X0160740Y0104018D01*
X0160740Y0104785D01*
X0160356Y0105169D01*
X0159589Y0102867D02*
X0159589Y0101332D01*
X0160740Y0102483D01*
X0158438Y0102483D01*
X0158438Y0100565D02*
X0159205Y0099798D01*
X0159205Y0100181D02*
X0159205Y0099030D01*
X0158896Y0099234D02*
X0158513Y0098851D01*
X0158513Y0098083D01*
X0158896Y0097700D01*
X0159663Y0097700D02*
X0160047Y0098467D01*
X0160047Y0098851D01*
X0159663Y0099234D01*
X0158896Y0099234D01*
X0158438Y0099030D02*
X0160740Y0099030D01*
X0160740Y0100181D01*
X0160356Y0100565D01*
X0159589Y0100565D01*
X0159205Y0100181D01*
X0160814Y0099234D02*
X0160814Y0097700D01*
X0159663Y0097700D01*
X0159280Y0096932D02*
X0158896Y0096932D01*
X0158513Y0096549D01*
X0158513Y0095781D01*
X0158896Y0095398D01*
X0158896Y0094630D02*
X0158513Y0094247D01*
X0158513Y0093479D01*
X0158896Y0093096D01*
X0160431Y0093096D01*
X0160814Y0093479D01*
X0160814Y0094247D01*
X0160431Y0094630D01*
X0160431Y0095398D02*
X0160814Y0095781D01*
X0160814Y0096549D01*
X0160431Y0096932D01*
X0160047Y0096932D01*
X0159663Y0096549D01*
X0159280Y0096932D01*
X0159663Y0096549D02*
X0159663Y0096165D01*
X0159708Y0093217D02*
X0158940Y0093217D01*
X0158557Y0092834D01*
X0158557Y0092066D01*
X0158940Y0091683D01*
X0159708Y0091683D02*
X0160091Y0092450D01*
X0160091Y0092834D01*
X0159708Y0093217D01*
X0160859Y0093217D02*
X0160859Y0091683D01*
X0159708Y0091683D01*
X0159708Y0090915D02*
X0159708Y0089381D01*
X0160859Y0090532D01*
X0158557Y0090532D01*
X0158557Y0088613D02*
X0159324Y0087846D01*
X0159324Y0088230D02*
X0159324Y0087079D01*
X0158557Y0087079D02*
X0160859Y0087079D01*
X0160859Y0088230D01*
X0160475Y0088613D01*
X0159708Y0088613D01*
X0159324Y0088230D01*
X0165221Y0083070D02*
X0166372Y0081919D01*
X0164838Y0081919D01*
X0165221Y0080768D02*
X0165221Y0083070D01*
X0167140Y0081919D02*
X0168674Y0081919D01*
X0167523Y0083070D01*
X0167523Y0080768D01*
X0169442Y0080768D02*
X0170209Y0081535D01*
X0169825Y0081535D02*
X0170976Y0081535D01*
X0170976Y0080768D02*
X0170976Y0083070D01*
X0169825Y0083070D01*
X0169442Y0082686D01*
X0169442Y0081919D01*
X0169825Y0081535D01*
X0169572Y0084832D02*
X0169572Y0085983D01*
X0169956Y0086367D01*
X0170723Y0086367D01*
X0171107Y0085983D01*
X0171107Y0084832D01*
X0168805Y0084832D01*
X0169572Y0085599D02*
X0168805Y0086367D01*
X0169956Y0087134D02*
X0169956Y0088669D01*
X0169189Y0089436D02*
X0168805Y0089820D01*
X0168805Y0090587D01*
X0169189Y0090971D01*
X0169572Y0090971D01*
X0169956Y0090587D01*
X0169956Y0090203D01*
X0169956Y0090587D02*
X0170340Y0090971D01*
X0170723Y0090971D01*
X0171107Y0090587D01*
X0171107Y0089820D01*
X0170723Y0089436D01*
X0171107Y0088285D02*
X0169956Y0087134D01*
X0168805Y0088285D02*
X0171107Y0088285D01*
X0170701Y0091745D02*
X0169167Y0091745D01*
X0168783Y0092128D01*
X0168783Y0092896D01*
X0169167Y0093279D01*
X0169167Y0094047D02*
X0168783Y0094430D01*
X0168783Y0095198D01*
X0169167Y0095581D01*
X0169550Y0095581D01*
X0169934Y0095198D01*
X0169934Y0094814D01*
X0169934Y0095198D02*
X0170318Y0095581D01*
X0170701Y0095581D01*
X0171085Y0095198D01*
X0171085Y0094430D01*
X0170701Y0094047D01*
X0170701Y0093279D02*
X0171085Y0092896D01*
X0171085Y0092128D01*
X0170701Y0091745D01*
X0170701Y0096349D02*
X0171085Y0096732D01*
X0171085Y0097499D01*
X0170701Y0097883D01*
X0170318Y0097883D01*
X0168783Y0096349D01*
X0168783Y0097883D01*
X0168862Y0097791D02*
X0171164Y0097791D01*
X0171164Y0098942D01*
X0170780Y0099326D01*
X0170013Y0099326D01*
X0169629Y0098942D01*
X0169629Y0097791D01*
X0169629Y0098558D02*
X0168862Y0099326D01*
X0169246Y0100093D02*
X0168862Y0100477D01*
X0168862Y0101244D01*
X0169246Y0101628D01*
X0169629Y0101628D01*
X0170013Y0101244D01*
X0170013Y0100093D01*
X0169246Y0100093D01*
X0170013Y0100093D02*
X0170780Y0100860D01*
X0171164Y0101628D01*
X0170013Y0102395D02*
X0170013Y0103546D01*
X0169629Y0103930D01*
X0169246Y0103930D01*
X0168862Y0103546D01*
X0168862Y0102779D01*
X0169246Y0102395D01*
X0170013Y0102395D01*
X0170780Y0103162D01*
X0171164Y0103930D01*
X0179001Y0103376D02*
X0179001Y0102608D01*
X0179385Y0102225D01*
X0179769Y0102225D01*
X0180152Y0102608D01*
X0180152Y0103376D01*
X0179769Y0103759D01*
X0179385Y0103759D01*
X0179001Y0103376D01*
X0180152Y0103376D02*
X0180536Y0103759D01*
X0180920Y0103759D01*
X0181303Y0103376D01*
X0181303Y0102608D01*
X0180920Y0102225D01*
X0180536Y0102225D01*
X0180152Y0102608D01*
X0179769Y0101457D02*
X0179385Y0101457D01*
X0179001Y0101074D01*
X0179001Y0100306D01*
X0179385Y0099923D01*
X0180152Y0099923D01*
X0180152Y0101074D01*
X0179769Y0101457D01*
X0180920Y0100690D02*
X0180152Y0099923D01*
X0180152Y0099155D02*
X0179769Y0098772D01*
X0179769Y0097621D01*
X0179769Y0098388D02*
X0179001Y0099155D01*
X0180152Y0099155D02*
X0180920Y0099155D01*
X0181303Y0098772D01*
X0181303Y0097621D01*
X0179001Y0097621D01*
X0179394Y0096671D02*
X0179010Y0096288D01*
X0179010Y0095520D01*
X0179394Y0095137D01*
X0179777Y0095137D01*
X0180161Y0095520D01*
X0180161Y0096288D01*
X0179777Y0096671D01*
X0179394Y0096671D01*
X0180161Y0096288D02*
X0180544Y0096671D01*
X0180928Y0096671D01*
X0181312Y0096288D01*
X0181312Y0095520D01*
X0180928Y0095137D01*
X0180544Y0095137D01*
X0180161Y0095520D01*
X0180928Y0094370D02*
X0181312Y0093986D01*
X0181312Y0093219D01*
X0180928Y0092835D01*
X0179394Y0092835D01*
X0179010Y0093219D01*
X0179010Y0093986D01*
X0179394Y0094370D01*
X0179098Y0093017D02*
X0179098Y0091483D01*
X0179098Y0092250D02*
X0181400Y0092250D01*
X0180632Y0091483D01*
X0180249Y0090715D02*
X0179481Y0090715D01*
X0179098Y0090332D01*
X0179098Y0089564D01*
X0179481Y0089181D01*
X0180249Y0089181D02*
X0180632Y0089948D01*
X0180632Y0090332D01*
X0180249Y0090715D01*
X0181400Y0090715D02*
X0181400Y0089181D01*
X0180249Y0089181D01*
X0180249Y0088413D02*
X0179865Y0088030D01*
X0179865Y0086879D01*
X0179865Y0087646D02*
X0179098Y0088413D01*
X0180249Y0088413D02*
X0181016Y0088413D01*
X0181400Y0088030D01*
X0181400Y0086879D01*
X0179098Y0086879D01*
X0179358Y0082649D02*
X0178207Y0082649D01*
X0177823Y0082265D01*
X0177823Y0081498D01*
X0178207Y0081114D01*
X0179358Y0081114D01*
X0179358Y0080347D02*
X0179358Y0082649D01*
X0180478Y0082719D02*
X0181629Y0081568D01*
X0180094Y0081568D01*
X0180478Y0080417D02*
X0180478Y0082719D01*
X0182396Y0082719D02*
X0183931Y0082719D01*
X0183931Y0081568D01*
X0183163Y0081952D01*
X0182780Y0081952D01*
X0182396Y0081568D01*
X0182396Y0080801D01*
X0182780Y0080417D01*
X0183547Y0080417D01*
X0183931Y0080801D01*
X0184698Y0080417D02*
X0185465Y0081184D01*
X0185082Y0081184D02*
X0186233Y0081184D01*
X0186233Y0080417D02*
X0186233Y0082719D01*
X0185082Y0082719D01*
X0184698Y0082335D01*
X0184698Y0081568D01*
X0185082Y0081184D01*
X0189330Y0086362D02*
X0191632Y0086362D01*
X0191632Y0087513D01*
X0191249Y0087897D01*
X0190481Y0087897D01*
X0190098Y0087513D01*
X0190098Y0086362D01*
X0190098Y0087129D02*
X0189330Y0087897D01*
X0189714Y0088664D02*
X0189330Y0089048D01*
X0189330Y0089815D01*
X0189714Y0090199D01*
X0190481Y0090199D01*
X0190865Y0089815D01*
X0190865Y0089431D01*
X0190481Y0088664D01*
X0191632Y0088664D01*
X0191632Y0090199D01*
X0191249Y0090966D02*
X0191632Y0091350D01*
X0191632Y0092117D01*
X0191249Y0092501D01*
X0190865Y0092501D01*
X0190481Y0092117D01*
X0190098Y0092501D01*
X0189714Y0092501D01*
X0189330Y0092117D01*
X0189330Y0091350D01*
X0189714Y0090966D01*
X0190481Y0091733D02*
X0190481Y0092117D01*
X0189749Y0092163D02*
X0191283Y0092163D01*
X0191667Y0092547D01*
X0191667Y0093314D01*
X0191283Y0093698D01*
X0191283Y0094465D02*
X0191667Y0094849D01*
X0191667Y0095616D01*
X0191283Y0096000D01*
X0190900Y0096000D01*
X0190516Y0095616D01*
X0190132Y0096000D01*
X0189749Y0096000D01*
X0189365Y0095616D01*
X0189365Y0094849D01*
X0189749Y0094465D01*
X0189749Y0093698D02*
X0189365Y0093314D01*
X0189365Y0092547D01*
X0189749Y0092163D01*
X0190516Y0095233D02*
X0190516Y0095616D01*
X0189749Y0096767D02*
X0189365Y0097151D01*
X0189365Y0097918D01*
X0189749Y0098302D01*
X0190132Y0098302D01*
X0190516Y0097918D01*
X0190516Y0097535D01*
X0190516Y0097918D02*
X0190900Y0098302D01*
X0191283Y0098302D01*
X0191667Y0097918D01*
X0191667Y0097151D01*
X0191283Y0096767D01*
X0191686Y0098079D02*
X0191686Y0099230D01*
X0191302Y0099614D01*
X0190535Y0099614D01*
X0190151Y0099230D01*
X0190151Y0098079D01*
X0189384Y0098079D02*
X0191686Y0098079D01*
X0190151Y0098846D02*
X0189384Y0099614D01*
X0189768Y0100381D02*
X0189384Y0100765D01*
X0189384Y0101532D01*
X0189768Y0101916D01*
X0190151Y0101916D01*
X0190535Y0101532D01*
X0190535Y0100381D01*
X0189768Y0100381D01*
X0190535Y0100381D02*
X0191302Y0101148D01*
X0191686Y0101916D01*
X0191302Y0102683D02*
X0190919Y0102683D01*
X0190535Y0103067D01*
X0190535Y0104218D01*
X0189768Y0104218D02*
X0191302Y0104218D01*
X0191686Y0103834D01*
X0191686Y0103067D01*
X0191302Y0102683D01*
X0189768Y0102683D02*
X0189384Y0103067D01*
X0189384Y0103834D01*
X0189768Y0104218D01*
X0187667Y0107687D02*
X0186516Y0107687D01*
X0186132Y0108071D01*
X0186132Y0109605D01*
X0186516Y0109989D01*
X0187667Y0109989D01*
X0187667Y0107687D01*
X0185365Y0107687D02*
X0183830Y0109222D01*
X0183830Y0109605D01*
X0184214Y0109989D01*
X0184981Y0109989D01*
X0185365Y0109605D01*
X0185365Y0107687D02*
X0183830Y0107687D01*
X0183063Y0108071D02*
X0182679Y0107687D01*
X0181912Y0107687D01*
X0181528Y0108071D01*
X0181528Y0108454D01*
X0181912Y0108838D01*
X0182295Y0108838D01*
X0181912Y0108838D02*
X0181528Y0109222D01*
X0181528Y0109605D01*
X0181912Y0109989D01*
X0182679Y0109989D01*
X0183063Y0109605D01*
X0181303Y0101457D02*
X0180920Y0100690D01*
X0196202Y0115147D02*
X0196586Y0114764D01*
X0197353Y0114764D01*
X0197737Y0115147D01*
X0198504Y0115147D02*
X0198888Y0114764D01*
X0199655Y0114764D01*
X0200038Y0115147D01*
X0200806Y0114764D02*
X0201573Y0115531D01*
X0201189Y0115531D02*
X0202340Y0115531D01*
X0202340Y0114764D02*
X0202340Y0117066D01*
X0201189Y0117066D01*
X0200806Y0116682D01*
X0200806Y0115915D01*
X0201189Y0115531D01*
X0200038Y0116682D02*
X0199655Y0117066D01*
X0198888Y0117066D01*
X0198504Y0116682D01*
X0198504Y0116298D01*
X0198888Y0115915D01*
X0198504Y0115531D01*
X0198504Y0115147D01*
X0198888Y0115915D02*
X0199271Y0115915D01*
X0197737Y0115915D02*
X0196969Y0116298D01*
X0196586Y0116298D01*
X0196202Y0115915D01*
X0196202Y0115147D01*
X0197737Y0115915D02*
X0197737Y0117066D01*
X0196202Y0117066D01*
X0199527Y0112384D02*
X0201829Y0112384D01*
X0200678Y0111233D01*
X0200678Y0112768D01*
X0201062Y0110466D02*
X0201446Y0110466D01*
X0201829Y0110082D01*
X0201829Y0109315D01*
X0201446Y0108931D01*
X0201446Y0108164D02*
X0201829Y0107780D01*
X0201829Y0106630D01*
X0199527Y0106630D01*
X0199527Y0107780D01*
X0199911Y0108164D01*
X0201446Y0108164D01*
X0199527Y0108931D02*
X0201062Y0110466D01*
X0199527Y0110466D02*
X0199527Y0108931D01*
X0201381Y0105909D02*
X0199847Y0104374D01*
X0199463Y0104374D01*
X0201381Y0103607D02*
X0199847Y0102072D01*
X0199463Y0102072D01*
X0199463Y0101305D02*
X0200230Y0100538D01*
X0200230Y0100921D02*
X0200230Y0099770D01*
X0200278Y0099399D02*
X0199895Y0099399D01*
X0199511Y0099015D01*
X0199511Y0098248D01*
X0199895Y0097864D01*
X0200662Y0098631D02*
X0200662Y0099015D01*
X0200278Y0099399D01*
X0200662Y0099015D02*
X0201046Y0099399D01*
X0201429Y0099399D01*
X0201813Y0099015D01*
X0201813Y0098248D01*
X0201429Y0097864D01*
X0200662Y0097097D02*
X0200662Y0095562D01*
X0201813Y0096713D01*
X0199511Y0096713D01*
X0199895Y0094795D02*
X0199511Y0094411D01*
X0199511Y0093644D01*
X0199895Y0093260D01*
X0201429Y0093260D01*
X0201813Y0093644D01*
X0201813Y0094411D01*
X0201429Y0094795D01*
X0201783Y0093178D02*
X0201783Y0091644D01*
X0200632Y0091644D01*
X0201015Y0092411D01*
X0201015Y0092795D01*
X0200632Y0093178D01*
X0199864Y0093178D01*
X0199481Y0092795D01*
X0199481Y0092027D01*
X0199864Y0091644D01*
X0199864Y0090876D02*
X0199481Y0090493D01*
X0199481Y0089725D01*
X0199864Y0089342D01*
X0200632Y0089342D02*
X0201015Y0090109D01*
X0201015Y0090493D01*
X0200632Y0090876D01*
X0199864Y0090876D01*
X0200632Y0089342D02*
X0201783Y0089342D01*
X0201783Y0090876D01*
X0201399Y0088575D02*
X0200632Y0088575D01*
X0200248Y0088191D01*
X0200248Y0087040D01*
X0200248Y0087807D02*
X0199481Y0088575D01*
X0199481Y0087040D02*
X0201783Y0087040D01*
X0201783Y0088191D01*
X0201399Y0088575D01*
X0198456Y0082500D02*
X0197305Y0082500D01*
X0196921Y0082117D01*
X0196921Y0081349D01*
X0197305Y0080966D01*
X0198456Y0080966D01*
X0197688Y0080966D02*
X0196921Y0080198D01*
X0196154Y0080582D02*
X0195770Y0080198D01*
X0195003Y0080198D01*
X0194619Y0080582D01*
X0194619Y0081349D01*
X0195003Y0081733D01*
X0195387Y0081733D01*
X0196154Y0081349D01*
X0196154Y0082500D01*
X0194619Y0082500D01*
X0193852Y0081349D02*
X0192701Y0081349D01*
X0192317Y0080966D01*
X0192317Y0080582D01*
X0192701Y0080198D01*
X0193468Y0080198D01*
X0193852Y0080582D01*
X0193852Y0081349D01*
X0193085Y0082117D01*
X0192317Y0082500D01*
X0198456Y0082500D02*
X0198456Y0080198D01*
X0210354Y0084349D02*
X0210738Y0083965D01*
X0211505Y0083965D01*
X0211889Y0084349D01*
X0211889Y0084733D01*
X0211505Y0085116D01*
X0210738Y0085116D01*
X0210354Y0084733D01*
X0210354Y0084349D01*
X0210738Y0085116D02*
X0210354Y0085500D01*
X0210354Y0085884D01*
X0210738Y0086267D01*
X0211505Y0086267D01*
X0211889Y0085884D01*
X0211889Y0085500D01*
X0211505Y0085116D01*
X0212656Y0085116D02*
X0213040Y0085500D01*
X0213423Y0085500D01*
X0214191Y0085116D01*
X0214191Y0086267D01*
X0212656Y0086267D01*
X0212656Y0085116D02*
X0212656Y0084349D01*
X0213040Y0083965D01*
X0213807Y0083965D01*
X0214191Y0084349D01*
X0214958Y0083965D02*
X0215725Y0084733D01*
X0215342Y0084733D02*
X0216493Y0084733D01*
X0216493Y0083965D02*
X0216493Y0086267D01*
X0215342Y0086267D01*
X0214958Y0085884D01*
X0214958Y0085116D01*
X0215342Y0084733D01*
X0214829Y0087517D02*
X0214061Y0087517D01*
X0213678Y0087901D01*
X0213678Y0088668D01*
X0214061Y0089052D01*
X0214445Y0089052D01*
X0215212Y0088668D01*
X0215212Y0089819D01*
X0213678Y0089819D01*
X0212910Y0089819D02*
X0211376Y0089819D01*
X0211376Y0089435D01*
X0212910Y0087901D01*
X0212910Y0087517D01*
X0214829Y0087517D02*
X0215212Y0087901D01*
X0215980Y0087517D02*
X0216747Y0088284D01*
X0216363Y0088284D02*
X0217514Y0088284D01*
X0217514Y0087517D02*
X0217514Y0089819D01*
X0216363Y0089819D01*
X0215980Y0089435D01*
X0215980Y0088668D01*
X0216363Y0088284D01*
X0215481Y0093714D02*
X0215481Y0096016D01*
X0216632Y0094865D01*
X0215098Y0094865D01*
X0214330Y0094865D02*
X0212796Y0094865D01*
X0213180Y0093714D02*
X0213180Y0096016D01*
X0214330Y0094865D01*
X0214008Y0098448D02*
X0214392Y0098831D01*
X0214392Y0099215D01*
X0214008Y0099599D01*
X0213241Y0099599D01*
X0212857Y0099215D01*
X0212857Y0098831D01*
X0213241Y0098448D01*
X0214008Y0098448D01*
X0214008Y0099599D02*
X0214392Y0099982D01*
X0214392Y0100366D01*
X0214008Y0100750D01*
X0213241Y0100750D01*
X0212857Y0100366D01*
X0212857Y0099982D01*
X0213241Y0099599D01*
X0215159Y0100366D02*
X0216694Y0098831D01*
X0216694Y0098448D01*
X0217461Y0098448D02*
X0218229Y0099215D01*
X0217845Y0099215D02*
X0218996Y0099215D01*
X0218996Y0098448D02*
X0218996Y0100750D01*
X0217845Y0100750D01*
X0217461Y0100366D01*
X0217461Y0099599D01*
X0217845Y0099215D01*
X0216694Y0100750D02*
X0215159Y0100750D01*
X0215159Y0100366D01*
X0215652Y0103674D02*
X0216419Y0103674D01*
X0216803Y0104057D01*
X0217570Y0104057D02*
X0217570Y0105592D01*
X0217954Y0105976D01*
X0219105Y0105976D01*
X0219105Y0103674D01*
X0217954Y0103674D01*
X0217570Y0104057D01*
X0216036Y0104825D02*
X0215652Y0104825D01*
X0215268Y0104441D01*
X0215268Y0104057D01*
X0215652Y0103674D01*
X0215652Y0104825D02*
X0215268Y0105208D01*
X0215268Y0105592D01*
X0215652Y0105976D01*
X0216419Y0105976D01*
X0216803Y0105592D01*
X0214501Y0105976D02*
X0214501Y0104825D01*
X0213734Y0105208D01*
X0213350Y0105208D01*
X0212967Y0104825D01*
X0212967Y0104057D01*
X0213350Y0103674D01*
X0214118Y0103674D01*
X0214501Y0104057D01*
X0214501Y0105976D02*
X0212967Y0105976D01*
X0217783Y0096016D02*
X0218551Y0096016D01*
X0218934Y0095633D01*
X0218934Y0094098D01*
X0218551Y0093714D01*
X0217783Y0093714D01*
X0217400Y0094098D01*
X0217400Y0095633D02*
X0217783Y0096016D01*
X0201765Y0099770D02*
X0201765Y0100921D01*
X0201381Y0101305D01*
X0200614Y0101305D01*
X0200230Y0100921D01*
X0199463Y0099770D02*
X0201765Y0099770D01*
X0201765Y0102072D02*
X0201765Y0103607D01*
X0201381Y0103607D01*
X0201765Y0104374D02*
X0201765Y0105909D01*
X0201381Y0105909D01*
X0216052Y0118728D02*
X0216436Y0118344D01*
X0217203Y0118344D01*
X0217587Y0118728D01*
X0218354Y0118728D02*
X0218738Y0118344D01*
X0219505Y0118344D01*
X0219888Y0118728D01*
X0220656Y0118344D02*
X0221423Y0119111D01*
X0221039Y0119111D02*
X0222190Y0119111D01*
X0222190Y0118344D02*
X0222190Y0120646D01*
X0221039Y0120646D01*
X0220656Y0120262D01*
X0220656Y0119495D01*
X0221039Y0119111D01*
X0219888Y0120262D02*
X0219505Y0120646D01*
X0218738Y0120646D01*
X0218354Y0120262D01*
X0218354Y0119878D01*
X0218738Y0119495D01*
X0218354Y0119111D01*
X0218354Y0118728D01*
X0218738Y0119495D02*
X0219121Y0119495D01*
X0217587Y0120262D02*
X0217203Y0120646D01*
X0216436Y0120646D01*
X0216052Y0120262D01*
X0216052Y0119878D01*
X0216436Y0119495D01*
X0216052Y0119111D01*
X0216052Y0118728D01*
X0216436Y0119495D02*
X0216819Y0119495D01*
X0217352Y0123243D02*
X0218887Y0123243D01*
X0217352Y0124777D01*
X0217352Y0125161D01*
X0217736Y0125545D01*
X0218503Y0125545D01*
X0218887Y0125161D01*
X0219654Y0125161D02*
X0219654Y0124777D01*
X0220038Y0124394D01*
X0219654Y0124010D01*
X0219654Y0123626D01*
X0220038Y0123243D01*
X0220805Y0123243D01*
X0221189Y0123626D01*
X0221956Y0123243D02*
X0222724Y0124010D01*
X0222340Y0124010D02*
X0223491Y0124010D01*
X0223491Y0123243D02*
X0223491Y0125545D01*
X0222340Y0125545D01*
X0221956Y0125161D01*
X0221956Y0124394D01*
X0222340Y0124010D01*
X0221189Y0125161D02*
X0220805Y0125545D01*
X0220038Y0125545D01*
X0219654Y0125161D01*
X0220038Y0124394D02*
X0220422Y0124394D01*
X0221010Y0128604D02*
X0220626Y0128988D01*
X0221010Y0128604D02*
X0221777Y0128604D01*
X0222160Y0128988D01*
X0222160Y0130523D01*
X0221777Y0130906D01*
X0221010Y0130906D01*
X0220626Y0130523D01*
X0219859Y0130523D02*
X0219475Y0130906D01*
X0218708Y0130906D01*
X0218324Y0130523D01*
X0218324Y0130139D01*
X0218708Y0129755D01*
X0218324Y0129372D01*
X0218324Y0128988D01*
X0218708Y0128604D01*
X0219475Y0128604D01*
X0219859Y0128988D01*
X0219091Y0129755D02*
X0218708Y0129755D01*
X0217557Y0130139D02*
X0216789Y0130906D01*
X0216789Y0128604D01*
X0216022Y0128604D02*
X0217557Y0128604D01*
X0217593Y0133087D02*
X0216826Y0133087D01*
X0216442Y0133471D01*
X0216442Y0134238D01*
X0216826Y0134622D01*
X0217209Y0134622D01*
X0217977Y0134238D01*
X0217977Y0135389D01*
X0216442Y0135389D01*
X0217050Y0137542D02*
X0216666Y0137926D01*
X0216666Y0138309D01*
X0217050Y0138693D01*
X0218201Y0138693D01*
X0218201Y0137926D01*
X0217817Y0137542D01*
X0217050Y0137542D01*
X0218201Y0138693D02*
X0217433Y0139460D01*
X0216666Y0139844D01*
X0219735Y0139844D02*
X0219735Y0137542D01*
X0218968Y0137542D02*
X0220503Y0137542D01*
X0221270Y0137926D02*
X0221270Y0139460D01*
X0221654Y0139844D01*
X0222805Y0139844D01*
X0222805Y0137542D01*
X0221654Y0137542D01*
X0221270Y0137926D01*
X0220503Y0139077D02*
X0219735Y0139844D01*
X0218744Y0135389D02*
X0219511Y0135005D01*
X0220279Y0134238D01*
X0219128Y0134238D01*
X0218744Y0133854D01*
X0218744Y0133471D01*
X0219128Y0133087D01*
X0219895Y0133087D01*
X0220279Y0133471D01*
X0220279Y0134238D01*
X0221046Y0134238D02*
X0221430Y0133854D01*
X0222581Y0133854D01*
X0222581Y0133087D02*
X0222581Y0135389D01*
X0221430Y0135389D01*
X0221046Y0135005D01*
X0221046Y0134238D01*
X0221813Y0133854D02*
X0221046Y0133087D01*
X0217977Y0133471D02*
X0217593Y0133087D01*
X0208973Y0132957D02*
X0208973Y0135259D01*
X0207822Y0135259D01*
X0207438Y0134876D01*
X0207438Y0134108D01*
X0207822Y0133725D01*
X0208973Y0133725D01*
X0208205Y0133725D02*
X0207438Y0132957D01*
X0206671Y0132957D02*
X0206671Y0133341D01*
X0205136Y0134876D01*
X0205136Y0135259D01*
X0206671Y0135259D01*
X0204369Y0134876D02*
X0204369Y0133341D01*
X0202834Y0134876D01*
X0202834Y0133341D01*
X0203218Y0132957D01*
X0203985Y0132957D01*
X0204369Y0133341D01*
X0204369Y0134876D02*
X0203985Y0135259D01*
X0203218Y0135259D01*
X0202834Y0134876D01*
X0204135Y0137753D02*
X0204135Y0138137D01*
X0202600Y0139671D01*
X0202600Y0140055D01*
X0204135Y0140055D01*
X0205670Y0140055D02*
X0205670Y0137753D01*
X0206437Y0137753D02*
X0204902Y0137753D01*
X0206437Y0139288D02*
X0205670Y0140055D01*
X0207204Y0139671D02*
X0207204Y0138137D01*
X0207588Y0137753D01*
X0208739Y0137753D01*
X0208739Y0140055D01*
X0207588Y0140055D01*
X0207204Y0139671D01*
X0207776Y0130647D02*
X0208543Y0130647D01*
X0208927Y0130263D01*
X0208927Y0128729D01*
X0208543Y0128345D01*
X0207776Y0128345D01*
X0207392Y0128729D01*
X0206625Y0128729D02*
X0206241Y0128345D01*
X0205474Y0128345D01*
X0205090Y0128729D01*
X0205090Y0129112D01*
X0205474Y0129496D01*
X0205857Y0129496D01*
X0205474Y0129496D02*
X0205090Y0129880D01*
X0205090Y0130263D01*
X0205474Y0130647D01*
X0206241Y0130647D01*
X0206625Y0130263D01*
X0207392Y0130263D02*
X0207776Y0130647D01*
X0204323Y0129496D02*
X0203172Y0129496D01*
X0202788Y0129112D01*
X0202788Y0128729D01*
X0203172Y0128345D01*
X0203939Y0128345D01*
X0204323Y0128729D01*
X0204323Y0129496D01*
X0203555Y0130263D01*
X0202788Y0130647D01*
X0193903Y0127253D02*
X0193903Y0124951D01*
X0193903Y0125718D02*
X0192752Y0125718D01*
X0192368Y0126102D01*
X0192368Y0126869D01*
X0192752Y0127253D01*
X0193903Y0127253D01*
X0193135Y0125718D02*
X0192368Y0124951D01*
X0191601Y0125334D02*
X0191217Y0124951D01*
X0190450Y0124951D01*
X0190066Y0125334D01*
X0190066Y0125718D01*
X0190450Y0126102D01*
X0190833Y0126102D01*
X0190450Y0126102D02*
X0190066Y0126485D01*
X0190066Y0126869D01*
X0190450Y0127253D01*
X0191217Y0127253D01*
X0191601Y0126869D01*
X0189299Y0126102D02*
X0187764Y0126102D01*
X0188148Y0127253D02*
X0189299Y0126102D01*
X0188148Y0124951D02*
X0188148Y0127253D01*
X0166474Y0125606D02*
X0166474Y0123304D01*
X0166474Y0124071D02*
X0165323Y0124071D01*
X0164939Y0124455D01*
X0164939Y0125222D01*
X0165323Y0125606D01*
X0166474Y0125606D01*
X0165707Y0124071D02*
X0164939Y0123304D01*
X0164172Y0123688D02*
X0163788Y0123304D01*
X0163021Y0123304D01*
X0162637Y0123688D01*
X0162637Y0124071D01*
X0163021Y0124455D01*
X0163405Y0124455D01*
X0163021Y0124455D02*
X0162637Y0124838D01*
X0162637Y0125222D01*
X0163021Y0125606D01*
X0163788Y0125606D01*
X0164172Y0125222D01*
X0161870Y0125222D02*
X0161486Y0125606D01*
X0160719Y0125606D01*
X0160335Y0125222D01*
X0160335Y0124838D01*
X0160719Y0124455D01*
X0161486Y0124455D01*
X0161870Y0124838D01*
X0161870Y0125222D01*
X0161486Y0124455D02*
X0161870Y0124071D01*
X0161870Y0123688D01*
X0161486Y0123304D01*
X0160719Y0123304D01*
X0160335Y0123688D01*
X0160335Y0124071D01*
X0160719Y0124455D01*
X0160318Y0121068D02*
X0160702Y0120684D01*
X0160702Y0120301D01*
X0160318Y0119917D01*
X0159167Y0119917D01*
X0159167Y0119150D02*
X0159167Y0120684D01*
X0159551Y0121068D01*
X0160318Y0121068D01*
X0161469Y0120684D02*
X0161469Y0120301D01*
X0161853Y0119917D01*
X0161469Y0119533D01*
X0161469Y0119150D01*
X0161853Y0118766D01*
X0162620Y0118766D01*
X0163004Y0119150D01*
X0163771Y0118766D02*
X0164538Y0119533D01*
X0164155Y0119533D02*
X0165306Y0119533D01*
X0165306Y0118766D02*
X0165306Y0121068D01*
X0164155Y0121068D01*
X0163771Y0120684D01*
X0163771Y0119917D01*
X0164155Y0119533D01*
X0163004Y0120684D02*
X0162620Y0121068D01*
X0161853Y0121068D01*
X0161469Y0120684D01*
X0161853Y0119917D02*
X0162236Y0119917D01*
X0160702Y0119150D02*
X0160318Y0118766D01*
X0159551Y0118766D01*
X0159167Y0119150D01*
X0160765Y0130170D02*
X0160765Y0130554D01*
X0159231Y0132088D01*
X0159231Y0132472D01*
X0160765Y0132472D01*
X0161916Y0132472D02*
X0161916Y0130170D01*
X0161533Y0131321D02*
X0163067Y0131321D01*
X0161916Y0132472D01*
X0162077Y0133699D02*
X0162845Y0133699D01*
X0163228Y0134083D01*
X0163228Y0134467D01*
X0162845Y0134850D01*
X0162077Y0134850D01*
X0161694Y0134467D01*
X0161694Y0134083D01*
X0162077Y0133699D01*
X0160926Y0133699D02*
X0159392Y0133699D01*
X0160159Y0133699D02*
X0160159Y0136001D01*
X0160926Y0135234D01*
X0161694Y0135234D02*
X0162077Y0134850D01*
X0161694Y0135234D02*
X0161694Y0135618D01*
X0162077Y0136001D01*
X0162845Y0136001D01*
X0163228Y0135618D01*
X0163228Y0135234D01*
X0162845Y0134850D01*
X0163996Y0134850D02*
X0164379Y0134467D01*
X0165530Y0134467D01*
X0164763Y0134467D02*
X0163996Y0133699D01*
X0163996Y0134850D02*
X0163996Y0135618D01*
X0164379Y0136001D01*
X0165530Y0136001D01*
X0165530Y0133699D01*
X0164986Y0132472D02*
X0165369Y0132088D01*
X0165369Y0130554D01*
X0164986Y0130170D01*
X0164218Y0130170D01*
X0163835Y0130554D01*
X0163835Y0132088D02*
X0164218Y0132472D01*
X0164986Y0132472D01*
X0164428Y0138104D02*
X0164044Y0138488D01*
X0164044Y0140023D01*
X0164428Y0140406D01*
X0165579Y0140406D01*
X0165579Y0138104D01*
X0164428Y0138104D01*
X0163277Y0138488D02*
X0162893Y0138104D01*
X0162126Y0138104D01*
X0161742Y0138488D01*
X0161742Y0138872D01*
X0162126Y0139255D01*
X0162510Y0139255D01*
X0162126Y0139255D02*
X0161742Y0139639D01*
X0161742Y0140023D01*
X0162126Y0140406D01*
X0162893Y0140406D01*
X0163277Y0140023D01*
X0160975Y0139639D02*
X0160208Y0140406D01*
X0160208Y0138104D01*
X0160975Y0138104D02*
X0159440Y0138104D01*
X0148498Y0109345D02*
X0147347Y0109345D01*
X0146964Y0108962D01*
X0146964Y0107427D01*
X0147347Y0107043D01*
X0148498Y0107043D01*
X0148498Y0109345D01*
X0146196Y0108962D02*
X0145813Y0109345D01*
X0145045Y0109345D01*
X0144662Y0108962D01*
X0144662Y0108578D01*
X0146196Y0107043D01*
X0144662Y0107043D01*
X0143894Y0107043D02*
X0142360Y0107043D01*
X0143127Y0107043D02*
X0143127Y0109345D01*
X0143894Y0108578D01*
X0148201Y0102282D02*
X0148585Y0102282D01*
X0150119Y0103817D01*
X0150503Y0103817D01*
X0150503Y0102282D01*
X0150503Y0101515D02*
X0150119Y0100748D01*
X0149352Y0099981D01*
X0149352Y0101131D01*
X0148968Y0101515D01*
X0148585Y0101515D01*
X0148201Y0101131D01*
X0148201Y0100364D01*
X0148585Y0099981D01*
X0149352Y0099981D01*
X0149352Y0099213D02*
X0148968Y0098830D01*
X0148968Y0097679D01*
X0149315Y0097911D02*
X0149315Y0096376D01*
X0150466Y0097527D01*
X0148164Y0097527D01*
X0148201Y0097679D02*
X0150503Y0097679D01*
X0150503Y0098830D01*
X0150119Y0099213D01*
X0149352Y0099213D01*
X0148968Y0098446D02*
X0148201Y0099213D01*
X0148547Y0095609D02*
X0148164Y0095225D01*
X0148164Y0094458D01*
X0148547Y0094074D01*
X0148547Y0093307D02*
X0148164Y0092923D01*
X0148164Y0092156D01*
X0148547Y0091772D01*
X0150082Y0091772D01*
X0150466Y0092156D01*
X0150466Y0092923D01*
X0150082Y0093307D01*
X0150082Y0094074D02*
X0150466Y0094458D01*
X0150466Y0095225D01*
X0150082Y0095609D01*
X0149698Y0095609D01*
X0149315Y0095225D01*
X0148931Y0095609D01*
X0148547Y0095609D01*
X0149315Y0095225D02*
X0149315Y0094842D01*
X0150117Y0092332D02*
X0148583Y0090798D01*
X0148199Y0090798D01*
X0148199Y0089647D02*
X0150501Y0089647D01*
X0149350Y0088496D01*
X0149350Y0090030D01*
X0150501Y0090798D02*
X0150501Y0092332D01*
X0150117Y0092332D01*
X0150117Y0087728D02*
X0149350Y0087728D01*
X0148966Y0087345D01*
X0148966Y0086194D01*
X0148966Y0086961D02*
X0148199Y0087728D01*
X0148199Y0086194D02*
X0150501Y0086194D01*
X0150501Y0087345D01*
X0150117Y0087728D01*
X0149704Y0082688D02*
X0150855Y0081537D01*
X0149321Y0081537D01*
X0148553Y0081537D02*
X0147402Y0081537D01*
X0147019Y0081154D01*
X0147019Y0080770D01*
X0147402Y0080386D01*
X0148170Y0080386D01*
X0148553Y0080770D01*
X0148553Y0081537D01*
X0147786Y0082305D01*
X0147019Y0082688D01*
X0147155Y0082713D02*
X0146004Y0082713D01*
X0145621Y0082329D01*
X0145621Y0081562D01*
X0146004Y0081178D01*
X0147155Y0081178D01*
X0146388Y0081178D02*
X0145621Y0080411D01*
X0144853Y0081562D02*
X0143319Y0081562D01*
X0142551Y0081945D02*
X0142551Y0082329D01*
X0142168Y0082713D01*
X0141400Y0082713D01*
X0141017Y0082329D01*
X0141017Y0081945D01*
X0141400Y0081562D01*
X0142168Y0081562D01*
X0142551Y0081945D01*
X0142168Y0081562D02*
X0142551Y0081178D01*
X0142551Y0080794D01*
X0142168Y0080411D01*
X0141400Y0080411D01*
X0141017Y0080794D01*
X0141017Y0081178D01*
X0141400Y0081562D01*
X0143702Y0082713D02*
X0144853Y0081562D01*
X0143702Y0080411D02*
X0143702Y0082713D01*
X0147155Y0082713D02*
X0147155Y0080411D01*
X0149704Y0080386D02*
X0149704Y0082688D01*
X0151623Y0082305D02*
X0151623Y0081537D01*
X0152006Y0081154D01*
X0153157Y0081154D01*
X0152390Y0081154D02*
X0151623Y0080386D01*
X0153157Y0080386D02*
X0153157Y0082688D01*
X0152006Y0082688D01*
X0151623Y0082305D01*
X0130705Y0084119D02*
X0130705Y0086421D01*
X0129554Y0086421D01*
X0129170Y0086038D01*
X0129170Y0085270D01*
X0129554Y0084887D01*
X0130705Y0084887D01*
X0129937Y0084887D02*
X0129170Y0084119D01*
X0128403Y0084503D02*
X0128019Y0084119D01*
X0127252Y0084119D01*
X0126868Y0084503D01*
X0126868Y0085270D01*
X0127252Y0085654D01*
X0127636Y0085654D01*
X0128403Y0085270D01*
X0128403Y0086421D01*
X0126868Y0086421D01*
X0126101Y0086038D02*
X0125717Y0086421D01*
X0124950Y0086421D01*
X0124566Y0086038D01*
X0126101Y0084503D01*
X0125717Y0084119D01*
X0124950Y0084119D01*
X0124566Y0084503D01*
X0124566Y0086038D01*
X0126101Y0086038D02*
X0126101Y0084503D01*
X0126222Y0089411D02*
X0126222Y0091713D01*
X0127373Y0090562D01*
X0125839Y0090562D01*
X0125071Y0090946D02*
X0124688Y0090562D01*
X0123537Y0090562D01*
X0123537Y0089795D02*
X0123537Y0091330D01*
X0123920Y0091713D01*
X0124688Y0091713D01*
X0125071Y0091330D01*
X0125071Y0090946D01*
X0125071Y0089795D02*
X0124688Y0089411D01*
X0123920Y0089411D01*
X0123537Y0089795D01*
X0128141Y0089411D02*
X0128908Y0090179D01*
X0128524Y0090179D02*
X0129675Y0090179D01*
X0129675Y0089411D02*
X0129675Y0091713D01*
X0128524Y0091713D01*
X0128141Y0091330D01*
X0128141Y0090562D01*
X0128524Y0090179D01*
X0129520Y0093795D02*
X0129136Y0094178D01*
X0129520Y0093795D02*
X0130287Y0093795D01*
X0130671Y0094178D01*
X0130671Y0095713D01*
X0130287Y0096097D01*
X0129520Y0096097D01*
X0129136Y0095713D01*
X0128369Y0094946D02*
X0126834Y0094946D01*
X0126067Y0094946D02*
X0125300Y0095329D01*
X0124916Y0095329D01*
X0124532Y0094946D01*
X0124532Y0094178D01*
X0124916Y0093795D01*
X0125683Y0093795D01*
X0126067Y0094178D01*
X0126067Y0094946D02*
X0126067Y0096097D01*
X0124532Y0096097D01*
X0124834Y0098407D02*
X0124450Y0098791D01*
X0124450Y0100325D01*
X0124834Y0100709D01*
X0125601Y0100709D01*
X0125985Y0100325D01*
X0125985Y0099942D01*
X0125601Y0099558D01*
X0124450Y0099558D01*
X0124834Y0098407D02*
X0125601Y0098407D01*
X0125985Y0098791D01*
X0126752Y0100325D02*
X0128287Y0098791D01*
X0128287Y0098407D01*
X0129054Y0098407D02*
X0129821Y0099174D01*
X0129438Y0099174D02*
X0130589Y0099174D01*
X0130589Y0098407D02*
X0130589Y0100709D01*
X0129438Y0100709D01*
X0129054Y0100325D01*
X0129054Y0099558D01*
X0129438Y0099174D01*
X0128287Y0100709D02*
X0126752Y0100709D01*
X0126752Y0100325D01*
X0127118Y0102044D02*
X0127886Y0102044D01*
X0128269Y0102427D01*
X0129037Y0102427D02*
X0129037Y0103962D01*
X0129420Y0104346D01*
X0130571Y0104346D01*
X0130571Y0102044D01*
X0129420Y0102044D01*
X0129037Y0102427D01*
X0128269Y0103962D02*
X0127886Y0104346D01*
X0127118Y0104346D01*
X0126735Y0103962D01*
X0126735Y0103578D01*
X0127118Y0103195D01*
X0126735Y0102811D01*
X0126735Y0102427D01*
X0127118Y0102044D01*
X0127118Y0103195D02*
X0127502Y0103195D01*
X0125967Y0103195D02*
X0124816Y0104346D01*
X0124816Y0102044D01*
X0124433Y0103195D02*
X0125967Y0103195D01*
X0127218Y0096097D02*
X0128369Y0094946D01*
X0127218Y0093795D02*
X0127218Y0096097D01*
X0114857Y0108229D02*
X0114473Y0107845D01*
X0113706Y0107845D01*
X0113322Y0108229D01*
X0112555Y0108229D02*
X0112171Y0107845D01*
X0111404Y0107845D01*
X0111020Y0108229D01*
X0111020Y0108612D01*
X0111404Y0108996D01*
X0112555Y0108996D01*
X0112555Y0108229D01*
X0112555Y0108996D02*
X0111787Y0109763D01*
X0111020Y0110147D01*
X0110253Y0110147D02*
X0110253Y0108996D01*
X0109486Y0109380D01*
X0109102Y0109380D01*
X0108718Y0108996D01*
X0108718Y0108229D01*
X0109102Y0107845D01*
X0109869Y0107845D01*
X0110253Y0108229D01*
X0110253Y0110147D02*
X0108718Y0110147D01*
X0108506Y0111508D02*
X0108123Y0111892D01*
X0108506Y0111508D02*
X0109274Y0111508D01*
X0109657Y0111892D01*
X0109657Y0113427D01*
X0109274Y0113810D01*
X0108506Y0113810D01*
X0108123Y0113427D01*
X0107355Y0113810D02*
X0107355Y0112659D01*
X0106588Y0113043D01*
X0106204Y0113043D01*
X0105821Y0112659D01*
X0105821Y0111892D01*
X0106204Y0111508D01*
X0106972Y0111508D01*
X0107355Y0111892D01*
X0107355Y0113810D02*
X0105821Y0113810D01*
X0105053Y0113810D02*
X0103519Y0113810D01*
X0103519Y0113427D01*
X0105053Y0111892D01*
X0105053Y0111508D01*
X0113322Y0109763D02*
X0113706Y0110147D01*
X0114473Y0110147D01*
X0114857Y0109763D01*
X0114857Y0108229D01*
X0108677Y0123745D02*
X0107142Y0123745D01*
X0106759Y0124129D01*
X0106759Y0124896D01*
X0107142Y0125280D01*
X0107142Y0126047D02*
X0106759Y0126431D01*
X0106759Y0127198D01*
X0107142Y0127582D01*
X0107526Y0127582D01*
X0107910Y0127198D01*
X0107910Y0126047D01*
X0107142Y0126047D01*
X0107910Y0126047D02*
X0108677Y0126814D01*
X0109061Y0127582D01*
X0107910Y0128349D02*
X0107142Y0128349D01*
X0106759Y0128733D01*
X0106759Y0129500D01*
X0107142Y0129884D01*
X0107526Y0129884D01*
X0107910Y0129500D01*
X0107910Y0128349D01*
X0108677Y0129116D01*
X0109061Y0129884D01*
X0108677Y0125280D02*
X0109061Y0124896D01*
X0109061Y0124129D01*
X0108677Y0123745D01*
X0097886Y0143441D02*
X0097119Y0143441D01*
X0096735Y0143825D01*
X0096735Y0145743D01*
X0095968Y0144976D02*
X0095200Y0145743D01*
X0095200Y0143441D01*
X0094433Y0143441D02*
X0095968Y0143441D01*
X0097886Y0143441D02*
X0098270Y0143825D01*
X0098270Y0145743D01*
X0093666Y0145359D02*
X0093666Y0143825D01*
X0092131Y0145359D01*
X0092131Y0143825D01*
X0092515Y0143441D01*
X0093282Y0143441D01*
X0093666Y0143825D01*
X0093666Y0145359D02*
X0093282Y0145743D01*
X0092515Y0145743D01*
X0092131Y0145359D01*
X0049135Y0177818D02*
X0048751Y0177434D01*
X0047216Y0177434D01*
X0046833Y0177818D01*
X0046833Y0178585D01*
X0047216Y0178969D01*
X0047216Y0179736D02*
X0046833Y0179736D01*
X0047216Y0179736D02*
X0048751Y0181271D01*
X0049135Y0181271D01*
X0049135Y0179736D01*
X0048751Y0178969D02*
X0049135Y0178585D01*
X0049135Y0177818D01*
X0048751Y0182038D02*
X0047216Y0182038D01*
X0048751Y0183573D01*
X0047216Y0183573D01*
X0046833Y0183189D01*
X0046833Y0182422D01*
X0047216Y0182038D01*
X0048751Y0182038D02*
X0049135Y0182422D01*
X0049135Y0183189D01*
X0048751Y0183573D01*
X0042210Y0164616D02*
X0042210Y0163081D01*
X0042210Y0163849D02*
X0044512Y0163849D01*
X0043745Y0163081D01*
X0044128Y0162314D02*
X0044512Y0162314D01*
X0044128Y0162314D02*
X0043361Y0161547D01*
X0042210Y0161547D01*
X0043361Y0161547D02*
X0044128Y0160780D01*
X0044512Y0160780D01*
X0173219Y0082265D02*
X0173603Y0082649D01*
X0174370Y0082649D01*
X0174754Y0082265D01*
X0175521Y0082649D02*
X0177056Y0082649D01*
X0177056Y0081498D01*
X0176289Y0081882D01*
X0175905Y0081882D01*
X0175521Y0081498D01*
X0175521Y0080731D01*
X0175905Y0080347D01*
X0176672Y0080347D01*
X0177056Y0080731D01*
X0177823Y0080347D02*
X0178591Y0081114D01*
X0174754Y0080347D02*
X0173219Y0081882D01*
X0173219Y0082265D01*
X0173219Y0080347D02*
X0174754Y0080347D01*
X0234124Y0050209D02*
X0234591Y0050676D01*
X0235992Y0050676D01*
X0235992Y0047874D01*
X0234591Y0047874D01*
X0234124Y0048341D01*
X0234124Y0050209D01*
X0236886Y0050676D02*
X0236886Y0047874D01*
X0238754Y0050676D01*
X0238754Y0047874D01*
X0239648Y0048341D02*
X0240115Y0047874D01*
X0241049Y0047874D01*
X0241516Y0048341D01*
X0241516Y0050209D01*
X0241049Y0050676D01*
X0240115Y0050676D01*
X0239648Y0050209D01*
X0239648Y0049275D02*
X0240582Y0049275D01*
X0239648Y0049275D02*
X0239648Y0048341D01*
X0242411Y0049275D02*
X0244279Y0047874D01*
X0245173Y0049275D02*
X0247041Y0049275D01*
X0247935Y0050676D02*
X0249804Y0049275D01*
X0247935Y0047874D01*
X0250698Y0048341D02*
X0250698Y0050209D01*
X0251165Y0050676D01*
X0252566Y0050676D01*
X0252566Y0047874D01*
X0251165Y0047874D01*
X0250698Y0048341D01*
X0253460Y0047874D02*
X0253460Y0050676D01*
X0255328Y0050676D02*
X0253460Y0047874D01*
X0255328Y0047874D02*
X0255328Y0050676D01*
X0256222Y0050209D02*
X0256689Y0050676D01*
X0257624Y0050676D01*
X0258091Y0050209D01*
X0258091Y0048341D01*
X0257624Y0047874D01*
X0256689Y0047874D01*
X0256222Y0048341D01*
X0256222Y0049275D01*
X0257156Y0049275D01*
X0258985Y0050209D02*
X0259452Y0050676D01*
X0260386Y0050676D01*
X0260853Y0050209D01*
X0260853Y0048341D01*
X0260386Y0047874D01*
X0259452Y0047874D01*
X0258985Y0048341D01*
X0258675Y0045481D02*
X0257141Y0045481D01*
X0257524Y0044714D02*
X0257141Y0044330D01*
X0257141Y0043563D01*
X0257524Y0043179D01*
X0258292Y0043179D01*
X0258675Y0043563D01*
X0258675Y0044330D02*
X0257908Y0044714D01*
X0257524Y0044714D01*
X0256373Y0044714D02*
X0255990Y0044330D01*
X0254839Y0044330D01*
X0254839Y0045097D02*
X0255222Y0045481D01*
X0255990Y0045481D01*
X0256373Y0045097D01*
X0256373Y0044714D01*
X0256373Y0043563D02*
X0255990Y0043179D01*
X0255222Y0043179D01*
X0254839Y0043563D01*
X0254839Y0045097D01*
X0258675Y0045481D02*
X0258675Y0044330D01*
X0259443Y0044330D02*
X0259826Y0043946D01*
X0260977Y0043946D01*
X0260977Y0043179D02*
X0260977Y0045481D01*
X0259826Y0045481D01*
X0259443Y0045097D01*
X0259443Y0044330D01*
X0260210Y0043946D02*
X0259443Y0043179D01*
X0244279Y0050676D02*
X0242411Y0049275D01*
X0203327Y0179598D02*
X0203327Y0181900D01*
X0202176Y0181900D01*
X0201793Y0181516D01*
X0201793Y0180749D01*
X0202176Y0180365D01*
X0203327Y0180365D01*
X0202560Y0180365D02*
X0201793Y0179598D01*
X0201025Y0179598D02*
X0199491Y0181133D01*
X0199491Y0181516D01*
X0199874Y0181900D01*
X0200642Y0181900D01*
X0201025Y0181516D01*
X0201025Y0179598D02*
X0199491Y0179598D01*
X0198723Y0179598D02*
X0198723Y0179982D01*
X0197189Y0181516D01*
X0197189Y0181900D01*
X0198723Y0181900D01*
X0206167Y0189294D02*
X0205784Y0189677D01*
X0205784Y0190061D01*
X0206167Y0190445D01*
X0207318Y0190445D01*
X0207318Y0189677D01*
X0206934Y0189294D01*
X0206167Y0189294D01*
X0207318Y0190445D02*
X0206551Y0191212D01*
X0205784Y0191596D01*
X0208085Y0191212D02*
X0208469Y0191596D01*
X0209236Y0191596D01*
X0209620Y0191212D01*
X0210387Y0191212D02*
X0210387Y0190445D01*
X0210771Y0190061D01*
X0211922Y0190061D01*
X0211922Y0189294D02*
X0211922Y0191596D01*
X0210771Y0191596D01*
X0210387Y0191212D01*
X0211155Y0190061D02*
X0210387Y0189294D01*
X0209620Y0189294D02*
X0208085Y0190828D01*
X0208085Y0191212D01*
X0208085Y0189294D02*
X0209620Y0189294D01*
D11*
X0115094Y0219220D02*
X0107213Y0219220D01*
X0107213Y0223163D01*
X0115094Y0223163D01*
X0115094Y0219220D01*
X0115126Y0226781D02*
X0107245Y0226781D01*
X0107245Y0230725D01*
X0115126Y0230725D01*
X0115126Y0226781D01*
X0107760Y0208586D02*
X0103817Y0208586D01*
X0103817Y0200706D01*
X0107760Y0200706D01*
X0107760Y0208586D01*
X0089826Y0222470D02*
X0081946Y0222470D01*
X0081946Y0226413D01*
X0089826Y0226413D01*
X0089826Y0222470D01*
X0089833Y0228979D02*
X0081952Y0228979D01*
X0081952Y0232922D01*
X0089833Y0232922D01*
X0089833Y0228979D01*
X0089487Y0188723D02*
X0082794Y0188723D01*
X0082794Y0175730D01*
X0089487Y0175730D01*
X0089487Y0188723D01*
X0091541Y0184382D02*
X0095484Y0184382D01*
X0095484Y0176502D01*
X0091541Y0176502D01*
X0091541Y0184382D01*
X0080895Y0188756D02*
X0080895Y0175764D01*
X0074202Y0175764D01*
X0074202Y0188756D01*
X0080895Y0188756D01*
X0072234Y0188693D02*
X0072234Y0175701D01*
X0065541Y0175701D01*
X0065541Y0188693D01*
X0072234Y0188693D01*
X0063967Y0188660D02*
X0063967Y0175667D01*
X0057274Y0175667D01*
X0057274Y0188660D01*
X0063967Y0188660D01*
X0053784Y0184318D02*
X0053784Y0176437D01*
X0049840Y0176437D01*
X0049840Y0184318D01*
X0053784Y0184318D01*
X0052596Y0166709D02*
X0052596Y0158829D01*
X0056540Y0158829D01*
X0056540Y0166709D01*
X0052596Y0166709D01*
X0052514Y0146848D02*
X0048571Y0146848D01*
X0048571Y0138968D01*
X0052514Y0138968D01*
X0052514Y0146848D01*
X0042451Y0129571D02*
X0034570Y0129571D01*
X0034570Y0125628D01*
X0042451Y0125628D01*
X0042451Y0129571D01*
X0042438Y0124274D02*
X0034557Y0124274D01*
X0034557Y0120331D01*
X0042438Y0120331D01*
X0042438Y0124274D01*
X0042430Y0119106D02*
X0034549Y0119106D01*
X0034549Y0115163D01*
X0042430Y0115163D01*
X0042430Y0119106D01*
X0041041Y0107122D02*
X0041041Y0099242D01*
X0044984Y0099242D01*
X0044984Y0107122D01*
X0041041Y0107122D01*
X0045911Y0092223D02*
X0032919Y0092223D01*
X0032919Y0085530D01*
X0045911Y0085530D01*
X0045911Y0092223D01*
X0047897Y0089762D02*
X0047897Y0081882D01*
X0051841Y0081882D01*
X0051841Y0089762D01*
X0047897Y0089762D01*
X0053866Y0089607D02*
X0053866Y0081727D01*
X0057810Y0081727D01*
X0057810Y0089607D01*
X0053866Y0089607D01*
X0060252Y0085553D02*
X0068132Y0085553D01*
X0068132Y0081610D01*
X0060252Y0081610D01*
X0060252Y0085553D01*
X0070318Y0084739D02*
X0070318Y0080796D01*
X0078199Y0080796D01*
X0078199Y0084739D01*
X0070318Y0084739D01*
X0081284Y0084756D02*
X0081284Y0080813D01*
X0089164Y0080813D01*
X0089164Y0084756D01*
X0081284Y0084756D01*
X0101511Y0097811D02*
X0101511Y0110803D01*
X0108204Y0110803D01*
X0108204Y0097811D01*
X0101511Y0097811D01*
X0109975Y0098967D02*
X0109975Y0106847D01*
X0113918Y0106847D01*
X0113918Y0098967D01*
X0109975Y0098967D01*
X0106032Y0123794D02*
X0102089Y0123794D01*
X0102089Y0131674D01*
X0106032Y0131674D01*
X0106032Y0123794D01*
X0083362Y0158221D02*
X0079418Y0158221D01*
X0079418Y0166101D01*
X0083362Y0166101D01*
X0083362Y0158221D01*
X0085587Y0165362D02*
X0085587Y0173242D01*
X0089530Y0173242D01*
X0089530Y0165362D01*
X0085587Y0165362D01*
X0231329Y0053274D02*
X0231329Y0040774D01*
X0261829Y0040774D01*
X0261829Y0053274D01*
X0231329Y0053274D01*
D12*
X0223555Y0043212D02*
X0223555Y0035512D01*
X0223555Y0033112D01*
X0223555Y0025412D01*
X0203555Y0025412D02*
X0203555Y0043212D01*
X0198348Y0043175D02*
X0198348Y0035475D01*
X0198348Y0033075D01*
X0198348Y0025375D01*
X0178348Y0025375D02*
X0178348Y0043175D01*
X0173120Y0043209D02*
X0173120Y0035509D01*
X0173120Y0033109D01*
X0173120Y0025409D01*
X0153120Y0025409D02*
X0153120Y0043209D01*
X0147947Y0043186D02*
X0147947Y0025386D01*
X0141247Y0018886D02*
X0141247Y0017886D01*
X0139747Y0017886D01*
X0139747Y0018886D02*
X0141247Y0018886D01*
X0127947Y0025386D02*
X0127947Y0033086D01*
X0127947Y0035486D01*
X0127947Y0043186D01*
X0122448Y0043210D02*
X0122448Y0035510D01*
X0122448Y0033110D01*
X0122448Y0025410D01*
X0102448Y0025410D02*
X0102448Y0043210D01*
X0097227Y0043219D02*
X0097227Y0025419D01*
X0090527Y0018919D02*
X0090527Y0017919D01*
X0089027Y0017919D01*
X0089027Y0018919D02*
X0090527Y0018919D01*
X0077227Y0025419D02*
X0077227Y0033119D01*
X0077227Y0035519D01*
X0077227Y0043219D01*
X0109148Y0049710D02*
X0110648Y0049710D01*
X0110648Y0050710D02*
X0109148Y0050710D01*
X0109148Y0049710D01*
X0159820Y0049709D02*
X0161320Y0049709D01*
X0161320Y0050709D02*
X0159820Y0050709D01*
X0159820Y0049709D01*
X0185048Y0049675D02*
X0186548Y0049675D01*
X0186548Y0050675D02*
X0185048Y0050675D01*
X0185048Y0049675D01*
X0210255Y0049712D02*
X0211755Y0049712D01*
X0211755Y0050712D02*
X0210255Y0050712D01*
X0210255Y0049712D01*
X0089297Y0192409D02*
X0085097Y0192409D01*
X0081097Y0192409D01*
X0076897Y0192409D01*
X0076821Y0192411D01*
X0076745Y0192417D01*
X0076670Y0192426D01*
X0076595Y0192440D01*
X0076521Y0192457D01*
X0076448Y0192478D01*
X0076376Y0192502D01*
X0076305Y0192531D01*
X0076236Y0192562D01*
X0076169Y0192597D01*
X0076104Y0192636D01*
X0076040Y0192678D01*
X0075979Y0192723D01*
X0075920Y0192771D01*
X0075864Y0192822D01*
X0075810Y0192876D01*
X0075759Y0192932D01*
X0075711Y0192991D01*
X0075666Y0193052D01*
X0075624Y0193116D01*
X0075585Y0193181D01*
X0075550Y0193248D01*
X0075519Y0193317D01*
X0075490Y0193388D01*
X0075466Y0193460D01*
X0075445Y0193533D01*
X0075428Y0193607D01*
X0075414Y0193682D01*
X0075405Y0193757D01*
X0075399Y0193833D01*
X0075397Y0193909D01*
X0075397Y0210909D01*
X0075399Y0210985D01*
X0075405Y0211061D01*
X0075414Y0211136D01*
X0075428Y0211211D01*
X0075445Y0211285D01*
X0075466Y0211358D01*
X0075490Y0211430D01*
X0075519Y0211501D01*
X0075550Y0211570D01*
X0075585Y0211637D01*
X0075624Y0211702D01*
X0075666Y0211766D01*
X0075711Y0211827D01*
X0075759Y0211886D01*
X0075810Y0211942D01*
X0075864Y0211996D01*
X0075920Y0212047D01*
X0075979Y0212095D01*
X0076040Y0212140D01*
X0076104Y0212182D01*
X0076169Y0212221D01*
X0076236Y0212256D01*
X0076305Y0212287D01*
X0076376Y0212316D01*
X0076448Y0212340D01*
X0076521Y0212361D01*
X0076595Y0212378D01*
X0076670Y0212392D01*
X0076745Y0212401D01*
X0076821Y0212407D01*
X0076897Y0212409D01*
X0089297Y0212409D01*
X0089373Y0212407D01*
X0089449Y0212401D01*
X0089524Y0212392D01*
X0089599Y0212378D01*
X0089673Y0212361D01*
X0089746Y0212340D01*
X0089818Y0212316D01*
X0089889Y0212287D01*
X0089958Y0212256D01*
X0090025Y0212221D01*
X0090090Y0212182D01*
X0090154Y0212140D01*
X0090215Y0212095D01*
X0090274Y0212047D01*
X0090330Y0211996D01*
X0090384Y0211942D01*
X0090435Y0211886D01*
X0090483Y0211827D01*
X0090528Y0211766D01*
X0090570Y0211702D01*
X0090609Y0211637D01*
X0090644Y0211570D01*
X0090675Y0211501D01*
X0090704Y0211430D01*
X0090728Y0211358D01*
X0090749Y0211285D01*
X0090766Y0211211D01*
X0090780Y0211136D01*
X0090789Y0211061D01*
X0090795Y0210985D01*
X0090797Y0210909D01*
X0090797Y0193909D01*
X0090795Y0193833D01*
X0090789Y0193757D01*
X0090780Y0193682D01*
X0090766Y0193607D01*
X0090749Y0193533D01*
X0090728Y0193460D01*
X0090704Y0193388D01*
X0090675Y0193317D01*
X0090644Y0193248D01*
X0090609Y0193181D01*
X0090570Y0193116D01*
X0090528Y0193052D01*
X0090483Y0192991D01*
X0090435Y0192932D01*
X0090384Y0192876D01*
X0090330Y0192822D01*
X0090274Y0192771D01*
X0090215Y0192723D01*
X0090154Y0192678D01*
X0090090Y0192636D01*
X0090025Y0192597D01*
X0089958Y0192562D01*
X0089889Y0192531D01*
X0089818Y0192502D01*
X0089746Y0192478D01*
X0089673Y0192457D01*
X0089599Y0192440D01*
X0089524Y0192426D01*
X0089449Y0192417D01*
X0089373Y0192411D01*
X0089297Y0192409D01*
X0085097Y0192409D02*
X0085095Y0192497D01*
X0085089Y0192586D01*
X0085079Y0192674D01*
X0085066Y0192761D01*
X0085048Y0192848D01*
X0085027Y0192934D01*
X0085002Y0193019D01*
X0084973Y0193102D01*
X0084940Y0193185D01*
X0084904Y0193265D01*
X0084865Y0193344D01*
X0084822Y0193422D01*
X0084775Y0193497D01*
X0084725Y0193570D01*
X0084672Y0193641D01*
X0084616Y0193710D01*
X0084557Y0193776D01*
X0084495Y0193839D01*
X0084431Y0193899D01*
X0084364Y0193957D01*
X0084294Y0194011D01*
X0084222Y0194063D01*
X0084148Y0194111D01*
X0084071Y0194156D01*
X0083993Y0194197D01*
X0083913Y0194235D01*
X0083832Y0194269D01*
X0083749Y0194300D01*
X0083664Y0194327D01*
X0083579Y0194350D01*
X0083493Y0194369D01*
X0083405Y0194385D01*
X0083318Y0194397D01*
X0083230Y0194405D01*
X0083141Y0194409D01*
X0083053Y0194409D01*
X0082964Y0194405D01*
X0082876Y0194397D01*
X0082789Y0194385D01*
X0082701Y0194369D01*
X0082615Y0194350D01*
X0082530Y0194327D01*
X0082445Y0194300D01*
X0082362Y0194269D01*
X0082281Y0194235D01*
X0082201Y0194197D01*
X0082123Y0194156D01*
X0082046Y0194111D01*
X0081972Y0194063D01*
X0081900Y0194011D01*
X0081830Y0193957D01*
X0081763Y0193899D01*
X0081699Y0193839D01*
X0081637Y0193776D01*
X0081578Y0193710D01*
X0081522Y0193641D01*
X0081469Y0193570D01*
X0081419Y0193497D01*
X0081372Y0193422D01*
X0081329Y0193344D01*
X0081290Y0193265D01*
X0081254Y0193185D01*
X0081221Y0193102D01*
X0081192Y0193019D01*
X0081167Y0192934D01*
X0081146Y0192848D01*
X0081128Y0192761D01*
X0081115Y0192674D01*
X0081105Y0192586D01*
X0081099Y0192497D01*
X0081097Y0192409D01*
D13*
X0077227Y0035519D02*
X0077296Y0035517D01*
X0077364Y0035511D01*
X0077432Y0035501D01*
X0077499Y0035488D01*
X0077565Y0035470D01*
X0077630Y0035449D01*
X0077694Y0035424D01*
X0077756Y0035396D01*
X0077817Y0035364D01*
X0077876Y0035329D01*
X0077932Y0035290D01*
X0077987Y0035248D01*
X0078038Y0035203D01*
X0078088Y0035155D01*
X0078134Y0035105D01*
X0078177Y0035052D01*
X0078218Y0034996D01*
X0078255Y0034939D01*
X0078288Y0034879D01*
X0078319Y0034817D01*
X0078345Y0034754D01*
X0078368Y0034690D01*
X0078388Y0034624D01*
X0078403Y0034557D01*
X0078415Y0034490D01*
X0078423Y0034422D01*
X0078427Y0034353D01*
X0078427Y0034285D01*
X0078423Y0034216D01*
X0078415Y0034148D01*
X0078403Y0034081D01*
X0078388Y0034014D01*
X0078368Y0033948D01*
X0078345Y0033884D01*
X0078319Y0033821D01*
X0078288Y0033759D01*
X0078255Y0033699D01*
X0078218Y0033642D01*
X0078177Y0033586D01*
X0078134Y0033533D01*
X0078088Y0033483D01*
X0078038Y0033435D01*
X0077987Y0033390D01*
X0077932Y0033348D01*
X0077876Y0033309D01*
X0077817Y0033274D01*
X0077756Y0033242D01*
X0077694Y0033214D01*
X0077630Y0033189D01*
X0077565Y0033168D01*
X0077499Y0033150D01*
X0077432Y0033137D01*
X0077364Y0033127D01*
X0077296Y0033121D01*
X0077227Y0033119D01*
X0122448Y0033110D02*
X0122379Y0033112D01*
X0122311Y0033118D01*
X0122243Y0033128D01*
X0122176Y0033141D01*
X0122110Y0033159D01*
X0122045Y0033180D01*
X0121981Y0033205D01*
X0121919Y0033233D01*
X0121858Y0033265D01*
X0121799Y0033300D01*
X0121743Y0033339D01*
X0121688Y0033381D01*
X0121637Y0033426D01*
X0121587Y0033474D01*
X0121541Y0033524D01*
X0121498Y0033577D01*
X0121457Y0033633D01*
X0121420Y0033690D01*
X0121387Y0033750D01*
X0121356Y0033812D01*
X0121330Y0033875D01*
X0121307Y0033939D01*
X0121287Y0034005D01*
X0121272Y0034072D01*
X0121260Y0034139D01*
X0121252Y0034207D01*
X0121248Y0034276D01*
X0121248Y0034344D01*
X0121252Y0034413D01*
X0121260Y0034481D01*
X0121272Y0034548D01*
X0121287Y0034615D01*
X0121307Y0034681D01*
X0121330Y0034745D01*
X0121356Y0034808D01*
X0121387Y0034870D01*
X0121420Y0034930D01*
X0121457Y0034987D01*
X0121498Y0035043D01*
X0121541Y0035096D01*
X0121587Y0035146D01*
X0121637Y0035194D01*
X0121688Y0035239D01*
X0121743Y0035281D01*
X0121799Y0035320D01*
X0121858Y0035355D01*
X0121919Y0035387D01*
X0121981Y0035415D01*
X0122045Y0035440D01*
X0122110Y0035461D01*
X0122176Y0035479D01*
X0122243Y0035492D01*
X0122311Y0035502D01*
X0122379Y0035508D01*
X0122448Y0035510D01*
X0127947Y0035486D02*
X0128016Y0035484D01*
X0128084Y0035478D01*
X0128152Y0035468D01*
X0128219Y0035455D01*
X0128285Y0035437D01*
X0128350Y0035416D01*
X0128414Y0035391D01*
X0128476Y0035363D01*
X0128537Y0035331D01*
X0128596Y0035296D01*
X0128652Y0035257D01*
X0128707Y0035215D01*
X0128758Y0035170D01*
X0128808Y0035122D01*
X0128854Y0035072D01*
X0128897Y0035019D01*
X0128938Y0034963D01*
X0128975Y0034906D01*
X0129008Y0034846D01*
X0129039Y0034784D01*
X0129065Y0034721D01*
X0129088Y0034657D01*
X0129108Y0034591D01*
X0129123Y0034524D01*
X0129135Y0034457D01*
X0129143Y0034389D01*
X0129147Y0034320D01*
X0129147Y0034252D01*
X0129143Y0034183D01*
X0129135Y0034115D01*
X0129123Y0034048D01*
X0129108Y0033981D01*
X0129088Y0033915D01*
X0129065Y0033851D01*
X0129039Y0033788D01*
X0129008Y0033726D01*
X0128975Y0033666D01*
X0128938Y0033609D01*
X0128897Y0033553D01*
X0128854Y0033500D01*
X0128808Y0033450D01*
X0128758Y0033402D01*
X0128707Y0033357D01*
X0128652Y0033315D01*
X0128596Y0033276D01*
X0128537Y0033241D01*
X0128476Y0033209D01*
X0128414Y0033181D01*
X0128350Y0033156D01*
X0128285Y0033135D01*
X0128219Y0033117D01*
X0128152Y0033104D01*
X0128084Y0033094D01*
X0128016Y0033088D01*
X0127947Y0033086D01*
X0173120Y0033109D02*
X0173051Y0033111D01*
X0172983Y0033117D01*
X0172915Y0033127D01*
X0172848Y0033140D01*
X0172782Y0033158D01*
X0172717Y0033179D01*
X0172653Y0033204D01*
X0172591Y0033232D01*
X0172530Y0033264D01*
X0172471Y0033299D01*
X0172415Y0033338D01*
X0172360Y0033380D01*
X0172309Y0033425D01*
X0172259Y0033473D01*
X0172213Y0033523D01*
X0172170Y0033576D01*
X0172129Y0033632D01*
X0172092Y0033689D01*
X0172059Y0033749D01*
X0172028Y0033811D01*
X0172002Y0033874D01*
X0171979Y0033938D01*
X0171959Y0034004D01*
X0171944Y0034071D01*
X0171932Y0034138D01*
X0171924Y0034206D01*
X0171920Y0034275D01*
X0171920Y0034343D01*
X0171924Y0034412D01*
X0171932Y0034480D01*
X0171944Y0034547D01*
X0171959Y0034614D01*
X0171979Y0034680D01*
X0172002Y0034744D01*
X0172028Y0034807D01*
X0172059Y0034869D01*
X0172092Y0034929D01*
X0172129Y0034986D01*
X0172170Y0035042D01*
X0172213Y0035095D01*
X0172259Y0035145D01*
X0172309Y0035193D01*
X0172360Y0035238D01*
X0172415Y0035280D01*
X0172471Y0035319D01*
X0172530Y0035354D01*
X0172591Y0035386D01*
X0172653Y0035414D01*
X0172717Y0035439D01*
X0172782Y0035460D01*
X0172848Y0035478D01*
X0172915Y0035491D01*
X0172983Y0035501D01*
X0173051Y0035507D01*
X0173120Y0035509D01*
X0198348Y0035475D02*
X0198279Y0035473D01*
X0198211Y0035467D01*
X0198143Y0035457D01*
X0198076Y0035444D01*
X0198010Y0035426D01*
X0197945Y0035405D01*
X0197881Y0035380D01*
X0197819Y0035352D01*
X0197758Y0035320D01*
X0197699Y0035285D01*
X0197643Y0035246D01*
X0197588Y0035204D01*
X0197537Y0035159D01*
X0197487Y0035111D01*
X0197441Y0035061D01*
X0197398Y0035008D01*
X0197357Y0034952D01*
X0197320Y0034895D01*
X0197287Y0034835D01*
X0197256Y0034773D01*
X0197230Y0034710D01*
X0197207Y0034646D01*
X0197187Y0034580D01*
X0197172Y0034513D01*
X0197160Y0034446D01*
X0197152Y0034378D01*
X0197148Y0034309D01*
X0197148Y0034241D01*
X0197152Y0034172D01*
X0197160Y0034104D01*
X0197172Y0034037D01*
X0197187Y0033970D01*
X0197207Y0033904D01*
X0197230Y0033840D01*
X0197256Y0033777D01*
X0197287Y0033715D01*
X0197320Y0033655D01*
X0197357Y0033598D01*
X0197398Y0033542D01*
X0197441Y0033489D01*
X0197487Y0033439D01*
X0197537Y0033391D01*
X0197588Y0033346D01*
X0197643Y0033304D01*
X0197699Y0033265D01*
X0197758Y0033230D01*
X0197819Y0033198D01*
X0197881Y0033170D01*
X0197945Y0033145D01*
X0198010Y0033124D01*
X0198076Y0033106D01*
X0198143Y0033093D01*
X0198211Y0033083D01*
X0198279Y0033077D01*
X0198348Y0033075D01*
X0223555Y0033112D02*
X0223486Y0033114D01*
X0223418Y0033120D01*
X0223350Y0033130D01*
X0223283Y0033143D01*
X0223217Y0033161D01*
X0223152Y0033182D01*
X0223088Y0033207D01*
X0223026Y0033235D01*
X0222965Y0033267D01*
X0222906Y0033302D01*
X0222850Y0033341D01*
X0222795Y0033383D01*
X0222744Y0033428D01*
X0222694Y0033476D01*
X0222648Y0033526D01*
X0222605Y0033579D01*
X0222564Y0033635D01*
X0222527Y0033692D01*
X0222494Y0033752D01*
X0222463Y0033814D01*
X0222437Y0033877D01*
X0222414Y0033941D01*
X0222394Y0034007D01*
X0222379Y0034074D01*
X0222367Y0034141D01*
X0222359Y0034209D01*
X0222355Y0034278D01*
X0222355Y0034346D01*
X0222359Y0034415D01*
X0222367Y0034483D01*
X0222379Y0034550D01*
X0222394Y0034617D01*
X0222414Y0034683D01*
X0222437Y0034747D01*
X0222463Y0034810D01*
X0222494Y0034872D01*
X0222527Y0034932D01*
X0222564Y0034989D01*
X0222605Y0035045D01*
X0222648Y0035098D01*
X0222694Y0035148D01*
X0222744Y0035196D01*
X0222795Y0035241D01*
X0222850Y0035283D01*
X0222906Y0035322D01*
X0222965Y0035357D01*
X0223026Y0035389D01*
X0223088Y0035417D01*
X0223152Y0035442D01*
X0223217Y0035463D01*
X0223283Y0035481D01*
X0223350Y0035494D01*
X0223418Y0035504D01*
X0223486Y0035510D01*
X0223555Y0035512D01*
D14*
X0224219Y0044407D02*
X0223852Y0044774D01*
X0223852Y0045508D01*
X0224219Y0045875D01*
X0226054Y0045875D01*
X0224953Y0046709D02*
X0226054Y0047810D01*
X0223852Y0047810D01*
X0224953Y0048177D02*
X0224953Y0046709D01*
X0224219Y0044407D02*
X0226054Y0044407D01*
X0226225Y0022798D02*
X0223089Y0019662D01*
X0224657Y0019662D02*
X0224657Y0022798D01*
X0223089Y0022798D02*
X0226225Y0019662D01*
X0226225Y0021230D02*
X0223089Y0021230D01*
X0201018Y0021193D02*
X0197882Y0021193D01*
X0197882Y0022761D02*
X0201018Y0019625D01*
X0199450Y0019625D02*
X0199450Y0022761D01*
X0201018Y0022761D02*
X0197882Y0019625D01*
X0175790Y0019659D02*
X0172654Y0022795D01*
X0174222Y0022795D02*
X0174222Y0019659D01*
X0172654Y0019659D02*
X0175790Y0022795D01*
X0175790Y0021227D02*
X0172654Y0021227D01*
X0173406Y0044025D02*
X0173039Y0044392D01*
X0173039Y0045126D01*
X0173406Y0045493D01*
X0175241Y0045493D01*
X0174140Y0046327D02*
X0174874Y0047061D01*
X0175241Y0047795D01*
X0174140Y0047428D02*
X0174140Y0046327D01*
X0173406Y0046327D01*
X0173039Y0046694D01*
X0173039Y0047428D01*
X0173406Y0047795D01*
X0173773Y0047795D01*
X0174140Y0047428D01*
X0173406Y0044025D02*
X0175241Y0044025D01*
X0198441Y0044764D02*
X0198441Y0045498D01*
X0198808Y0045865D01*
X0200643Y0045865D01*
X0200643Y0046699D02*
X0199542Y0046699D01*
X0199909Y0047433D01*
X0199909Y0047800D01*
X0199542Y0048167D01*
X0198808Y0048167D01*
X0198441Y0047800D01*
X0198441Y0047066D01*
X0198808Y0046699D01*
X0200643Y0046699D02*
X0200643Y0048167D01*
X0200643Y0044397D02*
X0198808Y0044397D01*
X0198441Y0044764D01*
X0149827Y0045405D02*
X0147992Y0045405D01*
X0147625Y0045038D01*
X0147625Y0044304D01*
X0147992Y0043937D01*
X0149827Y0043937D01*
X0149460Y0046239D02*
X0149093Y0046239D01*
X0148726Y0046606D01*
X0148726Y0047340D01*
X0148359Y0047707D01*
X0147992Y0047707D01*
X0147625Y0047340D01*
X0147625Y0046606D01*
X0147992Y0046239D01*
X0148359Y0046239D01*
X0148726Y0046606D01*
X0148726Y0047340D02*
X0149093Y0047707D01*
X0149460Y0047707D01*
X0149827Y0047340D01*
X0149827Y0046606D01*
X0149460Y0046239D01*
X0128413Y0045800D02*
X0125277Y0048936D01*
X0125277Y0047368D02*
X0128413Y0047368D01*
X0128413Y0048936D02*
X0125277Y0045800D01*
X0124077Y0045565D02*
X0122242Y0045565D01*
X0121875Y0045198D01*
X0121875Y0044464D01*
X0122242Y0044097D01*
X0124077Y0044097D01*
X0123343Y0046399D02*
X0124077Y0047133D01*
X0121875Y0047133D01*
X0121875Y0046399D02*
X0121875Y0047867D01*
X0126845Y0048936D02*
X0126845Y0045800D01*
X0125118Y0022796D02*
X0121982Y0019660D01*
X0121982Y0021228D02*
X0125118Y0021228D01*
X0125118Y0019660D02*
X0121982Y0022796D01*
X0123550Y0022796D02*
X0123550Y0019660D01*
X0099411Y0044285D02*
X0097576Y0044285D01*
X0097209Y0044652D01*
X0097209Y0045386D01*
X0097576Y0045753D01*
X0099411Y0045753D01*
X0099044Y0046587D02*
X0099411Y0046954D01*
X0099411Y0047688D01*
X0099044Y0048055D01*
X0098677Y0048055D01*
X0098310Y0047688D01*
X0097943Y0048055D01*
X0097576Y0048055D01*
X0097209Y0047688D01*
X0097209Y0046954D01*
X0097576Y0046587D01*
X0098310Y0047321D02*
X0098310Y0047688D01*
X0077693Y0047401D02*
X0074557Y0047401D01*
X0074557Y0045833D02*
X0077693Y0048969D01*
X0076125Y0048969D02*
X0076125Y0045833D01*
X0077693Y0045833D02*
X0074557Y0048969D01*
X0081164Y0213282D02*
X0082632Y0213282D01*
X0081898Y0213282D02*
X0081898Y0215484D01*
X0082632Y0214750D01*
X0083466Y0213282D02*
X0084934Y0213282D01*
X0084200Y0213282D02*
X0084200Y0215484D01*
X0084934Y0214750D01*
X0085768Y0215484D02*
X0085768Y0213649D01*
X0086135Y0213282D01*
X0086869Y0213282D01*
X0087236Y0213649D01*
X0087236Y0215484D01*
D15*
X0091829Y0139957D02*
X0057183Y0139957D01*
X0055608Y0138383D01*
X0055608Y0103737D01*
X0057183Y0102162D01*
X0091829Y0102162D01*
X0093404Y0103737D01*
X0093404Y0138383D01*
X0091829Y0139957D01*
D16*
X0057645Y0136808D02*
X0057647Y0136875D01*
X0057653Y0136941D01*
X0057663Y0137007D01*
X0057677Y0137072D01*
X0057694Y0137136D01*
X0057716Y0137199D01*
X0057741Y0137261D01*
X0057770Y0137321D01*
X0057803Y0137379D01*
X0057838Y0137435D01*
X0057878Y0137489D01*
X0057920Y0137540D01*
X0057965Y0137589D01*
X0058013Y0137635D01*
X0058064Y0137678D01*
X0058117Y0137718D01*
X0058173Y0137755D01*
X0058231Y0137788D01*
X0058290Y0137818D01*
X0058351Y0137844D01*
X0058414Y0137867D01*
X0058478Y0137885D01*
X0058543Y0137900D01*
X0058609Y0137911D01*
X0058675Y0137918D01*
X0058741Y0137921D01*
X0058808Y0137920D01*
X0058874Y0137915D01*
X0058940Y0137906D01*
X0059006Y0137893D01*
X0059070Y0137876D01*
X0059133Y0137856D01*
X0059195Y0137831D01*
X0059256Y0137803D01*
X0059315Y0137772D01*
X0059371Y0137737D01*
X0059426Y0137699D01*
X0059478Y0137657D01*
X0059527Y0137612D01*
X0059574Y0137565D01*
X0059618Y0137515D01*
X0059658Y0137462D01*
X0059696Y0137407D01*
X0059730Y0137350D01*
X0059761Y0137291D01*
X0059788Y0137230D01*
X0059811Y0137168D01*
X0059831Y0137104D01*
X0059847Y0137039D01*
X0059859Y0136974D01*
X0059867Y0136908D01*
X0059871Y0136841D01*
X0059871Y0136775D01*
X0059867Y0136708D01*
X0059859Y0136642D01*
X0059847Y0136577D01*
X0059831Y0136512D01*
X0059811Y0136448D01*
X0059788Y0136386D01*
X0059761Y0136325D01*
X0059730Y0136266D01*
X0059696Y0136209D01*
X0059658Y0136154D01*
X0059618Y0136101D01*
X0059574Y0136051D01*
X0059527Y0136004D01*
X0059478Y0135959D01*
X0059426Y0135917D01*
X0059371Y0135879D01*
X0059314Y0135844D01*
X0059256Y0135813D01*
X0059195Y0135785D01*
X0059133Y0135760D01*
X0059070Y0135740D01*
X0059006Y0135723D01*
X0058940Y0135710D01*
X0058874Y0135701D01*
X0058808Y0135696D01*
X0058741Y0135695D01*
X0058675Y0135698D01*
X0058609Y0135705D01*
X0058543Y0135716D01*
X0058478Y0135731D01*
X0058414Y0135749D01*
X0058351Y0135772D01*
X0058290Y0135798D01*
X0058231Y0135828D01*
X0058173Y0135861D01*
X0058117Y0135898D01*
X0058064Y0135938D01*
X0058013Y0135981D01*
X0057965Y0136027D01*
X0057920Y0136076D01*
X0057878Y0136127D01*
X0057838Y0136181D01*
X0057803Y0136237D01*
X0057770Y0136295D01*
X0057741Y0136355D01*
X0057716Y0136417D01*
X0057694Y0136480D01*
X0057677Y0136544D01*
X0057663Y0136609D01*
X0057653Y0136675D01*
X0057647Y0136741D01*
X0057645Y0136808D01*
M02*
