G75*
%MOIN*%
%OFA0B0*%
%FSLAX24Y24*%
%IPPOS*%
%LPD*%
%AMOC8*
5,1,8,0,0,1.08239X$1,22.5*
%
%ADD10C,0.0502*%
%ADD11C,0.0300*%
%ADD12C,0.0480*%
%ADD13C,0.0650*%
%ADD14C,0.0140*%
%ADD15C,0.0180*%
%ADD16C,0.0160*%
%ADD17C,0.0050*%
%ADD18C,0.0354*%
%ADD19C,0.0230*%
%ADD20C,0.2565*%
D10*
X007422Y022245D03*
X009391Y022245D03*
D11*
X018354Y019675D03*
X018354Y019365D03*
X018354Y019055D03*
X018354Y018745D03*
X018664Y018745D03*
X018974Y018745D03*
X018974Y019055D03*
X018664Y019055D03*
X018664Y019365D03*
X018974Y019365D03*
X018974Y019675D03*
X018664Y019675D03*
X018664Y018435D03*
X018974Y018435D03*
X018354Y018435D03*
D12*
X015457Y016172D03*
X015196Y015303D03*
X014644Y014581D03*
X013887Y014093D03*
X013011Y013881D03*
X012113Y013973D03*
X011299Y014362D03*
X010663Y014999D03*
X011299Y015635D03*
X011936Y016271D03*
X012572Y015635D03*
X011936Y014999D03*
X012806Y014765D03*
X013682Y014977D03*
X014319Y015614D03*
X014545Y016505D03*
X015238Y017198D03*
X015005Y018067D03*
X014368Y017431D03*
X013732Y018067D03*
X014368Y018704D03*
X013499Y018937D03*
X012806Y018244D03*
X011915Y018018D03*
X011278Y017381D03*
X011066Y016505D03*
X010182Y016710D03*
X010394Y017587D03*
X010882Y018343D03*
X011603Y018895D03*
X012473Y019156D03*
X013039Y017374D03*
X013675Y016738D03*
X012806Y016505D03*
X013442Y015868D03*
X012169Y017141D03*
X010274Y015812D03*
D13*
X024544Y015937D03*
X024544Y014559D03*
X024544Y013181D03*
X024544Y011803D03*
X024544Y010425D03*
X024544Y009048D03*
X024544Y007670D03*
X024544Y017315D03*
X024544Y018693D03*
D14*
X021785Y018060D03*
X013029Y019976D03*
X011655Y021311D03*
X011775Y021721D03*
X011645Y022181D03*
X007432Y015752D03*
X007310Y015502D03*
X007800Y015422D03*
X008926Y015440D03*
X007816Y014138D03*
X008209Y013626D03*
X008499Y013717D03*
X008680Y013882D03*
X008488Y013310D03*
X008630Y012998D03*
X008345Y012413D03*
X008409Y012076D03*
X008279Y011836D03*
X008413Y011627D03*
X008279Y011382D03*
X007686Y011245D03*
X007453Y010968D03*
X007635Y010771D03*
X008394Y010577D03*
X008220Y009302D03*
X008113Y008939D03*
X008665Y008821D03*
X009013Y009367D03*
X009546Y009522D03*
X009845Y009740D03*
X010495Y009091D03*
X010935Y009211D03*
X011205Y009421D03*
X011385Y009601D03*
X010855Y008741D03*
X011370Y008192D03*
X011040Y007582D03*
X012769Y006095D03*
X013015Y006291D03*
X014520Y005492D03*
X015310Y005722D03*
X015360Y003932D03*
X014220Y003062D03*
X010652Y003222D03*
X006140Y009112D03*
X005850Y009632D03*
X005620Y010891D03*
X005577Y011777D03*
X005704Y012224D03*
X006073Y012517D03*
X006471Y012503D03*
X006470Y012107D03*
X006966Y011827D03*
X007356Y011818D03*
X007359Y012220D03*
X007425Y012432D03*
X007849Y012336D03*
X007849Y012104D03*
X007783Y011838D03*
X007849Y012713D03*
X007853Y013108D03*
X007559Y013201D03*
X007161Y013202D03*
X007158Y013642D03*
X007140Y012776D03*
X006883Y012786D03*
X006887Y012541D03*
X006473Y012910D03*
X006033Y013109D03*
X005796Y013549D03*
X005418Y015036D03*
X005136Y015263D03*
X002937Y012425D03*
X002955Y011901D03*
X006491Y011232D03*
X004687Y007769D03*
X003322Y006393D03*
X017580Y005312D03*
X018450Y005252D03*
X018620Y005482D03*
X019020Y005482D03*
X017760Y006482D03*
X018609Y008341D03*
X021210Y005552D03*
X022080Y006152D03*
X021960Y006572D03*
X021840Y006842D03*
X021668Y007392D03*
X021210Y004262D03*
D15*
X020720Y004082D03*
X021018Y003337D03*
X021900Y004142D03*
X020251Y005993D03*
X020310Y006262D03*
X020552Y006509D03*
X020772Y006719D03*
X021060Y006722D03*
X021270Y006512D03*
X021040Y009432D03*
X021040Y009712D03*
X021060Y010022D03*
X021060Y010322D03*
X021060Y010622D03*
X020469Y011111D03*
X019707Y011116D03*
X019415Y011120D03*
X018870Y011071D03*
X018970Y012182D03*
X018970Y012522D03*
X017570Y012732D03*
X017520Y013732D03*
X018970Y014082D03*
X020370Y012832D03*
X020370Y012532D03*
X021040Y014822D03*
X021340Y014812D03*
X021720Y015592D03*
X021120Y015952D03*
X021140Y016352D03*
X021120Y017162D03*
X020820Y017162D03*
X020820Y017462D03*
X020520Y017462D03*
X020520Y017162D03*
X020220Y017162D03*
X019655Y017421D03*
X019150Y017852D03*
X018660Y017862D03*
X018160Y017862D03*
X018300Y017072D03*
X018240Y016362D03*
X018240Y015862D03*
X016470Y015482D03*
X015660Y016772D03*
X017030Y019046D03*
X015180Y020612D03*
X015030Y020282D03*
X014880Y019982D03*
X015555Y021872D03*
X014972Y022907D03*
X013620Y023582D03*
X013270Y023582D03*
X012920Y023582D03*
X012570Y023582D03*
X012220Y023582D03*
X011200Y023522D03*
X010840Y023522D03*
X010470Y023522D03*
X010980Y022692D03*
X011775Y022471D03*
X011020Y021682D03*
X011020Y021382D03*
X011020Y021082D03*
X011020Y020782D03*
X010560Y021362D03*
X010200Y021242D03*
X010080Y020882D03*
X010120Y020082D03*
X010120Y019782D03*
X008460Y020002D03*
X008480Y019352D03*
X008110Y019342D03*
X007740Y019322D03*
X006300Y019322D03*
X005940Y019382D03*
X005280Y018902D03*
X004860Y017522D03*
X005520Y017102D03*
X003960Y017312D03*
X003560Y017312D03*
X002940Y016562D03*
X002900Y014912D03*
X002900Y014592D03*
X003260Y014582D03*
X002935Y014081D03*
X003750Y013472D03*
X004468Y013200D03*
X004320Y012902D03*
X005340Y014222D03*
X004800Y015272D03*
X008012Y015600D03*
X008610Y015452D03*
X009480Y015722D03*
X009660Y015962D03*
X009360Y016022D03*
X008190Y017162D03*
X008040Y017522D03*
X009540Y014342D03*
X010200Y013562D03*
X010260Y012362D03*
X010260Y012062D03*
X009990Y012212D03*
X010230Y011732D03*
X010050Y011492D03*
X009566Y010565D03*
X009690Y010082D03*
X009540Y009842D03*
X009390Y010082D03*
X009170Y009732D03*
X009125Y009111D03*
X008601Y009117D03*
X009545Y008441D03*
X009300Y008162D03*
X010685Y008241D03*
X011305Y008471D03*
X011367Y009912D03*
X011635Y010481D03*
X011905Y010281D03*
X012670Y010782D03*
X012490Y011022D03*
X012790Y011082D03*
X013220Y011382D03*
X013520Y011382D03*
X013420Y011132D03*
X013720Y011132D03*
X014720Y011382D03*
X015020Y011382D03*
X015020Y011082D03*
X015320Y011082D03*
X015755Y013018D03*
X015438Y013140D03*
X016170Y013082D03*
X012100Y012942D03*
X011760Y012942D03*
X011420Y012942D03*
X011480Y012222D03*
X007775Y008151D03*
X007860Y006842D03*
X008220Y006842D03*
X008580Y006842D03*
X007620Y006372D03*
X007660Y005722D03*
X006660Y005022D03*
X006710Y004472D03*
X005908Y004952D03*
X005640Y005052D03*
X004430Y005042D03*
X003431Y005042D03*
X003313Y005746D03*
X003850Y007922D03*
X004460Y008262D03*
X004470Y008552D03*
X004860Y008162D03*
X003780Y009622D03*
X003750Y009962D03*
X004070Y009932D03*
X004830Y010022D03*
X004980Y009722D03*
X004860Y010472D03*
X004080Y011192D03*
X003438Y011422D03*
X002955Y010271D03*
X002930Y008612D03*
X002930Y008312D03*
X006425Y008161D03*
X006520Y009632D03*
X006810Y009602D03*
X009660Y006362D03*
X009510Y006032D03*
X009365Y005677D03*
X009134Y005449D03*
X010290Y006032D03*
X010464Y005819D03*
X010290Y006362D03*
X010410Y006662D03*
X011586Y006867D03*
X011700Y005822D03*
X011040Y005282D03*
X011059Y004239D03*
X012390Y002977D03*
X012480Y003422D03*
X012937Y003126D03*
X013290Y003572D03*
X013680Y003062D03*
X013920Y003362D03*
X013740Y001952D03*
X015060Y002222D03*
X015630Y001892D03*
X016170Y001892D03*
X017534Y002327D03*
X017970Y003422D03*
X018720Y001622D03*
X021000Y001922D03*
X021420Y001682D03*
X021870Y001892D03*
X018150Y005342D03*
X016954Y006336D03*
X016230Y006122D03*
X016170Y005282D03*
X016710Y005312D03*
X017938Y006921D03*
X017590Y007342D03*
X016320Y008282D03*
X015660Y008282D03*
X015360Y008282D03*
X015510Y007772D03*
X015210Y007742D03*
X015000Y007952D03*
X014760Y007742D03*
X014320Y007732D03*
X014970Y007112D03*
X015150Y007412D03*
X014730Y006842D03*
X014472Y006586D03*
X013020Y005522D03*
X012810Y005342D03*
X012790Y005682D03*
X012990Y007742D03*
X009240Y003902D03*
X008593Y003936D03*
X007980Y003722D03*
X007620Y003722D03*
X006690Y002402D03*
X006420Y001982D03*
X007560Y001712D03*
X007860Y001622D03*
X008640Y001922D03*
X011010Y001922D03*
X015300Y003662D03*
X020520Y018062D03*
X020820Y018062D03*
X020520Y018362D03*
X020600Y018682D03*
X020990Y018682D03*
X021120Y018362D03*
X021070Y019982D03*
X021070Y020282D03*
X021070Y020582D03*
X020770Y020582D03*
X020770Y020282D03*
X020770Y019982D03*
X022020Y021382D03*
X021820Y021582D03*
X021620Y021782D03*
X021020Y022382D03*
X022240Y021162D03*
X019104Y022420D03*
X018819Y022426D03*
X018785Y021492D03*
X017460Y021572D03*
X016810Y021572D03*
X012449Y019986D03*
D16*
X017040Y008342D03*
X016800Y008102D03*
X019033Y005895D03*
D17*
X026003Y001172D02*
X002670Y001172D01*
X002670Y023710D01*
X010381Y023710D01*
X010274Y023603D01*
X010274Y023441D01*
X010389Y023326D01*
X010551Y023326D01*
X010655Y023430D01*
X010759Y023326D01*
X010921Y023326D01*
X011020Y023425D01*
X011119Y023326D01*
X011281Y023326D01*
X011395Y023441D01*
X011395Y023603D01*
X011288Y023711D01*
X026021Y023712D01*
X026003Y001172D01*
X026003Y001208D02*
X002670Y001208D01*
X002670Y001256D02*
X026003Y001256D01*
X026003Y001305D02*
X002670Y001305D01*
X002670Y001353D02*
X026003Y001353D01*
X026003Y001402D02*
X002670Y001402D01*
X002670Y001450D02*
X003797Y001450D01*
X003908Y001421D02*
X004273Y001421D01*
X004626Y001515D01*
X004943Y001698D01*
X005201Y001957D01*
X005384Y002273D01*
X005479Y002626D01*
X005479Y002992D01*
X005384Y003345D01*
X005201Y003662D01*
X004943Y003920D01*
X004626Y004103D01*
X004273Y004198D01*
X003908Y004198D01*
X003554Y004103D01*
X003238Y003920D01*
X002979Y003662D01*
X002797Y003345D01*
X002702Y002992D01*
X002702Y002626D01*
X002797Y002273D01*
X002979Y001957D01*
X003238Y001698D01*
X003554Y001515D01*
X003908Y001421D01*
X003616Y001499D02*
X002670Y001499D01*
X002670Y001547D02*
X003499Y001547D01*
X003415Y001596D02*
X002670Y001596D01*
X002670Y001644D02*
X003331Y001644D01*
X003247Y001693D02*
X002670Y001693D01*
X002670Y001741D02*
X003195Y001741D01*
X003146Y001790D02*
X002670Y001790D01*
X002670Y001838D02*
X003098Y001838D01*
X003049Y001887D02*
X002670Y001887D01*
X002670Y001935D02*
X003001Y001935D01*
X002964Y001984D02*
X002670Y001984D01*
X002670Y002032D02*
X002936Y002032D01*
X002908Y002081D02*
X002670Y002081D01*
X002670Y002129D02*
X002880Y002129D01*
X002852Y002178D02*
X002670Y002178D01*
X002670Y002226D02*
X002824Y002226D01*
X002796Y002275D02*
X002670Y002275D01*
X002670Y002323D02*
X002783Y002323D01*
X002770Y002372D02*
X002670Y002372D01*
X002670Y002420D02*
X002757Y002420D01*
X002744Y002469D02*
X002670Y002469D01*
X002670Y002517D02*
X002731Y002517D01*
X002718Y002566D02*
X002670Y002566D01*
X002670Y002614D02*
X002705Y002614D01*
X002702Y002663D02*
X002670Y002663D01*
X002670Y002711D02*
X002702Y002711D01*
X002702Y002760D02*
X002670Y002760D01*
X002670Y002808D02*
X002702Y002808D01*
X002702Y002857D02*
X002670Y002857D01*
X002670Y002905D02*
X002702Y002905D01*
X002702Y002954D02*
X002670Y002954D01*
X002670Y003002D02*
X002705Y003002D01*
X002718Y003051D02*
X002670Y003051D01*
X002670Y003099D02*
X002731Y003099D01*
X002744Y003148D02*
X002670Y003148D01*
X002670Y003196D02*
X002757Y003196D01*
X002770Y003245D02*
X002670Y003245D01*
X002670Y003293D02*
X002783Y003293D01*
X002796Y003342D02*
X002670Y003342D01*
X002670Y003390D02*
X002823Y003390D01*
X002851Y003439D02*
X002670Y003439D01*
X002670Y003487D02*
X002879Y003487D01*
X002907Y003536D02*
X002670Y003536D01*
X002670Y003584D02*
X002935Y003584D01*
X002963Y003633D02*
X002670Y003633D01*
X002670Y003681D02*
X002999Y003681D01*
X003048Y003730D02*
X002670Y003730D01*
X002670Y003778D02*
X003096Y003778D01*
X003145Y003827D02*
X002670Y003827D01*
X002670Y003875D02*
X003193Y003875D01*
X003244Y003924D02*
X002670Y003924D01*
X002670Y003972D02*
X003328Y003972D01*
X003412Y004021D02*
X002670Y004021D01*
X002670Y004069D02*
X003496Y004069D01*
X003610Y004118D02*
X002670Y004118D01*
X002670Y004166D02*
X003791Y004166D01*
X004389Y004166D02*
X010863Y004166D01*
X010863Y004158D02*
X010978Y004043D01*
X011140Y004043D01*
X011255Y004158D01*
X011255Y004320D01*
X011140Y004435D01*
X010978Y004435D01*
X010863Y004320D01*
X010863Y004158D01*
X010903Y004118D02*
X008688Y004118D01*
X008674Y004132D02*
X008512Y004132D01*
X008397Y004018D01*
X008397Y003855D01*
X008512Y003741D01*
X008674Y003741D01*
X008789Y003855D01*
X008789Y004018D01*
X008674Y004132D01*
X008737Y004069D02*
X010952Y004069D01*
X010863Y004215D02*
X002670Y004215D01*
X002670Y004263D02*
X010863Y004263D01*
X010863Y004312D02*
X002670Y004312D01*
X002670Y004360D02*
X010904Y004360D01*
X010952Y004409D02*
X002670Y004409D01*
X002670Y004457D02*
X026006Y004457D01*
X026006Y004409D02*
X011166Y004409D01*
X011214Y004360D02*
X026006Y004360D01*
X026005Y004312D02*
X022007Y004312D01*
X021981Y004338D02*
X021819Y004338D01*
X021704Y004223D01*
X021704Y004061D01*
X021819Y003946D01*
X021981Y003946D01*
X022095Y004061D01*
X022095Y004223D01*
X021981Y004338D01*
X022055Y004263D02*
X026005Y004263D01*
X026005Y004215D02*
X022095Y004215D01*
X022095Y004166D02*
X023980Y004166D01*
X024047Y004184D02*
X023694Y004090D01*
X023377Y003907D01*
X023119Y003649D01*
X022936Y003332D01*
X022841Y002979D01*
X022841Y002613D01*
X022936Y002260D01*
X023119Y001944D01*
X023377Y001685D01*
X023694Y001502D01*
X024047Y001408D01*
X024412Y001408D01*
X024766Y001502D01*
X025082Y001685D01*
X025341Y001944D01*
X025523Y002260D01*
X025618Y002613D01*
X025618Y002979D01*
X025523Y003332D01*
X025341Y003649D01*
X025082Y003907D01*
X024766Y004090D01*
X024412Y004184D01*
X024047Y004184D01*
X023799Y004118D02*
X022095Y004118D01*
X022095Y004069D02*
X023659Y004069D01*
X023575Y004021D02*
X022055Y004021D01*
X022007Y003972D02*
X023490Y003972D01*
X023406Y003924D02*
X020838Y003924D01*
X020801Y003886D02*
X020915Y004001D01*
X020915Y004163D01*
X020801Y004278D01*
X020639Y004278D01*
X020524Y004163D01*
X020524Y004001D01*
X020639Y003886D01*
X020801Y003886D01*
X020887Y003972D02*
X021793Y003972D01*
X021744Y004021D02*
X020915Y004021D01*
X020915Y004069D02*
X021704Y004069D01*
X021704Y004118D02*
X020915Y004118D01*
X020912Y004166D02*
X021704Y004166D01*
X021704Y004215D02*
X020864Y004215D01*
X020815Y004263D02*
X021744Y004263D01*
X021793Y004312D02*
X011255Y004312D01*
X011255Y004263D02*
X020624Y004263D01*
X020576Y004215D02*
X011255Y004215D01*
X011255Y004166D02*
X020527Y004166D01*
X020524Y004118D02*
X011215Y004118D01*
X011166Y004069D02*
X020524Y004069D01*
X020524Y004021D02*
X008785Y004021D01*
X008789Y003972D02*
X020553Y003972D01*
X020601Y003924D02*
X008789Y003924D01*
X008789Y003875D02*
X023346Y003875D01*
X023297Y003827D02*
X015412Y003827D01*
X015381Y003858D02*
X015219Y003858D01*
X015104Y003743D01*
X015104Y003581D01*
X015219Y003466D01*
X015381Y003466D01*
X015495Y003581D01*
X015495Y003743D01*
X015381Y003858D01*
X015460Y003778D02*
X023249Y003778D01*
X023200Y003730D02*
X015495Y003730D01*
X015495Y003681D02*
X023152Y003681D01*
X023110Y003633D02*
X015495Y003633D01*
X015495Y003584D02*
X023082Y003584D01*
X023054Y003536D02*
X015450Y003536D01*
X015402Y003487D02*
X020891Y003487D01*
X020937Y003533D02*
X020822Y003418D01*
X020822Y003256D01*
X020937Y003142D01*
X021099Y003142D01*
X021213Y003256D01*
X021213Y003418D01*
X021099Y003533D01*
X020937Y003533D01*
X020842Y003439D02*
X014115Y003439D01*
X014115Y003443D02*
X014001Y003558D01*
X013839Y003558D01*
X013724Y003443D01*
X013724Y003281D01*
X013747Y003258D01*
X013599Y003258D01*
X013484Y003143D01*
X013484Y002981D01*
X013599Y002866D01*
X013761Y002866D01*
X013875Y002981D01*
X013875Y003143D01*
X013852Y003166D01*
X014001Y003166D01*
X014115Y003281D01*
X014115Y003443D01*
X014115Y003390D02*
X020822Y003390D01*
X020822Y003342D02*
X014115Y003342D01*
X014115Y003293D02*
X020822Y003293D01*
X020833Y003245D02*
X014079Y003245D01*
X014105Y003196D02*
X014031Y003196D01*
X014057Y003148D02*
X013871Y003148D01*
X013875Y003099D02*
X014044Y003099D01*
X014044Y003135D02*
X014044Y002989D01*
X014147Y002886D01*
X014292Y002886D01*
X014395Y002989D01*
X014395Y003135D01*
X014292Y003238D01*
X014147Y003238D01*
X014044Y003135D01*
X014044Y003051D02*
X013875Y003051D01*
X013875Y003002D02*
X014044Y003002D01*
X014079Y002954D02*
X013848Y002954D01*
X013800Y002905D02*
X014128Y002905D01*
X014311Y002905D02*
X022841Y002905D01*
X022841Y002857D02*
X012546Y002857D01*
X012586Y002896D02*
X012471Y002782D01*
X012309Y002782D01*
X012194Y002896D01*
X012194Y003059D01*
X012309Y003173D01*
X012471Y003173D01*
X012586Y003059D01*
X012586Y002896D01*
X012586Y002905D02*
X013560Y002905D01*
X013511Y002954D02*
X013041Y002954D01*
X013018Y002930D02*
X013132Y003045D01*
X013132Y003207D01*
X013018Y003322D01*
X012856Y003322D01*
X012741Y003207D01*
X012741Y003045D01*
X012856Y002930D01*
X013018Y002930D01*
X013090Y003002D02*
X013484Y003002D01*
X013484Y003051D02*
X013132Y003051D01*
X013132Y003099D02*
X013484Y003099D01*
X013489Y003148D02*
X013132Y003148D01*
X013132Y003196D02*
X013537Y003196D01*
X013586Y003245D02*
X013094Y003245D01*
X013046Y003293D02*
X013724Y003293D01*
X013724Y003342D02*
X010780Y003342D01*
X010827Y003295D02*
X010724Y003398D01*
X010579Y003398D01*
X010476Y003295D01*
X010476Y003149D01*
X010579Y003046D01*
X010724Y003046D01*
X010827Y003149D01*
X010827Y003295D01*
X010827Y003293D02*
X012827Y003293D01*
X012779Y003245D02*
X010827Y003245D01*
X010827Y003196D02*
X012741Y003196D01*
X012741Y003148D02*
X012496Y003148D01*
X012545Y003099D02*
X012741Y003099D01*
X012741Y003051D02*
X012586Y003051D01*
X012586Y003002D02*
X012783Y003002D01*
X012832Y002954D02*
X012586Y002954D01*
X012498Y002808D02*
X022841Y002808D01*
X022841Y002760D02*
X005479Y002760D01*
X005479Y002808D02*
X012282Y002808D01*
X012234Y002857D02*
X005479Y002857D01*
X005479Y002905D02*
X012194Y002905D01*
X012194Y002954D02*
X005479Y002954D01*
X005476Y003002D02*
X012194Y003002D01*
X012194Y003051D02*
X010729Y003051D01*
X010777Y003099D02*
X012235Y003099D01*
X012284Y003148D02*
X010826Y003148D01*
X010732Y003390D02*
X013195Y003390D01*
X013209Y003376D02*
X013371Y003376D01*
X013485Y003491D01*
X013485Y003653D01*
X013371Y003768D01*
X013209Y003768D01*
X013094Y003653D01*
X013094Y003491D01*
X013209Y003376D01*
X013146Y003439D02*
X005330Y003439D01*
X005302Y003487D02*
X013098Y003487D01*
X013094Y003536D02*
X005274Y003536D01*
X005246Y003584D02*
X013094Y003584D01*
X013094Y003633D02*
X005218Y003633D01*
X005182Y003681D02*
X013122Y003681D01*
X013171Y003730D02*
X005133Y003730D01*
X005085Y003778D02*
X008474Y003778D01*
X008426Y003827D02*
X005036Y003827D01*
X004988Y003875D02*
X008397Y003875D01*
X008397Y003924D02*
X004936Y003924D01*
X004852Y003972D02*
X008397Y003972D01*
X008401Y004021D02*
X004768Y004021D01*
X004684Y004069D02*
X008449Y004069D01*
X008498Y004118D02*
X004570Y004118D01*
X005358Y003390D02*
X010571Y003390D01*
X010523Y003342D02*
X005385Y003342D01*
X005398Y003293D02*
X010476Y003293D01*
X010476Y003245D02*
X005411Y003245D01*
X005424Y003196D02*
X010476Y003196D01*
X010477Y003148D02*
X005437Y003148D01*
X005450Y003099D02*
X010526Y003099D01*
X010574Y003051D02*
X005463Y003051D01*
X005479Y002711D02*
X022841Y002711D01*
X022841Y002663D02*
X005479Y002663D01*
X005476Y002614D02*
X022841Y002614D01*
X022854Y002566D02*
X005463Y002566D01*
X005450Y002517D02*
X017448Y002517D01*
X017453Y002523D02*
X017339Y002408D01*
X017339Y002246D01*
X017453Y002132D01*
X017615Y002132D01*
X017730Y002246D01*
X017730Y002408D01*
X017615Y002523D01*
X017453Y002523D01*
X017399Y002469D02*
X005437Y002469D01*
X005424Y002420D02*
X017351Y002420D01*
X017339Y002372D02*
X015187Y002372D01*
X015141Y002418D02*
X015255Y002303D01*
X015255Y002141D01*
X015141Y002026D01*
X014979Y002026D01*
X014864Y002141D01*
X014864Y002303D01*
X014979Y002418D01*
X015141Y002418D01*
X015235Y002323D02*
X017339Y002323D01*
X017339Y002275D02*
X015255Y002275D01*
X015255Y002226D02*
X017359Y002226D01*
X017407Y002178D02*
X015255Y002178D01*
X015244Y002129D02*
X023011Y002129D01*
X023039Y002081D02*
X021958Y002081D01*
X021951Y002088D02*
X021789Y002088D01*
X021674Y001973D01*
X021674Y001811D01*
X021789Y001696D01*
X021951Y001696D01*
X022065Y001811D01*
X022065Y001973D01*
X021951Y002088D01*
X022006Y002032D02*
X023067Y002032D01*
X023095Y001984D02*
X022055Y001984D01*
X022065Y001935D02*
X023127Y001935D01*
X023175Y001887D02*
X022065Y001887D01*
X022065Y001838D02*
X023224Y001838D01*
X023272Y001790D02*
X022044Y001790D01*
X021996Y001741D02*
X023321Y001741D01*
X023369Y001693D02*
X021615Y001693D01*
X021615Y001741D02*
X021744Y001741D01*
X021695Y001790D02*
X021589Y001790D01*
X021615Y001763D02*
X021501Y001878D01*
X021339Y001878D01*
X021224Y001763D01*
X021224Y001601D01*
X021339Y001486D01*
X021501Y001486D01*
X021615Y001601D01*
X021615Y001763D01*
X021674Y001838D02*
X021540Y001838D01*
X021674Y001887D02*
X021195Y001887D01*
X021195Y001841D02*
X021195Y002003D01*
X021081Y002118D01*
X020919Y002118D01*
X020804Y002003D01*
X020804Y001841D01*
X020919Y001726D01*
X021081Y001726D01*
X021195Y001841D01*
X021193Y001838D02*
X021299Y001838D01*
X021251Y001790D02*
X021144Y001790D01*
X021096Y001741D02*
X021224Y001741D01*
X021224Y001693D02*
X018915Y001693D01*
X018915Y001703D02*
X018801Y001818D01*
X018639Y001818D01*
X018524Y001703D01*
X018524Y001541D01*
X018639Y001426D01*
X018801Y001426D01*
X018915Y001541D01*
X018915Y001703D01*
X018877Y001741D02*
X020904Y001741D01*
X020855Y001790D02*
X018829Y001790D01*
X018915Y001644D02*
X021224Y001644D01*
X021229Y001596D02*
X018915Y001596D01*
X018915Y001547D02*
X021278Y001547D01*
X021326Y001499D02*
X018873Y001499D01*
X018825Y001450D02*
X023887Y001450D01*
X023706Y001499D02*
X021513Y001499D01*
X021562Y001547D02*
X023616Y001547D01*
X023532Y001596D02*
X021610Y001596D01*
X021615Y001644D02*
X023448Y001644D01*
X022983Y002178D02*
X017662Y002178D01*
X017710Y002226D02*
X022955Y002226D01*
X022932Y002275D02*
X017730Y002275D01*
X017730Y002323D02*
X022919Y002323D01*
X022906Y002372D02*
X017730Y002372D01*
X017718Y002420D02*
X022893Y002420D01*
X022880Y002469D02*
X017670Y002469D01*
X017621Y002517D02*
X022867Y002517D01*
X022841Y002954D02*
X014360Y002954D01*
X014395Y003002D02*
X022848Y003002D01*
X022861Y003051D02*
X014395Y003051D01*
X014395Y003099D02*
X022874Y003099D01*
X022887Y003148D02*
X021105Y003148D01*
X021154Y003196D02*
X022900Y003196D01*
X022913Y003245D02*
X021202Y003245D01*
X021213Y003293D02*
X022926Y003293D01*
X022942Y003342D02*
X021213Y003342D01*
X021213Y003390D02*
X022970Y003390D01*
X022998Y003439D02*
X021193Y003439D01*
X021144Y003487D02*
X023026Y003487D01*
X024479Y004166D02*
X026005Y004166D01*
X026005Y004118D02*
X024660Y004118D01*
X024801Y004069D02*
X026005Y004069D01*
X026005Y004021D02*
X024885Y004021D01*
X024969Y003972D02*
X026005Y003972D01*
X026005Y003924D02*
X025053Y003924D01*
X025114Y003875D02*
X026005Y003875D01*
X026005Y003827D02*
X025162Y003827D01*
X025211Y003778D02*
X026005Y003778D01*
X026005Y003730D02*
X025259Y003730D01*
X025308Y003681D02*
X026005Y003681D01*
X026005Y003633D02*
X025350Y003633D01*
X025378Y003584D02*
X026005Y003584D01*
X026005Y003536D02*
X025406Y003536D01*
X025434Y003487D02*
X026005Y003487D01*
X026005Y003439D02*
X025462Y003439D01*
X025490Y003390D02*
X026005Y003390D01*
X026005Y003342D02*
X025518Y003342D01*
X025534Y003293D02*
X026005Y003293D01*
X026005Y003245D02*
X025547Y003245D01*
X025560Y003196D02*
X026005Y003196D01*
X026005Y003148D02*
X025573Y003148D01*
X025586Y003099D02*
X026004Y003099D01*
X026004Y003051D02*
X025599Y003051D01*
X025612Y003002D02*
X026004Y003002D01*
X026004Y002954D02*
X025618Y002954D01*
X025618Y002905D02*
X026004Y002905D01*
X026004Y002857D02*
X025618Y002857D01*
X025618Y002808D02*
X026004Y002808D01*
X026004Y002760D02*
X025618Y002760D01*
X025618Y002711D02*
X026004Y002711D01*
X026004Y002663D02*
X025618Y002663D01*
X025618Y002614D02*
X026004Y002614D01*
X026004Y002566D02*
X025605Y002566D01*
X025592Y002517D02*
X026004Y002517D01*
X026004Y002469D02*
X025579Y002469D01*
X025566Y002420D02*
X026004Y002420D01*
X026004Y002372D02*
X025553Y002372D01*
X025540Y002323D02*
X026004Y002323D01*
X026004Y002275D02*
X025527Y002275D01*
X025504Y002226D02*
X026004Y002226D01*
X026004Y002178D02*
X025476Y002178D01*
X025448Y002129D02*
X026004Y002129D01*
X026004Y002081D02*
X025420Y002081D01*
X025392Y002032D02*
X026004Y002032D01*
X026004Y001984D02*
X025364Y001984D01*
X025333Y001935D02*
X026004Y001935D01*
X026004Y001887D02*
X025284Y001887D01*
X025236Y001838D02*
X026003Y001838D01*
X026003Y001790D02*
X025187Y001790D01*
X025139Y001741D02*
X026003Y001741D01*
X026003Y001693D02*
X025090Y001693D01*
X025012Y001644D02*
X026003Y001644D01*
X026003Y001596D02*
X024928Y001596D01*
X024844Y001547D02*
X026003Y001547D01*
X026003Y001499D02*
X024753Y001499D01*
X024572Y001450D02*
X026003Y001450D01*
X026006Y004506D02*
X002670Y004506D01*
X002670Y004554D02*
X026006Y004554D01*
X026006Y004603D02*
X002670Y004603D01*
X002670Y004651D02*
X026006Y004651D01*
X026006Y004700D02*
X002670Y004700D01*
X002670Y004748D02*
X026006Y004748D01*
X026006Y004797D02*
X002670Y004797D01*
X002670Y004845D02*
X026006Y004845D01*
X026006Y004894D02*
X003559Y004894D01*
X003512Y004847D02*
X003627Y004961D01*
X003627Y005123D01*
X003512Y005238D01*
X003350Y005238D01*
X003235Y005123D01*
X003235Y004961D01*
X003350Y004847D01*
X003512Y004847D01*
X003608Y004942D02*
X026006Y004942D01*
X026006Y004991D02*
X003627Y004991D01*
X003627Y005039D02*
X026006Y005039D01*
X026006Y005088D02*
X003627Y005088D01*
X003614Y005136D02*
X016609Y005136D01*
X016629Y005116D02*
X016514Y005231D01*
X016514Y005393D01*
X016629Y005508D01*
X016791Y005508D01*
X016905Y005393D01*
X016905Y005231D01*
X016791Y005116D01*
X016629Y005116D01*
X016560Y005185D02*
X012929Y005185D01*
X012891Y005146D02*
X013005Y005261D01*
X013005Y005326D01*
X013101Y005326D01*
X013215Y005441D01*
X013215Y005603D01*
X013101Y005718D01*
X012985Y005718D01*
X012985Y005763D01*
X012871Y005878D01*
X012709Y005878D01*
X012594Y005763D01*
X012594Y005601D01*
X012693Y005502D01*
X012614Y005423D01*
X012614Y005261D01*
X012729Y005146D01*
X012891Y005146D01*
X012978Y005233D02*
X016514Y005233D01*
X016514Y005282D02*
X013005Y005282D01*
X013105Y005330D02*
X014433Y005330D01*
X014447Y005316D02*
X014592Y005316D01*
X014695Y005419D01*
X014695Y005565D01*
X014592Y005668D01*
X014447Y005668D01*
X014344Y005565D01*
X014344Y005419D01*
X014447Y005316D01*
X014384Y005379D02*
X013153Y005379D01*
X013202Y005427D02*
X014344Y005427D01*
X014344Y005476D02*
X013215Y005476D01*
X013215Y005524D02*
X014344Y005524D01*
X014352Y005573D02*
X013215Y005573D01*
X013197Y005621D02*
X014401Y005621D01*
X014639Y005621D02*
X015162Y005621D01*
X015134Y005649D02*
X015237Y005546D01*
X015382Y005546D01*
X015485Y005649D01*
X015485Y005795D01*
X015382Y005898D01*
X015237Y005898D01*
X015134Y005795D01*
X015134Y005649D01*
X015134Y005670D02*
X013149Y005670D01*
X012985Y005718D02*
X015134Y005718D01*
X015134Y005767D02*
X012982Y005767D01*
X012933Y005815D02*
X015155Y005815D01*
X015203Y005864D02*
X012885Y005864D01*
X012842Y005920D02*
X012945Y006022D01*
X012945Y006115D01*
X013088Y006115D01*
X013191Y006218D01*
X013191Y006363D01*
X013088Y006466D01*
X013024Y006466D01*
X012246Y007245D01*
X012169Y007321D01*
X009449Y007321D01*
X008489Y008281D01*
X007921Y008281D01*
X007856Y008346D01*
X007694Y008346D01*
X007579Y008232D01*
X007579Y008121D01*
X007409Y008291D01*
X006571Y008291D01*
X006506Y008356D01*
X006344Y008356D01*
X006229Y008242D01*
X006229Y008079D01*
X006344Y007965D01*
X006506Y007965D01*
X006571Y008030D01*
X007301Y008030D01*
X007554Y007776D01*
X007631Y007700D01*
X008211Y007700D01*
X009081Y006830D01*
X010301Y006830D01*
X010214Y006743D01*
X010214Y006581D01*
X010237Y006558D01*
X010209Y006558D01*
X010094Y006443D01*
X010094Y006281D01*
X010178Y006197D01*
X010094Y006113D01*
X010094Y005951D01*
X010209Y005836D01*
X010268Y005836D01*
X010268Y005738D01*
X010383Y005623D01*
X010545Y005623D01*
X010659Y005738D01*
X010659Y005900D01*
X010545Y006014D01*
X010485Y006014D01*
X010485Y006113D01*
X010401Y006197D01*
X010485Y006281D01*
X010485Y006443D01*
X010462Y006466D01*
X010491Y006466D01*
X010605Y006581D01*
X010605Y006655D01*
X011224Y006036D01*
X011301Y005960D01*
X011561Y005960D01*
X011504Y005903D01*
X011504Y005741D01*
X011619Y005626D01*
X011781Y005626D01*
X011895Y005741D01*
X011895Y005903D01*
X011839Y005960D01*
X012656Y005960D01*
X012696Y005920D01*
X012842Y005920D01*
X012883Y005961D02*
X016114Y005961D01*
X016149Y005926D02*
X016311Y005926D01*
X016425Y006041D01*
X016425Y006203D01*
X016311Y006318D01*
X016149Y006318D01*
X016034Y006203D01*
X016034Y006041D01*
X016149Y005926D01*
X016066Y006009D02*
X012932Y006009D01*
X012945Y006058D02*
X016034Y006058D01*
X016034Y006106D02*
X012945Y006106D01*
X012769Y006095D02*
X012725Y006091D01*
X011355Y006091D01*
X010485Y006961D01*
X009135Y006961D01*
X008265Y007831D01*
X007685Y007831D01*
X007355Y008161D01*
X006425Y008161D01*
X006277Y008289D02*
X004655Y008289D01*
X004655Y008337D02*
X006325Y008337D01*
X006229Y008240D02*
X004655Y008240D01*
X004655Y008192D02*
X006229Y008192D01*
X006229Y008143D02*
X004618Y008143D01*
X004655Y008181D02*
X004655Y008343D01*
X004596Y008402D01*
X004665Y008471D01*
X004665Y008633D01*
X004551Y008748D01*
X004389Y008748D01*
X004274Y008633D01*
X004274Y008471D01*
X004333Y008412D01*
X004264Y008343D01*
X004264Y008181D01*
X004379Y008066D01*
X004541Y008066D01*
X004655Y008181D01*
X004569Y008095D02*
X006229Y008095D01*
X006262Y008046D02*
X004002Y008046D01*
X004045Y008003D02*
X003931Y008118D01*
X003769Y008118D01*
X003654Y008003D01*
X003654Y007841D01*
X003769Y007726D01*
X003931Y007726D01*
X004045Y007841D01*
X004045Y008003D01*
X004045Y007998D02*
X006311Y007998D01*
X006539Y007998D02*
X007333Y007998D01*
X007381Y007949D02*
X004045Y007949D01*
X004045Y007901D02*
X004571Y007901D01*
X004614Y007944D02*
X004511Y007841D01*
X004511Y007696D01*
X004614Y007593D01*
X004760Y007593D01*
X004863Y007696D01*
X004863Y007841D01*
X004760Y007944D01*
X004614Y007944D01*
X004522Y007852D02*
X004045Y007852D01*
X004008Y007804D02*
X004511Y007804D01*
X004511Y007755D02*
X003960Y007755D01*
X003740Y007755D02*
X002670Y007755D01*
X002670Y007707D02*
X004511Y007707D01*
X004549Y007658D02*
X002670Y007658D01*
X002670Y007610D02*
X004597Y007610D01*
X004777Y007610D02*
X008301Y007610D01*
X008349Y007561D02*
X002670Y007561D01*
X002670Y007513D02*
X008398Y007513D01*
X008446Y007464D02*
X002670Y007464D01*
X002670Y007416D02*
X008495Y007416D01*
X008543Y007367D02*
X002670Y007367D01*
X002670Y007319D02*
X008592Y007319D01*
X008640Y007270D02*
X002670Y007270D01*
X002670Y007222D02*
X008689Y007222D01*
X008737Y007173D02*
X002670Y007173D01*
X002670Y007125D02*
X008786Y007125D01*
X008834Y007076D02*
X002670Y007076D01*
X002670Y007028D02*
X008883Y007028D01*
X008931Y006979D02*
X002670Y006979D01*
X002670Y006931D02*
X008980Y006931D01*
X009028Y006882D02*
X002670Y006882D01*
X002670Y006834D02*
X009077Y006834D01*
X009395Y007191D02*
X008435Y008151D01*
X007775Y008151D01*
X007913Y008289D02*
X009150Y008289D01*
X009104Y008243D02*
X009104Y008081D01*
X009219Y007966D01*
X009381Y007966D01*
X009495Y008081D01*
X009495Y008243D01*
X009381Y008358D01*
X009219Y008358D01*
X009104Y008243D01*
X009104Y008240D02*
X008530Y008240D01*
X008578Y008192D02*
X009104Y008192D01*
X009104Y008143D02*
X008627Y008143D01*
X008675Y008095D02*
X009104Y008095D01*
X009139Y008046D02*
X008724Y008046D01*
X008772Y007998D02*
X009187Y007998D01*
X009412Y007998D02*
X014804Y007998D01*
X014804Y008033D02*
X014804Y007938D01*
X014679Y007938D01*
X014564Y007823D01*
X014564Y007661D01*
X014679Y007546D01*
X014841Y007546D01*
X014955Y007661D01*
X014955Y007756D01*
X015014Y007756D01*
X015014Y007661D01*
X015068Y007607D01*
X014954Y007493D01*
X014954Y007331D01*
X014977Y007308D01*
X014889Y007308D01*
X014774Y007193D01*
X014774Y007038D01*
X014649Y007038D01*
X014534Y006923D01*
X014534Y006782D01*
X014391Y006782D01*
X014276Y006667D01*
X014276Y006505D01*
X014391Y006390D01*
X014553Y006390D01*
X014667Y006505D01*
X014667Y006646D01*
X014811Y006646D01*
X014925Y006761D01*
X014925Y006916D01*
X015051Y006916D01*
X015165Y007031D01*
X015165Y007193D01*
X015142Y007216D01*
X015231Y007216D01*
X015345Y007331D01*
X015345Y007493D01*
X015291Y007547D01*
X015375Y007630D01*
X015429Y007576D01*
X015591Y007576D01*
X015705Y007691D01*
X015705Y007853D01*
X015591Y007968D01*
X015429Y007968D01*
X015345Y007884D01*
X015291Y007938D01*
X015195Y007938D01*
X015195Y008033D01*
X015081Y008148D01*
X014919Y008148D01*
X014804Y008033D01*
X014817Y008046D02*
X010768Y008046D01*
X010766Y008045D02*
X010881Y008159D01*
X010881Y008322D01*
X010766Y008436D01*
X010604Y008436D01*
X010489Y008322D01*
X010489Y008159D01*
X010604Y008045D01*
X010766Y008045D01*
X010816Y008095D02*
X014866Y008095D01*
X014914Y008143D02*
X010865Y008143D01*
X010881Y008192D02*
X026009Y008192D01*
X026009Y008240D02*
X010881Y008240D01*
X010881Y008289D02*
X011210Y008289D01*
X011224Y008275D02*
X011386Y008275D01*
X011501Y008389D01*
X011501Y008552D01*
X011386Y008666D01*
X011224Y008666D01*
X011109Y008552D01*
X011109Y008389D01*
X011224Y008275D01*
X011161Y008337D02*
X010865Y008337D01*
X010816Y008386D02*
X011113Y008386D01*
X011109Y008434D02*
X010768Y008434D01*
X010782Y008565D02*
X010928Y008565D01*
X011031Y008668D01*
X011031Y008813D01*
X010928Y008916D01*
X010782Y008916D01*
X010679Y008813D01*
X010679Y008668D01*
X010782Y008565D01*
X010767Y008580D02*
X004665Y008580D01*
X004665Y008628D02*
X010718Y008628D01*
X010679Y008677D02*
X008770Y008677D01*
X008738Y008645D02*
X008841Y008748D01*
X008841Y008893D01*
X008747Y008987D01*
X008797Y009036D01*
X008797Y009198D01*
X008682Y009313D01*
X008520Y009313D01*
X008406Y009198D01*
X008406Y009036D01*
X008519Y008923D01*
X008489Y008893D01*
X008489Y008748D01*
X008592Y008645D01*
X008738Y008645D01*
X008818Y008725D02*
X010679Y008725D01*
X010679Y008774D02*
X008841Y008774D01*
X008841Y008822D02*
X010688Y008822D01*
X010737Y008871D02*
X008841Y008871D01*
X008814Y008919D02*
X009039Y008919D01*
X009044Y008915D02*
X009206Y008915D01*
X009321Y009029D01*
X009321Y009192D01*
X009206Y009306D01*
X009044Y009306D01*
X008929Y009192D01*
X008929Y009029D01*
X009044Y008915D01*
X008991Y008968D02*
X008766Y008968D01*
X008777Y009016D02*
X008942Y009016D01*
X008929Y009065D02*
X008797Y009065D01*
X008797Y009113D02*
X008929Y009113D01*
X008929Y009162D02*
X008797Y009162D01*
X008785Y009210D02*
X008948Y009210D01*
X008997Y009259D02*
X008736Y009259D01*
X008688Y009307D02*
X010783Y009307D01*
X010759Y009283D02*
X010759Y009138D01*
X010862Y009035D01*
X011008Y009035D01*
X011111Y009138D01*
X011111Y009266D01*
X011132Y009245D01*
X011278Y009245D01*
X011381Y009348D01*
X011381Y009425D01*
X011458Y009425D01*
X011561Y009528D01*
X011561Y009673D01*
X011483Y009751D01*
X011563Y009830D01*
X011563Y009993D01*
X011448Y010107D01*
X011286Y010107D01*
X011171Y009993D01*
X011171Y009830D01*
X011269Y009733D01*
X011209Y009673D01*
X011209Y009596D01*
X011132Y009596D01*
X011029Y009493D01*
X011029Y009365D01*
X011008Y009386D01*
X010862Y009386D01*
X010759Y009283D01*
X010759Y009259D02*
X010575Y009259D01*
X010568Y009266D02*
X010422Y009266D01*
X010319Y009163D01*
X010319Y009018D01*
X010422Y008915D01*
X010568Y008915D01*
X010671Y009018D01*
X010671Y009163D01*
X010568Y009266D01*
X010623Y009210D02*
X010759Y009210D01*
X010759Y009162D02*
X010671Y009162D01*
X010671Y009113D02*
X010783Y009113D01*
X010832Y009065D02*
X010671Y009065D01*
X010669Y009016D02*
X024094Y009016D01*
X024094Y009012D02*
X024106Y008942D01*
X024127Y008875D01*
X024160Y008812D01*
X024201Y008754D01*
X024251Y008704D01*
X024309Y008663D01*
X024372Y008631D01*
X024439Y008609D01*
X024509Y008598D01*
X024519Y008598D01*
X024519Y009023D01*
X024094Y009023D01*
X024094Y009012D01*
X024101Y008968D02*
X010621Y008968D01*
X010572Y008919D02*
X024113Y008919D01*
X024129Y008871D02*
X010973Y008871D01*
X011021Y008822D02*
X024154Y008822D01*
X024187Y008774D02*
X011031Y008774D01*
X011031Y008725D02*
X024230Y008725D01*
X024289Y008677D02*
X011031Y008677D01*
X010991Y008628D02*
X011186Y008628D01*
X011138Y008580D02*
X010943Y008580D01*
X011109Y008531D02*
X004665Y008531D01*
X004665Y008483D02*
X011109Y008483D01*
X011424Y008628D02*
X024378Y008628D01*
X024519Y008628D02*
X024569Y008628D01*
X024569Y008598D02*
X024580Y008598D01*
X024650Y008609D01*
X024717Y008631D01*
X024780Y008663D01*
X024837Y008704D01*
X024887Y008754D01*
X024929Y008812D01*
X024961Y008875D01*
X024983Y008942D01*
X024994Y009012D01*
X024994Y009023D01*
X024569Y009023D01*
X024569Y009073D01*
X024519Y009073D01*
X024519Y009497D01*
X024509Y009497D01*
X024439Y009486D01*
X024372Y009464D01*
X024309Y009432D01*
X024251Y009391D01*
X024201Y009341D01*
X024160Y009283D01*
X024127Y009220D01*
X024106Y009153D01*
X024094Y009083D01*
X024094Y009073D01*
X024519Y009073D01*
X024519Y009023D01*
X024569Y009023D01*
X024569Y008598D01*
X024569Y008677D02*
X024519Y008677D01*
X024519Y008725D02*
X024569Y008725D01*
X024569Y008774D02*
X024519Y008774D01*
X024519Y008822D02*
X024569Y008822D01*
X024569Y008871D02*
X024519Y008871D01*
X024519Y008919D02*
X024569Y008919D01*
X024569Y008968D02*
X024519Y008968D01*
X024519Y009016D02*
X024569Y009016D01*
X024569Y009065D02*
X026009Y009065D01*
X026009Y009113D02*
X024989Y009113D01*
X024994Y009083D02*
X024983Y009153D01*
X024961Y009220D01*
X024929Y009283D01*
X024887Y009341D01*
X024837Y009391D01*
X024780Y009432D01*
X024717Y009464D01*
X024650Y009486D01*
X024580Y009497D01*
X024569Y009497D01*
X024569Y009073D01*
X024994Y009073D01*
X024994Y009083D01*
X024994Y009016D02*
X026009Y009016D01*
X026009Y008968D02*
X024987Y008968D01*
X024976Y008919D02*
X026009Y008919D01*
X026009Y008871D02*
X024959Y008871D01*
X024934Y008822D02*
X026009Y008822D01*
X026009Y008774D02*
X024901Y008774D01*
X024858Y008725D02*
X026009Y008725D01*
X026009Y008677D02*
X024799Y008677D01*
X024710Y008628D02*
X026009Y008628D01*
X026009Y008580D02*
X011472Y008580D01*
X011501Y008531D02*
X026009Y008531D01*
X026009Y008483D02*
X011501Y008483D01*
X011501Y008434D02*
X026009Y008434D01*
X026009Y008386D02*
X011497Y008386D01*
X011449Y008337D02*
X026009Y008337D01*
X026009Y008289D02*
X011400Y008289D01*
X010602Y008434D02*
X004629Y008434D01*
X004613Y008386D02*
X010554Y008386D01*
X010505Y008337D02*
X009401Y008337D01*
X009450Y008289D02*
X010489Y008289D01*
X010489Y008240D02*
X009495Y008240D01*
X009495Y008192D02*
X010489Y008192D01*
X010505Y008143D02*
X009495Y008143D01*
X009495Y008095D02*
X010554Y008095D01*
X010602Y008046D02*
X009461Y008046D01*
X009198Y008337D02*
X007865Y008337D01*
X007685Y008337D02*
X006525Y008337D01*
X006212Y008936D02*
X006315Y009039D01*
X006315Y009185D01*
X006212Y009288D01*
X006067Y009288D01*
X005964Y009185D01*
X005964Y009039D01*
X006067Y008936D01*
X006212Y008936D01*
X006244Y008968D02*
X007938Y008968D01*
X007938Y009011D02*
X007938Y008866D01*
X008041Y008763D01*
X008186Y008763D01*
X008289Y008866D01*
X008289Y009011D01*
X008186Y009114D01*
X008041Y009114D01*
X007938Y009011D01*
X007943Y009016D02*
X006293Y009016D01*
X006315Y009065D02*
X007991Y009065D01*
X008040Y009113D02*
X006315Y009113D01*
X006315Y009162D02*
X008406Y009162D01*
X008406Y009113D02*
X008187Y009113D01*
X008236Y009065D02*
X008406Y009065D01*
X008425Y009016D02*
X008284Y009016D01*
X008289Y008968D02*
X008474Y008968D01*
X008515Y008919D02*
X008289Y008919D01*
X008289Y008871D02*
X008489Y008871D01*
X008489Y008822D02*
X008246Y008822D01*
X008197Y008774D02*
X008489Y008774D01*
X008511Y008725D02*
X004573Y008725D01*
X004622Y008677D02*
X008560Y008677D01*
X008030Y008774D02*
X003045Y008774D01*
X003011Y008808D02*
X002849Y008808D01*
X002734Y008693D01*
X002734Y008531D01*
X002803Y008462D01*
X002734Y008393D01*
X002734Y008231D01*
X002849Y008116D01*
X003011Y008116D01*
X003125Y008231D01*
X003125Y008393D01*
X003056Y008462D01*
X003125Y008531D01*
X003125Y008693D01*
X003011Y008808D01*
X003093Y008725D02*
X004366Y008725D01*
X004318Y008677D02*
X003125Y008677D01*
X003125Y008628D02*
X004274Y008628D01*
X004274Y008580D02*
X003125Y008580D01*
X003125Y008531D02*
X004274Y008531D01*
X004274Y008483D02*
X003077Y008483D01*
X003084Y008434D02*
X004311Y008434D01*
X004307Y008386D02*
X003125Y008386D01*
X003125Y008337D02*
X004264Y008337D01*
X004264Y008289D02*
X003125Y008289D01*
X003125Y008240D02*
X004264Y008240D01*
X004264Y008192D02*
X003086Y008192D01*
X003038Y008143D02*
X004302Y008143D01*
X004350Y008095D02*
X003954Y008095D01*
X003746Y008095D02*
X002670Y008095D01*
X002670Y008143D02*
X002822Y008143D01*
X002773Y008192D02*
X002670Y008192D01*
X002670Y008240D02*
X002734Y008240D01*
X002734Y008289D02*
X002670Y008289D01*
X002670Y008337D02*
X002734Y008337D01*
X002734Y008386D02*
X002670Y008386D01*
X002670Y008434D02*
X002775Y008434D01*
X002782Y008483D02*
X002670Y008483D01*
X002670Y008531D02*
X002734Y008531D01*
X002734Y008580D02*
X002670Y008580D01*
X002670Y008628D02*
X002734Y008628D01*
X002734Y008677D02*
X002670Y008677D01*
X002670Y008725D02*
X002766Y008725D01*
X002815Y008774D02*
X002670Y008774D01*
X002670Y008822D02*
X007981Y008822D01*
X007938Y008871D02*
X002670Y008871D01*
X002670Y008919D02*
X007938Y008919D01*
X008418Y009210D02*
X006290Y009210D01*
X006241Y009259D02*
X008466Y009259D01*
X008515Y009307D02*
X002670Y009307D01*
X002670Y009259D02*
X006038Y009259D01*
X005990Y009210D02*
X002670Y009210D01*
X002670Y009162D02*
X005964Y009162D01*
X005964Y009113D02*
X002670Y009113D01*
X002670Y009065D02*
X005964Y009065D01*
X005987Y009016D02*
X002670Y009016D01*
X002670Y008968D02*
X006035Y008968D01*
X006439Y009436D02*
X006324Y009551D01*
X006324Y009713D01*
X006439Y009828D01*
X006601Y009828D01*
X006680Y009749D01*
X006729Y009798D01*
X006891Y009798D01*
X007005Y009683D01*
X007005Y009521D01*
X006891Y009406D01*
X006729Y009406D01*
X006650Y009485D01*
X006601Y009436D01*
X006439Y009436D01*
X006422Y009453D02*
X002670Y009453D01*
X002670Y009501D02*
X006374Y009501D01*
X006325Y009550D02*
X005084Y009550D01*
X005061Y009526D02*
X005175Y009641D01*
X005175Y009803D01*
X005061Y009918D01*
X004899Y009918D01*
X004784Y009803D01*
X004784Y009641D01*
X004899Y009526D01*
X005061Y009526D01*
X005133Y009598D02*
X006324Y009598D01*
X006324Y009647D02*
X005175Y009647D01*
X005175Y009695D02*
X006324Y009695D01*
X006355Y009744D02*
X005175Y009744D01*
X005175Y009792D02*
X006403Y009792D01*
X006636Y009792D02*
X006723Y009792D01*
X006896Y009792D02*
X008974Y009792D01*
X008974Y009813D02*
X008974Y009651D01*
X009089Y009536D01*
X009251Y009536D01*
X009365Y009651D01*
X009365Y009813D01*
X009251Y009928D01*
X009089Y009928D01*
X008974Y009813D01*
X009002Y009841D02*
X005138Y009841D01*
X005089Y009889D02*
X009050Y009889D01*
X008974Y009744D02*
X006945Y009744D01*
X006993Y009695D02*
X008974Y009695D01*
X008978Y009647D02*
X007005Y009647D01*
X007005Y009598D02*
X009027Y009598D01*
X009075Y009550D02*
X007005Y009550D01*
X006986Y009501D02*
X009370Y009501D01*
X009370Y009453D02*
X006937Y009453D01*
X006682Y009453D02*
X006617Y009453D01*
X007562Y010595D02*
X007708Y010595D01*
X007810Y010698D01*
X007810Y010844D01*
X007708Y010947D01*
X007628Y010947D01*
X007628Y011041D01*
X007525Y011144D01*
X007380Y011144D01*
X007277Y011041D01*
X007277Y010895D01*
X007380Y010792D01*
X007459Y010792D01*
X007459Y010698D01*
X007562Y010595D01*
X007540Y010617D02*
X004992Y010617D01*
X005040Y010568D02*
X008218Y010568D01*
X008218Y010520D02*
X005055Y010520D01*
X005055Y010553D02*
X004941Y010668D01*
X004779Y010668D01*
X004664Y010553D01*
X004664Y010391D01*
X004779Y010276D01*
X004941Y010276D01*
X005055Y010391D01*
X005055Y010553D01*
X005055Y010471D02*
X008251Y010471D01*
X008218Y010504D02*
X008321Y010401D01*
X008467Y010401D01*
X008570Y010504D01*
X008570Y010650D01*
X008467Y010753D01*
X008321Y010753D01*
X008218Y010650D01*
X008218Y010504D01*
X008218Y010617D02*
X007729Y010617D01*
X007778Y010665D02*
X008234Y010665D01*
X008283Y010714D02*
X007810Y010714D01*
X007810Y010762D02*
X024272Y010762D01*
X024300Y010790D02*
X024179Y010669D01*
X024114Y010511D01*
X024114Y010340D01*
X024179Y010182D01*
X024300Y010061D01*
X024459Y009995D01*
X024630Y009995D01*
X024788Y010061D01*
X024909Y010182D01*
X024975Y010340D01*
X024975Y010511D01*
X024909Y010669D01*
X024788Y010790D01*
X024630Y010856D01*
X024459Y010856D01*
X024300Y010790D01*
X024350Y010811D02*
X007810Y010811D01*
X007795Y010859D02*
X026011Y010859D01*
X026011Y010811D02*
X024739Y010811D01*
X024816Y010762D02*
X026011Y010762D01*
X026011Y010714D02*
X024865Y010714D01*
X024911Y010665D02*
X026011Y010665D01*
X026011Y010617D02*
X024931Y010617D01*
X024951Y010568D02*
X026011Y010568D01*
X026010Y010520D02*
X024971Y010520D01*
X024975Y010471D02*
X026010Y010471D01*
X026010Y010423D02*
X024975Y010423D01*
X024975Y010374D02*
X026010Y010374D01*
X026010Y010326D02*
X024969Y010326D01*
X024949Y010277D02*
X026010Y010277D01*
X026010Y010229D02*
X024929Y010229D01*
X024908Y010180D02*
X026010Y010180D01*
X026010Y010132D02*
X024860Y010132D01*
X024811Y010083D02*
X026010Y010083D01*
X026010Y010035D02*
X024726Y010035D01*
X024362Y010035D02*
X011520Y010035D01*
X011563Y009986D02*
X026010Y009986D01*
X026010Y009938D02*
X011563Y009938D01*
X011563Y009889D02*
X020940Y009889D01*
X020959Y009908D02*
X020844Y009793D01*
X020844Y009631D01*
X020903Y009572D01*
X020844Y009513D01*
X020844Y009351D01*
X020959Y009236D01*
X021121Y009236D01*
X021235Y009351D01*
X021235Y009513D01*
X021176Y009572D01*
X021235Y009631D01*
X021235Y009793D01*
X021121Y009908D01*
X020959Y009908D01*
X020892Y009841D02*
X011563Y009841D01*
X011525Y009792D02*
X020844Y009792D01*
X020844Y009744D02*
X011490Y009744D01*
X011538Y009695D02*
X020844Y009695D01*
X020844Y009647D02*
X011561Y009647D01*
X011561Y009598D02*
X020877Y009598D01*
X020881Y009550D02*
X011561Y009550D01*
X011534Y009501D02*
X020844Y009501D01*
X020844Y009453D02*
X011486Y009453D01*
X011381Y009404D02*
X020844Y009404D01*
X020844Y009356D02*
X011381Y009356D01*
X011340Y009307D02*
X020888Y009307D01*
X020936Y009259D02*
X011292Y009259D01*
X011118Y009259D02*
X011111Y009259D01*
X011111Y009210D02*
X024124Y009210D01*
X024108Y009162D02*
X011111Y009162D01*
X011086Y009113D02*
X024099Y009113D01*
X024147Y009259D02*
X021143Y009259D01*
X021192Y009307D02*
X024177Y009307D01*
X024217Y009356D02*
X021235Y009356D01*
X021235Y009404D02*
X024270Y009404D01*
X024349Y009453D02*
X021235Y009453D01*
X021235Y009501D02*
X026010Y009501D01*
X026010Y009453D02*
X024739Y009453D01*
X024818Y009404D02*
X026010Y009404D01*
X026010Y009356D02*
X024872Y009356D01*
X024911Y009307D02*
X026010Y009307D01*
X026009Y009259D02*
X024941Y009259D01*
X024964Y009210D02*
X026009Y009210D01*
X026009Y009162D02*
X024980Y009162D01*
X024569Y009162D02*
X024519Y009162D01*
X024519Y009210D02*
X024569Y009210D01*
X024569Y009259D02*
X024519Y009259D01*
X024519Y009307D02*
X024569Y009307D01*
X024569Y009356D02*
X024519Y009356D01*
X024519Y009404D02*
X024569Y009404D01*
X024569Y009453D02*
X024519Y009453D01*
X024519Y009113D02*
X024569Y009113D01*
X024519Y009065D02*
X011038Y009065D01*
X010832Y009356D02*
X009628Y009356D01*
X009619Y009347D02*
X009722Y009450D01*
X009722Y009595D01*
X009619Y009698D01*
X009473Y009698D01*
X009370Y009595D01*
X009370Y009450D01*
X009473Y009347D01*
X009619Y009347D01*
X009676Y009404D02*
X011029Y009404D01*
X011029Y009453D02*
X009722Y009453D01*
X009722Y009501D02*
X011037Y009501D01*
X011086Y009550D02*
X009722Y009550D01*
X009718Y009598D02*
X009738Y009598D01*
X009772Y009564D02*
X009669Y009667D01*
X009669Y009813D01*
X009772Y009916D01*
X009918Y009916D01*
X010021Y009813D01*
X010021Y009667D01*
X009918Y009564D01*
X009772Y009564D01*
X009690Y009647D02*
X009670Y009647D01*
X009669Y009695D02*
X009621Y009695D01*
X009669Y009744D02*
X009365Y009744D01*
X009365Y009792D02*
X009669Y009792D01*
X009698Y009841D02*
X009338Y009841D01*
X009289Y009889D02*
X009746Y009889D01*
X009944Y009889D02*
X011171Y009889D01*
X011171Y009841D02*
X009993Y009841D01*
X010021Y009792D02*
X011209Y009792D01*
X011258Y009744D02*
X010021Y009744D01*
X010021Y009695D02*
X011231Y009695D01*
X011209Y009647D02*
X010001Y009647D01*
X009952Y009598D02*
X011209Y009598D01*
X011171Y009938D02*
X004265Y009938D01*
X004265Y009986D02*
X011171Y009986D01*
X011214Y010035D02*
X004244Y010035D01*
X004265Y010013D02*
X004151Y010128D01*
X003989Y010128D01*
X003925Y010064D01*
X003831Y010158D01*
X003669Y010158D01*
X003554Y010043D01*
X003554Y009881D01*
X003669Y009766D01*
X003831Y009766D01*
X003895Y009830D01*
X003989Y009736D01*
X004151Y009736D01*
X004265Y009851D01*
X004265Y010013D01*
X004195Y010083D02*
X011262Y010083D01*
X011472Y010083D02*
X024277Y010083D01*
X024229Y010132D02*
X012033Y010132D01*
X011986Y010085D02*
X012101Y010199D01*
X012101Y010362D01*
X011986Y010476D01*
X011831Y010476D01*
X011831Y010562D01*
X011716Y010676D01*
X011554Y010676D01*
X011439Y010562D01*
X011439Y010399D01*
X011554Y010285D01*
X011709Y010285D01*
X011709Y010199D01*
X011824Y010085D01*
X011986Y010085D01*
X012082Y010180D02*
X024180Y010180D01*
X024160Y010229D02*
X012101Y010229D01*
X012101Y010277D02*
X024140Y010277D01*
X024119Y010326D02*
X012101Y010326D01*
X012088Y010374D02*
X024114Y010374D01*
X024114Y010423D02*
X012039Y010423D01*
X011991Y010471D02*
X024114Y010471D01*
X024117Y010520D02*
X011831Y010520D01*
X011824Y010568D02*
X024138Y010568D01*
X024158Y010617D02*
X011775Y010617D01*
X011727Y010665D02*
X024178Y010665D01*
X024224Y010714D02*
X009693Y010714D01*
X009647Y010760D02*
X009485Y010760D01*
X009370Y010646D01*
X009370Y010484D01*
X009485Y010369D01*
X009647Y010369D01*
X009761Y010484D01*
X009761Y010646D01*
X009647Y010760D01*
X009742Y010665D02*
X011543Y010665D01*
X011495Y010617D02*
X009761Y010617D01*
X009761Y010568D02*
X011446Y010568D01*
X011439Y010520D02*
X009761Y010520D01*
X009749Y010471D02*
X011439Y010471D01*
X011439Y010423D02*
X009701Y010423D01*
X009652Y010374D02*
X011464Y010374D01*
X011513Y010326D02*
X004990Y010326D01*
X004942Y010277D02*
X011709Y010277D01*
X011709Y010229D02*
X003151Y010229D01*
X003151Y010189D02*
X003036Y010075D01*
X002874Y010075D01*
X002759Y010189D01*
X002759Y010352D01*
X002874Y010466D01*
X003036Y010466D01*
X003151Y010352D01*
X003151Y010189D01*
X003142Y010180D02*
X011728Y010180D01*
X011777Y010132D02*
X003857Y010132D01*
X003905Y010083D02*
X003944Y010083D01*
X003933Y009792D02*
X003857Y009792D01*
X003981Y009744D02*
X002670Y009744D01*
X002670Y009792D02*
X003643Y009792D01*
X003594Y009841D02*
X002670Y009841D01*
X002670Y009889D02*
X003554Y009889D01*
X003554Y009938D02*
X002670Y009938D01*
X002670Y009986D02*
X003554Y009986D01*
X003554Y010035D02*
X002670Y010035D01*
X002670Y010083D02*
X002865Y010083D01*
X002817Y010132D02*
X002670Y010132D01*
X002670Y010180D02*
X002768Y010180D01*
X002759Y010229D02*
X002670Y010229D01*
X002670Y010277D02*
X002759Y010277D01*
X002759Y010326D02*
X002670Y010326D01*
X002670Y010374D02*
X002782Y010374D01*
X002831Y010423D02*
X002670Y010423D01*
X002670Y010471D02*
X004664Y010471D01*
X004664Y010423D02*
X003079Y010423D01*
X003128Y010374D02*
X004681Y010374D01*
X004729Y010326D02*
X003151Y010326D01*
X003151Y010277D02*
X004778Y010277D01*
X004664Y010520D02*
X002670Y010520D01*
X002670Y010568D02*
X004679Y010568D01*
X004728Y010617D02*
X002670Y010617D01*
X002670Y010665D02*
X004776Y010665D01*
X004943Y010665D02*
X007492Y010665D01*
X007459Y010714D02*
X002670Y010714D01*
X002670Y010762D02*
X005499Y010762D01*
X005547Y010715D02*
X005444Y010818D01*
X005444Y010963D01*
X005547Y011066D01*
X005693Y011066D01*
X005795Y010963D01*
X005795Y010818D01*
X005693Y010715D01*
X005547Y010715D01*
X005451Y010811D02*
X002670Y010811D01*
X002670Y010859D02*
X005444Y010859D01*
X005444Y010908D02*
X002670Y010908D01*
X002670Y010956D02*
X005444Y010956D01*
X005486Y011005D02*
X002670Y011005D01*
X002670Y011053D02*
X005534Y011053D01*
X005705Y011053D02*
X007290Y011053D01*
X007277Y011005D02*
X005754Y011005D01*
X005795Y010956D02*
X007277Y010956D01*
X007277Y010908D02*
X005795Y010908D01*
X005795Y010859D02*
X007313Y010859D01*
X007361Y010811D02*
X005789Y010811D01*
X005740Y010762D02*
X007459Y010762D01*
X007628Y010956D02*
X026011Y010956D01*
X026011Y010908D02*
X007746Y010908D01*
X007628Y011005D02*
X026011Y011005D01*
X026011Y011053D02*
X007616Y011053D01*
X007614Y011069D02*
X007759Y011069D01*
X007862Y011172D01*
X007862Y011317D01*
X007759Y011420D01*
X007614Y011420D01*
X007511Y011317D01*
X007511Y011172D01*
X007614Y011069D01*
X007580Y011102D02*
X007567Y011102D01*
X007532Y011150D02*
X006658Y011150D01*
X006666Y011159D02*
X006563Y011056D01*
X006418Y011056D01*
X006315Y011159D01*
X006315Y011304D01*
X006418Y011407D01*
X006563Y011407D01*
X006666Y011304D01*
X006666Y011159D01*
X006666Y011199D02*
X007511Y011199D01*
X007511Y011247D02*
X006666Y011247D01*
X006666Y011296D02*
X007511Y011296D01*
X007538Y011344D02*
X006626Y011344D01*
X006578Y011393D02*
X007586Y011393D01*
X007786Y011393D02*
X008103Y011393D01*
X008103Y011441D02*
X003634Y011441D01*
X003634Y011393D02*
X006403Y011393D01*
X006355Y011344D02*
X003634Y011344D01*
X003634Y011341D02*
X003519Y011227D01*
X003357Y011227D01*
X003243Y011341D01*
X003243Y011503D01*
X003357Y011618D01*
X003519Y011618D01*
X003634Y011503D01*
X003634Y011341D01*
X003589Y011296D02*
X006315Y011296D01*
X006315Y011247D02*
X003540Y011247D01*
X003336Y011247D02*
X002670Y011247D01*
X002670Y011199D02*
X006315Y011199D01*
X006323Y011150D02*
X002670Y011150D01*
X002670Y011102D02*
X006372Y011102D01*
X006609Y011102D02*
X007338Y011102D01*
X007792Y011102D02*
X026011Y011102D01*
X026011Y011150D02*
X007841Y011150D01*
X007862Y011199D02*
X026011Y011199D01*
X026011Y011247D02*
X008393Y011247D01*
X008351Y011206D02*
X008454Y011309D01*
X008454Y011451D01*
X008485Y011451D01*
X008588Y011554D01*
X008588Y011700D01*
X008485Y011803D01*
X008455Y011803D01*
X008455Y011900D01*
X008482Y011900D01*
X008585Y012003D01*
X008585Y012148D01*
X008482Y012251D01*
X008432Y012251D01*
X008521Y012340D01*
X008521Y012485D01*
X008418Y012588D01*
X008272Y012588D01*
X008169Y012485D01*
X008169Y012340D01*
X008272Y012237D01*
X008322Y012237D01*
X008233Y012148D01*
X008233Y012011D01*
X008206Y012011D01*
X008103Y011909D01*
X008103Y011763D01*
X008206Y011660D01*
X008237Y011660D01*
X008237Y011557D01*
X008206Y011557D01*
X008103Y011454D01*
X008103Y011309D01*
X008206Y011206D01*
X008351Y011206D01*
X008441Y011296D02*
X026011Y011296D01*
X026011Y011344D02*
X010179Y011344D01*
X010131Y011296D02*
X010245Y011411D01*
X010245Y011536D01*
X010311Y011536D01*
X010425Y011651D01*
X010425Y011813D01*
X010311Y011928D01*
X010149Y011928D01*
X010034Y011813D01*
X010034Y011688D01*
X009969Y011688D01*
X009854Y011573D01*
X009854Y011411D01*
X009969Y011296D01*
X010131Y011296D01*
X010227Y011393D02*
X024410Y011393D01*
X024459Y011373D02*
X024630Y011373D01*
X024788Y011438D01*
X024909Y011560D01*
X024975Y011718D01*
X024975Y011889D01*
X024909Y012047D01*
X024788Y012168D01*
X024630Y012234D01*
X024459Y012234D01*
X024300Y012168D01*
X024179Y012047D01*
X024114Y011889D01*
X024114Y011718D01*
X024179Y011560D01*
X024300Y011438D01*
X024459Y011373D01*
X024297Y011441D02*
X010245Y011441D01*
X010245Y011490D02*
X024249Y011490D01*
X024200Y011538D02*
X010313Y011538D01*
X010361Y011587D02*
X024168Y011587D01*
X024148Y011635D02*
X010410Y011635D01*
X010425Y011684D02*
X024128Y011684D01*
X024114Y011732D02*
X010425Y011732D01*
X010425Y011781D02*
X024114Y011781D01*
X024114Y011829D02*
X010409Y011829D01*
X010361Y011878D02*
X024114Y011878D01*
X024129Y011926D02*
X010312Y011926D01*
X010147Y011926D02*
X008508Y011926D01*
X008557Y011975D02*
X024149Y011975D01*
X024169Y012023D02*
X008585Y012023D01*
X008585Y012072D02*
X011353Y012072D01*
X011399Y012026D02*
X011561Y012026D01*
X011675Y012141D01*
X011675Y012303D01*
X011561Y012418D01*
X011399Y012418D01*
X011284Y012303D01*
X011284Y012141D01*
X011399Y012026D01*
X011305Y012120D02*
X008585Y012120D01*
X008564Y012169D02*
X011284Y012169D01*
X011284Y012217D02*
X008516Y012217D01*
X008447Y012266D02*
X011284Y012266D01*
X011295Y012314D02*
X008495Y012314D01*
X008521Y012363D02*
X011344Y012363D01*
X011392Y012411D02*
X008521Y012411D01*
X008521Y012460D02*
X018774Y012460D01*
X018774Y012441D02*
X018889Y012326D01*
X019051Y012326D01*
X019165Y012441D01*
X019165Y012603D01*
X019051Y012718D01*
X018889Y012718D01*
X018774Y012603D01*
X018774Y012441D01*
X018804Y012411D02*
X011567Y012411D01*
X011616Y012363D02*
X018852Y012363D01*
X018774Y012508D02*
X008498Y012508D01*
X008449Y012557D02*
X018774Y012557D01*
X018776Y012605D02*
X007989Y012605D01*
X008024Y012641D02*
X007921Y012538D01*
X007776Y012538D01*
X007673Y012641D01*
X007673Y012786D01*
X007776Y012889D01*
X007921Y012889D01*
X008024Y012786D01*
X008024Y012641D01*
X008024Y012654D02*
X018825Y012654D01*
X018873Y012702D02*
X008024Y012702D01*
X008024Y012751D02*
X011334Y012751D01*
X011339Y012746D02*
X011501Y012746D01*
X011590Y012835D01*
X011679Y012746D01*
X011841Y012746D01*
X011930Y012835D01*
X012019Y012746D01*
X012181Y012746D01*
X012295Y012861D01*
X012295Y013023D01*
X012181Y013138D01*
X012019Y013138D01*
X011930Y013049D01*
X011841Y013138D01*
X011679Y013138D01*
X011590Y013049D01*
X011501Y013138D01*
X011339Y013138D01*
X011224Y013023D01*
X011224Y012861D01*
X011339Y012746D01*
X011286Y012799D02*
X008011Y012799D01*
X007963Y012848D02*
X008532Y012848D01*
X008557Y012823D02*
X008703Y012823D01*
X008806Y012926D01*
X008806Y013071D01*
X008703Y013174D01*
X008600Y013174D01*
X008663Y013237D01*
X008663Y013383D01*
X008560Y013486D01*
X008415Y013486D01*
X008312Y013383D01*
X008312Y013237D01*
X008415Y013134D01*
X008518Y013134D01*
X008454Y013071D01*
X008454Y012926D01*
X008557Y012823D01*
X008483Y012896D02*
X007021Y012896D01*
X007059Y012859D02*
X006956Y012962D01*
X006810Y012962D01*
X006707Y012859D01*
X006707Y012713D01*
X006759Y012662D01*
X006711Y012614D01*
X006711Y012469D01*
X006814Y012366D01*
X006960Y012366D01*
X007063Y012469D01*
X007063Y012614D01*
X007011Y012666D01*
X007059Y012713D01*
X007059Y012859D01*
X007059Y012848D02*
X007735Y012848D01*
X007686Y012799D02*
X007059Y012799D01*
X007059Y012751D02*
X007673Y012751D01*
X007673Y012702D02*
X007048Y012702D01*
X007023Y012654D02*
X007673Y012654D01*
X007708Y012605D02*
X007063Y012605D01*
X007063Y012557D02*
X007757Y012557D01*
X007776Y012512D02*
X007673Y012409D01*
X007673Y012263D01*
X007717Y012220D01*
X007674Y012177D01*
X007674Y012032D01*
X007701Y012005D01*
X007607Y011911D01*
X007607Y011766D01*
X007710Y011663D01*
X007855Y011663D01*
X007958Y011766D01*
X007958Y011911D01*
X007932Y011938D01*
X008025Y012032D01*
X008025Y012177D01*
X007982Y012221D01*
X008025Y012263D01*
X008025Y012409D01*
X007922Y012512D01*
X007776Y012512D01*
X007773Y012508D02*
X007063Y012508D01*
X007054Y012460D02*
X007724Y012460D01*
X007676Y012411D02*
X007006Y012411D01*
X007184Y012292D02*
X007184Y012147D01*
X007286Y012044D01*
X007432Y012044D01*
X007535Y012147D01*
X007535Y012292D01*
X007432Y012395D01*
X007286Y012395D01*
X007184Y012292D01*
X007184Y012266D02*
X006560Y012266D01*
X006543Y012283D02*
X006398Y012283D01*
X006295Y012180D01*
X006295Y012034D01*
X006398Y011931D01*
X006543Y011931D01*
X006646Y012034D01*
X006646Y012180D01*
X006543Y012283D01*
X006544Y012328D02*
X006647Y012431D01*
X006647Y012576D01*
X006544Y012679D01*
X006398Y012679D01*
X006295Y012576D01*
X006295Y012431D01*
X006398Y012328D01*
X006544Y012328D01*
X006579Y012363D02*
X007254Y012363D01*
X007206Y012314D02*
X005862Y012314D01*
X005880Y012297D02*
X005777Y012400D01*
X005631Y012400D01*
X005528Y012297D01*
X005528Y012151D01*
X005631Y012048D01*
X005777Y012048D01*
X005880Y012151D01*
X005880Y012297D01*
X005880Y012266D02*
X006381Y012266D01*
X006333Y012217D02*
X005880Y012217D01*
X005880Y012169D02*
X006295Y012169D01*
X006295Y012120D02*
X005849Y012120D01*
X005800Y012072D02*
X006295Y012072D01*
X006305Y012023D02*
X003080Y012023D01*
X003129Y011975D02*
X006354Y011975D01*
X006587Y011975D02*
X006866Y011975D01*
X006894Y012002D02*
X006791Y011899D01*
X006791Y011754D01*
X006894Y011651D01*
X007039Y011651D01*
X007142Y011754D01*
X007142Y011899D01*
X007039Y012002D01*
X006894Y012002D01*
X006818Y011926D02*
X005676Y011926D01*
X005650Y011953D02*
X005504Y011953D01*
X005401Y011850D01*
X005401Y011705D01*
X005504Y011602D01*
X005650Y011602D01*
X005753Y011705D01*
X005753Y011850D01*
X005650Y011953D01*
X005725Y011878D02*
X006791Y011878D01*
X006791Y011829D02*
X005753Y011829D01*
X005753Y011781D02*
X006791Y011781D01*
X006812Y011732D02*
X005753Y011732D01*
X005732Y011684D02*
X006860Y011684D01*
X007072Y011684D02*
X007242Y011684D01*
X007283Y011643D02*
X007428Y011643D01*
X007531Y011745D01*
X007531Y011891D01*
X007428Y011994D01*
X007283Y011994D01*
X007180Y011891D01*
X007180Y011745D01*
X007283Y011643D01*
X007193Y011732D02*
X007121Y011732D01*
X007142Y011781D02*
X007180Y011781D01*
X007180Y011829D02*
X007142Y011829D01*
X007142Y011878D02*
X007180Y011878D01*
X007215Y011926D02*
X007115Y011926D01*
X007066Y011975D02*
X007264Y011975D01*
X007258Y012072D02*
X006646Y012072D01*
X006646Y012120D02*
X007210Y012120D01*
X007184Y012169D02*
X006646Y012169D01*
X006608Y012217D02*
X007184Y012217D01*
X007460Y012072D02*
X007674Y012072D01*
X007674Y012120D02*
X007509Y012120D01*
X007535Y012169D02*
X007674Y012169D01*
X007714Y012217D02*
X007535Y012217D01*
X007535Y012266D02*
X007673Y012266D01*
X007673Y012314D02*
X007513Y012314D01*
X007464Y012363D02*
X007673Y012363D01*
X007925Y012508D02*
X008192Y012508D01*
X008169Y012460D02*
X007974Y012460D01*
X008022Y012411D02*
X008169Y012411D01*
X008169Y012363D02*
X008025Y012363D01*
X008025Y012314D02*
X008195Y012314D01*
X008243Y012266D02*
X008025Y012266D01*
X007985Y012217D02*
X008302Y012217D01*
X008254Y012169D02*
X008025Y012169D01*
X008025Y012120D02*
X008233Y012120D01*
X008233Y012072D02*
X008025Y012072D01*
X008017Y012023D02*
X008233Y012023D01*
X008170Y011975D02*
X007969Y011975D01*
X007943Y011926D02*
X008121Y011926D01*
X008103Y011878D02*
X007958Y011878D01*
X007958Y011829D02*
X008103Y011829D01*
X008103Y011781D02*
X007958Y011781D01*
X007925Y011732D02*
X008134Y011732D01*
X008182Y011684D02*
X007877Y011684D01*
X007689Y011684D02*
X007470Y011684D01*
X007518Y011732D02*
X007640Y011732D01*
X007607Y011781D02*
X007531Y011781D01*
X007531Y011829D02*
X007607Y011829D01*
X007607Y011878D02*
X007531Y011878D01*
X007496Y011926D02*
X007622Y011926D01*
X007671Y011975D02*
X007447Y011975D01*
X007682Y012023D02*
X006636Y012023D01*
X006628Y012411D02*
X006768Y012411D01*
X006720Y012460D02*
X006647Y012460D01*
X006647Y012508D02*
X006711Y012508D01*
X006711Y012557D02*
X006647Y012557D01*
X006617Y012605D02*
X006711Y012605D01*
X006751Y012654D02*
X006569Y012654D01*
X006718Y012702D02*
X002670Y012702D01*
X002670Y012654D02*
X005962Y012654D01*
X006001Y012693D02*
X005898Y012590D01*
X005898Y012445D01*
X006001Y012342D01*
X006146Y012342D01*
X006249Y012445D01*
X006249Y012590D01*
X006146Y012693D01*
X006001Y012693D01*
X005913Y012605D02*
X002670Y012605D01*
X002670Y012557D02*
X002820Y012557D01*
X002864Y012601D02*
X002761Y012498D01*
X002761Y012352D01*
X002864Y012250D01*
X003010Y012250D01*
X003113Y012352D01*
X003113Y012498D01*
X003010Y012601D01*
X002864Y012601D01*
X002772Y012508D02*
X002670Y012508D01*
X002670Y012460D02*
X002761Y012460D01*
X002761Y012411D02*
X002670Y012411D01*
X002670Y012363D02*
X002761Y012363D01*
X002799Y012314D02*
X002670Y012314D01*
X002670Y012266D02*
X002848Y012266D01*
X003026Y012266D02*
X005528Y012266D01*
X005528Y012217D02*
X002670Y012217D01*
X002670Y012169D02*
X005528Y012169D01*
X005559Y012120D02*
X002670Y012120D01*
X002670Y012072D02*
X002878Y012072D01*
X002882Y012076D02*
X002779Y011973D01*
X002779Y011828D01*
X002882Y011725D01*
X003028Y011725D01*
X003131Y011828D01*
X003131Y011973D01*
X003028Y012076D01*
X002882Y012076D01*
X002829Y012023D02*
X002670Y012023D01*
X002670Y011975D02*
X002781Y011975D01*
X002779Y011926D02*
X002670Y011926D01*
X002670Y011878D02*
X002779Y011878D01*
X002779Y011829D02*
X002670Y011829D01*
X002670Y011781D02*
X002826Y011781D01*
X002874Y011732D02*
X002670Y011732D01*
X002670Y011684D02*
X005422Y011684D01*
X005401Y011732D02*
X003035Y011732D01*
X003084Y011781D02*
X005401Y011781D01*
X005401Y011829D02*
X003131Y011829D01*
X003131Y011878D02*
X005429Y011878D01*
X005477Y011926D02*
X003131Y011926D01*
X003032Y012072D02*
X005608Y012072D01*
X005546Y012314D02*
X003075Y012314D01*
X003113Y012363D02*
X005594Y012363D01*
X005814Y012363D02*
X005979Y012363D01*
X005931Y012411D02*
X003113Y012411D01*
X003113Y012460D02*
X005898Y012460D01*
X005898Y012508D02*
X003102Y012508D01*
X003054Y012557D02*
X005898Y012557D01*
X006185Y012654D02*
X006373Y012654D01*
X006325Y012605D02*
X006234Y012605D01*
X006249Y012557D02*
X006295Y012557D01*
X006295Y012508D02*
X006249Y012508D01*
X006249Y012460D02*
X006295Y012460D01*
X006314Y012411D02*
X006216Y012411D01*
X006168Y012363D02*
X006363Y012363D01*
X006707Y012751D02*
X004445Y012751D01*
X004401Y012706D02*
X004515Y012821D01*
X004515Y012983D01*
X004495Y013004D01*
X004549Y013004D01*
X004663Y013119D01*
X004663Y013281D01*
X004549Y013395D01*
X004387Y013395D01*
X004272Y013281D01*
X004272Y013119D01*
X004293Y013098D01*
X004239Y013098D01*
X004124Y012983D01*
X004124Y012821D01*
X004239Y012706D01*
X004401Y012706D01*
X004494Y012799D02*
X006707Y012799D01*
X006707Y012848D02*
X004515Y012848D01*
X004515Y012896D02*
X006745Y012896D01*
X006794Y012945D02*
X006117Y012945D01*
X006105Y012933D02*
X006208Y013036D01*
X006208Y013182D01*
X006105Y013285D01*
X005960Y013285D01*
X005857Y013182D01*
X005857Y013036D01*
X005960Y012933D01*
X006105Y012933D01*
X006165Y012993D02*
X007719Y012993D01*
X007677Y013035D02*
X007780Y012932D01*
X007926Y012932D01*
X008029Y013035D01*
X008029Y013181D01*
X007926Y013284D01*
X007780Y013284D01*
X007734Y013238D01*
X007734Y013273D01*
X007631Y013376D01*
X007486Y013376D01*
X007383Y013273D01*
X007383Y013128D01*
X007486Y013025D01*
X007631Y013025D01*
X007677Y013071D01*
X007677Y013035D01*
X007677Y013042D02*
X007648Y013042D01*
X007768Y012945D02*
X006973Y012945D01*
X007072Y013042D02*
X006208Y013042D01*
X006208Y013090D02*
X007024Y013090D01*
X006985Y013129D02*
X007088Y013026D01*
X007234Y013026D01*
X007337Y013129D01*
X007337Y013274D01*
X007234Y013377D01*
X007088Y013377D01*
X006985Y013274D01*
X006985Y013129D01*
X006985Y013139D02*
X006208Y013139D01*
X006203Y013188D02*
X006985Y013188D01*
X006985Y013236D02*
X006154Y013236D01*
X006106Y013285D02*
X006995Y013285D01*
X007044Y013333D02*
X004611Y013333D01*
X004659Y013285D02*
X005959Y013285D01*
X005911Y013236D02*
X004663Y013236D01*
X004663Y013188D02*
X005862Y013188D01*
X005857Y013139D02*
X004663Y013139D01*
X004635Y013090D02*
X005857Y013090D01*
X005857Y013042D02*
X004587Y013042D01*
X004505Y012993D02*
X005900Y012993D01*
X005948Y012945D02*
X004515Y012945D01*
X004272Y013139D02*
X002670Y013139D01*
X002670Y013188D02*
X004272Y013188D01*
X004272Y013236D02*
X002670Y013236D01*
X002670Y013285D02*
X004276Y013285D01*
X004324Y013333D02*
X002670Y013333D01*
X002670Y013382D02*
X004373Y013382D01*
X004562Y013382D02*
X005715Y013382D01*
X005723Y013373D02*
X005869Y013373D01*
X005972Y013476D01*
X005972Y013622D01*
X005869Y013725D01*
X005723Y013725D01*
X005620Y013622D01*
X005620Y013476D01*
X005723Y013373D01*
X005666Y013430D02*
X002670Y013430D01*
X002670Y013479D02*
X005620Y013479D01*
X005620Y013527D02*
X002670Y013527D01*
X002670Y013576D02*
X005620Y013576D01*
X005623Y013624D02*
X002670Y013624D01*
X002670Y013673D02*
X005671Y013673D01*
X005720Y013721D02*
X002670Y013721D01*
X002670Y013770D02*
X007037Y013770D01*
X007085Y013818D02*
X002670Y013818D01*
X002670Y013867D02*
X008400Y013867D01*
X008426Y013893D02*
X008323Y013790D01*
X008323Y013761D01*
X008282Y013802D01*
X008137Y013802D01*
X008034Y013699D01*
X008034Y013553D01*
X008137Y013450D01*
X008282Y013450D01*
X008385Y013553D01*
X008385Y013582D01*
X008426Y013541D01*
X008571Y013541D01*
X008674Y013644D01*
X008674Y013706D01*
X008753Y013706D01*
X008855Y013809D01*
X008855Y013954D01*
X008753Y014057D01*
X008607Y014057D01*
X008504Y013954D01*
X008504Y013893D01*
X008426Y013893D01*
X008504Y013915D02*
X003046Y013915D01*
X003016Y013885D02*
X003131Y013999D01*
X003131Y014162D01*
X003016Y014276D01*
X002854Y014276D01*
X002739Y014162D01*
X002739Y013999D01*
X002854Y013885D01*
X003016Y013885D01*
X003095Y013964D02*
X008513Y013964D01*
X008562Y014012D02*
X003131Y014012D01*
X003131Y014061D02*
X005225Y014061D01*
X005259Y014026D02*
X005421Y014026D01*
X005535Y014141D01*
X005535Y014303D01*
X009344Y014303D01*
X009344Y014261D02*
X009459Y014146D01*
X009621Y014146D01*
X009735Y014261D01*
X009735Y014423D01*
X009621Y014538D01*
X009459Y014538D01*
X009344Y014423D01*
X009344Y014261D01*
X009351Y014255D02*
X005535Y014255D01*
X005535Y014303D02*
X005421Y014418D01*
X005259Y014418D01*
X005144Y014303D01*
X002670Y014303D01*
X002670Y014255D02*
X002832Y014255D01*
X002784Y014206D02*
X002670Y014206D01*
X002670Y014158D02*
X002739Y014158D01*
X002739Y014109D02*
X002670Y014109D01*
X002670Y014061D02*
X002739Y014061D01*
X002739Y014012D02*
X002670Y014012D01*
X002670Y013964D02*
X002775Y013964D01*
X002824Y013915D02*
X002670Y013915D01*
X003131Y014109D02*
X005176Y014109D01*
X005144Y014141D02*
X005259Y014026D01*
X005144Y014141D02*
X005144Y014303D01*
X005144Y014255D02*
X003038Y014255D01*
X003086Y014206D02*
X005144Y014206D01*
X005144Y014158D02*
X003131Y014158D01*
X002670Y014352D02*
X005192Y014352D01*
X005241Y014400D02*
X002670Y014400D01*
X002670Y014449D02*
X009369Y014449D01*
X009344Y014400D02*
X005439Y014400D01*
X005487Y014352D02*
X009344Y014352D01*
X009399Y014206D02*
X005535Y014206D01*
X005535Y014158D02*
X009448Y014158D01*
X009632Y014158D02*
X011015Y014158D01*
X011006Y014166D02*
X011104Y014069D01*
X011231Y014016D01*
X011368Y014016D01*
X011495Y014069D01*
X011592Y014166D01*
X011645Y014293D01*
X011645Y014431D01*
X011592Y014558D01*
X011495Y014655D01*
X011368Y014708D01*
X011231Y014708D01*
X011104Y014655D01*
X011006Y014558D01*
X010954Y014431D01*
X010954Y014293D01*
X011006Y014166D01*
X010990Y014206D02*
X009680Y014206D01*
X009729Y014255D02*
X010970Y014255D01*
X010954Y014303D02*
X009735Y014303D01*
X009735Y014352D02*
X010954Y014352D01*
X010954Y014400D02*
X009735Y014400D01*
X009710Y014449D02*
X010961Y014449D01*
X010981Y014497D02*
X009662Y014497D01*
X009418Y014497D02*
X002670Y014497D01*
X002670Y014546D02*
X011001Y014546D01*
X011042Y014594D02*
X002670Y014594D01*
X002670Y014643D02*
X011091Y014643D01*
X011190Y014691D02*
X010824Y014691D01*
X010859Y014705D02*
X010956Y014803D01*
X011009Y014930D01*
X011009Y015067D01*
X010956Y015194D01*
X010859Y015292D01*
X010732Y015344D01*
X010594Y015344D01*
X010467Y015292D01*
X010370Y015194D01*
X010317Y015067D01*
X010317Y014930D01*
X010370Y014803D01*
X010467Y014705D01*
X010594Y014653D01*
X010732Y014653D01*
X010859Y014705D01*
X010893Y014740D02*
X011706Y014740D01*
X011740Y014705D02*
X011643Y014803D01*
X011590Y014930D01*
X011590Y015067D01*
X011643Y015194D01*
X011740Y015292D01*
X011867Y015344D01*
X012005Y015344D01*
X012132Y015292D01*
X012229Y015194D01*
X012282Y015067D01*
X012282Y014930D01*
X012229Y014803D01*
X012132Y014705D01*
X012005Y014653D01*
X011867Y014653D01*
X011740Y014705D01*
X011775Y014691D02*
X011409Y014691D01*
X011508Y014643D02*
X012482Y014643D01*
X012462Y014691D02*
X012097Y014691D01*
X012166Y014740D02*
X012460Y014740D01*
X012460Y014696D02*
X012460Y014834D01*
X012512Y014961D01*
X012610Y015058D01*
X012737Y015111D01*
X012874Y015111D01*
X013001Y015058D01*
X013099Y014961D01*
X013151Y014834D01*
X013151Y014696D01*
X013099Y014569D01*
X013001Y014472D01*
X012874Y014419D01*
X012737Y014419D01*
X012610Y014472D01*
X012512Y014569D01*
X012460Y014696D01*
X012460Y014788D02*
X012214Y014788D01*
X012243Y014837D02*
X012461Y014837D01*
X012481Y014885D02*
X012263Y014885D01*
X012282Y014934D02*
X012501Y014934D01*
X012533Y014982D02*
X012282Y014982D01*
X012282Y015031D02*
X012582Y015031D01*
X012660Y015079D02*
X012277Y015079D01*
X012257Y015128D02*
X013370Y015128D01*
X013389Y015173D02*
X013337Y015046D01*
X013337Y014909D01*
X013389Y014781D01*
X013487Y014684D01*
X013614Y014632D01*
X013751Y014632D01*
X013878Y014684D01*
X013975Y014781D01*
X014028Y014909D01*
X014028Y015046D01*
X013975Y015173D01*
X013878Y015270D01*
X013751Y015323D01*
X013614Y015323D01*
X013487Y015270D01*
X013389Y015173D01*
X013392Y015176D02*
X012236Y015176D01*
X012199Y015225D02*
X013441Y015225D01*
X013493Y015273D02*
X012150Y015273D01*
X012059Y015322D02*
X012425Y015322D01*
X012376Y015342D02*
X012503Y015289D01*
X012641Y015289D01*
X012768Y015342D01*
X012865Y015439D01*
X012918Y015566D01*
X012918Y015704D01*
X012865Y015831D01*
X012768Y015928D01*
X012641Y015981D01*
X012503Y015981D01*
X012376Y015928D01*
X012279Y015831D01*
X012226Y015704D01*
X012226Y015566D01*
X012279Y015439D01*
X012376Y015342D01*
X012348Y015370D02*
X011523Y015370D01*
X011495Y015342D02*
X011592Y015439D01*
X011645Y015566D01*
X011645Y015704D01*
X011592Y015831D01*
X011495Y015928D01*
X011368Y015981D01*
X011231Y015981D01*
X011104Y015928D01*
X011006Y015831D01*
X010954Y015704D01*
X010954Y015566D01*
X011006Y015439D01*
X011104Y015342D01*
X011231Y015289D01*
X011368Y015289D01*
X011495Y015342D01*
X011446Y015322D02*
X011812Y015322D01*
X011721Y015273D02*
X010877Y015273D01*
X010926Y015225D02*
X011673Y015225D01*
X011635Y015176D02*
X010964Y015176D01*
X010984Y015128D02*
X011615Y015128D01*
X011595Y015079D02*
X011004Y015079D01*
X011009Y015031D02*
X011590Y015031D01*
X011590Y014982D02*
X011009Y014982D01*
X011009Y014934D02*
X011590Y014934D01*
X011609Y014885D02*
X010990Y014885D01*
X010970Y014837D02*
X011629Y014837D01*
X011657Y014788D02*
X010941Y014788D01*
X010502Y014691D02*
X002670Y014691D01*
X002670Y014740D02*
X010433Y014740D01*
X010385Y014788D02*
X002670Y014788D01*
X002670Y014837D02*
X010356Y014837D01*
X010336Y014885D02*
X005516Y014885D01*
X005490Y014860D02*
X005593Y014963D01*
X005593Y015108D01*
X005490Y015211D01*
X005345Y015211D01*
X005242Y015108D01*
X005242Y014963D01*
X005345Y014860D01*
X005490Y014860D01*
X005564Y014934D02*
X010317Y014934D01*
X010317Y014982D02*
X005593Y014982D01*
X005593Y015031D02*
X010317Y015031D01*
X010322Y015079D02*
X005593Y015079D01*
X005574Y015128D02*
X010342Y015128D01*
X010362Y015176D02*
X005526Y015176D01*
X005312Y015190D02*
X005209Y015087D01*
X005063Y015087D01*
X004960Y015190D01*
X004960Y015336D01*
X005063Y015439D01*
X005209Y015439D01*
X005312Y015336D01*
X005312Y015190D01*
X005310Y015176D02*
X005297Y015176D01*
X005312Y015225D02*
X010400Y015225D01*
X010449Y015273D02*
X009008Y015273D01*
X008999Y015264D02*
X009102Y015367D01*
X009102Y015512D01*
X008999Y015615D01*
X008854Y015615D01*
X008751Y015512D01*
X008751Y015367D01*
X008854Y015264D01*
X008999Y015264D01*
X009057Y015322D02*
X010539Y015322D01*
X010462Y015516D02*
X010975Y015516D01*
X010955Y015564D02*
X010515Y015564D01*
X010470Y015519D02*
X010567Y015616D01*
X010620Y015743D01*
X010620Y015880D01*
X010567Y016008D01*
X010470Y016105D01*
X010343Y016157D01*
X010205Y016157D01*
X010078Y016105D01*
X009981Y016008D01*
X009928Y015880D01*
X009928Y015743D01*
X009981Y015616D01*
X010078Y015519D01*
X010205Y015466D01*
X010343Y015466D01*
X010470Y015519D01*
X010564Y015613D02*
X010954Y015613D01*
X010954Y015661D02*
X010586Y015661D01*
X010606Y015710D02*
X010956Y015710D01*
X010976Y015758D02*
X010620Y015758D01*
X010620Y015807D02*
X010996Y015807D01*
X011031Y015855D02*
X010620Y015855D01*
X010610Y015904D02*
X011079Y015904D01*
X011162Y015952D02*
X010590Y015952D01*
X010570Y016001D02*
X011718Y016001D01*
X011740Y015978D02*
X011867Y015926D01*
X012005Y015926D01*
X012132Y015978D01*
X012229Y016076D01*
X012282Y016203D01*
X012282Y016340D01*
X012500Y016340D01*
X012512Y016309D02*
X012460Y016436D01*
X012460Y016573D01*
X012512Y016701D01*
X012610Y016798D01*
X012737Y016850D01*
X012874Y016850D01*
X013001Y016798D01*
X013099Y016701D01*
X013151Y016573D01*
X013151Y016436D01*
X013099Y016309D01*
X013001Y016212D01*
X012874Y016159D01*
X012737Y016159D01*
X012610Y016212D01*
X012512Y016309D01*
X012530Y016292D02*
X012282Y016292D01*
X012282Y016340D02*
X012229Y016467D01*
X012132Y016564D01*
X012005Y016617D01*
X011867Y016617D01*
X011740Y016564D01*
X011643Y016467D01*
X011590Y016340D01*
X011372Y016340D01*
X011359Y016309D02*
X011412Y016436D01*
X011412Y016573D01*
X011359Y016701D01*
X011262Y016798D01*
X011135Y016850D01*
X010997Y016850D01*
X010870Y016798D01*
X010773Y016701D01*
X010720Y016573D01*
X010720Y016436D01*
X010773Y016309D01*
X010870Y016212D01*
X010997Y016159D01*
X011135Y016159D01*
X011262Y016212D01*
X011359Y016309D01*
X011342Y016292D02*
X011590Y016292D01*
X011590Y016340D02*
X011590Y016203D01*
X011643Y016076D01*
X011740Y015978D01*
X011803Y015952D02*
X011437Y015952D01*
X011520Y015904D02*
X012352Y015904D01*
X012303Y015855D02*
X011568Y015855D01*
X011603Y015807D02*
X012269Y015807D01*
X012249Y015758D02*
X011623Y015758D01*
X011643Y015710D02*
X012229Y015710D01*
X012226Y015661D02*
X011645Y015661D01*
X011645Y015613D02*
X012226Y015613D01*
X012227Y015564D02*
X011644Y015564D01*
X011624Y015516D02*
X012247Y015516D01*
X012268Y015467D02*
X011604Y015467D01*
X011572Y015419D02*
X012300Y015419D01*
X012719Y015322D02*
X013610Y015322D01*
X013755Y015322D02*
X014122Y015322D01*
X014123Y015321D02*
X014250Y015268D01*
X014388Y015268D01*
X014515Y015321D01*
X014612Y015418D01*
X014664Y015545D01*
X014664Y015682D01*
X014612Y015810D01*
X014515Y015907D01*
X014388Y015959D01*
X014250Y015959D01*
X014123Y015907D01*
X014026Y015810D01*
X013973Y015682D01*
X013973Y015545D01*
X014026Y015418D01*
X014123Y015321D01*
X014074Y015370D02*
X012796Y015370D01*
X012845Y015419D02*
X014025Y015419D01*
X014005Y015467D02*
X012877Y015467D01*
X012897Y015516D02*
X013985Y015516D01*
X013973Y015564D02*
X013611Y015564D01*
X013638Y015575D02*
X013735Y015672D01*
X013788Y015800D01*
X013788Y015937D01*
X013735Y016064D01*
X013638Y016161D01*
X013511Y016214D01*
X013373Y016214D01*
X013246Y016161D01*
X013149Y016064D01*
X013096Y015937D01*
X013096Y015800D01*
X013149Y015672D01*
X013246Y015575D01*
X013373Y015523D01*
X013511Y015523D01*
X013638Y015575D01*
X013675Y015613D02*
X013973Y015613D01*
X013973Y015661D02*
X013724Y015661D01*
X013750Y015710D02*
X013984Y015710D01*
X014004Y015758D02*
X013770Y015758D01*
X013788Y015807D02*
X014024Y015807D01*
X014071Y015855D02*
X013788Y015855D01*
X013788Y015904D02*
X014120Y015904D01*
X014232Y015952D02*
X013781Y015952D01*
X013761Y016001D02*
X015154Y016001D01*
X015164Y015977D02*
X015261Y015879D01*
X015388Y015827D01*
X015526Y015827D01*
X015653Y015879D01*
X015750Y015977D01*
X015803Y016104D01*
X015803Y016241D01*
X015750Y016368D01*
X015653Y016465D01*
X015526Y016518D01*
X015388Y016518D01*
X015261Y016465D01*
X015164Y016368D01*
X015111Y016241D01*
X015111Y016104D01*
X015164Y015977D01*
X015189Y015952D02*
X014405Y015952D01*
X014518Y015904D02*
X015237Y015904D01*
X015320Y015855D02*
X014566Y015855D01*
X014613Y015807D02*
X018884Y015807D01*
X018777Y015851D02*
X019073Y015728D01*
X019393Y015728D01*
X019689Y015851D01*
X019916Y016077D01*
X020038Y016373D01*
X020038Y016693D01*
X019916Y016989D01*
X019689Y017215D01*
X019666Y017225D01*
X019736Y017225D01*
X019851Y017339D01*
X019851Y017502D01*
X019736Y017616D01*
X019574Y017616D01*
X019459Y017502D01*
X019459Y017339D01*
X019509Y017290D01*
X019393Y017338D01*
X019073Y017338D01*
X018777Y017215D01*
X018551Y016989D01*
X018428Y016693D01*
X018428Y016373D01*
X018551Y016077D01*
X018777Y015851D01*
X018773Y015855D02*
X015594Y015855D01*
X015677Y015904D02*
X018724Y015904D01*
X018676Y015952D02*
X015726Y015952D01*
X015760Y016001D02*
X018627Y016001D01*
X018579Y016049D02*
X015780Y016049D01*
X015800Y016098D02*
X018542Y016098D01*
X018522Y016146D02*
X015803Y016146D01*
X015803Y016195D02*
X018502Y016195D01*
X018482Y016243D02*
X015802Y016243D01*
X015782Y016292D02*
X018462Y016292D01*
X018442Y016340D02*
X015762Y016340D01*
X015730Y016389D02*
X018428Y016389D01*
X018428Y016437D02*
X015681Y016437D01*
X015604Y016486D02*
X018428Y016486D01*
X018428Y016534D02*
X014891Y016534D01*
X014891Y016573D02*
X014838Y016701D01*
X014741Y016798D01*
X014614Y016850D01*
X014476Y016850D01*
X014349Y016798D01*
X014252Y016701D01*
X014199Y016573D01*
X014199Y016436D01*
X014252Y016309D01*
X014349Y016212D01*
X014476Y016159D01*
X014614Y016159D01*
X014741Y016212D01*
X014838Y016309D01*
X014891Y016436D01*
X014891Y016573D01*
X014887Y016583D02*
X015573Y016583D01*
X015579Y016576D02*
X015741Y016576D01*
X015855Y016691D01*
X015855Y016853D01*
X015741Y016968D01*
X015579Y016968D01*
X015464Y016853D01*
X015464Y016691D01*
X015579Y016576D01*
X015524Y016631D02*
X014867Y016631D01*
X014847Y016680D02*
X015476Y016680D01*
X015464Y016728D02*
X014811Y016728D01*
X014762Y016777D02*
X015464Y016777D01*
X015464Y016825D02*
X014675Y016825D01*
X014415Y016825D02*
X014013Y016825D01*
X014021Y016807D02*
X013968Y016934D01*
X013871Y017031D01*
X013744Y017084D01*
X013607Y017084D01*
X013479Y017031D01*
X013382Y016934D01*
X013330Y016807D01*
X013330Y016669D01*
X013382Y016542D01*
X013479Y016445D01*
X013607Y016392D01*
X013744Y016392D01*
X013871Y016445D01*
X013968Y016542D01*
X014021Y016669D01*
X014021Y016807D01*
X014021Y016777D02*
X014328Y016777D01*
X014279Y016728D02*
X014021Y016728D01*
X014021Y016680D02*
X014243Y016680D01*
X014223Y016631D02*
X014005Y016631D01*
X013985Y016583D02*
X014203Y016583D01*
X014199Y016534D02*
X013960Y016534D01*
X013912Y016486D02*
X014199Y016486D01*
X014199Y016437D02*
X013852Y016437D01*
X013653Y016146D02*
X015111Y016146D01*
X015111Y016195D02*
X014700Y016195D01*
X014772Y016243D02*
X015112Y016243D01*
X015132Y016292D02*
X014821Y016292D01*
X014851Y016340D02*
X015152Y016340D01*
X015184Y016389D02*
X014871Y016389D01*
X014891Y016437D02*
X015233Y016437D01*
X015310Y016486D02*
X014891Y016486D01*
X015065Y016874D02*
X015132Y016847D01*
X015202Y016833D01*
X015274Y016833D01*
X015344Y016847D01*
X015411Y016874D01*
X015471Y016914D01*
X015478Y016922D01*
X015533Y016922D01*
X015514Y016957D02*
X015522Y016965D01*
X015561Y017025D01*
X015589Y017091D01*
X015603Y017162D01*
X015603Y017234D01*
X015589Y017304D01*
X015561Y017371D01*
X015522Y017430D01*
X015514Y017438D01*
X015273Y017198D01*
X015238Y017233D01*
X015478Y017473D01*
X015471Y017481D01*
X015411Y017521D01*
X015344Y017549D01*
X015274Y017563D01*
X015202Y017563D01*
X015132Y017549D01*
X015065Y017521D01*
X015005Y017481D01*
X014998Y017473D01*
X015238Y017233D01*
X015203Y017198D01*
X014962Y017438D01*
X014954Y017430D01*
X014915Y017371D01*
X014887Y017304D01*
X014873Y017234D01*
X014873Y017162D01*
X014887Y017091D01*
X014915Y017025D01*
X014954Y016965D01*
X014962Y016957D01*
X015203Y017198D01*
X015238Y017162D01*
X015273Y017198D01*
X015514Y016957D01*
X015525Y016971D02*
X018125Y016971D01*
X018104Y016991D02*
X018219Y016876D01*
X018381Y016876D01*
X018495Y016991D01*
X018495Y017153D01*
X018381Y017268D01*
X018219Y017268D01*
X018104Y017153D01*
X018104Y016991D01*
X018104Y017019D02*
X015558Y017019D01*
X015579Y017068D02*
X018104Y017068D01*
X018104Y017116D02*
X015594Y017116D01*
X015603Y017165D02*
X018115Y017165D01*
X018164Y017213D02*
X015603Y017213D01*
X015597Y017262D02*
X018212Y017262D01*
X018387Y017262D02*
X018889Y017262D01*
X018775Y017213D02*
X018436Y017213D01*
X018484Y017165D02*
X018726Y017165D01*
X018678Y017116D02*
X018495Y017116D01*
X018495Y017068D02*
X018629Y017068D01*
X018581Y017019D02*
X018495Y017019D01*
X018475Y016971D02*
X018543Y016971D01*
X018523Y016922D02*
X018426Y016922D01*
X018503Y016874D02*
X015835Y016874D01*
X015855Y016825D02*
X018483Y016825D01*
X018463Y016777D02*
X015855Y016777D01*
X015855Y016728D02*
X018443Y016728D01*
X018428Y016680D02*
X015844Y016680D01*
X015795Y016631D02*
X018428Y016631D01*
X018428Y016583D02*
X015747Y016583D01*
X015787Y016922D02*
X018173Y016922D01*
X019006Y017310D02*
X015587Y017310D01*
X015566Y017359D02*
X019459Y017359D01*
X019459Y017407D02*
X015537Y017407D01*
X015483Y017407D02*
X015412Y017407D01*
X015434Y017359D02*
X015364Y017359D01*
X015386Y017310D02*
X015315Y017310D01*
X015337Y017262D02*
X015267Y017262D01*
X015258Y017213D02*
X015289Y017213D01*
X015306Y017165D02*
X015240Y017165D01*
X015238Y017162D02*
X015478Y016922D01*
X015484Y016874D02*
X015409Y016874D01*
X015430Y016971D02*
X015500Y016971D01*
X015452Y017019D02*
X015381Y017019D01*
X015403Y017068D02*
X015333Y017068D01*
X015355Y017116D02*
X015284Y017116D01*
X015238Y017162D02*
X014998Y016922D01*
X013973Y016922D01*
X013993Y016874D02*
X015067Y016874D01*
X015065Y016874D02*
X015005Y016914D01*
X014998Y016922D01*
X014976Y016971D02*
X015046Y016971D01*
X015024Y017019D02*
X015095Y017019D01*
X015073Y017068D02*
X015143Y017068D01*
X015121Y017116D02*
X015192Y017116D01*
X015170Y017165D02*
X015236Y017165D01*
X015218Y017213D02*
X015187Y017213D01*
X015209Y017262D02*
X015139Y017262D01*
X015161Y017310D02*
X015090Y017310D01*
X015112Y017359D02*
X015042Y017359D01*
X015064Y017407D02*
X014993Y017407D01*
X015015Y017456D02*
X014714Y017456D01*
X014714Y017500D02*
X014661Y017627D01*
X014564Y017724D01*
X014437Y017777D01*
X014299Y017777D01*
X014172Y017724D01*
X014075Y017627D01*
X014023Y017500D01*
X014023Y017362D01*
X014075Y017235D01*
X014172Y017138D01*
X014299Y017085D01*
X014437Y017085D01*
X014564Y017138D01*
X014661Y017235D01*
X014714Y017362D01*
X014714Y017500D01*
X014712Y017504D02*
X015040Y017504D01*
X015151Y017553D02*
X014692Y017553D01*
X014672Y017601D02*
X019559Y017601D01*
X019510Y017553D02*
X015325Y017553D01*
X015436Y017504D02*
X019462Y017504D01*
X019459Y017456D02*
X015461Y017456D01*
X015200Y017774D02*
X015298Y017872D01*
X015350Y017999D01*
X015350Y018136D01*
X015298Y018263D01*
X015200Y018360D01*
X015073Y018413D01*
X014936Y018413D01*
X014809Y018360D01*
X014712Y018263D01*
X014659Y018136D01*
X014659Y017999D01*
X014712Y017872D01*
X014809Y017774D01*
X014936Y017722D01*
X015073Y017722D01*
X015200Y017774D01*
X015221Y017795D02*
X026016Y017795D01*
X026016Y017747D02*
X015133Y017747D01*
X015270Y017844D02*
X026016Y017844D01*
X026016Y017892D02*
X020926Y017892D01*
X020901Y017866D02*
X021015Y017981D01*
X021015Y018143D01*
X020901Y018258D01*
X020739Y018258D01*
X020670Y018189D01*
X020646Y018212D01*
X020715Y018281D01*
X020715Y018443D01*
X020601Y018558D01*
X020439Y018558D01*
X020324Y018443D01*
X020324Y018281D01*
X020393Y018212D01*
X020324Y018143D01*
X020324Y017981D01*
X020439Y017866D01*
X020601Y017866D01*
X020670Y017935D01*
X020739Y017866D01*
X020901Y017866D01*
X020975Y017941D02*
X026016Y017941D01*
X026017Y017989D02*
X021015Y017989D01*
X021015Y018038D02*
X026017Y018038D01*
X026017Y018086D02*
X021015Y018086D01*
X021015Y018135D02*
X026017Y018135D01*
X026017Y018183D02*
X021217Y018183D01*
X021201Y018166D02*
X021315Y018281D01*
X021315Y018443D01*
X021201Y018558D01*
X021039Y018558D01*
X020924Y018443D01*
X020924Y018281D01*
X021039Y018166D01*
X021201Y018166D01*
X021266Y018232D02*
X026017Y018232D01*
X026017Y018280D02*
X024672Y018280D01*
X024630Y018263D02*
X024788Y018328D01*
X024909Y018449D01*
X024975Y018608D01*
X024975Y018779D01*
X024909Y018937D01*
X024788Y019058D01*
X024630Y019124D01*
X024459Y019124D01*
X024300Y019058D01*
X024179Y018937D01*
X024114Y018779D01*
X024114Y018608D01*
X024179Y018449D01*
X024300Y018328D01*
X024459Y018263D01*
X024630Y018263D01*
X024788Y018329D02*
X026017Y018329D01*
X026017Y018377D02*
X024837Y018377D01*
X024885Y018426D02*
X026017Y018426D01*
X026017Y018474D02*
X024919Y018474D01*
X024940Y018523D02*
X026017Y018523D01*
X026017Y018571D02*
X024960Y018571D01*
X024975Y018620D02*
X026017Y018620D01*
X026017Y018668D02*
X024975Y018668D01*
X024975Y018717D02*
X026017Y018717D01*
X026017Y018765D02*
X024975Y018765D01*
X024960Y018814D02*
X026017Y018814D01*
X026017Y018862D02*
X024940Y018862D01*
X024920Y018911D02*
X026017Y018911D01*
X026017Y018959D02*
X024887Y018959D01*
X024839Y019008D02*
X026017Y019008D01*
X026017Y019056D02*
X024790Y019056D01*
X024676Y019105D02*
X026017Y019105D01*
X026017Y019153D02*
X019210Y019153D01*
X019229Y019106D02*
X019190Y019200D01*
X019180Y019210D01*
X019190Y019221D01*
X019229Y019315D01*
X019229Y019416D01*
X019190Y019510D01*
X019180Y019520D01*
X019190Y019531D01*
X019229Y019625D01*
X019229Y019726D01*
X019190Y019820D01*
X019118Y019892D01*
X019024Y019931D01*
X018923Y019931D01*
X018829Y019892D01*
X018819Y019882D01*
X018808Y019892D01*
X018714Y019931D01*
X018613Y019931D01*
X018519Y019892D01*
X018509Y019882D01*
X018498Y019892D01*
X018404Y019931D01*
X018303Y019931D01*
X018209Y019892D01*
X018137Y019820D01*
X018098Y019726D01*
X018098Y019625D01*
X018137Y019531D01*
X018147Y019520D01*
X018137Y019510D01*
X018098Y019416D01*
X018098Y019315D01*
X018137Y019221D01*
X018147Y019210D01*
X018137Y019200D01*
X018098Y019106D01*
X018098Y019005D01*
X018137Y018911D01*
X018147Y018900D01*
X018137Y018890D01*
X018098Y018796D01*
X018098Y018695D01*
X018137Y018601D01*
X018147Y018590D01*
X018137Y018580D01*
X018098Y018486D01*
X018098Y018385D01*
X018137Y018291D01*
X018209Y018219D01*
X018303Y018180D01*
X018404Y018180D01*
X018498Y018219D01*
X018509Y018229D01*
X018519Y018219D01*
X018613Y018180D01*
X018714Y018180D01*
X018808Y018219D01*
X018819Y018229D01*
X018829Y018219D01*
X018923Y018180D01*
X019024Y018180D01*
X019118Y018219D01*
X019190Y018291D01*
X019229Y018385D01*
X019229Y018486D01*
X019190Y018580D01*
X019180Y018590D01*
X019190Y018601D01*
X019229Y018695D01*
X019229Y018796D01*
X019190Y018890D01*
X019180Y018900D01*
X019190Y018911D01*
X019229Y019005D01*
X019229Y019106D01*
X019229Y019105D02*
X024412Y019105D01*
X024298Y019056D02*
X019229Y019056D01*
X019229Y019008D02*
X024250Y019008D01*
X024201Y018959D02*
X019210Y018959D01*
X019190Y018911D02*
X024168Y018911D01*
X024148Y018862D02*
X019202Y018862D01*
X019222Y018814D02*
X024128Y018814D01*
X024114Y018765D02*
X019229Y018765D01*
X019229Y018717D02*
X024114Y018717D01*
X024114Y018668D02*
X019218Y018668D01*
X019198Y018620D02*
X024114Y018620D01*
X024129Y018571D02*
X019194Y018571D01*
X019214Y018523D02*
X020403Y018523D01*
X020355Y018474D02*
X019229Y018474D01*
X019229Y018426D02*
X020324Y018426D01*
X020324Y018377D02*
X019226Y018377D01*
X019206Y018329D02*
X020324Y018329D01*
X020325Y018280D02*
X019180Y018280D01*
X019131Y018232D02*
X020374Y018232D01*
X020364Y018183D02*
X019032Y018183D01*
X018915Y018183D02*
X018722Y018183D01*
X018605Y018183D02*
X018412Y018183D01*
X018295Y018183D02*
X015331Y018183D01*
X015350Y018135D02*
X020324Y018135D01*
X020324Y018086D02*
X015350Y018086D01*
X015350Y018038D02*
X020324Y018038D01*
X020324Y017989D02*
X015346Y017989D01*
X015326Y017941D02*
X020365Y017941D01*
X020413Y017892D02*
X015306Y017892D01*
X015311Y018232D02*
X018196Y018232D01*
X018147Y018280D02*
X015281Y018280D01*
X015232Y018329D02*
X018121Y018329D01*
X018101Y018377D02*
X015160Y018377D01*
X014849Y018377D02*
X014483Y018377D01*
X014437Y018358D02*
X014564Y018411D01*
X014661Y018508D01*
X014714Y018635D01*
X014714Y018773D01*
X014661Y018900D01*
X014564Y018997D01*
X014437Y019049D01*
X014299Y019049D01*
X014172Y018997D01*
X014075Y018900D01*
X014023Y018773D01*
X014023Y018635D01*
X014075Y018508D01*
X014172Y018411D01*
X014299Y018358D01*
X014437Y018358D01*
X014579Y018426D02*
X018098Y018426D01*
X018098Y018474D02*
X014627Y018474D01*
X014667Y018523D02*
X018113Y018523D01*
X018133Y018571D02*
X014687Y018571D01*
X014708Y018620D02*
X018129Y018620D01*
X018109Y018668D02*
X014714Y018668D01*
X014714Y018717D02*
X018098Y018717D01*
X018098Y018765D02*
X014714Y018765D01*
X014697Y018814D02*
X018105Y018814D01*
X018125Y018862D02*
X017123Y018862D01*
X017111Y018850D02*
X017226Y018964D01*
X017226Y019127D01*
X017111Y019241D01*
X016949Y019241D01*
X016834Y019127D01*
X016834Y018964D01*
X016949Y018850D01*
X017111Y018850D01*
X017172Y018911D02*
X018137Y018911D01*
X018117Y018959D02*
X017220Y018959D01*
X017226Y019008D02*
X018098Y019008D01*
X018098Y019056D02*
X017226Y019056D01*
X017226Y019105D02*
X018098Y019105D01*
X018117Y019153D02*
X017199Y019153D01*
X017151Y019202D02*
X018138Y019202D01*
X018125Y019250D02*
X013646Y019250D01*
X013694Y019230D02*
X013567Y019283D01*
X013430Y019283D01*
X013303Y019230D01*
X013205Y019133D01*
X013153Y019006D01*
X013153Y018868D01*
X013205Y018741D01*
X013303Y018644D01*
X013430Y018591D01*
X013567Y018591D01*
X013694Y018644D01*
X013792Y018741D01*
X013844Y018868D01*
X013844Y019006D01*
X013792Y019133D01*
X013694Y019230D01*
X013723Y019202D02*
X016909Y019202D01*
X016861Y019153D02*
X013772Y019153D01*
X013803Y019105D02*
X016834Y019105D01*
X016834Y019056D02*
X013823Y019056D01*
X013844Y019008D02*
X014198Y019008D01*
X014135Y018959D02*
X013844Y018959D01*
X013844Y018911D02*
X014086Y018911D01*
X014060Y018862D02*
X013842Y018862D01*
X013822Y018814D02*
X014040Y018814D01*
X014023Y018765D02*
X013801Y018765D01*
X013767Y018717D02*
X014023Y018717D01*
X014023Y018668D02*
X013718Y018668D01*
X013635Y018620D02*
X014029Y018620D01*
X014049Y018571D02*
X012920Y018571D01*
X012874Y018590D02*
X012737Y018590D01*
X012610Y018537D01*
X012512Y018440D01*
X012460Y018313D01*
X012460Y018175D01*
X012512Y018048D01*
X012610Y017951D01*
X012737Y017898D01*
X012874Y017898D01*
X013001Y017951D01*
X013099Y018048D01*
X013151Y018175D01*
X013151Y018313D01*
X013099Y018440D01*
X013001Y018537D01*
X012874Y018590D01*
X013016Y018523D02*
X014069Y018523D01*
X014109Y018474D02*
X013065Y018474D01*
X013105Y018426D02*
X014158Y018426D01*
X014254Y018377D02*
X013888Y018377D01*
X013928Y018360D02*
X013801Y018413D01*
X013663Y018413D01*
X013536Y018360D01*
X013439Y018263D01*
X013386Y018136D01*
X013386Y017999D01*
X013439Y017872D01*
X013536Y017774D01*
X013663Y017722D01*
X013801Y017722D01*
X013928Y017774D01*
X014025Y017872D01*
X014078Y017999D01*
X014078Y018136D01*
X014025Y018263D01*
X013928Y018360D01*
X013960Y018329D02*
X014777Y018329D01*
X014728Y018280D02*
X014008Y018280D01*
X014038Y018232D02*
X014698Y018232D01*
X014678Y018183D02*
X014058Y018183D01*
X014078Y018135D02*
X014659Y018135D01*
X014659Y018086D02*
X014078Y018086D01*
X014078Y018038D02*
X014659Y018038D01*
X014663Y017989D02*
X014074Y017989D01*
X014054Y017941D02*
X014683Y017941D01*
X014703Y017892D02*
X014033Y017892D01*
X013997Y017844D02*
X014740Y017844D01*
X014788Y017795D02*
X013948Y017795D01*
X013861Y017747D02*
X014227Y017747D01*
X014146Y017698D02*
X013161Y017698D01*
X013108Y017720D02*
X012970Y017720D01*
X012843Y017667D01*
X012746Y017570D01*
X012693Y017443D01*
X012693Y017306D01*
X012746Y017179D01*
X012843Y017081D01*
X012970Y017029D01*
X013108Y017029D01*
X013235Y017081D01*
X013332Y017179D01*
X013385Y017306D01*
X013385Y017443D01*
X013332Y017570D01*
X013235Y017667D01*
X013108Y017720D01*
X013253Y017650D02*
X014098Y017650D01*
X014064Y017601D02*
X013301Y017601D01*
X013339Y017553D02*
X014044Y017553D01*
X014024Y017504D02*
X013359Y017504D01*
X013379Y017456D02*
X014023Y017456D01*
X014023Y017407D02*
X013385Y017407D01*
X013385Y017359D02*
X014024Y017359D01*
X014044Y017310D02*
X013385Y017310D01*
X013366Y017262D02*
X014064Y017262D01*
X014097Y017213D02*
X013346Y017213D01*
X013318Y017165D02*
X014146Y017165D01*
X014225Y017116D02*
X013269Y017116D01*
X013201Y017068D02*
X013567Y017068D01*
X013467Y017019D02*
X012493Y017019D01*
X012513Y017068D02*
X012876Y017068D01*
X012808Y017116D02*
X012515Y017116D01*
X012515Y017072D02*
X012462Y016945D01*
X012365Y016848D01*
X012238Y016795D01*
X012100Y016795D01*
X011973Y016848D01*
X011876Y016945D01*
X011823Y017072D01*
X011823Y017210D01*
X011876Y017337D01*
X011973Y017434D01*
X012100Y017487D01*
X012238Y017487D01*
X012365Y017434D01*
X012462Y017337D01*
X012515Y017210D01*
X012515Y017072D01*
X012515Y017165D02*
X012760Y017165D01*
X012732Y017213D02*
X012514Y017213D01*
X012493Y017262D02*
X012711Y017262D01*
X012693Y017310D02*
X012473Y017310D01*
X012441Y017359D02*
X012693Y017359D01*
X012693Y017407D02*
X012392Y017407D01*
X012313Y017456D02*
X012698Y017456D01*
X012718Y017504D02*
X011602Y017504D01*
X011622Y017456D02*
X012025Y017456D01*
X011946Y017407D02*
X011624Y017407D01*
X011624Y017450D02*
X011571Y017577D01*
X011474Y017675D01*
X011347Y017727D01*
X011209Y017727D01*
X011082Y017675D01*
X010985Y017577D01*
X010932Y017450D01*
X010932Y017313D01*
X010985Y017186D01*
X011082Y017088D01*
X011209Y017036D01*
X011347Y017036D01*
X011474Y017088D01*
X011571Y017186D01*
X011624Y017313D01*
X011624Y017450D01*
X011624Y017359D02*
X011898Y017359D01*
X011865Y017310D02*
X011623Y017310D01*
X011603Y017262D02*
X011845Y017262D01*
X011825Y017213D02*
X011583Y017213D01*
X011550Y017165D02*
X011823Y017165D01*
X011823Y017116D02*
X011502Y017116D01*
X011424Y017068D02*
X011825Y017068D01*
X011846Y017019D02*
X010339Y017019D01*
X010378Y017003D02*
X010251Y017055D01*
X010113Y017055D01*
X009986Y017003D01*
X009889Y016906D01*
X009836Y016779D01*
X009836Y016641D01*
X009889Y016514D01*
X009986Y016417D01*
X010113Y016364D01*
X010251Y016364D01*
X010378Y016417D01*
X010475Y016514D01*
X010528Y016641D01*
X010528Y016779D01*
X010475Y016906D01*
X010378Y017003D01*
X010410Y016971D02*
X011866Y016971D01*
X011899Y016922D02*
X010459Y016922D01*
X010489Y016874D02*
X011948Y016874D01*
X012029Y016825D02*
X011196Y016825D01*
X011283Y016777D02*
X012588Y016777D01*
X012540Y016728D02*
X011332Y016728D01*
X011368Y016680D02*
X012504Y016680D01*
X012484Y016631D02*
X011388Y016631D01*
X011408Y016583D02*
X011784Y016583D01*
X011710Y016534D02*
X011412Y016534D01*
X011412Y016486D02*
X011661Y016486D01*
X011630Y016437D02*
X011412Y016437D01*
X011392Y016389D02*
X011610Y016389D01*
X011590Y016243D02*
X011293Y016243D01*
X011221Y016195D02*
X011593Y016195D01*
X011614Y016146D02*
X010370Y016146D01*
X010477Y016098D02*
X011634Y016098D01*
X011669Y016049D02*
X010526Y016049D01*
X010790Y016292D02*
X007206Y016292D01*
X007226Y016340D02*
X010760Y016340D01*
X010740Y016389D02*
X010310Y016389D01*
X010398Y016437D02*
X010720Y016437D01*
X010720Y016486D02*
X010447Y016486D01*
X010484Y016534D02*
X010720Y016534D01*
X010724Y016583D02*
X010504Y016583D01*
X010524Y016631D02*
X010744Y016631D01*
X010764Y016680D02*
X010528Y016680D01*
X010528Y016728D02*
X010801Y016728D01*
X010849Y016777D02*
X010528Y016777D01*
X010509Y016825D02*
X010936Y016825D01*
X011133Y017068D02*
X008372Y017068D01*
X008385Y017081D02*
X008271Y016966D01*
X008109Y016966D01*
X007994Y017081D01*
X007994Y017243D01*
X008109Y017358D01*
X008271Y017358D01*
X008385Y017243D01*
X008385Y017081D01*
X008385Y017116D02*
X011055Y017116D01*
X011006Y017165D02*
X008385Y017165D01*
X008385Y017213D02*
X010974Y017213D01*
X010954Y017262D02*
X010513Y017262D01*
X010463Y017241D02*
X010590Y017293D01*
X010687Y017391D01*
X010740Y017518D01*
X010740Y017655D01*
X010687Y017782D01*
X010590Y017880D01*
X010463Y017932D01*
X010326Y017932D01*
X010198Y017880D01*
X010101Y017782D01*
X010049Y017655D01*
X010049Y017518D01*
X010101Y017391D01*
X010198Y017293D01*
X010326Y017241D01*
X010463Y017241D01*
X010607Y017310D02*
X010934Y017310D01*
X010932Y017359D02*
X010655Y017359D01*
X010694Y017407D02*
X010932Y017407D01*
X010935Y017456D02*
X010714Y017456D01*
X010734Y017504D02*
X010955Y017504D01*
X010975Y017553D02*
X010740Y017553D01*
X010740Y017601D02*
X011009Y017601D01*
X011057Y017650D02*
X010740Y017650D01*
X010722Y017698D02*
X011139Y017698D01*
X011417Y017698D02*
X011783Y017698D01*
X011846Y017672D02*
X011983Y017672D01*
X012110Y017725D01*
X012208Y017822D01*
X012260Y017949D01*
X012260Y018087D01*
X012208Y018214D01*
X012110Y018311D01*
X011983Y018364D01*
X011846Y018364D01*
X011719Y018311D01*
X011622Y018214D01*
X011569Y018087D01*
X011569Y017949D01*
X011622Y017822D01*
X011719Y017725D01*
X011846Y017672D01*
X011697Y017747D02*
X010702Y017747D01*
X010675Y017795D02*
X011649Y017795D01*
X011613Y017844D02*
X010626Y017844D01*
X010560Y017892D02*
X011593Y017892D01*
X011572Y017941D02*
X002670Y017941D01*
X002670Y017989D02*
X011569Y017989D01*
X011569Y018038D02*
X011048Y018038D01*
X011078Y018050D02*
X010951Y017997D01*
X010813Y017997D01*
X010686Y018050D01*
X010589Y018147D01*
X010537Y018274D01*
X010537Y018412D01*
X010589Y018539D01*
X010686Y018636D01*
X010813Y018689D01*
X010951Y018689D01*
X011078Y018636D01*
X011175Y018539D01*
X011228Y018412D01*
X011228Y018274D01*
X011175Y018147D01*
X011078Y018050D01*
X011114Y018086D02*
X011569Y018086D01*
X011589Y018135D02*
X011162Y018135D01*
X011190Y018183D02*
X011609Y018183D01*
X011639Y018232D02*
X011210Y018232D01*
X011228Y018280D02*
X011688Y018280D01*
X011761Y018329D02*
X011228Y018329D01*
X011228Y018377D02*
X012486Y018377D01*
X012466Y018329D02*
X012068Y018329D01*
X012141Y018280D02*
X012460Y018280D01*
X012460Y018232D02*
X012190Y018232D01*
X012220Y018183D02*
X012460Y018183D01*
X012477Y018135D02*
X012240Y018135D01*
X012260Y018086D02*
X012497Y018086D01*
X012523Y018038D02*
X012260Y018038D01*
X012260Y017989D02*
X012572Y017989D01*
X012635Y017941D02*
X012257Y017941D01*
X012237Y017892D02*
X013430Y017892D01*
X013410Y017941D02*
X012976Y017941D01*
X013039Y017989D02*
X013390Y017989D01*
X013386Y018038D02*
X013088Y018038D01*
X013114Y018086D02*
X013386Y018086D01*
X013386Y018135D02*
X013134Y018135D01*
X013151Y018183D02*
X013406Y018183D01*
X013426Y018232D02*
X013151Y018232D01*
X013151Y018280D02*
X013456Y018280D01*
X013504Y018329D02*
X013145Y018329D01*
X013125Y018377D02*
X013576Y018377D01*
X013362Y018620D02*
X011817Y018620D01*
X011799Y018602D02*
X011897Y018699D01*
X011949Y018826D01*
X011949Y018963D01*
X011897Y019091D01*
X011799Y019188D01*
X011672Y019240D01*
X011535Y019240D01*
X011408Y019188D01*
X011310Y019091D01*
X011258Y018963D01*
X011258Y018826D01*
X011310Y018699D01*
X011408Y018602D01*
X011535Y018549D01*
X011672Y018549D01*
X011799Y018602D01*
X011725Y018571D02*
X012691Y018571D01*
X012595Y018523D02*
X011182Y018523D01*
X011202Y018474D02*
X012547Y018474D01*
X012506Y018426D02*
X011222Y018426D01*
X011143Y018571D02*
X011481Y018571D01*
X011390Y018620D02*
X011095Y018620D01*
X011001Y018668D02*
X011341Y018668D01*
X011303Y018717D02*
X002670Y018717D01*
X002670Y018765D02*
X011283Y018765D01*
X011263Y018814D02*
X002670Y018814D01*
X002670Y018862D02*
X011258Y018862D01*
X011258Y018911D02*
X002670Y018911D01*
X002670Y018959D02*
X011258Y018959D01*
X011276Y019008D02*
X002670Y019008D01*
X002670Y019056D02*
X011296Y019056D01*
X011324Y019105D02*
X002670Y019105D01*
X002670Y019153D02*
X006192Y019153D01*
X006219Y019126D02*
X006381Y019126D01*
X006495Y019241D01*
X006495Y019403D01*
X006381Y019518D01*
X006219Y019518D01*
X006104Y019403D01*
X006104Y019241D01*
X006219Y019126D01*
X006144Y019202D02*
X002670Y019202D01*
X002670Y019250D02*
X006104Y019250D01*
X006104Y019299D02*
X002670Y019299D01*
X002670Y019347D02*
X006104Y019347D01*
X006104Y019396D02*
X002670Y019396D01*
X002670Y019444D02*
X006145Y019444D01*
X006193Y019493D02*
X002670Y019493D01*
X002670Y019541D02*
X016309Y019541D01*
X016309Y019501D02*
X016309Y019684D01*
X016383Y019757D01*
X016309Y019831D01*
X016309Y020014D01*
X016383Y020087D01*
X016309Y020161D01*
X016309Y020344D01*
X016438Y020473D01*
X016621Y020473D01*
X016695Y020399D01*
X016768Y020473D01*
X016951Y020473D01*
X017080Y020344D01*
X017080Y020161D01*
X017007Y020087D01*
X017080Y020014D01*
X017080Y019831D01*
X017007Y019757D01*
X017080Y019684D01*
X017080Y019501D01*
X016951Y019371D01*
X016768Y019371D01*
X016695Y019445D01*
X016621Y019371D01*
X016438Y019371D01*
X016309Y019501D01*
X016317Y019493D02*
X012565Y019493D01*
X012542Y019502D02*
X012404Y019502D01*
X012277Y019449D01*
X012180Y019352D01*
X012128Y019225D01*
X012128Y019088D01*
X012180Y018960D01*
X012277Y018863D01*
X012404Y018811D01*
X012542Y018811D01*
X012669Y018863D01*
X012766Y018960D01*
X012819Y019088D01*
X012819Y019225D01*
X012766Y019352D01*
X012669Y019449D01*
X012542Y019502D01*
X012674Y019444D02*
X016366Y019444D01*
X016414Y019396D02*
X012723Y019396D01*
X012768Y019347D02*
X018098Y019347D01*
X018098Y019396D02*
X016975Y019396D01*
X017024Y019444D02*
X018109Y019444D01*
X018129Y019493D02*
X017072Y019493D01*
X017080Y019541D02*
X018132Y019541D01*
X018112Y019590D02*
X017080Y019590D01*
X017080Y019638D02*
X018098Y019638D01*
X018098Y019687D02*
X017077Y019687D01*
X017029Y019735D02*
X018102Y019735D01*
X018122Y019784D02*
X017033Y019784D01*
X017080Y019832D02*
X018149Y019832D01*
X018197Y019881D02*
X017080Y019881D01*
X017080Y019929D02*
X018298Y019929D01*
X018410Y019929D02*
X018608Y019929D01*
X018720Y019929D02*
X018918Y019929D01*
X019030Y019929D02*
X020574Y019929D01*
X020574Y019901D02*
X020689Y019786D01*
X020851Y019786D01*
X020920Y019855D01*
X020989Y019786D01*
X021151Y019786D01*
X021265Y019901D01*
X021265Y020063D01*
X021196Y020132D01*
X021265Y020201D01*
X021265Y020363D01*
X021196Y020432D01*
X021265Y020501D01*
X021265Y020663D01*
X021151Y020778D01*
X020989Y020778D01*
X020920Y020709D01*
X020851Y020778D01*
X020689Y020778D01*
X020574Y020663D01*
X020574Y020501D01*
X020643Y020432D01*
X020574Y020363D01*
X020574Y020201D01*
X020643Y020132D01*
X020574Y020063D01*
X020574Y019901D01*
X020595Y019881D02*
X019130Y019881D01*
X019179Y019832D02*
X020643Y019832D01*
X020574Y019978D02*
X017080Y019978D01*
X017068Y020026D02*
X020574Y020026D01*
X020585Y020075D02*
X017019Y020075D01*
X017043Y020123D02*
X020634Y020123D01*
X020604Y020172D02*
X017080Y020172D01*
X017080Y020220D02*
X020574Y020220D01*
X020574Y020269D02*
X017080Y020269D01*
X017080Y020317D02*
X020574Y020317D01*
X020576Y020366D02*
X017058Y020366D01*
X017010Y020414D02*
X020625Y020414D01*
X020613Y020463D02*
X016961Y020463D01*
X016758Y020463D02*
X016631Y020463D01*
X016680Y020414D02*
X016709Y020414D01*
X016428Y020463D02*
X002670Y020463D01*
X002670Y020511D02*
X020574Y020511D01*
X020574Y020560D02*
X004265Y020560D01*
X004259Y020558D02*
X004612Y020652D01*
X004928Y020835D01*
X005187Y021094D01*
X005370Y021410D01*
X005464Y021763D01*
X005464Y022129D01*
X005370Y022482D01*
X005187Y022799D01*
X004928Y023057D01*
X004612Y023240D01*
X004259Y023335D01*
X003893Y023335D01*
X003540Y023240D01*
X003223Y023057D01*
X002965Y022799D01*
X002782Y022482D01*
X002688Y022129D01*
X002688Y021763D01*
X002782Y021410D01*
X002965Y021094D01*
X003223Y020835D01*
X003540Y020652D01*
X003893Y020558D01*
X004259Y020558D01*
X004446Y020608D02*
X010917Y020608D01*
X010939Y020586D02*
X011101Y020586D01*
X011215Y020701D01*
X011215Y020863D01*
X011146Y020932D01*
X011215Y021001D01*
X011215Y021163D01*
X011146Y021232D01*
X011215Y021301D01*
X011215Y021463D01*
X011146Y021532D01*
X011215Y021601D01*
X011215Y021763D01*
X011101Y021878D01*
X010939Y021878D01*
X010824Y021763D01*
X010824Y021601D01*
X010893Y021532D01*
X010824Y021463D01*
X010824Y021301D01*
X010893Y021232D01*
X010824Y021163D01*
X010824Y021001D01*
X010893Y020932D01*
X010824Y020863D01*
X010824Y020701D01*
X010939Y020586D01*
X010869Y020657D02*
X004619Y020657D01*
X004703Y020705D02*
X010824Y020705D01*
X010824Y020754D02*
X004787Y020754D01*
X004871Y020802D02*
X010824Y020802D01*
X010824Y020851D02*
X004944Y020851D01*
X004992Y020899D02*
X010860Y020899D01*
X010878Y020948D02*
X005041Y020948D01*
X005089Y020996D02*
X010829Y020996D01*
X010824Y021045D02*
X005138Y021045D01*
X005186Y021093D02*
X010824Y021093D01*
X010824Y021142D02*
X005215Y021142D01*
X005243Y021190D02*
X010851Y021190D01*
X010887Y021239D02*
X005271Y021239D01*
X005299Y021287D02*
X010838Y021287D01*
X010824Y021336D02*
X005327Y021336D01*
X005355Y021384D02*
X010824Y021384D01*
X010824Y021433D02*
X005376Y021433D01*
X005389Y021481D02*
X010842Y021481D01*
X010890Y021530D02*
X005402Y021530D01*
X005415Y021578D02*
X010847Y021578D01*
X010824Y021627D02*
X005428Y021627D01*
X005441Y021675D02*
X010824Y021675D01*
X010824Y021724D02*
X005454Y021724D01*
X005464Y021772D02*
X010833Y021772D01*
X010881Y021821D02*
X005464Y021821D01*
X005464Y021869D02*
X010930Y021869D01*
X011110Y021869D02*
X011675Y021869D01*
X011702Y021896D02*
X011599Y021793D01*
X011599Y021648D01*
X011702Y021545D01*
X011848Y021545D01*
X011951Y021648D01*
X011951Y021793D01*
X011848Y021896D01*
X011702Y021896D01*
X011626Y021821D02*
X011158Y021821D01*
X011207Y021772D02*
X011599Y021772D01*
X011599Y021724D02*
X011215Y021724D01*
X011215Y021675D02*
X011599Y021675D01*
X011620Y021627D02*
X011215Y021627D01*
X011192Y021578D02*
X011669Y021578D01*
X011728Y021486D02*
X011582Y021486D01*
X011479Y021383D01*
X011479Y021238D01*
X011582Y021135D01*
X011728Y021135D01*
X011831Y021238D01*
X011831Y021383D01*
X011728Y021486D01*
X011733Y021481D02*
X021644Y021481D01*
X021624Y021501D02*
X021739Y021386D01*
X021824Y021386D01*
X021824Y021301D01*
X021939Y021186D01*
X022044Y021186D01*
X022044Y021081D01*
X022159Y020966D01*
X022321Y020966D01*
X022435Y021081D01*
X022435Y021243D01*
X022321Y021358D01*
X022215Y021358D01*
X022215Y021463D01*
X022101Y021578D01*
X022015Y021578D01*
X022939Y021578D01*
X022926Y021627D02*
X022015Y021627D01*
X022015Y021663D02*
X021901Y021778D01*
X021815Y021778D01*
X021815Y021863D01*
X021701Y021978D01*
X021539Y021978D01*
X021424Y021863D01*
X021424Y021701D01*
X021539Y021586D01*
X021624Y021586D01*
X021624Y021501D01*
X021624Y021530D02*
X011149Y021530D01*
X011198Y021481D02*
X011577Y021481D01*
X011528Y021433D02*
X011215Y021433D01*
X011215Y021384D02*
X011480Y021384D01*
X011479Y021336D02*
X011215Y021336D01*
X011201Y021287D02*
X011479Y021287D01*
X011479Y021239D02*
X011153Y021239D01*
X011189Y021190D02*
X011527Y021190D01*
X011575Y021142D02*
X011215Y021142D01*
X011215Y021093D02*
X022044Y021093D01*
X022044Y021142D02*
X011734Y021142D01*
X011783Y021190D02*
X021935Y021190D01*
X021887Y021239D02*
X011831Y021239D01*
X011831Y021287D02*
X021838Y021287D01*
X021824Y021336D02*
X011831Y021336D01*
X011830Y021384D02*
X021824Y021384D01*
X021693Y021433D02*
X011781Y021433D01*
X011881Y021578D02*
X021624Y021578D01*
X021499Y021627D02*
X011929Y021627D01*
X011951Y021675D02*
X021450Y021675D01*
X021424Y021724D02*
X011951Y021724D01*
X011951Y021772D02*
X021424Y021772D01*
X021424Y021821D02*
X011923Y021821D01*
X011875Y021869D02*
X021430Y021869D01*
X021478Y021918D02*
X009532Y021918D01*
X009593Y021943D02*
X009693Y022043D01*
X009747Y022174D01*
X009747Y022316D01*
X009693Y022447D01*
X009593Y022548D01*
X009461Y022602D01*
X009320Y022602D01*
X009188Y022548D01*
X009088Y022447D01*
X009034Y022316D01*
X009034Y022174D01*
X009088Y022043D01*
X009188Y021943D01*
X009320Y021889D01*
X009461Y021889D01*
X009593Y021943D01*
X009616Y021966D02*
X021527Y021966D01*
X021713Y021966D02*
X022885Y021966D01*
X022885Y021918D02*
X021761Y021918D01*
X021810Y021869D02*
X022885Y021869D01*
X022885Y021821D02*
X021815Y021821D01*
X021907Y021772D02*
X022887Y021772D01*
X022885Y021781D02*
X022980Y021428D01*
X023162Y021111D01*
X023421Y020852D01*
X023737Y020670D01*
X024090Y020575D01*
X024456Y020575D01*
X024809Y020670D01*
X025126Y020852D01*
X025384Y021111D01*
X025567Y021428D01*
X025662Y021781D01*
X025662Y022146D01*
X025567Y022499D01*
X025384Y022816D01*
X025126Y023074D01*
X024809Y023257D01*
X024456Y023352D01*
X024090Y023352D01*
X023737Y023257D01*
X023421Y023074D01*
X023162Y022816D01*
X022980Y022499D01*
X022885Y022146D01*
X022885Y021781D01*
X022900Y021724D02*
X021955Y021724D01*
X022004Y021675D02*
X022913Y021675D01*
X022952Y021530D02*
X022149Y021530D01*
X022198Y021481D02*
X022965Y021481D01*
X022978Y021433D02*
X022215Y021433D01*
X022215Y021384D02*
X023005Y021384D01*
X023033Y021336D02*
X022343Y021336D01*
X022392Y021287D02*
X023061Y021287D01*
X023089Y021239D02*
X022435Y021239D01*
X022435Y021190D02*
X023117Y021190D01*
X023145Y021142D02*
X022435Y021142D01*
X022435Y021093D02*
X023180Y021093D01*
X023229Y021045D02*
X022399Y021045D01*
X022350Y020996D02*
X023277Y020996D01*
X023326Y020948D02*
X011162Y020948D01*
X011180Y020899D02*
X023374Y020899D01*
X023424Y020851D02*
X011215Y020851D01*
X011215Y020802D02*
X023508Y020802D01*
X023592Y020754D02*
X021175Y020754D01*
X021224Y020705D02*
X023676Y020705D01*
X023786Y020657D02*
X021265Y020657D01*
X021265Y020608D02*
X023967Y020608D01*
X024579Y020608D02*
X026019Y020608D01*
X026019Y020560D02*
X021265Y020560D01*
X021265Y020511D02*
X026019Y020511D01*
X026019Y020463D02*
X021227Y020463D01*
X021215Y020414D02*
X026018Y020414D01*
X026018Y020366D02*
X021263Y020366D01*
X021265Y020317D02*
X026018Y020317D01*
X026018Y020269D02*
X021265Y020269D01*
X021265Y020220D02*
X026018Y020220D01*
X026018Y020172D02*
X021236Y020172D01*
X021206Y020123D02*
X026018Y020123D01*
X026018Y020075D02*
X021254Y020075D01*
X021265Y020026D02*
X026018Y020026D01*
X026018Y019978D02*
X021265Y019978D01*
X021265Y019929D02*
X026018Y019929D01*
X026018Y019881D02*
X021245Y019881D01*
X021196Y019832D02*
X026018Y019832D01*
X026018Y019784D02*
X019206Y019784D01*
X019226Y019735D02*
X026018Y019735D01*
X026018Y019687D02*
X019229Y019687D01*
X019229Y019638D02*
X026018Y019638D01*
X026018Y019590D02*
X019215Y019590D01*
X019195Y019541D02*
X026018Y019541D01*
X026018Y019493D02*
X019198Y019493D01*
X019218Y019444D02*
X026018Y019444D01*
X026018Y019396D02*
X019229Y019396D01*
X019229Y019347D02*
X026018Y019347D01*
X026018Y019299D02*
X019223Y019299D01*
X019203Y019250D02*
X026018Y019250D01*
X026017Y019202D02*
X019189Y019202D01*
X018105Y019299D02*
X012789Y019299D01*
X012809Y019250D02*
X013351Y019250D01*
X013274Y019202D02*
X012819Y019202D01*
X012819Y019153D02*
X013226Y019153D01*
X013194Y019105D02*
X012819Y019105D01*
X012806Y019056D02*
X013174Y019056D01*
X013153Y019008D02*
X012786Y019008D01*
X012765Y018959D02*
X013153Y018959D01*
X013153Y018911D02*
X012716Y018911D01*
X012666Y018862D02*
X013155Y018862D01*
X013176Y018814D02*
X012549Y018814D01*
X012397Y018814D02*
X011944Y018814D01*
X011949Y018862D02*
X012280Y018862D01*
X012230Y018911D02*
X011949Y018911D01*
X011949Y018959D02*
X012182Y018959D01*
X012161Y019008D02*
X011931Y019008D01*
X011911Y019056D02*
X012141Y019056D01*
X012128Y019105D02*
X011883Y019105D01*
X011834Y019153D02*
X012128Y019153D01*
X012128Y019202D02*
X011766Y019202D01*
X011441Y019202D02*
X007896Y019202D01*
X007935Y019241D02*
X007821Y019126D01*
X007659Y019126D01*
X007544Y019241D01*
X007544Y019403D01*
X007659Y019518D01*
X007821Y019518D01*
X007935Y019403D01*
X007935Y019241D01*
X007935Y019250D02*
X012138Y019250D01*
X012158Y019299D02*
X007935Y019299D01*
X007935Y019347D02*
X012178Y019347D01*
X012224Y019396D02*
X007935Y019396D01*
X007895Y019444D02*
X012272Y019444D01*
X012381Y019493D02*
X007846Y019493D01*
X007633Y019493D02*
X006406Y019493D01*
X006455Y019444D02*
X007585Y019444D01*
X007544Y019396D02*
X006495Y019396D01*
X006495Y019347D02*
X007544Y019347D01*
X007544Y019299D02*
X006495Y019299D01*
X006495Y019250D02*
X007544Y019250D01*
X007584Y019202D02*
X006456Y019202D01*
X006407Y019153D02*
X007632Y019153D01*
X007847Y019153D02*
X011373Y019153D01*
X011924Y018765D02*
X013196Y018765D01*
X013230Y018717D02*
X011904Y018717D01*
X011866Y018668D02*
X013279Y018668D01*
X013467Y017844D02*
X012217Y017844D01*
X012181Y017795D02*
X013515Y017795D01*
X013603Y017747D02*
X012132Y017747D01*
X012046Y017698D02*
X012917Y017698D01*
X012825Y017650D02*
X011499Y017650D01*
X011548Y017601D02*
X012777Y017601D01*
X012738Y017553D02*
X011582Y017553D01*
X010717Y018038D02*
X002670Y018038D01*
X002670Y018086D02*
X010650Y018086D01*
X010602Y018135D02*
X002670Y018135D01*
X002670Y018183D02*
X010574Y018183D01*
X010554Y018232D02*
X002670Y018232D01*
X002670Y018280D02*
X010537Y018280D01*
X010537Y018329D02*
X002670Y018329D01*
X002670Y018377D02*
X010537Y018377D01*
X010542Y018426D02*
X002670Y018426D01*
X002670Y018474D02*
X010562Y018474D01*
X010582Y018523D02*
X002670Y018523D01*
X002670Y018571D02*
X010621Y018571D01*
X010670Y018620D02*
X002670Y018620D01*
X002670Y018668D02*
X010763Y018668D01*
X010228Y017892D02*
X002670Y017892D01*
X002670Y017844D02*
X010162Y017844D01*
X010114Y017795D02*
X002670Y017795D01*
X002670Y017747D02*
X010086Y017747D01*
X010066Y017698D02*
X002670Y017698D01*
X002670Y017650D02*
X010049Y017650D01*
X010049Y017601D02*
X002670Y017601D01*
X002670Y017553D02*
X010049Y017553D01*
X010054Y017504D02*
X002670Y017504D01*
X002670Y017456D02*
X010074Y017456D01*
X010094Y017407D02*
X002670Y017407D01*
X002670Y017359D02*
X010133Y017359D01*
X010182Y017310D02*
X008319Y017310D01*
X008367Y017262D02*
X010276Y017262D01*
X010025Y017019D02*
X008323Y017019D01*
X008275Y016971D02*
X009954Y016971D01*
X009906Y016922D02*
X007145Y016922D01*
X007165Y016874D02*
X009876Y016874D01*
X009856Y016825D02*
X007185Y016825D01*
X007205Y016777D02*
X009836Y016777D01*
X009836Y016728D02*
X007225Y016728D01*
X007239Y016693D02*
X007117Y016989D01*
X006890Y017215D01*
X006595Y017338D01*
X006274Y017338D01*
X005979Y017215D01*
X005752Y016989D01*
X005630Y016693D01*
X005630Y016373D01*
X005752Y016077D01*
X005979Y015851D01*
X006274Y015728D01*
X006595Y015728D01*
X006890Y015851D01*
X007117Y016077D01*
X007239Y016373D01*
X007239Y016693D01*
X007239Y016680D02*
X009836Y016680D01*
X009841Y016631D02*
X007239Y016631D01*
X007239Y016583D02*
X009861Y016583D01*
X009881Y016534D02*
X007239Y016534D01*
X007239Y016486D02*
X009917Y016486D01*
X009966Y016437D02*
X007239Y016437D01*
X007239Y016389D02*
X010054Y016389D01*
X010178Y016146D02*
X009753Y016146D01*
X009741Y016158D02*
X009579Y016158D01*
X009540Y016119D01*
X009441Y016218D01*
X009279Y016218D01*
X009164Y016103D01*
X009164Y015941D01*
X009279Y015826D01*
X009307Y015826D01*
X009284Y015803D01*
X009284Y015641D01*
X009399Y015526D01*
X009561Y015526D01*
X009675Y015641D01*
X009675Y015766D01*
X009741Y015766D01*
X009855Y015881D01*
X009855Y016043D01*
X009741Y016158D01*
X009801Y016098D02*
X010071Y016098D01*
X010023Y016049D02*
X009850Y016049D01*
X009855Y016001D02*
X009978Y016001D01*
X009958Y015952D02*
X009855Y015952D01*
X009855Y015904D02*
X009938Y015904D01*
X009928Y015855D02*
X009829Y015855D01*
X009781Y015807D02*
X009928Y015807D01*
X009928Y015758D02*
X009675Y015758D01*
X009675Y015710D02*
X009942Y015710D01*
X009962Y015661D02*
X009675Y015661D01*
X009647Y015613D02*
X009984Y015613D01*
X010033Y015564D02*
X009598Y015564D01*
X009361Y015564D02*
X009051Y015564D01*
X009099Y015516D02*
X010086Y015516D01*
X010203Y015467D02*
X009102Y015467D01*
X009102Y015419D02*
X011027Y015419D01*
X010995Y015467D02*
X010345Y015467D01*
X010787Y015322D02*
X011153Y015322D01*
X011075Y015370D02*
X009102Y015370D01*
X009002Y015613D02*
X009313Y015613D01*
X009284Y015661D02*
X008208Y015661D01*
X008208Y015681D02*
X008093Y015796D01*
X007931Y015796D01*
X007817Y015681D01*
X007817Y015519D01*
X007931Y015404D01*
X008093Y015404D01*
X008208Y015519D01*
X008208Y015681D01*
X008180Y015710D02*
X009284Y015710D01*
X009284Y015758D02*
X008131Y015758D01*
X008208Y015613D02*
X008851Y015613D01*
X008802Y015564D02*
X008208Y015564D01*
X008205Y015516D02*
X008754Y015516D01*
X008751Y015467D02*
X008156Y015467D01*
X008108Y015419D02*
X008751Y015419D01*
X008751Y015370D02*
X007426Y015370D01*
X007382Y015326D02*
X007485Y015429D01*
X007485Y015575D01*
X007483Y015577D01*
X007505Y015577D01*
X007607Y015680D01*
X007607Y015825D01*
X007505Y015928D01*
X007359Y015928D01*
X007256Y015825D01*
X007256Y015680D01*
X007258Y015678D01*
X007237Y015678D01*
X007134Y015575D01*
X007134Y015429D01*
X007237Y015326D01*
X007382Y015326D01*
X007475Y015419D02*
X007917Y015419D01*
X007869Y015467D02*
X007485Y015467D01*
X007485Y015516D02*
X007820Y015516D01*
X007817Y015564D02*
X007485Y015564D01*
X007540Y015613D02*
X007817Y015613D01*
X007817Y015661D02*
X007589Y015661D01*
X007607Y015710D02*
X007845Y015710D01*
X007894Y015758D02*
X007607Y015758D01*
X007607Y015807D02*
X009287Y015807D01*
X009250Y015855D02*
X007578Y015855D01*
X007529Y015904D02*
X009202Y015904D01*
X009164Y015952D02*
X006992Y015952D01*
X007040Y016001D02*
X009164Y016001D01*
X009164Y016049D02*
X007089Y016049D01*
X007125Y016098D02*
X009164Y016098D01*
X009207Y016146D02*
X007145Y016146D01*
X007166Y016195D02*
X009255Y016195D01*
X009464Y016195D02*
X010911Y016195D01*
X010839Y016243D02*
X007186Y016243D01*
X007334Y015904D02*
X006943Y015904D01*
X006895Y015855D02*
X007286Y015855D01*
X007256Y015807D02*
X006784Y015807D01*
X006667Y015758D02*
X007256Y015758D01*
X007256Y015710D02*
X002670Y015710D01*
X002670Y015758D02*
X006202Y015758D01*
X006085Y015807D02*
X002670Y015807D01*
X002670Y015855D02*
X005974Y015855D01*
X005926Y015904D02*
X002670Y015904D01*
X002670Y015952D02*
X005877Y015952D01*
X005829Y016001D02*
X002670Y016001D01*
X002670Y016049D02*
X005780Y016049D01*
X005744Y016098D02*
X002670Y016098D01*
X002670Y016146D02*
X005724Y016146D01*
X005703Y016195D02*
X002670Y016195D01*
X002670Y016243D02*
X005683Y016243D01*
X005663Y016292D02*
X002670Y016292D01*
X002670Y016340D02*
X005643Y016340D01*
X005630Y016389D02*
X002670Y016389D01*
X002670Y016437D02*
X005630Y016437D01*
X005630Y016486D02*
X002670Y016486D01*
X002670Y016534D02*
X005630Y016534D01*
X005630Y016583D02*
X002670Y016583D01*
X002670Y016631D02*
X005630Y016631D01*
X005630Y016680D02*
X002670Y016680D01*
X002670Y016728D02*
X005644Y016728D01*
X005664Y016777D02*
X002670Y016777D01*
X002670Y016825D02*
X005684Y016825D01*
X005704Y016874D02*
X002670Y016874D01*
X002670Y016922D02*
X005724Y016922D01*
X005745Y016971D02*
X002670Y016971D01*
X002670Y017019D02*
X005782Y017019D01*
X005831Y017068D02*
X002670Y017068D01*
X002670Y017116D02*
X005879Y017116D01*
X005928Y017165D02*
X002670Y017165D01*
X002670Y017213D02*
X005976Y017213D01*
X006090Y017262D02*
X002670Y017262D01*
X002670Y017310D02*
X006207Y017310D01*
X006662Y017310D02*
X008061Y017310D01*
X008012Y017262D02*
X006779Y017262D01*
X006893Y017213D02*
X007994Y017213D01*
X007994Y017165D02*
X006941Y017165D01*
X006990Y017116D02*
X007994Y017116D01*
X008008Y017068D02*
X007038Y017068D01*
X007087Y017019D02*
X008056Y017019D01*
X008105Y016971D02*
X007125Y016971D01*
X007220Y015661D02*
X002670Y015661D01*
X002670Y015613D02*
X007172Y015613D01*
X007134Y015564D02*
X002670Y015564D01*
X002670Y015516D02*
X007134Y015516D01*
X007134Y015467D02*
X002670Y015467D01*
X002670Y015419D02*
X005043Y015419D01*
X004994Y015370D02*
X002670Y015370D01*
X002670Y015322D02*
X004960Y015322D01*
X004960Y015273D02*
X002670Y015273D01*
X002670Y015225D02*
X004960Y015225D01*
X004975Y015176D02*
X002670Y015176D01*
X002670Y015128D02*
X005023Y015128D01*
X005242Y015079D02*
X002670Y015079D01*
X002670Y015031D02*
X005242Y015031D01*
X005242Y014982D02*
X002670Y014982D01*
X002670Y014934D02*
X005271Y014934D01*
X005320Y014885D02*
X002670Y014885D01*
X002670Y013090D02*
X004231Y013090D01*
X004183Y013042D02*
X002670Y013042D01*
X002670Y012993D02*
X004134Y012993D01*
X004124Y012945D02*
X002670Y012945D01*
X002670Y012896D02*
X004124Y012896D01*
X004124Y012848D02*
X002670Y012848D01*
X002670Y012799D02*
X004146Y012799D01*
X004194Y012751D02*
X002670Y012751D01*
X002670Y011635D02*
X005470Y011635D01*
X005683Y011635D02*
X008237Y011635D01*
X008237Y011587D02*
X003550Y011587D01*
X003599Y011538D02*
X008187Y011538D01*
X008139Y011490D02*
X003634Y011490D01*
X003326Y011587D02*
X002670Y011587D01*
X002670Y011538D02*
X003278Y011538D01*
X003243Y011490D02*
X002670Y011490D01*
X002670Y011441D02*
X003243Y011441D01*
X003243Y011393D02*
X002670Y011393D01*
X002670Y011344D02*
X003243Y011344D01*
X003288Y011296D02*
X002670Y011296D01*
X003093Y010132D02*
X003643Y010132D01*
X003594Y010083D02*
X003045Y010083D01*
X002670Y009695D02*
X004784Y009695D01*
X004784Y009647D02*
X002670Y009647D01*
X002670Y009598D02*
X004827Y009598D01*
X004875Y009550D02*
X002670Y009550D01*
X002670Y009404D02*
X009415Y009404D01*
X009464Y009356D02*
X002670Y009356D01*
X002670Y008046D02*
X003697Y008046D01*
X003654Y007998D02*
X002670Y007998D01*
X002670Y007949D02*
X003654Y007949D01*
X003654Y007901D02*
X002670Y007901D01*
X002670Y007852D02*
X003654Y007852D01*
X003691Y007804D02*
X002670Y007804D01*
X002670Y006785D02*
X010256Y006785D01*
X010214Y006737D02*
X002670Y006737D01*
X002670Y006688D02*
X010214Y006688D01*
X010214Y006640D02*
X002670Y006640D01*
X002670Y006591D02*
X010214Y006591D01*
X010194Y006543D02*
X009756Y006543D01*
X009741Y006558D02*
X009579Y006558D01*
X009464Y006443D01*
X009464Y006281D01*
X009517Y006228D01*
X009429Y006228D01*
X009314Y006113D01*
X009314Y005951D01*
X009392Y005873D01*
X009284Y005873D01*
X009169Y005758D01*
X009169Y005644D01*
X009053Y005644D01*
X008938Y005530D01*
X008938Y005368D01*
X009053Y005253D01*
X009215Y005253D01*
X009329Y005368D01*
X009329Y005481D01*
X009446Y005481D01*
X009560Y005596D01*
X009560Y005758D01*
X009482Y005836D01*
X009591Y005836D01*
X009705Y005951D01*
X009705Y006113D01*
X009652Y006166D01*
X009741Y006166D01*
X009855Y006281D01*
X009855Y006443D01*
X009741Y006558D01*
X009804Y006494D02*
X010145Y006494D01*
X010097Y006446D02*
X009853Y006446D01*
X009855Y006397D02*
X010094Y006397D01*
X010094Y006349D02*
X009855Y006349D01*
X009855Y006300D02*
X010094Y006300D01*
X010123Y006252D02*
X009826Y006252D01*
X009778Y006203D02*
X010172Y006203D01*
X010136Y006155D02*
X009664Y006155D01*
X009705Y006106D02*
X010094Y006106D01*
X010094Y006058D02*
X009705Y006058D01*
X009705Y006009D02*
X010094Y006009D01*
X010094Y005961D02*
X009705Y005961D01*
X009667Y005912D02*
X010133Y005912D01*
X010181Y005864D02*
X009618Y005864D01*
X009552Y005767D02*
X010268Y005767D01*
X010268Y005815D02*
X009503Y005815D01*
X009560Y005718D02*
X010287Y005718D01*
X010336Y005670D02*
X009560Y005670D01*
X009560Y005621D02*
X012594Y005621D01*
X012594Y005670D02*
X011824Y005670D01*
X011873Y005718D02*
X012594Y005718D01*
X012598Y005767D02*
X011895Y005767D01*
X011895Y005815D02*
X012646Y005815D01*
X012695Y005864D02*
X011895Y005864D01*
X011886Y005912D02*
X018848Y005912D01*
X018848Y005864D02*
X015416Y005864D01*
X015465Y005815D02*
X018851Y005815D01*
X018848Y005818D02*
X018956Y005710D01*
X019110Y005710D01*
X019219Y005818D01*
X019219Y005972D01*
X019110Y006081D01*
X018956Y006081D01*
X018848Y005972D01*
X018848Y005818D01*
X018899Y005767D02*
X015485Y005767D01*
X015485Y005718D02*
X018948Y005718D01*
X018947Y005658D02*
X018844Y005555D01*
X018844Y005409D01*
X018947Y005306D01*
X019092Y005306D01*
X019195Y005409D01*
X019195Y005555D01*
X019092Y005658D01*
X018947Y005658D01*
X018911Y005621D02*
X018729Y005621D01*
X018692Y005658D02*
X018795Y005555D01*
X018795Y005409D01*
X018692Y005306D01*
X018547Y005306D01*
X018444Y005409D01*
X018444Y005555D01*
X018547Y005658D01*
X018692Y005658D01*
X018777Y005573D02*
X018862Y005573D01*
X018844Y005524D02*
X018795Y005524D01*
X018795Y005476D02*
X018844Y005476D01*
X018844Y005427D02*
X018795Y005427D01*
X018765Y005379D02*
X018874Y005379D01*
X018923Y005330D02*
X018716Y005330D01*
X018523Y005330D02*
X018345Y005330D01*
X018345Y005282D02*
X026006Y005282D01*
X026006Y005330D02*
X019116Y005330D01*
X019165Y005379D02*
X021134Y005379D01*
X021137Y005376D02*
X021282Y005376D01*
X021385Y005479D01*
X021385Y005625D01*
X021282Y005728D01*
X021137Y005728D01*
X021034Y005625D01*
X021034Y005479D01*
X021137Y005376D01*
X021086Y005427D02*
X019195Y005427D01*
X019195Y005476D02*
X021037Y005476D01*
X021034Y005524D02*
X019195Y005524D01*
X019177Y005573D02*
X021034Y005573D01*
X021034Y005621D02*
X019129Y005621D01*
X019119Y005718D02*
X021128Y005718D01*
X021079Y005670D02*
X015485Y005670D01*
X015457Y005621D02*
X018511Y005621D01*
X018462Y005573D02*
X015409Y005573D01*
X015210Y005573D02*
X014687Y005573D01*
X014695Y005524D02*
X018055Y005524D01*
X018069Y005538D02*
X017954Y005423D01*
X017954Y005261D01*
X018069Y005146D01*
X018231Y005146D01*
X018345Y005261D01*
X018345Y005423D01*
X018231Y005538D01*
X018069Y005538D01*
X018007Y005476D02*
X017664Y005476D01*
X017652Y005488D02*
X017507Y005488D01*
X017404Y005385D01*
X017404Y005239D01*
X017507Y005136D01*
X017652Y005136D01*
X017755Y005239D01*
X017755Y005385D01*
X017652Y005488D01*
X017713Y005427D02*
X017958Y005427D01*
X017954Y005379D02*
X017755Y005379D01*
X017755Y005330D02*
X017954Y005330D01*
X017954Y005282D02*
X017755Y005282D01*
X017749Y005233D02*
X017982Y005233D01*
X018030Y005185D02*
X017701Y005185D01*
X017652Y005136D02*
X026006Y005136D01*
X026006Y005185D02*
X018269Y005185D01*
X018318Y005233D02*
X026006Y005233D01*
X026006Y005379D02*
X021285Y005379D01*
X021333Y005427D02*
X026006Y005427D01*
X026006Y005476D02*
X021382Y005476D01*
X021385Y005524D02*
X026006Y005524D01*
X026006Y005573D02*
X021385Y005573D01*
X021385Y005621D02*
X026007Y005621D01*
X026007Y005670D02*
X021340Y005670D01*
X021292Y005718D02*
X026007Y005718D01*
X026007Y005767D02*
X019168Y005767D01*
X019216Y005815D02*
X020152Y005815D01*
X020170Y005798D02*
X020332Y005798D01*
X020447Y005912D01*
X020447Y006074D01*
X020332Y006189D01*
X020170Y006189D01*
X020056Y006074D01*
X020056Y005912D01*
X020170Y005798D01*
X020104Y005864D02*
X019219Y005864D01*
X019219Y005912D02*
X020056Y005912D01*
X020056Y005961D02*
X019219Y005961D01*
X019182Y006009D02*
X020056Y006009D01*
X020056Y006058D02*
X019133Y006058D01*
X018933Y006058D02*
X016425Y006058D01*
X016425Y006106D02*
X020088Y006106D01*
X020136Y006155D02*
X017049Y006155D01*
X017035Y006141D02*
X017150Y006255D01*
X017150Y006417D01*
X017035Y006532D01*
X016873Y006532D01*
X016758Y006417D01*
X016758Y006255D01*
X016873Y006141D01*
X017035Y006141D01*
X017098Y006203D02*
X021904Y006203D01*
X021904Y006225D02*
X021904Y006079D01*
X022007Y005976D01*
X022152Y005976D01*
X022255Y006079D01*
X022255Y006225D01*
X022152Y006328D01*
X022007Y006328D01*
X021904Y006225D01*
X021931Y006252D02*
X017146Y006252D01*
X017150Y006300D02*
X021980Y006300D01*
X022032Y006396D02*
X022135Y006499D01*
X022135Y006645D01*
X022032Y006748D01*
X021994Y006748D01*
X022015Y006769D01*
X022015Y006915D01*
X021912Y007018D01*
X021767Y007018D01*
X021664Y006915D01*
X021664Y006769D01*
X021767Y006666D01*
X021805Y006666D01*
X021784Y006645D01*
X021784Y006499D01*
X021887Y006396D01*
X022032Y006396D01*
X022033Y006397D02*
X026007Y006397D01*
X026007Y006349D02*
X020669Y006349D01*
X020633Y006313D02*
X020748Y006428D01*
X020748Y006523D01*
X020853Y006523D01*
X020968Y006638D01*
X020968Y006800D01*
X020853Y006914D01*
X020691Y006914D01*
X020576Y006800D01*
X020576Y006704D01*
X020471Y006704D01*
X020356Y006590D01*
X020356Y006428D01*
X020471Y006313D01*
X020633Y006313D01*
X020718Y006397D02*
X021886Y006397D01*
X021837Y006446D02*
X020748Y006446D01*
X020748Y006494D02*
X021789Y006494D01*
X021784Y006543D02*
X020873Y006543D01*
X020922Y006591D02*
X021784Y006591D01*
X021784Y006640D02*
X020968Y006640D01*
X020968Y006688D02*
X021745Y006688D01*
X021696Y006737D02*
X020968Y006737D01*
X020968Y006785D02*
X021664Y006785D01*
X021664Y006834D02*
X020933Y006834D01*
X020885Y006882D02*
X021664Y006882D01*
X021680Y006931D02*
X018133Y006931D01*
X018133Y006979D02*
X021729Y006979D01*
X021951Y006979D02*
X026008Y006979D01*
X026008Y006931D02*
X021999Y006931D01*
X022015Y006882D02*
X026008Y006882D01*
X026008Y006834D02*
X022015Y006834D01*
X022015Y006785D02*
X026007Y006785D01*
X026007Y006737D02*
X022043Y006737D01*
X022092Y006688D02*
X026007Y006688D01*
X026007Y006640D02*
X022135Y006640D01*
X022135Y006591D02*
X026007Y006591D01*
X026007Y006543D02*
X022135Y006543D01*
X022130Y006494D02*
X026007Y006494D01*
X026007Y006446D02*
X022082Y006446D01*
X022180Y006300D02*
X026007Y006300D01*
X026007Y006252D02*
X022228Y006252D01*
X022255Y006203D02*
X026007Y006203D01*
X026007Y006155D02*
X022255Y006155D01*
X022255Y006106D02*
X026007Y006106D01*
X026007Y006058D02*
X022234Y006058D01*
X022185Y006009D02*
X026007Y006009D01*
X026007Y005961D02*
X020447Y005961D01*
X020447Y006009D02*
X021974Y006009D01*
X021925Y006058D02*
X020447Y006058D01*
X020415Y006106D02*
X021904Y006106D01*
X021904Y006155D02*
X020366Y006155D01*
X020435Y006349D02*
X017875Y006349D01*
X017832Y006306D02*
X017935Y006409D01*
X017935Y006555D01*
X017832Y006658D01*
X017687Y006658D01*
X017584Y006555D01*
X017584Y006409D01*
X017687Y006306D01*
X017832Y006306D01*
X017923Y006397D02*
X020386Y006397D01*
X020356Y006446D02*
X017935Y006446D01*
X017935Y006494D02*
X020356Y006494D01*
X020356Y006543D02*
X017935Y006543D01*
X017899Y006591D02*
X020358Y006591D01*
X020407Y006640D02*
X017850Y006640D01*
X017857Y006725D02*
X018019Y006725D01*
X018133Y006839D01*
X018133Y007002D01*
X018019Y007116D01*
X017857Y007116D01*
X017742Y007002D01*
X017742Y006839D01*
X017857Y006725D01*
X017844Y006737D02*
X014901Y006737D01*
X014925Y006785D02*
X017796Y006785D01*
X017747Y006834D02*
X014925Y006834D01*
X014925Y006882D02*
X017742Y006882D01*
X017742Y006931D02*
X015065Y006931D01*
X015114Y006979D02*
X017742Y006979D01*
X017768Y007028D02*
X015162Y007028D01*
X015165Y007076D02*
X017817Y007076D01*
X017698Y007173D02*
X026008Y007173D01*
X026008Y007125D02*
X015165Y007125D01*
X015165Y007173D02*
X017482Y007173D01*
X017509Y007146D02*
X017671Y007146D01*
X017785Y007261D01*
X017785Y007423D01*
X017671Y007538D01*
X017509Y007538D01*
X017394Y007423D01*
X017394Y007261D01*
X017509Y007146D01*
X017433Y007222D02*
X015236Y007222D01*
X015285Y007270D02*
X017394Y007270D01*
X017394Y007319D02*
X015333Y007319D01*
X015345Y007367D02*
X017394Y007367D01*
X017394Y007416D02*
X015345Y007416D01*
X015345Y007464D02*
X017435Y007464D01*
X017484Y007513D02*
X015326Y007513D01*
X015306Y007561D02*
X021589Y007561D01*
X021596Y007568D02*
X021493Y007465D01*
X021493Y007319D01*
X017785Y007319D01*
X017785Y007367D02*
X021493Y007367D01*
X021493Y007319D02*
X021596Y007216D01*
X021741Y007216D01*
X021844Y007319D01*
X024286Y007319D01*
X024300Y007305D02*
X024459Y007239D01*
X024630Y007239D01*
X024788Y007305D01*
X024909Y007426D01*
X024975Y007584D01*
X024975Y007755D01*
X024909Y007913D01*
X024788Y008035D01*
X024630Y008100D01*
X024459Y008100D01*
X024300Y008035D01*
X024179Y007913D01*
X024114Y007755D01*
X024114Y007584D01*
X024179Y007426D01*
X024300Y007305D01*
X024238Y007367D02*
X021844Y007367D01*
X021844Y007319D02*
X021844Y007465D01*
X021741Y007568D01*
X021596Y007568D01*
X021541Y007513D02*
X017696Y007513D01*
X017744Y007464D02*
X021493Y007464D01*
X021493Y007416D02*
X017785Y007416D01*
X017785Y007270D02*
X021542Y007270D01*
X021590Y007222D02*
X017746Y007222D01*
X018058Y007076D02*
X026008Y007076D01*
X026008Y007028D02*
X018107Y007028D01*
X018133Y006882D02*
X020659Y006882D01*
X020611Y006834D02*
X018128Y006834D01*
X018079Y006785D02*
X020576Y006785D01*
X020576Y006737D02*
X018031Y006737D01*
X017669Y006640D02*
X014667Y006640D01*
X014667Y006591D02*
X017621Y006591D01*
X017584Y006543D02*
X014667Y006543D01*
X014657Y006494D02*
X016835Y006494D01*
X016787Y006446D02*
X014608Y006446D01*
X014560Y006397D02*
X016758Y006397D01*
X016758Y006349D02*
X013191Y006349D01*
X013191Y006300D02*
X016131Y006300D01*
X016083Y006252D02*
X013191Y006252D01*
X013176Y006203D02*
X016034Y006203D01*
X016034Y006155D02*
X013128Y006155D01*
X013015Y006291D02*
X012115Y007191D01*
X009395Y007191D01*
X009403Y007367D02*
X014954Y007367D01*
X014954Y007416D02*
X009354Y007416D01*
X009306Y007464D02*
X014954Y007464D01*
X014974Y007513D02*
X009257Y007513D01*
X009209Y007561D02*
X014214Y007561D01*
X014239Y007536D02*
X014401Y007536D01*
X014515Y007651D01*
X014515Y007813D01*
X014401Y007928D01*
X014239Y007928D01*
X014124Y007813D01*
X014124Y007651D01*
X014239Y007536D01*
X014165Y007610D02*
X009160Y007610D01*
X009112Y007658D02*
X014124Y007658D01*
X014124Y007707D02*
X009063Y007707D01*
X009015Y007755D02*
X014124Y007755D01*
X014124Y007804D02*
X008966Y007804D01*
X008918Y007852D02*
X014163Y007852D01*
X014212Y007901D02*
X008869Y007901D01*
X008821Y007949D02*
X014804Y007949D01*
X014642Y007901D02*
X014428Y007901D01*
X014476Y007852D02*
X014593Y007852D01*
X014564Y007804D02*
X014515Y007804D01*
X014515Y007755D02*
X014564Y007755D01*
X014564Y007707D02*
X014515Y007707D01*
X014515Y007658D02*
X014567Y007658D01*
X014615Y007610D02*
X014474Y007610D01*
X014426Y007561D02*
X014664Y007561D01*
X014856Y007561D02*
X015022Y007561D01*
X015065Y007610D02*
X014904Y007610D01*
X014953Y007658D02*
X015017Y007658D01*
X015014Y007707D02*
X014955Y007707D01*
X014955Y007755D02*
X015014Y007755D01*
X015195Y007949D02*
X015410Y007949D01*
X015362Y007901D02*
X015328Y007901D01*
X015195Y007998D02*
X024264Y007998D01*
X024215Y007949D02*
X015609Y007949D01*
X015658Y007901D02*
X024174Y007901D01*
X024154Y007852D02*
X015705Y007852D01*
X015705Y007804D02*
X024134Y007804D01*
X024114Y007755D02*
X015705Y007755D01*
X015705Y007707D02*
X024114Y007707D01*
X024114Y007658D02*
X015673Y007658D01*
X015624Y007610D02*
X024114Y007610D01*
X024123Y007561D02*
X021747Y007561D01*
X021796Y007513D02*
X024143Y007513D01*
X024163Y007464D02*
X021844Y007464D01*
X021844Y007416D02*
X024189Y007416D01*
X024383Y007270D02*
X021795Y007270D01*
X021747Y007222D02*
X026008Y007222D01*
X026008Y007270D02*
X024706Y007270D01*
X024802Y007319D02*
X026008Y007319D01*
X026008Y007367D02*
X024851Y007367D01*
X024899Y007416D02*
X026008Y007416D01*
X026008Y007464D02*
X024925Y007464D01*
X024945Y007513D02*
X026008Y007513D01*
X026008Y007561D02*
X024965Y007561D01*
X024975Y007610D02*
X026008Y007610D01*
X026008Y007658D02*
X024975Y007658D01*
X024975Y007707D02*
X026008Y007707D01*
X026008Y007755D02*
X024975Y007755D01*
X024955Y007804D02*
X026008Y007804D01*
X026008Y007852D02*
X024934Y007852D01*
X024914Y007901D02*
X026008Y007901D01*
X026008Y007949D02*
X024873Y007949D01*
X024825Y007998D02*
X026008Y007998D01*
X026008Y008046D02*
X024759Y008046D01*
X024642Y008095D02*
X026009Y008095D01*
X026009Y008143D02*
X015085Y008143D01*
X015134Y008095D02*
X024446Y008095D01*
X024329Y008046D02*
X015182Y008046D01*
X015354Y007610D02*
X015395Y007610D01*
X014966Y007319D02*
X012171Y007319D01*
X012220Y007270D02*
X014851Y007270D01*
X014803Y007222D02*
X012268Y007222D01*
X012246Y007245D02*
X012246Y007245D01*
X012317Y007173D02*
X014774Y007173D01*
X014774Y007125D02*
X012365Y007125D01*
X012414Y007076D02*
X014774Y007076D01*
X014639Y007028D02*
X012462Y007028D01*
X012511Y006979D02*
X014590Y006979D01*
X014542Y006931D02*
X012559Y006931D01*
X012608Y006882D02*
X014534Y006882D01*
X014534Y006834D02*
X012656Y006834D01*
X012705Y006785D02*
X014534Y006785D01*
X014346Y006737D02*
X012753Y006737D01*
X012802Y006688D02*
X014297Y006688D01*
X014276Y006640D02*
X012850Y006640D01*
X012899Y006591D02*
X014276Y006591D01*
X014276Y006543D02*
X012947Y006543D01*
X012996Y006494D02*
X014286Y006494D01*
X014335Y006446D02*
X013108Y006446D01*
X013156Y006397D02*
X014383Y006397D01*
X014853Y006688D02*
X020455Y006688D01*
X020447Y005912D02*
X026007Y005912D01*
X026007Y005864D02*
X020399Y005864D01*
X020350Y005815D02*
X026007Y005815D01*
X026010Y009550D02*
X021199Y009550D01*
X021203Y009598D02*
X026010Y009598D01*
X026010Y009647D02*
X021235Y009647D01*
X021235Y009695D02*
X026010Y009695D01*
X026010Y009744D02*
X021235Y009744D01*
X021235Y009792D02*
X026010Y009792D01*
X026010Y009841D02*
X021188Y009841D01*
X021139Y009889D02*
X026010Y009889D01*
X026011Y011393D02*
X024678Y011393D01*
X024791Y011441D02*
X026011Y011441D01*
X026011Y011490D02*
X024840Y011490D01*
X024888Y011538D02*
X026011Y011538D01*
X026011Y011587D02*
X024921Y011587D01*
X024941Y011635D02*
X026011Y011635D01*
X026011Y011684D02*
X024961Y011684D01*
X024975Y011732D02*
X026011Y011732D01*
X026012Y011781D02*
X024975Y011781D01*
X024975Y011829D02*
X026012Y011829D01*
X026012Y011878D02*
X024975Y011878D01*
X024959Y011926D02*
X026012Y011926D01*
X026012Y011975D02*
X024939Y011975D01*
X024919Y012023D02*
X026012Y012023D01*
X026012Y012072D02*
X024885Y012072D01*
X024836Y012120D02*
X026012Y012120D01*
X026012Y012169D02*
X024787Y012169D01*
X024670Y012217D02*
X026012Y012217D01*
X026012Y012266D02*
X011675Y012266D01*
X011675Y012217D02*
X024419Y012217D01*
X024302Y012169D02*
X011675Y012169D01*
X011655Y012120D02*
X024252Y012120D01*
X024204Y012072D02*
X011606Y012072D01*
X011664Y012314D02*
X026012Y012314D01*
X026012Y012363D02*
X019087Y012363D01*
X019136Y012411D02*
X026012Y012411D01*
X026012Y012460D02*
X019165Y012460D01*
X019165Y012508D02*
X026012Y012508D01*
X026012Y012557D02*
X019165Y012557D01*
X019163Y012605D02*
X026012Y012605D01*
X026012Y012654D02*
X019115Y012654D01*
X019066Y012702D02*
X026012Y012702D01*
X026012Y012751D02*
X024630Y012751D01*
X024788Y012816D01*
X024909Y012938D01*
X024975Y013096D01*
X024975Y013267D01*
X024909Y013425D01*
X024788Y013546D01*
X024630Y013612D01*
X024459Y013612D01*
X024300Y013546D01*
X024179Y013425D01*
X024114Y013267D01*
X024114Y013096D01*
X024179Y012938D01*
X024300Y012816D01*
X024459Y012751D01*
X024630Y012751D01*
X024747Y012799D02*
X026012Y012799D01*
X026012Y012848D02*
X024820Y012848D01*
X024868Y012896D02*
X026012Y012896D01*
X026012Y012945D02*
X024912Y012945D01*
X024932Y012993D02*
X026012Y012993D01*
X026013Y013042D02*
X024952Y013042D01*
X024973Y013090D02*
X026013Y013090D01*
X026013Y013139D02*
X024975Y013139D01*
X024975Y013188D02*
X026013Y013188D01*
X026013Y013236D02*
X024975Y013236D01*
X024968Y013285D02*
X026013Y013285D01*
X026013Y013333D02*
X024947Y013333D01*
X024927Y013382D02*
X026013Y013382D01*
X026013Y013430D02*
X024904Y013430D01*
X024856Y013479D02*
X026013Y013479D01*
X026013Y013527D02*
X024807Y013527D01*
X024718Y013576D02*
X026013Y013576D01*
X026013Y013624D02*
X013242Y013624D01*
X013206Y013588D02*
X013304Y013685D01*
X013356Y013813D01*
X013356Y013950D01*
X013304Y014077D01*
X013206Y014174D01*
X013079Y014227D01*
X012942Y014227D01*
X012815Y014174D01*
X012718Y014077D01*
X012665Y013950D01*
X012665Y013813D01*
X012718Y013685D01*
X012815Y013588D01*
X012942Y013536D01*
X013079Y013536D01*
X013206Y013588D01*
X013176Y013576D02*
X024371Y013576D01*
X024281Y013527D02*
X010395Y013527D01*
X010395Y013481D02*
X010281Y013366D01*
X010119Y013366D01*
X010004Y013481D01*
X010004Y013643D01*
X010119Y013758D01*
X010281Y013758D01*
X010395Y013643D01*
X010395Y013481D01*
X010393Y013479D02*
X024233Y013479D01*
X024184Y013430D02*
X010344Y013430D01*
X010296Y013382D02*
X024161Y013382D01*
X024141Y013333D02*
X015522Y013333D01*
X015520Y013335D02*
X015357Y013335D01*
X015243Y013221D01*
X015243Y013059D01*
X015357Y012944D01*
X015520Y012944D01*
X015560Y012984D01*
X015560Y012937D01*
X015674Y012823D01*
X015836Y012823D01*
X015951Y012937D01*
X015951Y013099D01*
X015836Y013214D01*
X015674Y013214D01*
X015634Y013174D01*
X015634Y013221D01*
X015520Y013335D01*
X015570Y013285D02*
X024121Y013285D01*
X024114Y013236D02*
X015619Y013236D01*
X015634Y013188D02*
X015648Y013188D01*
X015863Y013188D02*
X024114Y013188D01*
X024114Y013139D02*
X015911Y013139D01*
X015951Y013090D02*
X024116Y013090D01*
X024136Y013042D02*
X015951Y013042D01*
X015951Y012993D02*
X024156Y012993D01*
X024176Y012945D02*
X015951Y012945D01*
X015910Y012896D02*
X024220Y012896D01*
X024269Y012848D02*
X015862Y012848D01*
X015649Y012848D02*
X012282Y012848D01*
X012295Y012896D02*
X015600Y012896D01*
X015560Y012945D02*
X015521Y012945D01*
X015356Y012945D02*
X012295Y012945D01*
X012295Y012993D02*
X015308Y012993D01*
X015259Y013042D02*
X012277Y013042D01*
X012228Y013090D02*
X015243Y013090D01*
X015243Y013139D02*
X008738Y013139D01*
X008786Y013090D02*
X011291Y013090D01*
X011243Y013042D02*
X008806Y013042D01*
X008806Y012993D02*
X011224Y012993D01*
X011224Y012945D02*
X008806Y012945D01*
X008777Y012896D02*
X011224Y012896D01*
X011237Y012848D02*
X008728Y012848D01*
X008454Y012945D02*
X007938Y012945D01*
X007987Y012993D02*
X008454Y012993D01*
X008454Y013042D02*
X008029Y013042D01*
X008029Y013090D02*
X008474Y013090D01*
X008410Y013139D02*
X008029Y013139D01*
X008022Y013188D02*
X008362Y013188D01*
X008313Y013236D02*
X007974Y013236D01*
X007723Y013285D02*
X008312Y013285D01*
X008312Y013333D02*
X007675Y013333D01*
X007442Y013333D02*
X007278Y013333D01*
X007327Y013285D02*
X007394Y013285D01*
X007383Y013236D02*
X007337Y013236D01*
X007337Y013188D02*
X007383Y013188D01*
X007383Y013139D02*
X007337Y013139D01*
X007298Y013090D02*
X007420Y013090D01*
X007469Y013042D02*
X007250Y013042D01*
X007231Y013467D02*
X007085Y013467D01*
X006983Y013570D01*
X006983Y013715D01*
X007085Y013818D01*
X007231Y013818D01*
X007334Y013715D01*
X007334Y013570D01*
X007231Y013467D01*
X007243Y013479D02*
X008108Y013479D01*
X008060Y013527D02*
X007291Y013527D01*
X007334Y013576D02*
X008034Y013576D01*
X008034Y013624D02*
X007334Y013624D01*
X007334Y013673D02*
X008034Y013673D01*
X008056Y013721D02*
X007328Y013721D01*
X007280Y013770D02*
X008105Y013770D01*
X008314Y013770D02*
X008323Y013770D01*
X008351Y013818D02*
X007231Y013818D01*
X006988Y013721D02*
X005872Y013721D01*
X005921Y013673D02*
X006983Y013673D01*
X006983Y013624D02*
X005969Y013624D01*
X005972Y013576D02*
X006983Y013576D01*
X007025Y013527D02*
X005972Y013527D01*
X005972Y013479D02*
X007074Y013479D01*
X005926Y013430D02*
X008359Y013430D01*
X008312Y013382D02*
X005877Y013382D01*
X005455Y014061D02*
X011124Y014061D01*
X011064Y014109D02*
X005503Y014109D01*
X005261Y015128D02*
X005249Y015128D01*
X005312Y015273D02*
X008845Y015273D01*
X008796Y015322D02*
X005312Y015322D01*
X005277Y015370D02*
X007193Y015370D01*
X007144Y015419D02*
X005229Y015419D01*
X007941Y012557D02*
X008241Y012557D01*
X008455Y011878D02*
X010099Y011878D01*
X010050Y011829D02*
X008455Y011829D01*
X008507Y011781D02*
X010034Y011781D01*
X010034Y011732D02*
X008555Y011732D01*
X008588Y011684D02*
X009965Y011684D01*
X009916Y011635D02*
X008588Y011635D01*
X008588Y011587D02*
X009868Y011587D01*
X009854Y011538D02*
X008573Y011538D01*
X008524Y011490D02*
X009854Y011490D01*
X009854Y011441D02*
X008454Y011441D01*
X008454Y011393D02*
X009872Y011393D01*
X009921Y011344D02*
X008454Y011344D01*
X008164Y011247D02*
X007862Y011247D01*
X007862Y011296D02*
X008116Y011296D01*
X008103Y011344D02*
X007835Y011344D01*
X008506Y010714D02*
X009438Y010714D01*
X009390Y010665D02*
X008554Y010665D01*
X008570Y010617D02*
X009370Y010617D01*
X009370Y010568D02*
X008570Y010568D01*
X008570Y010520D02*
X009370Y010520D01*
X009382Y010471D02*
X008537Y010471D01*
X008489Y010423D02*
X009431Y010423D01*
X009479Y010374D02*
X005039Y010374D01*
X005055Y010423D02*
X008300Y010423D01*
X009365Y009695D02*
X009471Y009695D01*
X009422Y009647D02*
X009361Y009647D01*
X009374Y009598D02*
X009313Y009598D01*
X009264Y009550D02*
X009370Y009550D01*
X009253Y009259D02*
X010415Y009259D01*
X010366Y009210D02*
X009302Y009210D01*
X009321Y009162D02*
X010319Y009162D01*
X010319Y009113D02*
X009321Y009113D01*
X009321Y009065D02*
X010319Y009065D01*
X010320Y009016D02*
X009308Y009016D01*
X009259Y008968D02*
X010369Y008968D01*
X010417Y008919D02*
X009211Y008919D01*
X008252Y007658D02*
X004825Y007658D01*
X004863Y007707D02*
X007624Y007707D01*
X007575Y007755D02*
X004863Y007755D01*
X004863Y007804D02*
X007527Y007804D01*
X007478Y007852D02*
X004852Y007852D01*
X004803Y007901D02*
X007430Y007901D01*
X007557Y008143D02*
X007579Y008143D01*
X007579Y008192D02*
X007508Y008192D01*
X007460Y008240D02*
X007588Y008240D01*
X007637Y008289D02*
X007411Y008289D01*
X009467Y006446D02*
X002670Y006446D01*
X002670Y006494D02*
X009515Y006494D01*
X009564Y006543D02*
X002670Y006543D01*
X002670Y006397D02*
X009464Y006397D01*
X009464Y006349D02*
X002670Y006349D01*
X002670Y006300D02*
X009464Y006300D01*
X009493Y006252D02*
X002670Y006252D01*
X002670Y006203D02*
X009404Y006203D01*
X009356Y006155D02*
X002670Y006155D01*
X002670Y006106D02*
X009314Y006106D01*
X009314Y006058D02*
X002670Y006058D01*
X002670Y006009D02*
X009314Y006009D01*
X009314Y005961D02*
X002670Y005961D01*
X002670Y005912D02*
X009353Y005912D01*
X009275Y005864D02*
X002670Y005864D01*
X002670Y005815D02*
X009226Y005815D01*
X009178Y005767D02*
X002670Y005767D01*
X002670Y005718D02*
X009169Y005718D01*
X009169Y005670D02*
X002670Y005670D01*
X002670Y005621D02*
X009030Y005621D01*
X008981Y005573D02*
X002670Y005573D01*
X002670Y005524D02*
X008938Y005524D01*
X008938Y005476D02*
X002670Y005476D01*
X002670Y005427D02*
X008938Y005427D01*
X008938Y005379D02*
X002670Y005379D01*
X002670Y005330D02*
X008975Y005330D01*
X009023Y005282D02*
X002670Y005282D01*
X002670Y005233D02*
X003345Y005233D01*
X003297Y005185D02*
X002670Y005185D01*
X002670Y005136D02*
X003248Y005136D01*
X003235Y005088D02*
X002670Y005088D01*
X002670Y005039D02*
X003235Y005039D01*
X003235Y004991D02*
X002670Y004991D01*
X002670Y004942D02*
X003254Y004942D01*
X003302Y004894D02*
X002670Y004894D01*
X003517Y005233D02*
X012642Y005233D01*
X012614Y005282D02*
X009244Y005282D01*
X009292Y005330D02*
X012614Y005330D01*
X012614Y005379D02*
X009329Y005379D01*
X009329Y005427D02*
X012618Y005427D01*
X012667Y005476D02*
X009329Y005476D01*
X009489Y005524D02*
X012671Y005524D01*
X012622Y005573D02*
X009537Y005573D01*
X010485Y006058D02*
X011203Y006058D01*
X011251Y006009D02*
X010550Y006009D01*
X010598Y005961D02*
X011300Y005961D01*
X011154Y006106D02*
X010485Y006106D01*
X010444Y006155D02*
X011106Y006155D01*
X011057Y006203D02*
X010408Y006203D01*
X010456Y006252D02*
X011009Y006252D01*
X010960Y006300D02*
X010485Y006300D01*
X010485Y006349D02*
X010912Y006349D01*
X010863Y006397D02*
X010485Y006397D01*
X010483Y006446D02*
X010815Y006446D01*
X010766Y006494D02*
X010519Y006494D01*
X010567Y006543D02*
X010718Y006543D01*
X010669Y006591D02*
X010605Y006591D01*
X010605Y006640D02*
X010621Y006640D01*
X010647Y005912D02*
X011513Y005912D01*
X011504Y005864D02*
X010659Y005864D01*
X010659Y005815D02*
X011504Y005815D01*
X011504Y005767D02*
X010659Y005767D01*
X010640Y005718D02*
X011527Y005718D01*
X011575Y005670D02*
X010592Y005670D01*
X008760Y003827D02*
X015188Y003827D01*
X015139Y003778D02*
X008712Y003778D01*
X010814Y002003D02*
X010814Y001841D01*
X010929Y001726D01*
X011091Y001726D01*
X011205Y001841D01*
X011205Y002003D01*
X011091Y002118D01*
X010929Y002118D01*
X010814Y002003D01*
X010814Y001984D02*
X005217Y001984D01*
X005245Y002032D02*
X010843Y002032D01*
X010892Y002081D02*
X005273Y002081D01*
X005301Y002129D02*
X014876Y002129D01*
X014864Y002178D02*
X005329Y002178D01*
X005357Y002226D02*
X014864Y002226D01*
X014864Y002275D02*
X005385Y002275D01*
X005398Y002323D02*
X014884Y002323D01*
X014933Y002372D02*
X005411Y002372D01*
X005180Y001935D02*
X010814Y001935D01*
X010814Y001887D02*
X005132Y001887D01*
X005083Y001838D02*
X010817Y001838D01*
X010865Y001790D02*
X005035Y001790D01*
X004986Y001741D02*
X010914Y001741D01*
X011106Y001741D02*
X016044Y001741D01*
X016089Y001696D02*
X015974Y001811D01*
X015974Y001973D01*
X016089Y002088D01*
X016251Y002088D01*
X016365Y001973D01*
X016365Y001811D01*
X016251Y001696D01*
X016089Y001696D01*
X015995Y001790D02*
X011154Y001790D01*
X011203Y001838D02*
X015974Y001838D01*
X015974Y001887D02*
X011205Y001887D01*
X011205Y001935D02*
X015974Y001935D01*
X015985Y001984D02*
X011205Y001984D01*
X011176Y002032D02*
X014973Y002032D01*
X014924Y002081D02*
X011128Y002081D01*
X013385Y003390D02*
X013724Y003390D01*
X013724Y003439D02*
X013433Y003439D01*
X013482Y003487D02*
X013768Y003487D01*
X013817Y003536D02*
X013485Y003536D01*
X013485Y003584D02*
X015104Y003584D01*
X015104Y003633D02*
X013485Y003633D01*
X013457Y003681D02*
X015104Y003681D01*
X015104Y003730D02*
X013409Y003730D01*
X014023Y003536D02*
X015149Y003536D01*
X015198Y003487D02*
X014071Y003487D01*
X014334Y003196D02*
X020882Y003196D01*
X020930Y003148D02*
X014382Y003148D01*
X015195Y002081D02*
X016082Y002081D01*
X016033Y002032D02*
X015147Y002032D01*
X016258Y002081D02*
X020882Y002081D01*
X020833Y002032D02*
X016306Y002032D01*
X016355Y001984D02*
X020804Y001984D01*
X020804Y001935D02*
X016365Y001935D01*
X016365Y001887D02*
X020804Y001887D01*
X020807Y001838D02*
X016365Y001838D01*
X016344Y001790D02*
X018611Y001790D01*
X018562Y001741D02*
X016296Y001741D01*
X018524Y001693D02*
X004934Y001693D01*
X004850Y001644D02*
X018524Y001644D01*
X018524Y001596D02*
X004766Y001596D01*
X004682Y001547D02*
X018524Y001547D01*
X018566Y001499D02*
X004565Y001499D01*
X004384Y001450D02*
X018615Y001450D01*
X021118Y002081D02*
X021782Y002081D01*
X021733Y002032D02*
X021166Y002032D01*
X021195Y001984D02*
X021685Y001984D01*
X021674Y001935D02*
X021195Y001935D01*
X018474Y005379D02*
X018345Y005379D01*
X018341Y005427D02*
X018444Y005427D01*
X018444Y005476D02*
X018293Y005476D01*
X018244Y005524D02*
X018444Y005524D01*
X018848Y005961D02*
X016345Y005961D01*
X016394Y006009D02*
X018885Y006009D01*
X017644Y006349D02*
X017150Y006349D01*
X017150Y006397D02*
X017596Y006397D01*
X017584Y006446D02*
X017121Y006446D01*
X017073Y006494D02*
X017584Y006494D01*
X016859Y006155D02*
X016425Y006155D01*
X016425Y006203D02*
X016810Y006203D01*
X016762Y006252D02*
X016377Y006252D01*
X016328Y006300D02*
X016758Y006300D01*
X016823Y005476D02*
X017495Y005476D01*
X017447Y005427D02*
X016871Y005427D01*
X016905Y005379D02*
X017404Y005379D01*
X017404Y005330D02*
X016905Y005330D01*
X016905Y005282D02*
X017404Y005282D01*
X017410Y005233D02*
X016905Y005233D01*
X016859Y005185D02*
X017458Y005185D01*
X017507Y005136D02*
X016811Y005136D01*
X016514Y005330D02*
X014606Y005330D01*
X014655Y005379D02*
X016514Y005379D01*
X016548Y005427D02*
X014695Y005427D01*
X014695Y005476D02*
X016597Y005476D01*
X012690Y005185D02*
X003565Y005185D01*
X004158Y009744D02*
X004784Y009744D01*
X004784Y009792D02*
X004207Y009792D01*
X004255Y009841D02*
X004822Y009841D01*
X004870Y009889D02*
X004265Y009889D01*
X008311Y013479D02*
X008408Y013479D01*
X008359Y013527D02*
X010004Y013527D01*
X010004Y013576D02*
X008606Y013576D01*
X008654Y013624D02*
X010004Y013624D01*
X010033Y013673D02*
X008674Y013673D01*
X008768Y013721D02*
X010082Y013721D01*
X010318Y013721D02*
X011876Y013721D01*
X011917Y013680D02*
X012044Y013628D01*
X012181Y013628D01*
X012308Y013680D01*
X012406Y013777D01*
X012458Y013904D01*
X012458Y014042D01*
X012406Y014169D01*
X012308Y014266D01*
X012181Y014319D01*
X012044Y014319D01*
X011917Y014266D01*
X011820Y014169D01*
X011767Y014042D01*
X011767Y013904D01*
X011820Y013777D01*
X011917Y013680D01*
X011935Y013673D02*
X010366Y013673D01*
X010395Y013624D02*
X012779Y013624D01*
X012731Y013673D02*
X012290Y013673D01*
X012349Y013721D02*
X012703Y013721D01*
X012683Y013770D02*
X012398Y013770D01*
X012422Y013818D02*
X012665Y013818D01*
X012665Y013867D02*
X012443Y013867D01*
X012458Y013915D02*
X012665Y013915D01*
X012670Y013964D02*
X012458Y013964D01*
X012458Y014012D02*
X012691Y014012D01*
X012711Y014061D02*
X012451Y014061D01*
X012431Y014109D02*
X012749Y014109D01*
X012798Y014158D02*
X012410Y014158D01*
X012369Y014206D02*
X012891Y014206D01*
X013130Y014206D02*
X013560Y014206D01*
X013542Y014162D02*
X013594Y014289D01*
X013692Y014387D01*
X013819Y014439D01*
X013956Y014439D01*
X014083Y014387D01*
X014181Y014289D01*
X014233Y014162D01*
X014233Y014025D01*
X014181Y013898D01*
X014083Y013800D01*
X013956Y013748D01*
X013819Y013748D01*
X013692Y013800D01*
X013594Y013898D01*
X013542Y014025D01*
X013542Y014162D01*
X013542Y014158D02*
X013223Y014158D01*
X013272Y014109D02*
X013542Y014109D01*
X013542Y014061D02*
X013311Y014061D01*
X013331Y014012D02*
X013547Y014012D01*
X013567Y013964D02*
X013351Y013964D01*
X013356Y013915D02*
X013587Y013915D01*
X013625Y013867D02*
X013356Y013867D01*
X013356Y013818D02*
X013674Y013818D01*
X013766Y013770D02*
X013338Y013770D01*
X013318Y013721D02*
X026013Y013721D01*
X026013Y013673D02*
X013291Y013673D01*
X012846Y013576D02*
X010395Y013576D01*
X010104Y013382D02*
X008663Y013382D01*
X008663Y013333D02*
X015355Y013333D01*
X015307Y013285D02*
X008663Y013285D01*
X008662Y013236D02*
X015258Y013236D01*
X015243Y013188D02*
X008614Y013188D01*
X008616Y013430D02*
X010055Y013430D01*
X010007Y013479D02*
X008568Y013479D01*
X008392Y013576D02*
X008385Y013576D01*
X008816Y013770D02*
X011827Y013770D01*
X011803Y013818D02*
X008855Y013818D01*
X008855Y013867D02*
X011783Y013867D01*
X011767Y013915D02*
X008855Y013915D01*
X008846Y013964D02*
X011767Y013964D01*
X011767Y014012D02*
X008798Y014012D01*
X009513Y016146D02*
X009567Y016146D01*
X011556Y014594D02*
X012502Y014594D01*
X012536Y014546D02*
X011598Y014546D01*
X011618Y014497D02*
X012585Y014497D01*
X012667Y014449D02*
X011638Y014449D01*
X011645Y014400D02*
X013724Y014400D01*
X013657Y014352D02*
X011645Y014352D01*
X011645Y014303D02*
X012005Y014303D01*
X011905Y014255D02*
X011629Y014255D01*
X011609Y014206D02*
X011856Y014206D01*
X011815Y014158D02*
X011584Y014158D01*
X011535Y014109D02*
X011795Y014109D01*
X011775Y014061D02*
X011475Y014061D01*
X012220Y014303D02*
X013608Y014303D01*
X013580Y014255D02*
X012320Y014255D01*
X012944Y014449D02*
X014325Y014449D01*
X014305Y014497D02*
X013026Y014497D01*
X013075Y014546D02*
X014298Y014546D01*
X014298Y014513D02*
X014351Y014386D01*
X014448Y014288D01*
X014575Y014236D01*
X014713Y014236D01*
X014840Y014288D01*
X014937Y014386D01*
X014990Y014513D01*
X014990Y014650D01*
X014937Y014777D01*
X014840Y014874D01*
X014713Y014927D01*
X014575Y014927D01*
X014448Y014874D01*
X014351Y014777D01*
X014298Y014650D01*
X014298Y014513D01*
X014298Y014594D02*
X013109Y014594D01*
X013129Y014643D02*
X013587Y014643D01*
X013480Y014691D02*
X013149Y014691D01*
X013151Y014740D02*
X013431Y014740D01*
X013387Y014788D02*
X013151Y014788D01*
X013150Y014837D02*
X013366Y014837D01*
X013346Y014885D02*
X013130Y014885D01*
X013110Y014934D02*
X013337Y014934D01*
X013337Y014982D02*
X013078Y014982D01*
X013029Y015031D02*
X013337Y015031D01*
X013350Y015079D02*
X012951Y015079D01*
X012917Y015564D02*
X013273Y015564D01*
X013209Y015613D02*
X012918Y015613D01*
X012918Y015661D02*
X013160Y015661D01*
X013134Y015710D02*
X012916Y015710D01*
X012895Y015758D02*
X013113Y015758D01*
X013096Y015807D02*
X012875Y015807D01*
X012841Y015855D02*
X013096Y015855D01*
X013096Y015904D02*
X012793Y015904D01*
X012710Y015952D02*
X013102Y015952D01*
X013123Y016001D02*
X012154Y016001D01*
X012202Y016049D02*
X013143Y016049D01*
X013182Y016098D02*
X012238Y016098D01*
X012258Y016146D02*
X013231Y016146D01*
X013326Y016195D02*
X012960Y016195D01*
X013033Y016243D02*
X014318Y016243D01*
X014269Y016292D02*
X013081Y016292D01*
X013112Y016340D02*
X014239Y016340D01*
X014219Y016389D02*
X013132Y016389D01*
X013151Y016437D02*
X013499Y016437D01*
X013439Y016486D02*
X013151Y016486D01*
X013151Y016534D02*
X013390Y016534D01*
X013366Y016583D02*
X013148Y016583D01*
X013127Y016631D02*
X013345Y016631D01*
X013330Y016680D02*
X013107Y016680D01*
X013071Y016728D02*
X013330Y016728D01*
X013330Y016777D02*
X013023Y016777D01*
X012936Y016825D02*
X013337Y016825D01*
X013357Y016874D02*
X012391Y016874D01*
X012439Y016922D02*
X013377Y016922D01*
X013419Y016971D02*
X012473Y016971D01*
X012310Y016825D02*
X012676Y016825D01*
X012464Y016583D02*
X012088Y016583D01*
X012162Y016534D02*
X012460Y016534D01*
X012460Y016486D02*
X012211Y016486D01*
X012241Y016437D02*
X012460Y016437D01*
X012479Y016389D02*
X012261Y016389D01*
X012282Y016243D02*
X012578Y016243D01*
X012651Y016195D02*
X012278Y016195D01*
X012434Y015952D02*
X012068Y015952D01*
X013558Y016195D02*
X014390Y016195D01*
X014633Y015758D02*
X019001Y015758D01*
X019466Y015758D02*
X024153Y015758D01*
X024173Y015710D02*
X014653Y015710D01*
X014664Y015661D02*
X024212Y015661D01*
X024179Y015693D02*
X024300Y015572D01*
X024459Y015507D01*
X024630Y015507D01*
X024788Y015572D01*
X024909Y015693D01*
X024975Y015852D01*
X024975Y016023D01*
X024909Y016181D01*
X024788Y016302D01*
X024630Y016368D01*
X024459Y016368D01*
X024300Y016302D01*
X024179Y016181D01*
X024114Y016023D01*
X024114Y015852D01*
X024179Y015693D01*
X024260Y015613D02*
X015351Y015613D01*
X015391Y015596D02*
X015264Y015648D01*
X015127Y015648D01*
X015000Y015596D01*
X014902Y015498D01*
X014850Y015371D01*
X014850Y015234D01*
X014902Y015107D01*
X015000Y015010D01*
X015127Y014957D01*
X015264Y014957D01*
X015391Y015010D01*
X015489Y015107D01*
X015541Y015234D01*
X015541Y015371D01*
X015489Y015498D01*
X015391Y015596D01*
X015423Y015564D02*
X024320Y015564D01*
X024438Y015516D02*
X015472Y015516D01*
X015502Y015467D02*
X026014Y015467D01*
X026014Y015419D02*
X023380Y015419D01*
X023373Y015426D02*
X023190Y015426D01*
X023060Y015296D01*
X023060Y015114D01*
X023190Y014984D01*
X023373Y014984D01*
X023502Y015114D01*
X023502Y015296D01*
X023373Y015426D01*
X023428Y015370D02*
X026014Y015370D01*
X026014Y015322D02*
X023477Y015322D01*
X023502Y015273D02*
X026014Y015273D01*
X026014Y015225D02*
X023502Y015225D01*
X023502Y015176D02*
X026014Y015176D01*
X026014Y015128D02*
X023502Y015128D01*
X023467Y015079D02*
X026014Y015079D01*
X026014Y015031D02*
X023419Y015031D01*
X023144Y015031D02*
X015412Y015031D01*
X015461Y015079D02*
X023095Y015079D01*
X023060Y015128D02*
X015497Y015128D01*
X015517Y015176D02*
X023060Y015176D01*
X023060Y015225D02*
X015537Y015225D01*
X015541Y015273D02*
X023060Y015273D01*
X023085Y015322D02*
X015541Y015322D01*
X015541Y015370D02*
X023134Y015370D01*
X023182Y015419D02*
X015522Y015419D01*
X015040Y015613D02*
X014664Y015613D01*
X014664Y015564D02*
X014968Y015564D01*
X014920Y015516D02*
X014652Y015516D01*
X014632Y015467D02*
X014889Y015467D01*
X014869Y015419D02*
X014612Y015419D01*
X014564Y015370D02*
X014850Y015370D01*
X014850Y015322D02*
X014515Y015322D01*
X014400Y015273D02*
X014850Y015273D01*
X014854Y015225D02*
X013924Y015225D01*
X013973Y015176D02*
X014874Y015176D01*
X014894Y015128D02*
X013994Y015128D01*
X014014Y015079D02*
X014930Y015079D01*
X014979Y015031D02*
X014028Y015031D01*
X014028Y014982D02*
X015066Y014982D01*
X014878Y014837D02*
X024213Y014837D01*
X024179Y014803D02*
X024114Y014645D01*
X024114Y014474D01*
X024179Y014315D01*
X024300Y014194D01*
X024459Y014129D01*
X024630Y014129D01*
X024788Y014194D01*
X024909Y014315D01*
X024975Y014474D01*
X024975Y014645D01*
X024909Y014803D01*
X024788Y014924D01*
X024630Y014990D01*
X024459Y014990D01*
X024300Y014924D01*
X024179Y014803D01*
X024173Y014788D02*
X014926Y014788D01*
X014953Y014740D02*
X024153Y014740D01*
X024133Y014691D02*
X014973Y014691D01*
X014990Y014643D02*
X024114Y014643D01*
X024114Y014594D02*
X014990Y014594D01*
X014990Y014546D02*
X024114Y014546D01*
X024114Y014497D02*
X014983Y014497D01*
X014963Y014449D02*
X024124Y014449D01*
X024144Y014400D02*
X014943Y014400D01*
X014903Y014352D02*
X024164Y014352D01*
X024192Y014303D02*
X014855Y014303D01*
X014758Y014255D02*
X024240Y014255D01*
X024289Y014206D02*
X014215Y014206D01*
X014233Y014158D02*
X024389Y014158D01*
X024699Y014158D02*
X026013Y014158D01*
X026013Y014206D02*
X024800Y014206D01*
X024848Y014255D02*
X026014Y014255D01*
X026014Y014303D02*
X024897Y014303D01*
X024924Y014352D02*
X026014Y014352D01*
X026014Y014400D02*
X024944Y014400D01*
X024964Y014449D02*
X026014Y014449D01*
X026014Y014497D02*
X024975Y014497D01*
X024975Y014546D02*
X026014Y014546D01*
X026014Y014594D02*
X024975Y014594D01*
X024975Y014643D02*
X026014Y014643D01*
X026014Y014691D02*
X024956Y014691D01*
X024936Y014740D02*
X026014Y014740D01*
X026014Y014788D02*
X024916Y014788D01*
X024876Y014837D02*
X026014Y014837D01*
X026014Y014885D02*
X024827Y014885D01*
X024766Y014934D02*
X026014Y014934D01*
X026014Y014982D02*
X024649Y014982D01*
X024440Y014982D02*
X015325Y014982D01*
X014814Y014885D02*
X024261Y014885D01*
X024323Y014934D02*
X014028Y014934D01*
X014018Y014885D02*
X014474Y014885D01*
X014410Y014837D02*
X013998Y014837D01*
X013978Y014788D02*
X014362Y014788D01*
X014335Y014740D02*
X013933Y014740D01*
X013885Y014691D02*
X014315Y014691D01*
X014298Y014643D02*
X013777Y014643D01*
X014051Y014400D02*
X014345Y014400D01*
X014385Y014352D02*
X014118Y014352D01*
X014167Y014303D02*
X014433Y014303D01*
X014530Y014255D02*
X014195Y014255D01*
X014233Y014109D02*
X026013Y014109D01*
X026013Y014061D02*
X014233Y014061D01*
X014228Y014012D02*
X026013Y014012D01*
X026013Y013964D02*
X014208Y013964D01*
X014188Y013915D02*
X026013Y013915D01*
X026013Y013867D02*
X014149Y013867D01*
X014101Y013818D02*
X026013Y013818D01*
X026013Y013770D02*
X014009Y013770D01*
X013872Y015273D02*
X014238Y015273D01*
X013741Y016049D02*
X015134Y016049D01*
X015114Y016098D02*
X013702Y016098D01*
X013932Y016971D02*
X014951Y016971D01*
X014918Y017019D02*
X013883Y017019D01*
X013783Y017068D02*
X014897Y017068D01*
X014882Y017116D02*
X014511Y017116D01*
X014591Y017165D02*
X014873Y017165D01*
X014873Y017213D02*
X014639Y017213D01*
X014672Y017262D02*
X014879Y017262D01*
X014889Y017310D02*
X014692Y017310D01*
X014712Y017359D02*
X014910Y017359D01*
X014939Y017407D02*
X014714Y017407D01*
X014639Y017650D02*
X020430Y017650D01*
X020439Y017658D02*
X020324Y017543D01*
X020324Y017381D01*
X020393Y017312D01*
X020370Y017289D01*
X020301Y017358D01*
X020139Y017358D01*
X020024Y017243D01*
X020024Y017081D01*
X020139Y016966D01*
X020301Y016966D01*
X020370Y017035D01*
X020439Y016966D01*
X020601Y016966D01*
X020670Y017035D01*
X020739Y016966D01*
X020901Y016966D01*
X020970Y017035D01*
X021039Y016966D01*
X021201Y016966D01*
X021315Y017081D01*
X021315Y017243D01*
X021201Y017358D01*
X021039Y017358D01*
X020970Y017289D01*
X020946Y017312D01*
X021015Y017381D01*
X021015Y017543D01*
X020901Y017658D01*
X020739Y017658D01*
X020670Y017589D01*
X020601Y017658D01*
X020439Y017658D01*
X020382Y017601D02*
X019751Y017601D01*
X019800Y017553D02*
X020333Y017553D01*
X020324Y017504D02*
X019848Y017504D01*
X019851Y017456D02*
X020324Y017456D01*
X020324Y017407D02*
X019851Y017407D01*
X019851Y017359D02*
X020347Y017359D01*
X020349Y017310D02*
X020391Y017310D01*
X020386Y017019D02*
X020353Y017019D01*
X020305Y016971D02*
X020435Y016971D01*
X020605Y016971D02*
X020735Y016971D01*
X020686Y017019D02*
X020653Y017019D01*
X020905Y016971D02*
X021035Y016971D01*
X020986Y017019D02*
X020953Y017019D01*
X021205Y016971D02*
X024280Y016971D01*
X024300Y016950D02*
X024459Y016885D01*
X024630Y016885D01*
X024788Y016950D01*
X024909Y017071D01*
X024975Y017230D01*
X024975Y017401D01*
X024909Y017559D01*
X024788Y017680D01*
X024630Y017746D01*
X024459Y017746D01*
X024300Y017680D01*
X024179Y017559D01*
X024114Y017401D01*
X024114Y017230D01*
X024179Y017071D01*
X024300Y016950D01*
X024369Y016922D02*
X019943Y016922D01*
X019923Y016971D02*
X020135Y016971D01*
X020086Y017019D02*
X019885Y017019D01*
X019837Y017068D02*
X020038Y017068D01*
X020024Y017116D02*
X019788Y017116D01*
X019740Y017165D02*
X020024Y017165D01*
X020024Y017213D02*
X019691Y017213D01*
X019773Y017262D02*
X020042Y017262D01*
X020091Y017310D02*
X019821Y017310D01*
X019963Y016874D02*
X026016Y016874D01*
X026016Y016922D02*
X024720Y016922D01*
X024808Y016971D02*
X026016Y016971D01*
X026016Y017019D02*
X024857Y017019D01*
X024905Y017068D02*
X026016Y017068D01*
X026016Y017116D02*
X024928Y017116D01*
X024948Y017165D02*
X026016Y017165D01*
X026016Y017213D02*
X024968Y017213D01*
X024975Y017262D02*
X026016Y017262D01*
X026016Y017310D02*
X024975Y017310D01*
X024975Y017359D02*
X026016Y017359D01*
X026016Y017407D02*
X024972Y017407D01*
X024952Y017456D02*
X026016Y017456D01*
X026016Y017504D02*
X024932Y017504D01*
X024912Y017553D02*
X026016Y017553D01*
X026016Y017601D02*
X024867Y017601D01*
X024819Y017650D02*
X026016Y017650D01*
X026016Y017698D02*
X024745Y017698D01*
X024343Y017698D02*
X014590Y017698D01*
X014510Y017747D02*
X014876Y017747D01*
X014677Y018862D02*
X016937Y018862D01*
X016888Y018911D02*
X014650Y018911D01*
X014602Y018959D02*
X016840Y018959D01*
X016834Y019008D02*
X014538Y019008D01*
X016309Y019590D02*
X010204Y019590D01*
X010201Y019586D02*
X010315Y019701D01*
X010315Y019863D01*
X010246Y019932D01*
X010315Y020001D01*
X010315Y020163D01*
X010201Y020278D01*
X010039Y020278D01*
X009924Y020163D01*
X009924Y020001D01*
X009993Y019932D01*
X009924Y019863D01*
X009924Y019701D01*
X010039Y019586D01*
X010201Y019586D01*
X010252Y019638D02*
X016309Y019638D01*
X016312Y019687D02*
X010301Y019687D01*
X010315Y019735D02*
X016360Y019735D01*
X016356Y019784D02*
X010315Y019784D01*
X010315Y019832D02*
X016309Y019832D01*
X016309Y019881D02*
X010298Y019881D01*
X010250Y019929D02*
X016309Y019929D01*
X016309Y019978D02*
X010292Y019978D01*
X010315Y020026D02*
X016321Y020026D01*
X016370Y020075D02*
X010315Y020075D01*
X010315Y020123D02*
X016347Y020123D01*
X016309Y020172D02*
X010307Y020172D01*
X010259Y020220D02*
X016309Y020220D01*
X016309Y020269D02*
X010210Y020269D01*
X010029Y020269D02*
X002670Y020269D01*
X002670Y020317D02*
X016309Y020317D01*
X016331Y020366D02*
X002670Y020366D01*
X002670Y020414D02*
X016379Y020414D01*
X016694Y019444D02*
X016696Y019444D01*
X016744Y019396D02*
X016645Y019396D01*
X019461Y017310D02*
X019489Y017310D01*
X019983Y016825D02*
X026016Y016825D01*
X026016Y016777D02*
X020004Y016777D01*
X020024Y016728D02*
X026015Y016728D01*
X026015Y016680D02*
X020038Y016680D01*
X020038Y016631D02*
X026015Y016631D01*
X026015Y016583D02*
X020038Y016583D01*
X020038Y016534D02*
X026015Y016534D01*
X026015Y016486D02*
X020038Y016486D01*
X020038Y016437D02*
X026015Y016437D01*
X026015Y016389D02*
X020038Y016389D01*
X020024Y016340D02*
X024392Y016340D01*
X024290Y016292D02*
X020004Y016292D01*
X019984Y016243D02*
X024241Y016243D01*
X024193Y016195D02*
X019964Y016195D01*
X019944Y016146D02*
X024165Y016146D01*
X024145Y016098D02*
X019924Y016098D01*
X019888Y016049D02*
X024125Y016049D01*
X024114Y016001D02*
X019839Y016001D01*
X019791Y015952D02*
X024114Y015952D01*
X024114Y015904D02*
X019742Y015904D01*
X019694Y015855D02*
X024114Y015855D01*
X024132Y015807D02*
X019583Y015807D01*
X020949Y017310D02*
X020991Y017310D01*
X020993Y017359D02*
X024114Y017359D01*
X024116Y017407D02*
X021015Y017407D01*
X021015Y017456D02*
X024136Y017456D01*
X024156Y017504D02*
X021015Y017504D01*
X021006Y017553D02*
X024177Y017553D01*
X024221Y017601D02*
X020958Y017601D01*
X020909Y017650D02*
X024270Y017650D01*
X024114Y017310D02*
X021249Y017310D01*
X021297Y017262D02*
X024114Y017262D01*
X024121Y017213D02*
X021315Y017213D01*
X021315Y017165D02*
X024141Y017165D01*
X024161Y017116D02*
X021315Y017116D01*
X021302Y017068D02*
X024183Y017068D01*
X024232Y017019D02*
X021253Y017019D01*
X020682Y017601D02*
X020658Y017601D01*
X020609Y017650D02*
X020730Y017650D01*
X020713Y017892D02*
X020626Y017892D01*
X020976Y018183D02*
X021022Y018183D01*
X020974Y018232D02*
X020927Y018232D01*
X020925Y018280D02*
X020714Y018280D01*
X020712Y018232D02*
X020666Y018232D01*
X020715Y018329D02*
X020924Y018329D01*
X020924Y018377D02*
X020715Y018377D01*
X020715Y018426D02*
X020924Y018426D01*
X020955Y018474D02*
X020685Y018474D01*
X020636Y018523D02*
X021003Y018523D01*
X021236Y018523D02*
X024149Y018523D01*
X024169Y018474D02*
X021285Y018474D01*
X021315Y018426D02*
X024203Y018426D01*
X024252Y018377D02*
X021315Y018377D01*
X021315Y018329D02*
X024300Y018329D01*
X024417Y018280D02*
X021314Y018280D01*
X020943Y019832D02*
X020896Y019832D01*
X020574Y020608D02*
X011122Y020608D01*
X011171Y020657D02*
X020574Y020657D01*
X020616Y020705D02*
X011215Y020705D01*
X011215Y020754D02*
X020664Y020754D01*
X020875Y020754D02*
X020964Y020754D01*
X022081Y021045D02*
X011215Y021045D01*
X011210Y020996D02*
X022129Y020996D01*
X022015Y021578D02*
X022015Y021663D01*
X022885Y022015D02*
X011727Y022015D01*
X011718Y022005D02*
X011821Y022108D01*
X011821Y022253D01*
X011799Y022275D01*
X011856Y022275D01*
X011971Y022389D01*
X011971Y022552D01*
X011856Y022666D01*
X011694Y022666D01*
X011579Y022552D01*
X011579Y022389D01*
X011612Y022356D01*
X011572Y022356D01*
X011469Y022253D01*
X011469Y022108D01*
X011572Y022005D01*
X011718Y022005D01*
X011776Y022063D02*
X022885Y022063D01*
X022885Y022112D02*
X011821Y022112D01*
X011821Y022160D02*
X022889Y022160D01*
X022902Y022209D02*
X021123Y022209D01*
X021101Y022186D02*
X021215Y022301D01*
X021215Y022463D01*
X021101Y022578D01*
X020939Y022578D01*
X020824Y022463D01*
X020824Y022301D01*
X020939Y022186D01*
X021101Y022186D01*
X021171Y022257D02*
X022915Y022257D01*
X022928Y022306D02*
X021215Y022306D01*
X021215Y022354D02*
X022941Y022354D01*
X022954Y022403D02*
X021215Y022403D01*
X021215Y022451D02*
X022967Y022451D01*
X022980Y022500D02*
X021179Y022500D01*
X021131Y022548D02*
X023008Y022548D01*
X023036Y022597D02*
X011926Y022597D01*
X011971Y022548D02*
X020909Y022548D01*
X020860Y022500D02*
X011971Y022500D01*
X011971Y022451D02*
X020824Y022451D01*
X020824Y022403D02*
X011971Y022403D01*
X011935Y022354D02*
X020824Y022354D01*
X020824Y022306D02*
X011887Y022306D01*
X011817Y022257D02*
X020868Y022257D01*
X020917Y022209D02*
X011821Y022209D01*
X011570Y022354D02*
X009732Y022354D01*
X009747Y022306D02*
X011521Y022306D01*
X011473Y022257D02*
X009747Y022257D01*
X009747Y022209D02*
X011469Y022209D01*
X011469Y022160D02*
X009741Y022160D01*
X009721Y022112D02*
X011469Y022112D01*
X011514Y022063D02*
X009701Y022063D01*
X009664Y022015D02*
X011562Y022015D01*
X011579Y022403D02*
X009711Y022403D01*
X009689Y022451D02*
X011579Y022451D01*
X011579Y022500D02*
X011064Y022500D01*
X011061Y022496D02*
X011175Y022611D01*
X011175Y022773D01*
X011061Y022888D01*
X010899Y022888D01*
X010784Y022773D01*
X010784Y022611D01*
X010899Y022496D01*
X011061Y022496D01*
X011112Y022548D02*
X011579Y022548D01*
X011624Y022597D02*
X011161Y022597D01*
X011175Y022645D02*
X011673Y022645D01*
X011877Y022645D02*
X023064Y022645D01*
X023092Y022694D02*
X011175Y022694D01*
X011175Y022742D02*
X023120Y022742D01*
X023148Y022791D02*
X011158Y022791D01*
X011110Y022839D02*
X023185Y022839D01*
X023234Y022888D02*
X011061Y022888D01*
X010898Y022888D02*
X005098Y022888D01*
X005049Y022936D02*
X023282Y022936D01*
X023331Y022985D02*
X005001Y022985D01*
X004952Y023033D02*
X023379Y023033D01*
X023433Y023082D02*
X004886Y023082D01*
X004802Y023130D02*
X023517Y023130D01*
X023601Y023179D02*
X004718Y023179D01*
X004634Y023227D02*
X023685Y023227D01*
X023806Y023276D02*
X004479Y023276D01*
X004298Y023324D02*
X023987Y023324D01*
X024560Y023324D02*
X026021Y023324D01*
X026021Y023276D02*
X024741Y023276D01*
X024861Y023227D02*
X026021Y023227D01*
X026021Y023179D02*
X024945Y023179D01*
X025029Y023130D02*
X026021Y023130D01*
X026021Y023082D02*
X025113Y023082D01*
X025167Y023033D02*
X026021Y023033D01*
X026021Y022985D02*
X025216Y022985D01*
X025264Y022936D02*
X026021Y022936D01*
X026020Y022888D02*
X025313Y022888D01*
X025361Y022839D02*
X026020Y022839D01*
X026020Y022791D02*
X025399Y022791D01*
X025427Y022742D02*
X026020Y022742D01*
X026020Y022694D02*
X025455Y022694D01*
X025483Y022645D02*
X026020Y022645D01*
X026020Y022597D02*
X025511Y022597D01*
X025539Y022548D02*
X026020Y022548D01*
X026020Y022500D02*
X025567Y022500D01*
X025580Y022451D02*
X026020Y022451D01*
X026020Y022403D02*
X025593Y022403D01*
X025606Y022354D02*
X026020Y022354D01*
X026020Y022306D02*
X025619Y022306D01*
X025632Y022257D02*
X026020Y022257D01*
X026020Y022209D02*
X025645Y022209D01*
X025658Y022160D02*
X026020Y022160D01*
X026020Y022112D02*
X025662Y022112D01*
X025662Y022063D02*
X026020Y022063D01*
X026020Y022015D02*
X025662Y022015D01*
X025662Y021966D02*
X026020Y021966D01*
X026020Y021918D02*
X025662Y021918D01*
X025662Y021869D02*
X026020Y021869D01*
X026020Y021821D02*
X025662Y021821D01*
X025659Y021772D02*
X026020Y021772D01*
X026020Y021724D02*
X025646Y021724D01*
X025633Y021675D02*
X026019Y021675D01*
X026019Y021627D02*
X025620Y021627D01*
X025607Y021578D02*
X026019Y021578D01*
X026019Y021530D02*
X025594Y021530D01*
X025581Y021481D02*
X026019Y021481D01*
X026019Y021433D02*
X025568Y021433D01*
X025542Y021384D02*
X026019Y021384D01*
X026019Y021336D02*
X025514Y021336D01*
X025486Y021287D02*
X026019Y021287D01*
X026019Y021239D02*
X025458Y021239D01*
X025430Y021190D02*
X026019Y021190D01*
X026019Y021142D02*
X025402Y021142D01*
X025366Y021093D02*
X026019Y021093D01*
X026019Y021045D02*
X025318Y021045D01*
X025269Y020996D02*
X026019Y020996D01*
X026019Y020948D02*
X025221Y020948D01*
X025172Y020899D02*
X026019Y020899D01*
X026019Y020851D02*
X025122Y020851D01*
X025038Y020802D02*
X026019Y020802D01*
X026019Y020754D02*
X024954Y020754D01*
X024870Y020705D02*
X026019Y020705D01*
X026019Y020657D02*
X024760Y020657D01*
X026021Y023373D02*
X011327Y023373D01*
X011375Y023421D02*
X026021Y023421D01*
X026021Y023470D02*
X011395Y023470D01*
X011395Y023518D02*
X026021Y023518D01*
X026021Y023567D02*
X011395Y023567D01*
X011384Y023615D02*
X026021Y023615D01*
X026021Y023664D02*
X011335Y023664D01*
X011073Y023373D02*
X010967Y023373D01*
X011015Y023421D02*
X011024Y023421D01*
X010713Y023373D02*
X010597Y023373D01*
X010645Y023421D02*
X010664Y023421D01*
X010343Y023373D02*
X002670Y023373D01*
X002670Y023421D02*
X010294Y023421D01*
X010274Y023470D02*
X002670Y023470D01*
X002670Y023518D02*
X010274Y023518D01*
X010274Y023567D02*
X002670Y023567D01*
X002670Y023615D02*
X010286Y023615D01*
X010334Y023664D02*
X002670Y023664D01*
X002670Y023324D02*
X003854Y023324D01*
X003673Y023276D02*
X002670Y023276D01*
X002670Y023227D02*
X003518Y023227D01*
X003434Y023179D02*
X002670Y023179D01*
X002670Y023130D02*
X003350Y023130D01*
X003266Y023082D02*
X002670Y023082D01*
X002670Y023033D02*
X003199Y023033D01*
X003151Y022985D02*
X002670Y022985D01*
X002670Y022936D02*
X003102Y022936D01*
X003054Y022888D02*
X002670Y022888D01*
X002670Y022839D02*
X003005Y022839D01*
X002960Y022791D02*
X002670Y022791D01*
X002670Y022742D02*
X002932Y022742D01*
X002904Y022694D02*
X002670Y022694D01*
X002670Y022645D02*
X002876Y022645D01*
X002848Y022597D02*
X002670Y022597D01*
X002670Y022548D02*
X002820Y022548D01*
X002792Y022500D02*
X002670Y022500D01*
X002670Y022451D02*
X002774Y022451D01*
X002761Y022403D02*
X002670Y022403D01*
X002670Y022354D02*
X002748Y022354D01*
X002735Y022306D02*
X002670Y022306D01*
X002670Y022257D02*
X002722Y022257D01*
X002709Y022209D02*
X002670Y022209D01*
X002670Y022160D02*
X002696Y022160D01*
X002688Y022112D02*
X002670Y022112D01*
X002670Y022063D02*
X002688Y022063D01*
X002688Y022015D02*
X002670Y022015D01*
X002670Y021966D02*
X002688Y021966D01*
X002688Y021918D02*
X002670Y021918D01*
X002670Y021869D02*
X002688Y021869D01*
X002688Y021821D02*
X002670Y021821D01*
X002670Y021772D02*
X002688Y021772D01*
X002698Y021724D02*
X002670Y021724D01*
X002670Y021675D02*
X002711Y021675D01*
X002724Y021627D02*
X002670Y021627D01*
X002670Y021578D02*
X002737Y021578D01*
X002750Y021530D02*
X002670Y021530D01*
X002670Y021481D02*
X002763Y021481D01*
X002776Y021433D02*
X002670Y021433D01*
X002670Y021384D02*
X002797Y021384D01*
X002825Y021336D02*
X002670Y021336D01*
X002670Y021287D02*
X002853Y021287D01*
X002881Y021239D02*
X002670Y021239D01*
X002670Y021190D02*
X002909Y021190D01*
X002937Y021142D02*
X002670Y021142D01*
X002670Y021093D02*
X002966Y021093D01*
X003014Y021045D02*
X002670Y021045D01*
X002670Y020996D02*
X003063Y020996D01*
X003111Y020948D02*
X002670Y020948D01*
X002670Y020899D02*
X003160Y020899D01*
X003208Y020851D02*
X002670Y020851D01*
X002670Y020802D02*
X003281Y020802D01*
X003365Y020754D02*
X002670Y020754D01*
X002670Y020705D02*
X003449Y020705D01*
X003533Y020657D02*
X002670Y020657D01*
X002670Y020608D02*
X003706Y020608D01*
X003887Y020560D02*
X002670Y020560D01*
X002670Y020220D02*
X009981Y020220D01*
X009932Y020172D02*
X002670Y020172D01*
X002670Y020123D02*
X009924Y020123D01*
X009924Y020075D02*
X002670Y020075D01*
X002670Y020026D02*
X009924Y020026D01*
X009948Y019978D02*
X002670Y019978D01*
X002670Y019929D02*
X009990Y019929D01*
X009941Y019881D02*
X002670Y019881D01*
X002670Y019832D02*
X009924Y019832D01*
X009924Y019784D02*
X002670Y019784D01*
X002670Y019735D02*
X009924Y019735D01*
X009939Y019687D02*
X002670Y019687D01*
X002670Y019638D02*
X009987Y019638D01*
X010036Y019590D02*
X002670Y019590D01*
X005464Y021918D02*
X007281Y021918D01*
X007220Y021943D02*
X007351Y021889D01*
X007493Y021889D01*
X007624Y021943D01*
X007724Y022043D01*
X007779Y022174D01*
X007779Y022316D01*
X007724Y022447D01*
X007624Y022548D01*
X007493Y022602D01*
X007351Y022602D01*
X007220Y022548D01*
X007120Y022447D01*
X007065Y022316D01*
X007065Y022174D01*
X007120Y022043D01*
X007220Y021943D01*
X007197Y021966D02*
X005464Y021966D01*
X005464Y022015D02*
X007148Y022015D01*
X007111Y022063D02*
X005464Y022063D01*
X005464Y022112D02*
X007091Y022112D01*
X007071Y022160D02*
X005456Y022160D01*
X005443Y022209D02*
X007065Y022209D01*
X007065Y022257D02*
X005430Y022257D01*
X005417Y022306D02*
X007065Y022306D01*
X007081Y022354D02*
X005404Y022354D01*
X005391Y022403D02*
X007101Y022403D01*
X007123Y022451D02*
X005378Y022451D01*
X005360Y022500D02*
X007172Y022500D01*
X007221Y022548D02*
X005332Y022548D01*
X005304Y022597D02*
X007338Y022597D01*
X007506Y022597D02*
X009307Y022597D01*
X009190Y022548D02*
X007623Y022548D01*
X007672Y022500D02*
X009140Y022500D01*
X009092Y022451D02*
X007721Y022451D01*
X007743Y022403D02*
X009070Y022403D01*
X009050Y022354D02*
X007763Y022354D01*
X007779Y022306D02*
X009034Y022306D01*
X009034Y022257D02*
X007779Y022257D01*
X007779Y022209D02*
X009034Y022209D01*
X009040Y022160D02*
X007773Y022160D01*
X007753Y022112D02*
X009060Y022112D01*
X009080Y022063D02*
X007733Y022063D01*
X007696Y022015D02*
X009117Y022015D01*
X009165Y021966D02*
X007647Y021966D01*
X007563Y021918D02*
X009250Y021918D01*
X009641Y022500D02*
X010896Y022500D01*
X010847Y022548D02*
X009592Y022548D01*
X009474Y022597D02*
X010799Y022597D01*
X010784Y022645D02*
X005276Y022645D01*
X005248Y022694D02*
X010784Y022694D01*
X010784Y022742D02*
X005220Y022742D01*
X005192Y022791D02*
X010801Y022791D01*
X010850Y022839D02*
X005146Y022839D01*
X011548Y013090D02*
X011631Y013090D01*
X011888Y013090D02*
X011971Y013090D01*
X011966Y012799D02*
X011894Y012799D01*
X011845Y012751D02*
X012014Y012751D01*
X012185Y012751D02*
X024458Y012751D01*
X024341Y012799D02*
X012234Y012799D01*
X011674Y012751D02*
X011505Y012751D01*
X011554Y012799D02*
X011626Y012799D01*
X024651Y015516D02*
X026015Y015516D01*
X026015Y015564D02*
X024768Y015564D01*
X024828Y015613D02*
X026015Y015613D01*
X026015Y015661D02*
X024877Y015661D01*
X024916Y015710D02*
X026015Y015710D01*
X026015Y015758D02*
X024936Y015758D01*
X024956Y015807D02*
X026015Y015807D01*
X026015Y015855D02*
X024975Y015855D01*
X024975Y015904D02*
X026015Y015904D01*
X026015Y015952D02*
X024975Y015952D01*
X024975Y016001D02*
X026015Y016001D01*
X026015Y016049D02*
X024964Y016049D01*
X024944Y016098D02*
X026015Y016098D01*
X026015Y016146D02*
X024924Y016146D01*
X024896Y016195D02*
X026015Y016195D01*
X026015Y016243D02*
X024847Y016243D01*
X024799Y016292D02*
X026015Y016292D01*
X026015Y016340D02*
X024697Y016340D01*
D18*
X024005Y004621D03*
D19*
X023281Y015205D03*
X016860Y019592D03*
X016860Y019922D03*
X016860Y020252D03*
X016530Y020252D03*
X016530Y019922D03*
X016530Y019592D03*
D20*
X024273Y021963D03*
X024230Y002796D03*
X004090Y002809D03*
X004076Y021946D03*
M02*
