G75*
%MOIN*%
%OFA0B0*%
%FSLAX25Y25*%
%IPPOS*%
%LPD*%
%AMOC8*
5,1,8,0,0,1.08239X$1,22.5*
%
%ADD10C,0.05020*%
%ADD11C,0.03000*%
%ADD12C,0.04800*%
%ADD13C,0.06496*%
%ADD14C,0.01400*%
%ADD15C,0.01800*%
%ADD16C,0.01600*%
%ADD17C,0.00500*%
%ADD18C,0.03543*%
%ADD19C,0.02300*%
%ADD20C,0.01300*%
%ADD21C,0.25653*%
D10*
X0075501Y0220520D03*
X0095186Y0220520D03*
D11*
X0184817Y0194822D03*
X0184817Y0191722D03*
X0184817Y0188622D03*
X0184817Y0185522D03*
X0184817Y0182422D03*
X0187917Y0182422D03*
X0191017Y0182422D03*
X0191017Y0185522D03*
X0191017Y0188622D03*
X0191017Y0191722D03*
X0191017Y0194822D03*
X0187917Y0194822D03*
X0187917Y0191722D03*
X0187917Y0188622D03*
X0187917Y0185522D03*
D12*
X0155853Y0159791D03*
X0153236Y0151094D03*
X0147721Y0143881D03*
X0140155Y0139002D03*
X0138104Y0147841D03*
X0144468Y0154205D03*
X0135700Y0156751D03*
X0129336Y0163115D03*
X0122972Y0169479D03*
X0120639Y0160781D03*
X0127003Y0154417D03*
X0120639Y0148053D03*
X0114275Y0141689D03*
X0107911Y0148053D03*
X0114275Y0154417D03*
X0111941Y0163115D03*
X0114063Y0171883D03*
X0120427Y0178247D03*
X0110103Y0181500D03*
X0105224Y0173933D03*
X0103102Y0165165D03*
X0104022Y0156185D03*
X0122406Y0137800D03*
X0131387Y0136881D03*
X0129336Y0145720D03*
X0138033Y0165448D03*
X0131670Y0171812D03*
X0138599Y0178742D03*
X0144963Y0185106D03*
X0151327Y0178742D03*
X0144963Y0172378D03*
X0153661Y0170044D03*
X0146731Y0163115D03*
X0129336Y0180510D03*
X0136266Y0187439D03*
X0126013Y0189631D03*
X0117315Y0187015D03*
D13*
X0246723Y0185000D03*
X0246723Y0171220D03*
X0246723Y0157441D03*
X0246723Y0143661D03*
X0246723Y0129882D03*
X0246723Y0116102D03*
X0246723Y0102323D03*
X0246723Y0088543D03*
X0246723Y0074764D03*
D14*
X0220877Y0063789D03*
X0219677Y0066489D03*
X0217964Y0071989D03*
X0222077Y0059589D03*
X0213377Y0053589D03*
X0213377Y0040689D03*
X0191477Y0052889D03*
X0187477Y0052889D03*
X0185777Y0050589D03*
X0177077Y0051189D03*
X0178877Y0062889D03*
X0187373Y0081474D03*
X0154377Y0055289D03*
X0154877Y0037389D03*
X0143477Y0028689D03*
X0128973Y0059020D03*
X0131429Y0060974D03*
X0114977Y0079989D03*
X0111677Y0073889D03*
X0109829Y0085474D03*
X0110629Y0090174D03*
X0113329Y0092274D03*
X0115129Y0094074D03*
X0106229Y0088974D03*
X0099728Y0095436D03*
X0096740Y0093292D03*
X0091406Y0091733D03*
X0087929Y0086274D03*
X0082414Y0087455D03*
X0083477Y0091089D03*
X0085223Y0103839D03*
X0077628Y0105780D03*
X0075808Y0107750D03*
X0078144Y0110513D03*
X0079107Y0116451D03*
X0079775Y0119112D03*
X0079770Y0121429D03*
X0079767Y0125202D03*
X0075534Y0122387D03*
X0074873Y0120265D03*
X0070150Y0123482D03*
X0070112Y0125927D03*
X0072682Y0125833D03*
X0072889Y0130085D03*
X0076866Y0130075D03*
X0079809Y0129150D03*
X0083375Y0134326D03*
X0086267Y0135239D03*
X0088078Y0136883D03*
X0086158Y0131169D03*
X0087582Y0128051D03*
X0084731Y0122195D03*
X0085370Y0118824D03*
X0084071Y0116426D03*
X0085406Y0114337D03*
X0084066Y0111884D03*
X0074838Y0116251D03*
X0070944Y0116334D03*
X0065985Y0119137D03*
X0065990Y0123102D03*
X0062016Y0123242D03*
X0066011Y0127168D03*
X0061607Y0129160D03*
X0059240Y0133557D03*
X0058322Y0120310D03*
X0057049Y0115842D03*
X0057478Y0106973D03*
X0066186Y0110385D03*
X0059777Y0094389D03*
X0062677Y0089189D03*
X0048151Y0075754D03*
X0034499Y0062001D03*
X0030651Y0122320D03*
X0055456Y0148423D03*
X0052640Y0150699D03*
X0074376Y0153086D03*
X0075598Y0155593D03*
X0079277Y0152289D03*
X0090544Y0152465D03*
X0079438Y0139450D03*
X0072863Y0134491D03*
X0117829Y0211174D03*
X0119029Y0215274D03*
X0117729Y0219874D03*
X0107797Y0030290D03*
D15*
X0111869Y0040458D03*
X0111677Y0050889D03*
X0105917Y0056255D03*
X0104177Y0058389D03*
X0104177Y0061689D03*
X0105377Y0064689D03*
X0097877Y0061689D03*
X0096377Y0058389D03*
X0094927Y0054839D03*
X0092617Y0052554D03*
X0077877Y0055289D03*
X0077477Y0061789D03*
X0079877Y0066489D03*
X0083477Y0066489D03*
X0087077Y0066489D03*
X0094277Y0079689D03*
X0096729Y0082474D03*
X0092529Y0089174D03*
X0087293Y0089240D03*
X0092977Y0095389D03*
X0096677Y0096489D03*
X0095177Y0098889D03*
X0098177Y0098889D03*
X0096937Y0103714D03*
X0099737Y0095445D03*
X0114950Y0097183D03*
X0117629Y0102874D03*
X0120329Y0100874D03*
X0127977Y0105889D03*
X0126177Y0108289D03*
X0129177Y0108889D03*
X0133477Y0111889D03*
X0136477Y0111889D03*
X0135477Y0109389D03*
X0138477Y0109389D03*
X0148477Y0111889D03*
X0151477Y0111889D03*
X0151477Y0108889D03*
X0154477Y0108889D03*
X0158834Y0128251D03*
X0155666Y0129464D03*
X0162977Y0128889D03*
X0176977Y0125389D03*
X0176477Y0135389D03*
X0190977Y0138889D03*
X0204977Y0126389D03*
X0204977Y0123389D03*
X0190977Y0123289D03*
X0190977Y0119889D03*
X0189981Y0108777D03*
X0195434Y0109265D03*
X0198354Y0109227D03*
X0205969Y0109181D03*
X0211877Y0104289D03*
X0211877Y0101289D03*
X0211877Y0098289D03*
X0211677Y0095189D03*
X0211677Y0092389D03*
X0211877Y0065289D03*
X0213977Y0063189D03*
X0209001Y0065254D03*
X0206801Y0063154D03*
X0204377Y0060689D03*
X0203794Y0058000D03*
X0208477Y0038889D03*
X0211458Y0031442D03*
X0220277Y0039489D03*
X0219977Y0016989D03*
X0215477Y0014889D03*
X0211277Y0017289D03*
X0188477Y0014289D03*
X0176625Y0021342D03*
X0180977Y0032289D03*
X0182777Y0051489D03*
X0170820Y0061432D03*
X0163577Y0059289D03*
X0162977Y0050889D03*
X0168377Y0051189D03*
X0180656Y0067273D03*
X0177177Y0071489D03*
X0164477Y0080889D03*
X0157877Y0080889D03*
X0154877Y0080889D03*
X0151277Y0077589D03*
X0153377Y0075489D03*
X0156377Y0075789D03*
X0152777Y0072189D03*
X0148877Y0075489D03*
X0144477Y0075389D03*
X0150977Y0069189D03*
X0148577Y0066489D03*
X0145996Y0063926D03*
X0146477Y0052989D03*
X0131477Y0053289D03*
X0129377Y0051489D03*
X0129177Y0054889D03*
X0118277Y0056289D03*
X0117143Y0066736D03*
X0131177Y0075489D03*
X0114329Y0082774D03*
X0108129Y0080474D03*
X0079029Y0079574D03*
X0065529Y0079674D03*
X0066477Y0094389D03*
X0069377Y0094089D03*
X0051077Y0095289D03*
X0049577Y0098289D03*
X0049877Y0102789D03*
X0041977Y0097389D03*
X0038777Y0097689D03*
X0039077Y0094289D03*
X0030829Y0100774D03*
X0042077Y0109989D03*
X0035664Y0112291D03*
X0044477Y0127089D03*
X0045957Y0130064D03*
X0038777Y0132789D03*
X0030629Y0138874D03*
X0030277Y0143989D03*
X0033877Y0143889D03*
X0030277Y0147189D03*
X0030677Y0163689D03*
X0036877Y0171189D03*
X0040877Y0171189D03*
X0049877Y0173289D03*
X0056477Y0169089D03*
X0054077Y0187089D03*
X0060677Y0191889D03*
X0064277Y0191289D03*
X0078677Y0191289D03*
X0082377Y0191489D03*
X0086077Y0191589D03*
X0085877Y0198089D03*
X0102477Y0198889D03*
X0102477Y0195889D03*
X0102077Y0206889D03*
X0103277Y0210489D03*
X0106877Y0211689D03*
X0111477Y0211889D03*
X0111477Y0208889D03*
X0111477Y0205889D03*
X0111477Y0214889D03*
X0119029Y0222774D03*
X0111077Y0224989D03*
X0109677Y0233289D03*
X0105977Y0233289D03*
X0113277Y0233289D03*
X0123477Y0233889D03*
X0126977Y0233889D03*
X0130477Y0233889D03*
X0133977Y0233889D03*
X0137477Y0233889D03*
X0150997Y0227136D03*
X0156827Y0216789D03*
X0169377Y0213789D03*
X0175877Y0213789D03*
X0189128Y0212985D03*
X0189468Y0222325D03*
X0192318Y0222263D03*
X0211477Y0221889D03*
X0217477Y0215889D03*
X0219477Y0213889D03*
X0221477Y0211889D03*
X0223677Y0209689D03*
X0214977Y0199389D03*
X0211977Y0197889D03*
X0211977Y0200889D03*
X0208977Y0200889D03*
X0208977Y0197889D03*
X0208977Y0203889D03*
X0207877Y0184289D03*
X0210577Y0184289D03*
X0212477Y0181689D03*
X0209477Y0178689D03*
X0206477Y0178689D03*
X0206477Y0181689D03*
X0206477Y0172689D03*
X0206477Y0169689D03*
X0203477Y0169689D03*
X0197829Y0172274D03*
X0192777Y0176589D03*
X0187877Y0176689D03*
X0182877Y0176689D03*
X0184277Y0168789D03*
X0183677Y0161689D03*
X0183677Y0156689D03*
X0165977Y0152889D03*
X0157877Y0165789D03*
X0171579Y0188524D03*
X0153077Y0204189D03*
X0151577Y0200889D03*
X0150077Y0197889D03*
X0131477Y0197889D03*
X0131477Y0197889D03*
X0125775Y0197925D03*
X0097877Y0157689D03*
X0096077Y0155289D03*
X0094877Y0158289D03*
X0087377Y0152589D03*
X0081405Y0154068D03*
X0083177Y0169689D03*
X0081677Y0173289D03*
X0096677Y0141489D03*
X0103277Y0133689D03*
X0103877Y0121689D03*
X0103877Y0118689D03*
X0101177Y0120189D03*
X0103577Y0115389D03*
X0101777Y0112989D03*
X0116077Y0120289D03*
X0115477Y0127489D03*
X0118877Y0127489D03*
X0122277Y0127489D03*
X0054677Y0140289D03*
X0049277Y0150789D03*
X0043377Y0083789D03*
X0046177Y0080889D03*
X0049877Y0079689D03*
X0039777Y0077289D03*
X0034077Y0080889D03*
X0036377Y0083789D03*
X0034415Y0055527D03*
X0035589Y0048492D03*
X0045577Y0048489D03*
X0057677Y0048589D03*
X0060365Y0047586D03*
X0067877Y0048289D03*
X0068377Y0042789D03*
X0077477Y0035289D03*
X0081077Y0035289D03*
X0087210Y0037432D03*
X0093677Y0037089D03*
X0087677Y0017289D03*
X0079877Y0014289D03*
X0076877Y0015189D03*
X0068177Y0022089D03*
X0065477Y0017889D03*
X0111377Y0017289D03*
X0125181Y0027842D03*
X0126077Y0032289D03*
X0130647Y0029327D03*
X0134177Y0033789D03*
X0138077Y0028689D03*
X0140477Y0031689D03*
X0151877Y0020289D03*
X0157577Y0016989D03*
X0162977Y0016989D03*
X0154277Y0034689D03*
X0138677Y0017589D03*
X0211677Y0146289D03*
X0214677Y0146189D03*
X0216677Y0155189D03*
X0218677Y0159189D03*
X0212477Y0169689D03*
X0209477Y0169689D03*
X0209477Y0172689D03*
D16*
X0171677Y0081489D03*
X0169277Y0079089D03*
X0191613Y0057022D03*
D17*
X0027977Y0031588D02*
X0027977Y0211957D01*
X0029515Y0210420D01*
X0032681Y0208592D01*
X0036212Y0207646D01*
X0039868Y0207646D01*
X0043399Y0208592D01*
X0046565Y0210420D01*
X0049150Y0213005D01*
X0050977Y0216171D01*
X0051924Y0219702D01*
X0051924Y0223357D01*
X0050977Y0226888D01*
X0049150Y0230054D01*
X0046565Y0232639D01*
X0043399Y0234467D01*
X0040786Y0235167D01*
X0105093Y0235172D01*
X0104020Y0234100D01*
X0104020Y0232479D01*
X0105167Y0231332D01*
X0106788Y0231332D01*
X0107827Y0232372D01*
X0108867Y0231332D01*
X0110488Y0231332D01*
X0111477Y0232322D01*
X0112467Y0231332D01*
X0114088Y0231332D01*
X0115235Y0232479D01*
X0115235Y0234100D01*
X0114161Y0235173D01*
X0244683Y0235184D01*
X0242654Y0234640D01*
X0239488Y0232812D01*
X0236903Y0230227D01*
X0235076Y0227061D01*
X0234129Y0223530D01*
X0234129Y0219875D01*
X0235076Y0216344D01*
X0236903Y0213178D01*
X0239488Y0210593D01*
X0242654Y0208765D01*
X0246185Y0207819D01*
X0249841Y0207819D01*
X0253372Y0208765D01*
X0256538Y0210593D01*
X0259123Y0213178D01*
X0260951Y0216344D01*
X0261478Y0218312D01*
X0261322Y0024375D01*
X0260515Y0027387D01*
X0258687Y0030553D01*
X0256102Y0033138D01*
X0252936Y0034966D01*
X0249405Y0035912D01*
X0245749Y0035912D01*
X0242218Y0034966D01*
X0239052Y0033138D01*
X0236467Y0030553D01*
X0234639Y0027387D01*
X0233693Y0023856D01*
X0233693Y0020201D01*
X0234639Y0016669D01*
X0236467Y0013503D01*
X0239052Y0010919D01*
X0241008Y0009789D01*
X0044525Y0009789D01*
X0046709Y0011050D01*
X0049294Y0013635D01*
X0051122Y0016801D01*
X0052068Y0020332D01*
X0052068Y0023988D01*
X0051122Y0027519D01*
X0049294Y0030685D01*
X0046709Y0033270D01*
X0043543Y0035098D01*
X0040012Y0036044D01*
X0036356Y0036044D01*
X0032825Y0035098D01*
X0029659Y0033270D01*
X0027977Y0031588D01*
X0027977Y0031708D02*
X0028097Y0031708D01*
X0027977Y0032207D02*
X0028596Y0032207D01*
X0029094Y0032705D02*
X0027977Y0032705D01*
X0027977Y0033204D02*
X0029593Y0033204D01*
X0030408Y0033702D02*
X0027977Y0033702D01*
X0027977Y0034201D02*
X0031271Y0034201D01*
X0032135Y0034699D02*
X0027977Y0034699D01*
X0027977Y0035198D02*
X0033197Y0035198D01*
X0035058Y0035696D02*
X0027977Y0035696D01*
X0027977Y0036195D02*
X0085680Y0036195D01*
X0085253Y0036622D02*
X0086400Y0035475D01*
X0088021Y0035475D01*
X0089167Y0036622D01*
X0089167Y0038243D01*
X0088021Y0039389D01*
X0086400Y0039389D01*
X0085253Y0038243D01*
X0085253Y0036622D01*
X0085253Y0036693D02*
X0027977Y0036693D01*
X0027977Y0037192D02*
X0085253Y0037192D01*
X0085253Y0037690D02*
X0027977Y0037690D01*
X0027977Y0038189D02*
X0085253Y0038189D01*
X0085698Y0038687D02*
X0027977Y0038687D01*
X0027977Y0039186D02*
X0086196Y0039186D01*
X0088225Y0039186D02*
X0110373Y0039186D01*
X0109912Y0039647D02*
X0111058Y0038501D01*
X0112680Y0038501D01*
X0113826Y0039647D01*
X0113826Y0041269D01*
X0112680Y0042415D01*
X0111058Y0042415D01*
X0109912Y0041269D01*
X0109912Y0039647D01*
X0109912Y0039684D02*
X0027977Y0039684D01*
X0027977Y0040183D02*
X0109912Y0040183D01*
X0109912Y0040681D02*
X0027977Y0040681D01*
X0027977Y0041180D02*
X0109912Y0041180D01*
X0110321Y0041678D02*
X0027977Y0041678D01*
X0027977Y0042177D02*
X0110820Y0042177D01*
X0112918Y0042177D02*
X0261336Y0042177D01*
X0261337Y0042675D02*
X0027977Y0042675D01*
X0027977Y0043174D02*
X0261337Y0043174D01*
X0261337Y0043672D02*
X0027977Y0043672D01*
X0027977Y0044171D02*
X0261338Y0044171D01*
X0261338Y0044669D02*
X0027977Y0044669D01*
X0027977Y0045168D02*
X0261339Y0045168D01*
X0261339Y0045666D02*
X0027977Y0045666D01*
X0027977Y0046165D02*
X0261339Y0046165D01*
X0261340Y0046663D02*
X0036528Y0046663D01*
X0036400Y0046535D02*
X0037546Y0047681D01*
X0037546Y0049302D01*
X0036400Y0050449D01*
X0034778Y0050449D01*
X0033632Y0049302D01*
X0033632Y0047681D01*
X0034778Y0046535D01*
X0036400Y0046535D01*
X0037027Y0047162D02*
X0261340Y0047162D01*
X0261341Y0047660D02*
X0037525Y0047660D01*
X0037546Y0048159D02*
X0261341Y0048159D01*
X0261341Y0048657D02*
X0037546Y0048657D01*
X0037546Y0049156D02*
X0261342Y0049156D01*
X0261342Y0049654D02*
X0183710Y0049654D01*
X0183588Y0049532D02*
X0184735Y0050679D01*
X0184735Y0052300D01*
X0183588Y0053447D01*
X0181967Y0053447D01*
X0180820Y0052300D01*
X0180820Y0050679D01*
X0181967Y0049532D01*
X0183588Y0049532D01*
X0184209Y0050153D02*
X0261343Y0050153D01*
X0261343Y0050651D02*
X0184707Y0050651D01*
X0184735Y0051150D02*
X0186732Y0051150D01*
X0186750Y0051132D02*
X0188205Y0051132D01*
X0189235Y0052162D01*
X0189235Y0053617D01*
X0188205Y0054647D01*
X0186750Y0054647D01*
X0185720Y0053617D01*
X0185720Y0052162D01*
X0186750Y0051132D01*
X0186234Y0051648D02*
X0184735Y0051648D01*
X0184735Y0052147D02*
X0185735Y0052147D01*
X0185720Y0052646D02*
X0184389Y0052646D01*
X0183891Y0053144D02*
X0185720Y0053144D01*
X0185746Y0053643D02*
X0155215Y0053643D01*
X0155105Y0053532D02*
X0156135Y0054562D01*
X0156135Y0056017D01*
X0155105Y0057047D01*
X0153650Y0057047D01*
X0152620Y0056017D01*
X0152620Y0054562D01*
X0153650Y0053532D01*
X0155105Y0053532D01*
X0155714Y0054141D02*
X0186244Y0054141D01*
X0186743Y0054640D02*
X0156135Y0054640D01*
X0156135Y0055138D02*
X0212441Y0055138D01*
X0212650Y0055347D02*
X0211620Y0054317D01*
X0211620Y0052862D01*
X0212650Y0051832D01*
X0214105Y0051832D01*
X0215135Y0052862D01*
X0215135Y0054317D01*
X0214105Y0055347D01*
X0212650Y0055347D01*
X0211943Y0054640D02*
X0192212Y0054640D01*
X0192205Y0054647D02*
X0190750Y0054647D01*
X0189720Y0053617D01*
X0189720Y0052162D01*
X0190750Y0051132D01*
X0192205Y0051132D01*
X0193235Y0052162D01*
X0193235Y0053617D01*
X0192205Y0054647D01*
X0192383Y0055165D02*
X0193470Y0056252D01*
X0193470Y0057791D01*
X0192383Y0058879D01*
X0190844Y0058879D01*
X0189756Y0057791D01*
X0189756Y0056252D01*
X0190844Y0055165D01*
X0192383Y0055165D01*
X0192855Y0055637D02*
X0261347Y0055637D01*
X0261347Y0056135D02*
X0204696Y0056135D01*
X0204604Y0056043D02*
X0205751Y0057190D01*
X0205751Y0058811D01*
X0204604Y0059958D01*
X0202983Y0059958D01*
X0201836Y0058811D01*
X0201836Y0057190D01*
X0202983Y0056043D01*
X0204604Y0056043D01*
X0205194Y0056634D02*
X0261348Y0056634D01*
X0261348Y0057132D02*
X0205693Y0057132D01*
X0205751Y0057631D02*
X0261349Y0057631D01*
X0261349Y0058129D02*
X0223102Y0058129D01*
X0222805Y0057832D02*
X0223835Y0058862D01*
X0223835Y0060317D01*
X0222805Y0061347D01*
X0221350Y0061347D01*
X0220320Y0060317D01*
X0220320Y0058862D01*
X0221350Y0057832D01*
X0222805Y0057832D01*
X0223601Y0058628D02*
X0261349Y0058628D01*
X0261350Y0059126D02*
X0223835Y0059126D01*
X0223835Y0059625D02*
X0261350Y0059625D01*
X0261351Y0060123D02*
X0223835Y0060123D01*
X0223530Y0060622D02*
X0261351Y0060622D01*
X0261351Y0061120D02*
X0223032Y0061120D01*
X0221690Y0062117D02*
X0261352Y0062117D01*
X0261352Y0061619D02*
X0208034Y0061619D01*
X0207612Y0061197D02*
X0208758Y0062343D01*
X0208758Y0063297D01*
X0209812Y0063297D01*
X0210958Y0064443D01*
X0210958Y0066065D01*
X0209812Y0067211D01*
X0208190Y0067211D01*
X0207044Y0066065D01*
X0207044Y0065111D01*
X0205990Y0065111D01*
X0204844Y0063965D01*
X0204844Y0062343D01*
X0205990Y0061197D01*
X0207612Y0061197D01*
X0208532Y0062117D02*
X0220065Y0062117D01*
X0220150Y0062032D02*
X0221605Y0062032D01*
X0222635Y0063062D01*
X0222635Y0064517D01*
X0221605Y0065547D01*
X0221219Y0065547D01*
X0221435Y0065762D01*
X0221435Y0067217D01*
X0220405Y0068247D01*
X0218950Y0068247D01*
X0217920Y0067217D01*
X0217920Y0065762D01*
X0218950Y0064732D01*
X0219335Y0064732D01*
X0219120Y0064517D01*
X0219120Y0063062D01*
X0220150Y0062032D01*
X0219566Y0062616D02*
X0208758Y0062616D01*
X0208758Y0063114D02*
X0219120Y0063114D01*
X0219120Y0063613D02*
X0210128Y0063613D01*
X0210626Y0064111D02*
X0219120Y0064111D01*
X0219213Y0064610D02*
X0210958Y0064610D01*
X0210958Y0065108D02*
X0218574Y0065108D01*
X0218075Y0065607D02*
X0210958Y0065607D01*
X0210917Y0066105D02*
X0217920Y0066105D01*
X0217920Y0066604D02*
X0210419Y0066604D01*
X0209920Y0067102D02*
X0217920Y0067102D01*
X0218304Y0067601D02*
X0182613Y0067601D01*
X0182613Y0068084D02*
X0181467Y0069230D01*
X0179846Y0069230D01*
X0178699Y0068084D01*
X0178699Y0066462D01*
X0179846Y0065316D01*
X0181467Y0065316D01*
X0182613Y0066462D01*
X0182613Y0068084D01*
X0182598Y0068099D02*
X0218802Y0068099D01*
X0220552Y0068099D02*
X0261357Y0068099D01*
X0261357Y0067601D02*
X0221051Y0067601D01*
X0221435Y0067102D02*
X0261356Y0067102D01*
X0261356Y0066604D02*
X0221435Y0066604D01*
X0221435Y0066105D02*
X0261355Y0066105D01*
X0261355Y0065607D02*
X0221280Y0065607D01*
X0222044Y0065108D02*
X0261355Y0065108D01*
X0261354Y0064610D02*
X0222542Y0064610D01*
X0222635Y0064111D02*
X0261354Y0064111D01*
X0261353Y0063613D02*
X0222635Y0063613D01*
X0222635Y0063114D02*
X0261353Y0063114D01*
X0261353Y0062616D02*
X0222189Y0062616D01*
X0221123Y0061120D02*
X0172777Y0061120D01*
X0172777Y0060622D02*
X0220625Y0060622D01*
X0220320Y0060123D02*
X0172279Y0060123D01*
X0172777Y0060621D02*
X0171630Y0059475D01*
X0170009Y0059475D01*
X0168863Y0060621D01*
X0168863Y0062242D01*
X0170009Y0063389D01*
X0171630Y0063389D01*
X0172777Y0062242D01*
X0172777Y0060621D01*
X0172777Y0061619D02*
X0177663Y0061619D01*
X0178150Y0061132D02*
X0177120Y0062162D01*
X0177120Y0063617D01*
X0178150Y0064647D01*
X0179605Y0064647D01*
X0180635Y0063617D01*
X0180635Y0062162D01*
X0179605Y0061132D01*
X0178150Y0061132D01*
X0177165Y0062117D02*
X0172777Y0062117D01*
X0172403Y0062616D02*
X0177120Y0062616D01*
X0177120Y0063114D02*
X0171905Y0063114D01*
X0169734Y0063114D02*
X0147952Y0063114D01*
X0147953Y0063116D02*
X0146807Y0061969D01*
X0145186Y0061969D01*
X0144039Y0063116D01*
X0144039Y0064737D01*
X0145186Y0065884D01*
X0146620Y0065884D01*
X0146620Y0067300D01*
X0147767Y0068447D01*
X0149020Y0068447D01*
X0149020Y0070000D01*
X0150167Y0071147D01*
X0151053Y0071147D01*
X0150820Y0071379D01*
X0150820Y0073000D01*
X0151960Y0074139D01*
X0151420Y0074679D01*
X0151420Y0075632D01*
X0150835Y0075632D01*
X0150835Y0074679D01*
X0149688Y0073532D01*
X0148067Y0073532D01*
X0146920Y0074679D01*
X0146920Y0076300D01*
X0148067Y0077447D01*
X0149320Y0077447D01*
X0149320Y0078400D01*
X0150467Y0079547D01*
X0152088Y0079547D01*
X0153235Y0078400D01*
X0153235Y0077447D01*
X0154188Y0077447D01*
X0154727Y0076907D01*
X0155567Y0077747D01*
X0157188Y0077747D01*
X0158335Y0076600D01*
X0158335Y0074979D01*
X0157188Y0073832D01*
X0155567Y0073832D01*
X0155027Y0074372D01*
X0154195Y0073539D01*
X0154735Y0073000D01*
X0154735Y0071379D01*
X0153588Y0070232D01*
X0152702Y0070232D01*
X0152935Y0070000D01*
X0152935Y0068379D01*
X0151788Y0067232D01*
X0150535Y0067232D01*
X0150535Y0065679D01*
X0149388Y0064532D01*
X0147953Y0064532D01*
X0147953Y0063116D01*
X0147953Y0063613D02*
X0177120Y0063613D01*
X0177614Y0064111D02*
X0147953Y0064111D01*
X0147453Y0062616D02*
X0169236Y0062616D01*
X0168863Y0062117D02*
X0146955Y0062117D01*
X0145038Y0062117D02*
X0132771Y0062117D01*
X0133186Y0061701D02*
X0132157Y0062731D01*
X0131521Y0062731D01*
X0122971Y0071281D01*
X0095771Y0071281D01*
X0086171Y0080881D01*
X0080490Y0080881D01*
X0079840Y0081531D01*
X0078219Y0081531D01*
X0077072Y0080384D01*
X0077072Y0079279D01*
X0075371Y0080981D01*
X0066990Y0080981D01*
X0066340Y0081631D01*
X0064719Y0081631D01*
X0063572Y0080484D01*
X0063572Y0078863D01*
X0064719Y0077716D01*
X0066340Y0077716D01*
X0066990Y0078366D01*
X0074288Y0078366D01*
X0076822Y0075832D01*
X0077588Y0075066D01*
X0083388Y0075066D01*
X0092088Y0066366D01*
X0104287Y0066366D01*
X0103420Y0065500D01*
X0103420Y0063879D01*
X0103653Y0063647D01*
X0103367Y0063647D01*
X0102220Y0062500D01*
X0102220Y0060879D01*
X0103060Y0060039D01*
X0102220Y0059200D01*
X0102220Y0057579D01*
X0103367Y0056432D01*
X0103960Y0056432D01*
X0103960Y0055444D01*
X0105107Y0054298D01*
X0106728Y0054298D01*
X0107874Y0055444D01*
X0107874Y0057065D01*
X0106728Y0058212D01*
X0106135Y0058212D01*
X0106135Y0059200D01*
X0105295Y0060039D01*
X0106135Y0060879D01*
X0106135Y0062500D01*
X0105902Y0062732D01*
X0106188Y0062732D01*
X0107335Y0063879D01*
X0107335Y0064620D01*
X0113522Y0058432D01*
X0114288Y0057666D01*
X0116887Y0057666D01*
X0116320Y0057100D01*
X0116320Y0055479D01*
X0117467Y0054332D01*
X0119088Y0054332D01*
X0120235Y0055479D01*
X0120235Y0057100D01*
X0119668Y0057666D01*
X0127842Y0057666D01*
X0128245Y0057263D01*
X0129701Y0057263D01*
X0130730Y0058292D01*
X0130730Y0059216D01*
X0132157Y0059216D01*
X0133186Y0060246D01*
X0133186Y0061701D01*
X0133186Y0061619D02*
X0168863Y0061619D01*
X0168863Y0061120D02*
X0164514Y0061120D01*
X0164388Y0061247D02*
X0162767Y0061247D01*
X0161620Y0060100D01*
X0161620Y0058479D01*
X0162767Y0057332D01*
X0164388Y0057332D01*
X0165535Y0058479D01*
X0165535Y0060100D01*
X0164388Y0061247D01*
X0165013Y0060622D02*
X0168863Y0060622D01*
X0169360Y0060123D02*
X0165511Y0060123D01*
X0165535Y0059625D02*
X0169859Y0059625D01*
X0171780Y0059625D02*
X0202650Y0059625D01*
X0202152Y0059126D02*
X0165535Y0059126D01*
X0165535Y0058628D02*
X0190593Y0058628D01*
X0190095Y0058129D02*
X0165185Y0058129D01*
X0164686Y0057631D02*
X0189756Y0057631D01*
X0189756Y0057132D02*
X0120203Y0057132D01*
X0120235Y0056634D02*
X0128154Y0056634D01*
X0128367Y0056847D02*
X0127220Y0055700D01*
X0127220Y0054079D01*
X0128210Y0053089D01*
X0127420Y0052300D01*
X0127420Y0050679D01*
X0128567Y0049532D01*
X0130188Y0049532D01*
X0131335Y0050679D01*
X0131335Y0051332D01*
X0132288Y0051332D01*
X0133435Y0052479D01*
X0133435Y0054100D01*
X0132288Y0055247D01*
X0131135Y0055247D01*
X0131135Y0055700D01*
X0129988Y0056847D01*
X0128367Y0056847D01*
X0127877Y0057631D02*
X0119704Y0057631D01*
X0120235Y0056135D02*
X0127655Y0056135D01*
X0127220Y0055637D02*
X0120235Y0055637D01*
X0119894Y0055138D02*
X0127220Y0055138D01*
X0127220Y0054640D02*
X0119395Y0054640D01*
X0117160Y0054640D02*
X0107070Y0054640D01*
X0107568Y0055138D02*
X0116661Y0055138D01*
X0116320Y0055637D02*
X0107874Y0055637D01*
X0107874Y0056135D02*
X0116320Y0056135D01*
X0116320Y0056634D02*
X0107874Y0056634D01*
X0107808Y0057132D02*
X0116352Y0057132D01*
X0116851Y0057631D02*
X0107309Y0057631D01*
X0106811Y0058129D02*
X0113825Y0058129D01*
X0113327Y0058628D02*
X0106135Y0058628D01*
X0106135Y0059126D02*
X0112828Y0059126D01*
X0112330Y0059625D02*
X0105710Y0059625D01*
X0105379Y0060123D02*
X0111831Y0060123D01*
X0111333Y0060622D02*
X0105877Y0060622D01*
X0106135Y0061120D02*
X0110834Y0061120D01*
X0110336Y0061619D02*
X0106135Y0061619D01*
X0106135Y0062117D02*
X0109837Y0062117D01*
X0109339Y0062616D02*
X0106019Y0062616D01*
X0106570Y0063114D02*
X0108840Y0063114D01*
X0108342Y0063613D02*
X0107068Y0063613D01*
X0107335Y0064111D02*
X0107843Y0064111D01*
X0107345Y0064610D02*
X0107335Y0064610D01*
X0106129Y0067674D02*
X0114829Y0058974D01*
X0128526Y0058974D01*
X0128973Y0059020D01*
X0130730Y0059126D02*
X0161620Y0059126D01*
X0161620Y0058628D02*
X0130730Y0058628D01*
X0130567Y0058129D02*
X0161970Y0058129D01*
X0162469Y0057631D02*
X0130068Y0057631D01*
X0130201Y0056634D02*
X0153237Y0056634D01*
X0152738Y0056135D02*
X0130700Y0056135D01*
X0131135Y0055637D02*
X0152620Y0055637D01*
X0152620Y0055138D02*
X0132397Y0055138D01*
X0132895Y0054640D02*
X0145360Y0054640D01*
X0145667Y0054947D02*
X0144520Y0053800D01*
X0144520Y0052179D01*
X0145667Y0051032D01*
X0147288Y0051032D01*
X0148435Y0052179D01*
X0148435Y0053800D01*
X0147288Y0054947D01*
X0145667Y0054947D01*
X0144861Y0054141D02*
X0133394Y0054141D01*
X0133435Y0053643D02*
X0144520Y0053643D01*
X0144520Y0053144D02*
X0133435Y0053144D01*
X0133435Y0052646D02*
X0144520Y0052646D01*
X0144552Y0052147D02*
X0133103Y0052147D01*
X0132604Y0051648D02*
X0145051Y0051648D01*
X0145549Y0051150D02*
X0131335Y0051150D01*
X0131307Y0050651D02*
X0166420Y0050651D01*
X0166420Y0050379D02*
X0167567Y0049232D01*
X0169188Y0049232D01*
X0170335Y0050379D01*
X0170335Y0052000D01*
X0169188Y0053147D01*
X0167567Y0053147D01*
X0166420Y0052000D01*
X0166420Y0050379D01*
X0166646Y0050153D02*
X0130809Y0050153D01*
X0130310Y0049654D02*
X0167145Y0049654D01*
X0166420Y0051150D02*
X0147406Y0051150D01*
X0147904Y0051648D02*
X0166420Y0051648D01*
X0166567Y0052147D02*
X0148403Y0052147D01*
X0148435Y0052646D02*
X0167066Y0052646D01*
X0167564Y0053144D02*
X0148435Y0053144D01*
X0148435Y0053643D02*
X0153540Y0053643D01*
X0153041Y0054141D02*
X0148094Y0054141D01*
X0147595Y0054640D02*
X0152620Y0054640D01*
X0155518Y0056634D02*
X0189756Y0056634D01*
X0189874Y0056135D02*
X0156017Y0056135D01*
X0156135Y0055637D02*
X0190372Y0055637D01*
X0190743Y0054640D02*
X0188212Y0054640D01*
X0188711Y0054141D02*
X0190244Y0054141D01*
X0189746Y0053643D02*
X0189209Y0053643D01*
X0189235Y0053144D02*
X0189720Y0053144D01*
X0189720Y0052646D02*
X0189235Y0052646D01*
X0189220Y0052147D02*
X0189735Y0052147D01*
X0190234Y0051648D02*
X0188721Y0051648D01*
X0188223Y0051150D02*
X0190732Y0051150D01*
X0192223Y0051150D02*
X0261343Y0051150D01*
X0261344Y0051648D02*
X0192721Y0051648D01*
X0193220Y0052147D02*
X0212335Y0052147D01*
X0211837Y0052646D02*
X0193235Y0052646D01*
X0193235Y0053144D02*
X0211620Y0053144D01*
X0211620Y0053643D02*
X0193209Y0053643D01*
X0192711Y0054141D02*
X0211620Y0054141D01*
X0214314Y0055138D02*
X0261347Y0055138D01*
X0261346Y0054640D02*
X0214812Y0054640D01*
X0215135Y0054141D02*
X0261346Y0054141D01*
X0261345Y0053643D02*
X0215135Y0053643D01*
X0215135Y0053144D02*
X0261345Y0053144D01*
X0261345Y0052646D02*
X0214918Y0052646D01*
X0214420Y0052147D02*
X0261344Y0052147D01*
X0261336Y0041678D02*
X0113416Y0041678D01*
X0113826Y0041180D02*
X0219200Y0041180D01*
X0219467Y0041447D02*
X0218320Y0040300D01*
X0218320Y0038679D01*
X0219467Y0037532D01*
X0221088Y0037532D01*
X0222235Y0038679D01*
X0222235Y0040300D01*
X0221088Y0041447D01*
X0219467Y0041447D01*
X0218701Y0040681D02*
X0209453Y0040681D01*
X0209288Y0040847D02*
X0207667Y0040847D01*
X0206520Y0039700D01*
X0206520Y0038079D01*
X0207667Y0036932D01*
X0209288Y0036932D01*
X0210435Y0038079D01*
X0210435Y0039700D01*
X0209288Y0040847D01*
X0209952Y0040183D02*
X0218320Y0040183D01*
X0218320Y0039684D02*
X0210435Y0039684D01*
X0210435Y0039186D02*
X0218320Y0039186D01*
X0218320Y0038687D02*
X0210435Y0038687D01*
X0210435Y0038189D02*
X0218811Y0038189D01*
X0219309Y0037690D02*
X0210046Y0037690D01*
X0209547Y0037192D02*
X0261332Y0037192D01*
X0261333Y0037690D02*
X0221246Y0037690D01*
X0221744Y0038189D02*
X0261333Y0038189D01*
X0261333Y0038687D02*
X0222235Y0038687D01*
X0222235Y0039186D02*
X0261334Y0039186D01*
X0261334Y0039684D02*
X0222235Y0039684D01*
X0222235Y0040183D02*
X0261335Y0040183D01*
X0261335Y0040681D02*
X0221853Y0040681D01*
X0221355Y0041180D02*
X0261335Y0041180D01*
X0261332Y0036693D02*
X0089167Y0036693D01*
X0089167Y0037192D02*
X0207408Y0037192D01*
X0206909Y0037690D02*
X0089167Y0037690D01*
X0089167Y0038189D02*
X0206520Y0038189D01*
X0206520Y0038687D02*
X0112866Y0038687D01*
X0113364Y0039186D02*
X0206520Y0039186D01*
X0206520Y0039684D02*
X0113826Y0039684D01*
X0113826Y0040183D02*
X0207003Y0040183D01*
X0207501Y0040681D02*
X0113826Y0040681D01*
X0110872Y0038687D02*
X0088723Y0038687D01*
X0088740Y0036195D02*
X0153015Y0036195D01*
X0153467Y0036647D02*
X0152320Y0035500D01*
X0152320Y0033879D01*
X0153467Y0032732D01*
X0155088Y0032732D01*
X0156235Y0033879D01*
X0156235Y0035500D01*
X0155088Y0036647D01*
X0153467Y0036647D01*
X0152516Y0035696D02*
X0135039Y0035696D01*
X0134988Y0035747D02*
X0133367Y0035747D01*
X0132220Y0034600D01*
X0132220Y0032979D01*
X0133367Y0031832D01*
X0134988Y0031832D01*
X0136135Y0032979D01*
X0136135Y0034600D01*
X0134988Y0035747D01*
X0135537Y0035198D02*
X0152320Y0035198D01*
X0152320Y0034699D02*
X0136036Y0034699D01*
X0136135Y0034201D02*
X0152320Y0034201D01*
X0152497Y0033702D02*
X0136135Y0033702D01*
X0136135Y0033204D02*
X0139224Y0033204D01*
X0139667Y0033647D02*
X0138520Y0032500D01*
X0138520Y0030879D01*
X0138753Y0030647D01*
X0137267Y0030647D01*
X0136120Y0029500D01*
X0136120Y0027879D01*
X0137267Y0026732D01*
X0138888Y0026732D01*
X0140035Y0027879D01*
X0140035Y0029500D01*
X0139802Y0029732D01*
X0141288Y0029732D01*
X0142435Y0030879D01*
X0142435Y0032500D01*
X0141288Y0033647D01*
X0139667Y0033647D01*
X0138725Y0032705D02*
X0135861Y0032705D01*
X0135362Y0032207D02*
X0138520Y0032207D01*
X0138520Y0031708D02*
X0108863Y0031708D01*
X0108525Y0032047D02*
X0109554Y0031018D01*
X0109554Y0029562D01*
X0108525Y0028533D01*
X0107069Y0028533D01*
X0106040Y0029562D01*
X0106040Y0031018D01*
X0107069Y0032047D01*
X0108525Y0032047D01*
X0109362Y0031210D02*
X0129762Y0031210D01*
X0129836Y0031284D02*
X0128690Y0030138D01*
X0128690Y0028517D01*
X0129836Y0027370D01*
X0131458Y0027370D01*
X0132604Y0028517D01*
X0132604Y0030138D01*
X0131458Y0031284D01*
X0129836Y0031284D01*
X0129263Y0030711D02*
X0109554Y0030711D01*
X0109554Y0030213D02*
X0128765Y0030213D01*
X0128690Y0029714D02*
X0126077Y0029714D01*
X0125992Y0029799D02*
X0127138Y0028653D01*
X0127138Y0027032D01*
X0125992Y0025885D01*
X0124371Y0025885D01*
X0123224Y0027032D01*
X0123224Y0028653D01*
X0124371Y0029799D01*
X0125992Y0029799D01*
X0126576Y0029215D02*
X0128690Y0029215D01*
X0128690Y0028717D02*
X0127074Y0028717D01*
X0127138Y0028218D02*
X0128988Y0028218D01*
X0129487Y0027720D02*
X0127138Y0027720D01*
X0127138Y0027221D02*
X0136778Y0027221D01*
X0136279Y0027720D02*
X0131808Y0027720D01*
X0132306Y0028218D02*
X0136120Y0028218D01*
X0136120Y0028717D02*
X0132604Y0028717D01*
X0132604Y0029215D02*
X0136120Y0029215D01*
X0136334Y0029714D02*
X0132604Y0029714D01*
X0132530Y0030213D02*
X0136833Y0030213D01*
X0138688Y0030711D02*
X0132031Y0030711D01*
X0131533Y0031210D02*
X0138520Y0031210D01*
X0139821Y0029714D02*
X0142017Y0029714D01*
X0141720Y0029417D02*
X0141720Y0027962D01*
X0142750Y0026932D01*
X0144205Y0026932D01*
X0145235Y0027962D01*
X0145235Y0029417D01*
X0144205Y0030447D01*
X0142750Y0030447D01*
X0141720Y0029417D01*
X0141720Y0029215D02*
X0140035Y0029215D01*
X0140035Y0028717D02*
X0141720Y0028717D01*
X0141720Y0028218D02*
X0140035Y0028218D01*
X0139876Y0027720D02*
X0141962Y0027720D01*
X0142461Y0027221D02*
X0139377Y0027221D01*
X0141768Y0030213D02*
X0142516Y0030213D01*
X0142267Y0030711D02*
X0209500Y0030711D01*
X0209500Y0030631D02*
X0210647Y0029485D01*
X0212268Y0029485D01*
X0213415Y0030631D01*
X0213415Y0032252D01*
X0212268Y0033399D01*
X0210647Y0033399D01*
X0209500Y0032252D01*
X0209500Y0030631D01*
X0209500Y0031210D02*
X0142435Y0031210D01*
X0142435Y0031708D02*
X0209500Y0031708D01*
X0209500Y0032207D02*
X0142435Y0032207D01*
X0142230Y0032705D02*
X0209953Y0032705D01*
X0210452Y0033204D02*
X0155559Y0033204D01*
X0156058Y0033702D02*
X0240029Y0033702D01*
X0240892Y0034201D02*
X0156235Y0034201D01*
X0156235Y0034699D02*
X0241756Y0034699D01*
X0243082Y0035198D02*
X0156235Y0035198D01*
X0156039Y0035696D02*
X0244943Y0035696D01*
X0250211Y0035696D02*
X0261331Y0035696D01*
X0261330Y0035198D02*
X0252072Y0035198D01*
X0253398Y0034699D02*
X0261330Y0034699D01*
X0261330Y0034201D02*
X0254262Y0034201D01*
X0255125Y0033702D02*
X0261329Y0033702D01*
X0261329Y0033204D02*
X0255989Y0033204D01*
X0256535Y0032705D02*
X0261328Y0032705D01*
X0261328Y0032207D02*
X0257034Y0032207D01*
X0257532Y0031708D02*
X0261328Y0031708D01*
X0261327Y0031210D02*
X0258031Y0031210D01*
X0258529Y0030711D02*
X0261327Y0030711D01*
X0261326Y0030213D02*
X0258884Y0030213D01*
X0259171Y0029714D02*
X0261326Y0029714D01*
X0261326Y0029215D02*
X0259459Y0029215D01*
X0259747Y0028717D02*
X0261325Y0028717D01*
X0261325Y0028218D02*
X0260035Y0028218D01*
X0260323Y0027720D02*
X0261324Y0027720D01*
X0261324Y0027221D02*
X0260559Y0027221D01*
X0260693Y0026723D02*
X0261324Y0026723D01*
X0261323Y0026224D02*
X0260826Y0026224D01*
X0260960Y0025726D02*
X0261323Y0025726D01*
X0261322Y0025227D02*
X0261093Y0025227D01*
X0261227Y0024729D02*
X0261322Y0024729D01*
X0261331Y0036195D02*
X0155540Y0036195D01*
X0152996Y0033204D02*
X0141731Y0033204D01*
X0144439Y0030213D02*
X0209919Y0030213D01*
X0210418Y0029714D02*
X0144938Y0029714D01*
X0145235Y0029215D02*
X0235695Y0029215D01*
X0235407Y0028717D02*
X0145235Y0028717D01*
X0145235Y0028218D02*
X0235119Y0028218D01*
X0234831Y0027720D02*
X0144993Y0027720D01*
X0144494Y0027221D02*
X0234595Y0027221D01*
X0234461Y0026723D02*
X0126830Y0026723D01*
X0126331Y0026224D02*
X0234328Y0026224D01*
X0234194Y0025726D02*
X0051602Y0025726D01*
X0051469Y0026224D02*
X0124032Y0026224D01*
X0123533Y0026723D02*
X0051335Y0026723D01*
X0051202Y0027221D02*
X0123224Y0027221D01*
X0123224Y0027720D02*
X0051006Y0027720D01*
X0050718Y0028218D02*
X0123224Y0028218D01*
X0123288Y0028717D02*
X0108709Y0028717D01*
X0109207Y0029215D02*
X0123787Y0029215D01*
X0124285Y0029714D02*
X0109554Y0029714D01*
X0106885Y0028717D02*
X0050430Y0028717D01*
X0050143Y0029215D02*
X0106386Y0029215D01*
X0106040Y0029714D02*
X0049855Y0029714D01*
X0049567Y0030213D02*
X0106040Y0030213D01*
X0106040Y0030711D02*
X0049268Y0030711D01*
X0048770Y0031210D02*
X0106232Y0031210D01*
X0106730Y0031708D02*
X0048271Y0031708D01*
X0047773Y0032207D02*
X0132993Y0032207D01*
X0132494Y0032705D02*
X0047274Y0032705D01*
X0046776Y0033204D02*
X0132220Y0033204D01*
X0132220Y0033702D02*
X0045961Y0033702D01*
X0045097Y0034201D02*
X0132220Y0034201D01*
X0132319Y0034699D02*
X0044234Y0034699D01*
X0043171Y0035198D02*
X0132818Y0035198D01*
X0133316Y0035696D02*
X0088242Y0035696D01*
X0086179Y0035696D02*
X0041311Y0035696D01*
X0034650Y0046663D02*
X0027977Y0046663D01*
X0027977Y0047162D02*
X0034151Y0047162D01*
X0033653Y0047660D02*
X0027977Y0047660D01*
X0027977Y0048159D02*
X0033632Y0048159D01*
X0033632Y0048657D02*
X0027977Y0048657D01*
X0027977Y0049156D02*
X0033632Y0049156D01*
X0033984Y0049654D02*
X0027977Y0049654D01*
X0027977Y0050153D02*
X0034482Y0050153D01*
X0036696Y0050153D02*
X0127946Y0050153D01*
X0127448Y0050651D02*
X0093482Y0050651D01*
X0093427Y0050597D02*
X0094574Y0051743D01*
X0094574Y0052882D01*
X0095737Y0052882D01*
X0096884Y0054028D01*
X0096884Y0055650D01*
X0096101Y0056432D01*
X0097188Y0056432D01*
X0098335Y0057579D01*
X0098335Y0059200D01*
X0097802Y0059732D01*
X0098688Y0059732D01*
X0099835Y0060879D01*
X0099835Y0062500D01*
X0098688Y0063647D01*
X0097067Y0063647D01*
X0095920Y0062500D01*
X0095920Y0060879D01*
X0096453Y0060347D01*
X0095567Y0060347D01*
X0094420Y0059200D01*
X0094420Y0057579D01*
X0095203Y0056796D01*
X0094116Y0056796D01*
X0092970Y0055650D01*
X0092970Y0054511D01*
X0091806Y0054511D01*
X0090660Y0053365D01*
X0090660Y0051743D01*
X0091806Y0050597D01*
X0093427Y0050597D01*
X0093980Y0051150D02*
X0127420Y0051150D01*
X0127420Y0051648D02*
X0094479Y0051648D01*
X0094574Y0052147D02*
X0127420Y0052147D01*
X0127766Y0052646D02*
X0094574Y0052646D01*
X0096000Y0053144D02*
X0128155Y0053144D01*
X0127657Y0053643D02*
X0096498Y0053643D01*
X0096884Y0054141D02*
X0127220Y0054141D01*
X0128445Y0049654D02*
X0037194Y0049654D01*
X0027977Y0050651D02*
X0091752Y0050651D01*
X0091253Y0051150D02*
X0027977Y0051150D01*
X0027977Y0051648D02*
X0090755Y0051648D01*
X0090660Y0052147D02*
X0027977Y0052147D01*
X0027977Y0052646D02*
X0090660Y0052646D01*
X0090660Y0053144D02*
X0027977Y0053144D01*
X0027977Y0053643D02*
X0090937Y0053643D01*
X0091436Y0054141D02*
X0027977Y0054141D01*
X0027977Y0054640D02*
X0092970Y0054640D01*
X0092970Y0055138D02*
X0027977Y0055138D01*
X0027977Y0055637D02*
X0092970Y0055637D01*
X0093455Y0056135D02*
X0027977Y0056135D01*
X0027977Y0056634D02*
X0093954Y0056634D01*
X0094867Y0057132D02*
X0027977Y0057132D01*
X0027977Y0057631D02*
X0094420Y0057631D01*
X0094420Y0058129D02*
X0027977Y0058129D01*
X0027977Y0058628D02*
X0094420Y0058628D01*
X0094420Y0059126D02*
X0027977Y0059126D01*
X0027977Y0059625D02*
X0094845Y0059625D01*
X0095343Y0060123D02*
X0027977Y0060123D01*
X0027977Y0060622D02*
X0096178Y0060622D01*
X0095920Y0061120D02*
X0027977Y0061120D01*
X0027977Y0061619D02*
X0095920Y0061619D01*
X0095920Y0062117D02*
X0027977Y0062117D01*
X0027977Y0062616D02*
X0096036Y0062616D01*
X0096534Y0063114D02*
X0027977Y0063114D01*
X0027977Y0063613D02*
X0097033Y0063613D01*
X0098722Y0063613D02*
X0103333Y0063613D01*
X0103420Y0064111D02*
X0027977Y0064111D01*
X0027977Y0064610D02*
X0103420Y0064610D01*
X0103420Y0065108D02*
X0027977Y0065108D01*
X0027977Y0065607D02*
X0103527Y0065607D01*
X0104026Y0066105D02*
X0027977Y0066105D01*
X0027977Y0066604D02*
X0091851Y0066604D01*
X0091352Y0067102D02*
X0027977Y0067102D01*
X0027977Y0067601D02*
X0090854Y0067601D01*
X0090355Y0068099D02*
X0027977Y0068099D01*
X0027977Y0068598D02*
X0089857Y0068598D01*
X0089358Y0069096D02*
X0027977Y0069096D01*
X0027977Y0069595D02*
X0088859Y0069595D01*
X0088361Y0070093D02*
X0027977Y0070093D01*
X0027977Y0070592D02*
X0087862Y0070592D01*
X0087364Y0071090D02*
X0027977Y0071090D01*
X0027977Y0071589D02*
X0086865Y0071589D01*
X0086367Y0072087D02*
X0027977Y0072087D01*
X0027977Y0072586D02*
X0085868Y0072586D01*
X0085370Y0073084D02*
X0027977Y0073084D01*
X0027977Y0073583D02*
X0084871Y0073583D01*
X0084373Y0074082D02*
X0048963Y0074082D01*
X0048879Y0073997D02*
X0049908Y0075026D01*
X0049908Y0076482D01*
X0048879Y0077511D01*
X0047423Y0077511D01*
X0046394Y0076482D01*
X0046394Y0075026D01*
X0047423Y0073997D01*
X0048879Y0073997D01*
X0049462Y0074580D02*
X0083874Y0074580D01*
X0083929Y0076374D02*
X0092629Y0067674D01*
X0106129Y0067674D01*
X0102834Y0063114D02*
X0099220Y0063114D01*
X0099719Y0062616D02*
X0102336Y0062616D01*
X0102220Y0062117D02*
X0099835Y0062117D01*
X0099835Y0061619D02*
X0102220Y0061619D01*
X0102220Y0061120D02*
X0099835Y0061120D01*
X0099577Y0060622D02*
X0102478Y0060622D01*
X0102976Y0060123D02*
X0099079Y0060123D01*
X0098335Y0059126D02*
X0102220Y0059126D01*
X0102220Y0058628D02*
X0098335Y0058628D01*
X0098335Y0058129D02*
X0102220Y0058129D01*
X0102220Y0057631D02*
X0098335Y0057631D01*
X0097888Y0057132D02*
X0102667Y0057132D01*
X0103166Y0056634D02*
X0097389Y0056634D01*
X0096398Y0056135D02*
X0103960Y0056135D01*
X0103960Y0055637D02*
X0096884Y0055637D01*
X0096884Y0055138D02*
X0104266Y0055138D01*
X0104765Y0054640D02*
X0096884Y0054640D01*
X0097910Y0059625D02*
X0102645Y0059625D01*
X0095229Y0069974D02*
X0085629Y0079574D01*
X0079029Y0079574D01*
X0077072Y0079565D02*
X0076786Y0079565D01*
X0077072Y0080064D02*
X0076288Y0080064D01*
X0075789Y0080562D02*
X0077250Y0080562D01*
X0077749Y0081061D02*
X0066910Y0081061D01*
X0066411Y0081559D02*
X0093379Y0081559D01*
X0093467Y0081647D02*
X0092320Y0080500D01*
X0092320Y0078879D01*
X0093467Y0077732D01*
X0095088Y0077732D01*
X0096235Y0078879D01*
X0096235Y0080500D01*
X0095088Y0081647D01*
X0093467Y0081647D01*
X0092881Y0081061D02*
X0080310Y0081061D01*
X0081686Y0085698D02*
X0083142Y0085698D01*
X0084171Y0086727D01*
X0084171Y0088183D01*
X0083142Y0089212D01*
X0081686Y0089212D01*
X0080657Y0088183D01*
X0080657Y0086727D01*
X0081686Y0085698D01*
X0081338Y0086046D02*
X0027977Y0086046D01*
X0027977Y0086544D02*
X0080840Y0086544D01*
X0080657Y0087043D02*
X0027977Y0087043D01*
X0027977Y0087541D02*
X0061841Y0087541D01*
X0061950Y0087432D02*
X0063405Y0087432D01*
X0064435Y0088462D01*
X0064435Y0089917D01*
X0063405Y0090947D01*
X0061950Y0090947D01*
X0060920Y0089917D01*
X0060920Y0088462D01*
X0061950Y0087432D01*
X0061342Y0088040D02*
X0027977Y0088040D01*
X0027977Y0088538D02*
X0060920Y0088538D01*
X0060920Y0089037D02*
X0027977Y0089037D01*
X0027977Y0089535D02*
X0060920Y0089535D01*
X0061037Y0090034D02*
X0027977Y0090034D01*
X0027977Y0090532D02*
X0061535Y0090532D01*
X0063819Y0090532D02*
X0085818Y0090532D01*
X0085336Y0090050D02*
X0085336Y0088429D01*
X0086468Y0087297D01*
X0086172Y0087001D01*
X0086172Y0085546D01*
X0087202Y0084516D01*
X0088657Y0084516D01*
X0089686Y0085546D01*
X0089686Y0087001D01*
X0088755Y0087933D01*
X0089250Y0088429D01*
X0089250Y0090050D01*
X0088104Y0091197D01*
X0086483Y0091197D01*
X0085336Y0090050D01*
X0085336Y0090034D02*
X0064318Y0090034D01*
X0064435Y0089535D02*
X0085336Y0089535D01*
X0085336Y0089037D02*
X0083317Y0089037D01*
X0083816Y0088538D02*
X0085336Y0088538D01*
X0085725Y0088040D02*
X0084171Y0088040D01*
X0084171Y0087541D02*
X0086224Y0087541D01*
X0086214Y0087043D02*
X0084171Y0087043D01*
X0083988Y0086544D02*
X0086172Y0086544D01*
X0086172Y0086046D02*
X0083490Y0086046D01*
X0086172Y0085547D02*
X0044387Y0085547D01*
X0044188Y0085747D02*
X0042567Y0085747D01*
X0041420Y0084600D01*
X0041420Y0082979D01*
X0042567Y0081832D01*
X0044188Y0081832D01*
X0045335Y0082979D01*
X0045335Y0084600D01*
X0044188Y0085747D01*
X0044886Y0085049D02*
X0086669Y0085049D01*
X0087168Y0084550D02*
X0045335Y0084550D01*
X0045335Y0084052D02*
X0108766Y0084052D01*
X0109102Y0083716D02*
X0110557Y0083716D01*
X0111586Y0084746D01*
X0111586Y0086201D01*
X0110557Y0087231D01*
X0109102Y0087231D01*
X0108072Y0086201D01*
X0108072Y0084746D01*
X0109102Y0083716D01*
X0108268Y0084550D02*
X0088691Y0084550D01*
X0089189Y0085049D02*
X0108072Y0085049D01*
X0108072Y0085547D02*
X0089686Y0085547D01*
X0089686Y0086046D02*
X0108072Y0086046D01*
X0108415Y0086544D02*
X0089686Y0086544D01*
X0089645Y0087043D02*
X0108914Y0087043D01*
X0107781Y0088040D02*
X0242249Y0088040D01*
X0242225Y0088189D02*
X0242336Y0087490D01*
X0242555Y0086817D01*
X0242876Y0086186D01*
X0243292Y0085613D01*
X0243793Y0085112D01*
X0244366Y0084696D01*
X0244996Y0084375D01*
X0245670Y0084156D01*
X0246369Y0084045D01*
X0246473Y0084045D01*
X0246473Y0088293D01*
X0246973Y0088293D01*
X0246973Y0084045D01*
X0247077Y0084045D01*
X0247776Y0084156D01*
X0248450Y0084375D01*
X0249081Y0084696D01*
X0249653Y0085112D01*
X0250154Y0085613D01*
X0250570Y0086186D01*
X0250892Y0086817D01*
X0251110Y0087490D01*
X0251221Y0088189D01*
X0251221Y0088293D01*
X0246973Y0088293D01*
X0246973Y0088793D01*
X0251221Y0088793D01*
X0251221Y0088897D01*
X0251110Y0089597D01*
X0250892Y0090270D01*
X0250570Y0090901D01*
X0250154Y0091473D01*
X0249653Y0091974D01*
X0249081Y0092390D01*
X0248450Y0092712D01*
X0247776Y0092930D01*
X0247077Y0093041D01*
X0246973Y0093041D01*
X0246973Y0088793D01*
X0246473Y0088793D01*
X0246473Y0088293D01*
X0242225Y0088293D01*
X0242225Y0088189D01*
X0242225Y0088793D02*
X0246473Y0088793D01*
X0246473Y0093041D01*
X0246369Y0093041D01*
X0245670Y0092930D01*
X0244996Y0092712D01*
X0244366Y0092390D01*
X0243793Y0091974D01*
X0243292Y0091473D01*
X0242876Y0090901D01*
X0242555Y0090270D01*
X0242336Y0089597D01*
X0242225Y0088897D01*
X0242225Y0088793D01*
X0242247Y0089037D02*
X0111978Y0089037D01*
X0112386Y0089446D02*
X0112386Y0090732D01*
X0112602Y0090516D01*
X0114057Y0090516D01*
X0115086Y0091546D01*
X0115086Y0092316D01*
X0115857Y0092316D01*
X0116886Y0093346D01*
X0116886Y0094801D01*
X0116111Y0095577D01*
X0116907Y0096373D01*
X0116907Y0097994D01*
X0115760Y0099140D01*
X0114139Y0099140D01*
X0112993Y0097994D01*
X0112993Y0096373D01*
X0113968Y0095397D01*
X0113372Y0094801D01*
X0113372Y0094031D01*
X0112602Y0094031D01*
X0111572Y0093001D01*
X0111572Y0091716D01*
X0111357Y0091931D01*
X0109902Y0091931D01*
X0108872Y0090901D01*
X0108872Y0089446D01*
X0109902Y0088416D01*
X0111357Y0088416D01*
X0112386Y0089446D01*
X0112386Y0089535D02*
X0242326Y0089535D01*
X0242478Y0090034D02*
X0112386Y0090034D01*
X0112386Y0090532D02*
X0112586Y0090532D01*
X0114073Y0090532D02*
X0210767Y0090532D01*
X0210867Y0090432D02*
X0212488Y0090432D01*
X0213635Y0091579D01*
X0213635Y0093200D01*
X0213045Y0093789D01*
X0213635Y0094379D01*
X0213635Y0096000D01*
X0212488Y0097147D01*
X0210867Y0097147D01*
X0209720Y0096000D01*
X0209720Y0094379D01*
X0210310Y0093789D01*
X0209720Y0093200D01*
X0209720Y0091579D01*
X0210867Y0090432D01*
X0210268Y0091031D02*
X0114572Y0091031D01*
X0115070Y0091529D02*
X0209770Y0091529D01*
X0209720Y0092028D02*
X0115086Y0092028D01*
X0116067Y0092526D02*
X0209720Y0092526D01*
X0209720Y0093025D02*
X0116566Y0093025D01*
X0116886Y0093523D02*
X0210044Y0093523D01*
X0210077Y0094022D02*
X0116886Y0094022D01*
X0116886Y0094520D02*
X0209720Y0094520D01*
X0209720Y0095019D02*
X0116669Y0095019D01*
X0116170Y0095517D02*
X0209720Y0095517D01*
X0209736Y0096016D02*
X0116550Y0096016D01*
X0116907Y0096515D02*
X0210235Y0096515D01*
X0210733Y0097013D02*
X0116907Y0097013D01*
X0116907Y0097512D02*
X0261381Y0097512D01*
X0261381Y0098010D02*
X0116891Y0098010D01*
X0116392Y0098509D02*
X0244682Y0098509D01*
X0244284Y0098673D02*
X0245867Y0098018D01*
X0247579Y0098018D01*
X0249162Y0098673D01*
X0250373Y0099884D01*
X0251028Y0101466D01*
X0251028Y0103179D01*
X0250373Y0104761D01*
X0249162Y0105972D01*
X0247579Y0106628D01*
X0245867Y0106628D01*
X0244284Y0105972D01*
X0243073Y0104761D01*
X0242418Y0103179D01*
X0242418Y0101466D01*
X0243073Y0099884D01*
X0244284Y0098673D01*
X0243950Y0099007D02*
X0121231Y0099007D01*
X0121140Y0098916D02*
X0122286Y0100063D01*
X0122286Y0101684D01*
X0121140Y0102831D01*
X0119586Y0102831D01*
X0119586Y0103684D01*
X0118440Y0104831D01*
X0116819Y0104831D01*
X0115672Y0103684D01*
X0115672Y0102063D01*
X0116819Y0100916D01*
X0118372Y0100916D01*
X0118372Y0100063D01*
X0119519Y0098916D01*
X0121140Y0098916D01*
X0121729Y0099506D02*
X0243452Y0099506D01*
X0243024Y0100004D02*
X0122228Y0100004D01*
X0122286Y0100503D02*
X0242817Y0100503D01*
X0242611Y0101001D02*
X0122286Y0101001D01*
X0122286Y0101500D02*
X0242418Y0101500D01*
X0242418Y0101998D02*
X0121972Y0101998D01*
X0121474Y0102497D02*
X0242418Y0102497D01*
X0242418Y0102995D02*
X0119586Y0102995D01*
X0119586Y0103494D02*
X0242548Y0103494D01*
X0242755Y0103992D02*
X0119278Y0103992D01*
X0118780Y0104491D02*
X0242961Y0104491D01*
X0243301Y0104989D02*
X0098430Y0104989D01*
X0098894Y0104524D02*
X0097748Y0105671D01*
X0096127Y0105671D01*
X0094980Y0104524D01*
X0094980Y0102903D01*
X0096127Y0101757D01*
X0097748Y0101757D01*
X0098894Y0102903D01*
X0098894Y0104524D01*
X0098894Y0104491D02*
X0116479Y0104491D01*
X0115980Y0103992D02*
X0098894Y0103992D01*
X0098894Y0103494D02*
X0115672Y0103494D01*
X0115672Y0102995D02*
X0098894Y0102995D01*
X0098488Y0102497D02*
X0115672Y0102497D01*
X0115737Y0101998D02*
X0097989Y0101998D01*
X0095885Y0101998D02*
X0051835Y0101998D01*
X0051835Y0101979D02*
X0050688Y0100832D01*
X0049067Y0100832D01*
X0047920Y0101979D01*
X0047920Y0103600D01*
X0049067Y0104747D01*
X0050688Y0104747D01*
X0051835Y0103600D01*
X0051835Y0101979D01*
X0051835Y0102497D02*
X0084080Y0102497D01*
X0084495Y0102082D02*
X0085950Y0102082D01*
X0086980Y0103111D01*
X0086980Y0104567D01*
X0085950Y0105596D01*
X0084495Y0105596D01*
X0083465Y0104567D01*
X0083465Y0103111D01*
X0084495Y0102082D01*
X0083582Y0102995D02*
X0051835Y0102995D01*
X0051835Y0103494D02*
X0083465Y0103494D01*
X0083465Y0103992D02*
X0051442Y0103992D01*
X0050944Y0104491D02*
X0076432Y0104491D01*
X0076900Y0104023D02*
X0075871Y0105052D01*
X0075871Y0105993D01*
X0075080Y0105993D01*
X0074051Y0107022D01*
X0074051Y0108477D01*
X0075080Y0109507D01*
X0076536Y0109507D01*
X0077565Y0108477D01*
X0077565Y0107537D01*
X0078356Y0107537D01*
X0079385Y0106507D01*
X0079385Y0105052D01*
X0078356Y0104023D01*
X0076900Y0104023D01*
X0075934Y0104989D02*
X0027977Y0104989D01*
X0027977Y0104491D02*
X0048811Y0104491D01*
X0048312Y0103992D02*
X0027977Y0103992D01*
X0027977Y0103494D02*
X0047920Y0103494D01*
X0047920Y0102995D02*
X0027977Y0102995D01*
X0027977Y0102497D02*
X0029785Y0102497D01*
X0030019Y0102731D02*
X0028872Y0101584D01*
X0028872Y0099963D01*
X0030019Y0098816D01*
X0031640Y0098816D01*
X0032786Y0099963D01*
X0032786Y0101584D01*
X0031640Y0102731D01*
X0030019Y0102731D01*
X0029286Y0101998D02*
X0027977Y0101998D01*
X0027977Y0101500D02*
X0028872Y0101500D01*
X0028872Y0101001D02*
X0027977Y0101001D01*
X0027977Y0100503D02*
X0028872Y0100503D01*
X0028872Y0100004D02*
X0027977Y0100004D01*
X0027977Y0099506D02*
X0029330Y0099506D01*
X0029828Y0099007D02*
X0027977Y0099007D01*
X0027977Y0098509D02*
X0036829Y0098509D01*
X0036820Y0098500D02*
X0036820Y0096879D01*
X0037967Y0095732D01*
X0039588Y0095732D01*
X0040227Y0096372D01*
X0041167Y0095432D01*
X0042788Y0095432D01*
X0043935Y0096579D01*
X0043935Y0098200D01*
X0042788Y0099347D01*
X0041167Y0099347D01*
X0040527Y0098707D01*
X0039588Y0099647D01*
X0037967Y0099647D01*
X0036820Y0098500D01*
X0036820Y0098010D02*
X0027977Y0098010D01*
X0027977Y0097512D02*
X0036820Y0097512D01*
X0036820Y0097013D02*
X0027977Y0097013D01*
X0027977Y0096515D02*
X0037185Y0096515D01*
X0037683Y0096016D02*
X0027977Y0096016D01*
X0027977Y0095517D02*
X0041082Y0095517D01*
X0040583Y0096016D02*
X0039872Y0096016D01*
X0042873Y0095517D02*
X0049120Y0095517D01*
X0049120Y0095019D02*
X0027977Y0095019D01*
X0027977Y0094520D02*
X0049120Y0094520D01*
X0049120Y0094479D02*
X0050267Y0093332D01*
X0051888Y0093332D01*
X0053035Y0094479D01*
X0053035Y0096100D01*
X0051888Y0097247D01*
X0050267Y0097247D01*
X0049120Y0096100D01*
X0049120Y0094479D01*
X0049577Y0094022D02*
X0027977Y0094022D01*
X0027977Y0093523D02*
X0050076Y0093523D01*
X0052079Y0093523D02*
X0064576Y0093523D01*
X0064520Y0093579D02*
X0065667Y0092432D01*
X0067288Y0092432D01*
X0067777Y0092922D01*
X0068567Y0092132D01*
X0070188Y0092132D01*
X0071335Y0093279D01*
X0071335Y0094900D01*
X0070188Y0096047D01*
X0068567Y0096047D01*
X0068077Y0095557D01*
X0067288Y0096347D01*
X0065667Y0096347D01*
X0064520Y0095200D01*
X0064520Y0093579D01*
X0064520Y0094022D02*
X0052578Y0094022D01*
X0053035Y0094520D02*
X0064520Y0094520D01*
X0064520Y0095019D02*
X0053035Y0095019D01*
X0053035Y0095517D02*
X0064838Y0095517D01*
X0065336Y0096016D02*
X0053035Y0096016D01*
X0052620Y0096515D02*
X0091335Y0096515D01*
X0091020Y0096200D02*
X0092167Y0097347D01*
X0093788Y0097347D01*
X0094935Y0096200D01*
X0094935Y0094579D01*
X0093788Y0093432D01*
X0092167Y0093432D01*
X0091020Y0094579D01*
X0091020Y0096200D01*
X0091020Y0096016D02*
X0070219Y0096016D01*
X0070717Y0095517D02*
X0091020Y0095517D01*
X0091020Y0095019D02*
X0071216Y0095019D01*
X0071335Y0094520D02*
X0091079Y0094520D01*
X0091577Y0094022D02*
X0071335Y0094022D01*
X0071335Y0093523D02*
X0092076Y0093523D01*
X0093879Y0093523D02*
X0094983Y0093523D01*
X0094983Y0094020D02*
X0094983Y0092564D01*
X0096012Y0091535D01*
X0097468Y0091535D01*
X0098497Y0092564D01*
X0098497Y0093918D01*
X0098927Y0093488D01*
X0100548Y0093488D01*
X0101695Y0094634D01*
X0101695Y0096256D01*
X0100548Y0097402D01*
X0098927Y0097402D01*
X0097780Y0096256D01*
X0097780Y0094737D01*
X0097468Y0095049D01*
X0096012Y0095049D01*
X0094983Y0094020D01*
X0094985Y0094022D02*
X0094378Y0094022D01*
X0094876Y0094520D02*
X0095483Y0094520D01*
X0095982Y0095019D02*
X0094935Y0095019D01*
X0094935Y0095517D02*
X0097780Y0095517D01*
X0097780Y0095019D02*
X0097498Y0095019D01*
X0097780Y0096016D02*
X0094935Y0096016D01*
X0094620Y0096515D02*
X0098039Y0096515D01*
X0098538Y0097013D02*
X0094122Y0097013D01*
X0091833Y0097013D02*
X0052122Y0097013D01*
X0050033Y0097013D02*
X0043935Y0097013D01*
X0043935Y0097512D02*
X0112993Y0097512D01*
X0113009Y0098010D02*
X0043935Y0098010D01*
X0043626Y0098509D02*
X0113507Y0098509D01*
X0114006Y0099007D02*
X0043128Y0099007D01*
X0040827Y0099007D02*
X0040228Y0099007D01*
X0039729Y0099506D02*
X0118930Y0099506D01*
X0118431Y0100004D02*
X0032786Y0100004D01*
X0032786Y0100503D02*
X0118372Y0100503D01*
X0116734Y0101001D02*
X0050857Y0101001D01*
X0051355Y0101500D02*
X0116236Y0101500D01*
X0115894Y0099007D02*
X0119428Y0099007D01*
X0113848Y0095517D02*
X0101695Y0095517D01*
X0101695Y0095019D02*
X0113590Y0095019D01*
X0113372Y0094520D02*
X0101581Y0094520D01*
X0101082Y0094022D02*
X0112593Y0094022D01*
X0112094Y0093523D02*
X0100584Y0093523D01*
X0098891Y0093523D02*
X0098497Y0093523D01*
X0098497Y0093025D02*
X0111596Y0093025D01*
X0111572Y0092526D02*
X0098459Y0092526D01*
X0097961Y0092028D02*
X0111572Y0092028D01*
X0109500Y0091529D02*
X0027977Y0091529D01*
X0027977Y0091031D02*
X0086317Y0091031D01*
X0088270Y0091031D02*
X0091619Y0091031D01*
X0091719Y0091131D02*
X0090572Y0089984D01*
X0090572Y0088363D01*
X0091719Y0087216D01*
X0093340Y0087216D01*
X0094486Y0088363D01*
X0094486Y0089984D01*
X0093340Y0091131D01*
X0091719Y0091131D01*
X0091120Y0090532D02*
X0088768Y0090532D01*
X0089250Y0090034D02*
X0090622Y0090034D01*
X0090572Y0089535D02*
X0089250Y0089535D01*
X0089250Y0089037D02*
X0090572Y0089037D01*
X0090572Y0088538D02*
X0089250Y0088538D01*
X0088861Y0088040D02*
X0090895Y0088040D01*
X0091394Y0087541D02*
X0089146Y0087541D01*
X0093665Y0087541D02*
X0105177Y0087541D01*
X0105502Y0087216D02*
X0106957Y0087216D01*
X0107986Y0088246D01*
X0107986Y0089701D01*
X0106957Y0090731D01*
X0105502Y0090731D01*
X0104472Y0089701D01*
X0104472Y0088246D01*
X0105502Y0087216D01*
X0104678Y0088040D02*
X0094163Y0088040D01*
X0094486Y0088538D02*
X0104472Y0088538D01*
X0104472Y0089037D02*
X0094486Y0089037D01*
X0094486Y0089535D02*
X0104472Y0089535D01*
X0104805Y0090034D02*
X0094437Y0090034D01*
X0093938Y0090532D02*
X0105303Y0090532D01*
X0107155Y0090532D02*
X0108872Y0090532D01*
X0108872Y0090034D02*
X0107654Y0090034D01*
X0107986Y0089535D02*
X0108872Y0089535D01*
X0109281Y0089037D02*
X0107986Y0089037D01*
X0107986Y0088538D02*
X0109780Y0088538D01*
X0111479Y0088538D02*
X0246473Y0088538D01*
X0246473Y0088040D02*
X0246973Y0088040D01*
X0246973Y0088538D02*
X0261374Y0088538D01*
X0261373Y0088040D02*
X0251197Y0088040D01*
X0251118Y0087541D02*
X0261373Y0087541D01*
X0261372Y0087043D02*
X0250965Y0087043D01*
X0250753Y0086544D02*
X0261372Y0086544D01*
X0261372Y0086046D02*
X0250468Y0086046D01*
X0250088Y0085547D02*
X0261371Y0085547D01*
X0261371Y0085049D02*
X0249566Y0085049D01*
X0248794Y0084550D02*
X0261370Y0084550D01*
X0261370Y0084052D02*
X0247118Y0084052D01*
X0246973Y0084052D02*
X0246473Y0084052D01*
X0246328Y0084052D02*
X0115819Y0084052D01*
X0116286Y0083584D02*
X0115140Y0084731D01*
X0113519Y0084731D01*
X0112372Y0083584D01*
X0112372Y0081963D01*
X0113519Y0080816D01*
X0115140Y0080816D01*
X0116286Y0081963D01*
X0116286Y0083584D01*
X0116286Y0083553D02*
X0261370Y0083553D01*
X0261369Y0083055D02*
X0116286Y0083055D01*
X0116286Y0082556D02*
X0261369Y0082556D01*
X0261368Y0082058D02*
X0116286Y0082058D01*
X0115883Y0081559D02*
X0261368Y0081559D01*
X0261367Y0081061D02*
X0115384Y0081061D01*
X0113274Y0081061D02*
X0110086Y0081061D01*
X0110086Y0081284D02*
X0108940Y0082431D01*
X0107319Y0082431D01*
X0106172Y0081284D01*
X0106172Y0079663D01*
X0107319Y0078516D01*
X0108940Y0078516D01*
X0110086Y0079663D01*
X0110086Y0081284D01*
X0109811Y0081559D02*
X0112776Y0081559D01*
X0112372Y0082058D02*
X0109313Y0082058D01*
X0110086Y0080562D02*
X0261367Y0080562D01*
X0261367Y0080064D02*
X0110086Y0080064D01*
X0109989Y0079565D02*
X0261366Y0079565D01*
X0261366Y0079067D02*
X0247585Y0079067D01*
X0247579Y0079069D02*
X0245867Y0079069D01*
X0244284Y0078413D01*
X0243073Y0077202D01*
X0242418Y0075620D01*
X0242418Y0073907D01*
X0243073Y0072325D01*
X0244284Y0071114D01*
X0245867Y0070459D01*
X0247579Y0070459D01*
X0249162Y0071114D01*
X0250373Y0072325D01*
X0251028Y0073907D01*
X0251028Y0075620D01*
X0250373Y0077202D01*
X0249162Y0078413D01*
X0247579Y0079069D01*
X0248788Y0078568D02*
X0261365Y0078568D01*
X0261365Y0078070D02*
X0249505Y0078070D01*
X0250004Y0077571D02*
X0261365Y0077571D01*
X0261364Y0077073D02*
X0250427Y0077073D01*
X0250633Y0076574D02*
X0261364Y0076574D01*
X0261363Y0076076D02*
X0250839Y0076076D01*
X0251028Y0075577D02*
X0261363Y0075577D01*
X0261363Y0075079D02*
X0251028Y0075079D01*
X0251028Y0074580D02*
X0261362Y0074580D01*
X0261362Y0074082D02*
X0251028Y0074082D01*
X0250894Y0073583D02*
X0261361Y0073583D01*
X0261361Y0073084D02*
X0250687Y0073084D01*
X0250481Y0072586D02*
X0261361Y0072586D01*
X0261360Y0072087D02*
X0250135Y0072087D01*
X0249637Y0071589D02*
X0261360Y0071589D01*
X0261359Y0071090D02*
X0249105Y0071090D01*
X0247901Y0070592D02*
X0261359Y0070592D01*
X0261359Y0070093D02*
X0178549Y0070093D01*
X0178051Y0069595D02*
X0261358Y0069595D01*
X0261358Y0069096D02*
X0181601Y0069096D01*
X0182099Y0068598D02*
X0261357Y0068598D01*
X0245545Y0070592D02*
X0219051Y0070592D01*
X0218692Y0070232D02*
X0219721Y0071262D01*
X0219721Y0072717D01*
X0218692Y0073747D01*
X0217236Y0073747D01*
X0216207Y0072717D01*
X0216207Y0071262D01*
X0217236Y0070232D01*
X0218692Y0070232D01*
X0219550Y0071090D02*
X0244341Y0071090D01*
X0243809Y0071589D02*
X0219721Y0071589D01*
X0219721Y0072087D02*
X0243311Y0072087D01*
X0242965Y0072586D02*
X0219721Y0072586D01*
X0219354Y0073084D02*
X0242759Y0073084D01*
X0242552Y0073583D02*
X0218855Y0073583D01*
X0217072Y0073583D02*
X0154239Y0073583D01*
X0154650Y0073084D02*
X0176005Y0073084D01*
X0176367Y0073447D02*
X0175220Y0072300D01*
X0175220Y0070679D01*
X0176367Y0069532D01*
X0177988Y0069532D01*
X0179135Y0070679D01*
X0179135Y0072300D01*
X0177988Y0073447D01*
X0176367Y0073447D01*
X0175506Y0072586D02*
X0154735Y0072586D01*
X0154735Y0072087D02*
X0175220Y0072087D01*
X0175220Y0071589D02*
X0154735Y0071589D01*
X0154446Y0071090D02*
X0175220Y0071090D01*
X0175307Y0070592D02*
X0153948Y0070592D01*
X0152841Y0070093D02*
X0175806Y0070093D01*
X0176304Y0069595D02*
X0152935Y0069595D01*
X0152935Y0069096D02*
X0179712Y0069096D01*
X0179213Y0068598D02*
X0152935Y0068598D01*
X0152655Y0068099D02*
X0178715Y0068099D01*
X0178699Y0067601D02*
X0152157Y0067601D01*
X0150535Y0067102D02*
X0178699Y0067102D01*
X0178699Y0066604D02*
X0150535Y0066604D01*
X0150535Y0066105D02*
X0179056Y0066105D01*
X0179555Y0065607D02*
X0150463Y0065607D01*
X0149964Y0065108D02*
X0205988Y0065108D01*
X0205489Y0064610D02*
X0179642Y0064610D01*
X0180141Y0064111D02*
X0204991Y0064111D01*
X0204844Y0063613D02*
X0180635Y0063613D01*
X0180635Y0063114D02*
X0204844Y0063114D01*
X0204844Y0062616D02*
X0180635Y0062616D01*
X0180590Y0062117D02*
X0205070Y0062117D01*
X0205569Y0061619D02*
X0180092Y0061619D01*
X0178113Y0064610D02*
X0149465Y0064610D01*
X0146620Y0066105D02*
X0128146Y0066105D01*
X0128645Y0065607D02*
X0144909Y0065607D01*
X0144410Y0065108D02*
X0129143Y0065108D01*
X0129642Y0064610D02*
X0144039Y0064610D01*
X0144039Y0064111D02*
X0130140Y0064111D01*
X0130639Y0063613D02*
X0144039Y0063613D01*
X0144041Y0063114D02*
X0131137Y0063114D01*
X0132272Y0062616D02*
X0144539Y0062616D01*
X0146620Y0066604D02*
X0127648Y0066604D01*
X0127149Y0067102D02*
X0146620Y0067102D01*
X0146921Y0067601D02*
X0126651Y0067601D01*
X0126152Y0068099D02*
X0147420Y0068099D01*
X0149020Y0068598D02*
X0125654Y0068598D01*
X0125155Y0069096D02*
X0149020Y0069096D01*
X0149020Y0069595D02*
X0124656Y0069595D01*
X0124158Y0070093D02*
X0149114Y0070093D01*
X0149612Y0070592D02*
X0123659Y0070592D01*
X0123161Y0071090D02*
X0150111Y0071090D01*
X0150820Y0071589D02*
X0095462Y0071589D01*
X0094964Y0072087D02*
X0150820Y0072087D01*
X0150820Y0072586D02*
X0094465Y0072586D01*
X0093967Y0073084D02*
X0150905Y0073084D01*
X0151403Y0073583D02*
X0149739Y0073583D01*
X0150237Y0074082D02*
X0151902Y0074082D01*
X0151519Y0074580D02*
X0150736Y0074580D01*
X0150835Y0075079D02*
X0151420Y0075079D01*
X0151420Y0075577D02*
X0150835Y0075577D01*
X0149320Y0077571D02*
X0089480Y0077571D01*
X0088982Y0078070D02*
X0093130Y0078070D01*
X0092631Y0078568D02*
X0088483Y0078568D01*
X0087985Y0079067D02*
X0092320Y0079067D01*
X0092320Y0079565D02*
X0087486Y0079565D01*
X0086988Y0080064D02*
X0092320Y0080064D01*
X0092382Y0080562D02*
X0086489Y0080562D01*
X0083929Y0076374D02*
X0078129Y0076374D01*
X0074829Y0079674D01*
X0065529Y0079674D01*
X0064149Y0081061D02*
X0048135Y0081061D01*
X0048135Y0081559D02*
X0064647Y0081559D01*
X0063650Y0080562D02*
X0048135Y0080562D01*
X0048135Y0080079D02*
X0048135Y0081700D01*
X0046988Y0082847D01*
X0045367Y0082847D01*
X0044220Y0081700D01*
X0044220Y0080079D01*
X0045367Y0078932D01*
X0046988Y0078932D01*
X0048135Y0080079D01*
X0048119Y0080064D02*
X0063572Y0080064D01*
X0063572Y0079565D02*
X0047621Y0079565D01*
X0047122Y0079067D02*
X0063572Y0079067D01*
X0063867Y0078568D02*
X0041267Y0078568D01*
X0041735Y0078100D02*
X0040588Y0079247D01*
X0038967Y0079247D01*
X0037820Y0078100D01*
X0037820Y0076479D01*
X0038967Y0075332D01*
X0040588Y0075332D01*
X0041735Y0076479D01*
X0041735Y0078100D01*
X0041735Y0078070D02*
X0064366Y0078070D01*
X0066693Y0078070D02*
X0074585Y0078070D01*
X0075083Y0077571D02*
X0041735Y0077571D01*
X0041735Y0077073D02*
X0046985Y0077073D01*
X0046486Y0076574D02*
X0041735Y0076574D01*
X0041331Y0076076D02*
X0046394Y0076076D01*
X0046394Y0075577D02*
X0040833Y0075577D01*
X0038722Y0075577D02*
X0027977Y0075577D01*
X0027977Y0075079D02*
X0046394Y0075079D01*
X0046841Y0074580D02*
X0027977Y0074580D01*
X0027977Y0074082D02*
X0047339Y0074082D01*
X0049908Y0075079D02*
X0077576Y0075079D01*
X0077077Y0075577D02*
X0049908Y0075577D01*
X0049908Y0076076D02*
X0076579Y0076076D01*
X0076080Y0076574D02*
X0049816Y0076574D01*
X0049318Y0077073D02*
X0075582Y0077073D01*
X0080657Y0087541D02*
X0063514Y0087541D01*
X0064013Y0088040D02*
X0080657Y0088040D01*
X0081012Y0088538D02*
X0064435Y0088538D01*
X0064435Y0089037D02*
X0081511Y0089037D01*
X0071081Y0093025D02*
X0094983Y0093025D01*
X0095021Y0092526D02*
X0070582Y0092526D01*
X0068173Y0092526D02*
X0067382Y0092526D01*
X0065573Y0092526D02*
X0027977Y0092526D01*
X0027977Y0092028D02*
X0095520Y0092028D01*
X0093440Y0091031D02*
X0109002Y0091031D01*
X0107282Y0087541D02*
X0242328Y0087541D01*
X0242481Y0087043D02*
X0110745Y0087043D01*
X0111243Y0086544D02*
X0242693Y0086544D01*
X0242978Y0086046D02*
X0111586Y0086046D01*
X0111586Y0085547D02*
X0243358Y0085547D01*
X0243880Y0085049D02*
X0111586Y0085049D01*
X0111391Y0084550D02*
X0113338Y0084550D01*
X0112840Y0084052D02*
X0110892Y0084052D01*
X0112372Y0083553D02*
X0045335Y0083553D01*
X0045335Y0083055D02*
X0112372Y0083055D01*
X0112372Y0082556D02*
X0047278Y0082556D01*
X0047777Y0082058D02*
X0106946Y0082058D01*
X0106447Y0081559D02*
X0095175Y0081559D01*
X0095674Y0081061D02*
X0106172Y0081061D01*
X0106172Y0080562D02*
X0096173Y0080562D01*
X0096235Y0080064D02*
X0106172Y0080064D01*
X0106270Y0079565D02*
X0096235Y0079565D01*
X0096235Y0079067D02*
X0106769Y0079067D01*
X0107267Y0078568D02*
X0095924Y0078568D01*
X0095425Y0078070D02*
X0149320Y0078070D01*
X0149488Y0078568D02*
X0108992Y0078568D01*
X0109490Y0079067D02*
X0149987Y0079067D01*
X0152568Y0079067D02*
X0245861Y0079067D01*
X0244658Y0078568D02*
X0153067Y0078568D01*
X0153235Y0078070D02*
X0243941Y0078070D01*
X0243442Y0077571D02*
X0157364Y0077571D01*
X0157862Y0077073D02*
X0243020Y0077073D01*
X0242813Y0076574D02*
X0158335Y0076574D01*
X0158335Y0076076D02*
X0242607Y0076076D01*
X0242418Y0075577D02*
X0158335Y0075577D01*
X0158335Y0075079D02*
X0242418Y0075079D01*
X0242418Y0074580D02*
X0157936Y0074580D01*
X0157437Y0074082D02*
X0242418Y0074082D01*
X0244652Y0084550D02*
X0115320Y0084550D01*
X0113349Y0096016D02*
X0101695Y0096016D01*
X0101436Y0096515D02*
X0112993Y0096515D01*
X0112993Y0097013D02*
X0100937Y0097013D01*
X0095387Y0102497D02*
X0086365Y0102497D01*
X0086864Y0102995D02*
X0094980Y0102995D01*
X0094980Y0103494D02*
X0086980Y0103494D01*
X0086980Y0103992D02*
X0094980Y0103992D01*
X0094980Y0104491D02*
X0086980Y0104491D01*
X0086557Y0104989D02*
X0095445Y0104989D01*
X0095944Y0105488D02*
X0086059Y0105488D01*
X0084386Y0105488D02*
X0079385Y0105488D01*
X0079385Y0105986D02*
X0244318Y0105986D01*
X0243800Y0105488D02*
X0097931Y0105488D01*
X0100967Y0111032D02*
X0102588Y0111032D01*
X0103735Y0112179D01*
X0103735Y0113432D01*
X0104388Y0113432D01*
X0105535Y0114579D01*
X0105535Y0116200D01*
X0104388Y0117347D01*
X0102767Y0117347D01*
X0101620Y0116200D01*
X0101620Y0114947D01*
X0100967Y0114947D01*
X0099820Y0113800D01*
X0099820Y0112179D01*
X0100967Y0111032D01*
X0100529Y0111470D02*
X0085824Y0111470D01*
X0085824Y0111156D02*
X0085824Y0112579D01*
X0086134Y0112579D01*
X0087163Y0113609D01*
X0087163Y0115064D01*
X0086134Y0116094D01*
X0085828Y0116094D01*
X0085828Y0117067D01*
X0086097Y0117067D01*
X0087127Y0118096D01*
X0087127Y0119552D01*
X0086097Y0120581D01*
X0085602Y0120581D01*
X0086488Y0121467D01*
X0086488Y0122923D01*
X0085459Y0123952D01*
X0084003Y0123952D01*
X0082974Y0122923D01*
X0082974Y0121467D01*
X0084003Y0120438D01*
X0084498Y0120438D01*
X0083612Y0119552D01*
X0083612Y0118183D01*
X0083343Y0118183D01*
X0082314Y0117154D01*
X0082314Y0115698D01*
X0083343Y0114669D01*
X0083649Y0114669D01*
X0083649Y0113641D01*
X0083339Y0113641D01*
X0082309Y0112612D01*
X0082309Y0111156D01*
X0083339Y0110127D01*
X0084794Y0110127D01*
X0085824Y0111156D01*
X0085639Y0110971D02*
X0261392Y0110971D01*
X0261391Y0110473D02*
X0085140Y0110473D01*
X0085824Y0111968D02*
X0100031Y0111968D01*
X0099820Y0112467D02*
X0085824Y0112467D01*
X0086520Y0112965D02*
X0099820Y0112965D01*
X0099820Y0113464D02*
X0087018Y0113464D01*
X0087163Y0113962D02*
X0099983Y0113962D01*
X0100481Y0114461D02*
X0087163Y0114461D01*
X0087163Y0114959D02*
X0101620Y0114959D01*
X0101620Y0115458D02*
X0086770Y0115458D01*
X0086271Y0115956D02*
X0101620Y0115956D01*
X0101875Y0116455D02*
X0085828Y0116455D01*
X0085828Y0116953D02*
X0102374Y0116953D01*
X0104781Y0116953D02*
X0242418Y0116953D01*
X0242418Y0116959D02*
X0242418Y0115246D01*
X0243073Y0113664D01*
X0244284Y0112453D01*
X0245867Y0111797D01*
X0247579Y0111797D01*
X0249162Y0112453D01*
X0250373Y0113664D01*
X0251028Y0115246D01*
X0251028Y0116959D01*
X0250373Y0118541D01*
X0249162Y0119752D01*
X0247579Y0120407D01*
X0245867Y0120407D01*
X0244284Y0119752D01*
X0243073Y0118541D01*
X0242418Y0116959D01*
X0242418Y0116455D02*
X0105280Y0116455D01*
X0105535Y0115956D02*
X0242418Y0115956D01*
X0242418Y0115458D02*
X0105535Y0115458D01*
X0105535Y0114959D02*
X0242537Y0114959D01*
X0242743Y0114461D02*
X0105417Y0114461D01*
X0104918Y0113962D02*
X0242950Y0113962D01*
X0243273Y0113464D02*
X0104420Y0113464D01*
X0103735Y0112965D02*
X0243772Y0112965D01*
X0244270Y0112467D02*
X0103735Y0112467D01*
X0103524Y0111968D02*
X0245453Y0111968D01*
X0247993Y0111968D02*
X0261392Y0111968D01*
X0261392Y0111470D02*
X0103026Y0111470D01*
X0114120Y0119479D02*
X0114120Y0121100D01*
X0115267Y0122247D01*
X0116888Y0122247D01*
X0118035Y0121100D01*
X0118035Y0119479D01*
X0116888Y0118332D01*
X0115267Y0118332D01*
X0114120Y0119479D01*
X0114153Y0119446D02*
X0087127Y0119446D01*
X0087127Y0118948D02*
X0114652Y0118948D01*
X0115150Y0118449D02*
X0087127Y0118449D01*
X0086981Y0117951D02*
X0242829Y0117951D01*
X0243035Y0118449D02*
X0117005Y0118449D01*
X0117503Y0118948D02*
X0243480Y0118948D01*
X0243978Y0119446D02*
X0118002Y0119446D01*
X0118035Y0119945D02*
X0244749Y0119945D01*
X0242622Y0117452D02*
X0086482Y0117452D01*
X0086734Y0119945D02*
X0114120Y0119945D01*
X0114120Y0120443D02*
X0086236Y0120443D01*
X0085962Y0120942D02*
X0114120Y0120942D01*
X0114460Y0121440D02*
X0086461Y0121440D01*
X0086488Y0121939D02*
X0114959Y0121939D01*
X0117196Y0121939D02*
X0189561Y0121939D01*
X0189062Y0122437D02*
X0086488Y0122437D01*
X0086475Y0122936D02*
X0189020Y0122936D01*
X0189020Y0122479D02*
X0189020Y0124100D01*
X0190167Y0125247D01*
X0191788Y0125247D01*
X0192935Y0124100D01*
X0192935Y0122479D01*
X0191788Y0121332D01*
X0190167Y0121332D01*
X0189020Y0122479D01*
X0189020Y0123434D02*
X0085977Y0123434D01*
X0085478Y0123933D02*
X0189020Y0123933D01*
X0189351Y0124431D02*
X0081481Y0124431D01*
X0081525Y0124474D02*
X0080495Y0123445D01*
X0079040Y0123445D01*
X0078010Y0124474D01*
X0078010Y0125930D01*
X0079040Y0126959D01*
X0080495Y0126959D01*
X0081525Y0125930D01*
X0081525Y0124474D01*
X0081525Y0124930D02*
X0189850Y0124930D01*
X0192105Y0124930D02*
X0261403Y0124930D01*
X0261403Y0125428D02*
X0081525Y0125428D01*
X0081525Y0125927D02*
X0114273Y0125927D01*
X0114667Y0125532D02*
X0116288Y0125532D01*
X0117177Y0126422D01*
X0118067Y0125532D01*
X0119688Y0125532D01*
X0120577Y0126422D01*
X0121467Y0125532D01*
X0123088Y0125532D01*
X0124235Y0126679D01*
X0124235Y0128300D01*
X0123088Y0129447D01*
X0121467Y0129447D01*
X0120577Y0128557D01*
X0119688Y0129447D01*
X0118067Y0129447D01*
X0117177Y0128557D01*
X0116288Y0129447D01*
X0114667Y0129447D01*
X0113520Y0128300D01*
X0113520Y0126679D01*
X0114667Y0125532D01*
X0113774Y0126425D02*
X0088440Y0126425D01*
X0088309Y0126294D02*
X0089339Y0127323D01*
X0089339Y0128779D01*
X0088309Y0129808D01*
X0087282Y0129808D01*
X0087915Y0130441D01*
X0087915Y0131897D01*
X0086885Y0132926D01*
X0085430Y0132926D01*
X0084401Y0131897D01*
X0084401Y0130441D01*
X0085430Y0129412D01*
X0086457Y0129412D01*
X0085824Y0128779D01*
X0085824Y0127323D01*
X0086854Y0126294D01*
X0088309Y0126294D01*
X0088939Y0126924D02*
X0113520Y0126924D01*
X0113520Y0127422D02*
X0089339Y0127422D01*
X0089339Y0127921D02*
X0113520Y0127921D01*
X0113639Y0128419D02*
X0089339Y0128419D01*
X0089200Y0128918D02*
X0114138Y0128918D01*
X0114637Y0129416D02*
X0088701Y0129416D01*
X0087887Y0130413D02*
X0153847Y0130413D01*
X0153708Y0130275D02*
X0153708Y0128654D01*
X0154855Y0127507D01*
X0156476Y0127507D01*
X0156877Y0127908D01*
X0156877Y0127440D01*
X0158023Y0126294D01*
X0159644Y0126294D01*
X0160791Y0127440D01*
X0160791Y0129061D01*
X0159644Y0130208D01*
X0158023Y0130208D01*
X0157623Y0129807D01*
X0157623Y0130275D01*
X0156476Y0131421D01*
X0154855Y0131421D01*
X0153708Y0130275D01*
X0153708Y0129915D02*
X0087388Y0129915D01*
X0087915Y0130912D02*
X0154345Y0130912D01*
X0154844Y0131410D02*
X0087915Y0131410D01*
X0087903Y0131909D02*
X0102290Y0131909D01*
X0102467Y0131732D02*
X0104088Y0131732D01*
X0105235Y0132879D01*
X0105235Y0134500D01*
X0104088Y0135647D01*
X0102467Y0135647D01*
X0101320Y0134500D01*
X0101320Y0132879D01*
X0102467Y0131732D01*
X0101792Y0132407D02*
X0087404Y0132407D01*
X0086906Y0132906D02*
X0101320Y0132906D01*
X0101320Y0133404D02*
X0084938Y0133404D01*
X0085132Y0133598D02*
X0084102Y0132569D01*
X0082647Y0132569D01*
X0081618Y0133598D01*
X0081618Y0135054D01*
X0082647Y0136083D01*
X0084102Y0136083D01*
X0084510Y0135676D01*
X0084510Y0135967D01*
X0085539Y0136996D01*
X0086321Y0136996D01*
X0086321Y0137611D01*
X0087350Y0138640D01*
X0088806Y0138640D01*
X0089835Y0137611D01*
X0089835Y0136155D01*
X0088806Y0135126D01*
X0088024Y0135126D01*
X0088024Y0134511D01*
X0086995Y0133482D01*
X0085539Y0133482D01*
X0085132Y0133889D01*
X0085132Y0133598D01*
X0085409Y0132906D02*
X0084439Y0132906D01*
X0084911Y0132407D02*
X0060575Y0132407D01*
X0060997Y0132829D02*
X0059968Y0131800D01*
X0058512Y0131800D01*
X0057483Y0132829D01*
X0057483Y0134285D01*
X0058512Y0135314D01*
X0059968Y0135314D01*
X0060997Y0134285D01*
X0060997Y0132829D01*
X0060997Y0132906D02*
X0071964Y0132906D01*
X0072136Y0132734D02*
X0073591Y0132734D01*
X0074620Y0133763D01*
X0074620Y0135219D01*
X0073591Y0136248D01*
X0072136Y0136248D01*
X0071106Y0135219D01*
X0071106Y0133763D01*
X0072136Y0132734D01*
X0072162Y0131842D02*
X0071132Y0130813D01*
X0071132Y0129357D01*
X0072162Y0128328D01*
X0073617Y0128328D01*
X0074646Y0129357D01*
X0074646Y0130813D01*
X0073617Y0131842D01*
X0072162Y0131842D01*
X0071730Y0131410D02*
X0047378Y0131410D01*
X0047877Y0130912D02*
X0060874Y0130912D01*
X0060879Y0130917D02*
X0059850Y0129888D01*
X0059850Y0128432D01*
X0060879Y0127403D01*
X0062334Y0127403D01*
X0063364Y0128432D01*
X0063364Y0129888D01*
X0062334Y0130917D01*
X0060879Y0130917D01*
X0060375Y0130413D02*
X0047914Y0130413D01*
X0047914Y0130875D02*
X0047914Y0129253D01*
X0046767Y0128107D01*
X0046228Y0128107D01*
X0046435Y0127900D01*
X0046435Y0126279D01*
X0045288Y0125132D01*
X0043667Y0125132D01*
X0042520Y0126279D01*
X0042520Y0127900D01*
X0043667Y0129047D01*
X0044206Y0129047D01*
X0044000Y0129253D01*
X0044000Y0130875D01*
X0045146Y0132021D01*
X0046767Y0132021D01*
X0047914Y0130875D01*
X0047914Y0129915D02*
X0059877Y0129915D01*
X0059850Y0129416D02*
X0047914Y0129416D01*
X0047578Y0128918D02*
X0059850Y0128918D01*
X0059862Y0128419D02*
X0047080Y0128419D01*
X0046414Y0127921D02*
X0060361Y0127921D01*
X0060859Y0127422D02*
X0046435Y0127422D01*
X0046435Y0126924D02*
X0068624Y0126924D01*
X0068355Y0126655D02*
X0068355Y0125199D01*
X0068869Y0124685D01*
X0068393Y0124209D01*
X0068393Y0122754D01*
X0069422Y0121724D01*
X0070878Y0121724D01*
X0071907Y0122754D01*
X0071907Y0124209D01*
X0071393Y0124723D01*
X0071869Y0125199D01*
X0071869Y0126655D01*
X0070840Y0127684D01*
X0069384Y0127684D01*
X0068355Y0126655D01*
X0068355Y0126425D02*
X0046435Y0126425D01*
X0046082Y0125927D02*
X0068355Y0125927D01*
X0068355Y0125428D02*
X0045584Y0125428D01*
X0043371Y0125428D02*
X0027977Y0125428D01*
X0027977Y0124930D02*
X0061218Y0124930D01*
X0061288Y0124999D02*
X0060258Y0123970D01*
X0060258Y0122514D01*
X0061288Y0121485D01*
X0062743Y0121485D01*
X0063773Y0122514D01*
X0063773Y0123970D01*
X0062743Y0124999D01*
X0061288Y0124999D01*
X0060720Y0124431D02*
X0027977Y0124431D01*
X0027977Y0123933D02*
X0029778Y0123933D01*
X0029923Y0124078D02*
X0028894Y0123048D01*
X0028894Y0121593D01*
X0029923Y0120563D01*
X0031378Y0120563D01*
X0032408Y0121593D01*
X0032408Y0123048D01*
X0031378Y0124078D01*
X0029923Y0124078D01*
X0029279Y0123434D02*
X0027977Y0123434D01*
X0027977Y0122936D02*
X0028894Y0122936D01*
X0028894Y0122437D02*
X0027977Y0122437D01*
X0027977Y0121939D02*
X0028894Y0121939D01*
X0029046Y0121440D02*
X0027977Y0121440D01*
X0027977Y0120942D02*
X0029545Y0120942D01*
X0027977Y0120443D02*
X0056565Y0120443D01*
X0056565Y0119945D02*
X0027977Y0119945D01*
X0027977Y0119446D02*
X0056701Y0119446D01*
X0056565Y0119582D02*
X0057594Y0118553D01*
X0059050Y0118553D01*
X0060079Y0119582D01*
X0060079Y0121037D01*
X0059050Y0122067D01*
X0057594Y0122067D01*
X0056565Y0121037D01*
X0056565Y0119582D01*
X0057199Y0118948D02*
X0027977Y0118948D01*
X0027977Y0118449D02*
X0029791Y0118449D01*
X0030122Y0118781D02*
X0029122Y0117781D01*
X0029122Y0116366D01*
X0030122Y0115366D01*
X0031536Y0115366D01*
X0032536Y0116366D01*
X0032536Y0117781D01*
X0031536Y0118781D01*
X0030122Y0118781D01*
X0029292Y0117951D02*
X0027977Y0117951D01*
X0027977Y0117452D02*
X0029122Y0117452D01*
X0029122Y0116953D02*
X0027977Y0116953D01*
X0027977Y0116455D02*
X0029122Y0116455D01*
X0029532Y0115956D02*
X0027977Y0115956D01*
X0027977Y0115458D02*
X0030031Y0115458D01*
X0031628Y0115458D02*
X0055292Y0115458D01*
X0055292Y0115114D02*
X0056321Y0114085D01*
X0057777Y0114085D01*
X0058806Y0115114D01*
X0058806Y0116570D01*
X0057777Y0117599D01*
X0056321Y0117599D01*
X0055292Y0116570D01*
X0055292Y0115114D01*
X0055446Y0114959D02*
X0027977Y0114959D01*
X0027977Y0114461D02*
X0055945Y0114461D01*
X0055292Y0115956D02*
X0032126Y0115956D01*
X0032536Y0116455D02*
X0055292Y0116455D01*
X0055676Y0116953D02*
X0032536Y0116953D01*
X0032536Y0117452D02*
X0056174Y0117452D01*
X0057924Y0117452D02*
X0065185Y0117452D01*
X0065257Y0117380D02*
X0066713Y0117380D01*
X0067742Y0118409D01*
X0067742Y0119865D01*
X0066713Y0120894D01*
X0065257Y0120894D01*
X0064228Y0119865D01*
X0064228Y0118409D01*
X0065257Y0117380D01*
X0064687Y0117951D02*
X0032367Y0117951D01*
X0031868Y0118449D02*
X0064228Y0118449D01*
X0064228Y0118948D02*
X0059445Y0118948D01*
X0059943Y0119446D02*
X0064228Y0119446D01*
X0064308Y0119945D02*
X0060079Y0119945D01*
X0060079Y0120443D02*
X0064806Y0120443D01*
X0065262Y0121345D02*
X0066718Y0121345D01*
X0067747Y0122374D01*
X0067747Y0123830D01*
X0066718Y0124859D01*
X0065262Y0124859D01*
X0064233Y0123830D01*
X0064233Y0122374D01*
X0065262Y0121345D01*
X0065167Y0121440D02*
X0059676Y0121440D01*
X0060079Y0120942D02*
X0073116Y0120942D01*
X0073116Y0120993D02*
X0073116Y0119537D01*
X0074145Y0118508D01*
X0075601Y0118508D01*
X0076630Y0119537D01*
X0076630Y0120993D01*
X0075601Y0122022D01*
X0074145Y0122022D01*
X0073116Y0120993D01*
X0073116Y0120443D02*
X0067164Y0120443D01*
X0067662Y0119945D02*
X0073116Y0119945D01*
X0073207Y0119446D02*
X0067742Y0119446D01*
X0067742Y0118948D02*
X0073706Y0118948D01*
X0074110Y0118008D02*
X0073081Y0116979D01*
X0073081Y0115523D01*
X0074110Y0114494D01*
X0075565Y0114494D01*
X0076595Y0115523D01*
X0076595Y0116979D01*
X0075565Y0118008D01*
X0074110Y0118008D01*
X0074052Y0117951D02*
X0071812Y0117951D01*
X0071672Y0118091D02*
X0070217Y0118091D01*
X0069187Y0117061D01*
X0069187Y0115606D01*
X0070217Y0114576D01*
X0071672Y0114576D01*
X0072702Y0115606D01*
X0072702Y0117061D01*
X0071672Y0118091D01*
X0072311Y0117452D02*
X0073554Y0117452D01*
X0073081Y0116953D02*
X0072702Y0116953D01*
X0072702Y0116455D02*
X0073081Y0116455D01*
X0073081Y0115956D02*
X0072702Y0115956D01*
X0072554Y0115458D02*
X0073146Y0115458D01*
X0073644Y0114959D02*
X0072055Y0114959D01*
X0069834Y0114959D02*
X0058651Y0114959D01*
X0058806Y0115458D02*
X0069335Y0115458D01*
X0069187Y0115956D02*
X0058806Y0115956D01*
X0058806Y0116455D02*
X0069187Y0116455D01*
X0069187Y0116953D02*
X0058422Y0116953D01*
X0058153Y0114461D02*
X0083649Y0114461D01*
X0083649Y0113962D02*
X0036760Y0113962D01*
X0036474Y0114248D02*
X0034853Y0114248D01*
X0033707Y0113101D01*
X0033707Y0111480D01*
X0034853Y0110334D01*
X0036474Y0110334D01*
X0037621Y0111480D01*
X0037621Y0113101D01*
X0036474Y0114248D01*
X0037258Y0113464D02*
X0083162Y0113464D01*
X0082663Y0112965D02*
X0037621Y0112965D01*
X0037621Y0112467D02*
X0082309Y0112467D01*
X0082309Y0111968D02*
X0079173Y0111968D01*
X0078872Y0112270D02*
X0079901Y0111241D01*
X0079901Y0109785D01*
X0078872Y0108756D01*
X0077416Y0108756D01*
X0076387Y0109785D01*
X0076387Y0111241D01*
X0077416Y0112270D01*
X0078872Y0112270D01*
X0079672Y0111470D02*
X0082309Y0111470D01*
X0082494Y0110971D02*
X0079901Y0110971D01*
X0079901Y0110473D02*
X0082993Y0110473D01*
X0079901Y0109974D02*
X0261391Y0109974D01*
X0261390Y0109476D02*
X0079591Y0109476D01*
X0079093Y0108977D02*
X0261390Y0108977D01*
X0261390Y0108479D02*
X0077563Y0108479D01*
X0077565Y0107980D02*
X0261389Y0107980D01*
X0261389Y0107482D02*
X0078411Y0107482D01*
X0078909Y0106983D02*
X0261388Y0106983D01*
X0261388Y0106485D02*
X0247925Y0106485D01*
X0249128Y0105986D02*
X0261388Y0105986D01*
X0261387Y0105488D02*
X0249646Y0105488D01*
X0250145Y0104989D02*
X0261387Y0104989D01*
X0261386Y0104491D02*
X0250485Y0104491D01*
X0250691Y0103992D02*
X0261386Y0103992D01*
X0261386Y0103494D02*
X0250898Y0103494D01*
X0251028Y0102995D02*
X0261385Y0102995D01*
X0261385Y0102497D02*
X0251028Y0102497D01*
X0251028Y0101998D02*
X0261384Y0101998D01*
X0261384Y0101500D02*
X0251028Y0101500D01*
X0250835Y0101001D02*
X0261384Y0101001D01*
X0261383Y0100503D02*
X0250629Y0100503D01*
X0250422Y0100004D02*
X0261383Y0100004D01*
X0261382Y0099506D02*
X0249994Y0099506D01*
X0249496Y0099007D02*
X0261382Y0099007D01*
X0261382Y0098509D02*
X0248765Y0098509D01*
X0247180Y0093025D02*
X0261377Y0093025D01*
X0261378Y0093523D02*
X0213311Y0093523D01*
X0213278Y0094022D02*
X0261378Y0094022D01*
X0261378Y0094520D02*
X0213635Y0094520D01*
X0213635Y0095019D02*
X0261379Y0095019D01*
X0261379Y0095517D02*
X0213635Y0095517D01*
X0213619Y0096016D02*
X0261380Y0096016D01*
X0261380Y0096515D02*
X0213120Y0096515D01*
X0212622Y0097013D02*
X0261380Y0097013D01*
X0261377Y0092526D02*
X0248813Y0092526D01*
X0249579Y0092028D02*
X0261376Y0092028D01*
X0261376Y0091529D02*
X0250098Y0091529D01*
X0250476Y0091031D02*
X0261376Y0091031D01*
X0261375Y0090532D02*
X0250758Y0090532D01*
X0250968Y0090034D02*
X0261375Y0090034D01*
X0261374Y0089535D02*
X0251120Y0089535D01*
X0251199Y0089037D02*
X0261374Y0089037D01*
X0246973Y0089037D02*
X0246473Y0089037D01*
X0246473Y0089535D02*
X0246973Y0089535D01*
X0246973Y0090034D02*
X0246473Y0090034D01*
X0246473Y0090532D02*
X0246973Y0090532D01*
X0246973Y0091031D02*
X0246473Y0091031D01*
X0246473Y0091529D02*
X0246973Y0091529D01*
X0246973Y0092028D02*
X0246473Y0092028D01*
X0246473Y0092526D02*
X0246973Y0092526D01*
X0246973Y0093025D02*
X0246473Y0093025D01*
X0246266Y0093025D02*
X0213635Y0093025D01*
X0213635Y0092526D02*
X0244633Y0092526D01*
X0243867Y0092028D02*
X0213635Y0092028D01*
X0213585Y0091529D02*
X0243348Y0091529D01*
X0242971Y0091031D02*
X0213087Y0091031D01*
X0212588Y0090532D02*
X0242688Y0090532D01*
X0246473Y0087541D02*
X0246973Y0087541D01*
X0246973Y0087043D02*
X0246473Y0087043D01*
X0246473Y0086544D02*
X0246973Y0086544D01*
X0246973Y0086046D02*
X0246473Y0086046D01*
X0246473Y0085547D02*
X0246973Y0085547D01*
X0246973Y0085049D02*
X0246473Y0085049D01*
X0246473Y0084550D02*
X0246973Y0084550D01*
X0245521Y0106485D02*
X0079385Y0106485D01*
X0079322Y0104989D02*
X0083888Y0104989D01*
X0083465Y0104491D02*
X0078824Y0104491D01*
X0075871Y0105488D02*
X0058478Y0105488D01*
X0058206Y0105216D02*
X0059235Y0106245D01*
X0059235Y0107701D01*
X0058206Y0108730D01*
X0056750Y0108730D01*
X0055721Y0107701D01*
X0055721Y0106245D01*
X0056750Y0105216D01*
X0058206Y0105216D01*
X0058976Y0105986D02*
X0075871Y0105986D01*
X0074588Y0106485D02*
X0059235Y0106485D01*
X0059235Y0106983D02*
X0074089Y0106983D01*
X0074051Y0107482D02*
X0059235Y0107482D01*
X0058956Y0107980D02*
X0074051Y0107980D01*
X0074052Y0108479D02*
X0058457Y0108479D01*
X0056499Y0108479D02*
X0027977Y0108479D01*
X0027977Y0108977D02*
X0065108Y0108977D01*
X0065458Y0108627D02*
X0066914Y0108627D01*
X0067943Y0109657D01*
X0067943Y0111112D01*
X0066914Y0112142D01*
X0065458Y0112142D01*
X0064429Y0111112D01*
X0064429Y0109657D01*
X0065458Y0108627D01*
X0064610Y0109476D02*
X0027977Y0109476D01*
X0027977Y0109974D02*
X0064429Y0109974D01*
X0064429Y0110473D02*
X0036614Y0110473D01*
X0037112Y0110971D02*
X0064429Y0110971D01*
X0064787Y0111470D02*
X0037611Y0111470D01*
X0037621Y0111968D02*
X0065285Y0111968D01*
X0067087Y0111968D02*
X0077114Y0111968D01*
X0076616Y0111470D02*
X0067586Y0111470D01*
X0067943Y0110971D02*
X0076387Y0110971D01*
X0076387Y0110473D02*
X0067943Y0110473D01*
X0067943Y0109974D02*
X0076387Y0109974D01*
X0076566Y0109476D02*
X0076696Y0109476D01*
X0077065Y0108977D02*
X0077195Y0108977D01*
X0075049Y0109476D02*
X0067762Y0109476D01*
X0067264Y0108977D02*
X0074550Y0108977D01*
X0078379Y0114694D02*
X0079835Y0114694D01*
X0080864Y0115723D01*
X0080864Y0117179D01*
X0080596Y0117447D01*
X0081533Y0118384D01*
X0081533Y0119839D01*
X0081099Y0120273D01*
X0081527Y0120701D01*
X0081527Y0122157D01*
X0080498Y0123186D01*
X0079042Y0123186D01*
X0078013Y0122157D01*
X0078013Y0120701D01*
X0078447Y0120268D01*
X0078018Y0119839D01*
X0078018Y0118384D01*
X0078287Y0118115D01*
X0077350Y0117179D01*
X0077350Y0115723D01*
X0078379Y0114694D01*
X0078114Y0114959D02*
X0076031Y0114959D01*
X0076530Y0115458D02*
X0077616Y0115458D01*
X0077350Y0115956D02*
X0076595Y0115956D01*
X0076595Y0116455D02*
X0077350Y0116455D01*
X0077350Y0116953D02*
X0076595Y0116953D01*
X0076121Y0117452D02*
X0077623Y0117452D01*
X0078122Y0117951D02*
X0075623Y0117951D01*
X0076040Y0118948D02*
X0078018Y0118948D01*
X0078018Y0119446D02*
X0076539Y0119446D01*
X0076630Y0119945D02*
X0078124Y0119945D01*
X0078271Y0120443D02*
X0076630Y0120443D01*
X0076630Y0120942D02*
X0078013Y0120942D01*
X0078013Y0121440D02*
X0076183Y0121440D01*
X0075684Y0121939D02*
X0078013Y0121939D01*
X0078293Y0122437D02*
X0071590Y0122437D01*
X0071907Y0122936D02*
X0078791Y0122936D01*
X0078552Y0123933D02*
X0071907Y0123933D01*
X0071907Y0123434D02*
X0083485Y0123434D01*
X0082987Y0122936D02*
X0080748Y0122936D01*
X0081247Y0122437D02*
X0082974Y0122437D01*
X0082974Y0121939D02*
X0081527Y0121939D01*
X0081527Y0121440D02*
X0083001Y0121440D01*
X0083499Y0120942D02*
X0081527Y0120942D01*
X0081269Y0120443D02*
X0083998Y0120443D01*
X0084005Y0119945D02*
X0081427Y0119945D01*
X0081533Y0119446D02*
X0083612Y0119446D01*
X0083612Y0118948D02*
X0081533Y0118948D01*
X0081533Y0118449D02*
X0083612Y0118449D01*
X0083111Y0117951D02*
X0081099Y0117951D01*
X0080601Y0117452D02*
X0082612Y0117452D01*
X0082314Y0116953D02*
X0080864Y0116953D01*
X0080864Y0116455D02*
X0082314Y0116455D01*
X0082314Y0115956D02*
X0080864Y0115956D01*
X0080599Y0115458D02*
X0082554Y0115458D01*
X0083053Y0114959D02*
X0080100Y0114959D01*
X0078018Y0118449D02*
X0067742Y0118449D01*
X0067283Y0117951D02*
X0070077Y0117951D01*
X0069578Y0117452D02*
X0066785Y0117452D01*
X0066813Y0121440D02*
X0073563Y0121440D01*
X0074062Y0121939D02*
X0071092Y0121939D01*
X0069208Y0121939D02*
X0067312Y0121939D01*
X0067747Y0122437D02*
X0068710Y0122437D01*
X0068393Y0122936D02*
X0067747Y0122936D01*
X0067747Y0123434D02*
X0068393Y0123434D01*
X0068393Y0123933D02*
X0067644Y0123933D01*
X0067146Y0124431D02*
X0068615Y0124431D01*
X0068625Y0124930D02*
X0062813Y0124930D01*
X0063311Y0124431D02*
X0064835Y0124431D01*
X0064336Y0123933D02*
X0063773Y0123933D01*
X0063773Y0123434D02*
X0064233Y0123434D01*
X0064233Y0122936D02*
X0063773Y0122936D01*
X0063695Y0122437D02*
X0064233Y0122437D01*
X0064669Y0121939D02*
X0063197Y0121939D01*
X0060834Y0121939D02*
X0059178Y0121939D01*
X0060336Y0122437D02*
X0032408Y0122437D01*
X0032408Y0121939D02*
X0057466Y0121939D01*
X0056967Y0121440D02*
X0032255Y0121440D01*
X0031757Y0120942D02*
X0056565Y0120942D01*
X0060258Y0122936D02*
X0032408Y0122936D01*
X0032022Y0123434D02*
X0060258Y0123434D01*
X0060258Y0123933D02*
X0031523Y0123933D01*
X0027977Y0125927D02*
X0042873Y0125927D01*
X0042520Y0126425D02*
X0027977Y0126425D01*
X0027977Y0126924D02*
X0042520Y0126924D01*
X0042520Y0127422D02*
X0027977Y0127422D01*
X0027977Y0127921D02*
X0042541Y0127921D01*
X0043039Y0128419D02*
X0027977Y0128419D01*
X0027977Y0128918D02*
X0043538Y0128918D01*
X0044000Y0129416D02*
X0027977Y0129416D01*
X0027977Y0129915D02*
X0044000Y0129915D01*
X0044000Y0130413D02*
X0027977Y0130413D01*
X0027977Y0130912D02*
X0044037Y0130912D01*
X0044535Y0131410D02*
X0027977Y0131410D01*
X0027977Y0131909D02*
X0045034Y0131909D01*
X0046880Y0131909D02*
X0058403Y0131909D01*
X0057905Y0132407D02*
X0027977Y0132407D01*
X0027977Y0132906D02*
X0057483Y0132906D01*
X0057483Y0133404D02*
X0027977Y0133404D01*
X0027977Y0133903D02*
X0057483Y0133903D01*
X0057599Y0134401D02*
X0027977Y0134401D01*
X0027977Y0134900D02*
X0058098Y0134900D01*
X0060382Y0134900D02*
X0071106Y0134900D01*
X0071106Y0134401D02*
X0060880Y0134401D01*
X0060997Y0133903D02*
X0071106Y0133903D01*
X0071465Y0133404D02*
X0060997Y0133404D01*
X0060077Y0131909D02*
X0084412Y0131909D01*
X0084401Y0131410D02*
X0078015Y0131410D01*
X0077594Y0131832D02*
X0078623Y0130803D01*
X0078623Y0130448D01*
X0079082Y0130907D01*
X0080537Y0130907D01*
X0081567Y0129877D01*
X0081567Y0128422D01*
X0080537Y0127393D01*
X0079082Y0127393D01*
X0078052Y0128422D01*
X0078052Y0128777D01*
X0077594Y0128318D01*
X0076138Y0128318D01*
X0075109Y0129347D01*
X0075109Y0130803D01*
X0076138Y0131832D01*
X0077594Y0131832D01*
X0078514Y0130912D02*
X0084401Y0130912D01*
X0084429Y0130413D02*
X0081031Y0130413D01*
X0081529Y0129915D02*
X0084927Y0129915D01*
X0085426Y0129416D02*
X0081567Y0129416D01*
X0081567Y0128918D02*
X0085963Y0128918D01*
X0085824Y0128419D02*
X0081564Y0128419D01*
X0081065Y0127921D02*
X0085824Y0127921D01*
X0085824Y0127422D02*
X0080567Y0127422D01*
X0080531Y0126924D02*
X0086224Y0126924D01*
X0086723Y0126425D02*
X0081029Y0126425D01*
X0079004Y0126924D02*
X0071600Y0126924D01*
X0071869Y0126425D02*
X0078506Y0126425D01*
X0078010Y0125927D02*
X0071869Y0125927D01*
X0071869Y0125428D02*
X0078010Y0125428D01*
X0078010Y0124930D02*
X0071599Y0124930D01*
X0071685Y0124431D02*
X0078054Y0124431D01*
X0080983Y0123933D02*
X0083984Y0123933D01*
X0079052Y0127422D02*
X0071102Y0127422D01*
X0072070Y0128419D02*
X0063351Y0128419D01*
X0063364Y0128918D02*
X0071571Y0128918D01*
X0071132Y0129416D02*
X0063364Y0129416D01*
X0063336Y0129915D02*
X0071132Y0129915D01*
X0071132Y0130413D02*
X0062838Y0130413D01*
X0062339Y0130912D02*
X0071232Y0130912D01*
X0074049Y0131410D02*
X0075716Y0131410D01*
X0075218Y0130912D02*
X0074547Y0130912D01*
X0074646Y0130413D02*
X0075109Y0130413D01*
X0075109Y0129915D02*
X0074646Y0129915D01*
X0074646Y0129416D02*
X0075109Y0129416D01*
X0075538Y0128918D02*
X0074207Y0128918D01*
X0073709Y0128419D02*
X0076037Y0128419D01*
X0077695Y0128419D02*
X0078055Y0128419D01*
X0078553Y0127921D02*
X0062853Y0127921D01*
X0062354Y0127422D02*
X0069122Y0127422D01*
X0073763Y0132906D02*
X0082310Y0132906D01*
X0081811Y0133404D02*
X0074262Y0133404D01*
X0074620Y0133903D02*
X0081618Y0133903D01*
X0081618Y0134401D02*
X0074620Y0134401D01*
X0074620Y0134900D02*
X0081618Y0134900D01*
X0081962Y0135398D02*
X0074441Y0135398D01*
X0073942Y0135897D02*
X0082461Y0135897D01*
X0084289Y0135897D02*
X0084510Y0135897D01*
X0084939Y0136395D02*
X0027977Y0136395D01*
X0027977Y0135897D02*
X0071784Y0135897D01*
X0071286Y0135398D02*
X0027977Y0135398D01*
X0027977Y0136894D02*
X0085437Y0136894D01*
X0086321Y0137392D02*
X0031916Y0137392D01*
X0031440Y0136916D02*
X0032586Y0138063D01*
X0032586Y0139684D01*
X0031440Y0140831D01*
X0029819Y0140831D01*
X0028672Y0139684D01*
X0028672Y0138063D01*
X0029819Y0136916D01*
X0031440Y0136916D01*
X0032414Y0137891D02*
X0086601Y0137891D01*
X0087100Y0138389D02*
X0055545Y0138389D01*
X0055488Y0138332D02*
X0056635Y0139479D01*
X0056635Y0141100D01*
X0055488Y0142247D01*
X0053867Y0142247D01*
X0052720Y0141100D01*
X0052720Y0139479D01*
X0053867Y0138332D01*
X0055488Y0138332D01*
X0056044Y0138888D02*
X0112187Y0138888D01*
X0112316Y0138759D02*
X0111344Y0139731D01*
X0110818Y0141002D01*
X0110818Y0142377D01*
X0111344Y0143648D01*
X0112316Y0144620D01*
X0113587Y0145146D01*
X0114962Y0145146D01*
X0116233Y0144620D01*
X0117205Y0143648D01*
X0117732Y0142377D01*
X0117732Y0141002D01*
X0117205Y0139731D01*
X0116233Y0138759D01*
X0114962Y0138232D01*
X0113587Y0138232D01*
X0112316Y0138759D01*
X0111689Y0139386D02*
X0056542Y0139386D01*
X0056635Y0139885D02*
X0095514Y0139885D01*
X0095867Y0139532D02*
X0097488Y0139532D01*
X0098635Y0140679D01*
X0098635Y0142300D01*
X0097488Y0143447D01*
X0095867Y0143447D01*
X0094720Y0142300D01*
X0094720Y0140679D01*
X0095867Y0139532D01*
X0095016Y0140384D02*
X0056635Y0140384D01*
X0056635Y0140882D02*
X0094720Y0140882D01*
X0094720Y0141381D02*
X0056354Y0141381D01*
X0055856Y0141879D02*
X0094720Y0141879D01*
X0094798Y0142378D02*
X0027977Y0142378D01*
X0027977Y0142876D02*
X0095296Y0142876D01*
X0095795Y0143375D02*
X0027977Y0143375D01*
X0027977Y0143873D02*
X0111569Y0143873D01*
X0111231Y0143375D02*
X0097560Y0143375D01*
X0098059Y0142876D02*
X0111024Y0142876D01*
X0110818Y0142378D02*
X0098557Y0142378D01*
X0098635Y0141879D02*
X0110818Y0141879D01*
X0110818Y0141381D02*
X0098635Y0141381D01*
X0098635Y0140882D02*
X0110867Y0140882D01*
X0111074Y0140384D02*
X0098339Y0140384D01*
X0097841Y0139885D02*
X0111280Y0139885D01*
X0113208Y0138389D02*
X0089057Y0138389D01*
X0089555Y0137891D02*
X0118949Y0137891D01*
X0118949Y0138389D02*
X0115342Y0138389D01*
X0116362Y0138888D02*
X0119115Y0138888D01*
X0118949Y0138488D02*
X0119476Y0139759D01*
X0120448Y0140731D01*
X0121719Y0141257D01*
X0123094Y0141257D01*
X0124365Y0140731D01*
X0125337Y0139759D01*
X0125863Y0138488D01*
X0125863Y0137113D01*
X0125337Y0135842D01*
X0124365Y0134870D01*
X0123094Y0134343D01*
X0121719Y0134343D01*
X0120448Y0134870D01*
X0119476Y0135842D01*
X0118949Y0137113D01*
X0118949Y0138488D01*
X0119321Y0139386D02*
X0116861Y0139386D01*
X0117269Y0139885D02*
X0119602Y0139885D01*
X0120101Y0140384D02*
X0117476Y0140384D01*
X0117682Y0140882D02*
X0120812Y0140882D01*
X0124000Y0140882D02*
X0137191Y0140882D01*
X0137224Y0140961D02*
X0136698Y0139690D01*
X0136698Y0138315D01*
X0137224Y0137044D01*
X0138196Y0136072D01*
X0139467Y0135545D01*
X0140842Y0135545D01*
X0142113Y0136072D01*
X0143086Y0137044D01*
X0143612Y0138315D01*
X0143612Y0139690D01*
X0143086Y0140961D01*
X0142113Y0141933D01*
X0140842Y0142459D01*
X0139467Y0142459D01*
X0138196Y0141933D01*
X0137224Y0140961D01*
X0137644Y0141381D02*
X0117732Y0141381D01*
X0117732Y0141879D02*
X0138142Y0141879D01*
X0139269Y0142378D02*
X0130301Y0142378D01*
X0130024Y0142263D02*
X0131294Y0142789D01*
X0132267Y0143762D01*
X0132793Y0145032D01*
X0132793Y0146408D01*
X0132267Y0147678D01*
X0131294Y0148651D01*
X0130024Y0149177D01*
X0128648Y0149177D01*
X0127378Y0148651D01*
X0126405Y0147678D01*
X0125879Y0146408D01*
X0125879Y0145032D01*
X0126405Y0143762D01*
X0127378Y0142789D01*
X0128648Y0142263D01*
X0130024Y0142263D01*
X0131381Y0142876D02*
X0144395Y0142876D01*
X0144264Y0143194D02*
X0144790Y0141923D01*
X0145763Y0140951D01*
X0147033Y0140424D01*
X0148408Y0140424D01*
X0149679Y0140951D01*
X0150652Y0141923D01*
X0151178Y0143194D01*
X0151178Y0144569D01*
X0150652Y0145840D01*
X0149679Y0146812D01*
X0148408Y0147339D01*
X0147033Y0147339D01*
X0145763Y0146812D01*
X0144790Y0145840D01*
X0144264Y0144569D01*
X0144264Y0143194D01*
X0144264Y0143375D02*
X0131880Y0143375D01*
X0132313Y0143873D02*
X0144264Y0143873D01*
X0144264Y0144372D02*
X0132519Y0144372D01*
X0132726Y0144870D02*
X0136243Y0144870D01*
X0136146Y0144910D02*
X0137416Y0144384D01*
X0138792Y0144384D01*
X0140062Y0144910D01*
X0141035Y0145883D01*
X0141561Y0147154D01*
X0141561Y0148529D01*
X0141035Y0149800D01*
X0140062Y0150772D01*
X0138792Y0151298D01*
X0137416Y0151298D01*
X0136146Y0150772D01*
X0135173Y0149800D01*
X0134647Y0148529D01*
X0134647Y0147154D01*
X0135173Y0145883D01*
X0136146Y0144910D01*
X0135688Y0145369D02*
X0132793Y0145369D01*
X0132793Y0145867D02*
X0135189Y0145867D01*
X0134973Y0146366D02*
X0132793Y0146366D01*
X0132604Y0146864D02*
X0134767Y0146864D01*
X0134647Y0147363D02*
X0132398Y0147363D01*
X0132084Y0147861D02*
X0134647Y0147861D01*
X0134647Y0148360D02*
X0131585Y0148360D01*
X0130793Y0148858D02*
X0134783Y0148858D01*
X0134990Y0149357D02*
X0123841Y0149357D01*
X0123634Y0149855D02*
X0135229Y0149855D01*
X0135728Y0150354D02*
X0123227Y0150354D01*
X0123569Y0150012D02*
X0122597Y0150984D01*
X0121326Y0151510D01*
X0119951Y0151510D01*
X0118680Y0150984D01*
X0117708Y0150012D01*
X0117182Y0148741D01*
X0117182Y0147366D01*
X0117708Y0146095D01*
X0118680Y0145123D01*
X0119951Y0144596D01*
X0121326Y0144596D01*
X0122597Y0145123D01*
X0123569Y0146095D01*
X0124096Y0147366D01*
X0124096Y0148741D01*
X0123569Y0150012D01*
X0122729Y0150852D02*
X0136340Y0150852D01*
X0136388Y0153294D02*
X0137658Y0153820D01*
X0138631Y0154792D01*
X0139157Y0156063D01*
X0139157Y0157438D01*
X0138631Y0158709D01*
X0137658Y0159682D01*
X0136388Y0160208D01*
X0135012Y0160208D01*
X0133742Y0159682D01*
X0132769Y0158709D01*
X0132243Y0157438D01*
X0132243Y0156063D01*
X0132769Y0154792D01*
X0133742Y0153820D01*
X0135012Y0153294D01*
X0136388Y0153294D01*
X0136511Y0153345D02*
X0141083Y0153345D01*
X0141011Y0153518D02*
X0141537Y0152247D01*
X0142510Y0151274D01*
X0143780Y0150748D01*
X0145156Y0150748D01*
X0146426Y0151274D01*
X0147399Y0152247D01*
X0147925Y0153518D01*
X0147925Y0154893D01*
X0147399Y0156163D01*
X0146426Y0157136D01*
X0145156Y0157662D01*
X0143780Y0157662D01*
X0142510Y0157136D01*
X0141537Y0156163D01*
X0141011Y0154893D01*
X0141011Y0153518D01*
X0141011Y0153843D02*
X0137682Y0153843D01*
X0138180Y0154342D02*
X0141011Y0154342D01*
X0141011Y0154840D02*
X0138651Y0154840D01*
X0138857Y0155339D02*
X0141196Y0155339D01*
X0141402Y0155837D02*
X0139064Y0155837D01*
X0139157Y0156336D02*
X0141710Y0156336D01*
X0142208Y0156834D02*
X0139157Y0156834D01*
X0139157Y0157333D02*
X0142985Y0157333D01*
X0145951Y0157333D02*
X0153422Y0157333D01*
X0153894Y0156861D02*
X0155165Y0156334D01*
X0156540Y0156334D01*
X0157811Y0156861D01*
X0158783Y0157833D01*
X0159310Y0159104D01*
X0159310Y0160479D01*
X0158783Y0161750D01*
X0157811Y0162722D01*
X0156540Y0163248D01*
X0155165Y0163248D01*
X0153894Y0162722D01*
X0152922Y0161750D01*
X0152395Y0160479D01*
X0152395Y0159104D01*
X0152922Y0157833D01*
X0153894Y0156861D01*
X0153957Y0156834D02*
X0146728Y0156834D01*
X0147227Y0156336D02*
X0155161Y0156336D01*
X0156544Y0156336D02*
X0189627Y0156336D01*
X0189053Y0156574D02*
X0192011Y0155348D01*
X0195213Y0155348D01*
X0198172Y0156574D01*
X0200436Y0158838D01*
X0201661Y0161796D01*
X0201661Y0164999D01*
X0200436Y0167957D01*
X0198172Y0170221D01*
X0197942Y0170316D01*
X0198640Y0170316D01*
X0199786Y0171463D01*
X0199786Y0173084D01*
X0198640Y0174231D01*
X0197019Y0174231D01*
X0195872Y0173084D01*
X0195872Y0171463D01*
X0196366Y0170969D01*
X0195213Y0171447D01*
X0192011Y0171447D01*
X0189053Y0170221D01*
X0186788Y0167957D01*
X0185563Y0164999D01*
X0185563Y0161796D01*
X0186788Y0158838D01*
X0189053Y0156574D01*
X0188792Y0156834D02*
X0157748Y0156834D01*
X0158283Y0157333D02*
X0188293Y0157333D01*
X0187795Y0157831D02*
X0158782Y0157831D01*
X0158989Y0158330D02*
X0187296Y0158330D01*
X0186798Y0158828D02*
X0159196Y0158828D01*
X0159310Y0159327D02*
X0186586Y0159327D01*
X0186379Y0159825D02*
X0159310Y0159825D01*
X0159310Y0160324D02*
X0186173Y0160324D01*
X0185966Y0160822D02*
X0159167Y0160822D01*
X0158961Y0161321D02*
X0185760Y0161321D01*
X0185563Y0161820D02*
X0158713Y0161820D01*
X0158215Y0162318D02*
X0185563Y0162318D01*
X0185563Y0162817D02*
X0157583Y0162817D01*
X0157067Y0163832D02*
X0158688Y0163832D01*
X0159835Y0164979D01*
X0159835Y0166600D01*
X0158688Y0167747D01*
X0157067Y0167747D01*
X0155920Y0166600D01*
X0155920Y0164979D01*
X0157067Y0163832D01*
X0156587Y0164312D02*
X0149977Y0164312D01*
X0150183Y0163814D02*
X0185563Y0163814D01*
X0185563Y0164312D02*
X0159168Y0164312D01*
X0159666Y0164811D02*
X0185563Y0164811D01*
X0185691Y0165309D02*
X0159835Y0165309D01*
X0159835Y0165808D02*
X0185898Y0165808D01*
X0186104Y0166306D02*
X0159835Y0166306D01*
X0159630Y0166805D02*
X0186311Y0166805D01*
X0186517Y0167303D02*
X0185559Y0167303D01*
X0185088Y0166832D02*
X0186235Y0167979D01*
X0186235Y0169600D01*
X0185088Y0170747D01*
X0183467Y0170747D01*
X0182320Y0169600D01*
X0182320Y0167979D01*
X0183467Y0166832D01*
X0185088Y0166832D01*
X0186057Y0167802D02*
X0186724Y0167802D01*
X0187131Y0168300D02*
X0186235Y0168300D01*
X0186235Y0168799D02*
X0187630Y0168799D01*
X0188128Y0169297D02*
X0186235Y0169297D01*
X0186039Y0169796D02*
X0188627Y0169796D01*
X0189228Y0170294D02*
X0185540Y0170294D01*
X0183014Y0170294D02*
X0157311Y0170294D01*
X0157311Y0170404D02*
X0157170Y0171109D01*
X0156895Y0171773D01*
X0156496Y0172371D01*
X0156418Y0172449D01*
X0154014Y0170044D01*
X0156418Y0167640D01*
X0156496Y0167718D01*
X0156895Y0168315D01*
X0157170Y0168980D01*
X0157311Y0169685D01*
X0157311Y0170404D01*
X0157233Y0170793D02*
X0190432Y0170793D01*
X0191635Y0171291D02*
X0157095Y0171291D01*
X0156884Y0171790D02*
X0195872Y0171790D01*
X0195872Y0172288D02*
X0156551Y0172288D01*
X0156258Y0172288D02*
X0155551Y0172288D01*
X0155759Y0171790D02*
X0155052Y0171790D01*
X0155261Y0171291D02*
X0154554Y0171291D01*
X0154762Y0170793D02*
X0154055Y0170793D01*
X0154264Y0170294D02*
X0153764Y0170294D01*
X0153661Y0170398D02*
X0156065Y0172802D01*
X0155987Y0172880D01*
X0155389Y0173279D01*
X0154725Y0173554D01*
X0154020Y0173694D01*
X0153301Y0173694D01*
X0152596Y0173554D01*
X0151932Y0173279D01*
X0151334Y0172880D01*
X0151256Y0172802D01*
X0153660Y0170398D01*
X0153307Y0170044D01*
X0153660Y0169691D01*
X0151256Y0167287D01*
X0151334Y0167209D01*
X0151932Y0166810D01*
X0152596Y0166535D01*
X0153301Y0166394D01*
X0154020Y0166394D01*
X0154725Y0166535D01*
X0155389Y0166810D01*
X0155987Y0167209D01*
X0156065Y0167287D01*
X0153661Y0169691D01*
X0154014Y0170044D01*
X0153661Y0170398D01*
X0153557Y0170294D02*
X0153057Y0170294D01*
X0153307Y0170044D02*
X0150903Y0172449D01*
X0150825Y0172371D01*
X0150426Y0171773D01*
X0150151Y0171109D01*
X0150011Y0170404D01*
X0150011Y0169685D01*
X0150151Y0168980D01*
X0150426Y0168315D01*
X0150825Y0167718D01*
X0150903Y0167640D01*
X0153307Y0170044D01*
X0153058Y0169796D02*
X0153556Y0169796D01*
X0153765Y0169796D02*
X0154263Y0169796D01*
X0154054Y0169297D02*
X0154761Y0169297D01*
X0154553Y0168799D02*
X0155260Y0168799D01*
X0155051Y0168300D02*
X0155758Y0168300D01*
X0155550Y0167802D02*
X0156257Y0167802D01*
X0156552Y0167802D02*
X0182498Y0167802D01*
X0182320Y0168300D02*
X0156885Y0168300D01*
X0157095Y0168799D02*
X0182320Y0168799D01*
X0182320Y0169297D02*
X0157233Y0169297D01*
X0157311Y0169796D02*
X0182516Y0169796D01*
X0182996Y0167303D02*
X0159132Y0167303D01*
X0156623Y0167303D02*
X0156048Y0167303D01*
X0156125Y0166805D02*
X0155377Y0166805D01*
X0155920Y0166306D02*
X0148060Y0166306D01*
X0148689Y0166046D02*
X0147419Y0166572D01*
X0146043Y0166572D01*
X0144773Y0166046D01*
X0143800Y0165073D01*
X0143274Y0163802D01*
X0143274Y0162427D01*
X0143800Y0161156D01*
X0144773Y0160184D01*
X0146043Y0159658D01*
X0147419Y0159658D01*
X0148689Y0160184D01*
X0149662Y0161156D01*
X0150188Y0162427D01*
X0150188Y0163802D01*
X0149662Y0165073D01*
X0148689Y0166046D01*
X0148927Y0165808D02*
X0155920Y0165808D01*
X0155920Y0165309D02*
X0149426Y0165309D01*
X0149770Y0164811D02*
X0156089Y0164811D01*
X0154122Y0162817D02*
X0150188Y0162817D01*
X0150188Y0163315D02*
X0185563Y0163315D01*
X0190830Y0155837D02*
X0147534Y0155837D01*
X0147740Y0155339D02*
X0242934Y0155339D01*
X0243073Y0155002D02*
X0244284Y0153791D01*
X0245867Y0153136D01*
X0247579Y0153136D01*
X0249162Y0153791D01*
X0250373Y0155002D01*
X0251028Y0156585D01*
X0251028Y0158297D01*
X0250373Y0159880D01*
X0249162Y0161091D01*
X0247579Y0161746D01*
X0245867Y0161746D01*
X0244284Y0161091D01*
X0243073Y0159880D01*
X0242418Y0158297D01*
X0242418Y0156585D01*
X0243073Y0155002D01*
X0243235Y0154840D02*
X0147925Y0154840D01*
X0147925Y0154342D02*
X0152044Y0154342D01*
X0152549Y0154551D02*
X0151278Y0154025D01*
X0150305Y0153052D01*
X0149779Y0151782D01*
X0149779Y0150406D01*
X0150305Y0149136D01*
X0151278Y0148163D01*
X0152549Y0147637D01*
X0153924Y0147637D01*
X0155195Y0148163D01*
X0156167Y0149136D01*
X0156693Y0150406D01*
X0156693Y0151782D01*
X0156167Y0153052D01*
X0155195Y0154025D01*
X0153924Y0154551D01*
X0152549Y0154551D01*
X0151097Y0153843D02*
X0147925Y0153843D01*
X0147854Y0153345D02*
X0150598Y0153345D01*
X0150220Y0152846D02*
X0147647Y0152846D01*
X0147441Y0152348D02*
X0150014Y0152348D01*
X0149807Y0151849D02*
X0147001Y0151849D01*
X0146503Y0151351D02*
X0149779Y0151351D01*
X0149779Y0150852D02*
X0145407Y0150852D01*
X0143529Y0150852D02*
X0139869Y0150852D01*
X0140481Y0150354D02*
X0149801Y0150354D01*
X0150007Y0149855D02*
X0140979Y0149855D01*
X0141218Y0149357D02*
X0150214Y0149357D01*
X0150583Y0148858D02*
X0141425Y0148858D01*
X0141561Y0148360D02*
X0151081Y0148360D01*
X0152007Y0147861D02*
X0141561Y0147861D01*
X0141561Y0147363D02*
X0244409Y0147363D01*
X0244284Y0147311D02*
X0243073Y0146100D01*
X0242418Y0144518D01*
X0242418Y0142805D01*
X0243073Y0141223D01*
X0244284Y0140012D01*
X0245867Y0139356D01*
X0247579Y0139356D01*
X0249162Y0140012D01*
X0250373Y0141223D01*
X0251028Y0142805D01*
X0251028Y0144518D01*
X0250373Y0146100D01*
X0249162Y0147311D01*
X0247579Y0147966D01*
X0245867Y0147966D01*
X0244284Y0147311D01*
X0243838Y0146864D02*
X0149554Y0146864D01*
X0150126Y0146366D02*
X0243339Y0146366D01*
X0242977Y0145867D02*
X0150624Y0145867D01*
X0150847Y0145369D02*
X0242770Y0145369D01*
X0242564Y0144870D02*
X0151053Y0144870D01*
X0151178Y0144372D02*
X0242418Y0144372D01*
X0242418Y0143873D02*
X0151178Y0143873D01*
X0151178Y0143375D02*
X0242418Y0143375D01*
X0242418Y0142876D02*
X0151046Y0142876D01*
X0150840Y0142378D02*
X0242595Y0142378D01*
X0242801Y0141879D02*
X0150607Y0141879D01*
X0150109Y0141381D02*
X0243008Y0141381D01*
X0243414Y0140882D02*
X0149513Y0140882D01*
X0145928Y0140882D02*
X0143118Y0140882D01*
X0143325Y0140384D02*
X0243913Y0140384D01*
X0244590Y0139885D02*
X0143531Y0139885D01*
X0143612Y0139386D02*
X0245794Y0139386D01*
X0247652Y0139386D02*
X0261415Y0139386D01*
X0261414Y0138888D02*
X0143612Y0138888D01*
X0143612Y0138389D02*
X0261414Y0138389D01*
X0261413Y0137891D02*
X0143436Y0137891D01*
X0143230Y0137392D02*
X0261413Y0137392D01*
X0261413Y0136894D02*
X0142935Y0136894D01*
X0142437Y0136395D02*
X0261412Y0136395D01*
X0261412Y0135897D02*
X0141691Y0135897D01*
X0138618Y0135897D02*
X0134721Y0135897D01*
X0134844Y0136193D02*
X0134317Y0134923D01*
X0133345Y0133950D01*
X0132074Y0133424D01*
X0130699Y0133424D01*
X0129428Y0133950D01*
X0128456Y0134923D01*
X0127930Y0136193D01*
X0127930Y0137569D01*
X0128456Y0138839D01*
X0129428Y0139812D01*
X0130699Y0140338D01*
X0132074Y0140338D01*
X0133345Y0139812D01*
X0134317Y0138839D01*
X0134844Y0137569D01*
X0134844Y0136193D01*
X0134844Y0136395D02*
X0137873Y0136395D01*
X0137374Y0136894D02*
X0134844Y0136894D01*
X0134844Y0137392D02*
X0137080Y0137392D01*
X0136873Y0137891D02*
X0134710Y0137891D01*
X0134504Y0138389D02*
X0136698Y0138389D01*
X0136698Y0138888D02*
X0134269Y0138888D01*
X0133770Y0139386D02*
X0136698Y0139386D01*
X0136778Y0139885D02*
X0133168Y0139885D01*
X0129605Y0139885D02*
X0125211Y0139885D01*
X0125491Y0139386D02*
X0129003Y0139386D01*
X0128504Y0138888D02*
X0125698Y0138888D01*
X0125863Y0138389D02*
X0128270Y0138389D01*
X0128063Y0137891D02*
X0125863Y0137891D01*
X0125863Y0137392D02*
X0127930Y0137392D01*
X0127930Y0136894D02*
X0125773Y0136894D01*
X0125566Y0136395D02*
X0127930Y0136395D01*
X0128052Y0135897D02*
X0125360Y0135897D01*
X0124894Y0135398D02*
X0128259Y0135398D01*
X0128479Y0134900D02*
X0124395Y0134900D01*
X0123234Y0134401D02*
X0128977Y0134401D01*
X0129543Y0133903D02*
X0105235Y0133903D01*
X0105235Y0134401D02*
X0121578Y0134401D01*
X0120418Y0134900D02*
X0104835Y0134900D01*
X0104336Y0135398D02*
X0119919Y0135398D01*
X0119453Y0135897D02*
X0089577Y0135897D01*
X0089835Y0136395D02*
X0119246Y0136395D01*
X0119040Y0136894D02*
X0089835Y0136894D01*
X0089835Y0137392D02*
X0118949Y0137392D01*
X0117732Y0142378D02*
X0128371Y0142378D01*
X0127291Y0142876D02*
X0117525Y0142876D01*
X0117319Y0143375D02*
X0126792Y0143375D01*
X0126359Y0143873D02*
X0116980Y0143873D01*
X0116482Y0144372D02*
X0126153Y0144372D01*
X0125946Y0144870D02*
X0121987Y0144870D01*
X0122843Y0145369D02*
X0125879Y0145369D01*
X0125879Y0145867D02*
X0123341Y0145867D01*
X0123681Y0146366D02*
X0125879Y0146366D01*
X0126068Y0146864D02*
X0123888Y0146864D01*
X0124094Y0147363D02*
X0126275Y0147363D01*
X0126588Y0147861D02*
X0124096Y0147861D01*
X0124096Y0148360D02*
X0127087Y0148360D01*
X0127879Y0148858D02*
X0124047Y0148858D01*
X0125044Y0151487D02*
X0126315Y0150960D01*
X0127690Y0150960D01*
X0128961Y0151487D01*
X0129933Y0152459D01*
X0130460Y0153730D01*
X0130460Y0155105D01*
X0129933Y0156376D01*
X0128961Y0157348D01*
X0127690Y0157874D01*
X0126315Y0157874D01*
X0125044Y0157348D01*
X0124072Y0156376D01*
X0123546Y0155105D01*
X0123546Y0153730D01*
X0124072Y0152459D01*
X0125044Y0151487D01*
X0125372Y0151351D02*
X0121712Y0151351D01*
X0119565Y0151351D02*
X0115905Y0151351D01*
X0116233Y0151487D02*
X0117205Y0152459D01*
X0117732Y0153730D01*
X0117732Y0155105D01*
X0117205Y0156376D01*
X0116233Y0157348D01*
X0114962Y0157874D01*
X0113587Y0157874D01*
X0112316Y0157348D01*
X0111344Y0156376D01*
X0110818Y0155105D01*
X0110818Y0153730D01*
X0111344Y0152459D01*
X0112316Y0151487D01*
X0113587Y0150960D01*
X0114962Y0150960D01*
X0116233Y0151487D01*
X0116596Y0151849D02*
X0124682Y0151849D01*
X0124183Y0152348D02*
X0117094Y0152348D01*
X0117366Y0152846D02*
X0123911Y0152846D01*
X0123705Y0153345D02*
X0117572Y0153345D01*
X0117732Y0153843D02*
X0123546Y0153843D01*
X0123546Y0154342D02*
X0117732Y0154342D01*
X0117732Y0154840D02*
X0123546Y0154840D01*
X0123642Y0155339D02*
X0117635Y0155339D01*
X0117428Y0155837D02*
X0123849Y0155837D01*
X0124055Y0156336D02*
X0117222Y0156336D01*
X0116747Y0156834D02*
X0124531Y0156834D01*
X0125029Y0157333D02*
X0121347Y0157333D01*
X0121326Y0157324D02*
X0122597Y0157851D01*
X0123569Y0158823D01*
X0124096Y0160094D01*
X0124096Y0161469D01*
X0123569Y0162740D01*
X0122597Y0163712D01*
X0121326Y0164238D01*
X0119951Y0164238D01*
X0118680Y0163712D01*
X0117708Y0162740D01*
X0117182Y0161469D01*
X0117182Y0160094D01*
X0117708Y0158823D01*
X0118680Y0157851D01*
X0119951Y0157324D01*
X0121326Y0157324D01*
X0122551Y0157831D02*
X0126211Y0157831D01*
X0127794Y0157831D02*
X0132406Y0157831D01*
X0132243Y0157333D02*
X0128976Y0157333D01*
X0129475Y0156834D02*
X0132243Y0156834D01*
X0132243Y0156336D02*
X0129950Y0156336D01*
X0130156Y0155837D02*
X0132336Y0155837D01*
X0132543Y0155339D02*
X0130363Y0155339D01*
X0130460Y0154840D02*
X0132749Y0154840D01*
X0133220Y0154342D02*
X0130460Y0154342D01*
X0130460Y0153843D02*
X0133718Y0153843D01*
X0134889Y0153345D02*
X0130300Y0153345D01*
X0130094Y0152846D02*
X0141289Y0152846D01*
X0141496Y0152348D02*
X0129822Y0152348D01*
X0129324Y0151849D02*
X0141935Y0151849D01*
X0142434Y0151351D02*
X0128633Y0151351D01*
X0132612Y0158330D02*
X0123076Y0158330D01*
X0123572Y0158828D02*
X0132889Y0158828D01*
X0133387Y0159327D02*
X0123778Y0159327D01*
X0123985Y0159825D02*
X0128243Y0159825D01*
X0128648Y0159658D02*
X0130024Y0159658D01*
X0131294Y0160184D01*
X0132267Y0161156D01*
X0132793Y0162427D01*
X0132793Y0163802D01*
X0132267Y0165073D01*
X0131294Y0166046D01*
X0130024Y0166572D01*
X0128648Y0166572D01*
X0127378Y0166046D01*
X0126405Y0165073D01*
X0125879Y0163802D01*
X0125879Y0162427D01*
X0126405Y0161156D01*
X0127378Y0160184D01*
X0128648Y0159658D01*
X0127238Y0160324D02*
X0124096Y0160324D01*
X0124096Y0160822D02*
X0126739Y0160822D01*
X0126337Y0161321D02*
X0124096Y0161321D01*
X0123951Y0161820D02*
X0126131Y0161820D01*
X0125924Y0162318D02*
X0123744Y0162318D01*
X0123492Y0162817D02*
X0125879Y0162817D01*
X0125879Y0163315D02*
X0122994Y0163315D01*
X0122352Y0163814D02*
X0125884Y0163814D01*
X0126090Y0164312D02*
X0115187Y0164312D01*
X0114981Y0164811D02*
X0126297Y0164811D01*
X0126641Y0165309D02*
X0114636Y0165309D01*
X0114872Y0165073D02*
X0113900Y0166046D01*
X0112629Y0166572D01*
X0111254Y0166572D01*
X0109983Y0166046D01*
X0109010Y0165073D01*
X0108484Y0163802D01*
X0108484Y0162427D01*
X0109010Y0161156D01*
X0109983Y0160184D01*
X0111254Y0159658D01*
X0112629Y0159658D01*
X0113900Y0160184D01*
X0114872Y0161156D01*
X0115398Y0162427D01*
X0115398Y0163802D01*
X0114872Y0165073D01*
X0114137Y0165808D02*
X0127140Y0165808D01*
X0128007Y0166306D02*
X0124347Y0166306D01*
X0124930Y0166548D02*
X0125903Y0167520D01*
X0126429Y0168791D01*
X0126429Y0170166D01*
X0125903Y0171437D01*
X0124930Y0172409D01*
X0123660Y0172936D01*
X0122284Y0172936D01*
X0121014Y0172409D01*
X0120041Y0171437D01*
X0119515Y0170166D01*
X0119515Y0168791D01*
X0120041Y0167520D01*
X0121014Y0166548D01*
X0122284Y0166022D01*
X0123660Y0166022D01*
X0124930Y0166548D01*
X0125187Y0166805D02*
X0134853Y0166805D01*
X0135060Y0167303D02*
X0125686Y0167303D01*
X0126019Y0167802D02*
X0135498Y0167802D01*
X0135103Y0167406D02*
X0134576Y0166136D01*
X0134576Y0164761D01*
X0135103Y0163490D01*
X0136075Y0162517D01*
X0137346Y0161991D01*
X0138721Y0161991D01*
X0139992Y0162517D01*
X0140964Y0163490D01*
X0141491Y0164761D01*
X0141491Y0166136D01*
X0140964Y0167406D01*
X0139992Y0168379D01*
X0138721Y0168905D01*
X0137346Y0168905D01*
X0136075Y0168379D01*
X0135103Y0167406D01*
X0134647Y0166306D02*
X0130665Y0166306D01*
X0131532Y0165808D02*
X0134576Y0165808D01*
X0134576Y0165309D02*
X0132031Y0165309D01*
X0132376Y0164811D02*
X0134576Y0164811D01*
X0134762Y0164312D02*
X0132582Y0164312D01*
X0132789Y0163814D02*
X0134969Y0163814D01*
X0135278Y0163315D02*
X0132793Y0163315D01*
X0132793Y0162817D02*
X0135776Y0162817D01*
X0136557Y0162318D02*
X0132748Y0162318D01*
X0132541Y0161820D02*
X0143525Y0161820D01*
X0143319Y0162318D02*
X0139510Y0162318D01*
X0140291Y0162817D02*
X0143274Y0162817D01*
X0143274Y0163315D02*
X0140789Y0163315D01*
X0141098Y0163814D02*
X0143278Y0163814D01*
X0143485Y0164312D02*
X0141305Y0164312D01*
X0141491Y0164811D02*
X0143691Y0164811D01*
X0144036Y0165309D02*
X0141491Y0165309D01*
X0141491Y0165808D02*
X0144535Y0165808D01*
X0145402Y0166306D02*
X0141420Y0166306D01*
X0141214Y0166805D02*
X0151944Y0166805D01*
X0151273Y0167303D02*
X0141007Y0167303D01*
X0140569Y0167802D02*
X0150769Y0167802D01*
X0151064Y0167802D02*
X0151771Y0167802D01*
X0151563Y0168300D02*
X0152270Y0168300D01*
X0152061Y0168799D02*
X0152768Y0168799D01*
X0152560Y0169297D02*
X0153267Y0169297D01*
X0153266Y0170793D02*
X0152559Y0170793D01*
X0152767Y0171291D02*
X0152060Y0171291D01*
X0152269Y0171790D02*
X0151562Y0171790D01*
X0151770Y0172288D02*
X0151063Y0172288D01*
X0150770Y0172288D02*
X0148420Y0172288D01*
X0148420Y0171790D02*
X0150437Y0171790D01*
X0150226Y0171291D02*
X0148255Y0171291D01*
X0148420Y0171690D02*
X0147894Y0170420D01*
X0146921Y0169447D01*
X0145651Y0168921D01*
X0144275Y0168921D01*
X0143005Y0169447D01*
X0142032Y0170420D01*
X0141506Y0171690D01*
X0141506Y0173066D01*
X0142032Y0174336D01*
X0143005Y0175309D01*
X0144275Y0175835D01*
X0145651Y0175835D01*
X0146921Y0175309D01*
X0147894Y0174336D01*
X0148420Y0173066D01*
X0148420Y0171690D01*
X0148048Y0170793D02*
X0150088Y0170793D01*
X0150011Y0170294D02*
X0147769Y0170294D01*
X0147270Y0169796D02*
X0150011Y0169796D01*
X0150088Y0169297D02*
X0146559Y0169297D01*
X0143367Y0169297D02*
X0134044Y0169297D01*
X0133628Y0168881D02*
X0134600Y0169854D01*
X0135127Y0171124D01*
X0135127Y0172500D01*
X0134600Y0173770D01*
X0133628Y0174743D01*
X0132357Y0175269D01*
X0130982Y0175269D01*
X0129711Y0174743D01*
X0128739Y0173770D01*
X0128212Y0172500D01*
X0128212Y0171124D01*
X0128739Y0169854D01*
X0129711Y0168881D01*
X0130982Y0168355D01*
X0132357Y0168355D01*
X0133628Y0168881D01*
X0133428Y0168799D02*
X0137088Y0168799D01*
X0135996Y0168300D02*
X0126226Y0168300D01*
X0126429Y0168799D02*
X0129911Y0168799D01*
X0129295Y0169297D02*
X0126429Y0169297D01*
X0126429Y0169796D02*
X0128797Y0169796D01*
X0128556Y0170294D02*
X0126376Y0170294D01*
X0126170Y0170793D02*
X0128350Y0170793D01*
X0128212Y0171291D02*
X0125963Y0171291D01*
X0125550Y0171790D02*
X0128212Y0171790D01*
X0128212Y0172288D02*
X0125052Y0172288D01*
X0124020Y0172787D02*
X0128331Y0172787D01*
X0128538Y0173285D02*
X0117224Y0173285D01*
X0117430Y0172787D02*
X0121925Y0172787D01*
X0120893Y0172288D02*
X0117520Y0172288D01*
X0117520Y0172571D02*
X0116993Y0173841D01*
X0116021Y0174814D01*
X0114750Y0175340D01*
X0113375Y0175340D01*
X0112104Y0174814D01*
X0111132Y0173841D01*
X0110605Y0172571D01*
X0110605Y0171195D01*
X0111132Y0169925D01*
X0112104Y0168952D01*
X0113375Y0168426D01*
X0114750Y0168426D01*
X0116021Y0168952D01*
X0116993Y0169925D01*
X0117520Y0171195D01*
X0117520Y0172571D01*
X0117520Y0171790D02*
X0120394Y0171790D01*
X0119981Y0171291D02*
X0117520Y0171291D01*
X0117353Y0170793D02*
X0119774Y0170793D01*
X0119568Y0170294D02*
X0117146Y0170294D01*
X0116864Y0169796D02*
X0119515Y0169796D01*
X0119515Y0169297D02*
X0116366Y0169297D01*
X0115650Y0168799D02*
X0119515Y0168799D01*
X0119718Y0168300D02*
X0104568Y0168300D01*
X0105061Y0168096D02*
X0103790Y0168622D01*
X0102415Y0168622D01*
X0101144Y0168096D01*
X0100172Y0167124D01*
X0099645Y0165853D01*
X0099645Y0164478D01*
X0100172Y0163207D01*
X0101144Y0162235D01*
X0102415Y0161708D01*
X0103790Y0161708D01*
X0105061Y0162235D01*
X0106033Y0163207D01*
X0106559Y0164478D01*
X0106559Y0165853D01*
X0106033Y0167124D01*
X0105061Y0168096D01*
X0105355Y0167802D02*
X0119925Y0167802D01*
X0120259Y0167303D02*
X0105854Y0167303D01*
X0106165Y0166805D02*
X0120757Y0166805D01*
X0121598Y0166306D02*
X0113270Y0166306D01*
X0112475Y0168799D02*
X0085054Y0168799D01*
X0085135Y0168879D02*
X0083988Y0167732D01*
X0082367Y0167732D01*
X0081220Y0168879D01*
X0081220Y0170500D01*
X0082367Y0171647D01*
X0083988Y0171647D01*
X0085135Y0170500D01*
X0085135Y0168879D01*
X0085135Y0169297D02*
X0111759Y0169297D01*
X0111261Y0169796D02*
X0085135Y0169796D01*
X0085135Y0170294D02*
X0110979Y0170294D01*
X0110772Y0170793D02*
X0106675Y0170793D01*
X0107182Y0171003D02*
X0105911Y0170476D01*
X0104536Y0170476D01*
X0103265Y0171003D01*
X0102293Y0171975D01*
X0101767Y0173246D01*
X0101767Y0174621D01*
X0102293Y0175892D01*
X0103265Y0176864D01*
X0104536Y0177391D01*
X0105911Y0177391D01*
X0107182Y0176864D01*
X0108154Y0175892D01*
X0108681Y0174621D01*
X0108681Y0173246D01*
X0108154Y0171975D01*
X0107182Y0171003D01*
X0107470Y0171291D02*
X0110605Y0171291D01*
X0110605Y0171790D02*
X0107969Y0171790D01*
X0108284Y0172288D02*
X0110605Y0172288D01*
X0110695Y0172787D02*
X0108491Y0172787D01*
X0108681Y0173285D02*
X0110902Y0173285D01*
X0111108Y0173784D02*
X0108681Y0173784D01*
X0108681Y0174282D02*
X0111573Y0174282D01*
X0112071Y0174781D02*
X0108615Y0174781D01*
X0108408Y0175279D02*
X0113228Y0175279D01*
X0114897Y0175279D02*
X0118557Y0175279D01*
X0118468Y0175316D02*
X0119739Y0174790D01*
X0121114Y0174790D01*
X0122385Y0175316D01*
X0123357Y0176289D01*
X0123884Y0177559D01*
X0123884Y0178934D01*
X0123357Y0180205D01*
X0122385Y0181178D01*
X0121114Y0181704D01*
X0119739Y0181704D01*
X0118468Y0181178D01*
X0117496Y0180205D01*
X0116969Y0178934D01*
X0116969Y0177559D01*
X0117496Y0176289D01*
X0118468Y0175316D01*
X0118006Y0175778D02*
X0108202Y0175778D01*
X0107770Y0176276D02*
X0117508Y0176276D01*
X0117294Y0176775D02*
X0107271Y0176775D01*
X0106194Y0177273D02*
X0117088Y0177273D01*
X0116969Y0177772D02*
X0027977Y0177772D01*
X0027977Y0178270D02*
X0108865Y0178270D01*
X0109415Y0178042D02*
X0110790Y0178042D01*
X0112061Y0178569D01*
X0113034Y0179541D01*
X0113560Y0180812D01*
X0113560Y0182187D01*
X0113034Y0183458D01*
X0112061Y0184430D01*
X0110790Y0184957D01*
X0109415Y0184957D01*
X0108144Y0184430D01*
X0107172Y0183458D01*
X0106646Y0182187D01*
X0106646Y0180812D01*
X0107172Y0179541D01*
X0108144Y0178569D01*
X0109415Y0178042D01*
X0107944Y0178769D02*
X0027977Y0178769D01*
X0027977Y0179267D02*
X0107446Y0179267D01*
X0107079Y0179766D02*
X0027977Y0179766D01*
X0027977Y0180264D02*
X0106872Y0180264D01*
X0106666Y0180763D02*
X0027977Y0180763D01*
X0027977Y0181261D02*
X0106646Y0181261D01*
X0106646Y0181760D02*
X0027977Y0181760D01*
X0027977Y0182258D02*
X0106675Y0182258D01*
X0106882Y0182757D02*
X0027977Y0182757D01*
X0027977Y0183255D02*
X0107088Y0183255D01*
X0107468Y0183754D02*
X0027977Y0183754D01*
X0027977Y0184253D02*
X0107967Y0184253D01*
X0108919Y0184751D02*
X0027977Y0184751D01*
X0027977Y0185250D02*
X0114305Y0185250D01*
X0114384Y0185057D02*
X0115357Y0184084D01*
X0116628Y0183558D01*
X0118003Y0183558D01*
X0119274Y0184084D01*
X0120246Y0185057D01*
X0120772Y0186327D01*
X0120772Y0187703D01*
X0120246Y0188973D01*
X0119274Y0189946D01*
X0118003Y0190472D01*
X0116628Y0190472D01*
X0115357Y0189946D01*
X0114384Y0188973D01*
X0113858Y0187703D01*
X0113858Y0186327D01*
X0114384Y0185057D01*
X0114690Y0184751D02*
X0111287Y0184751D01*
X0112239Y0184253D02*
X0115189Y0184253D01*
X0116154Y0183754D02*
X0112737Y0183754D01*
X0113117Y0183255D02*
X0127193Y0183255D01*
X0127378Y0183440D02*
X0126405Y0182468D01*
X0125879Y0181197D01*
X0125879Y0179822D01*
X0126405Y0178551D01*
X0127378Y0177579D01*
X0128648Y0177052D01*
X0130024Y0177052D01*
X0131294Y0177579D01*
X0132267Y0178551D01*
X0132793Y0179822D01*
X0132793Y0181197D01*
X0132267Y0182468D01*
X0131294Y0183440D01*
X0130024Y0183967D01*
X0128648Y0183967D01*
X0127378Y0183440D01*
X0128135Y0183754D02*
X0118476Y0183754D01*
X0119442Y0184253D02*
X0134925Y0184253D01*
X0134307Y0184508D02*
X0135578Y0183982D01*
X0136953Y0183982D01*
X0138224Y0184508D01*
X0139196Y0185481D01*
X0139723Y0186752D01*
X0139723Y0188127D01*
X0139196Y0189398D01*
X0138224Y0190370D01*
X0136953Y0190896D01*
X0135578Y0190896D01*
X0134307Y0190370D01*
X0133335Y0189398D01*
X0132809Y0188127D01*
X0132809Y0186752D01*
X0133335Y0185481D01*
X0134307Y0184508D01*
X0134065Y0184751D02*
X0119940Y0184751D01*
X0120326Y0185250D02*
X0133566Y0185250D01*
X0133224Y0185748D02*
X0120532Y0185748D01*
X0120739Y0186247D02*
X0125150Y0186247D01*
X0125325Y0186174D02*
X0126700Y0186174D01*
X0127971Y0186700D01*
X0128943Y0187673D01*
X0129470Y0188944D01*
X0129470Y0190319D01*
X0128943Y0191590D01*
X0127971Y0192562D01*
X0126700Y0193088D01*
X0125325Y0193088D01*
X0124054Y0192562D01*
X0123082Y0191590D01*
X0122556Y0190319D01*
X0122556Y0188944D01*
X0123082Y0187673D01*
X0124054Y0186700D01*
X0125325Y0186174D01*
X0124010Y0186745D02*
X0120772Y0186745D01*
X0120772Y0187244D02*
X0123511Y0187244D01*
X0123053Y0187742D02*
X0120756Y0187742D01*
X0120549Y0188241D02*
X0122847Y0188241D01*
X0122640Y0188739D02*
X0120343Y0188739D01*
X0119982Y0189238D02*
X0122556Y0189238D01*
X0122556Y0189736D02*
X0119483Y0189736D01*
X0118576Y0190235D02*
X0122556Y0190235D01*
X0122727Y0190733D02*
X0080635Y0190733D01*
X0080635Y0190479D02*
X0079488Y0189332D01*
X0077867Y0189332D01*
X0076720Y0190479D01*
X0076720Y0192100D01*
X0077867Y0193247D01*
X0079488Y0193247D01*
X0080635Y0192100D01*
X0080635Y0190479D01*
X0080390Y0190235D02*
X0116054Y0190235D01*
X0115147Y0189736D02*
X0079892Y0189736D01*
X0080635Y0191232D02*
X0122934Y0191232D01*
X0123223Y0191730D02*
X0080635Y0191730D01*
X0080506Y0192229D02*
X0123721Y0192229D01*
X0124453Y0192727D02*
X0080007Y0192727D01*
X0079509Y0193226D02*
X0164370Y0193226D01*
X0164370Y0193075D02*
X0165663Y0191782D01*
X0167492Y0191782D01*
X0168227Y0192518D01*
X0168963Y0191782D01*
X0170792Y0191782D01*
X0172085Y0193075D01*
X0172085Y0194904D01*
X0171349Y0195639D01*
X0172085Y0196375D01*
X0172085Y0198204D01*
X0171349Y0198939D01*
X0172085Y0199675D01*
X0172085Y0201504D01*
X0170792Y0202797D01*
X0168963Y0202797D01*
X0168227Y0202061D01*
X0167492Y0202797D01*
X0165663Y0202797D01*
X0164370Y0201504D01*
X0164370Y0199675D01*
X0165106Y0198939D01*
X0164370Y0198204D01*
X0164370Y0196375D01*
X0165106Y0195639D01*
X0164370Y0194904D01*
X0164370Y0193075D01*
X0164718Y0192727D02*
X0127572Y0192727D01*
X0128304Y0192229D02*
X0165217Y0192229D01*
X0164370Y0193724D02*
X0027977Y0193724D01*
X0027977Y0193226D02*
X0063446Y0193226D01*
X0063467Y0193247D02*
X0062320Y0192100D01*
X0062320Y0190479D01*
X0063467Y0189332D01*
X0065088Y0189332D01*
X0066235Y0190479D01*
X0066235Y0192100D01*
X0065088Y0193247D01*
X0063467Y0193247D01*
X0062947Y0192727D02*
X0027977Y0192727D01*
X0027977Y0192229D02*
X0062449Y0192229D01*
X0062320Y0191730D02*
X0027977Y0191730D01*
X0027977Y0191232D02*
X0062320Y0191232D01*
X0062320Y0190733D02*
X0027977Y0190733D01*
X0027977Y0190235D02*
X0062565Y0190235D01*
X0063063Y0189736D02*
X0027977Y0189736D01*
X0027977Y0189238D02*
X0114649Y0189238D01*
X0114287Y0188739D02*
X0027977Y0188739D01*
X0027977Y0188241D02*
X0114081Y0188241D01*
X0113874Y0187742D02*
X0027977Y0187742D01*
X0027977Y0187244D02*
X0113858Y0187244D01*
X0113858Y0186745D02*
X0027977Y0186745D01*
X0027977Y0186247D02*
X0113892Y0186247D01*
X0114098Y0185748D02*
X0027977Y0185748D01*
X0027977Y0177273D02*
X0104253Y0177273D01*
X0103176Y0176775D02*
X0027977Y0176775D01*
X0027977Y0176276D02*
X0102677Y0176276D01*
X0102246Y0175778D02*
X0027977Y0175778D01*
X0027977Y0175279D02*
X0102039Y0175279D01*
X0101833Y0174781D02*
X0027977Y0174781D01*
X0027977Y0174282D02*
X0101767Y0174282D01*
X0101767Y0173784D02*
X0027977Y0173784D01*
X0027977Y0173285D02*
X0101767Y0173285D01*
X0101957Y0172787D02*
X0027977Y0172787D01*
X0027977Y0172288D02*
X0102163Y0172288D01*
X0102478Y0171790D02*
X0027977Y0171790D01*
X0027977Y0171291D02*
X0063649Y0171291D01*
X0064025Y0171447D02*
X0061066Y0170221D01*
X0058802Y0167957D01*
X0057577Y0164999D01*
X0057577Y0161797D01*
X0058802Y0158838D01*
X0061066Y0156574D01*
X0064025Y0155348D01*
X0067227Y0155348D01*
X0070185Y0156574D01*
X0072450Y0158838D01*
X0073675Y0161797D01*
X0073675Y0164999D01*
X0072450Y0167957D01*
X0070185Y0170221D01*
X0067227Y0171447D01*
X0064025Y0171447D01*
X0062446Y0170793D02*
X0027977Y0170793D01*
X0027977Y0170294D02*
X0061242Y0170294D01*
X0060641Y0169796D02*
X0027977Y0169796D01*
X0027977Y0169297D02*
X0060142Y0169297D01*
X0059643Y0168799D02*
X0027977Y0168799D01*
X0027977Y0168300D02*
X0059145Y0168300D01*
X0058738Y0167802D02*
X0027977Y0167802D01*
X0027977Y0167303D02*
X0058531Y0167303D01*
X0058325Y0166805D02*
X0027977Y0166805D01*
X0027977Y0166306D02*
X0058118Y0166306D01*
X0057912Y0165808D02*
X0027977Y0165808D01*
X0027977Y0165309D02*
X0057705Y0165309D01*
X0057577Y0164811D02*
X0027977Y0164811D01*
X0027977Y0164312D02*
X0057577Y0164312D01*
X0057577Y0163814D02*
X0027977Y0163814D01*
X0027977Y0163315D02*
X0057577Y0163315D01*
X0057577Y0162817D02*
X0027977Y0162817D01*
X0027977Y0162318D02*
X0057577Y0162318D01*
X0057577Y0161820D02*
X0027977Y0161820D01*
X0027977Y0161321D02*
X0057773Y0161321D01*
X0057980Y0160822D02*
X0027977Y0160822D01*
X0027977Y0160324D02*
X0058186Y0160324D01*
X0058393Y0159825D02*
X0027977Y0159825D01*
X0027977Y0159327D02*
X0058599Y0159327D01*
X0058812Y0158828D02*
X0027977Y0158828D01*
X0027977Y0158330D02*
X0059310Y0158330D01*
X0059809Y0157831D02*
X0027977Y0157831D01*
X0027977Y0157333D02*
X0060307Y0157333D01*
X0060806Y0156834D02*
X0027977Y0156834D01*
X0027977Y0156336D02*
X0061641Y0156336D01*
X0062844Y0155837D02*
X0027977Y0155837D01*
X0027977Y0155339D02*
X0073841Y0155339D01*
X0073841Y0154865D02*
X0073841Y0156320D01*
X0074870Y0157350D01*
X0076326Y0157350D01*
X0077355Y0156320D01*
X0077355Y0154865D01*
X0076326Y0153835D01*
X0076111Y0153835D01*
X0076133Y0153814D01*
X0076133Y0152359D01*
X0075103Y0151329D01*
X0073648Y0151329D01*
X0072619Y0152359D01*
X0072619Y0153814D01*
X0073648Y0154843D01*
X0073862Y0154843D01*
X0073841Y0154865D01*
X0073645Y0154840D02*
X0027977Y0154840D01*
X0027977Y0154342D02*
X0073146Y0154342D01*
X0072648Y0153843D02*
X0027977Y0153843D01*
X0027977Y0153345D02*
X0072619Y0153345D01*
X0072619Y0152846D02*
X0027977Y0152846D01*
X0027977Y0152348D02*
X0051804Y0152348D01*
X0051912Y0152456D02*
X0050883Y0151427D01*
X0050883Y0149971D01*
X0051912Y0148942D01*
X0053368Y0148942D01*
X0054397Y0149971D01*
X0054397Y0151427D01*
X0053368Y0152456D01*
X0051912Y0152456D01*
X0051305Y0151849D02*
X0027977Y0151849D01*
X0027977Y0151351D02*
X0050883Y0151351D01*
X0050883Y0150852D02*
X0027977Y0150852D01*
X0027977Y0150354D02*
X0050883Y0150354D01*
X0050999Y0149855D02*
X0027977Y0149855D01*
X0027977Y0149357D02*
X0051497Y0149357D01*
X0053699Y0149151D02*
X0054729Y0150180D01*
X0056184Y0150180D01*
X0057213Y0149151D01*
X0057213Y0147695D01*
X0056184Y0146666D01*
X0054729Y0146666D01*
X0053699Y0147695D01*
X0053699Y0149151D01*
X0053782Y0149357D02*
X0053905Y0149357D01*
X0053699Y0148858D02*
X0027977Y0148858D01*
X0027977Y0148360D02*
X0053699Y0148360D01*
X0053699Y0147861D02*
X0027977Y0147861D01*
X0027977Y0147363D02*
X0054032Y0147363D01*
X0054530Y0146864D02*
X0027977Y0146864D01*
X0027977Y0146366D02*
X0104868Y0146366D01*
X0104980Y0146095D02*
X0105952Y0145123D01*
X0107223Y0144596D01*
X0108598Y0144596D01*
X0109869Y0145123D01*
X0110841Y0146095D01*
X0111368Y0147366D01*
X0111368Y0148741D01*
X0110841Y0150012D01*
X0109869Y0150984D01*
X0108598Y0151510D01*
X0107223Y0151510D01*
X0105952Y0150984D01*
X0104980Y0150012D01*
X0104454Y0148741D01*
X0104454Y0147366D01*
X0104980Y0146095D01*
X0105208Y0145867D02*
X0027977Y0145867D01*
X0027977Y0145369D02*
X0105706Y0145369D01*
X0106562Y0144870D02*
X0027977Y0144870D01*
X0027977Y0144372D02*
X0112068Y0144372D01*
X0112920Y0144870D02*
X0109259Y0144870D01*
X0110115Y0145369D02*
X0118434Y0145369D01*
X0117936Y0145867D02*
X0110614Y0145867D01*
X0110954Y0146366D02*
X0117596Y0146366D01*
X0117389Y0146864D02*
X0111160Y0146864D01*
X0111367Y0147363D02*
X0117183Y0147363D01*
X0117182Y0147861D02*
X0111368Y0147861D01*
X0111368Y0148360D02*
X0117182Y0148360D01*
X0117230Y0148858D02*
X0111319Y0148858D01*
X0111113Y0149357D02*
X0117437Y0149357D01*
X0117643Y0149855D02*
X0110906Y0149855D01*
X0110499Y0150354D02*
X0118050Y0150354D01*
X0118548Y0150852D02*
X0110001Y0150852D01*
X0108984Y0151351D02*
X0112644Y0151351D01*
X0111954Y0151849D02*
X0092301Y0151849D01*
X0092301Y0151737D02*
X0091272Y0150708D01*
X0089817Y0150708D01*
X0088787Y0151737D01*
X0088787Y0153192D01*
X0089817Y0154222D01*
X0091272Y0154222D01*
X0092301Y0153192D01*
X0092301Y0151737D01*
X0091915Y0151351D02*
X0106838Y0151351D01*
X0105821Y0150852D02*
X0091417Y0150852D01*
X0092301Y0152348D02*
X0111455Y0152348D01*
X0111183Y0152846D02*
X0104995Y0152846D01*
X0104709Y0152728D02*
X0105980Y0153254D01*
X0106952Y0154227D01*
X0107479Y0155497D01*
X0107479Y0156873D01*
X0106952Y0158143D01*
X0105980Y0159116D01*
X0104709Y0159642D01*
X0103334Y0159642D01*
X0102063Y0159116D01*
X0101091Y0158143D01*
X0100565Y0156873D01*
X0100565Y0155497D01*
X0101091Y0154227D01*
X0102063Y0153254D01*
X0103334Y0152728D01*
X0104709Y0152728D01*
X0106070Y0153345D02*
X0110977Y0153345D01*
X0110818Y0153843D02*
X0106569Y0153843D01*
X0107000Y0154342D02*
X0110818Y0154342D01*
X0110818Y0154840D02*
X0107207Y0154840D01*
X0107413Y0155339D02*
X0110914Y0155339D01*
X0111121Y0155837D02*
X0107479Y0155837D01*
X0107479Y0156336D02*
X0111327Y0156336D01*
X0111803Y0156834D02*
X0107479Y0156834D01*
X0107288Y0157333D02*
X0112301Y0157333D01*
X0113483Y0157831D02*
X0107082Y0157831D01*
X0106766Y0158330D02*
X0118201Y0158330D01*
X0117706Y0158828D02*
X0106267Y0158828D01*
X0105470Y0159327D02*
X0117499Y0159327D01*
X0117293Y0159825D02*
X0113034Y0159825D01*
X0114040Y0160324D02*
X0117182Y0160324D01*
X0117182Y0160822D02*
X0114538Y0160822D01*
X0114940Y0161321D02*
X0117182Y0161321D01*
X0117327Y0161820D02*
X0115147Y0161820D01*
X0115353Y0162318D02*
X0117533Y0162318D01*
X0117785Y0162817D02*
X0115398Y0162817D01*
X0115398Y0163315D02*
X0118283Y0163315D01*
X0118925Y0163814D02*
X0115394Y0163814D01*
X0110612Y0166306D02*
X0106372Y0166306D01*
X0106559Y0165808D02*
X0109745Y0165808D01*
X0109246Y0165309D02*
X0106559Y0165309D01*
X0106559Y0164811D02*
X0108902Y0164811D01*
X0108695Y0164312D02*
X0106491Y0164312D01*
X0106284Y0163814D02*
X0108489Y0163814D01*
X0108484Y0163315D02*
X0106078Y0163315D01*
X0105643Y0162817D02*
X0108484Y0162817D01*
X0108529Y0162318D02*
X0105144Y0162318D01*
X0104059Y0161820D02*
X0108736Y0161820D01*
X0108942Y0161321D02*
X0073478Y0161321D01*
X0073675Y0161820D02*
X0102146Y0161820D01*
X0101061Y0162318D02*
X0073675Y0162318D01*
X0073675Y0162817D02*
X0100562Y0162817D01*
X0100127Y0163315D02*
X0073675Y0163315D01*
X0073675Y0163814D02*
X0099920Y0163814D01*
X0099714Y0164312D02*
X0073675Y0164312D01*
X0073675Y0164811D02*
X0099645Y0164811D01*
X0099645Y0165309D02*
X0073546Y0165309D01*
X0073340Y0165808D02*
X0099645Y0165808D01*
X0099833Y0166306D02*
X0073133Y0166306D01*
X0072927Y0166805D02*
X0100039Y0166805D01*
X0100351Y0167303D02*
X0072720Y0167303D01*
X0072514Y0167802D02*
X0082298Y0167802D01*
X0081799Y0168300D02*
X0072106Y0168300D01*
X0071608Y0168799D02*
X0081301Y0168799D01*
X0081220Y0169297D02*
X0071109Y0169297D01*
X0070611Y0169796D02*
X0081220Y0169796D01*
X0081220Y0170294D02*
X0070009Y0170294D01*
X0068806Y0170793D02*
X0081513Y0170793D01*
X0082011Y0171291D02*
X0067602Y0171291D01*
X0073271Y0160822D02*
X0109344Y0160822D01*
X0109843Y0160324D02*
X0073065Y0160324D01*
X0072858Y0159825D02*
X0093646Y0159825D01*
X0094067Y0160247D02*
X0092920Y0159100D01*
X0092920Y0157479D01*
X0094067Y0156332D01*
X0094353Y0156332D01*
X0094120Y0156100D01*
X0094120Y0154479D01*
X0095267Y0153332D01*
X0096888Y0153332D01*
X0098035Y0154479D01*
X0098035Y0155732D01*
X0098688Y0155732D01*
X0099835Y0156879D01*
X0099835Y0158500D01*
X0098688Y0159647D01*
X0097067Y0159647D01*
X0096677Y0159257D01*
X0095688Y0160247D01*
X0094067Y0160247D01*
X0093147Y0159327D02*
X0072652Y0159327D01*
X0072440Y0158828D02*
X0092920Y0158828D01*
X0092920Y0158330D02*
X0071941Y0158330D01*
X0071443Y0157831D02*
X0092920Y0157831D01*
X0093066Y0157333D02*
X0076343Y0157333D01*
X0076841Y0156834D02*
X0093565Y0156834D01*
X0094063Y0156336D02*
X0077340Y0156336D01*
X0077355Y0155837D02*
X0080406Y0155837D01*
X0080594Y0156025D02*
X0079448Y0154879D01*
X0079448Y0153258D01*
X0080594Y0152111D01*
X0082215Y0152111D01*
X0083362Y0153258D01*
X0083362Y0154879D01*
X0082215Y0156025D01*
X0080594Y0156025D01*
X0079908Y0155339D02*
X0077355Y0155339D01*
X0077331Y0154840D02*
X0079448Y0154840D01*
X0079448Y0154342D02*
X0076832Y0154342D01*
X0076334Y0153843D02*
X0079448Y0153843D01*
X0079448Y0153345D02*
X0076133Y0153345D01*
X0076133Y0152846D02*
X0079859Y0152846D01*
X0080357Y0152348D02*
X0076122Y0152348D01*
X0075623Y0151849D02*
X0088787Y0151849D01*
X0088787Y0152348D02*
X0082452Y0152348D01*
X0082950Y0152846D02*
X0088787Y0152846D01*
X0088940Y0153345D02*
X0083362Y0153345D01*
X0083362Y0153843D02*
X0089438Y0153843D01*
X0091651Y0153843D02*
X0094756Y0153843D01*
X0095254Y0153345D02*
X0092149Y0153345D01*
X0092301Y0152846D02*
X0103048Y0152846D01*
X0101973Y0153345D02*
X0096901Y0153345D01*
X0097399Y0153843D02*
X0101474Y0153843D01*
X0101043Y0154342D02*
X0097898Y0154342D01*
X0098035Y0154840D02*
X0100837Y0154840D01*
X0100630Y0155339D02*
X0098035Y0155339D01*
X0098793Y0155837D02*
X0100565Y0155837D01*
X0100565Y0156336D02*
X0099292Y0156336D01*
X0099790Y0156834D02*
X0100565Y0156834D01*
X0100755Y0157333D02*
X0099835Y0157333D01*
X0099835Y0157831D02*
X0100962Y0157831D01*
X0101277Y0158330D02*
X0099835Y0158330D01*
X0099506Y0158828D02*
X0101776Y0158828D01*
X0102573Y0159327D02*
X0099008Y0159327D01*
X0096747Y0159327D02*
X0096608Y0159327D01*
X0096109Y0159825D02*
X0110848Y0159825D01*
X0115066Y0157831D02*
X0118726Y0157831D01*
X0119930Y0157333D02*
X0116248Y0157333D01*
X0115630Y0144870D02*
X0119290Y0144870D01*
X0124712Y0140384D02*
X0136985Y0140384D01*
X0141040Y0142378D02*
X0144602Y0142378D01*
X0144834Y0141879D02*
X0142167Y0141879D01*
X0142666Y0141381D02*
X0145333Y0141381D01*
X0144388Y0144870D02*
X0139965Y0144870D01*
X0140521Y0145369D02*
X0144595Y0145369D01*
X0144817Y0145867D02*
X0141019Y0145867D01*
X0141235Y0146366D02*
X0145316Y0146366D01*
X0145888Y0146864D02*
X0141441Y0146864D01*
X0134514Y0135398D02*
X0261411Y0135398D01*
X0261411Y0134900D02*
X0134295Y0134900D01*
X0133796Y0134401D02*
X0261411Y0134401D01*
X0261410Y0133903D02*
X0248265Y0133903D01*
X0247579Y0134187D02*
X0245867Y0134187D01*
X0244284Y0133532D01*
X0243073Y0132320D01*
X0242418Y0130738D01*
X0242418Y0129025D01*
X0243073Y0127443D01*
X0244284Y0126232D01*
X0245867Y0125577D01*
X0247579Y0125577D01*
X0249162Y0126232D01*
X0250373Y0127443D01*
X0251028Y0129025D01*
X0251028Y0130738D01*
X0250373Y0132320D01*
X0249162Y0133532D01*
X0247579Y0134187D01*
X0249289Y0133404D02*
X0261410Y0133404D01*
X0261409Y0132906D02*
X0249787Y0132906D01*
X0250286Y0132407D02*
X0261409Y0132407D01*
X0261409Y0131909D02*
X0250543Y0131909D01*
X0250750Y0131410D02*
X0261408Y0131410D01*
X0261408Y0130912D02*
X0250956Y0130912D01*
X0251028Y0130413D02*
X0261407Y0130413D01*
X0261407Y0129915D02*
X0251028Y0129915D01*
X0251028Y0129416D02*
X0261407Y0129416D01*
X0261406Y0128918D02*
X0250984Y0128918D01*
X0250777Y0128419D02*
X0261406Y0128419D01*
X0261405Y0127921D02*
X0250571Y0127921D01*
X0250352Y0127422D02*
X0261405Y0127422D01*
X0261405Y0126924D02*
X0249853Y0126924D01*
X0249355Y0126425D02*
X0261404Y0126425D01*
X0261404Y0125927D02*
X0248424Y0125927D01*
X0245022Y0125927D02*
X0123482Y0125927D01*
X0123981Y0126425D02*
X0157892Y0126425D01*
X0157393Y0126924D02*
X0124235Y0126924D01*
X0124235Y0127422D02*
X0156895Y0127422D01*
X0154441Y0127921D02*
X0124235Y0127921D01*
X0124115Y0128419D02*
X0153943Y0128419D01*
X0153708Y0128918D02*
X0123617Y0128918D01*
X0123118Y0129416D02*
X0153708Y0129416D01*
X0156487Y0131410D02*
X0242696Y0131410D01*
X0242490Y0130912D02*
X0156986Y0130912D01*
X0157484Y0130413D02*
X0242418Y0130413D01*
X0242418Y0129915D02*
X0159937Y0129915D01*
X0160436Y0129416D02*
X0242418Y0129416D01*
X0242463Y0128918D02*
X0160791Y0128918D01*
X0160791Y0128419D02*
X0242669Y0128419D01*
X0242876Y0127921D02*
X0160791Y0127921D01*
X0160773Y0127422D02*
X0243094Y0127422D01*
X0243593Y0126924D02*
X0160274Y0126924D01*
X0159776Y0126425D02*
X0244091Y0126425D01*
X0242903Y0131909D02*
X0104265Y0131909D01*
X0104763Y0132407D02*
X0243160Y0132407D01*
X0243659Y0132906D02*
X0105235Y0132906D01*
X0105235Y0133404D02*
X0244157Y0133404D01*
X0245181Y0133903D02*
X0133230Y0133903D01*
X0121437Y0129416D02*
X0119718Y0129416D01*
X0120217Y0128918D02*
X0120938Y0128918D01*
X0118037Y0129416D02*
X0116318Y0129416D01*
X0116817Y0128918D02*
X0117538Y0128918D01*
X0117673Y0125927D02*
X0116682Y0125927D01*
X0120082Y0125927D02*
X0121073Y0125927D01*
X0117695Y0121440D02*
X0190059Y0121440D01*
X0191896Y0121440D02*
X0261400Y0121440D01*
X0261400Y0120942D02*
X0118035Y0120942D01*
X0118035Y0120443D02*
X0261399Y0120443D01*
X0261399Y0119945D02*
X0248697Y0119945D01*
X0249468Y0119446D02*
X0261398Y0119446D01*
X0261398Y0118948D02*
X0249966Y0118948D01*
X0250411Y0118449D02*
X0261398Y0118449D01*
X0261397Y0117951D02*
X0250617Y0117951D01*
X0250824Y0117452D02*
X0261397Y0117452D01*
X0261396Y0116953D02*
X0251028Y0116953D01*
X0251028Y0116455D02*
X0261396Y0116455D01*
X0261396Y0115956D02*
X0251028Y0115956D01*
X0251028Y0115458D02*
X0261395Y0115458D01*
X0261395Y0114959D02*
X0250909Y0114959D01*
X0250703Y0114461D02*
X0261394Y0114461D01*
X0261394Y0113962D02*
X0250497Y0113962D01*
X0250173Y0113464D02*
X0261394Y0113464D01*
X0261393Y0112965D02*
X0249675Y0112965D01*
X0249176Y0112467D02*
X0261393Y0112467D01*
X0261400Y0121939D02*
X0192394Y0121939D01*
X0192893Y0122437D02*
X0261401Y0122437D01*
X0261401Y0122936D02*
X0192935Y0122936D01*
X0192935Y0123434D02*
X0261402Y0123434D01*
X0261402Y0123933D02*
X0192935Y0123933D01*
X0192604Y0124431D02*
X0261402Y0124431D01*
X0261415Y0139885D02*
X0248856Y0139885D01*
X0249534Y0140384D02*
X0261415Y0140384D01*
X0261416Y0140882D02*
X0250032Y0140882D01*
X0250438Y0141381D02*
X0261416Y0141381D01*
X0261417Y0141879D02*
X0250645Y0141879D01*
X0250851Y0142378D02*
X0261417Y0142378D01*
X0261417Y0142876D02*
X0251028Y0142876D01*
X0251028Y0143375D02*
X0261418Y0143375D01*
X0261418Y0143873D02*
X0251028Y0143873D01*
X0251028Y0144372D02*
X0261419Y0144372D01*
X0261419Y0144870D02*
X0250882Y0144870D01*
X0250676Y0145369D02*
X0261419Y0145369D01*
X0261420Y0145867D02*
X0250469Y0145867D01*
X0250107Y0146366D02*
X0261420Y0146366D01*
X0261421Y0146864D02*
X0249609Y0146864D01*
X0249037Y0147363D02*
X0261421Y0147363D01*
X0261421Y0147861D02*
X0247834Y0147861D01*
X0245613Y0147861D02*
X0154466Y0147861D01*
X0155391Y0148360D02*
X0232730Y0148360D01*
X0233178Y0147912D02*
X0235006Y0147912D01*
X0236299Y0149205D01*
X0236299Y0151033D01*
X0235006Y0152326D01*
X0233178Y0152326D01*
X0231885Y0151033D01*
X0231885Y0149205D01*
X0233178Y0147912D01*
X0232231Y0148858D02*
X0155890Y0148858D01*
X0156259Y0149357D02*
X0231885Y0149357D01*
X0231885Y0149855D02*
X0156465Y0149855D01*
X0156672Y0150354D02*
X0231885Y0150354D01*
X0231885Y0150852D02*
X0156693Y0150852D01*
X0156693Y0151351D02*
X0232203Y0151351D01*
X0232702Y0151849D02*
X0156665Y0151849D01*
X0156459Y0152348D02*
X0261425Y0152348D01*
X0261425Y0152846D02*
X0156252Y0152846D01*
X0155874Y0153345D02*
X0245362Y0153345D01*
X0244232Y0153843D02*
X0155376Y0153843D01*
X0154429Y0154342D02*
X0243734Y0154342D01*
X0242727Y0155837D02*
X0196394Y0155837D01*
X0197597Y0156336D02*
X0242521Y0156336D01*
X0242418Y0156834D02*
X0198432Y0156834D01*
X0198931Y0157333D02*
X0242418Y0157333D01*
X0242418Y0157831D02*
X0199429Y0157831D01*
X0199928Y0158330D02*
X0242431Y0158330D01*
X0242638Y0158828D02*
X0200426Y0158828D01*
X0200638Y0159327D02*
X0242844Y0159327D01*
X0243051Y0159825D02*
X0200845Y0159825D01*
X0201051Y0160324D02*
X0243518Y0160324D01*
X0244016Y0160822D02*
X0201258Y0160822D01*
X0201464Y0161321D02*
X0244841Y0161321D01*
X0248605Y0161321D02*
X0261432Y0161321D01*
X0261433Y0161820D02*
X0201661Y0161820D01*
X0201661Y0162318D02*
X0261433Y0162318D01*
X0261433Y0162817D02*
X0201661Y0162817D01*
X0201661Y0163315D02*
X0261434Y0163315D01*
X0261434Y0163814D02*
X0201661Y0163814D01*
X0201661Y0164312D02*
X0261435Y0164312D01*
X0261435Y0164811D02*
X0201661Y0164811D01*
X0201533Y0165309D02*
X0261435Y0165309D01*
X0261436Y0165808D02*
X0201326Y0165808D01*
X0201120Y0166306D02*
X0261436Y0166306D01*
X0261437Y0166805D02*
X0200913Y0166805D01*
X0200707Y0167303D02*
X0244930Y0167303D01*
X0244284Y0167571D02*
X0245867Y0166915D01*
X0247579Y0166915D01*
X0249162Y0167571D01*
X0250373Y0168782D01*
X0251028Y0170364D01*
X0251028Y0172077D01*
X0250373Y0173659D01*
X0249162Y0174870D01*
X0247579Y0175526D01*
X0245867Y0175526D01*
X0244284Y0174870D01*
X0243073Y0173659D01*
X0242418Y0172077D01*
X0242418Y0170364D01*
X0243073Y0168782D01*
X0244284Y0167571D01*
X0244053Y0167802D02*
X0213357Y0167802D01*
X0213288Y0167732D02*
X0214435Y0168879D01*
X0214435Y0170500D01*
X0213288Y0171647D01*
X0211667Y0171647D01*
X0210977Y0170957D01*
X0210745Y0171189D01*
X0211435Y0171879D01*
X0211435Y0173500D01*
X0210288Y0174647D01*
X0208667Y0174647D01*
X0207977Y0173957D01*
X0207288Y0174647D01*
X0205667Y0174647D01*
X0204520Y0173500D01*
X0204520Y0171879D01*
X0205210Y0171189D01*
X0204977Y0170957D01*
X0204288Y0171647D01*
X0202667Y0171647D01*
X0201520Y0170500D01*
X0201520Y0168879D01*
X0202667Y0167732D01*
X0204288Y0167732D01*
X0204977Y0168422D01*
X0205667Y0167732D01*
X0207288Y0167732D01*
X0207977Y0168422D01*
X0208667Y0167732D01*
X0210288Y0167732D01*
X0210977Y0168422D01*
X0211667Y0167732D01*
X0213288Y0167732D01*
X0213856Y0168300D02*
X0243555Y0168300D01*
X0243066Y0168799D02*
X0214354Y0168799D01*
X0214435Y0169297D02*
X0242860Y0169297D01*
X0242653Y0169796D02*
X0214435Y0169796D01*
X0214435Y0170294D02*
X0242447Y0170294D01*
X0242418Y0170793D02*
X0214142Y0170793D01*
X0213643Y0171291D02*
X0242418Y0171291D01*
X0242418Y0171790D02*
X0211345Y0171790D01*
X0211311Y0171291D02*
X0210847Y0171291D01*
X0211435Y0172288D02*
X0242506Y0172288D01*
X0242712Y0172787D02*
X0211435Y0172787D01*
X0211435Y0173285D02*
X0242919Y0173285D01*
X0243198Y0173784D02*
X0211151Y0173784D01*
X0210652Y0174282D02*
X0243697Y0174282D01*
X0244195Y0174781D02*
X0147449Y0174781D01*
X0147916Y0174282D02*
X0205303Y0174282D01*
X0204804Y0173784D02*
X0199087Y0173784D01*
X0199585Y0173285D02*
X0204520Y0173285D01*
X0204520Y0172787D02*
X0199786Y0172787D01*
X0199786Y0172288D02*
X0204520Y0172288D01*
X0204609Y0171790D02*
X0199786Y0171790D01*
X0199615Y0171291D02*
X0202311Y0171291D01*
X0201813Y0170793D02*
X0199116Y0170793D01*
X0198597Y0169796D02*
X0201520Y0169796D01*
X0201520Y0170294D02*
X0197996Y0170294D01*
X0199096Y0169297D02*
X0201520Y0169297D01*
X0201601Y0168799D02*
X0199594Y0168799D01*
X0200093Y0168300D02*
X0202099Y0168300D01*
X0202598Y0167802D02*
X0200500Y0167802D01*
X0204357Y0167802D02*
X0205598Y0167802D01*
X0205099Y0168300D02*
X0204856Y0168300D01*
X0207357Y0167802D02*
X0208598Y0167802D01*
X0208099Y0168300D02*
X0207856Y0168300D01*
X0210357Y0167802D02*
X0211598Y0167802D01*
X0211099Y0168300D02*
X0210856Y0168300D01*
X0205108Y0171291D02*
X0204643Y0171291D01*
X0207652Y0174282D02*
X0208303Y0174282D01*
X0208667Y0176732D02*
X0210288Y0176732D01*
X0211435Y0177879D01*
X0211435Y0179500D01*
X0210288Y0180647D01*
X0208667Y0180647D01*
X0207977Y0179957D01*
X0207745Y0180189D01*
X0208435Y0180879D01*
X0208435Y0182500D01*
X0207288Y0183647D01*
X0205667Y0183647D01*
X0204520Y0182500D01*
X0204520Y0180879D01*
X0205210Y0180189D01*
X0204520Y0179500D01*
X0204520Y0177879D01*
X0205667Y0176732D01*
X0207288Y0176732D01*
X0207977Y0177422D01*
X0208667Y0176732D01*
X0208624Y0176775D02*
X0207331Y0176775D01*
X0207829Y0177273D02*
X0208126Y0177273D01*
X0210331Y0176775D02*
X0261445Y0176775D01*
X0261445Y0177273D02*
X0210829Y0177273D01*
X0211328Y0177772D02*
X0261446Y0177772D01*
X0261446Y0178270D02*
X0211435Y0178270D01*
X0211435Y0178769D02*
X0261446Y0178769D01*
X0261447Y0179267D02*
X0211435Y0179267D01*
X0211667Y0179732D02*
X0213288Y0179732D01*
X0214435Y0180879D01*
X0214435Y0182500D01*
X0213288Y0183647D01*
X0211667Y0183647D01*
X0210520Y0182500D01*
X0210520Y0180879D01*
X0211667Y0179732D01*
X0211633Y0179766D02*
X0211169Y0179766D01*
X0211135Y0180264D02*
X0210670Y0180264D01*
X0210636Y0180763D02*
X0208319Y0180763D01*
X0208285Y0180264D02*
X0207820Y0180264D01*
X0208435Y0181261D02*
X0210520Y0181261D01*
X0210520Y0181760D02*
X0208435Y0181760D01*
X0208435Y0182258D02*
X0210520Y0182258D01*
X0210777Y0182757D02*
X0208178Y0182757D01*
X0207679Y0183255D02*
X0211276Y0183255D01*
X0213679Y0183255D02*
X0242786Y0183255D01*
X0242992Y0182757D02*
X0214178Y0182757D01*
X0214435Y0182258D02*
X0243376Y0182258D01*
X0243073Y0182561D02*
X0244284Y0181350D01*
X0245867Y0180695D01*
X0247579Y0180695D01*
X0249162Y0181350D01*
X0250373Y0182561D01*
X0251028Y0184144D01*
X0251028Y0185856D01*
X0250373Y0187439D01*
X0249162Y0188650D01*
X0247579Y0189305D01*
X0245867Y0189305D01*
X0244284Y0188650D01*
X0243073Y0187439D01*
X0242418Y0185856D01*
X0242418Y0184144D01*
X0243073Y0182561D01*
X0243875Y0181760D02*
X0214435Y0181760D01*
X0214435Y0181261D02*
X0244499Y0181261D01*
X0245702Y0180763D02*
X0214319Y0180763D01*
X0213820Y0180264D02*
X0261448Y0180264D01*
X0261447Y0179766D02*
X0213322Y0179766D01*
X0205135Y0180264D02*
X0192475Y0180264D01*
X0192465Y0180254D02*
X0193184Y0180974D01*
X0193574Y0181913D01*
X0193574Y0182931D01*
X0193184Y0183871D01*
X0193083Y0183972D01*
X0193184Y0184074D01*
X0193574Y0185013D01*
X0193574Y0186031D01*
X0193184Y0186971D01*
X0193083Y0187072D01*
X0193184Y0187174D01*
X0193574Y0188113D01*
X0193574Y0189131D01*
X0193184Y0190071D01*
X0193083Y0190172D01*
X0193184Y0190274D01*
X0193574Y0191213D01*
X0193574Y0192231D01*
X0193184Y0193171D01*
X0193083Y0193272D01*
X0193184Y0193374D01*
X0193574Y0194313D01*
X0193574Y0195331D01*
X0193184Y0196271D01*
X0192465Y0196990D01*
X0191525Y0197379D01*
X0190508Y0197379D01*
X0189568Y0196990D01*
X0189467Y0196888D01*
X0189365Y0196990D01*
X0188425Y0197379D01*
X0187408Y0197379D01*
X0186468Y0196990D01*
X0186367Y0196888D01*
X0186265Y0196990D01*
X0185325Y0197379D01*
X0184308Y0197379D01*
X0183368Y0196990D01*
X0182649Y0196271D01*
X0182260Y0195331D01*
X0182260Y0194313D01*
X0182649Y0193374D01*
X0182750Y0193272D01*
X0182649Y0193171D01*
X0182260Y0192231D01*
X0182260Y0191213D01*
X0182649Y0190274D01*
X0182750Y0190172D01*
X0182649Y0190071D01*
X0182260Y0189131D01*
X0182260Y0188113D01*
X0182649Y0187174D01*
X0182750Y0187072D01*
X0182649Y0186971D01*
X0182260Y0186031D01*
X0182260Y0185013D01*
X0182649Y0184074D01*
X0182750Y0183972D01*
X0182649Y0183871D01*
X0182260Y0182931D01*
X0182260Y0181913D01*
X0182649Y0180974D01*
X0183368Y0180254D01*
X0184308Y0179865D01*
X0185325Y0179865D01*
X0186265Y0180254D01*
X0186367Y0180356D01*
X0186468Y0180254D01*
X0187408Y0179865D01*
X0188425Y0179865D01*
X0189365Y0180254D01*
X0189467Y0180356D01*
X0189568Y0180254D01*
X0190508Y0179865D01*
X0191525Y0179865D01*
X0192465Y0180254D01*
X0192974Y0180763D02*
X0204636Y0180763D01*
X0204520Y0181261D02*
X0193304Y0181261D01*
X0193510Y0181760D02*
X0204520Y0181760D01*
X0204520Y0182258D02*
X0193574Y0182258D01*
X0193574Y0182757D02*
X0204777Y0182757D01*
X0205276Y0183255D02*
X0193439Y0183255D01*
X0193233Y0183754D02*
X0242579Y0183754D01*
X0242418Y0184253D02*
X0193258Y0184253D01*
X0193465Y0184751D02*
X0242418Y0184751D01*
X0242418Y0185250D02*
X0193574Y0185250D01*
X0193574Y0185748D02*
X0242418Y0185748D01*
X0242580Y0186247D02*
X0193484Y0186247D01*
X0193278Y0186745D02*
X0242786Y0186745D01*
X0242993Y0187244D02*
X0193213Y0187244D01*
X0193420Y0187742D02*
X0243377Y0187742D01*
X0243875Y0188241D02*
X0193574Y0188241D01*
X0193574Y0188739D02*
X0244500Y0188739D01*
X0245704Y0189238D02*
X0193529Y0189238D01*
X0193323Y0189736D02*
X0261455Y0189736D01*
X0261455Y0189238D02*
X0247742Y0189238D01*
X0248946Y0188739D02*
X0261454Y0188739D01*
X0261454Y0188241D02*
X0249571Y0188241D01*
X0250069Y0187742D02*
X0261454Y0187742D01*
X0261453Y0187244D02*
X0250454Y0187244D01*
X0250660Y0186745D02*
X0261453Y0186745D01*
X0261452Y0186247D02*
X0250866Y0186247D01*
X0251028Y0185748D02*
X0261452Y0185748D01*
X0261452Y0185250D02*
X0251028Y0185250D01*
X0251028Y0184751D02*
X0261451Y0184751D01*
X0261451Y0184253D02*
X0251028Y0184253D01*
X0250867Y0183754D02*
X0261450Y0183754D01*
X0261450Y0183255D02*
X0250660Y0183255D01*
X0250454Y0182757D02*
X0261450Y0182757D01*
X0261449Y0182258D02*
X0250070Y0182258D01*
X0249571Y0181760D02*
X0261449Y0181760D01*
X0261448Y0181261D02*
X0248947Y0181261D01*
X0247744Y0180763D02*
X0261448Y0180763D01*
X0261444Y0176276D02*
X0153751Y0176276D01*
X0153285Y0175811D02*
X0154258Y0176784D01*
X0154784Y0178054D01*
X0154784Y0179429D01*
X0154258Y0180700D01*
X0153285Y0181673D01*
X0152015Y0182199D01*
X0150639Y0182199D01*
X0149369Y0181673D01*
X0148396Y0180700D01*
X0147870Y0179429D01*
X0147870Y0178054D01*
X0148396Y0176784D01*
X0149369Y0175811D01*
X0150639Y0175285D01*
X0152015Y0175285D01*
X0153285Y0175811D01*
X0153205Y0175778D02*
X0261444Y0175778D01*
X0261444Y0175279D02*
X0248174Y0175279D01*
X0249251Y0174781D02*
X0261443Y0174781D01*
X0261443Y0174282D02*
X0249750Y0174282D01*
X0250248Y0173784D02*
X0261442Y0173784D01*
X0261442Y0173285D02*
X0250528Y0173285D01*
X0250734Y0172787D02*
X0261442Y0172787D01*
X0261441Y0172288D02*
X0250941Y0172288D01*
X0251028Y0171790D02*
X0261441Y0171790D01*
X0261440Y0171291D02*
X0251028Y0171291D01*
X0251028Y0170793D02*
X0261440Y0170793D01*
X0261439Y0170294D02*
X0250999Y0170294D01*
X0250793Y0169796D02*
X0261439Y0169796D01*
X0261439Y0169297D02*
X0250586Y0169297D01*
X0250380Y0168799D02*
X0261438Y0168799D01*
X0261438Y0168300D02*
X0249891Y0168300D01*
X0249393Y0167802D02*
X0261437Y0167802D01*
X0261437Y0167303D02*
X0248516Y0167303D01*
X0249430Y0160822D02*
X0261432Y0160822D01*
X0261431Y0160324D02*
X0249928Y0160324D01*
X0250395Y0159825D02*
X0261431Y0159825D01*
X0261431Y0159327D02*
X0250602Y0159327D01*
X0250808Y0158828D02*
X0261430Y0158828D01*
X0261430Y0158330D02*
X0251015Y0158330D01*
X0251028Y0157831D02*
X0261429Y0157831D01*
X0261429Y0157333D02*
X0251028Y0157333D01*
X0251028Y0156834D02*
X0261429Y0156834D01*
X0261428Y0156336D02*
X0250925Y0156336D01*
X0250719Y0155837D02*
X0261428Y0155837D01*
X0261427Y0155339D02*
X0250512Y0155339D01*
X0250211Y0154840D02*
X0261427Y0154840D01*
X0261427Y0154342D02*
X0249712Y0154342D01*
X0249214Y0153843D02*
X0261426Y0153843D01*
X0261426Y0153345D02*
X0248084Y0153345D01*
X0236299Y0150852D02*
X0261424Y0150852D01*
X0261423Y0150354D02*
X0236299Y0150354D01*
X0236299Y0149855D02*
X0261423Y0149855D01*
X0261423Y0149357D02*
X0236299Y0149357D01*
X0235953Y0148858D02*
X0261422Y0148858D01*
X0261422Y0148360D02*
X0235455Y0148360D01*
X0235982Y0151351D02*
X0261424Y0151351D01*
X0261425Y0151849D02*
X0235483Y0151849D01*
X0245272Y0175279D02*
X0146951Y0175279D01*
X0145789Y0175778D02*
X0149449Y0175778D01*
X0148903Y0176276D02*
X0141023Y0176276D01*
X0140557Y0175811D02*
X0141530Y0176784D01*
X0142056Y0178054D01*
X0142056Y0179429D01*
X0141530Y0180700D01*
X0140557Y0181673D01*
X0139287Y0182199D01*
X0137911Y0182199D01*
X0136641Y0181673D01*
X0135668Y0180700D01*
X0135142Y0179429D01*
X0135142Y0178054D01*
X0135668Y0176784D01*
X0136641Y0175811D01*
X0137911Y0175285D01*
X0139287Y0175285D01*
X0140557Y0175811D01*
X0140477Y0175778D02*
X0144138Y0175778D01*
X0142975Y0175279D02*
X0122296Y0175279D01*
X0122847Y0175778D02*
X0136721Y0175778D01*
X0136176Y0176276D02*
X0123345Y0176276D01*
X0123559Y0176775D02*
X0135677Y0176775D01*
X0135465Y0177273D02*
X0130557Y0177273D01*
X0131487Y0177772D02*
X0135259Y0177772D01*
X0135142Y0178270D02*
X0131986Y0178270D01*
X0132357Y0178769D02*
X0135142Y0178769D01*
X0135142Y0179267D02*
X0132563Y0179267D01*
X0132770Y0179766D02*
X0135281Y0179766D01*
X0135488Y0180264D02*
X0132793Y0180264D01*
X0132793Y0180763D02*
X0135731Y0180763D01*
X0136230Y0181261D02*
X0132767Y0181261D01*
X0132560Y0181760D02*
X0136852Y0181760D01*
X0137606Y0184253D02*
X0141575Y0184253D01*
X0141506Y0184418D02*
X0142032Y0183147D01*
X0143005Y0182175D01*
X0144275Y0181649D01*
X0145651Y0181649D01*
X0146921Y0182175D01*
X0147894Y0183147D01*
X0148420Y0184418D01*
X0148420Y0185793D01*
X0147894Y0187064D01*
X0146921Y0188037D01*
X0145651Y0188563D01*
X0144275Y0188563D01*
X0143005Y0188037D01*
X0142032Y0187064D01*
X0141506Y0185793D01*
X0141506Y0184418D01*
X0141506Y0184751D02*
X0138467Y0184751D01*
X0138965Y0185250D02*
X0141506Y0185250D01*
X0141506Y0185748D02*
X0139307Y0185748D01*
X0139514Y0186247D02*
X0141694Y0186247D01*
X0141900Y0186745D02*
X0139720Y0186745D01*
X0139723Y0187244D02*
X0142212Y0187244D01*
X0142710Y0187742D02*
X0139723Y0187742D01*
X0139676Y0188241D02*
X0143497Y0188241D01*
X0146429Y0188241D02*
X0169622Y0188241D01*
X0169622Y0188739D02*
X0139469Y0188739D01*
X0139263Y0189238D02*
X0169622Y0189238D01*
X0169622Y0189334D02*
X0169622Y0187713D01*
X0170769Y0186566D01*
X0172390Y0186566D01*
X0173536Y0187713D01*
X0173536Y0189334D01*
X0172390Y0190481D01*
X0170769Y0190481D01*
X0169622Y0189334D01*
X0170024Y0189736D02*
X0138858Y0189736D01*
X0138359Y0190235D02*
X0170523Y0190235D01*
X0172636Y0190235D02*
X0182688Y0190235D01*
X0182510Y0189736D02*
X0173134Y0189736D01*
X0173536Y0189238D02*
X0182304Y0189238D01*
X0182260Y0188739D02*
X0173536Y0188739D01*
X0173536Y0188241D02*
X0182260Y0188241D01*
X0182413Y0187742D02*
X0173536Y0187742D01*
X0173067Y0187244D02*
X0182620Y0187244D01*
X0182555Y0186745D02*
X0172569Y0186745D01*
X0170590Y0186745D02*
X0148026Y0186745D01*
X0148232Y0186247D02*
X0182349Y0186247D01*
X0182260Y0185748D02*
X0148420Y0185748D01*
X0148420Y0185250D02*
X0182260Y0185250D01*
X0182368Y0184751D02*
X0148420Y0184751D01*
X0148352Y0184253D02*
X0182575Y0184253D01*
X0182601Y0183754D02*
X0148145Y0183754D01*
X0147939Y0183255D02*
X0182394Y0183255D01*
X0182260Y0182757D02*
X0147503Y0182757D01*
X0147005Y0182258D02*
X0182260Y0182258D01*
X0182323Y0181760D02*
X0153074Y0181760D01*
X0153696Y0181261D02*
X0182530Y0181261D01*
X0182860Y0180763D02*
X0154195Y0180763D01*
X0154438Y0180264D02*
X0183358Y0180264D01*
X0186275Y0180264D02*
X0186458Y0180264D01*
X0189375Y0180264D02*
X0189558Y0180264D01*
X0196073Y0173285D02*
X0155374Y0173285D01*
X0156049Y0172787D02*
X0195872Y0172787D01*
X0196572Y0173784D02*
X0148123Y0173784D01*
X0148329Y0173285D02*
X0151947Y0173285D01*
X0151272Y0172787D02*
X0148420Y0172787D01*
X0150226Y0168799D02*
X0138979Y0168799D01*
X0140071Y0168300D02*
X0150436Y0168300D01*
X0150143Y0162318D02*
X0153490Y0162318D01*
X0152992Y0161820D02*
X0149936Y0161820D01*
X0149730Y0161321D02*
X0152744Y0161321D01*
X0152538Y0160822D02*
X0149328Y0160822D01*
X0148829Y0160324D02*
X0152395Y0160324D01*
X0152395Y0159825D02*
X0147824Y0159825D01*
X0145638Y0159825D02*
X0137311Y0159825D01*
X0138013Y0159327D02*
X0152395Y0159327D01*
X0152509Y0158828D02*
X0138511Y0158828D01*
X0138788Y0158330D02*
X0152716Y0158330D01*
X0152923Y0157831D02*
X0138994Y0157831D01*
X0134089Y0159825D02*
X0130429Y0159825D01*
X0131434Y0160324D02*
X0144633Y0160324D01*
X0144134Y0160822D02*
X0131933Y0160822D01*
X0132335Y0161321D02*
X0143732Y0161321D01*
X0142656Y0169796D02*
X0134542Y0169796D01*
X0134783Y0170294D02*
X0142158Y0170294D01*
X0141878Y0170793D02*
X0134989Y0170793D01*
X0135127Y0171291D02*
X0141671Y0171291D01*
X0141506Y0171790D02*
X0135127Y0171790D01*
X0135127Y0172288D02*
X0141506Y0172288D01*
X0141506Y0172787D02*
X0135008Y0172787D01*
X0134801Y0173285D02*
X0141597Y0173285D01*
X0141804Y0173784D02*
X0134587Y0173784D01*
X0134088Y0174282D02*
X0142010Y0174282D01*
X0142477Y0174781D02*
X0133536Y0174781D01*
X0129803Y0174781D02*
X0116054Y0174781D01*
X0116552Y0174282D02*
X0129251Y0174282D01*
X0128752Y0173784D02*
X0117017Y0173784D01*
X0116969Y0178270D02*
X0111341Y0178270D01*
X0112261Y0178769D02*
X0116969Y0178769D01*
X0117107Y0179267D02*
X0112760Y0179267D01*
X0113127Y0179766D02*
X0117314Y0179766D01*
X0117555Y0180264D02*
X0113333Y0180264D01*
X0113540Y0180763D02*
X0118054Y0180763D01*
X0118671Y0181261D02*
X0113560Y0181261D01*
X0113560Y0181760D02*
X0126112Y0181760D01*
X0126319Y0182258D02*
X0113530Y0182258D01*
X0113324Y0182757D02*
X0126694Y0182757D01*
X0125906Y0181261D02*
X0122182Y0181261D01*
X0122799Y0180763D02*
X0125879Y0180763D01*
X0125879Y0180264D02*
X0123298Y0180264D01*
X0123539Y0179766D02*
X0125902Y0179766D01*
X0126109Y0179267D02*
X0123746Y0179267D01*
X0123884Y0178769D02*
X0126315Y0178769D01*
X0126686Y0178270D02*
X0123884Y0178270D01*
X0123884Y0177772D02*
X0127185Y0177772D01*
X0128115Y0177273D02*
X0123765Y0177273D01*
X0130537Y0183754D02*
X0141781Y0183754D01*
X0141988Y0183255D02*
X0131479Y0183255D01*
X0131978Y0182757D02*
X0142423Y0182757D01*
X0142921Y0182258D02*
X0132354Y0182258D01*
X0133018Y0186247D02*
X0126875Y0186247D01*
X0128016Y0186745D02*
X0132811Y0186745D01*
X0132809Y0187244D02*
X0128514Y0187244D01*
X0128972Y0187742D02*
X0132809Y0187742D01*
X0132856Y0188241D02*
X0129179Y0188241D01*
X0129385Y0188739D02*
X0133062Y0188739D01*
X0133269Y0189238D02*
X0129470Y0189238D01*
X0129470Y0189736D02*
X0133674Y0189736D01*
X0134172Y0190235D02*
X0129470Y0190235D01*
X0129298Y0190733D02*
X0135184Y0190733D01*
X0137347Y0190733D02*
X0182459Y0190733D01*
X0182260Y0191232D02*
X0129092Y0191232D01*
X0128803Y0191730D02*
X0182260Y0191730D01*
X0182260Y0192229D02*
X0171238Y0192229D01*
X0171736Y0192727D02*
X0182465Y0192727D01*
X0182704Y0193226D02*
X0172085Y0193226D01*
X0172085Y0193724D02*
X0182504Y0193724D01*
X0182297Y0194223D02*
X0172085Y0194223D01*
X0172085Y0194721D02*
X0182260Y0194721D01*
X0182260Y0195220D02*
X0171768Y0195220D01*
X0171428Y0195718D02*
X0182420Y0195718D01*
X0182627Y0196217D02*
X0171926Y0196217D01*
X0172085Y0196715D02*
X0183094Y0196715D01*
X0183909Y0197214D02*
X0172085Y0197214D01*
X0172085Y0197712D02*
X0207020Y0197712D01*
X0207020Y0197214D02*
X0191925Y0197214D01*
X0192740Y0196715D02*
X0207384Y0196715D01*
X0207020Y0197079D02*
X0208167Y0195932D01*
X0209788Y0195932D01*
X0210477Y0196622D01*
X0211167Y0195932D01*
X0212788Y0195932D01*
X0213935Y0197079D01*
X0213935Y0197665D01*
X0214167Y0197432D01*
X0215788Y0197432D01*
X0216935Y0198579D01*
X0216935Y0200200D01*
X0215788Y0201347D01*
X0214167Y0201347D01*
X0213935Y0201114D01*
X0213935Y0201700D01*
X0212788Y0202847D01*
X0211167Y0202847D01*
X0210477Y0202157D01*
X0210245Y0202389D01*
X0210935Y0203079D01*
X0210935Y0204700D01*
X0209788Y0205847D01*
X0208167Y0205847D01*
X0207020Y0204700D01*
X0207020Y0203079D01*
X0207710Y0202389D01*
X0207020Y0201700D01*
X0207020Y0200079D01*
X0207710Y0199389D01*
X0207020Y0198700D01*
X0207020Y0197079D01*
X0207020Y0198211D02*
X0172077Y0198211D01*
X0171579Y0198709D02*
X0207030Y0198709D01*
X0207528Y0199208D02*
X0171617Y0199208D01*
X0172085Y0199706D02*
X0207393Y0199706D01*
X0207020Y0200205D02*
X0172085Y0200205D01*
X0172085Y0200703D02*
X0207020Y0200703D01*
X0207020Y0201202D02*
X0172085Y0201202D01*
X0171888Y0201700D02*
X0207021Y0201700D01*
X0207519Y0202199D02*
X0171389Y0202199D01*
X0170891Y0202697D02*
X0207402Y0202697D01*
X0207020Y0203196D02*
X0027977Y0203196D01*
X0027977Y0203694D02*
X0207020Y0203694D01*
X0207020Y0204193D02*
X0112549Y0204193D01*
X0112288Y0203932D02*
X0113435Y0205079D01*
X0113435Y0206700D01*
X0112745Y0207389D01*
X0113435Y0208079D01*
X0113435Y0209700D01*
X0112745Y0210389D01*
X0113435Y0211079D01*
X0113435Y0212700D01*
X0112745Y0213389D01*
X0113435Y0214079D01*
X0113435Y0215700D01*
X0112288Y0216847D01*
X0110667Y0216847D01*
X0109520Y0215700D01*
X0109520Y0214079D01*
X0110210Y0213389D01*
X0109520Y0212700D01*
X0109520Y0211079D01*
X0110210Y0210389D01*
X0109520Y0209700D01*
X0109520Y0208079D01*
X0110210Y0207389D01*
X0109520Y0206700D01*
X0109520Y0205079D01*
X0110667Y0203932D01*
X0112288Y0203932D01*
X0113047Y0204691D02*
X0207020Y0204691D01*
X0207510Y0205190D02*
X0113435Y0205190D01*
X0113435Y0205688D02*
X0208009Y0205688D01*
X0209946Y0205688D02*
X0261468Y0205688D01*
X0261468Y0205190D02*
X0210445Y0205190D01*
X0210935Y0204691D02*
X0261467Y0204691D01*
X0261467Y0204193D02*
X0210935Y0204193D01*
X0210935Y0203694D02*
X0261466Y0203694D01*
X0261466Y0203196D02*
X0210935Y0203196D01*
X0211018Y0202697D02*
X0210553Y0202697D01*
X0210519Y0202199D02*
X0210436Y0202199D01*
X0212937Y0202697D02*
X0261466Y0202697D01*
X0261465Y0202199D02*
X0213436Y0202199D01*
X0213934Y0201700D02*
X0261465Y0201700D01*
X0261464Y0201202D02*
X0215933Y0201202D01*
X0216431Y0200703D02*
X0261464Y0200703D01*
X0261464Y0200205D02*
X0216930Y0200205D01*
X0216935Y0199706D02*
X0261463Y0199706D01*
X0261463Y0199208D02*
X0216935Y0199208D01*
X0216935Y0198709D02*
X0261462Y0198709D01*
X0261462Y0198211D02*
X0216567Y0198211D01*
X0216068Y0197712D02*
X0261462Y0197712D01*
X0261461Y0197214D02*
X0213935Y0197214D01*
X0213571Y0196715D02*
X0261461Y0196715D01*
X0261460Y0196217D02*
X0213072Y0196217D01*
X0210882Y0196217D02*
X0210072Y0196217D01*
X0207882Y0196217D02*
X0193207Y0196217D01*
X0193413Y0195718D02*
X0261460Y0195718D01*
X0261460Y0195220D02*
X0193574Y0195220D01*
X0193574Y0194721D02*
X0261459Y0194721D01*
X0261459Y0194223D02*
X0193536Y0194223D01*
X0193330Y0193724D02*
X0261458Y0193724D01*
X0261458Y0193226D02*
X0193129Y0193226D01*
X0193368Y0192727D02*
X0261458Y0192727D01*
X0261457Y0192229D02*
X0193574Y0192229D01*
X0193574Y0191730D02*
X0261457Y0191730D01*
X0261456Y0191232D02*
X0193574Y0191232D01*
X0193375Y0190733D02*
X0261456Y0190733D01*
X0261456Y0190235D02*
X0193145Y0190235D01*
X0190109Y0197214D02*
X0188825Y0197214D01*
X0187009Y0197214D02*
X0185725Y0197214D01*
X0170092Y0187244D02*
X0147714Y0187244D01*
X0147216Y0187742D02*
X0169622Y0187742D01*
X0168517Y0192229D02*
X0167938Y0192229D01*
X0164370Y0194223D02*
X0103578Y0194223D01*
X0103288Y0193932D02*
X0104435Y0195079D01*
X0104435Y0196700D01*
X0103745Y0197389D01*
X0104435Y0198079D01*
X0104435Y0199700D01*
X0103288Y0200847D01*
X0101667Y0200847D01*
X0100520Y0199700D01*
X0100520Y0198079D01*
X0101210Y0197389D01*
X0100520Y0196700D01*
X0100520Y0195079D01*
X0101667Y0193932D01*
X0103288Y0193932D01*
X0104077Y0194721D02*
X0164370Y0194721D01*
X0164686Y0195220D02*
X0104435Y0195220D01*
X0104435Y0195718D02*
X0165027Y0195718D01*
X0164529Y0196217D02*
X0104435Y0196217D01*
X0104419Y0196715D02*
X0164370Y0196715D01*
X0164370Y0197214D02*
X0103921Y0197214D01*
X0104068Y0197712D02*
X0164370Y0197712D01*
X0164378Y0198211D02*
X0104435Y0198211D01*
X0104435Y0198709D02*
X0164876Y0198709D01*
X0164838Y0199208D02*
X0104435Y0199208D01*
X0104428Y0199706D02*
X0164370Y0199706D01*
X0164370Y0200205D02*
X0103930Y0200205D01*
X0103431Y0200703D02*
X0164370Y0200703D01*
X0164370Y0201202D02*
X0027977Y0201202D01*
X0027977Y0201700D02*
X0164567Y0201700D01*
X0165066Y0202199D02*
X0027977Y0202199D01*
X0027977Y0202697D02*
X0165564Y0202697D01*
X0167591Y0202697D02*
X0168864Y0202697D01*
X0168366Y0202199D02*
X0168089Y0202199D01*
X0149580Y0181760D02*
X0145919Y0181760D01*
X0144007Y0181760D02*
X0140346Y0181760D01*
X0140969Y0181261D02*
X0148958Y0181261D01*
X0148459Y0180763D02*
X0141467Y0180763D01*
X0141710Y0180264D02*
X0148216Y0180264D01*
X0148009Y0179766D02*
X0141917Y0179766D01*
X0142056Y0179267D02*
X0147870Y0179267D01*
X0147870Y0178769D02*
X0142056Y0178769D01*
X0142056Y0178270D02*
X0147870Y0178270D01*
X0147987Y0177772D02*
X0141939Y0177772D01*
X0141733Y0177273D02*
X0148193Y0177273D01*
X0148405Y0176775D02*
X0141521Y0176775D01*
X0154249Y0176775D02*
X0205624Y0176775D01*
X0205126Y0177273D02*
X0154461Y0177273D01*
X0154667Y0177772D02*
X0204627Y0177772D01*
X0204520Y0178270D02*
X0154784Y0178270D01*
X0154784Y0178769D02*
X0204520Y0178769D01*
X0204520Y0179267D02*
X0154784Y0179267D01*
X0154645Y0179766D02*
X0204786Y0179766D01*
X0196044Y0171291D02*
X0195589Y0171291D01*
X0213935Y0201202D02*
X0214022Y0201202D01*
X0221720Y0208879D02*
X0222867Y0207732D01*
X0224488Y0207732D01*
X0225635Y0208879D01*
X0225635Y0210500D01*
X0224488Y0211647D01*
X0223435Y0211647D01*
X0223435Y0212700D01*
X0222288Y0213847D01*
X0221435Y0213847D01*
X0221435Y0214700D01*
X0220288Y0215847D01*
X0219435Y0215847D01*
X0219435Y0216700D01*
X0218288Y0217847D01*
X0216667Y0217847D01*
X0215520Y0216700D01*
X0215520Y0215079D01*
X0216667Y0213932D01*
X0217520Y0213932D01*
X0217520Y0213079D01*
X0218667Y0211932D01*
X0219520Y0211932D01*
X0219520Y0211079D01*
X0220667Y0209932D01*
X0221720Y0209932D01*
X0221720Y0208879D01*
X0221920Y0208680D02*
X0113435Y0208680D01*
X0113435Y0209178D02*
X0221720Y0209178D01*
X0221720Y0209677D02*
X0118817Y0209677D01*
X0118557Y0209416D02*
X0119586Y0210446D01*
X0119586Y0211901D01*
X0118557Y0212931D01*
X0117102Y0212931D01*
X0116072Y0211901D01*
X0116072Y0210446D01*
X0117102Y0209416D01*
X0118557Y0209416D01*
X0119316Y0210175D02*
X0220424Y0210175D01*
X0219926Y0210674D02*
X0119586Y0210674D01*
X0119586Y0211172D02*
X0219520Y0211172D01*
X0219520Y0211671D02*
X0119586Y0211671D01*
X0119319Y0212169D02*
X0218430Y0212169D01*
X0217932Y0212668D02*
X0118820Y0212668D01*
X0118302Y0213516D02*
X0119757Y0213516D01*
X0120786Y0214546D01*
X0120786Y0216001D01*
X0119757Y0217031D01*
X0118302Y0217031D01*
X0117272Y0216001D01*
X0117272Y0214546D01*
X0118302Y0213516D01*
X0118153Y0213665D02*
X0113020Y0213665D01*
X0112969Y0213166D02*
X0217520Y0213166D01*
X0217520Y0213665D02*
X0119905Y0213665D01*
X0120404Y0214163D02*
X0216436Y0214163D01*
X0215938Y0214662D02*
X0120786Y0214662D01*
X0120786Y0215160D02*
X0215520Y0215160D01*
X0215520Y0215659D02*
X0120786Y0215659D01*
X0120631Y0216157D02*
X0215520Y0216157D01*
X0215520Y0216656D02*
X0120132Y0216656D01*
X0117927Y0216656D02*
X0112479Y0216656D01*
X0112977Y0216157D02*
X0117428Y0216157D01*
X0117272Y0215659D02*
X0113435Y0215659D01*
X0113435Y0215160D02*
X0117272Y0215160D01*
X0117272Y0214662D02*
X0113435Y0214662D01*
X0113435Y0214163D02*
X0117655Y0214163D01*
X0116839Y0212668D02*
X0113435Y0212668D01*
X0113435Y0212169D02*
X0116340Y0212169D01*
X0116072Y0211671D02*
X0113435Y0211671D01*
X0113435Y0211172D02*
X0116072Y0211172D01*
X0116072Y0210674D02*
X0113029Y0210674D01*
X0112960Y0210175D02*
X0116343Y0210175D01*
X0116841Y0209677D02*
X0113435Y0209677D01*
X0113435Y0208181D02*
X0222418Y0208181D01*
X0224937Y0208181D02*
X0244833Y0208181D01*
X0242972Y0208680D02*
X0225435Y0208680D01*
X0225635Y0209178D02*
X0241939Y0209178D01*
X0241075Y0209677D02*
X0225635Y0209677D01*
X0225635Y0210175D02*
X0240212Y0210175D01*
X0239407Y0210674D02*
X0225461Y0210674D01*
X0224963Y0211172D02*
X0238909Y0211172D01*
X0238410Y0211671D02*
X0223435Y0211671D01*
X0223435Y0212169D02*
X0237912Y0212169D01*
X0237413Y0212668D02*
X0223435Y0212668D01*
X0222969Y0213166D02*
X0236915Y0213166D01*
X0236622Y0213665D02*
X0222470Y0213665D01*
X0221435Y0214163D02*
X0236334Y0214163D01*
X0236047Y0214662D02*
X0221435Y0214662D01*
X0220974Y0215160D02*
X0235759Y0215160D01*
X0235471Y0215659D02*
X0220476Y0215659D01*
X0219435Y0216157D02*
X0235183Y0216157D01*
X0234992Y0216656D02*
X0219435Y0216656D01*
X0218980Y0217154D02*
X0234858Y0217154D01*
X0234725Y0217653D02*
X0218482Y0217653D01*
X0216473Y0217653D02*
X0097363Y0217653D01*
X0097206Y0217496D02*
X0098210Y0218500D01*
X0098753Y0219811D01*
X0098753Y0221230D01*
X0098210Y0222541D01*
X0097206Y0223544D01*
X0095895Y0224087D01*
X0094476Y0224087D01*
X0093165Y0223544D01*
X0092162Y0222541D01*
X0091619Y0221230D01*
X0091619Y0219811D01*
X0092162Y0218500D01*
X0093165Y0217496D01*
X0094476Y0216953D01*
X0095895Y0216953D01*
X0097206Y0217496D01*
X0096380Y0217154D02*
X0215974Y0217154D01*
X0212501Y0220145D02*
X0234129Y0220145D01*
X0234129Y0220644D02*
X0213000Y0220644D01*
X0213435Y0221079D02*
X0212288Y0219932D01*
X0210667Y0219932D01*
X0209520Y0221079D01*
X0209520Y0222700D01*
X0210667Y0223847D01*
X0212288Y0223847D01*
X0213435Y0222700D01*
X0213435Y0221079D01*
X0213435Y0221142D02*
X0234129Y0221142D01*
X0234129Y0221641D02*
X0213435Y0221641D01*
X0213435Y0222139D02*
X0234129Y0222139D01*
X0234129Y0222638D02*
X0213435Y0222638D01*
X0212998Y0223136D02*
X0234129Y0223136D01*
X0234157Y0223635D02*
X0212500Y0223635D01*
X0210455Y0223635D02*
X0120936Y0223635D01*
X0120986Y0223584D02*
X0119840Y0224731D01*
X0118219Y0224731D01*
X0117072Y0223584D01*
X0117072Y0221963D01*
X0117405Y0221631D01*
X0117002Y0221631D01*
X0115972Y0220601D01*
X0115972Y0219146D01*
X0117002Y0218116D01*
X0118457Y0218116D01*
X0119486Y0219146D01*
X0119486Y0220601D01*
X0119271Y0220816D01*
X0119840Y0220816D01*
X0120986Y0221963D01*
X0120986Y0223584D01*
X0120986Y0223136D02*
X0209957Y0223136D01*
X0209520Y0222638D02*
X0120986Y0222638D01*
X0120986Y0222139D02*
X0209520Y0222139D01*
X0209520Y0221641D02*
X0120664Y0221641D01*
X0120166Y0221142D02*
X0209520Y0221142D01*
X0209955Y0220644D02*
X0119444Y0220644D01*
X0119486Y0220145D02*
X0210454Y0220145D01*
X0234190Y0219647D02*
X0119486Y0219647D01*
X0119486Y0219148D02*
X0234324Y0219148D01*
X0234458Y0218650D02*
X0118990Y0218650D01*
X0118492Y0218151D02*
X0234591Y0218151D01*
X0234291Y0224133D02*
X0120437Y0224133D01*
X0119939Y0224632D02*
X0234425Y0224632D01*
X0234558Y0225130D02*
X0113035Y0225130D01*
X0113035Y0224632D02*
X0118120Y0224632D01*
X0117621Y0224133D02*
X0112989Y0224133D01*
X0113035Y0224179D02*
X0111888Y0223032D01*
X0110267Y0223032D01*
X0109120Y0224179D01*
X0109120Y0225800D01*
X0110267Y0226947D01*
X0111888Y0226947D01*
X0113035Y0225800D01*
X0113035Y0224179D01*
X0112491Y0223635D02*
X0117123Y0223635D01*
X0117072Y0223136D02*
X0111992Y0223136D01*
X0110163Y0223136D02*
X0097614Y0223136D01*
X0098113Y0222638D02*
X0117072Y0222638D01*
X0117072Y0222139D02*
X0098376Y0222139D01*
X0098582Y0221641D02*
X0117394Y0221641D01*
X0116513Y0221142D02*
X0098753Y0221142D01*
X0098753Y0220644D02*
X0116015Y0220644D01*
X0115972Y0220145D02*
X0098753Y0220145D01*
X0098685Y0219647D02*
X0115972Y0219647D01*
X0115972Y0219148D02*
X0098478Y0219148D01*
X0098272Y0218650D02*
X0116468Y0218650D01*
X0116967Y0218151D02*
X0097861Y0218151D01*
X0093991Y0217154D02*
X0076695Y0217154D01*
X0076210Y0216953D02*
X0077521Y0217496D01*
X0078525Y0218500D01*
X0079068Y0219811D01*
X0079068Y0221230D01*
X0078525Y0222541D01*
X0077521Y0223544D01*
X0076210Y0224087D01*
X0074791Y0224087D01*
X0073480Y0223544D01*
X0072477Y0222541D01*
X0071934Y0221230D01*
X0071934Y0219811D01*
X0072477Y0218500D01*
X0073480Y0217496D01*
X0074791Y0216953D01*
X0076210Y0216953D01*
X0077678Y0217653D02*
X0093009Y0217653D01*
X0092510Y0218151D02*
X0078176Y0218151D01*
X0078587Y0218650D02*
X0092100Y0218650D01*
X0091893Y0219148D02*
X0078793Y0219148D01*
X0079000Y0219647D02*
X0091687Y0219647D01*
X0091619Y0220145D02*
X0079068Y0220145D01*
X0079068Y0220644D02*
X0091619Y0220644D01*
X0091619Y0221142D02*
X0079068Y0221142D01*
X0078897Y0221641D02*
X0091789Y0221641D01*
X0091996Y0222139D02*
X0078691Y0222139D01*
X0078427Y0222638D02*
X0092259Y0222638D01*
X0092758Y0223136D02*
X0077929Y0223136D01*
X0077302Y0223635D02*
X0093384Y0223635D01*
X0096987Y0223635D02*
X0109664Y0223635D01*
X0109166Y0224133D02*
X0051716Y0224133D01*
X0051849Y0223635D02*
X0073699Y0223635D01*
X0073073Y0223136D02*
X0051924Y0223136D01*
X0051924Y0222638D02*
X0072574Y0222638D01*
X0072311Y0222139D02*
X0051924Y0222139D01*
X0051924Y0221641D02*
X0072104Y0221641D01*
X0071934Y0221142D02*
X0051924Y0221142D01*
X0051924Y0220644D02*
X0071934Y0220644D01*
X0071934Y0220145D02*
X0051924Y0220145D01*
X0051909Y0219647D02*
X0072002Y0219647D01*
X0072208Y0219148D02*
X0051775Y0219148D01*
X0051642Y0218650D02*
X0072415Y0218650D01*
X0072825Y0218151D02*
X0051508Y0218151D01*
X0051375Y0217653D02*
X0073324Y0217653D01*
X0074306Y0217154D02*
X0051241Y0217154D01*
X0051107Y0216656D02*
X0110476Y0216656D01*
X0109977Y0216157D02*
X0050970Y0216157D01*
X0050682Y0215659D02*
X0109520Y0215659D01*
X0109520Y0215160D02*
X0050394Y0215160D01*
X0050106Y0214662D02*
X0109520Y0214662D01*
X0109520Y0214163D02*
X0049818Y0214163D01*
X0049531Y0213665D02*
X0109935Y0213665D01*
X0109986Y0213166D02*
X0049243Y0213166D01*
X0048813Y0212668D02*
X0109520Y0212668D01*
X0109520Y0212169D02*
X0048314Y0212169D01*
X0047816Y0211671D02*
X0109520Y0211671D01*
X0109520Y0211172D02*
X0047317Y0211172D01*
X0046819Y0210674D02*
X0109926Y0210674D01*
X0109995Y0210175D02*
X0046141Y0210175D01*
X0045278Y0209677D02*
X0109520Y0209677D01*
X0109520Y0209178D02*
X0044414Y0209178D01*
X0043551Y0208680D02*
X0109520Y0208680D01*
X0109520Y0208181D02*
X0041866Y0208181D01*
X0040005Y0207683D02*
X0109917Y0207683D01*
X0110004Y0207184D02*
X0027977Y0207184D01*
X0027977Y0206686D02*
X0109520Y0206686D01*
X0109520Y0206187D02*
X0027977Y0206187D01*
X0027977Y0205688D02*
X0109520Y0205688D01*
X0109520Y0205190D02*
X0027977Y0205190D01*
X0027977Y0204691D02*
X0109908Y0204691D01*
X0110406Y0204193D02*
X0027977Y0204193D01*
X0027977Y0207683D02*
X0036074Y0207683D01*
X0034214Y0208181D02*
X0027977Y0208181D01*
X0027977Y0208680D02*
X0032529Y0208680D01*
X0031665Y0209178D02*
X0027977Y0209178D01*
X0027977Y0209677D02*
X0030802Y0209677D01*
X0029938Y0210175D02*
X0027977Y0210175D01*
X0027977Y0210674D02*
X0029261Y0210674D01*
X0028762Y0211172D02*
X0027977Y0211172D01*
X0027977Y0211671D02*
X0028264Y0211671D01*
X0027977Y0200703D02*
X0101524Y0200703D01*
X0101025Y0200205D02*
X0027977Y0200205D01*
X0027977Y0199706D02*
X0100527Y0199706D01*
X0100520Y0199208D02*
X0027977Y0199208D01*
X0027977Y0198709D02*
X0100520Y0198709D01*
X0100520Y0198211D02*
X0027977Y0198211D01*
X0027977Y0197712D02*
X0100887Y0197712D01*
X0101034Y0197214D02*
X0027977Y0197214D01*
X0027977Y0196715D02*
X0100536Y0196715D01*
X0100520Y0196217D02*
X0027977Y0196217D01*
X0027977Y0195718D02*
X0100520Y0195718D01*
X0100520Y0195220D02*
X0027977Y0195220D01*
X0027977Y0194721D02*
X0100878Y0194721D01*
X0101376Y0194223D02*
X0027977Y0194223D01*
X0051582Y0224632D02*
X0109120Y0224632D01*
X0109120Y0225130D02*
X0051448Y0225130D01*
X0051315Y0225629D02*
X0109120Y0225629D01*
X0109448Y0226127D02*
X0051181Y0226127D01*
X0051048Y0226626D02*
X0109946Y0226626D01*
X0112209Y0226626D02*
X0234959Y0226626D01*
X0234825Y0226127D02*
X0112707Y0226127D01*
X0113035Y0225629D02*
X0234692Y0225629D01*
X0235112Y0227124D02*
X0050841Y0227124D01*
X0050553Y0227623D02*
X0235400Y0227623D01*
X0235688Y0228122D02*
X0050265Y0228122D01*
X0049978Y0228620D02*
X0235975Y0228620D01*
X0236263Y0229119D02*
X0049690Y0229119D01*
X0049402Y0229617D02*
X0236551Y0229617D01*
X0236839Y0230116D02*
X0049088Y0230116D01*
X0048590Y0230614D02*
X0237290Y0230614D01*
X0237789Y0231113D02*
X0048091Y0231113D01*
X0047593Y0231611D02*
X0104888Y0231611D01*
X0104390Y0232110D02*
X0047094Y0232110D01*
X0046596Y0232608D02*
X0104020Y0232608D01*
X0104020Y0233107D02*
X0045755Y0233107D01*
X0044892Y0233605D02*
X0104020Y0233605D01*
X0104024Y0234104D02*
X0044028Y0234104D01*
X0042895Y0234602D02*
X0104522Y0234602D01*
X0105021Y0235101D02*
X0041034Y0235101D01*
X0065109Y0193226D02*
X0077846Y0193226D01*
X0077347Y0192727D02*
X0065607Y0192727D01*
X0066106Y0192229D02*
X0076849Y0192229D01*
X0076720Y0191730D02*
X0066235Y0191730D01*
X0066235Y0191232D02*
X0076720Y0191232D01*
X0076720Y0190733D02*
X0066235Y0190733D01*
X0065990Y0190235D02*
X0076965Y0190235D01*
X0077463Y0189736D02*
X0065492Y0189736D01*
X0084343Y0171291D02*
X0102977Y0171291D01*
X0103772Y0170793D02*
X0084842Y0170793D01*
X0084556Y0168300D02*
X0101637Y0168300D01*
X0100850Y0167802D02*
X0084057Y0167802D01*
X0082403Y0155837D02*
X0094120Y0155837D01*
X0094120Y0155339D02*
X0082902Y0155339D01*
X0083362Y0154840D02*
X0094120Y0154840D01*
X0094257Y0154342D02*
X0083362Y0154342D01*
X0089173Y0151351D02*
X0075125Y0151351D01*
X0073626Y0151351D02*
X0054397Y0151351D01*
X0054397Y0150852D02*
X0089672Y0150852D01*
X0104502Y0148858D02*
X0057213Y0148858D01*
X0057213Y0148360D02*
X0104454Y0148360D01*
X0104454Y0147861D02*
X0057213Y0147861D01*
X0056881Y0147363D02*
X0104455Y0147363D01*
X0104661Y0146864D02*
X0056382Y0146864D01*
X0057008Y0149357D02*
X0104709Y0149357D01*
X0104915Y0149855D02*
X0056509Y0149855D01*
X0054403Y0149855D02*
X0054281Y0149855D01*
X0054397Y0150354D02*
X0105322Y0150354D01*
X0102219Y0135398D02*
X0089078Y0135398D01*
X0088024Y0134900D02*
X0101720Y0134900D01*
X0101320Y0134401D02*
X0087914Y0134401D01*
X0087416Y0133903D02*
X0101320Y0133903D01*
X0073128Y0151849D02*
X0053974Y0151849D01*
X0053476Y0152348D02*
X0072629Y0152348D01*
X0073841Y0155837D02*
X0068407Y0155837D01*
X0069611Y0156336D02*
X0073857Y0156336D01*
X0074355Y0156834D02*
X0070446Y0156834D01*
X0070944Y0157333D02*
X0074854Y0157333D01*
X0053810Y0138389D02*
X0032586Y0138389D01*
X0032586Y0138888D02*
X0053311Y0138888D01*
X0052813Y0139386D02*
X0032586Y0139386D01*
X0032386Y0139885D02*
X0052720Y0139885D01*
X0052720Y0140384D02*
X0031887Y0140384D01*
X0029372Y0140384D02*
X0027977Y0140384D01*
X0027977Y0140882D02*
X0052720Y0140882D01*
X0053001Y0141381D02*
X0027977Y0141381D01*
X0027977Y0141879D02*
X0053499Y0141879D01*
X0029343Y0137392D02*
X0027977Y0137392D01*
X0027977Y0137891D02*
X0028844Y0137891D01*
X0028672Y0138389D02*
X0027977Y0138389D01*
X0027977Y0138888D02*
X0028672Y0138888D01*
X0028672Y0139386D02*
X0027977Y0139386D01*
X0027977Y0139885D02*
X0028873Y0139885D01*
X0027977Y0113962D02*
X0034568Y0113962D01*
X0034069Y0113464D02*
X0027977Y0113464D01*
X0027977Y0112965D02*
X0033707Y0112965D01*
X0033707Y0112467D02*
X0027977Y0112467D01*
X0027977Y0111968D02*
X0033707Y0111968D01*
X0033717Y0111470D02*
X0027977Y0111470D01*
X0027977Y0110971D02*
X0034216Y0110971D01*
X0034714Y0110473D02*
X0027977Y0110473D01*
X0027977Y0107980D02*
X0056001Y0107980D01*
X0055721Y0107482D02*
X0027977Y0107482D01*
X0027977Y0106983D02*
X0055721Y0106983D01*
X0055721Y0106485D02*
X0027977Y0106485D01*
X0027977Y0105986D02*
X0055980Y0105986D01*
X0056479Y0105488D02*
X0027977Y0105488D01*
X0031874Y0102497D02*
X0047920Y0102497D01*
X0047920Y0101998D02*
X0032372Y0101998D01*
X0032786Y0101500D02*
X0048400Y0101500D01*
X0048898Y0101001D02*
X0032786Y0101001D01*
X0032329Y0099506D02*
X0037826Y0099506D01*
X0037327Y0099007D02*
X0031831Y0099007D01*
X0027977Y0093025D02*
X0065074Y0093025D01*
X0067619Y0096016D02*
X0068536Y0096016D01*
X0049535Y0096515D02*
X0043870Y0096515D01*
X0043372Y0096016D02*
X0049120Y0096016D01*
X0042368Y0085547D02*
X0037387Y0085547D01*
X0037188Y0085747D02*
X0035567Y0085747D01*
X0034420Y0084600D01*
X0034420Y0082979D01*
X0034553Y0082847D01*
X0033267Y0082847D01*
X0032120Y0081700D01*
X0032120Y0080079D01*
X0033267Y0078932D01*
X0034888Y0078932D01*
X0036035Y0080079D01*
X0036035Y0081700D01*
X0035902Y0081832D01*
X0037188Y0081832D01*
X0038335Y0082979D01*
X0038335Y0084600D01*
X0037188Y0085747D01*
X0037886Y0085049D02*
X0041869Y0085049D01*
X0041420Y0084550D02*
X0038335Y0084550D01*
X0038335Y0084052D02*
X0041420Y0084052D01*
X0041420Y0083553D02*
X0038335Y0083553D01*
X0038335Y0083055D02*
X0041420Y0083055D01*
X0041843Y0082556D02*
X0037912Y0082556D01*
X0037413Y0082058D02*
X0042342Y0082058D01*
X0044220Y0081559D02*
X0036035Y0081559D01*
X0036035Y0081061D02*
X0044220Y0081061D01*
X0044220Y0080562D02*
X0036035Y0080562D01*
X0036019Y0080064D02*
X0044236Y0080064D01*
X0044734Y0079565D02*
X0035521Y0079565D01*
X0035022Y0079067D02*
X0038787Y0079067D01*
X0038288Y0078568D02*
X0027977Y0078568D01*
X0027977Y0078070D02*
X0037820Y0078070D01*
X0037820Y0077571D02*
X0027977Y0077571D01*
X0027977Y0077073D02*
X0037820Y0077073D01*
X0037820Y0076574D02*
X0027977Y0076574D01*
X0027977Y0076076D02*
X0038224Y0076076D01*
X0040768Y0079067D02*
X0045233Y0079067D01*
X0044578Y0082058D02*
X0044413Y0082058D01*
X0044912Y0082556D02*
X0045076Y0082556D01*
X0035368Y0085547D02*
X0027977Y0085547D01*
X0027977Y0085049D02*
X0034869Y0085049D01*
X0034420Y0084550D02*
X0027977Y0084550D01*
X0027977Y0084052D02*
X0034420Y0084052D01*
X0034420Y0083553D02*
X0027977Y0083553D01*
X0027977Y0083055D02*
X0034420Y0083055D01*
X0032976Y0082556D02*
X0027977Y0082556D01*
X0027977Y0082058D02*
X0032478Y0082058D01*
X0032120Y0081559D02*
X0027977Y0081559D01*
X0027977Y0081061D02*
X0032120Y0081061D01*
X0032120Y0080562D02*
X0027977Y0080562D01*
X0027977Y0080064D02*
X0032136Y0080064D01*
X0032634Y0079565D02*
X0027977Y0079565D01*
X0027977Y0079067D02*
X0033133Y0079067D01*
X0051736Y0025227D02*
X0234061Y0025227D01*
X0233927Y0024729D02*
X0051870Y0024729D01*
X0052003Y0024230D02*
X0233793Y0024230D01*
X0233693Y0023732D02*
X0052068Y0023732D01*
X0052068Y0023233D02*
X0175748Y0023233D01*
X0175814Y0023299D02*
X0174668Y0022153D01*
X0174668Y0020532D01*
X0175814Y0019385D01*
X0177435Y0019385D01*
X0178582Y0020532D01*
X0178582Y0022153D01*
X0177435Y0023299D01*
X0175814Y0023299D01*
X0175250Y0022735D02*
X0052068Y0022735D01*
X0052068Y0022236D02*
X0151057Y0022236D01*
X0151067Y0022247D02*
X0149920Y0021100D01*
X0149920Y0019479D01*
X0151067Y0018332D01*
X0152688Y0018332D01*
X0153835Y0019479D01*
X0153835Y0021100D01*
X0152688Y0022247D01*
X0151067Y0022247D01*
X0150558Y0021738D02*
X0052068Y0021738D01*
X0052068Y0021239D02*
X0150060Y0021239D01*
X0149920Y0020741D02*
X0052068Y0020741D01*
X0052044Y0020242D02*
X0149920Y0020242D01*
X0149920Y0019744D02*
X0051910Y0019744D01*
X0051777Y0019245D02*
X0110566Y0019245D01*
X0110567Y0019247D02*
X0109420Y0018100D01*
X0109420Y0016479D01*
X0110567Y0015332D01*
X0112188Y0015332D01*
X0113335Y0016479D01*
X0113335Y0018100D01*
X0112188Y0019247D01*
X0110567Y0019247D01*
X0110067Y0018747D02*
X0051643Y0018747D01*
X0051510Y0018248D02*
X0109568Y0018248D01*
X0109420Y0017750D02*
X0051376Y0017750D01*
X0051242Y0017251D02*
X0109420Y0017251D01*
X0109420Y0016753D02*
X0051094Y0016753D01*
X0050806Y0016254D02*
X0109645Y0016254D01*
X0110144Y0015756D02*
X0050518Y0015756D01*
X0050230Y0015257D02*
X0161942Y0015257D01*
X0162167Y0015032D02*
X0163788Y0015032D01*
X0164935Y0016179D01*
X0164935Y0017800D01*
X0163788Y0018947D01*
X0162167Y0018947D01*
X0161020Y0017800D01*
X0161020Y0016179D01*
X0162167Y0015032D01*
X0161444Y0015756D02*
X0112611Y0015756D01*
X0113110Y0016254D02*
X0161020Y0016254D01*
X0161020Y0016753D02*
X0113335Y0016753D01*
X0113335Y0017251D02*
X0161020Y0017251D01*
X0161020Y0017750D02*
X0113335Y0017750D01*
X0113186Y0018248D02*
X0161468Y0018248D01*
X0161967Y0018747D02*
X0153102Y0018747D01*
X0153601Y0019245D02*
X0210466Y0019245D01*
X0210467Y0019247D02*
X0209320Y0018100D01*
X0209320Y0016479D01*
X0210467Y0015332D01*
X0212088Y0015332D01*
X0213235Y0016479D01*
X0213235Y0018100D01*
X0212088Y0019247D01*
X0210467Y0019247D01*
X0209967Y0018747D02*
X0163988Y0018747D01*
X0164486Y0018248D02*
X0209468Y0018248D01*
X0209320Y0017750D02*
X0164935Y0017750D01*
X0164935Y0017251D02*
X0209320Y0017251D01*
X0209320Y0016753D02*
X0164935Y0016753D01*
X0164935Y0016254D02*
X0209545Y0016254D01*
X0210044Y0015756D02*
X0189779Y0015756D01*
X0189288Y0016247D02*
X0187667Y0016247D01*
X0186520Y0015100D01*
X0186520Y0013479D01*
X0187667Y0012332D01*
X0189288Y0012332D01*
X0190435Y0013479D01*
X0190435Y0015100D01*
X0189288Y0016247D01*
X0190277Y0015257D02*
X0213520Y0015257D01*
X0213520Y0015700D02*
X0213520Y0014079D01*
X0214667Y0012932D01*
X0216288Y0012932D01*
X0217435Y0014079D01*
X0217435Y0015700D01*
X0216288Y0016847D01*
X0214667Y0016847D01*
X0213520Y0015700D01*
X0213576Y0015756D02*
X0212511Y0015756D01*
X0213010Y0016254D02*
X0214074Y0016254D01*
X0214573Y0016753D02*
X0213235Y0016753D01*
X0213235Y0017251D02*
X0218020Y0017251D01*
X0218020Y0016753D02*
X0216382Y0016753D01*
X0216880Y0016254D02*
X0218020Y0016254D01*
X0218020Y0016179D02*
X0219167Y0015032D01*
X0220788Y0015032D01*
X0221935Y0016179D01*
X0221935Y0017800D01*
X0220788Y0018947D01*
X0219167Y0018947D01*
X0218020Y0017800D01*
X0218020Y0016179D01*
X0218444Y0015756D02*
X0217379Y0015756D01*
X0217435Y0015257D02*
X0218942Y0015257D01*
X0217435Y0014759D02*
X0235743Y0014759D01*
X0235455Y0015257D02*
X0221013Y0015257D01*
X0221511Y0015756D02*
X0235167Y0015756D01*
X0234879Y0016254D02*
X0221935Y0016254D01*
X0221935Y0016753D02*
X0234617Y0016753D01*
X0234483Y0017251D02*
X0221935Y0017251D01*
X0221935Y0017750D02*
X0234350Y0017750D01*
X0234216Y0018248D02*
X0221486Y0018248D01*
X0220988Y0018747D02*
X0234083Y0018747D01*
X0233949Y0019245D02*
X0212089Y0019245D01*
X0212588Y0018747D02*
X0218967Y0018747D01*
X0218468Y0018248D02*
X0213086Y0018248D01*
X0213235Y0017750D02*
X0218020Y0017750D01*
X0217435Y0014260D02*
X0236030Y0014260D01*
X0236318Y0013762D02*
X0217117Y0013762D01*
X0216619Y0013263D02*
X0236708Y0013263D01*
X0237206Y0012765D02*
X0189720Y0012765D01*
X0190219Y0013263D02*
X0214336Y0013263D01*
X0213838Y0013762D02*
X0190435Y0013762D01*
X0190435Y0014260D02*
X0213520Y0014260D01*
X0213520Y0014759D02*
X0190435Y0014759D01*
X0187176Y0015756D02*
X0164511Y0015756D01*
X0164013Y0015257D02*
X0186677Y0015257D01*
X0186520Y0014759D02*
X0049943Y0014759D01*
X0049655Y0014260D02*
X0186520Y0014260D01*
X0186520Y0013762D02*
X0049367Y0013762D01*
X0048922Y0013263D02*
X0186736Y0013263D01*
X0187235Y0012765D02*
X0048423Y0012765D01*
X0047925Y0012266D02*
X0237705Y0012266D01*
X0238203Y0011768D02*
X0047426Y0011768D01*
X0046928Y0011269D02*
X0238702Y0011269D01*
X0239308Y0010771D02*
X0046224Y0010771D01*
X0045361Y0010272D02*
X0240172Y0010272D01*
X0233816Y0019744D02*
X0177794Y0019744D01*
X0178292Y0020242D02*
X0233693Y0020242D01*
X0233693Y0020741D02*
X0178582Y0020741D01*
X0178582Y0021239D02*
X0233693Y0021239D01*
X0233693Y0021738D02*
X0178582Y0021738D01*
X0178498Y0022236D02*
X0233693Y0022236D01*
X0233693Y0022735D02*
X0178000Y0022735D01*
X0177501Y0023233D02*
X0233693Y0023233D01*
X0235983Y0029714D02*
X0212497Y0029714D01*
X0212996Y0030213D02*
X0236271Y0030213D01*
X0236625Y0030711D02*
X0213415Y0030711D01*
X0213415Y0031210D02*
X0237124Y0031210D01*
X0237622Y0031708D02*
X0213415Y0031708D01*
X0213415Y0032207D02*
X0238121Y0032207D01*
X0238619Y0032705D02*
X0212962Y0032705D01*
X0212463Y0033204D02*
X0239165Y0033204D01*
X0221053Y0058129D02*
X0205751Y0058129D01*
X0205751Y0058628D02*
X0220554Y0058628D01*
X0220320Y0059126D02*
X0205436Y0059126D01*
X0204937Y0059625D02*
X0220320Y0059625D01*
X0216876Y0070592D02*
X0179048Y0070592D01*
X0179135Y0071090D02*
X0216378Y0071090D01*
X0216207Y0071589D02*
X0179135Y0071589D01*
X0179135Y0072087D02*
X0216207Y0072087D01*
X0216207Y0072586D02*
X0178849Y0072586D01*
X0178350Y0073084D02*
X0216574Y0073084D01*
X0208082Y0067102D02*
X0182613Y0067102D01*
X0182613Y0066604D02*
X0207583Y0066604D01*
X0207085Y0066105D02*
X0182256Y0066105D01*
X0181758Y0065607D02*
X0207044Y0065607D01*
X0201836Y0058628D02*
X0192634Y0058628D01*
X0193132Y0058129D02*
X0201836Y0058129D01*
X0201836Y0057631D02*
X0193470Y0057631D01*
X0193470Y0057132D02*
X0201894Y0057132D01*
X0202393Y0056634D02*
X0193470Y0056634D01*
X0193353Y0056135D02*
X0202891Y0056135D01*
X0181664Y0053144D02*
X0169191Y0053144D01*
X0169689Y0052646D02*
X0176049Y0052646D01*
X0176350Y0052947D02*
X0175320Y0051917D01*
X0175320Y0050462D01*
X0176350Y0049432D01*
X0177805Y0049432D01*
X0178835Y0050462D01*
X0178835Y0051917D01*
X0177805Y0052947D01*
X0176350Y0052947D01*
X0175550Y0052147D02*
X0170188Y0052147D01*
X0170335Y0051648D02*
X0175320Y0051648D01*
X0175320Y0051150D02*
X0170335Y0051150D01*
X0170335Y0050651D02*
X0175320Y0050651D01*
X0175629Y0050153D02*
X0170109Y0050153D01*
X0169610Y0049654D02*
X0176128Y0049654D01*
X0178027Y0049654D02*
X0181845Y0049654D01*
X0181346Y0050153D02*
X0178526Y0050153D01*
X0178835Y0050651D02*
X0180848Y0050651D01*
X0180820Y0051150D02*
X0178835Y0051150D01*
X0178835Y0051648D02*
X0180820Y0051648D01*
X0180820Y0052147D02*
X0178605Y0052147D01*
X0178106Y0052646D02*
X0181166Y0052646D01*
X0162640Y0061120D02*
X0133186Y0061120D01*
X0133186Y0060622D02*
X0162142Y0060622D01*
X0161643Y0060123D02*
X0133064Y0060123D01*
X0132565Y0059625D02*
X0161620Y0059625D01*
X0155318Y0074082D02*
X0154737Y0074082D01*
X0154893Y0077073D02*
X0154562Y0077073D01*
X0155391Y0077571D02*
X0153235Y0077571D01*
X0147693Y0077073D02*
X0145562Y0077073D01*
X0145288Y0077347D02*
X0143667Y0077347D01*
X0142520Y0076200D01*
X0142520Y0074579D01*
X0143667Y0073432D01*
X0145288Y0073432D01*
X0146435Y0074579D01*
X0146435Y0076200D01*
X0145288Y0077347D01*
X0146061Y0076574D02*
X0147194Y0076574D01*
X0146920Y0076076D02*
X0146435Y0076076D01*
X0146435Y0075577D02*
X0146920Y0075577D01*
X0146920Y0075079D02*
X0146435Y0075079D01*
X0146435Y0074580D02*
X0147019Y0074580D01*
X0147518Y0074082D02*
X0145937Y0074082D01*
X0145439Y0073583D02*
X0148016Y0073583D01*
X0143516Y0073583D02*
X0093468Y0073583D01*
X0092970Y0074082D02*
X0143018Y0074082D01*
X0142520Y0074580D02*
X0092471Y0074580D01*
X0091973Y0075079D02*
X0142520Y0075079D01*
X0142520Y0075577D02*
X0091474Y0075577D01*
X0090976Y0076076D02*
X0142520Y0076076D01*
X0142894Y0076574D02*
X0090477Y0076574D01*
X0089979Y0077073D02*
X0143393Y0077073D01*
X0131429Y0060974D02*
X0122429Y0069974D01*
X0095229Y0069974D01*
X0112189Y0019245D02*
X0150154Y0019245D01*
X0150652Y0018747D02*
X0112688Y0018747D01*
X0152698Y0022236D02*
X0174751Y0022236D01*
X0174668Y0021738D02*
X0153197Y0021738D01*
X0153695Y0021239D02*
X0174668Y0021239D01*
X0174668Y0020741D02*
X0153835Y0020741D01*
X0153835Y0020242D02*
X0174957Y0020242D01*
X0175455Y0019744D02*
X0153835Y0019744D01*
X0157623Y0129915D02*
X0157730Y0129915D01*
X0113435Y0206187D02*
X0261468Y0206187D01*
X0261469Y0206686D02*
X0113435Y0206686D01*
X0112951Y0207184D02*
X0261469Y0207184D01*
X0261470Y0207683D02*
X0113038Y0207683D01*
X0112188Y0231611D02*
X0110767Y0231611D01*
X0111265Y0232110D02*
X0111690Y0232110D01*
X0114367Y0231611D02*
X0238287Y0231611D01*
X0238786Y0232110D02*
X0114865Y0232110D01*
X0115235Y0232608D02*
X0239284Y0232608D01*
X0239998Y0233107D02*
X0115235Y0233107D01*
X0115235Y0233605D02*
X0240862Y0233605D01*
X0241725Y0234104D02*
X0115231Y0234104D01*
X0114733Y0234602D02*
X0242588Y0234602D01*
X0244373Y0235101D02*
X0114234Y0235101D01*
X0108588Y0231611D02*
X0107067Y0231611D01*
X0107565Y0232110D02*
X0108090Y0232110D01*
X0251193Y0208181D02*
X0261470Y0208181D01*
X0261470Y0208680D02*
X0253054Y0208680D01*
X0254088Y0209178D02*
X0261471Y0209178D01*
X0261471Y0209677D02*
X0254951Y0209677D01*
X0255815Y0210175D02*
X0261472Y0210175D01*
X0261472Y0210674D02*
X0256619Y0210674D01*
X0257118Y0211172D02*
X0261472Y0211172D01*
X0261473Y0211671D02*
X0257616Y0211671D01*
X0258115Y0212169D02*
X0261473Y0212169D01*
X0261474Y0212668D02*
X0258613Y0212668D01*
X0259112Y0213166D02*
X0261474Y0213166D01*
X0261474Y0213665D02*
X0259404Y0213665D01*
X0259692Y0214163D02*
X0261475Y0214163D01*
X0261475Y0214662D02*
X0259980Y0214662D01*
X0260268Y0215160D02*
X0261476Y0215160D01*
X0261476Y0215659D02*
X0260555Y0215659D01*
X0260843Y0216157D02*
X0261477Y0216157D01*
X0261477Y0216656D02*
X0261035Y0216656D01*
X0261168Y0217154D02*
X0261477Y0217154D01*
X0261478Y0217653D02*
X0261302Y0217653D01*
X0261435Y0218151D02*
X0261478Y0218151D01*
D18*
X0241329Y0044274D03*
D19*
X0234092Y0150119D03*
X0169877Y0193989D03*
X0166577Y0193989D03*
X0166577Y0197289D03*
X0169877Y0197289D03*
X0169877Y0200589D03*
X0166577Y0200589D03*
D20*
X0030829Y0117074D03*
D21*
X0038184Y0022160D03*
X0038040Y0221529D03*
X0248013Y0221703D03*
X0247577Y0022028D03*
M02*
